<svg width="91" height="24" viewBox="0 0 91 24" fill="none" xmlns="http://www.w3.org/2000/svg">
<rect y="1" width="91" height="23" rx="3" fill="#D9D9D9"/>
<rect width="89" height="22" rx="3" fill="white"/>
<path d="M13.2871 14.6895C12.9863 14.8496 12.6777 14.9688 12.3613 15.0469C12.0449 15.1289 11.709 15.1699 11.3535 15.1699C10.2324 15.1699 9.36133 14.7734 8.74023 13.9805C8.12305 13.1875 7.81445 12.0723 7.81445 10.6348C7.81445 9.20508 8.125 8.0918 8.74609 7.29492C9.37109 6.49414 10.2402 6.09375 11.3535 6.09375C11.709 6.09375 12.0449 6.13477 12.3613 6.2168C12.6777 6.29492 12.9863 6.41406 13.2871 6.57422V7.78711C12.998 7.54883 12.6875 7.36719 12.3555 7.24219C12.0234 7.11719 11.6895 7.05469 11.3535 7.05469C10.584 7.05469 10.0078 7.35156 9.625 7.94531C9.24219 8.53906 9.05078 9.43555 9.05078 10.6348C9.05078 11.8301 9.24219 12.7246 9.625 13.3184C10.0078 13.9121 10.584 14.209 11.3535 14.209C11.6973 14.209 12.0332 14.1465 12.3613 14.0215C12.6934 13.8965 13.002 13.7148 13.2871 13.4766V14.6895ZM19.5332 10.6348C19.5332 9.34961 19.4004 8.43164 19.1348 7.88086C18.873 7.33008 18.4414 7.05469 17.8398 7.05469C17.2422 7.05469 16.8105 7.33008 16.5449 7.88086C16.2832 8.43164 16.1523 9.34961 16.1523 10.6348C16.1523 11.916 16.2832 12.832 16.5449 13.3828C16.8105 13.9336 17.2422 14.209 17.8398 14.209C18.4414 14.209 18.873 13.9355 19.1348 13.3887C19.4004 12.8379 19.5332 11.9199 19.5332 10.6348ZM20.7695 10.6348C20.7695 12.1582 20.5273 13.2949 20.043 14.0449C19.5625 14.7949 18.8281 15.1699 17.8398 15.1699C16.8516 15.1699 16.1172 14.7969 15.6367 14.0508C15.1562 13.3047 14.916 12.166 14.916 10.6348C14.916 9.10742 15.1562 7.96875 15.6367 7.21875C16.1211 6.46875 16.8555 6.09375 17.8398 6.09375C18.8281 6.09375 19.5625 6.46875 20.043 7.21875C20.5273 7.96875 20.7695 9.10742 20.7695 10.6348ZM21.6719 6.28125H23.2539L24.7656 10.7227L26.2891 6.28125H27.877V15H26.7812V7.29492L25.2227 11.8887H24.3262L22.7617 7.29492V15H21.6719V6.28125ZM29.8691 6.25195H34.7266V7.24805H32.8926V14.0039H34.7266V15H29.8691V14.0039H31.7031V7.24805H29.8691V6.25195ZM36.0332 6.28125H37.6504L41.0723 13.459V6.28125H42.332V15H40.7148L37.293 7.82227V15H36.0332V6.28125ZM49.6211 14.2793C49.3047 14.5723 48.9473 14.7949 48.5488 14.9473C48.1543 15.0957 47.7266 15.1699 47.2656 15.1699C46.1562 15.1699 45.293 14.7734 44.6758 13.9805C44.0586 13.1836 43.75 12.0684 43.75 10.6348C43.75 9.20508 44.0625 8.0918 44.6875 7.29492C45.3125 6.49414 46.1816 6.09375 47.2949 6.09375C47.6621 6.09375 48.0137 6.14648 48.3496 6.25195C48.6855 6.35352 49.0098 6.50977 49.3223 6.7207V7.93359C49.0059 7.63281 48.6816 7.41211 48.3496 7.27148C48.0176 7.12695 47.666 7.05469 47.2949 7.05469C46.5254 7.05469 45.9473 7.35352 45.5605 7.95117C45.1777 8.54492 44.9863 9.43945 44.9863 10.6348C44.9863 11.8496 45.1719 12.75 45.543 13.3359C45.918 13.918 46.4922 14.209 47.2656 14.209C47.5273 14.209 47.7559 14.1797 47.9512 14.1211C48.1504 14.0586 48.3301 13.9629 48.4902 13.834V11.4844H47.2188V10.5117H49.6211V14.2793Z" fill="black"/>
<path d="M59.9297 6.55078V7.75195C59.5703 7.52148 59.209 7.34766 58.8457 7.23047C58.4863 7.11328 58.123 7.05469 57.7559 7.05469C57.1973 7.05469 56.7559 7.18555 56.4316 7.44727C56.1074 7.70508 55.9453 8.05469 55.9453 8.49609C55.9453 8.88281 56.0508 9.17773 56.2617 9.38086C56.4766 9.58398 56.875 9.75391 57.457 9.89062L58.0781 10.0312C58.8984 10.2227 59.4961 10.5234 59.8711 10.9336C60.2461 11.3438 60.4336 11.9023 60.4336 12.6094C60.4336 13.4414 60.1758 14.0762 59.6602 14.5137C59.1445 14.9512 58.3945 15.1699 57.4102 15.1699C57 15.1699 56.5879 15.125 56.1738 15.0352C55.7598 14.9492 55.3438 14.8184 54.9258 14.6426V13.3828C55.375 13.668 55.7988 13.877 56.1973 14.0098C56.5996 14.1426 57.0039 14.209 57.4102 14.209C58.0078 14.209 58.4727 14.0762 58.8047 13.8105C59.1367 13.541 59.3027 13.166 59.3027 12.6855C59.3027 12.248 59.1875 11.9141 58.957 11.6836C58.7305 11.4531 58.334 11.2754 57.7676 11.1504L57.1348 11.0039C56.3223 10.8203 55.7324 10.543 55.3652 10.1719C54.998 9.80078 54.8145 9.30273 54.8145 8.67773C54.8145 7.89648 55.0762 7.27148 55.5996 6.80273C56.127 6.33008 56.8262 6.09375 57.6973 6.09375C58.0332 6.09375 58.3867 6.13281 58.7578 6.21094C59.1289 6.28516 59.5195 6.39844 59.9297 6.55078ZM66.5332 10.6348C66.5332 9.34961 66.4004 8.43164 66.1348 7.88086C65.873 7.33008 65.4414 7.05469 64.8398 7.05469C64.2422 7.05469 63.8105 7.33008 63.5449 7.88086C63.2832 8.43164 63.1523 9.34961 63.1523 10.6348C63.1523 11.916 63.2832 12.832 63.5449 13.3828C63.8105 13.9336 64.2422 14.209 64.8398 14.209C65.4414 14.209 65.873 13.9355 66.1348 13.3887C66.4004 12.8379 66.5332 11.9199 66.5332 10.6348ZM67.7695 10.6348C67.7695 12.1582 67.5273 13.2949 67.043 14.0449C66.5625 14.7949 65.8281 15.1699 64.8398 15.1699C63.8516 15.1699 63.1172 14.7969 62.6367 14.0508C62.1562 13.3047 61.916 12.166 61.916 10.6348C61.916 9.10742 62.1562 7.96875 62.6367 7.21875C63.1211 6.46875 63.8555 6.09375 64.8398 6.09375C65.8281 6.09375 66.5625 6.46875 67.043 7.21875C67.5273 7.96875 67.7695 9.10742 67.7695 10.6348ZM73.7637 10.6348C73.7637 9.34961 73.6309 8.43164 73.3652 7.88086C73.1035 7.33008 72.6719 7.05469 72.0703 7.05469C71.4727 7.05469 71.041 7.33008 70.7754 7.88086C70.5137 8.43164 70.3828 9.34961 70.3828 10.6348C70.3828 11.916 70.5137 12.832 70.7754 13.3828C71.041 13.9336 71.4727 14.209 72.0703 14.209C72.6719 14.209 73.1035 13.9355 73.3652 13.3887C73.6309 12.8379 73.7637 11.9199 73.7637 10.6348ZM75 10.6348C75 12.1582 74.7578 13.2949 74.2734 14.0449C73.793 14.7949 73.0586 15.1699 72.0703 15.1699C71.082 15.1699 70.3477 14.7969 69.8672 14.0508C69.3867 13.3047 69.1465 12.166 69.1465 10.6348C69.1465 9.10742 69.3867 7.96875 69.8672 7.21875C70.3516 6.46875 71.0859 6.09375 72.0703 6.09375C73.0586 6.09375 73.793 6.46875 74.2734 7.21875C74.7578 7.96875 75 9.10742 75 10.6348ZM75.8027 6.28125H77.4199L80.8418 13.459V6.28125H82.1016V15H80.4844L77.0625 7.82227V15H75.8027V6.28125Z" fill="black"/>
</svg>
