<svg width="206" height="48" viewBox="0 0 206 48" fill="none" xmlns="http://www.w3.org/2000/svg">
<g clip-path="url(#clip0_351_3860)">
<path d="M122.486 10.1442V12.0547L118.647 12.8201C120.872 14.2096 121.805 16.1458 122.038 18.5387C122.643 24.7526 119.675 28.5993 113.58 29.0174C110.939 29.1975 108.26 28.8373 105.6 28.7665C104.989 28.7472 104.277 28.7086 103.779 28.9917C103.211 29.3197 102.55 29.9501 102.474 30.5291C102.411 30.9922 103.066 31.8928 103.564 32.0407C105.663 32.6647 107.825 33.0764 109.962 33.5652C113.271 34.3178 116.624 34.9225 119.876 35.8874C121.729 36.4342 123.129 37.83 123.494 39.9592C123.954 42.6481 123.022 44.9638 120.538 46.0638C118.603 46.9193 116.467 47.4403 114.368 47.7298C110.649 48.2508 106.924 48.0772 103.356 46.707C99.8456 45.3562 98.1375 42.7831 98.106 38.8593H101.894C102.14 43.1627 105.159 44.3463 108.689 44.5264C111.336 44.6615 114.015 44.4042 116.662 44.1083C118.112 43.9474 119.378 43.1755 119.58 41.4387C119.738 40.0686 118.868 38.8014 116.952 38.3189C113.857 37.547 110.693 37.0774 107.56 36.4535C105.915 36.1254 104.251 35.8488 102.663 35.3406C100.552 34.6652 98.5913 33.6553 98.4841 30.9729C98.3833 28.4385 100.186 27.5186 102.342 26.7467C99.2468 24.3602 98.6354 21.1696 99.0766 17.606C99.5178 14.0037 101.541 11.7845 104.907 10.8646C106.312 10.4787 107.787 10.2085 109.237 10.1763C113.63 10.0863 118.023 10.1442 122.498 10.1442H122.486ZM110.561 26.1999C116.416 26.2514 118.584 23.4725 117.948 17.9855C117.677 15.6247 116.315 14.0295 114.084 13.7593C111.676 13.4763 109.187 13.4956 106.779 13.7915C104.756 14.0423 103.382 15.5218 103.098 17.651C102.348 23.3053 104.245 25.8912 109.615 26.1871C109.93 26.2064 110.245 26.1871 110.561 26.1871V26.1999Z" fill="black"/>
<path d="M21.1276 13.6114V0H24.8022V36.6529H22.7285C22.489 35.2828 22.2495 33.9319 22.01 32.5682C21.9154 32.5553 21.7642 32.5039 21.7326 32.5425C18.0076 36.9745 10.7655 38.4347 5.59704 35.7909C2.91828 34.4208 1.43077 32.1115 0.731145 29.249C-0.239513 25.293 -0.252119 21.3047 0.743751 17.3551C1.76483 13.3155 4.26711 10.6202 8.39556 10.0992C10.797 9.79684 13.3056 9.95122 15.7196 10.2857C17.8248 10.5816 19.6148 11.7909 20.762 13.7979L21.1276 13.6049V13.6114ZM3.92675 22.8035C4.0213 24.3602 4.04651 25.428 4.15996 26.4894C4.60117 30.4776 6.3534 32.7805 9.80112 33.3852C11.566 33.6939 13.4631 33.6232 15.2469 33.3723C18.3479 32.9284 20.3271 30.8893 20.6864 27.7952C21.0267 24.9199 21.0078 21.948 20.7179 19.0662C20.4279 16.178 18.6631 14.0552 15.7763 13.5728C13.7027 13.2254 11.4966 13.2447 9.41664 13.5599C6.73788 13.9652 5.0991 15.8628 4.50662 18.5387C4.15996 20.089 4.06542 21.6907 3.92045 22.7971L3.92675 22.8035Z" fill="black"/>
<path d="M55.4975 25.0164H34.7986C34.433 28.9981 36.5949 32.3688 40.0804 33.4495C44.9905 34.974 49.163 33.4173 51.5014 29.1911H55.3399C54.9555 31.925 53.5877 33.9319 51.3502 35.0962C46.1124 37.8365 40.7612 37.8429 35.536 35.0512C32.9644 33.6811 31.4958 31.1981 31.0924 28.3806C30.689 25.5631 30.4684 22.6041 30.8403 19.7995C31.6534 13.6821 35.3532 10.3758 41.3663 9.8676C42.7214 9.75182 44.0954 9.75182 45.4506 9.8676C50.8963 10.3307 54.3504 13.695 55.1004 19.3106C55.3399 21.0925 55.3588 22.9 55.4975 25.0164ZM51.3502 21.7679C51.2178 18.4937 50.5938 15.5669 47.644 14.0295C44.3602 12.3184 40.9187 12.3956 37.7925 14.4733C35.3028 16.1329 34.704 18.8089 34.6725 21.7679H51.3502Z" fill="black"/>
<path d="M182.351 25.0292H161.646C161.281 28.9274 163.379 32.2595 166.796 33.3916C171.68 35.0126 175.96 33.4495 178.374 29.1461H182.074C182.099 30.9537 181.236 32.3045 180.152 33.5267C178.57 35.2957 176.521 36.4149 174.252 36.6015C171.466 36.8266 168.592 36.8845 165.844 36.4278C161.627 35.7266 158.81 32.9478 158.047 28.6701C157.518 25.724 157.316 22.5849 157.713 19.6323C158.526 13.6307 162.283 10.3694 168.226 9.86762C169.374 9.77113 170.533 9.77756 171.68 9.82902C177.523 10.0992 181.229 13.5599 181.961 19.4843C182.175 21.2147 182.206 22.9708 182.345 25.0228L182.351 25.0292ZM178.179 21.755C178.046 18.4358 177.404 15.5154 174.416 13.9845C171.164 12.3184 167.766 12.4149 164.672 14.4348C162.15 16.0815 161.558 18.7703 161.52 21.7486H178.173L178.179 21.755Z" fill="black"/>
<path d="M59.7271 27.5508H63.3387C63.5719 30.2203 64.8009 32.2144 67.3789 33.0506C70.7257 34.1377 74.0852 34.2342 77.3312 32.6711C78.5981 32.0664 79.3797 30.9986 79.3734 29.5063C79.3734 27.9624 78.4784 26.9268 77.1611 26.5151C74.4193 25.6596 71.6018 25.0356 68.8348 24.2573C67.1267 23.7748 65.3997 23.2988 63.7673 22.6041C61.7062 21.7293 60.3384 20.1726 60.2061 17.7604C60.0674 15.1552 60.8679 12.8459 63.1811 11.6558C68.3495 9.0056 73.6881 8.87695 78.8629 11.6558C81.3967 13.0131 82.5942 15.7534 82.443 18.7317H79.115C79.0457 18.5387 78.9196 18.3071 78.8881 18.0627C78.5225 15.4511 76.9405 13.7786 74.5327 13.4377C72.1439 13.1032 69.6605 13.3476 67.2276 13.457C66.654 13.4827 66.0426 13.8879 65.5384 14.2546C63.4458 15.7534 63.5277 18.6738 65.8598 19.6966C67.9524 20.6164 70.2467 21.0474 72.4527 21.71C74.8038 22.4176 77.2115 22.9965 79.4806 23.9099C81.7055 24.8105 83.1237 26.5408 83.1993 29.1653C83.2749 31.8992 82.1278 34.0412 79.7894 35.1991C74.3625 37.8879 68.8285 37.83 63.4962 34.9547C60.7733 33.4816 59.7207 30.825 59.7334 27.5572L59.7271 27.5508Z" fill="black"/>
<path d="M151.996 36.685H148.145C148.12 36.1061 148.069 35.5465 148.069 34.9868C148.05 30.1817 148.107 25.3766 148.013 20.5714C147.899 15.2709 145.718 13.1804 140.493 13.1418C140.178 13.1418 139.863 13.1418 139.548 13.1675C134.606 13.4698 132.425 15.6633 132.306 20.7194C132.198 25.4151 132.268 30.1174 132.255 34.8132C132.255 35.3921 132.255 35.9646 132.255 36.64H128.499V10.2857C129.828 9.74535 130.383 10.2857 130.579 11.5465C130.717 12.4663 131.001 13.3669 131.253 14.409C134.972 9.79038 142.252 8.29159 147.37 10.9418C150.193 12.402 151.259 15.0008 151.681 17.9662C151.883 19.3878 151.971 20.8351 151.983 22.276C152.021 27.0169 151.996 31.7641 151.996 36.6915V36.685Z" fill="black"/>
<path d="M187.992 10.1377C190.992 9.92547 189.568 12.878 190.929 13.9394C193.142 10.3758 196.665 9.62957 200.667 9.6939V13.1289C199.684 13.2061 198.714 13.264 197.743 13.3605C194.446 13.7014 192.505 15.406 192.045 18.7253C191.755 20.8223 191.768 22.9772 191.749 25.1064C191.705 28.8952 191.736 32.684 191.736 36.6079H187.998V10.1377H187.992Z" fill="black"/>
<path d="M89.2188 10.1699H92.7862V36.6465H89.2188V10.1699Z" fill="black"/>
<path d="M202.943 31.6097C205.155 31.629 206.025 32.3945 206 34.3114C205.975 36.2476 204.998 37.0581 202.741 37.0324C200.624 37.0067 199.653 36.1383 199.659 34.2793C199.659 32.3817 200.636 31.5969 202.949 31.6162L202.943 31.6097Z" fill="black"/>
<path d="M90.9581 6.00807C88.9537 5.9952 88.1406 5.30692 88.1217 3.63444C88.1091 1.89764 88.96 1.20292 91.0715 1.22865C93.0506 1.24795 93.8826 1.97483 93.8385 3.66661C93.8007 5.30692 92.912 6.02737 90.9581 6.0145V6.00807Z" fill="black"/>
</g>
<defs>
<clipPath id="clip0_351_3860">
<rect width="206" height="48" fill="white"/>
</clipPath>
</defs>
</svg>
