<svg width="185" height="43" viewBox="0 0 185 43" fill="none" xmlns="http://www.w3.org/2000/svg">
<g clip-path="url(#clip0_498_4596)">
<path d="M109.727 9.08752V10.799L106.288 11.4847C108.281 12.7294 109.117 14.464 109.326 16.6076C109.868 22.1742 107.208 25.6202 101.748 25.9948C99.3823 26.1561 96.9826 25.8334 94.5998 25.77C94.0521 25.7528 93.4141 25.7182 92.968 25.9717C92.4598 26.2656 91.867 26.8303 91.7992 27.349C91.7427 27.7639 92.33 28.5706 92.776 28.7032C94.6563 29.2621 96.593 29.6309 98.5071 30.0689C101.472 30.7431 104.475 31.2848 107.389 32.1492C109.049 32.639 110.302 33.8894 110.63 35.7968C111.042 38.2056 110.207 40.2801 107.982 41.2655C106.248 42.0319 104.334 42.4987 102.454 42.758C99.1226 43.2247 95.7856 43.0692 92.5897 41.8417C89.4446 40.6316 87.9145 38.3266 87.8862 34.8114H91.2797C91.4999 38.6666 94.2046 39.7269 97.3666 39.8882C99.7381 40.0092 102.138 39.7787 104.509 39.5137C105.808 39.3696 106.943 38.6781 107.124 37.1222C107.265 35.8948 106.486 34.7596 104.769 34.3274C101.997 33.6359 99.1621 33.2152 96.3558 32.6563C94.8821 32.3624 93.3915 32.1146 91.9686 31.6593C90.077 31.0543 88.321 30.1496 88.225 27.7466C88.1347 25.4761 89.7495 24.6521 91.6806 23.9606C88.9082 21.8227 88.3605 18.9645 88.7558 15.7721C89.151 12.545 90.9635 10.557 93.9787 9.73292C95.2379 9.38717 96.5591 9.14514 97.8578 9.11633C101.793 9.03565 105.729 9.08752 109.738 9.08752H109.727ZM99.0435 23.4708C104.289 23.5169 106.231 21.0275 105.661 16.112C105.418 13.9972 104.199 12.5681 102.2 12.3261C100.043 12.0725 97.8126 12.0898 95.6557 12.3549C93.8432 12.5796 92.6123 13.905 92.3582 15.8124C91.6863 20.8777 93.3858 23.1942 98.1966 23.4593C98.4789 23.4766 98.7612 23.4593 99.0435 23.4593V23.4708Z" fill="black"/>
<path d="M18.9268 12.1935V0H22.2186V32.8349H20.361C20.1464 31.6075 19.9318 30.3973 19.7173 29.1757C19.6326 29.1642 19.4971 29.1181 19.4688 29.1526C16.1318 33.123 9.64407 34.4311 5.01401 32.0627C2.61429 30.8353 1.28174 28.7666 0.654984 26.2022C-0.214564 22.6583 -0.225857 19.0855 0.666277 15.5473C1.581 11.9284 3.82262 9.51394 7.52102 9.04717C9.6723 8.77633 11.9196 8.91463 14.0822 9.21429C15.9681 9.47936 17.5716 10.5627 18.5993 12.3606L18.9268 12.1878V12.1935ZM3.51771 20.4282C3.60241 21.8227 3.625 22.7793 3.72663 23.7301C4.12188 27.3029 5.69158 29.3659 8.78017 29.9075C10.3612 30.1841 12.0607 30.1207 13.6587 29.896C16.4367 29.4984 18.2097 27.6717 18.5315 24.8999C18.8364 22.324 18.8195 19.6618 18.5598 17.0801C18.3 14.4928 16.719 12.5911 14.133 12.1589C12.2753 11.8478 10.2991 11.865 8.43574 12.1474C6.03601 12.5105 4.56795 14.2104 4.03718 16.6076C3.72663 17.9964 3.64194 19.4313 3.51207 20.4224L3.51771 20.4282Z" fill="black"/>
<path d="M49.7168 22.4105H31.174C30.8465 25.9775 32.7832 28.997 35.9057 29.9651C40.3043 31.3308 44.0422 29.9363 46.137 26.1503H49.5757C49.2312 28.5994 48.006 30.3973 46.0015 31.4403C41.3093 33.8952 36.5155 33.9009 31.8347 31.4C29.5309 30.1726 28.2153 27.9482 27.8539 25.4243C27.4926 22.9003 27.2949 20.2495 27.6281 17.737C28.3565 12.2569 31.6709 9.29494 37.0576 8.8397C38.2716 8.73597 39.5025 8.73597 40.7165 8.8397C45.595 9.2546 48.6892 12.2684 49.3611 17.2991C49.5757 18.8953 49.5926 20.5146 49.7168 22.4105ZM46.0015 19.5004C45.8829 16.5672 45.3239 13.9453 42.6814 12.5681C39.7396 11.0352 36.6567 11.1044 33.8561 12.9657C31.6257 14.4524 31.0893 16.8496 31.0611 19.5004H46.0015Z" fill="black"/>
<path d="M163.356 22.422H144.808C144.48 25.9141 146.361 28.8991 149.421 29.9133C153.797 31.3655 157.631 29.9652 159.794 26.11H163.108C163.131 27.7293 162.357 28.9394 161.386 30.0343C159.969 31.619 158.133 32.6217 156.101 32.7888C153.605 32.9905 151.03 33.0424 148.568 32.6332C144.791 32.0051 142.267 29.5157 141.584 25.6836C141.11 23.0444 140.929 20.2323 141.285 17.5873C142.013 12.2108 145.378 9.28922 150.703 8.83974C151.73 8.7533 152.769 8.75907 153.797 8.80517C159.031 9.04719 162.351 12.1474 163.006 17.4547C163.198 19.0048 163.227 20.578 163.351 22.4163L163.356 22.422ZM159.619 19.4889C159.5 16.5154 158.924 13.8992 156.248 12.5278C153.334 11.0353 150.291 11.1217 147.518 12.9311C145.26 14.4063 144.729 16.8151 144.695 19.4831H159.613L159.619 19.4889Z" fill="black"/>
<path d="M53.5054 24.6809H56.7408C56.9497 27.0724 58.0507 28.8588 60.3601 29.6079C63.3584 30.5818 66.3679 30.6682 69.2758 29.2679C70.4107 28.7262 71.1109 27.7696 71.1052 26.4327C71.1052 25.0497 70.3034 24.122 69.1233 23.7532C66.6672 22.9867 64.1432 22.4278 61.6644 21.7305C60.1343 21.2983 58.5871 20.8719 57.1247 20.2495C55.2783 19.4658 54.0531 18.0713 53.9345 15.9104C53.8103 13.5765 54.5274 11.5078 56.5996 10.4417C61.2297 8.06755 66.0122 7.9523 70.6479 10.4417C72.9177 11.6576 73.9906 14.1124 73.855 16.7805H70.8737C70.8116 16.6076 70.6987 16.4002 70.6705 16.1812C70.343 13.8416 68.9257 12.3433 66.7688 12.0379C64.6288 11.7383 62.4041 11.9573 60.2246 12.0552C59.7108 12.0783 59.1631 12.4413 58.7114 12.7698C56.8368 14.1124 56.9102 16.7286 58.9993 17.6449C60.8739 18.4689 62.9292 18.855 64.9055 19.4485C67.0116 20.0824 69.1685 20.601 71.2012 21.4193C73.1944 22.2261 74.4649 23.7762 74.5326 26.1273C74.6004 28.5764 73.5727 30.4953 71.4779 31.5326C66.6163 33.9413 61.6588 33.8894 56.8819 31.3136C54.4427 29.994 53.4997 27.614 53.511 24.6867L53.5054 24.6809Z" fill="black"/>
<path d="M136.163 32.8637H132.713C132.691 32.3451 132.645 31.8437 132.645 31.3424C132.628 27.0378 132.679 22.7332 132.595 18.4286C132.493 13.6802 130.539 11.8074 125.858 11.7728C125.576 11.7728 125.294 11.7728 125.011 11.7959C120.585 12.0667 118.631 14.0318 118.524 18.5611C118.428 22.7677 118.49 26.9802 118.479 31.1868C118.479 31.7054 118.479 32.2183 118.479 32.8234H115.113V9.21428C116.305 8.73023 116.802 9.21428 116.977 10.3437C117.101 11.1678 117.355 11.9745 117.581 12.9081C120.912 8.77056 127.434 7.4279 132.019 9.80206C134.548 11.1102 135.502 13.4382 135.881 16.0947C136.061 17.3683 136.141 18.6648 136.152 19.9556C136.186 24.2026 136.163 28.4554 136.163 32.8695V32.8637Z" fill="black"/>
<path d="M168.41 9.08173C171.097 8.89156 169.821 11.5366 171.041 12.4874C173.023 9.29494 176.179 8.62649 179.765 8.68411V11.7613C178.884 11.8305 178.014 11.8823 177.145 11.9688C174.192 12.2742 172.452 13.8012 172.04 16.7747C171.781 18.6533 171.792 20.5837 171.775 22.4911C171.735 25.8853 171.764 29.2794 171.764 32.7945H168.415V9.08173H168.41Z" fill="black"/>
<path d="M79.9248 9.11053H83.1207V32.8291H79.9248V9.11053Z" fill="black"/>
<path d="M181.803 28.3171C183.785 28.3344 184.564 29.0201 184.542 30.7373C184.519 32.4719 183.644 33.1979 181.622 33.1749C179.725 33.1518 178.856 32.3739 178.861 30.7085C178.861 29.0086 179.737 28.3056 181.809 28.3228L181.803 28.3171Z" fill="black"/>
<path d="M81.4834 5.38221C79.6878 5.37069 78.9594 4.7541 78.9425 3.25584C78.9312 1.69996 79.6935 1.0776 81.585 1.10065C83.358 1.11794 84.1033 1.76911 84.0638 3.28465C84.0299 4.7541 83.2338 5.3995 81.4834 5.38798V5.38221Z" fill="black"/>
</g>
<defs>
<clipPath id="clip0_498_4596">
<rect width="184.542" height="43" fill="white"/>
</clipPath>
</defs>
</svg>
