<svg width="540" height="477" viewBox="0 0 540 477" fill="none" xmlns="http://www.w3.org/2000/svg">
<rect width="540" height="477" fill="#FBFBFB"/>
<g clip-path="url(#clip0_285_7631)">
<path d="M198.323 112.067H209.47L219.645 133.07L229.844 112.067H241L224.828 143.743V164.319H214.486V143.743L198.323 112.067Z" fill="#949499"/>
<path d="M126.657 182.476C126.288 182.241 126.07 182.183 125.667 182.024C122.119 180.668 119.603 178.483 117.346 175.821C116.424 174.707 115.535 173.552 114.704 172.364L116.675 169.919C116.675 169.919 116.675 169.894 116.684 169.886C116.801 169.743 116.927 169.601 117.045 169.459L117.783 168.538C117.783 168.538 117.497 168.89 117.086 169.4C119.15 166.947 121.197 164.486 123.31 162.084C124.971 160.292 126.791 158.652 128.804 157.229C129.719 156.584 130.557 155.822 131.363 155.044C131.681 154.734 131.933 154.274 132.025 153.838C132.227 152.859 131.748 151.905 130.448 152.265C130.289 152.315 130.104 152.348 129.97 152.432C129.014 153.043 128.007 153.596 127.118 154.299C125.047 155.923 123.235 157.823 121.44 159.74C121.247 159.949 121.054 160.167 120.869 160.376C116.994 164.662 113.312 169.107 109.63 173.552C108.472 174.942 107.289 176.306 106.107 177.679C105.931 177.88 105.587 178.148 105.385 178.332C105.352 178.307 105.385 178.24 105.385 178.173C105.427 177.972 105.444 177.771 105.511 177.579C105.88 176.591 106.233 175.586 106.66 174.615C108.371 170.748 110.183 166.931 112.104 163.164H112.096C112.498 162.36 112.901 161.565 113.329 160.778C113.958 159.631 114.503 158.434 114.612 157.111C114.679 156.291 114.126 155.538 113.329 155.345C112.591 155.169 112.222 155.395 111.752 156.316C110.619 158.518 109.495 160.728 108.363 162.921C108.271 163.097 108.17 163.273 108.078 163.448H108.103C107.155 165.223 106.207 166.981 105.394 168.806C103.649 172.715 102.198 176.75 100.202 180.567C99.6481 181.639 99.2875 182.819 98.9436 183.974C98.7087 184.769 99.1281 185.406 99.8914 185.749C100.822 186.167 101.703 186.008 102.559 185.489C103.993 184.619 105.209 183.497 106.3 182.25C108.481 179.747 110.611 177.202 112.758 174.666C112.876 174.841 112.993 175.017 113.102 175.193C115.375 178.533 118.059 181.48 121.247 183.941C122.32 184.769 123.444 185.523 124.77 185.841C126.078 186.159 127.278 185.305 127.454 183.957C127.529 183.363 127.118 182.769 126.623 182.451" fill="#FF0097"/>
<path d="M166.818 178.073C166.818 178.073 166.801 178.014 166.784 177.972C166.801 178.014 166.818 178.064 166.818 178.073ZM183.426 169.568C182.78 170.271 181.992 170.706 181.119 170.982C181.086 170.924 183.392 169.501 183.426 169.568ZM211.752 170.396C211.492 170.103 211.131 169.802 210.619 170.045C210.376 170.162 210.116 170.271 209.873 170.388C209.495 170.555 209.109 170.731 208.732 170.924C206.643 172.037 204.555 173.15 202.466 174.272C201.3 174.9 200.134 175.519 198.969 176.139C198.549 176.365 198.121 176.583 197.694 176.8L197.257 177.018C197.006 174.8 197.551 172.573 198.767 170.874C198.834 170.781 199.002 170.698 199.12 170.706C199.74 170.748 200.151 170.488 200.394 169.928C200.738 169.124 200.554 168.069 199.992 167.584C199.43 167.107 198.717 167.19 197.987 167.835C197.014 168.689 196.259 169.836 195.622 171.451L195.588 171.526C195.53 171.686 195.462 171.861 195.362 171.937C195.16 172.087 194.968 172.246 194.766 172.405C194.112 172.924 193.441 173.46 192.728 173.879C189.264 175.905 186.479 177.06 183.677 177.612C182.503 177.847 181.253 178.039 180.029 177.713C179.349 177.528 178.838 177.16 178.553 176.65C178.267 176.147 178.225 175.519 178.418 174.85C178.536 174.448 178.712 174.063 178.896 173.686C178.964 173.544 179.031 173.402 179.089 173.259C180.666 173.661 182.193 173.276 183.887 172.071C184.709 171.485 185.54 170.79 186.034 169.718C186.378 168.982 186.362 168.245 186.009 167.701C185.699 167.224 185.171 166.964 184.516 166.981H184.499C183.787 166.998 183.116 167.123 182.545 167.333C180.515 168.103 178.813 169.526 177.361 171.686L177.311 171.761C177.244 171.87 177.169 171.987 177.093 172.02C176.791 172.154 176.472 172.271 176.162 172.389C175.667 172.581 175.155 172.774 174.669 173.025C172.463 174.188 170.232 175.386 168.076 176.541C167.564 176.817 167.061 177.085 166.55 177.361C166.13 176.181 165.417 175.268 164.385 174.582C164.058 174.364 163.74 174.08 163.463 173.837L163.379 173.762C163.111 173.519 163.152 173.142 163.211 172.941C163.681 171.418 165.098 170.321 165.962 170.036C166.222 169.953 166.415 169.944 166.508 170.011C166.642 170.062 166.826 170.371 166.935 170.639C167.095 171.033 167.304 171.15 167.866 171.167C168.328 171.183 168.697 170.949 169.007 170.447C169.41 169.785 169.259 168.923 168.579 168.086C167.917 167.316 166.902 167.098 165.56 167.433C163.387 168.086 161.878 168.906 160.611 171.15C159.957 172.297 160.007 174.055 160.72 175.151L160.737 175.176C157.222 176.75 153.599 177.729 149.254 178.709C148.927 176.742 147.476 175.595 146.083 174.49L145.89 174.339C145.89 174.339 145.681 174.138 145.798 173.778C145.899 173.477 146.066 173.243 146.066 173.243C146.729 172.33 147.467 171.384 148.558 170.781C148.759 170.673 148.91 170.639 149.044 170.681C149.17 170.723 149.287 170.848 149.388 171.058C149.396 171.083 149.413 171.108 149.422 171.133C149.531 171.459 149.749 171.903 150.311 171.928C150.336 171.928 150.369 171.928 150.395 171.928C150.797 171.928 151.149 171.694 151.435 171.259C151.896 170.564 151.787 169.593 151.158 168.798C150.42 167.86 149.707 167.592 148.683 167.877C147.669 168.161 146.712 168.689 145.597 169.568C144.498 170.438 143.307 171.543 142.787 173.167C142.787 173.167 142.762 173.243 142.736 173.343C142.661 173.418 142.56 173.485 142.46 173.536C141.596 173.937 140.749 174.339 139.893 174.691L138.954 175.076C136.714 175.997 134.407 176.951 132.117 177.838C131.648 178.022 131.119 178.081 130.616 178.14H130.591C130.44 178.156 130.297 178.173 130.146 178.198C130.113 178.198 130.088 178.207 130.062 178.207C130.062 178.207 130.054 178.207 130.046 178.207C129.945 178.223 129.811 178.223 129.735 178.14C129.677 178.081 129.66 177.989 129.685 177.863C129.71 177.738 129.727 177.612 129.744 177.495C129.802 177.135 129.853 176.767 129.987 176.424C130.381 175.369 130.834 174.314 131.27 173.284L131.321 173.167C131.656 172.372 131.463 171.677 130.801 171.351C130.062 170.982 129.442 171.167 128.846 171.937L128.829 171.962C128.653 172.179 128.477 172.405 128.376 172.657L128.192 173.083C127.806 173.988 127.403 174.925 127.076 175.871C126.833 176.566 126.716 177.294 126.632 177.914C126.623 177.981 126.615 178.039 126.615 178.114V178.14C126.615 178.14 126.615 178.19 126.615 178.223C126.607 178.567 126.657 178.901 126.766 179.236V179.278C126.766 179.278 126.791 179.303 126.791 179.32L126.816 179.378C126.875 179.546 126.942 179.697 127.026 179.839C127.462 180.609 128.192 181.036 129.207 181.103C129.475 181.128 129.76 181.145 130.062 181.136C130.574 181.12 131.136 181.036 131.748 180.902C134.542 180.274 137.192 179.111 139.641 177.939C140.564 177.495 141.495 177.018 142.309 176.599L142.418 176.541C142.728 176.382 143.03 176.223 143.324 176.072C143.517 176.223 143.701 176.373 143.886 176.524C144.313 176.876 144.758 177.236 145.219 177.57C145.882 178.056 146.285 178.684 146.679 179.471C146.553 179.521 146.435 179.571 146.31 179.613L146.259 179.63C145.915 179.764 145.588 179.898 145.261 180.04C144.112 180.55 143.106 181.053 142.367 181.94C141.755 182.685 141.78 183.547 142.426 184.091C142.611 184.242 143.089 184.61 143.6 184.644C144.112 184.677 144.565 184.694 144.984 184.686H145.077C145.496 184.677 145.865 184.644 146.226 184.585C147.87 184.326 148.952 183.397 149.346 181.89C149.422 181.597 149.623 181.547 149.891 181.471C150.638 181.262 151.384 181.053 152.131 180.843L152.349 180.785C153.917 180.35 155.545 179.898 157.138 179.454C159.101 178.918 160.955 178.29 162.096 176.532C162.918 176.943 163.513 177.579 164.008 178.558C161.651 179.261 160.644 180.684 160.267 181.404C160.192 181.521 160.141 181.647 160.099 181.764C160.083 181.806 160.074 181.831 160.074 181.831C159.923 182.367 160.066 182.903 160.519 183.279C160.837 183.547 161.265 183.748 161.685 183.84C162.641 184.041 163.069 184.133 164.209 183.798C165.585 183.388 166.449 182.534 166.793 181.254C166.952 180.877 167.028 180.475 167.053 180.09C169.796 178.567 172.136 177.277 174.3 176.089C174.703 175.871 175.114 175.678 175.55 175.478C175.692 175.411 175.826 175.352 175.969 175.285L175.994 175.921C176.078 178.006 177.311 179.621 179.131 180.04C180.616 180.383 182.143 180.366 183.803 179.99C187.318 179.194 190.665 177.872 193.743 176.072C194.011 175.921 194.263 175.745 194.54 175.57C194.598 175.528 194.657 175.494 194.724 175.452V175.57C194.724 175.829 194.716 176.064 194.724 176.298C194.724 176.39 194.724 176.482 194.724 176.574C194.724 176.842 194.708 177.118 194.8 177.361C195.135 178.34 194.657 178.734 193.885 179.211C192.845 179.856 191.889 180.601 191 181.312C190.212 181.948 189.759 182.777 189.666 183.782C189.624 184.2 189.817 184.711 190.145 185.079C190.379 185.339 190.648 185.481 190.899 185.481C190.967 185.481 191.042 185.481 191.109 185.481C192.158 185.464 193.139 185.23 194.02 184.778C195.647 183.949 196.746 182.484 197.375 180.308C197.425 180.124 197.559 179.931 197.668 179.872C201.527 177.771 205.461 175.653 209.26 173.602L210.183 173.109C210.812 172.765 211.534 172.38 211.928 171.568C212.146 171.133 212.079 170.714 211.743 170.338" fill="#FF0097"/>
<path d="M131.723 169.643C131.723 169.643 131.757 169.643 131.782 169.643C132.629 169.601 133.2 168.99 133.166 168.145C133.158 167.718 132.99 167.341 132.696 167.081C132.436 166.847 132.076 166.722 131.69 166.73C131.673 166.73 131.656 166.73 131.639 166.73C130.792 166.772 130.222 167.391 130.247 168.228C130.255 168.655 130.423 169.024 130.708 169.283C130.977 169.517 131.329 169.643 131.715 169.635" fill="#FF0097"/>
<path d="M83.3422 120.748V134.987H88.2155C91.0422 134.987 93.0721 134.434 94.2967 133.329C95.5213 132.224 96.1337 130.399 96.1337 127.855C96.1337 125.31 95.5213 123.493 94.3135 122.397C93.0973 121.3 91.059 120.748 88.2155 120.748H83.3422ZM96.6369 139.649C97.6686 139.859 98.5577 140.344 99.321 141.098C100.076 141.859 101.007 143.333 102.106 145.526L111.576 164.319H100.219L93.9025 151.126C93.718 150.749 93.4747 150.239 93.1644 149.586C91.319 145.643 89.1466 143.668 86.647 143.668H83.3506V164.311H73V112.067H87.9387C94.6742 112.067 99.5056 113.256 102.433 115.641C105.369 118.019 106.837 121.894 106.837 127.26C106.837 130.852 105.964 133.714 104.203 135.832C102.45 137.959 99.925 139.223 96.6285 139.649" fill="#949499"/>
<path d="M115.291 145.032V112.067H125.634V147.627C125.634 150.239 126.296 152.29 127.63 153.771C128.964 155.253 130.809 155.998 133.166 155.998C135.523 155.998 137.377 155.261 138.71 153.771C140.044 152.29 140.707 150.239 140.707 147.627V112.067H151.049V145.032C151.049 152.122 149.631 157.279 146.805 160.502C143.978 163.725 139.432 165.332 133.166 165.332C126.9 165.332 122.388 163.725 119.544 160.502C116.701 157.279 115.283 152.122 115.283 145.032" fill="#949499"/>
<path d="M169.183 140.587V156.057H176.053C179.349 156.057 181.656 155.496 182.981 154.374C184.298 153.252 184.961 151.31 184.961 148.531C184.961 145.752 184.273 143.676 182.889 142.445C181.513 141.207 179.232 140.587 176.053 140.587H169.183ZM169.183 120.22V132.367H176.053C178.67 132.367 180.54 131.898 181.648 130.969C182.755 130.04 183.317 128.499 183.317 126.348C183.317 124.197 182.746 122.648 181.614 121.677C180.482 120.714 178.628 120.22 176.053 120.22H169.183ZM159.193 112H176.061C181.882 112 186.261 113.105 189.197 115.307C192.132 117.517 193.6 120.806 193.6 125.193C193.6 128.55 192.736 131.178 191.008 133.07C189.281 134.962 186.739 136.058 183.401 136.36C187.402 136.753 190.413 138.093 192.434 140.386C194.456 142.671 195.471 145.869 195.471 149.971C195.471 155.01 193.953 158.66 190.908 160.929C187.871 163.189 182.923 164.319 176.078 164.319H159.21V112H159.193Z" fill="#949499"/>
</g>
<g clip-path="url(#clip1_285_7631)">
<path d="M229.844 212.067L219.645 233.07L209.47 212.067H198.323L214.486 243.743V264.319H224.828V243.743L241 212.067H229.844Z" fill="#949499"/>
<path d="M169.183 240.587H176.053C179.232 240.587 181.513 241.207 182.889 242.446C184.265 243.684 184.961 245.71 184.961 248.531C184.961 251.352 184.298 253.253 182.981 254.374C181.656 255.496 179.349 256.057 176.053 256.057H169.183V240.587ZM169.183 220.22H176.053C178.628 220.22 180.482 220.706 181.614 221.677C182.746 222.648 183.317 224.205 183.317 226.348C183.317 228.491 182.763 230.031 181.648 230.969C180.54 231.898 178.67 232.367 176.053 232.367H169.183V220.22ZM190.891 260.92C193.927 258.652 195.446 255.002 195.446 249.963C195.446 245.861 194.431 242.663 192.409 240.378C190.388 238.093 187.377 236.753 183.376 236.351C186.722 236.05 189.255 234.953 190.983 233.062C192.711 231.17 193.575 228.55 193.575 225.184C193.575 220.798 192.107 217.5 189.172 215.298C186.236 213.097 181.857 211.992 176.036 211.992H159.168V264.319H176.036C182.889 264.319 187.829 263.189 190.866 260.929" fill="#949499"/>
<path d="M133.401 257.145C132.596 257.923 131.614 258.819 130.499 259.606C128.737 260.853 127.093 262.31 125.466 264.068C125.424 264.11 125.39 264.16 125.349 264.21C127.563 264.955 130.163 265.34 133.166 265.34C139.432 265.34 143.978 263.733 146.805 260.51C149.631 257.287 151.049 252.131 151.049 245.04V212.067H140.707V247.627C140.707 250.239 140.044 252.29 138.71 253.763C137.612 254.985 136.152 255.697 134.349 255.914C134.097 256.375 133.778 256.793 133.409 257.145" fill="#949499"/>
<path d="M118.705 258.417C118.915 258.175 119.108 257.957 119.309 257.739C121.197 255.713 123.084 253.746 125.315 251.997C125.617 251.754 125.927 251.553 126.229 251.344C125.843 250.264 125.625 249.033 125.625 247.619V212.067H115.283V245.032C115.283 251.017 116.306 255.605 118.328 258.836C118.454 258.694 118.58 258.551 118.705 258.417Z" fill="#949499"/>
<path d="M126.657 282.476C126.288 282.241 126.07 282.183 125.667 282.024C122.119 280.668 119.603 278.491 117.347 275.821C116.424 274.707 115.535 273.552 114.704 272.364L116.675 269.919C116.675 269.919 116.675 269.894 116.684 269.886C116.801 269.743 116.927 269.601 117.045 269.459L117.783 268.538L117.086 269.4C119.15 266.947 121.197 264.495 123.31 262.084C124.971 260.292 126.791 258.652 128.804 257.229C129.719 256.584 130.557 255.822 131.363 255.044C131.681 254.734 131.933 254.265 132.025 253.838C132.227 252.859 131.748 251.905 130.448 252.265C130.289 252.307 130.104 252.348 129.97 252.432C129.014 253.043 128.007 253.596 127.118 254.299C125.047 255.923 123.235 257.823 121.44 259.74C121.247 259.949 121.054 260.167 120.869 260.376C116.994 264.662 113.312 269.107 109.63 273.561C108.472 274.95 107.29 276.315 106.107 277.688C105.931 277.897 105.587 278.156 105.385 278.34C105.352 278.315 105.385 278.24 105.385 278.181C105.427 277.98 105.444 277.78 105.511 277.587C105.88 276.599 106.233 275.595 106.66 274.624C108.372 270.756 110.183 266.939 112.104 263.172H112.096C112.498 262.368 112.901 261.573 113.329 260.786C113.958 259.64 114.503 258.442 114.612 257.12C114.679 256.299 114.126 255.546 113.329 255.354C112.591 255.178 112.222 255.404 111.752 256.325C110.619 258.526 109.496 260.736 108.363 262.929C108.271 263.105 108.179 263.281 108.086 263.457H108.112C107.164 265.231 106.216 266.989 105.402 268.814C103.658 272.723 102.206 276.758 100.21 280.576C99.6566 281.647 99.2959 282.827 98.952 283.983C98.7171 284.778 99.1365 285.414 99.8998 285.757C100.831 286.176 101.712 286.017 102.567 285.498C104.001 284.635 105.218 283.505 106.308 282.258C108.489 279.755 110.619 277.21 112.767 274.674C112.884 274.85 113.002 275.034 113.111 275.201C115.384 278.541 118.068 281.496 121.255 283.949C122.329 284.778 123.453 285.531 124.778 285.849C126.087 286.167 127.286 285.314 127.462 283.966C127.538 283.371 127.127 282.777 126.632 282.467" fill="#949499"/>
<path d="M166.818 278.073C166.818 278.073 166.801 278.014 166.784 277.972C166.801 278.014 166.818 278.064 166.818 278.073ZM183.426 269.568C182.78 270.271 181.992 270.706 181.119 270.982C181.086 270.924 183.392 269.509 183.426 269.568ZM211.752 270.396C211.492 270.103 211.131 269.802 210.619 270.053C210.376 270.17 210.116 270.279 209.873 270.396C209.495 270.564 209.109 270.74 208.732 270.932C206.643 272.046 204.555 273.159 202.466 274.281C201.3 274.908 200.134 275.528 198.969 276.156C198.549 276.382 198.121 276.599 197.694 276.817L197.257 277.035C197.006 274.816 197.551 272.59 198.767 270.89C198.834 270.798 199.002 270.715 199.12 270.723C199.74 270.765 200.151 270.505 200.394 269.944C200.738 269.141 200.554 268.086 199.992 267.601C199.43 267.123 198.717 267.207 197.987 267.852C197.014 268.706 196.259 269.852 195.622 271.468L195.588 271.543C195.53 271.702 195.462 271.878 195.362 271.953C195.16 272.104 194.968 272.263 194.766 272.422C194.112 272.941 193.441 273.477 192.728 273.896C189.264 275.93 186.479 277.077 183.678 277.629C182.503 277.863 181.253 278.056 180.029 277.73C179.349 277.545 178.838 277.177 178.553 276.666C178.267 276.164 178.225 275.536 178.418 274.867C178.536 274.473 178.712 274.08 178.896 273.703C178.964 273.561 179.031 273.418 179.089 273.276C180.666 273.678 182.193 273.293 183.887 272.087C184.709 271.501 185.54 270.807 186.035 269.735C186.378 268.999 186.37 268.262 186.009 267.718C185.699 267.241 185.171 266.981 184.516 266.998H184.5C183.787 267.015 183.116 267.132 182.545 267.349C180.515 268.12 178.813 269.543 177.361 271.702L177.311 271.778C177.244 271.887 177.169 272.004 177.093 272.037C176.791 272.171 176.472 272.288 176.162 272.406C175.667 272.598 175.155 272.791 174.669 273.042C172.463 274.197 170.232 275.402 168.076 276.558C167.564 276.834 167.061 277.102 166.558 277.378C166.139 276.198 165.426 275.285 164.394 274.599C164.067 274.381 163.748 274.096 163.471 273.854L163.387 273.778C163.119 273.536 163.161 273.159 163.22 272.958C163.689 271.434 165.107 270.346 165.971 270.053C166.231 269.97 166.424 269.961 166.516 270.028C166.65 270.078 166.835 270.388 166.944 270.656C167.103 271.049 167.313 271.167 167.875 271.183C168.336 271.2 168.705 270.966 169.016 270.463C169.418 269.802 169.259 268.94 168.588 268.103C167.925 267.333 166.91 267.115 165.568 267.45C163.396 268.103 161.886 268.923 160.619 271.167C159.965 272.313 160.015 274.071 160.728 275.168C160.728 275.176 160.737 275.185 160.745 275.193C157.231 276.767 153.607 277.746 149.262 278.726C148.935 276.758 147.492 275.612 146.092 274.507L145.899 274.356C145.899 274.356 145.689 274.155 145.806 273.795C145.907 273.494 146.075 273.259 146.075 273.259C146.737 272.347 147.476 271.401 148.566 270.798C148.767 270.689 148.918 270.656 149.053 270.698C149.178 270.74 149.296 270.865 149.396 271.075C149.405 271.1 149.422 271.125 149.43 271.15C149.539 271.476 149.757 271.92 150.319 271.945C150.344 271.945 150.378 271.945 150.403 271.945C150.806 271.945 151.158 271.711 151.443 271.275C151.896 270.581 151.795 269.61 151.166 268.814C150.428 267.877 149.715 267.609 148.692 267.894C147.677 268.178 146.721 268.706 145.605 269.584C144.506 270.455 143.315 271.56 142.795 273.184C142.795 273.184 142.77 273.259 142.745 273.36C142.661 273.435 142.569 273.502 142.468 273.552C141.604 273.963 140.757 274.356 139.901 274.708L138.962 275.093C136.722 276.013 134.416 276.968 132.126 277.855C131.656 278.039 131.128 278.098 130.624 278.156H130.599C130.448 278.173 130.306 278.19 130.155 278.215C130.121 278.215 130.096 278.223 130.071 278.223C130.071 278.223 130.062 278.223 130.054 278.223C129.953 278.24 129.819 278.232 129.744 278.156C129.685 278.098 129.668 278.006 129.693 277.88C129.719 277.755 129.735 277.629 129.752 277.512C129.811 277.152 129.861 276.784 129.995 276.44C130.39 275.386 130.843 274.331 131.279 273.301L131.329 273.184C131.665 272.389 131.472 271.694 130.809 271.359C130.071 270.991 129.45 271.175 128.855 271.945L128.838 271.97C128.662 272.188 128.486 272.414 128.385 272.665L128.2 273.092C127.815 273.996 127.412 274.942 127.085 275.88C126.842 276.574 126.724 277.303 126.64 277.922C126.632 277.989 126.623 278.048 126.623 278.123V278.148C126.623 278.148 126.623 278.198 126.623 278.232C126.615 278.575 126.665 278.91 126.774 279.245V279.287C126.774 279.287 126.791 279.312 126.8 279.328L126.825 279.387C126.883 279.554 126.951 279.705 127.034 279.847C127.471 280.618 128.2 281.044 129.215 281.111C129.484 281.137 129.769 281.153 130.071 281.145C130.583 281.128 131.145 281.044 131.757 280.911C134.55 280.283 137.201 279.119 139.65 277.947C140.572 277.503 141.503 277.026 142.317 276.608L142.426 276.549C142.736 276.39 143.038 276.231 143.332 276.08C143.525 276.231 143.709 276.382 143.894 276.532C144.322 276.884 144.766 277.244 145.228 277.579C145.89 278.064 146.293 278.692 146.687 279.479C146.561 279.529 146.444 279.58 146.318 279.621L146.268 279.638C145.924 279.772 145.597 279.906 145.27 280.048C144.12 280.559 143.114 281.061 142.376 281.949C141.764 282.685 141.789 283.556 142.435 284.1C142.619 284.251 143.097 284.619 143.609 284.652C144.12 284.686 144.573 284.703 144.993 284.694H145.093C145.513 284.686 145.882 284.652 146.243 284.594C147.887 284.334 148.96 283.405 149.363 281.898C149.438 281.605 149.64 281.555 149.908 281.48C150.655 281.27 151.401 281.061 152.148 280.852L152.366 280.793C153.934 280.358 155.562 279.906 157.155 279.462C159.118 278.927 160.972 278.299 162.112 276.541C162.934 276.951 163.53 277.587 164.025 278.567C161.668 279.27 160.661 280.693 160.284 281.413C160.208 281.53 160.158 281.656 160.116 281.773C160.099 281.815 160.091 281.84 160.091 281.84C159.94 282.375 160.083 282.911 160.535 283.288C160.854 283.556 161.282 283.757 161.701 283.849C162.658 284.05 163.085 284.142 164.226 283.807C165.602 283.397 166.474 282.543 166.81 281.262C166.969 280.885 167.044 280.484 167.07 280.099C169.812 278.575 172.153 277.286 174.317 276.097C174.719 275.88 175.139 275.687 175.566 275.486C175.709 275.419 175.843 275.361 175.986 275.294L176.011 275.93C176.095 278.014 177.328 279.63 179.148 280.048C180.633 280.392 182.159 280.375 183.82 279.998C187.335 279.203 190.681 277.88 193.76 276.08C194.028 275.93 194.28 275.754 194.557 275.578C194.615 275.536 194.674 275.503 194.741 275.461V275.578C194.741 275.838 194.733 276.072 194.741 276.306C194.741 276.399 194.741 276.491 194.741 276.583C194.741 276.851 194.733 277.127 194.817 277.37C195.152 278.349 194.674 278.734 193.902 279.22C192.862 279.864 191.906 280.609 191.017 281.321C190.228 281.957 189.775 282.786 189.683 283.79C189.641 284.209 189.834 284.719 190.161 285.088C190.396 285.347 190.665 285.489 190.916 285.489C190.983 285.489 191.059 285.489 191.126 285.489C192.174 285.473 193.156 285.238 194.037 284.786C195.664 283.958 196.763 282.493 197.392 280.316C197.442 280.132 197.576 279.939 197.685 279.881C201.544 277.78 205.478 275.662 209.277 273.611L210.2 273.117C210.829 272.774 211.55 272.389 211.945 271.577C212.163 271.141 212.096 270.723 211.76 270.346" fill="#949499"/>
<path d="M131.723 269.643C131.723 269.643 131.757 269.643 131.782 269.643C132.629 269.601 133.2 268.982 133.166 268.145C133.158 267.718 132.99 267.341 132.696 267.081C132.436 266.847 132.076 266.722 131.69 266.73C131.673 266.73 131.656 266.73 131.639 266.73C130.792 266.772 130.222 267.391 130.247 268.228C130.255 268.655 130.423 269.024 130.708 269.283C130.977 269.517 131.329 269.643 131.715 269.635" fill="#949499"/>
<path d="M229.844 212.067L219.645 233.07L209.47 212.067H198.323L214.486 243.743V264.319H224.828V243.743L241 212.067H229.844Z" fill="#949499"/>
<path d="M94.3051 233.329C93.0805 234.434 91.0506 234.987 88.2239 234.987H83.3506V220.748H88.2239C91.0758 220.748 93.114 221.3 94.3219 222.397C95.5381 223.493 96.142 225.31 96.142 227.855C96.142 230.399 95.5297 232.224 94.3051 233.329ZM104.362 264.319C104.513 264.018 104.672 263.716 104.823 263.423L105.771 261.598C106.518 260.15 107.264 258.694 108.011 257.245L102.106 245.526C101.007 243.333 100.076 241.859 99.321 241.098C98.5577 240.336 97.6686 239.859 96.6369 239.641C99.9333 239.223 102.458 237.95 104.211 235.832C105.964 233.706 106.837 230.852 106.837 227.26C106.837 221.894 105.369 218.019 102.433 215.641C99.5056 213.256 94.6658 212.067 87.9387 212.067H73V264.319H83.3422V243.676H86.6386C89.1382 243.676 91.3107 245.652 93.156 249.594C93.4579 250.247 93.7096 250.758 93.8941 251.135L100.21 264.327H104.362V264.319Z" fill="#949499"/>
</g>
<g clip-path="url(#clip2_285_7631)">
<path d="M126.003 352.268C125.617 351.186 125.399 349.953 125.399 348.535V312.906H115.07V345.943C115.07 351.941 116.092 356.539 118.111 359.777M125.115 365.154C127.326 365.901 129.923 366.287 132.923 366.287C139.181 366.287 143.721 364.676 146.545 361.446C149.368 358.216 150.784 353.049 150.784 345.943V312.906H140.454V348.544C140.454 351.161 139.792 353.216 138.46 354.701C137.363 355.926 135.905 356.639 134.104 356.849M107.806 358.183L101.908 346.438C100.811 344.24 99.8809 342.763 99.1269 342C98.3646 341.237 97.4765 340.758 96.4461 340.54C99.7385 340.121 102.26 338.846 104.011 336.723C105.762 334.592 106.642 331.731 106.642 328.132C106.642 322.755 105.176 318.871 102.243 316.488C99.3113 314.106 94.4857 312.914 87.7584 312.914H72.8378V365.272H83.1675V344.575H86.4599C88.9564 344.575 91.1263 346.555 92.9693 350.507C93.2709 351.161 93.5139 351.673 93.7066 352.05L100.007 365.272H104.154M168.896 341.497H175.758C178.933 341.497 181.212 342.117 182.585 343.359C183.959 344.601 184.655 346.631 184.655 349.458C184.655 352.285 183.993 354.19 182.678 355.314C181.362 356.438 179.05 357 175.758 357H168.896V341.497ZM168.896 321.086H175.758C178.33 321.086 180.173 321.572 181.312 322.545C182.443 323.518 183.013 325.079 183.013 327.226C183.013 329.374 182.46 330.918 181.346 331.857C180.24 332.797 178.371 333.267 175.758 333.267H168.896V321.077V321.086ZM190.578 361.874C193.61 359.601 195.127 355.943 195.127 350.893C195.127 346.782 194.113 343.577 192.094 341.287C190.075 338.997 187.068 337.654 183.08 337.252C186.422 336.95 188.952 335.851 190.678 333.955C192.404 332.059 193.267 329.424 193.267 326.06C193.267 321.664 191.801 318.359 188.869 316.153C185.937 313.946 181.563 312.839 175.749 312.839H158.902V365.272H175.749C182.594 365.272 187.528 364.139 190.561 361.874H190.578ZM229.492 312.906L219.296 333.946L209.143 312.906H198.009L214.153 344.643V365.263H224.482V344.643L240.634 312.906H229.5H229.492ZM94.1171 334.215C92.8939 335.322 90.8665 335.876 88.0433 335.876H83.1758V321.606H88.0433C90.8917 321.606 92.9275 322.159 94.1338 323.258C95.3486 324.357 95.9518 326.186 95.9518 328.728C95.9518 331.27 95.3402 333.107 94.1171 334.215Z" stroke="#949499" stroke-width="2" stroke-miterlimit="10"/>
<path d="M126.43 383.468C126.061 383.233 125.843 383.174 125.441 383.015C121.897 381.656 119.384 379.475 117.131 376.799C116.209 375.683 115.321 374.525 114.492 373.334L116.46 370.884C116.46 370.884 116.46 370.859 116.469 370.851C116.586 370.708 116.712 370.565 116.829 370.423L117.566 369.5L116.871 370.364C118.932 367.906 120.976 365.448 123.087 363.023C124.746 361.228 126.564 359.584 128.574 358.158C129.488 357.512 130.325 356.748 131.13 355.968C131.448 355.658 131.699 355.196 131.792 354.76C131.993 353.778 131.515 352.822 130.217 353.183C130.057 353.225 129.873 353.267 129.739 353.351C128.784 353.963 127.779 354.517 126.891 355.221C124.821 356.849 123.012 358.753 121.219 360.674C121.026 360.884 120.834 361.102 120.649 361.312C116.779 365.607 113.101 370.062 109.423 374.525C108.267 375.918 107.086 377.285 105.904 378.661C105.729 378.871 105.385 379.131 105.184 379.315C105.15 379.29 105.184 379.215 105.184 379.156C105.226 378.955 105.243 378.753 105.31 378.56C105.678 377.57 106.03 376.564 106.457 375.591C108.166 371.715 109.976 367.889 111.895 364.114H111.886C112.288 363.309 112.69 362.512 113.118 361.723C113.746 360.574 114.291 359.374 114.399 358.049C114.466 357.226 113.914 356.471 113.118 356.278C112.38 356.102 112.012 356.329 111.543 357.252C110.412 359.458 109.289 361.673 108.158 363.879C108.066 364.055 107.974 364.231 107.882 364.408H107.907C106.96 366.186 106.013 367.948 105.201 369.777C103.458 373.695 102.009 377.738 100.015 381.564C99.462 382.637 99.1018 383.82 98.7583 384.978C98.5237 385.783 98.9426 386.421 99.705 386.757C100.635 387.176 101.515 387.017 102.369 386.497C103.802 385.624 105.016 384.5 106.106 383.25C108.284 380.742 110.412 378.191 112.556 375.649C112.674 375.825 112.791 376.002 112.9 376.178C115.17 379.525 117.851 382.478 121.035 384.945C122.107 385.775 123.23 386.53 124.553 386.849C125.86 387.168 127.058 386.312 127.234 384.961C127.309 384.366 126.899 383.77 126.405 383.46" fill="#949499"/>
<path d="M166.542 379.047C166.542 379.047 166.525 378.988 166.509 378.946C166.525 378.988 166.542 379.038 166.542 379.047ZM183.13 370.523C182.485 371.228 181.697 371.664 180.826 371.941C180.793 371.882 183.096 370.465 183.13 370.523ZM211.421 371.354C211.162 371.06 210.801 370.758 210.29 371.002C210.047 371.119 209.788 371.236 209.545 371.346C209.168 371.513 208.782 371.689 208.405 371.882C206.319 372.998 204.233 374.114 202.147 375.238C200.983 375.867 199.818 376.488 198.654 377.117C198.235 377.344 197.808 377.562 197.38 377.78L196.945 377.998C196.693 375.775 197.238 373.544 198.453 371.84C198.52 371.748 198.687 371.664 198.805 371.673C199.425 371.715 199.835 371.455 200.078 370.893C200.422 370.087 200.237 369.03 199.676 368.544C199.115 368.065 198.402 368.149 197.674 368.795C196.702 369.651 195.948 370.8 195.311 372.419L195.278 372.495C195.219 372.654 195.152 372.83 195.051 372.906C194.85 373.057 194.658 373.216 194.457 373.376C193.803 373.896 193.133 374.433 192.421 374.844C188.961 376.882 186.179 378.032 183.381 378.585C182.208 378.82 180.96 379.022 179.737 378.686C179.058 378.502 178.547 378.132 178.263 377.621C177.978 377.117 177.936 376.488 178.128 375.817C178.246 375.423 178.422 375.028 178.606 374.651C178.673 374.508 178.74 374.366 178.799 374.231C180.374 374.634 181.898 374.248 183.591 373.04C184.412 372.453 185.241 371.757 185.735 370.683C186.079 369.945 186.071 369.206 185.71 368.661C185.4 368.183 184.873 367.923 184.219 367.939H184.202C183.49 367.956 182.82 368.082 182.25 368.292C180.223 369.064 178.522 370.49 177.073 372.654L177.023 372.73C176.956 372.839 176.88 372.956 176.805 372.99C176.503 373.124 176.185 373.241 175.875 373.359C175.381 373.544 174.87 373.745 174.384 373.997C172.18 375.154 169.952 376.362 167.799 377.52C167.288 377.797 166.785 378.065 166.282 378.342C165.864 377.159 165.151 376.245 164.121 375.557C163.794 375.339 163.476 375.054 163.199 374.81L163.116 374.735C162.848 374.491 162.889 374.114 162.948 373.913C163.417 372.386 164.833 371.295 165.696 371.002C165.956 370.918 166.148 370.909 166.241 370.976C166.375 371.027 166.559 371.337 166.668 371.606C166.827 372 167.036 372.117 167.598 372.134C168.059 372.151 168.427 371.916 168.737 371.413C169.139 370.75 168.98 369.886 168.31 369.047C167.648 368.275 166.634 368.057 165.294 368.393C163.124 369.047 161.616 369.869 160.351 372.117C159.698 373.267 159.748 375.028 160.46 376.127L160.477 376.153C156.966 377.73 153.347 378.711 149.008 379.693C148.681 377.721 147.24 376.572 145.841 375.465L145.648 375.314C145.648 375.314 145.439 375.112 145.556 374.752C145.657 374.45 145.824 374.215 145.824 374.215C146.486 373.3 147.223 372.352 148.312 371.748C148.513 371.639 148.664 371.606 148.798 371.648C148.924 371.689 149.041 371.815 149.142 372.025C149.15 372.05 149.167 372.075 149.175 372.101C149.284 372.428 149.502 372.872 150.063 372.898C150.088 372.898 150.122 372.898 150.147 372.898C150.549 372.898 150.901 372.663 151.186 372.226C151.638 371.53 151.538 370.557 150.909 369.76C150.172 368.82 149.46 368.552 148.438 368.837C147.424 369.122 146.469 369.651 145.355 370.532C144.258 371.404 143.068 372.512 142.548 374.139C142.548 374.139 142.523 374.215 142.498 374.315C142.414 374.391 142.322 374.458 142.222 374.508C141.359 374.919 140.513 375.314 139.658 375.666L138.72 376.052C136.483 376.975 134.179 377.931 131.892 378.82C131.423 379.005 130.895 379.064 130.392 379.122H130.367C130.217 379.139 130.074 379.156 129.923 379.181C129.89 379.181 129.865 379.189 129.84 379.189C129.84 379.189 129.831 379.189 129.823 379.189C129.722 379.206 129.588 379.198 129.513 379.122C129.454 379.064 129.437 378.971 129.463 378.846C129.488 378.72 129.504 378.594 129.521 378.476C129.58 378.116 129.63 377.747 129.764 377.403C130.158 376.346 130.61 375.288 131.046 374.257L131.096 374.139C131.431 373.342 131.239 372.646 130.577 372.31C129.84 371.941 129.22 372.126 128.625 372.898L128.608 372.923C128.432 373.141 128.256 373.367 128.156 373.619L127.971 374.047C127.586 374.953 127.184 375.901 126.857 376.84C126.614 377.537 126.497 378.267 126.413 378.887C126.405 378.955 126.396 379.013 126.396 379.089V379.114C126.396 379.114 126.396 379.164 126.396 379.198C126.388 379.542 126.438 379.877 126.547 380.213V380.255C126.547 380.255 126.564 380.28 126.572 380.297L126.597 380.356C126.656 380.523 126.723 380.674 126.807 380.817C127.242 381.589 127.971 382.017 128.985 382.075C129.253 382.101 129.538 382.126 129.84 382.109C130.351 382.092 130.912 382.008 131.523 381.874C134.313 381.245 136.961 380.079 139.407 378.904C140.328 378.46 141.258 377.981 142.071 377.562L142.18 377.503C142.49 377.344 142.791 377.184 143.085 377.033C143.277 377.184 143.462 377.335 143.646 377.486C144.073 377.839 144.517 378.2 144.978 378.535C145.64 379.022 146.042 379.651 146.436 380.439C146.31 380.49 146.193 380.54 146.067 380.582L146.017 380.599C145.673 380.733 145.347 380.867 145.02 381.01C143.872 381.522 142.867 382.025 142.13 382.914C141.518 383.653 141.543 384.525 142.188 385.07C142.373 385.221 142.85 385.59 143.361 385.624C143.872 385.658 144.325 385.674 144.743 385.666H144.844C145.263 385.658 145.631 385.624 145.992 385.565C147.634 385.305 148.706 384.374 149.108 382.864C149.184 382.57 149.385 382.52 149.653 382.445C150.398 382.235 151.144 382.025 151.89 381.815L152.107 381.757C153.674 381.32 155.299 380.867 156.891 380.423C158.851 379.886 160.703 379.257 161.842 377.503C162.663 377.914 163.258 378.552 163.752 379.533C161.398 380.238 160.393 381.664 160.016 382.386C159.941 382.503 159.89 382.629 159.848 382.747C159.832 382.788 159.823 382.814 159.823 382.814C159.672 383.351 159.815 383.887 160.267 384.265C160.586 384.533 161.013 384.735 161.432 384.827C162.387 385.028 162.814 385.121 163.953 384.785C165.327 384.374 166.199 383.518 166.534 382.235C166.693 381.857 166.768 381.455 166.793 381.069C169.533 379.542 171.87 378.25 174.032 377.059C174.434 376.832 174.853 376.648 175.28 376.446C175.423 376.387 175.557 376.32 175.699 376.253L175.724 376.891C175.808 378.98 177.039 380.599 178.857 381.018C180.34 381.362 181.865 381.346 183.524 380.968C187.034 380.171 190.377 378.846 193.451 377.042C193.719 376.882 193.971 376.715 194.247 376.538C194.306 376.497 194.364 376.463 194.431 376.421V376.538C194.431 376.799 194.423 377.033 194.431 377.268C194.431 377.361 194.431 377.453 194.431 377.545C194.431 377.814 194.423 378.09 194.507 378.334C194.842 379.315 194.364 379.71 193.594 380.188C192.555 380.834 191.6 381.58 190.712 382.294C189.924 382.931 189.472 383.762 189.38 384.768C189.338 385.188 189.531 385.7 189.857 386.069C190.092 386.329 190.36 386.471 190.611 386.471C190.678 386.471 190.754 386.471 190.821 386.471C191.868 386.455 192.848 386.22 193.728 385.767C195.353 384.936 196.45 383.468 197.079 381.287C197.129 381.102 197.263 380.909 197.372 380.851C201.226 378.745 205.155 376.622 208.95 374.567L209.872 374.072C210.5 373.728 211.22 373.342 211.614 372.528C211.832 372.092 211.765 371.673 211.43 371.295" fill="#949499"/>
<path d="M131.49 370.607C131.49 370.607 131.523 370.607 131.549 370.607C132.395 370.565 132.964 369.945 132.931 369.106C132.923 368.678 132.755 368.3 132.462 368.04C132.202 367.805 131.842 367.68 131.456 367.688C131.44 367.688 131.423 367.688 131.406 367.688C130.56 367.73 129.99 368.351 130.015 369.19C130.024 369.609 130.191 369.987 130.476 370.247C130.744 370.482 131.096 370.607 131.482 370.599" fill="#949499"/>
</g>
<g clip-path="url(#clip3_285_7631)">
<path d="M323.446 340.484C324.477 340.693 325.365 341.178 326.127 341.932C326.881 342.693 327.811 344.166 328.908 346.359L338.367 365.15H327.023L320.715 351.959C320.531 351.582 320.279 351.072 319.978 350.419C318.135 346.477 315.965 344.501 313.468 344.501H310.176V365.142H299.838V312.904H314.758C321.486 312.904 326.311 314.093 329.243 316.47C332.176 318.847 333.642 322.722 333.642 328.087C333.642 331.678 332.762 334.541 331.011 336.658C329.26 338.784 326.739 340.048 323.446 340.467M310.167 321.584V335.83H315.035C317.858 335.83 319.886 335.277 321.109 334.164C322.332 333.059 322.943 331.235 322.943 328.69C322.943 326.146 322.332 324.329 321.125 323.233C319.911 322.136 317.875 321.584 315.035 321.584H310.167Z" stroke="#949499" stroke-width="2" stroke-miterlimit="10"/>
<path d="M342.078 345.866V312.904H352.408V348.46C352.408 351.072 353.07 353.122 354.402 354.604C355.734 356.085 357.577 356.822 359.931 356.822C362.285 356.822 364.137 356.085 365.469 354.604C366.801 353.122 367.462 351.072 367.462 348.46V312.904H377.792V345.866C377.792 352.955 376.376 358.111 373.553 361.334C370.73 364.556 366.189 366.163 359.931 366.163C353.673 366.163 349.166 364.556 346.326 361.334C343.486 358.111 342.07 352.955 342.07 345.866" stroke="#949499" stroke-width="2" stroke-miterlimit="10"/>
<path d="M395.905 341.421V356.889H402.766C406.058 356.889 408.362 356.328 409.686 355.206C411.001 354.085 411.663 352.143 411.663 349.364C411.663 346.585 410.976 344.509 409.594 343.279C408.212 342.04 405.941 341.421 402.766 341.421H395.905ZM395.905 321.056V333.201H402.766C405.38 333.201 407.24 332.733 408.354 331.804C409.46 330.875 410.021 329.334 410.021 327.183C410.021 325.032 409.451 323.484 408.32 322.513C407.189 321.542 405.338 321.056 402.766 321.056H395.905ZM385.927 312.837H402.774C408.589 312.837 412.962 313.942 415.894 316.143C418.826 318.353 420.292 321.642 420.292 326.028C420.292 329.385 419.429 332.013 417.703 333.904C415.978 335.796 413.439 336.893 410.105 337.194C414.101 337.596 417.1 338.935 419.128 341.22C421.147 343.505 422.152 346.702 422.152 350.804C422.152 355.843 420.636 359.492 417.603 361.76C414.57 364.02 409.627 365.15 402.791 365.15H385.944V312.837H385.927Z" stroke="#949499" stroke-width="2" stroke-miterlimit="10"/>
<path d="M425.009 312.904H436.143L446.305 333.905L456.492 312.904H467.634L451.482 344.577V365.15H441.153V344.577L425.009 312.904Z" stroke="#949499" stroke-width="2" stroke-miterlimit="10"/>
<path d="M444.747 334.834C443.373 333.26 441.655 333.294 440.508 333.846C440.281 333.955 440.055 334.055 439.795 334.173C439.368 334.365 438.941 334.558 438.522 334.775C436.93 335.621 435.347 336.474 433.755 337.32C433.789 337.253 433.822 337.186 433.847 337.11C434.635 335.244 434.174 332.992 432.733 331.762C431.158 330.414 429.022 330.515 427.304 332.03C426.056 333.118 425.109 334.516 424.33 336.416L424.188 336.525C423.585 337.01 423.007 337.462 422.462 337.788C419.932 339.278 417.812 340.249 415.802 340.835C416.028 340.693 416.254 340.542 416.48 340.383C417.536 339.621 418.726 338.634 419.48 337.002C420.192 335.453 420.116 333.754 419.278 332.465C418.474 331.218 417.184 330.54 415.517 330.548C414.512 330.573 413.531 330.749 412.694 331.067C410.256 331.988 408.228 333.62 406.519 336.047C406.452 336.073 406.385 336.098 406.318 336.123C405.782 336.332 405.17 336.558 404.534 336.893C403.788 337.286 403.042 337.68 402.297 338.081C402.314 338.056 402.33 338.023 402.347 337.998C403.327 336.382 403.084 334.323 401.66 332.574C400.889 331.678 399.138 330.306 395.905 331.117C393.241 331.921 391.121 333.068 389.429 336.056C388.809 337.161 388.557 338.517 388.666 339.839C386.58 340.626 384.385 341.245 381.956 341.84C381.705 341.429 381.42 341.061 381.118 340.718C381.168 340.718 381.219 340.718 381.269 340.726C381.328 340.726 381.478 340.726 381.537 340.726C382.819 340.701 383.95 340.048 384.72 338.877C385.801 337.228 385.642 335.068 384.318 333.369C382.567 331.134 380.498 331.151 379.074 331.544C377.708 331.929 376.477 332.599 375.069 333.704C373.922 334.616 372.556 335.863 371.735 337.68C371.157 337.947 370.579 338.207 369.993 338.45L368.954 338.877C367.571 339.446 366.156 340.032 364.74 340.601L364.84 340.375C365.226 339.479 365.284 338.567 365.092 337.738C366.231 337.002 366.943 335.713 366.893 334.223C366.859 333.068 366.382 332.021 365.552 331.285C364.815 330.624 363.852 330.264 362.88 330.264C362.813 330.264 362.696 330.264 362.629 330.264C360.358 330.381 358.691 332.18 358.75 334.457C358.758 334.817 358.825 335.169 358.926 335.503C358.549 335.771 358.197 336.106 357.878 336.516C357.652 336.801 357.309 337.236 357.066 337.805L356.856 338.291C356.463 339.22 356.052 340.174 355.7 341.187C355.382 342.091 355.239 342.986 355.131 343.74C355.114 343.882 355.097 344.024 355.089 344.284V344.376C355.089 344.376 355.089 344.418 355.089 344.434C353.488 343.447 352.022 342.124 350.489 340.308C349.995 339.714 349.543 339.144 349.124 338.592L349.836 337.713C349.836 337.713 349.903 337.629 349.928 337.588C349.936 337.571 349.953 337.554 349.961 337.537L350.179 337.286C350.179 337.286 350.213 337.253 350.221 337.236L351.386 335.847C353.044 333.871 354.703 331.896 356.354 330.004C357.996 328.23 359.654 326.757 361.431 325.501C362.536 324.723 363.491 323.835 364.287 323.074C364.991 322.404 365.502 321.467 365.703 320.521C366.013 319.048 365.611 317.608 364.614 316.687C363.642 315.783 362.277 315.499 360.785 315.909C360.559 315.968 360.132 316.085 359.671 316.369C359.42 316.528 359.16 316.687 358.909 316.846C358.155 317.307 357.376 317.784 356.613 318.386C354.41 320.119 352.533 322.078 350.648 324.103C350.447 324.313 350.263 324.53 350.054 324.773C348.805 326.154 347.574 327.56 346.359 328.975C346.493 328.715 346.636 328.456 346.77 328.196C347.473 326.916 348.211 325.359 348.37 323.476C348.537 321.4 347.138 319.458 345.102 318.956C343.754 318.621 341.86 318.755 340.57 321.283L336.909 328.406C336.859 328.498 336.817 328.59 336.783 328.69C335.887 330.372 334.965 332.105 334.153 333.905C333.524 335.319 332.93 336.751 332.335 338.173C331.271 340.743 330.266 343.162 329.034 345.522C328.347 346.836 327.945 348.192 327.593 349.389C326.998 351.39 327.978 353.407 329.981 354.303C330.55 354.554 331.279 354.771 332.134 354.771C332.988 354.771 334.01 354.545 335.083 353.892C336.624 352.955 338.04 351.733 339.431 350.134C340.88 348.469 342.304 346.786 343.728 345.096C345.831 347.799 348.194 350.176 350.782 352.177C351.972 353.097 353.438 354.102 355.281 354.554C356.622 354.88 358.021 354.629 359.127 353.867C360.249 353.097 361.003 351.85 361.179 350.452C361.204 350.277 361.204 350.101 361.204 349.925C361.213 349.925 361.221 349.925 361.238 349.925C361.9 349.9 362.62 349.8 363.391 349.624C366.189 348.996 368.778 347.908 371.174 346.786C369.926 348.594 370.168 350.896 371.81 352.285C372.389 352.771 373.31 353.365 374.475 353.449C375.078 353.491 375.614 353.507 376.05 353.499C376.075 353.499 376.192 353.499 376.209 353.499C376.745 353.491 377.239 353.441 377.7 353.374C379.912 353.022 381.604 351.808 382.5 349.959L384.72 349.339C385.96 348.996 387.225 348.644 388.474 348.301C388.432 349.515 388.934 350.687 389.915 351.499C390.56 352.034 391.372 352.428 392.21 352.603C393.475 352.871 394.363 353.005 396.022 352.511C398.217 351.867 399.742 350.369 400.345 348.293C400.378 348.192 400.412 348.1 400.445 348C402.18 347.037 403.755 346.167 405.229 345.355C406.109 347.088 407.659 348.36 409.585 348.803C411.454 349.239 413.364 349.222 415.425 348.762C416.472 348.527 417.511 348.243 418.524 347.916C418.282 348.485 418.131 349.105 418.064 349.749C417.955 350.896 418.382 352.126 419.195 353.03C419.924 353.842 420.87 354.294 421.901 354.311H422.16C423.61 354.286 424.975 353.951 426.215 353.323C428.293 352.269 429.776 350.469 430.655 347.983C434.099 346.108 437.584 344.233 440.977 342.4L442.418 341.622C443.197 341.203 444.504 340.5 445.274 338.927C445.953 337.537 445.744 336.006 444.705 334.825" fill="white"/>
<path d="M362.763 332.9C361.916 332.942 361.347 333.561 361.372 334.398C361.38 334.817 361.548 335.194 361.833 335.453C362.101 335.687 362.453 335.813 362.838 335.805C362.855 335.805 362.871 335.805 362.897 335.805C363.743 335.763 364.312 335.143 364.279 334.306C364.262 333.88 364.095 333.503 363.81 333.243C363.55 333.009 363.198 332.883 362.804 332.892C362.788 332.892 362.771 332.892 362.754 332.892M412.174 337.136C413.045 336.859 413.833 336.424 414.478 335.721C414.444 335.662 412.149 337.077 412.174 337.136ZM442.945 337.78C442.552 338.592 441.831 338.977 441.203 339.32L440.281 339.814C436.486 341.865 432.557 343.982 428.703 346.083C428.586 346.142 428.46 346.334 428.41 346.518C427.782 348.695 426.684 350.159 425.059 350.988C424.179 351.44 423.199 351.674 422.152 351.691C422.085 351.691 422.01 351.691 421.943 351.691C421.691 351.691 421.423 351.54 421.189 351.289C420.862 350.921 420.669 350.41 420.711 349.992C420.812 348.988 421.256 348.151 422.043 347.523C422.923 346.811 423.886 346.066 424.925 345.422C425.696 344.945 426.173 344.551 425.838 343.572C425.754 343.329 425.763 343.053 425.763 342.785C425.763 342.693 425.763 342.601 425.763 342.509C425.763 342.275 425.763 342.04 425.763 341.781V341.664C425.704 341.706 425.645 341.747 425.578 341.781C425.31 341.957 425.051 342.124 424.791 342.283C421.716 344.083 418.374 345.405 414.863 346.2C413.205 346.577 411.68 346.594 410.197 346.251C408.379 345.824 407.148 344.208 407.064 342.124L407.039 341.488C406.896 341.555 406.762 341.614 406.62 341.68C406.184 341.881 405.774 342.065 405.371 342.291C403.21 343.48 400.864 344.769 398.133 346.292C398.108 346.677 398.033 347.079 397.873 347.456C397.538 348.736 396.667 349.59 395.293 349.992C394.162 350.327 393.726 350.235 392.771 350.034C392.353 349.942 391.925 349.741 391.607 349.473C391.155 349.096 391.012 348.569 391.163 348.025C391.163 348.025 391.171 348 391.188 347.958C391.23 347.833 391.28 347.715 391.356 347.598C391.724 346.878 392.73 345.455 395.092 344.752C394.598 343.773 393.995 343.145 393.182 342.727C392.043 344.484 390.191 345.104 388.231 345.648C386.631 346.083 385.014 346.535 383.439 346.979L383.221 347.037C382.475 347.247 381.73 347.456 380.984 347.657C380.708 347.732 380.515 347.791 380.439 348.075C380.037 349.573 378.965 350.503 377.323 350.77C376.963 350.829 376.594 350.862 376.175 350.871C376.142 350.871 376.108 350.871 376.075 350.871C375.656 350.871 375.203 350.871 374.692 350.829C374.181 350.787 373.704 350.427 373.519 350.277C372.874 349.733 372.849 348.87 373.461 348.125C374.198 347.238 375.203 346.736 376.351 346.225C376.678 346.083 377.005 345.949 377.348 345.815L377.398 345.799C377.516 345.748 377.641 345.706 377.767 345.656C377.373 344.869 376.971 344.242 376.309 343.756C375.848 343.421 375.404 343.062 374.977 342.71C374.793 342.559 374.609 342.409 374.416 342.258C374.114 342.409 373.813 342.568 373.503 342.727L373.394 342.785C372.581 343.204 371.651 343.681 370.73 344.125C368.283 345.296 365.628 346.46 362.846 347.088C362.235 347.221 361.673 347.305 361.162 347.322C360.869 347.33 360.576 347.314 360.308 347.288C359.294 347.23 358.565 346.803 358.13 346.025C358.046 345.882 357.987 345.732 357.929 345.573L357.903 345.506C357.903 345.506 357.895 345.472 357.887 345.464L357.87 345.422C357.761 345.087 357.711 344.761 357.719 344.417C357.719 344.376 357.719 344.351 357.719 344.325V344.3C357.719 344.225 357.728 344.166 357.736 344.099C357.82 343.48 357.937 342.752 358.18 342.057C358.507 341.111 358.909 340.174 359.294 339.27L359.478 338.843C359.587 338.592 359.763 338.366 359.931 338.148L359.948 338.123C360.542 337.353 361.171 337.169 361.9 337.537C362.561 337.864 362.763 338.567 362.419 339.362L362.369 339.479C361.933 340.5 361.481 341.563 361.087 342.618C360.961 342.961 360.903 343.329 360.844 343.689C360.827 343.815 360.802 343.94 360.785 344.066C360.76 344.192 360.785 344.284 360.836 344.342C360.911 344.417 361.045 344.418 361.146 344.409H361.162C361.162 344.409 361.221 344.401 361.246 344.392C361.397 344.376 361.548 344.359 361.69 344.342H361.715C362.226 344.284 362.746 344.225 363.215 344.041C365.502 343.162 367.806 342.199 370.043 341.279L370.981 340.894C371.844 340.542 372.682 340.14 373.545 339.739C373.645 339.688 373.737 339.621 373.821 339.546C373.846 339.446 373.871 339.37 373.871 339.37C374.391 337.747 375.58 336.642 376.678 335.771C377.792 334.884 378.747 334.365 379.761 334.08C380.783 333.796 381.495 334.055 382.232 335.001C382.852 335.796 382.961 336.759 382.509 337.462C382.224 337.897 381.872 338.123 381.47 338.132C381.445 338.132 381.411 338.132 381.386 338.132C380.825 338.106 380.615 337.671 380.498 337.336C380.49 337.311 380.481 337.286 380.465 337.261C380.364 337.052 380.247 336.926 380.121 336.884C379.995 336.843 379.836 336.884 379.635 336.993C378.546 337.596 377.809 338.542 377.147 339.454C377.147 339.454 376.979 339.697 376.879 339.99C376.762 340.35 376.971 340.551 376.971 340.551L377.164 340.701C378.563 341.806 380.004 342.953 380.331 344.92C384.679 343.94 388.289 342.961 391.8 341.388C391.8 341.379 391.791 341.371 391.783 341.362C391.071 340.274 391.02 338.517 391.674 337.361C392.939 335.118 394.447 334.298 396.617 333.645C397.957 333.31 398.971 333.528 399.633 334.298C400.311 335.135 400.471 335.989 400.06 336.658C399.758 337.161 399.381 337.395 398.921 337.378C398.359 337.361 398.158 337.244 397.999 336.851C397.89 336.583 397.706 336.273 397.572 336.232C397.48 336.156 397.287 336.165 397.027 336.248C396.164 336.533 394.74 337.621 394.279 339.153C394.229 339.354 394.179 339.73 394.447 339.973L394.531 340.048C394.807 340.291 395.117 340.576 395.444 340.793C396.474 341.48 397.186 342.4 397.605 343.572C397.617 343.606 397.617 343.606 397.605 343.572C398.116 343.296 398.619 343.028 399.13 342.752C401.283 341.588 403.512 340.391 405.715 339.236C406.201 338.985 406.712 338.784 407.206 338.6C407.516 338.483 407.826 338.366 408.136 338.232C408.212 338.199 408.287 338.081 408.362 337.973L408.413 337.897C409.862 335.738 411.563 334.306 413.59 333.545C414.16 333.327 414.83 333.21 415.542 333.193H415.559C416.204 333.185 416.732 333.436 417.05 333.913C417.402 334.457 417.41 335.194 417.075 335.93C416.581 337.002 415.751 337.688 414.93 338.282C413.238 339.496 411.713 339.873 410.138 339.471C410.08 339.613 410.013 339.755 409.946 339.898C409.77 340.274 409.585 340.668 409.468 341.061C409.275 341.731 409.317 342.35 409.602 342.861C409.887 343.371 410.398 343.74 411.077 343.924C412.308 344.25 413.548 344.049 414.721 343.823C417.511 343.271 420.3 342.116 423.76 340.09C424.473 339.672 425.143 339.136 425.796 338.617C425.997 338.458 426.19 338.299 426.391 338.148C426.483 338.073 426.559 337.897 426.617 337.738L426.651 337.663C427.287 336.047 428.041 334.892 429.013 334.047C429.742 333.411 430.454 333.319 431.016 333.796C431.577 334.281 431.761 335.336 431.418 336.139C431.183 336.7 430.764 336.96 430.144 336.918C430.027 336.918 429.859 336.993 429.792 337.085C428.578 338.776 428.025 341.011 428.284 343.229L428.72 343.011C429.147 342.794 429.575 342.576 429.993 342.35C431.158 341.731 432.322 341.103 433.487 340.475C435.573 339.354 437.659 338.24 439.745 337.127C440.122 336.926 440.507 336.759 440.884 336.591C441.136 336.483 441.387 336.365 441.63 336.248C442.15 335.997 442.51 336.307 442.761 336.591C443.096 336.968 443.155 337.387 442.945 337.822M358.599 350.168C358.423 351.515 357.233 352.369 355.918 352.051C354.594 351.725 353.463 350.971 352.399 350.151C349.216 347.69 346.535 344.744 344.265 341.404C344.147 341.228 344.03 341.053 343.913 340.877C341.776 343.413 339.64 345.958 337.462 348.46C336.381 349.707 335.158 350.829 333.725 351.699C332.871 352.218 331.991 352.369 331.061 351.959C330.299 351.616 329.872 350.98 330.115 350.185C330.458 349.029 330.81 347.849 331.371 346.778C333.357 342.961 334.806 338.927 336.549 335.018C337.361 333.202 338.308 331.435 339.255 329.678H339.238C339.33 329.494 339.431 329.318 339.514 329.142C340.645 326.941 341.776 324.739 342.899 322.538C343.368 321.617 343.745 321.383 344.474 321.567C345.262 321.76 345.823 322.513 345.756 323.333C345.647 324.656 345.111 325.853 344.474 326.999C344.047 327.786 343.645 328.581 343.243 329.376H343.251C341.332 333.151 339.523 336.968 337.814 340.835C337.387 341.806 337.043 342.81 336.666 343.798C336.599 343.982 336.582 344.192 336.54 344.384C336.524 344.451 336.499 344.526 336.54 344.543C336.741 344.359 337.085 344.091 337.261 343.89C338.442 342.517 339.623 341.153 340.771 339.764C344.449 335.319 348.127 330.875 351.997 326.589C352.182 326.372 352.374 326.162 352.567 325.953C354.36 324.036 356.169 322.136 358.239 320.512C359.127 319.818 360.132 319.257 361.087 318.646C361.229 318.554 361.405 318.52 361.565 318.479C362.863 318.11 363.341 319.073 363.14 320.052C363.047 320.479 362.796 320.948 362.478 321.257C361.673 322.036 360.827 322.798 359.923 323.442C357.912 324.865 356.094 326.505 354.435 328.297C352.332 330.707 350.28 333.168 348.219 335.612L348.914 334.75L348.169 335.671C348.051 335.813 347.926 335.955 347.808 336.098C347.808 336.098 347.808 336.123 347.8 336.131L345.831 338.575C346.661 339.764 347.557 340.919 348.47 342.032C350.724 344.702 353.229 346.887 356.773 348.234C357.175 348.385 357.392 348.452 357.761 348.678C358.255 348.988 358.666 349.582 358.59 350.185" fill="#FF0097"/>
</g>
<g clip-path="url(#clip4_285_7631)">
<path d="M309.404 120.857V135.283H314.306C317.15 135.283 319.192 134.724 320.423 133.597C321.655 132.478 322.271 130.63 322.271 128.053C322.271 125.477 321.655 123.637 320.44 122.527C319.217 121.417 317.167 120.857 314.306 120.857H309.404ZM322.778 139.996C323.815 140.208 324.71 140.699 325.478 141.462C326.237 142.234 327.174 143.725 328.279 145.946L337.805 164.974H326.381L320.027 151.616C319.841 151.235 319.588 150.718 319.284 150.057C317.428 146.065 315.243 144.064 312.728 144.064H309.412V164.966H299V112.068H314.028C320.795 112.068 325.663 113.271 328.608 115.687C331.561 118.094 333.038 122.019 333.038 127.452C333.038 131.088 332.152 133.987 330.388 136.131C328.625 138.284 326.085 139.564 322.769 139.988" fill="#949499"/>
<path d="M341.543 145.446V112.068H351.947V148.074C351.947 150.718 352.614 152.795 353.955 154.295C355.297 155.795 357.153 156.541 359.524 156.541C361.895 156.541 363.76 155.795 365.101 154.295C366.443 152.795 367.11 150.718 367.11 148.074V112.068H377.513V145.446C377.513 152.625 376.087 157.846 373.244 161.109C370.4 164.373 365.827 166 359.524 166C353.221 166 348.682 164.373 345.821 161.109C342.961 157.846 341.535 152.625 341.535 145.446" fill="#949499"/>
<path d="M395.756 140.945V156.609H402.666C405.982 156.609 408.303 156.041 409.636 154.905C410.961 153.769 411.627 151.803 411.627 148.989C411.627 146.175 410.935 144.073 409.543 142.827C408.151 141.572 405.864 140.945 402.666 140.945H395.756ZM395.756 120.323V132.622H402.666C405.299 132.622 407.172 132.147 408.294 131.206C409.408 130.266 409.974 128.706 409.974 126.528C409.974 124.349 409.4 122.781 408.261 121.798C407.122 120.815 405.257 120.323 402.666 120.323H395.756ZM385.707 112H402.675C408.531 112 412.935 113.119 415.888 115.348C418.842 117.586 420.318 120.917 420.318 125.358C420.318 128.757 419.449 131.418 417.711 133.334C415.973 135.249 413.416 136.36 410.058 136.665C414.083 137.072 417.103 138.428 419.145 140.742C421.179 143.056 422.191 146.294 422.191 150.447C422.191 155.549 420.664 159.245 417.61 161.542C414.555 163.83 409.577 164.974 402.692 164.974H385.723V112H385.707Z" fill="#949499"/>
<path d="M425.069 112.068H436.282L446.517 133.334L456.778 112.068H468L451.732 144.141V164.974H441.328V144.141L425.069 112.068Z" fill="#949499"/>
<path d="M362.376 132.317C361.524 132.359 360.95 132.986 360.975 133.834C360.984 134.258 361.153 134.639 361.439 134.902C361.709 135.139 362.064 135.266 362.452 135.258C362.469 135.258 362.486 135.258 362.511 135.258C363.363 135.215 363.937 134.588 363.903 133.741C363.886 133.308 363.718 132.927 363.431 132.664C363.169 132.427 362.815 132.3 362.418 132.308C362.401 132.308 362.385 132.308 362.368 132.308M412.142 136.605C413.02 136.326 413.813 135.885 414.462 135.173C414.429 135.114 412.117 136.546 412.142 136.605ZM443.134 137.258C442.737 138.08 442.012 138.47 441.379 138.818L440.451 139.318C436.628 141.394 432.671 143.539 428.79 145.666C428.672 145.726 428.545 145.921 428.494 146.107C427.862 148.311 426.756 149.794 425.119 150.633C424.233 151.091 423.246 151.328 422.191 151.345C422.124 151.345 422.048 151.345 421.98 151.345C421.727 151.345 421.457 151.193 421.221 150.938C420.892 150.565 420.698 150.048 420.74 149.624C420.841 148.607 421.289 147.76 422.082 147.124C422.968 146.404 423.938 145.649 424.984 144.997C425.761 144.514 426.242 144.115 425.904 143.123C425.82 142.878 425.828 142.598 425.828 142.327C425.828 142.233 425.828 142.14 425.828 142.047C425.828 141.81 425.828 141.572 425.828 141.31V141.191C425.769 141.233 425.71 141.276 425.642 141.31C425.372 141.488 425.111 141.657 424.849 141.818C421.753 143.64 418.386 144.98 414.851 145.785C413.18 146.166 411.644 146.183 410.151 145.836C408.32 145.403 407.079 143.768 406.995 141.657L406.97 141.013C406.826 141.081 406.691 141.14 406.548 141.208C406.109 141.411 405.696 141.598 405.291 141.827C403.114 143.03 400.751 144.336 398 145.878C397.975 146.268 397.899 146.675 397.739 147.056C397.401 148.353 396.524 149.218 395.14 149.624C394.001 149.964 393.562 149.87 392.6 149.667C392.178 149.574 391.748 149.37 391.427 149.099C390.972 148.718 390.828 148.184 390.98 147.633C390.98 147.633 390.989 147.607 391.005 147.565C391.048 147.438 391.098 147.319 391.174 147.2C391.545 146.471 392.558 145.031 394.937 144.319C394.44 143.327 393.832 142.691 393.014 142.267C391.866 144.047 390.001 144.675 388.027 145.225C386.415 145.666 384.787 146.124 383.2 146.573L382.981 146.632C382.23 146.844 381.479 147.056 380.728 147.26C380.45 147.336 380.256 147.395 380.18 147.684C379.775 149.201 378.695 150.142 377.041 150.413C376.678 150.472 376.307 150.506 375.885 150.514C375.851 150.514 375.817 150.514 375.784 150.514C375.362 150.514 374.906 150.514 374.391 150.472C373.877 150.43 373.396 150.065 373.21 149.913C372.56 149.362 372.535 148.489 373.151 147.734C373.894 146.836 374.906 146.327 376.062 145.81C376.391 145.666 376.72 145.531 377.066 145.395L377.117 145.378C377.235 145.327 377.362 145.285 377.488 145.234C377.092 144.437 376.687 143.802 376.02 143.31C375.556 142.971 375.109 142.606 374.678 142.25C374.493 142.098 374.307 141.945 374.113 141.793C373.809 141.945 373.505 142.106 373.193 142.267L373.084 142.327C372.265 142.751 371.329 143.234 370.4 143.683C367.937 144.87 365.262 146.048 362.46 146.683C361.844 146.819 361.279 146.904 360.764 146.921C360.469 146.929 360.174 146.912 359.904 146.887C358.883 146.827 358.149 146.395 357.71 145.607C357.626 145.463 357.567 145.31 357.507 145.149L357.482 145.081C357.482 145.081 357.474 145.047 357.465 145.039L357.448 144.997C357.339 144.658 357.288 144.327 357.297 143.98C357.297 143.937 357.297 143.912 357.297 143.886V143.861C357.297 143.785 357.305 143.725 357.313 143.657C357.398 143.03 357.516 142.293 357.761 141.589C358.09 140.632 358.495 139.682 358.883 138.767L359.068 138.335C359.178 138.08 359.355 137.851 359.524 137.631L359.541 137.606C360.14 136.826 360.773 136.639 361.507 137.012C362.174 137.343 362.376 138.055 362.03 138.86L361.979 138.979C361.541 140.013 361.085 141.089 360.689 142.157C360.562 142.505 360.503 142.878 360.444 143.242C360.427 143.369 360.402 143.496 360.385 143.624C360.359 143.751 360.385 143.844 360.435 143.903C360.511 143.98 360.646 143.98 360.748 143.971H360.764C360.764 143.971 360.824 143.963 360.849 143.954C361.001 143.937 361.153 143.92 361.296 143.903H361.321C361.836 143.844 362.359 143.785 362.832 143.598C365.135 142.708 367.456 141.733 369.708 140.801L370.654 140.411C371.523 140.055 372.366 139.648 373.235 139.241C373.337 139.191 373.43 139.123 373.514 139.047C373.539 138.945 373.565 138.869 373.565 138.869C374.088 137.224 375.286 136.105 376.391 135.224C377.513 134.325 378.475 133.8 379.496 133.512C380.526 133.224 381.243 133.486 381.985 134.444C382.61 135.249 382.72 136.224 382.264 136.936C381.977 137.377 381.623 137.606 381.218 137.614C381.192 137.614 381.159 137.614 381.133 137.614C380.568 137.589 380.357 137.148 380.239 136.809C380.23 136.783 380.222 136.758 380.205 136.733C380.104 136.521 379.986 136.394 379.859 136.351C379.733 136.309 379.572 136.351 379.37 136.461C378.273 137.072 377.53 138.029 376.864 138.953C376.864 138.953 376.695 139.199 376.594 139.496C376.476 139.86 376.687 140.064 376.687 140.064L376.881 140.216C378.29 141.335 379.741 142.496 380.07 144.488C384.449 143.496 388.086 142.505 391.621 140.911C391.621 140.903 391.613 140.894 391.604 140.886C390.887 139.784 390.837 138.004 391.495 136.834C392.769 134.563 394.288 133.732 396.473 133.071C397.823 132.732 398.844 132.952 399.511 133.732C400.194 134.58 400.354 135.444 399.941 136.122C399.637 136.631 399.258 136.868 398.793 136.851C398.228 136.834 398.026 136.716 397.865 136.317C397.756 136.046 397.57 135.732 397.435 135.69C397.342 135.614 397.148 135.622 396.887 135.707C396.017 135.995 394.583 137.097 394.119 138.648C394.068 138.852 394.018 139.233 394.288 139.479L394.372 139.555C394.651 139.801 394.963 140.089 395.292 140.309C396.33 141.004 397.047 141.937 397.469 143.123C397.48 143.157 397.48 143.157 397.469 143.123C397.983 142.844 398.49 142.573 399.004 142.293C401.173 141.115 403.417 139.903 405.637 138.733C406.126 138.479 406.641 138.275 407.138 138.089C407.451 137.97 407.763 137.851 408.075 137.716C408.151 137.682 408.227 137.563 408.303 137.453L408.353 137.377C409.813 135.19 411.526 133.741 413.568 132.969C414.142 132.749 414.817 132.63 415.534 132.613H415.551C416.201 132.605 416.732 132.859 417.053 133.342C417.407 133.893 417.416 134.639 417.078 135.385C416.58 136.47 415.745 137.165 414.918 137.767C413.214 138.996 411.678 139.377 410.092 138.97C410.033 139.114 409.965 139.258 409.898 139.403C409.72 139.784 409.535 140.182 409.417 140.581C409.223 141.259 409.265 141.886 409.552 142.403C409.839 142.92 410.353 143.293 411.037 143.479C412.277 143.81 413.526 143.607 414.707 143.378C417.517 142.818 420.327 141.649 423.811 139.597C424.529 139.174 425.204 138.631 425.862 138.106C426.064 137.945 426.258 137.784 426.461 137.631C426.554 137.555 426.63 137.377 426.689 137.216L426.722 137.139C427.364 135.504 428.123 134.334 429.102 133.478C429.836 132.834 430.553 132.74 431.119 133.224C431.684 133.715 431.87 134.783 431.524 135.597C431.287 136.165 430.865 136.427 430.241 136.385C430.123 136.385 429.954 136.461 429.887 136.555C428.663 138.267 428.106 140.53 428.368 142.776L428.807 142.556C429.237 142.335 429.667 142.115 430.089 141.886C431.262 141.259 432.435 140.623 433.608 139.987C435.709 138.852 437.81 137.724 439.911 136.597C440.29 136.394 440.679 136.224 441.058 136.055C441.311 135.944 441.565 135.826 441.809 135.707C442.332 135.453 442.695 135.766 442.948 136.055C443.286 136.436 443.345 136.86 443.134 137.301M358.183 149.802C358.005 151.167 356.807 152.032 355.482 151.71C354.149 151.379 353.01 150.616 351.939 149.786C348.732 147.294 346.032 144.31 343.745 140.928C343.627 140.75 343.509 140.572 343.391 140.394C341.239 142.962 339.088 145.539 336.894 148.073C335.806 149.336 334.574 150.472 333.131 151.354C332.27 151.879 331.384 152.032 330.448 151.616C329.68 151.269 329.249 150.625 329.494 149.819C329.84 148.65 330.194 147.455 330.76 146.37C332.76 142.505 334.219 138.419 335.974 134.461C336.793 132.622 337.746 130.833 338.7 129.053H338.683C338.776 128.867 338.877 128.689 338.961 128.511C340.1 126.282 341.239 124.053 342.37 121.824C342.843 120.891 343.222 120.654 343.956 120.84C344.75 121.035 345.315 121.798 345.247 122.629C345.138 123.968 344.598 125.18 343.956 126.341C343.526 127.138 343.121 127.943 342.716 128.748H342.725C340.792 132.571 338.97 136.436 337.248 140.352C336.818 141.335 336.472 142.352 336.092 143.352C336.025 143.539 336.008 143.751 335.966 143.946C335.949 144.013 335.924 144.09 335.966 144.107C336.168 143.92 336.514 143.649 336.692 143.446C337.881 142.055 339.071 140.674 340.227 139.267C343.931 134.766 347.635 130.266 351.534 125.926C351.719 125.705 351.913 125.494 352.107 125.282C353.913 123.341 355.736 121.417 357.82 119.772C358.714 119.069 359.727 118.501 360.689 117.882C360.832 117.789 361.009 117.755 361.169 117.713C362.477 117.34 362.958 118.314 362.756 119.306C362.663 119.738 362.41 120.213 362.089 120.527C361.279 121.315 360.427 122.086 359.516 122.739C357.491 124.18 355.66 125.841 353.989 127.655C351.871 130.096 349.804 132.588 347.728 135.063L348.428 134.19L347.677 135.122C347.559 135.266 347.433 135.41 347.315 135.554C347.315 135.554 347.315 135.58 347.306 135.588L345.323 138.063C346.159 139.267 347.062 140.437 347.981 141.564C350.251 144.268 352.774 146.48 356.343 147.845C356.748 147.997 356.967 148.065 357.339 148.294C357.837 148.607 358.25 149.209 358.174 149.819" fill="#FF0097"/>
</g>
<g clip-path="url(#clip5_285_7631)">
<path d="M309.404 220.857V235.283H314.306C317.15 235.283 319.192 234.724 320.423 233.597C321.655 232.478 322.271 230.63 322.271 228.053C322.271 225.477 321.655 223.637 320.44 222.527C319.217 221.417 317.167 220.857 314.306 220.857H309.404ZM322.778 239.996C323.815 240.208 324.71 240.699 325.478 241.462C326.237 242.234 327.174 243.725 328.279 245.946L337.805 264.974H326.381L320.027 251.616C319.841 251.235 319.588 250.718 319.284 250.057C317.428 246.065 315.243 244.064 312.728 244.064H309.412V264.966H299V212.068H314.028C320.795 212.068 325.663 213.271 328.608 215.687C331.561 218.094 333.038 222.019 333.038 227.452C333.038 231.088 332.152 233.987 330.388 236.131C328.625 238.284 326.085 239.564 322.769 239.988" fill="#949499"/>
<path d="M341.543 245.446V212.068H351.947V248.074C351.947 250.718 352.614 252.795 353.955 254.295C355.297 255.795 357.153 256.541 359.524 256.541C361.895 256.541 363.76 255.795 365.101 254.295C366.443 252.795 367.11 250.718 367.11 248.074V212.068H377.513V245.446C377.513 252.625 376.087 257.846 373.244 261.109C370.4 264.373 365.827 266 359.524 266C353.221 266 348.682 264.373 345.821 261.109C342.961 257.846 341.535 252.625 341.535 245.446" fill="#949499"/>
<path d="M395.756 240.945V256.609H402.666C405.982 256.609 408.303 256.041 409.636 254.905C410.961 253.769 411.627 251.803 411.627 248.989C411.627 246.175 410.935 244.073 409.543 242.827C408.151 241.572 405.864 240.945 402.666 240.945H395.756ZM395.756 220.323V232.622H402.666C405.299 232.622 407.172 232.147 408.294 231.206C409.408 230.266 409.974 228.706 409.974 226.528C409.974 224.349 409.4 222.781 408.261 221.798C407.122 220.815 405.257 220.323 402.666 220.323H395.756ZM385.707 212H402.675C408.531 212 412.935 213.119 415.888 215.348C418.842 217.586 420.318 220.917 420.318 225.358C420.318 228.757 419.449 231.418 417.711 233.334C415.973 235.249 413.416 236.36 410.058 236.665C414.083 237.072 417.103 238.428 419.145 240.742C421.179 243.056 422.191 246.294 422.191 250.447C422.191 255.549 420.664 259.245 417.61 261.542C414.555 263.83 409.577 264.974 402.692 264.974H385.723V212H385.707Z" fill="#949499"/>
<path d="M425.069 212.068H436.282L446.517 233.334L456.778 212.068H468L451.732 244.141V264.974H441.328V244.141L425.069 212.068Z" fill="#949499"/>
<path d="M444.948 234.275C443.564 232.681 441.834 232.715 440.678 233.275C440.451 233.385 440.223 233.486 439.961 233.605C439.531 233.8 439.101 233.995 438.679 234.215C437.076 235.071 435.481 235.936 433.878 236.792C433.911 236.724 433.945 236.656 433.97 236.58C434.764 234.69 434.3 232.41 432.848 231.164C431.262 229.799 429.11 229.901 427.381 231.435C426.123 232.537 425.17 233.953 424.385 235.877L424.242 235.987C423.634 236.478 423.052 236.936 422.504 237.267C419.955 238.775 417.821 239.759 415.796 240.352C416.023 240.208 416.251 240.055 416.479 239.894C417.542 239.123 418.74 238.123 419.5 236.47C420.217 234.902 420.141 233.181 419.297 231.876C418.487 230.613 417.188 229.927 415.509 229.935C414.496 229.96 413.509 230.138 412.665 230.461C410.21 231.393 408.168 233.046 406.446 235.504C406.379 235.529 406.311 235.555 406.244 235.58C405.704 235.792 405.088 236.021 404.447 236.36C403.696 236.758 402.945 237.157 402.194 237.563C402.211 237.538 402.228 237.504 402.244 237.479C403.232 235.843 402.987 233.758 401.553 231.986C400.776 231.079 399.013 229.689 395.756 230.511C393.073 231.325 390.938 232.486 389.233 235.512C388.609 236.631 388.356 238.004 388.466 239.343C386.365 240.14 384.154 240.767 381.707 241.369C381.454 240.954 381.167 240.581 380.863 240.233C380.914 240.233 380.964 240.233 381.015 240.242C381.074 240.242 381.226 240.242 381.285 240.242C382.576 240.216 383.715 239.555 384.491 238.369C385.58 236.699 385.42 234.512 384.086 232.791C382.323 230.528 380.239 230.545 378.804 230.944C377.429 231.334 376.189 232.012 374.771 233.13C373.615 234.054 372.24 235.317 371.413 237.157C370.831 237.428 370.248 237.691 369.658 237.936L368.612 238.369C367.219 238.945 365.793 239.538 364.367 240.115L364.469 239.886C364.857 238.979 364.916 238.055 364.722 237.216C365.869 236.47 366.586 235.165 366.536 233.656C366.502 232.486 366.021 231.427 365.186 230.681C364.443 230.011 363.473 229.647 362.494 229.647C362.427 229.647 362.309 229.647 362.241 229.647C359.954 229.766 358.275 231.588 358.334 233.893C358.343 234.258 358.41 234.614 358.512 234.953C358.132 235.224 357.777 235.563 357.457 235.978C357.229 236.267 356.883 236.707 356.638 237.284L356.427 237.775C356.031 238.716 355.617 239.682 355.263 240.708C354.942 241.623 354.799 242.53 354.689 243.293C354.672 243.437 354.655 243.581 354.647 243.844V243.937C354.647 243.937 354.647 243.98 354.647 243.997C353.035 242.996 351.559 241.657 350.015 239.818C349.517 239.216 349.061 238.64 348.639 238.08L349.357 237.19C349.357 237.19 349.424 237.106 349.449 237.063C349.458 237.046 349.475 237.029 349.483 237.012L349.702 236.758C349.702 236.758 349.736 236.724 349.745 236.707L350.918 235.3C352.588 233.3 354.259 231.3 355.921 229.384C357.575 227.587 359.246 226.095 361.034 224.824C362.148 224.036 363.11 223.137 363.912 222.366C364.62 221.688 365.135 220.739 365.338 219.781C365.65 218.289 365.245 216.831 364.241 215.899C363.262 214.984 361.887 214.695 360.385 215.111C360.157 215.17 359.727 215.289 359.262 215.577C359.009 215.738 358.748 215.899 358.495 216.06C357.735 216.526 356.951 217.009 356.183 217.62C353.964 219.374 352.074 221.357 350.175 223.409C349.972 223.621 349.787 223.841 349.576 224.087C348.319 225.485 347.078 226.909 345.855 228.342C345.99 228.079 346.133 227.816 346.268 227.553C346.977 226.257 347.72 224.68 347.88 222.773C348.049 220.671 346.64 218.704 344.589 218.196C343.231 217.857 341.324 217.993 340.024 220.552L336.337 227.765C336.286 227.858 336.244 227.952 336.211 228.053C335.308 229.757 334.38 231.512 333.561 233.334C332.928 234.766 332.329 236.216 331.73 237.657C330.658 240.259 329.646 242.708 328.406 245.098C327.714 246.429 327.309 247.802 326.954 249.014C326.355 251.04 327.342 253.083 329.359 253.99C329.933 254.244 330.667 254.464 331.528 254.464C332.388 254.464 333.418 254.235 334.498 253.574C336.05 252.625 337.476 251.388 338.877 249.769C340.337 248.082 341.771 246.378 343.205 244.666C345.323 247.404 347.703 249.811 350.31 251.837C351.508 252.769 352.985 253.786 354.841 254.244C356.191 254.575 357.6 254.32 358.714 253.549C359.845 252.769 360.604 251.506 360.781 250.091C360.807 249.913 360.807 249.735 360.807 249.557C360.815 249.557 360.823 249.557 360.84 249.557C361.507 249.531 362.233 249.43 363.009 249.252C365.827 248.616 368.434 247.514 370.848 246.378C369.59 248.209 369.835 250.54 371.489 251.947C372.071 252.439 372.999 253.04 374.172 253.125C374.78 253.168 375.32 253.184 375.758 253.176C375.784 253.176 375.902 253.176 375.919 253.176C376.459 253.168 376.956 253.117 377.421 253.049C379.648 252.693 381.353 251.464 382.255 249.591L384.491 248.963C385.74 248.616 387.014 248.26 388.272 247.912C388.229 249.141 388.736 250.328 389.723 251.15C390.373 251.693 391.191 252.091 392.035 252.269C393.309 252.54 394.203 252.676 395.874 252.176C398.085 251.523 399.62 250.006 400.228 247.904C400.262 247.802 400.295 247.709 400.329 247.607C402.076 246.633 403.662 245.751 405.147 244.929C406.033 246.683 407.594 247.972 409.535 248.421C411.416 248.862 413.34 248.845 415.416 248.379C416.471 248.141 417.517 247.853 418.538 247.523C418.293 248.099 418.141 248.726 418.074 249.379C417.964 250.54 418.394 251.786 419.213 252.701C419.947 253.524 420.9 253.981 421.938 253.998H422.2C423.659 253.973 425.035 253.634 426.284 252.998C428.376 251.93 429.87 250.108 430.756 247.59C434.224 245.692 437.734 243.793 441.151 241.937L442.602 241.149C443.387 240.725 444.703 240.013 445.48 238.419C446.163 237.012 445.952 235.461 444.906 234.266" fill="white"/>
<path d="M362.376 232.317C361.524 232.359 360.95 232.986 360.975 233.834C360.984 234.258 361.153 234.639 361.439 234.902C361.709 235.139 362.064 235.266 362.452 235.258C362.469 235.258 362.486 235.258 362.511 235.258C363.363 235.215 363.937 234.588 363.903 233.741C363.886 233.308 363.718 232.927 363.431 232.664C363.169 232.427 362.815 232.3 362.418 232.308C362.401 232.308 362.385 232.308 362.368 232.308M412.142 236.605C413.02 236.326 413.813 235.885 414.462 235.173C414.429 235.114 412.117 236.546 412.142 236.605ZM443.134 237.258C442.737 238.08 442.012 238.47 441.379 238.818L440.451 239.318C436.628 241.394 432.671 243.539 428.79 245.666C428.672 245.726 428.545 245.921 428.494 246.107C427.862 248.311 426.756 249.794 425.119 250.633C424.233 251.091 423.246 251.328 422.191 251.345C422.124 251.345 422.048 251.345 421.98 251.345C421.727 251.345 421.457 251.193 421.221 250.938C420.892 250.565 420.698 250.048 420.74 249.624C420.841 248.607 421.289 247.76 422.082 247.124C422.968 246.404 423.938 245.649 424.984 244.997C425.761 244.514 426.242 244.115 425.904 243.123C425.82 242.878 425.828 242.598 425.828 242.327C425.828 242.233 425.828 242.14 425.828 242.047C425.828 241.81 425.828 241.572 425.828 241.31V241.191C425.769 241.233 425.71 241.276 425.642 241.31C425.372 241.488 425.111 241.657 424.849 241.818C421.753 243.64 418.386 244.98 414.851 245.785C413.18 246.166 411.644 246.183 410.151 245.836C408.32 245.403 407.079 243.768 406.995 241.657L406.97 241.013C406.826 241.081 406.691 241.14 406.548 241.208C406.109 241.411 405.696 241.598 405.291 241.827C403.114 243.03 400.751 244.336 398 245.878C397.975 246.268 397.899 246.675 397.739 247.056C397.401 248.353 396.524 249.218 395.14 249.624C394.001 249.964 393.562 249.87 392.6 249.667C392.178 249.574 391.748 249.37 391.427 249.099C390.972 248.718 390.828 248.184 390.98 247.633C390.98 247.633 390.989 247.607 391.005 247.565C391.048 247.438 391.098 247.319 391.174 247.2C391.545 246.471 392.558 245.031 394.937 244.319C394.44 243.327 393.832 242.691 393.014 242.267C391.866 244.047 390.001 244.675 388.027 245.225C386.415 245.666 384.787 246.124 383.2 246.573L382.981 246.632C382.23 246.844 381.479 247.056 380.728 247.26C380.45 247.336 380.256 247.395 380.18 247.684C379.775 249.201 378.695 250.142 377.041 250.413C376.678 250.472 376.307 250.506 375.885 250.514C375.851 250.514 375.817 250.514 375.784 250.514C375.362 250.514 374.906 250.514 374.391 250.472C373.877 250.43 373.396 250.065 373.21 249.913C372.56 249.362 372.535 248.489 373.151 247.734C373.894 246.836 374.906 246.327 376.062 245.81C376.391 245.666 376.72 245.531 377.066 245.395L377.117 245.378C377.235 245.327 377.362 245.285 377.488 245.234C377.092 244.437 376.687 243.802 376.02 243.31C375.556 242.971 375.109 242.606 374.678 242.25C374.493 242.098 374.307 241.945 374.113 241.793C373.809 241.945 373.505 242.106 373.193 242.267L373.084 242.327C372.265 242.751 371.329 243.234 370.4 243.683C367.937 244.87 365.262 246.048 362.46 246.683C361.844 246.819 361.279 246.904 360.764 246.921C360.469 246.929 360.174 246.912 359.904 246.887C358.883 246.827 358.149 246.395 357.71 245.607C357.626 245.463 357.567 245.31 357.507 245.149L357.482 245.081C357.482 245.081 357.474 245.047 357.465 245.039L357.448 244.997C357.339 244.658 357.288 244.327 357.297 243.98C357.297 243.937 357.297 243.912 357.297 243.886V243.861C357.297 243.785 357.305 243.725 357.313 243.657C357.398 243.03 357.516 242.293 357.761 241.589C358.09 240.632 358.495 239.682 358.883 238.767L359.068 238.335C359.178 238.08 359.355 237.851 359.524 237.631L359.541 237.606C360.14 236.826 360.773 236.639 361.507 237.012C362.174 237.343 362.376 238.055 362.03 238.86L361.979 238.979C361.541 240.013 361.085 241.089 360.689 242.157C360.562 242.505 360.503 242.878 360.444 243.242C360.427 243.369 360.402 243.496 360.385 243.624C360.359 243.751 360.385 243.844 360.435 243.903C360.511 243.98 360.646 243.98 360.748 243.971H360.764C360.764 243.971 360.824 243.963 360.849 243.954C361.001 243.937 361.153 243.92 361.296 243.903H361.321C361.836 243.844 362.359 243.785 362.832 243.598C365.135 242.708 367.456 241.733 369.708 240.801L370.654 240.411C371.523 240.055 372.366 239.648 373.235 239.241C373.337 239.191 373.43 239.123 373.514 239.047C373.539 238.945 373.565 238.869 373.565 238.869C374.088 237.224 375.286 236.105 376.391 235.224C377.513 234.325 378.475 233.8 379.496 233.512C380.526 233.224 381.243 233.486 381.985 234.444C382.61 235.249 382.72 236.224 382.264 236.936C381.977 237.377 381.623 237.606 381.218 237.614C381.192 237.614 381.159 237.614 381.133 237.614C380.568 237.589 380.357 237.148 380.239 236.809C380.23 236.783 380.222 236.758 380.205 236.733C380.104 236.521 379.986 236.394 379.859 236.351C379.733 236.309 379.572 236.351 379.37 236.461C378.273 237.072 377.53 238.029 376.864 238.953C376.864 238.953 376.695 239.199 376.594 239.496C376.476 239.86 376.687 240.064 376.687 240.064L376.881 240.216C378.29 241.335 379.741 242.496 380.07 244.488C384.449 243.496 388.086 242.505 391.621 240.911C391.621 240.903 391.613 240.894 391.604 240.886C390.887 239.784 390.837 238.004 391.495 236.834C392.769 234.563 394.288 233.732 396.473 233.071C397.823 232.732 398.844 232.952 399.511 233.732C400.194 234.58 400.354 235.444 399.941 236.122C399.637 236.631 399.258 236.868 398.793 236.851C398.228 236.834 398.026 236.716 397.865 236.317C397.756 236.046 397.57 235.732 397.435 235.69C397.342 235.614 397.148 235.622 396.887 235.707C396.017 235.995 394.583 237.097 394.119 238.648C394.068 238.852 394.018 239.233 394.288 239.479L394.372 239.555C394.651 239.801 394.963 240.089 395.292 240.309C396.33 241.004 397.047 241.937 397.469 243.123C397.48 243.157 397.48 243.157 397.469 243.123C397.983 242.844 398.49 242.573 399.004 242.293C401.173 241.115 403.417 239.903 405.637 238.733C406.126 238.479 406.641 238.275 407.138 238.089C407.451 237.97 407.763 237.851 408.075 237.716C408.151 237.682 408.227 237.563 408.303 237.453L408.353 237.377C409.813 235.19 411.526 233.741 413.568 232.969C414.142 232.749 414.817 232.63 415.534 232.613H415.551C416.201 232.605 416.732 232.859 417.053 233.342C417.407 233.893 417.416 234.639 417.078 235.385C416.58 236.47 415.745 237.165 414.918 237.767C413.214 238.996 411.678 239.377 410.092 238.97C410.033 239.114 409.965 239.258 409.898 239.403C409.72 239.784 409.535 240.182 409.417 240.581C409.223 241.259 409.265 241.886 409.552 242.403C409.839 242.92 410.353 243.293 411.037 243.479C412.277 243.81 413.526 243.607 414.707 243.378C417.517 242.818 420.327 241.649 423.811 239.597C424.529 239.174 425.204 238.631 425.862 238.106C426.064 237.945 426.258 237.784 426.461 237.631C426.554 237.555 426.63 237.377 426.689 237.216L426.722 237.139C427.364 235.504 428.123 234.334 429.102 233.478C429.836 232.834 430.553 232.74 431.119 233.224C431.684 233.715 431.87 234.783 431.524 235.597C431.287 236.165 430.865 236.427 430.241 236.385C430.123 236.385 429.954 236.461 429.887 236.555C428.663 238.267 428.106 240.53 428.368 242.776L428.807 242.556C429.237 242.335 429.667 242.115 430.089 241.886C431.262 241.259 432.435 240.623 433.608 239.987C435.709 238.852 437.81 237.724 439.911 236.597C440.29 236.394 440.679 236.224 441.058 236.055C441.311 235.944 441.565 235.826 441.809 235.707C442.332 235.453 442.695 235.766 442.948 236.055C443.286 236.436 443.345 236.86 443.134 237.301M358.183 249.802C358.005 251.167 356.807 252.032 355.482 251.71C354.149 251.379 353.01 250.616 351.939 249.786C348.732 247.294 346.032 244.31 343.745 240.928C343.627 240.75 343.509 240.572 343.391 240.394C341.239 242.962 339.088 245.539 336.894 248.073C335.806 249.336 334.574 250.472 333.131 251.354C332.27 251.879 331.384 252.032 330.448 251.616C329.68 251.269 329.249 250.625 329.494 249.819C329.84 248.65 330.194 247.455 330.76 246.37C332.76 242.505 334.219 238.419 335.974 234.461C336.793 232.622 337.746 230.833 338.7 229.053H338.683C338.776 228.867 338.877 228.689 338.961 228.511C340.1 226.282 341.239 224.053 342.37 221.824C342.843 220.891 343.222 220.654 343.956 220.84C344.75 221.035 345.315 221.798 345.247 222.629C345.138 223.968 344.598 225.18 343.956 226.341C343.526 227.138 343.121 227.943 342.716 228.748H342.725C340.792 232.571 338.97 236.436 337.248 240.352C336.818 241.335 336.472 242.352 336.092 243.352C336.025 243.539 336.008 243.751 335.966 243.946C335.949 244.013 335.924 244.09 335.966 244.107C336.168 243.92 336.514 243.649 336.692 243.446C337.881 242.055 339.071 240.674 340.227 239.267C343.931 234.766 347.635 230.266 351.534 225.926C351.719 225.705 351.913 225.494 352.107 225.282C353.913 223.341 355.736 221.417 357.82 219.772C358.714 219.069 359.727 218.501 360.689 217.882C360.832 217.789 361.009 217.755 361.169 217.713C362.477 217.34 362.958 218.314 362.756 219.306C362.663 219.738 362.41 220.213 362.089 220.527C361.279 221.315 360.427 222.086 359.516 222.739C357.491 224.18 355.66 225.841 353.989 227.655C351.871 230.096 349.804 232.588 347.728 235.063L348.428 234.19L347.677 235.122C347.559 235.266 347.433 235.41 347.315 235.554C347.315 235.554 347.315 235.58 347.306 235.588L345.323 238.063C346.159 239.267 347.062 240.437 347.981 241.564C350.251 244.268 352.774 246.48 356.343 247.845C356.748 247.997 356.967 248.065 357.339 248.294C357.837 248.607 358.25 249.209 358.174 249.819" fill="#949499"/>
</g>
<defs>
<clipPath id="clip0_285_7631">
<rect width="168" height="74" fill="white" transform="translate(73 112)"/>
</clipPath>
<clipPath id="clip1_285_7631">
<rect width="168" height="74" fill="white" transform="translate(73 212)"/>
</clipPath>
<clipPath id="clip2_285_7631">
<rect width="170" height="75" fill="white" transform="translate(72 312)"/>
</clipPath>
<clipPath id="clip3_285_7631">
<rect width="170" height="55" fill="white" transform="translate(299 312)"/>
</clipPath>
<clipPath id="clip4_285_7631">
<rect width="169" height="54" fill="white" transform="translate(299 112)"/>
</clipPath>
<clipPath id="clip5_285_7631">
<rect width="169" height="54" fill="white" transform="translate(299 212)"/>
</clipPath>
</defs>
</svg>
