<svg width="540" height="477" viewBox="0 0 540 477" fill="none" xmlns="http://www.w3.org/2000/svg">
<rect width="540" height="477" fill="#FF0097"/>
<g clip-path="url(#clip0_285_7630)">
<path d="M201.75 215.84H211.61L220.59 234.43L229.61 215.84H239.46L225.18 243.88V262.1H216.04V243.88L201.75 215.84Z" fill="white"/>
<path d="M254.33 215.84H263.47V234.12L277.79 215.84H288.14L273.54 234.06L288.66 262.1H278.5L267.53 241.28L263.47 246.42V262.1H254.33V215.84Z" fill="white"/>
<path d="M413.53 262.1H384.72V215.84H413.53V223.89H393.86V233.87H411.68V241.93H393.86V254.04H413.53V262.1Z" fill="white"/>
<path d="M304.47 215.84H295.32V262.1H304.47V215.84Z" fill="white"/>
<path d="M430.55 241.8C425.94 240.04 422.82 238.2 421.19 236.27C419.56 234.34 418.74 231.74 418.74 228.48C418.74 224.29 420.08 220.99 422.77 218.59C425.46 216.19 429.14 215 433.83 215C435.96 215 438.09 215.24 440.21 215.73C442.34 216.22 444.45 216.93 446.53 217.88V226.81C444.57 225.43 442.57 224.37 440.55 223.65C438.52 222.93 436.52 222.57 434.54 222.57C432.33 222.57 430.64 223.01 429.46 223.9C428.28 224.79 427.69 226.06 427.69 227.71C427.69 228.99 428.12 230.05 428.98 230.89C429.84 231.73 431.63 232.65 434.36 233.66L438.29 235.15C442.01 236.51 444.75 238.32 446.5 240.57C448.26 242.82 449.13 245.66 449.13 249.09C449.13 253.76 447.75 257.24 444.99 259.55C442.23 261.86 438.06 263.01 432.49 263.01C430.2 263.01 427.9 262.74 425.59 262.19C423.29 261.64 421.06 260.83 418.91 259.76V250.31C421.35 252.05 423.71 253.34 425.99 254.18C428.27 255.03 430.53 255.45 432.76 255.45C434.99 255.45 436.76 254.94 438 253.91C439.24 252.89 439.86 251.46 439.86 249.62C439.86 248.24 439.45 247.02 438.62 245.98C437.79 244.94 436.59 244.12 435.02 243.52L430.53 241.82L430.55 241.8Z" fill="white"/>
<path d="M323.32 241.8C318.71 240.04 315.59 238.2 313.96 236.27C312.33 234.34 311.51 231.74 311.51 228.48C311.51 224.29 312.85 220.99 315.54 218.59C318.22 216.19 321.91 215 326.6 215C328.73 215 330.86 215.24 332.98 215.73C335.11 216.22 337.21 216.93 339.3 217.88V226.81C337.34 225.43 335.34 224.37 333.32 223.65C331.3 222.93 329.29 222.57 327.31 222.57C325.1 222.57 323.41 223.01 322.23 223.9C321.05 224.79 320.46 226.06 320.46 227.71C320.46 228.99 320.89 230.05 321.75 230.89C322.61 231.73 324.4 232.65 327.13 233.66L331.06 235.15C334.78 236.51 337.52 238.32 339.27 240.57C341.02 242.82 341.9 245.66 341.9 249.09C341.9 253.76 340.52 257.24 337.76 259.55C335 261.86 330.83 263.01 325.26 263.01C322.97 263.01 320.67 262.74 318.37 262.19C316.07 261.64 313.84 260.83 311.69 259.76V250.31C314.13 252.05 316.49 253.34 318.77 254.18C321.05 255.03 323.31 255.45 325.54 255.45C327.77 255.45 329.54 254.94 330.78 253.91C332.02 252.89 332.64 251.46 332.64 249.62C332.64 248.24 332.23 247.02 331.4 245.98C330.58 244.94 329.38 244.12 327.81 243.52L323.32 241.82V241.8Z" fill="white"/>
<path d="M359.02 241.8C354.41 240.04 351.29 238.2 349.66 236.27C348.03 234.34 347.21 231.74 347.21 228.48C347.21 224.29 348.55 220.99 351.24 218.59C353.93 216.19 357.61 215 362.3 215C364.43 215 366.56 215.24 368.68 215.73C370.81 216.22 372.92 216.93 375 217.88V226.81C373.04 225.43 371.04 224.37 369.02 223.65C366.99 222.93 364.99 222.57 363.01 222.57C360.8 222.57 359.11 223.01 357.93 223.9C356.75 224.79 356.16 226.06 356.16 227.71C356.16 228.99 356.59 230.05 357.45 230.89C358.31 231.73 360.1 232.65 362.83 233.66L366.76 235.15C370.48 236.51 373.22 238.32 374.97 240.57C376.73 242.82 377.6 245.66 377.6 249.09C377.6 253.76 376.22 257.24 373.46 259.55C370.7 261.86 366.53 263.01 360.96 263.01C358.67 263.01 356.37 262.74 354.07 262.19C351.76 261.64 349.54 260.83 347.39 259.76V250.31C349.83 252.05 352.19 253.34 354.47 254.18C356.75 255.03 359.01 255.45 361.24 255.45C363.47 255.45 365.24 254.94 366.48 253.91C367.72 252.89 368.34 251.46 368.34 249.62C368.34 248.24 367.93 247.02 367.1 245.98C366.27 244.94 365.08 244.12 363.5 243.52L359.01 241.82L359.02 241.8Z" fill="white"/>
<path d="M176 241.09V254.79H182.07C184.98 254.79 187.02 254.29 188.19 253.3C189.36 252.31 189.94 250.59 189.94 248.13C189.94 245.67 189.33 243.83 188.11 242.74C186.89 241.64 184.88 241.1 182.07 241.1H176V241.09ZM176 223.05V233.8H182.07C184.38 233.8 186.03 233.39 187.01 232.56C187.99 231.74 188.48 230.37 188.48 228.47C188.48 226.57 187.98 225.19 186.98 224.33C185.98 223.47 184.34 223.04 182.07 223.04H176V223.05ZM167.17 215.77H182.07C187.21 215.77 191.08 216.75 193.68 218.7C196.27 220.65 197.57 223.57 197.57 227.46C197.57 230.43 196.81 232.76 195.28 234.43C193.75 236.1 191.51 237.07 188.56 237.34C192.09 237.69 194.75 238.88 196.54 240.9C198.33 242.92 199.22 245.76 199.22 249.39C199.22 253.85 197.88 257.09 195.19 259.09C192.51 261.09 188.14 262.09 182.08 262.09H167.18V215.77H167.17Z" fill="white"/>
<path d="M100.14 223.52V236.13H104.45C106.95 236.13 108.74 235.64 109.83 234.66C110.91 233.68 111.45 232.06 111.45 229.81C111.45 227.56 110.91 225.95 109.84 224.98C108.77 224.01 106.97 223.52 104.45 223.52H100.14ZM111.89 240.25C112.8 240.44 113.59 240.86 114.26 241.54C114.93 242.21 115.75 243.52 116.72 245.46L125.09 262.1H115.05L109.47 250.42C109.31 250.09 109.09 249.63 108.82 249.06C107.19 245.57 105.27 243.82 103.06 243.82H100.15V262.1H91V215.84H104.2C110.15 215.84 114.42 216.89 117.01 219C119.6 221.11 120.9 224.54 120.9 229.29C120.9 232.47 120.13 235 118.57 236.88C117.02 238.76 114.79 239.89 111.88 240.26" fill="white"/>
<path d="M128.37 245.03V215.84H137.51V247.32C137.51 249.63 138.1 251.45 139.28 252.76C140.46 254.07 142.09 254.73 144.17 254.73C146.25 254.73 147.89 254.08 149.07 252.76C150.25 251.45 150.83 249.64 150.83 247.32V215.84H159.97V245.03C159.97 251.31 158.72 255.88 156.22 258.73C153.72 261.58 149.7 263.01 144.17 263.01C138.64 263.01 134.64 261.58 132.13 258.73C129.62 255.88 128.37 251.31 128.37 245.03Z" fill="white"/>
</g>
<defs>
<clipPath id="clip0_285_7630">
<rect width="358.14" height="48" fill="white" transform="translate(91 215)"/>
</clipPath>
</defs>
</svg>
