<svg width="1080" height="268" viewBox="0 0 1080 268" fill="none" xmlns="http://www.w3.org/2000/svg">
<rect width="1080" height="268" fill="white"/>
<g clip-path="url(#clip0_285_7380)">
<path d="M590.669 45.0823H604.338L616.814 70.9102L629.321 45.0823H643L623.17 84.0352V109.338H610.489V84.0352L590.669 45.0823Z" fill="#949499"/>
<path d="M502.794 131.666C502.341 131.378 502.074 131.306 501.58 131.11C497.23 129.443 494.144 126.756 491.377 123.482C490.246 122.113 489.156 120.693 488.137 119.231L490.554 116.225C490.554 116.225 490.554 116.194 490.565 116.184C490.709 116.009 490.863 115.834 491.007 115.659L491.912 114.526C491.912 114.526 491.562 114.959 491.058 115.587C493.589 112.571 496.098 109.544 498.69 106.59C500.726 104.387 502.958 102.369 505.427 100.619C506.548 99.8264 507.576 98.8897 508.564 97.9323C508.955 97.5514 509.263 96.9853 509.376 96.45C509.623 95.2455 509.037 94.072 507.443 94.5147C507.247 94.5764 507.021 94.6176 506.856 94.7205C505.684 95.472 504.45 96.1514 503.359 97.0161C500.819 99.0132 498.597 101.35 496.396 103.707C496.16 103.965 495.923 104.232 495.697 104.49C490.945 109.76 486.43 115.226 481.915 120.693C480.496 122.401 479.045 124.079 477.595 125.768C477.379 126.015 476.958 126.344 476.711 126.571C476.67 126.54 476.711 126.457 476.711 126.375C476.762 126.128 476.783 125.881 476.865 125.644C477.318 124.429 477.75 123.194 478.274 122C480.372 117.244 482.594 112.55 484.949 107.918H484.939C485.433 106.929 485.926 105.951 486.451 104.984C487.222 103.573 487.891 102.101 488.024 100.475C488.107 99.4661 487.428 98.5397 486.451 98.3029C485.546 98.0867 485.093 98.3647 484.517 99.497C483.129 102.204 481.75 104.922 480.362 107.619C480.249 107.835 480.125 108.051 480.012 108.268H480.043C478.881 110.45 477.719 112.612 476.721 114.856C474.582 119.663 472.802 124.625 470.355 129.319C469.676 130.637 469.234 132.088 468.812 133.509C468.524 134.487 469.038 135.269 469.974 135.691C471.116 136.206 472.196 136.01 473.245 135.372C475.003 134.301 476.495 132.922 477.832 131.388C480.506 128.31 483.118 125.181 485.751 122.062C485.895 122.278 486.039 122.494 486.173 122.71C488.96 126.818 492.252 130.441 496.16 133.468C497.476 134.487 498.855 135.413 500.48 135.804C502.084 136.196 503.555 135.146 503.771 133.488C503.863 132.757 503.359 132.026 502.753 131.635" fill="#FF0097"/>
<path d="M552.039 126.251C552.039 126.251 552.018 126.179 551.998 126.128C552.018 126.179 552.039 126.241 552.039 126.251ZM572.403 115.793C571.611 116.657 570.644 117.193 569.575 117.532C569.534 117.46 572.362 115.71 572.403 115.793ZM607.136 116.812C606.817 116.451 606.375 116.081 605.747 116.379C605.449 116.524 605.13 116.657 604.832 116.801C604.369 117.007 603.896 117.224 603.433 117.46C600.872 118.829 598.311 120.199 595.75 121.578C594.321 122.35 592.891 123.112 591.461 123.874C590.947 124.151 590.423 124.419 589.898 124.687L589.363 124.954C589.055 122.226 589.723 119.488 591.215 117.399C591.297 117.285 591.503 117.182 591.647 117.193C592.408 117.244 592.912 116.925 593.21 116.235C593.632 115.247 593.405 113.95 592.716 113.353C592.027 112.766 591.153 112.869 590.258 113.662C589.065 114.712 588.139 116.122 587.358 118.109L587.317 118.201C587.245 118.397 587.162 118.613 587.039 118.706C586.792 118.891 586.555 119.087 586.309 119.282C585.506 119.921 584.684 120.579 583.809 121.094C579.562 123.585 576.147 125.006 572.712 125.685C571.272 125.974 569.739 126.21 568.238 125.809C567.405 125.582 566.777 125.129 566.428 124.501C566.078 123.884 566.026 123.112 566.263 122.288C566.407 121.794 566.623 121.321 566.849 120.857C566.932 120.682 567.014 120.507 567.086 120.332C569.019 120.826 570.891 120.353 572.969 118.871C573.977 118.15 574.995 117.296 575.602 115.978C576.024 115.072 576.003 114.166 575.571 113.497C575.19 112.91 574.542 112.591 573.74 112.612H573.72C572.845 112.632 572.023 112.787 571.323 113.044C568.834 113.991 566.746 115.741 564.967 118.397L564.905 118.49C564.823 118.624 564.731 118.768 564.638 118.809C564.268 118.974 563.877 119.118 563.496 119.262C562.889 119.499 562.262 119.735 561.666 120.044C558.961 121.475 556.225 122.947 553.581 124.368C552.954 124.707 552.337 125.037 551.71 125.376C551.195 123.925 550.321 122.803 549.056 121.959C548.655 121.691 548.264 121.341 547.925 121.043L547.822 120.95C547.493 120.651 547.544 120.188 547.616 119.941C548.192 118.068 549.93 116.719 550.99 116.369C551.308 116.266 551.545 116.256 551.658 116.338C551.823 116.4 552.049 116.781 552.183 117.11C552.378 117.594 552.635 117.738 553.324 117.759C553.89 117.779 554.343 117.491 554.723 116.874C555.217 116.06 555.032 115 554.199 113.971C553.386 113.024 552.142 112.756 550.496 113.168C547.832 113.971 545.981 114.979 544.428 117.738C543.626 119.149 543.687 121.31 544.561 122.659L544.582 122.69C540.273 124.625 535.829 125.829 530.502 127.034C530.101 124.615 528.321 123.204 526.614 121.846L526.377 121.66C526.377 121.66 526.12 121.413 526.264 120.971C526.388 120.6 526.593 120.312 526.593 120.312C527.406 119.19 528.311 118.026 529.648 117.285C529.895 117.151 530.08 117.11 530.245 117.162C530.399 117.213 530.543 117.368 530.666 117.625C530.677 117.656 530.697 117.687 530.707 117.718C530.841 118.119 531.109 118.665 531.798 118.696C531.829 118.696 531.87 118.696 531.901 118.696C532.394 118.696 532.826 118.407 533.176 117.872C533.742 117.018 533.608 115.824 532.836 114.846C531.931 113.693 531.057 113.363 529.802 113.713C528.558 114.063 527.385 114.712 526.017 115.793C524.67 116.863 523.21 118.222 522.572 120.219C522.572 120.219 522.541 120.312 522.51 120.435C522.418 120.528 522.294 120.61 522.171 120.672C521.111 121.166 520.073 121.66 519.024 122.093L517.872 122.566C515.126 123.699 512.297 124.872 509.489 125.963C508.913 126.19 508.265 126.262 507.648 126.334H507.617C507.432 126.354 507.257 126.375 507.072 126.406C507.031 126.406 507 126.416 506.969 126.416C506.969 126.416 506.959 126.416 506.949 126.416C506.825 126.437 506.661 126.437 506.568 126.334C506.496 126.262 506.476 126.149 506.507 125.994C506.538 125.84 506.558 125.685 506.579 125.541C506.651 125.099 506.712 124.646 506.877 124.224C507.36 122.926 507.916 121.629 508.451 120.363L508.512 120.219C508.924 119.241 508.687 118.387 507.875 117.985C506.969 117.532 506.208 117.759 505.478 118.706L505.458 118.737C505.242 119.004 505.026 119.282 504.902 119.591L504.676 120.116C504.203 121.228 503.709 122.381 503.308 123.544C503.01 124.399 502.866 125.294 502.763 126.056C502.753 126.138 502.742 126.21 502.742 126.303V126.334C502.742 126.334 502.742 126.396 502.742 126.437C502.732 126.859 502.794 127.271 502.927 127.682V127.734C502.927 127.734 502.958 127.765 502.958 127.785L502.989 127.857C503.061 128.063 503.143 128.249 503.246 128.424C503.781 129.371 504.676 129.896 505.92 129.978C506.25 130.009 506.599 130.029 506.969 130.019C507.597 129.999 508.286 129.896 509.037 129.731C512.462 128.959 515.712 127.528 518.715 126.087C519.846 125.541 520.988 124.954 521.986 124.44L522.119 124.368C522.5 124.172 522.87 123.976 523.23 123.791C523.467 123.976 523.693 124.162 523.919 124.347C524.444 124.779 524.989 125.222 525.555 125.634C526.367 126.231 526.861 127.003 527.344 127.971C527.19 128.032 527.046 128.094 526.892 128.146L526.83 128.166C526.408 128.331 526.007 128.496 525.606 128.671C524.197 129.299 522.963 129.916 522.058 131.007C521.307 131.924 521.338 132.984 522.13 133.653C522.356 133.838 522.942 134.291 523.57 134.332C524.197 134.374 524.752 134.394 525.267 134.384H525.38C525.894 134.374 526.347 134.332 526.789 134.26C528.805 133.941 530.131 132.799 530.615 130.946C530.707 130.585 530.954 130.524 531.283 130.431C532.199 130.174 533.114 129.916 534.03 129.659L534.297 129.587C536.22 129.051 538.216 128.496 540.17 127.95C542.576 127.291 544.849 126.519 546.248 124.357C547.256 124.862 547.986 125.644 548.593 126.849C545.703 127.713 544.469 129.463 544.006 130.349C543.914 130.493 543.852 130.647 543.8 130.791C543.78 130.843 543.77 130.874 543.77 130.874C543.584 131.532 543.759 132.191 544.315 132.654C544.705 132.984 545.23 133.231 545.744 133.344C546.917 133.591 547.441 133.704 548.84 133.293C550.527 132.788 551.586 131.738 552.008 130.163C552.203 129.7 552.296 129.206 552.327 128.732C555.69 126.859 558.559 125.274 561.213 123.812C561.707 123.544 562.211 123.307 562.746 123.06C562.92 122.978 563.085 122.906 563.26 122.824L563.291 123.606C563.393 126.169 564.905 128.156 567.137 128.671C568.958 129.093 570.83 129.072 572.866 128.609C577.175 127.631 581.279 126.004 585.054 123.791C585.383 123.606 585.692 123.39 586.031 123.174C586.103 123.122 586.175 123.081 586.257 123.029V123.174C586.257 123.493 586.247 123.781 586.257 124.069C586.257 124.182 586.257 124.296 586.257 124.409C586.257 124.738 586.237 125.078 586.35 125.376C586.761 126.581 586.175 127.065 585.229 127.651C583.953 128.444 582.781 129.36 581.691 130.235C580.724 131.018 580.168 132.037 580.055 133.272C580.004 133.787 580.24 134.415 580.642 134.868C580.93 135.187 581.259 135.362 581.567 135.362C581.649 135.362 581.742 135.362 581.824 135.362C583.11 135.341 584.313 135.053 585.393 134.497C587.389 133.478 588.736 131.676 589.507 129C589.569 128.774 589.734 128.537 589.867 128.465C594.598 125.881 599.422 123.276 604.081 120.754L605.213 120.147C605.984 119.725 606.869 119.251 607.352 118.253C607.619 117.718 607.537 117.203 607.126 116.74" fill="#FF0097"/>
<path d="M509.006 115.885C509.006 115.885 509.047 115.885 509.078 115.885C510.117 115.834 510.816 115.082 510.775 114.043C510.765 113.518 510.559 113.054 510.199 112.735C509.88 112.447 509.438 112.293 508.965 112.303C508.944 112.303 508.924 112.303 508.903 112.303C507.864 112.354 507.165 113.116 507.196 114.146C507.206 114.671 507.412 115.124 507.761 115.443C508.091 115.731 508.523 115.885 508.996 115.875" fill="#FF0097"/>
<path d="M449.682 55.7573V73.2676H455.657C459.123 73.2676 461.612 72.5882 463.114 71.2293C464.615 69.8705 465.366 67.6264 465.366 64.497C465.366 61.3676 464.615 59.1337 463.134 57.7852C461.643 56.4367 459.144 55.7573 455.657 55.7573H449.682ZM465.983 79.0014C467.248 79.2587 468.339 79.8558 469.275 80.7823C470.2 81.719 471.342 83.5308 472.689 86.2279L484.301 109.338H470.375L462.63 93.1146C462.404 92.6514 462.106 92.0235 461.725 91.2205C459.463 86.372 456.799 83.9426 453.734 83.9426H449.692V109.328H437V45.0823H455.318C463.577 45.0823 469.501 46.544 473.09 49.4779C476.69 52.4014 478.49 57.1676 478.49 63.7661C478.49 68.1823 477.42 71.7029 475.261 74.3073C473.111 76.922 470.015 78.4764 465.973 79.0014" fill="#949499"/>
<path d="M488.857 85.6205V45.0823H501.539V88.8117C501.539 92.0235 502.351 94.5455 503.987 96.3676C505.622 98.1896 507.885 99.1058 510.775 99.1058C513.665 99.1058 515.938 98.1999 517.573 96.3676C519.209 94.5455 520.021 92.0235 520.021 88.8117V45.0823H532.703V85.6205C532.703 94.3396 530.965 100.681 527.499 104.644C524.032 108.607 518.458 110.584 510.775 110.584C503.092 110.584 497.559 108.607 494.072 104.644C490.585 100.681 488.847 94.3396 488.847 85.6205" fill="#949499"/>
<path d="M554.939 80.1544V99.1779H563.362C567.405 99.1779 570.233 98.4882 571.858 97.1088C573.473 95.7294 574.285 93.3412 574.285 89.9235C574.285 86.5059 573.442 83.9529 571.745 82.4397C570.058 80.9162 567.261 80.1544 563.362 80.1544H554.939ZM554.939 55.1088V70.0456H563.362C566.571 70.0456 568.865 69.4691 570.223 68.3265C571.58 67.1838 572.269 65.2897 572.269 62.6441C572.269 59.9985 571.57 58.0941 570.181 56.9C568.793 55.7162 566.52 55.1088 563.362 55.1088H554.939ZM542.689 45H563.373C570.511 45 575.879 46.3588 579.479 49.0662C583.079 51.7838 584.879 55.8294 584.879 61.2235C584.879 65.3515 583.82 68.5838 581.701 70.9103C579.582 73.2368 576.466 74.5853 572.372 74.9559C577.278 75.4397 580.971 77.0868 583.449 79.9074C585.928 82.7176 587.172 86.65 587.172 91.6941C587.172 97.8912 585.311 102.379 581.577 105.169C577.854 107.949 571.786 109.338 563.393 109.338H542.71V45H542.689Z" fill="#949499"/>
</g>
<rect y="176" width="271" height="5" fill="#FFDB00"/>
<rect x="271" y="176" width="269" height="5" fill="#FF0097"/>
<rect x="540" y="176" width="271" height="5" fill="#8CFF1C"/>
<rect x="811" y="176" width="269" height="5" fill="#00B6FF"/>
<defs>
<clipPath id="clip0_285_7380">
<rect width="206" height="91" fill="white" transform="translate(437 45)"/>
</clipPath>
</defs>
</svg>
