<?xml version="1.0" encoding="UTF-8"?><svg id="a" xmlns="http://www.w3.org/2000/svg" viewBox="0 0 781.55 386.26"><rect width="781.55" height="386.26" style="fill:#e8ebee;"/><g><g><path d="M541.71,76.55c-.31,0-.58-.08-.82-.23s-.42-.38-.55-.66-.2-.62-.2-1.02,.07-.72,.2-1.01,.32-.5,.55-.66c.24-.16,.51-.23,.82-.23,.24,0,.43,.04,.57,.12,.14,.08,.25,.17,.32,.27,.07,.1,.13,.18,.17,.25h.05v-1.82h.57v4.92h-.55v-.57h-.07c-.04,.07-.1,.15-.18,.25s-.19,.19-.33,.27-.33,.12-.57,.12Zm.08-.51c.23,0,.42-.06,.58-.18,.16-.12,.28-.29,.36-.5,.08-.21,.12-.46,.12-.74s-.04-.52-.12-.72c-.08-.21-.2-.37-.36-.49s-.35-.17-.58-.17-.44,.06-.6,.18c-.16,.12-.28,.29-.36,.5-.08,.21-.12,.44-.12,.7s.04,.5,.12,.72,.2,.38,.36,.51c.16,.12,.36,.19,.59,.19Z" style="fill:#2f3032;"/><path d="M545.6,76.56c-.23,0-.45-.04-.64-.13s-.34-.22-.45-.39-.17-.37-.17-.61c0-.21,.04-.38,.13-.52,.08-.13,.19-.24,.33-.31,.14-.08,.29-.13,.46-.17,.17-.04,.34-.07,.51-.09,.22-.03,.41-.05,.55-.07,.14-.01,.24-.04,.31-.08,.06-.04,.1-.1,.1-.19v-.02c0-.24-.07-.42-.19-.55-.13-.13-.32-.2-.58-.2s-.48,.06-.64,.18c-.15,.12-.26,.25-.33,.38l-.54-.19c.1-.22,.22-.4,.39-.53s.34-.21,.53-.26c.19-.05,.38-.08,.57-.08,.12,0,.26,.01,.41,.04,.15,.03,.3,.08,.45,.17,.15,.09,.27,.22,.36,.39,.1,.17,.14,.41,.14,.7v2.43h-.57v-.5h-.03c-.04,.08-.1,.17-.19,.26-.09,.09-.21,.17-.36,.23-.15,.06-.33,.1-.55,.1Zm.09-.51c.22,0,.41-.04,.57-.13,.16-.09,.27-.2,.35-.34,.08-.14,.12-.29,.12-.44v-.52s-.08,.05-.16,.08c-.08,.02-.17,.04-.28,.06-.11,.02-.21,.03-.31,.04-.1,.01-.18,.02-.24,.03-.15,.02-.29,.05-.41,.09-.13,.04-.23,.11-.31,.19-.08,.08-.12,.2-.12,.34,0,.2,.07,.35,.22,.45,.15,.1,.33,.15,.56,.15Z" style="fill:#2f3032;"/><path d="M549.93,72.78v.48h-1.91v-.48h1.91Zm-1.36-.88h.57v3.52c0,.16,.02,.28,.07,.36,.05,.08,.11,.13,.18,.16,.08,.03,.15,.04,.24,.04,.06,0,.11,0,.15-.01l.1-.02,.12,.51s-.09,.03-.16,.04c-.07,.01-.16,.02-.26,.02-.16,0-.32-.03-.47-.1-.15-.07-.28-.17-.38-.31-.1-.14-.15-.32-.15-.53v-3.67Z" style="fill:#2f3032;"/><path d="M551.86,76.56c-.23,0-.45-.04-.64-.13s-.34-.22-.45-.39-.17-.37-.17-.61c0-.21,.04-.38,.13-.52,.08-.13,.19-.24,.33-.31,.14-.08,.29-.13,.46-.17,.17-.04,.34-.07,.51-.09,.22-.03,.41-.05,.55-.07,.14-.01,.24-.04,.31-.08,.06-.04,.1-.1,.1-.19v-.02c0-.24-.07-.42-.19-.55-.13-.13-.32-.2-.58-.2s-.48,.06-.64,.18c-.15,.12-.26,.25-.33,.38l-.54-.19c.1-.22,.22-.4,.39-.53s.34-.21,.53-.26c.19-.05,.38-.08,.57-.08,.12,0,.26,.01,.41,.04,.15,.03,.3,.08,.45,.17,.15,.09,.27,.22,.36,.39,.1,.17,.14,.41,.14,.7v2.43h-.57v-.5h-.03c-.04,.08-.1,.17-.19,.26-.09,.09-.21,.17-.36,.23-.15,.06-.33,.1-.55,.1Zm.09-.51c.22,0,.41-.04,.57-.13,.16-.09,.27-.2,.35-.34,.08-.14,.12-.29,.12-.44v-.52s-.08,.05-.16,.08c-.08,.02-.17,.04-.28,.06-.11,.02-.21,.03-.31,.04-.1,.01-.18,.02-.24,.03-.15,.02-.29,.05-.41,.09-.13,.04-.23,.11-.31,.19-.08,.08-.12,.2-.12,.34,0,.2,.07,.35,.22,.45,.15,.1,.33,.15,.56,.15Z" style="fill:#2f3032;"/><path d="M557.98,76.55c-.35,0-.64-.08-.89-.25-.25-.16-.44-.39-.58-.68s-.2-.61-.2-.98,.07-.71,.21-.99c.14-.29,.33-.51,.58-.68,.25-.16,.54-.24,.87-.24,.26,0,.49,.05,.7,.14,.21,.1,.38,.23,.51,.4s.22,.38,.25,.61h-.57c-.04-.17-.14-.32-.29-.45-.15-.13-.35-.2-.6-.2-.22,0-.42,.06-.58,.17-.17,.12-.29,.28-.39,.48-.09,.21-.14,.45-.14,.73s.05,.53,.14,.75c.09,.21,.22,.38,.38,.49,.17,.12,.36,.18,.59,.18,.15,0,.28-.03,.4-.08,.12-.05,.22-.12,.31-.22,.08-.1,.14-.21,.18-.35h.57c-.03,.22-.11,.41-.24,.59s-.29,.31-.5,.41c-.21,.1-.45,.15-.72,.15Z" style="fill:#2f3032;"/><path d="M561.76,76.55c-.33,0-.63-.08-.88-.24-.25-.16-.45-.38-.59-.67-.14-.29-.21-.62-.21-1s.07-.72,.21-1.01c.14-.29,.34-.51,.59-.67,.25-.16,.54-.24,.88-.24s.62,.08,.88,.24c.25,.16,.45,.38,.59,.67,.14,.29,.21,.62,.21,1.01s-.07,.71-.21,1c-.14,.29-.34,.51-.59,.67-.25,.16-.54,.24-.88,.24Zm0-.51c.25,0,.46-.07,.62-.2,.16-.13,.28-.3,.36-.51,.08-.21,.12-.44,.12-.69s-.04-.48-.12-.69c-.08-.21-.2-.39-.36-.52-.16-.13-.37-.2-.62-.2s-.46,.07-.62,.2c-.16,.13-.29,.3-.36,.52-.08,.21-.12,.44-.12,.69s.04,.48,.12,.69,.2,.38,.36,.51c.16,.13,.37,.2,.62,.2Z" style="fill:#2f3032;"/><path d="M564.86,71.55v4.92h-.57v-4.92h.57Z" style="fill:#2f3032;"/><path d="M566.45,71.55v4.92h-.57v-4.92h.57Z" style="fill:#2f3032;"/><path d="M569.03,76.55c-.36,0-.66-.08-.92-.24-.26-.16-.46-.38-.59-.66s-.21-.62-.21-.99,.07-.71,.21-1c.14-.29,.33-.52,.58-.68,.25-.16,.54-.24,.87-.24,.19,0,.38,.03,.57,.1s.36,.17,.51,.31c.15,.14,.28,.33,.37,.57,.09,.24,.14,.53,.14,.87v.24h-2.85v-.49h2.27c0-.21-.04-.39-.12-.56-.08-.16-.2-.29-.35-.39s-.33-.14-.54-.14c-.23,0-.42,.06-.58,.17-.17,.11-.29,.26-.38,.43s-.13,.37-.13,.57v.33c0,.28,.05,.51,.15,.71,.1,.19,.23,.34,.41,.44s.37,.15,.6,.15c.15,0,.28-.02,.41-.06,.12-.04,.23-.11,.31-.19s.16-.19,.2-.32l.55,.15c-.06,.19-.16,.35-.29,.49-.14,.14-.3,.25-.5,.33-.2,.08-.43,.12-.68,.12Z" style="fill:#2f3032;"/><path d="M572.92,76.55c-.35,0-.64-.08-.89-.25-.25-.16-.44-.39-.58-.68s-.2-.61-.2-.98,.07-.71,.21-.99c.14-.29,.33-.51,.58-.68,.25-.16,.54-.24,.87-.24,.26,0,.49,.05,.7,.14,.21,.1,.38,.23,.51,.4s.22,.38,.25,.61h-.57c-.04-.17-.14-.32-.29-.45-.15-.13-.35-.2-.6-.2-.22,0-.42,.06-.58,.17-.17,.12-.29,.28-.39,.48-.09,.21-.14,.45-.14,.73s.05,.53,.14,.75c.09,.21,.22,.38,.38,.49,.17,.12,.36,.18,.59,.18,.15,0,.28-.03,.4-.08,.12-.05,.22-.12,.31-.22,.08-.1,.14-.21,.18-.35h.57c-.03,.22-.11,.41-.24,.59s-.29,.31-.5,.41c-.21,.1-.45,.15-.72,.15Z" style="fill:#2f3032;"/><path d="M576.8,72.78v.48h-1.91v-.48h1.91Zm-1.36-.88h.57v3.52c0,.16,.02,.28,.07,.36,.05,.08,.11,.13,.18,.16,.08,.03,.15,.04,.24,.04,.06,0,.11,0,.15-.01l.1-.02,.12,.51s-.09,.03-.16,.04c-.07,.01-.16,.02-.26,.02-.16,0-.32-.03-.47-.1-.15-.07-.28-.17-.38-.31-.1-.14-.15-.32-.15-.53v-3.67Z" style="fill:#2f3032;"/><path d="M577.94,72.17c-.11,0-.21-.04-.29-.11-.08-.08-.12-.17-.12-.27s.04-.2,.12-.27c.08-.08,.17-.11,.29-.11s.21,.04,.29,.11c.08,.08,.12,.17,.12,.27s-.04,.2-.12,.27-.17,.11-.29,.11Zm-.29,4.31v-3.69h.57v3.69h-.57Z" style="fill:#2f3032;"/><path d="M580.75,76.55c-.33,0-.63-.08-.88-.24-.25-.16-.45-.38-.59-.67-.14-.29-.21-.62-.21-1s.07-.72,.21-1.01c.14-.29,.34-.51,.59-.67,.25-.16,.54-.24,.88-.24s.62,.08,.88,.24c.25,.16,.45,.38,.59,.67,.14,.29,.21,.62,.21,1.01s-.07,.71-.21,1c-.14,.29-.34,.51-.59,.67-.25,.16-.54,.24-.88,.24Zm0-.51c.25,0,.46-.07,.62-.2,.16-.13,.28-.3,.36-.51,.08-.21,.12-.44,.12-.69s-.04-.48-.12-.69c-.08-.21-.2-.39-.36-.52-.16-.13-.37-.2-.62-.2s-.46,.07-.62,.2c-.16,.13-.29,.3-.36,.52-.08,.21-.12,.44-.12,.69s.04,.48,.12,.69,.2,.38,.36,.51c.16,.13,.37,.2,.62,.2Z" style="fill:#2f3032;"/><path d="M583.85,74.25v2.22h-.57v-3.69h.55v.58h.05c.09-.19,.22-.34,.39-.45,.18-.12,.4-.17,.68-.17,.25,0,.47,.05,.66,.15s.33,.26,.44,.46c.1,.21,.16,.47,.16,.78v2.35h-.57v-2.31c0-.29-.08-.52-.23-.68-.15-.16-.36-.24-.62-.24-.18,0-.34,.04-.48,.12-.14,.08-.25,.19-.34,.34-.08,.15-.12,.33-.12,.55Z" style="fill:#2f3032;"/><path d="M590.53,76.55c-.31,0-.58-.08-.82-.23s-.42-.38-.55-.66-.2-.62-.2-1.02,.07-.72,.2-1.01,.32-.5,.55-.66c.24-.16,.51-.23,.82-.23,.24,0,.43,.04,.57,.12,.14,.08,.25,.17,.32,.27,.07,.1,.13,.18,.17,.25h.05v-1.82h.57v4.92h-.55v-.57h-.07c-.04,.07-.1,.15-.18,.25s-.19,.19-.33,.27-.33,.12-.57,.12Zm.08-.51c.23,0,.42-.06,.58-.18,.16-.12,.28-.29,.36-.5,.08-.21,.12-.46,.12-.74s-.04-.52-.12-.72c-.08-.21-.2-.37-.36-.49s-.35-.17-.58-.17-.44,.06-.6,.18c-.16,.12-.28,.29-.36,.5-.08,.21-.12,.44-.12,.7s.04,.5,.12,.72,.2,.38,.36,.51c.16,.12,.36,.19,.59,.19Z" style="fill:#2f3032;"/><path d="M595.66,74.97v-2.18h.57v3.69h-.57v-.62h-.04c-.09,.19-.22,.35-.4,.48-.18,.13-.41,.2-.69,.2-.23,0-.44-.05-.62-.15-.18-.1-.32-.26-.42-.46s-.15-.47-.15-.78v-2.35h.57v2.31c0,.27,.08,.48,.23,.64s.35,.24,.58,.24c.14,0,.29-.04,.43-.11s.27-.18,.37-.33c.1-.15,.15-.34,.15-.57Z" style="fill:#2f3032;"/><path d="M597.25,76.48v-3.69h.55v.56h.04c.07-.18,.19-.33,.37-.45,.18-.11,.38-.17,.6-.17,.04,0,.09,0,.16,0,.06,0,.11,0,.14,0v.58s-.06-.01-.13-.02-.14-.02-.21-.02c-.18,0-.34,.04-.48,.11-.14,.08-.25,.18-.33,.31-.08,.13-.12,.28-.12,.45v2.34h-.57Z" style="fill:#2f3032;"/><path d="M600.85,76.56c-.23,0-.45-.04-.64-.13s-.34-.22-.45-.39-.17-.37-.17-.61c0-.21,.04-.38,.13-.52,.08-.13,.19-.24,.33-.31,.14-.08,.29-.13,.46-.17,.17-.04,.34-.07,.51-.09,.22-.03,.41-.05,.55-.07,.14-.01,.24-.04,.31-.08,.06-.04,.1-.1,.1-.19v-.02c0-.24-.07-.42-.19-.55-.13-.13-.32-.2-.58-.2s-.48,.06-.64,.18c-.15,.12-.26,.25-.33,.38l-.54-.19c.1-.22,.22-.4,.39-.53s.34-.21,.53-.26c.19-.05,.38-.08,.57-.08,.12,0,.26,.01,.41,.04,.15,.03,.3,.08,.45,.17,.15,.09,.27,.22,.36,.39,.1,.17,.14,.41,.14,.7v2.43h-.57v-.5h-.03c-.04,.08-.1,.17-.19,.26-.09,.09-.21,.17-.36,.23-.15,.06-.33,.1-.55,.1Zm.09-.51c.22,0,.41-.04,.57-.13,.16-.09,.27-.2,.35-.34,.08-.14,.12-.29,.12-.44v-.52s-.08,.05-.16,.08c-.08,.02-.17,.04-.28,.06-.11,.02-.21,.03-.31,.04-.1,.01-.18,.02-.24,.03-.15,.02-.29,.05-.41,.09-.13,.04-.23,.11-.31,.19-.08,.08-.12,.2-.12,.34,0,.2,.07,.35,.22,.45,.15,.1,.33,.15,.56,.15Z" style="fill:#2f3032;"/><path d="M605.18,72.78v.48h-1.91v-.48h1.91Zm-1.36-.88h.57v3.52c0,.16,.02,.28,.07,.36,.05,.08,.11,.13,.18,.16,.08,.03,.15,.04,.24,.04,.06,0,.11,0,.15-.01l.1-.02,.12,.51s-.09,.03-.16,.04c-.07,.01-.16,.02-.26,.02-.16,0-.32-.03-.47-.1-.15-.07-.28-.17-.38-.31-.1-.14-.15-.32-.15-.53v-3.67Z" style="fill:#2f3032;"/><path d="M606.32,72.17c-.11,0-.21-.04-.29-.11-.08-.08-.12-.17-.12-.27s.04-.2,.12-.27c.08-.08,.17-.11,.29-.11s.21,.04,.29,.11c.08,.08,.12,.17,.12,.27s-.04,.2-.12,.27-.17,.11-.29,.11Zm-.29,4.31v-3.69h.57v3.69h-.57Z" style="fill:#2f3032;"/><path d="M609.13,76.55c-.33,0-.63-.08-.88-.24-.25-.16-.45-.38-.59-.67-.14-.29-.21-.62-.21-1s.07-.72,.21-1.01c.14-.29,.34-.51,.59-.67,.25-.16,.54-.24,.88-.24s.62,.08,.88,.24c.25,.16,.45,.38,.59,.67,.14,.29,.21,.62,.21,1.01s-.07,.71-.21,1c-.14,.29-.34,.51-.59,.67-.25,.16-.54,.24-.88,.24Zm0-.51c.25,0,.46-.07,.62-.2,.16-.13,.28-.3,.36-.51,.08-.21,.12-.44,.12-.69s-.04-.48-.12-.69c-.08-.21-.2-.39-.36-.52-.16-.13-.37-.2-.62-.2s-.46,.07-.62,.2c-.16,.13-.29,.3-.36,.52-.08,.21-.12,.44-.12,.69s.04,.48,.12,.69,.2,.38,.36,.51c.16,.13,.37,.2,.62,.2Z" style="fill:#2f3032;"/><path d="M612.23,74.25v2.22h-.57v-3.69h.55v.58h.05c.09-.19,.22-.34,.39-.45,.18-.12,.4-.17,.68-.17,.25,0,.47,.05,.66,.15s.33,.26,.44,.46c.1,.21,.16,.47,.16,.78v2.35h-.57v-2.31c0-.29-.08-.52-.23-.68-.15-.16-.36-.24-.62-.24-.18,0-.34,.04-.48,.12-.14,.08-.25,.19-.34,.34-.08,.15-.12,.33-.12,.55Z" style="fill:#2f3032;"/><path d="M617.93,73.36c-.12,0-.22-.04-.3-.13-.08-.08-.13-.19-.13-.3s.04-.22,.13-.31c.08-.08,.19-.13,.3-.13s.22,.04,.31,.13,.13,.19,.13,.31c0,.08-.02,.15-.06,.22s-.09,.12-.16,.16c-.07,.04-.14,.06-.22,.06Zm0,2.49c-.12,0-.22-.04-.3-.13-.08-.08-.13-.19-.13-.31s.04-.22,.13-.31c.08-.08,.19-.13,.3-.13s.22,.04,.31,.13,.13,.19,.13,.31c0,.08-.02,.15-.06,.22-.04,.07-.09,.12-.16,.16-.07,.04-.14,.06-.22,.06Z" style="fill:#2f3032;"/><path d="M621.26,76.48v-.43l1.62-1.78c.19-.21,.35-.39,.47-.54,.12-.16,.21-.3,.27-.44,.06-.14,.09-.28,.09-.43,0-.17-.04-.32-.12-.45-.08-.13-.2-.22-.34-.29s-.3-.1-.48-.1c-.19,0-.35,.04-.49,.12-.14,.08-.25,.19-.33,.33-.08,.14-.11,.3-.11,.49h-.57c0-.29,.07-.54,.2-.76,.13-.22,.31-.39,.54-.51,.23-.12,.49-.18,.78-.18s.54,.06,.77,.18c.22,.12,.4,.29,.52,.49,.13,.21,.19,.44,.19,.69,0,.18-.03,.36-.1,.53-.06,.17-.18,.36-.34,.58-.16,.21-.38,.47-.66,.77l-1.11,1.18v.04h2.29v.53h-3.11Z" style="fill:#2f3032;"/><path d="M626.96,76.54c-.36,0-.67-.1-.92-.3s-.45-.49-.58-.86c-.13-.38-.2-.83-.2-1.37s.07-.99,.2-1.36c.13-.38,.33-.67,.59-.87s.56-.3,.92-.3,.67,.1,.92,.3c.26,.2,.45,.49,.59,.87,.14,.38,.2,.83,.2,1.36s-.07,.99-.2,1.37c-.13,.38-.33,.67-.58,.86s-.56,.3-.93,.3Zm0-.53c.36,0,.64-.17,.84-.52,.2-.35,.3-.84,.3-1.48,0-.43-.04-.79-.14-1.09s-.22-.53-.39-.69c-.17-.16-.37-.24-.61-.24-.36,0-.63,.17-.83,.53s-.3,.84-.3,1.48c0,.43,.04,.79,.13,1.09s.22,.52,.39,.68c.17,.16,.37,.23,.61,.23Z" style="fill:#2f3032;"/><path d="M629.58,76.48v-.43l1.62-1.78c.19-.21,.35-.39,.47-.54,.12-.16,.21-.3,.27-.44,.06-.14,.09-.28,.09-.43,0-.17-.04-.32-.12-.45-.08-.13-.2-.22-.34-.29s-.3-.1-.48-.1c-.19,0-.35,.04-.49,.12-.14,.08-.25,.19-.33,.33-.08,.14-.11,.3-.11,.49h-.57c0-.29,.07-.54,.2-.76,.13-.22,.31-.39,.54-.51,.23-.12,.49-.18,.78-.18s.54,.06,.77,.18c.22,.12,.4,.29,.52,.49,.13,.21,.19,.44,.19,.69,0,.18-.03,.36-.1,.53-.06,.17-.18,.36-.34,.58-.16,.21-.38,.47-.66,.77l-1.11,1.18v.04h2.29v.53h-3.11Z" style="fill:#2f3032;"/><path d="M635.27,76.54c-.36,0-.67-.1-.92-.3s-.45-.49-.58-.86c-.13-.38-.2-.83-.2-1.37s.07-.99,.2-1.36c.13-.38,.33-.67,.59-.87s.56-.3,.92-.3,.67,.1,.92,.3c.26,.2,.45,.49,.59,.87,.14,.38,.2,.83,.2,1.36s-.07,.99-.2,1.37c-.13,.38-.33,.67-.58,.86s-.56,.3-.93,.3Zm0-.53c.36,0,.64-.17,.84-.52,.2-.35,.3-.84,.3-1.48,0-.43-.04-.79-.14-1.09s-.22-.53-.39-.69c-.17-.16-.37-.24-.61-.24-.36,0-.63,.17-.83,.53s-.3,.84-.3,1.48c0,.43,.04,.79,.13,1.09s.22,.52,.39,.68c.17,.16,.37,.23,.61,.23Z" style="fill:#2f3032;"/><path d="M641.91,73.75v.53h-2.15v-.53h2.15Z" style="fill:#2f3032;"/><path d="M647.57,72.78c-.03-.24-.15-.43-.35-.57s-.46-.2-.75-.2c-.22,0-.41,.04-.57,.11-.16,.07-.29,.17-.38,.29-.09,.12-.14,.26-.14,.42,0,.13,.03,.24,.09,.34s.14,.17,.24,.23c.1,.06,.2,.11,.31,.15,.11,.04,.21,.07,.3,.09l.5,.13c.13,.03,.27,.08,.43,.14,.16,.06,.31,.14,.45,.24,.15,.1,.26,.23,.36,.39,.09,.16,.14,.35,.14,.58,0,.27-.07,.51-.21,.72-.14,.21-.34,.39-.61,.51-.27,.13-.59,.19-.96,.19-.35,0-.66-.06-.92-.17-.26-.11-.46-.27-.61-.48-.15-.2-.23-.44-.25-.71h.62c.02,.19,.08,.34,.19,.46,.11,.12,.25,.21,.42,.27s.35,.09,.55,.09c.23,0,.43-.04,.61-.11,.18-.08,.33-.18,.43-.31s.16-.29,.16-.47c0-.16-.05-.3-.14-.4-.09-.1-.21-.19-.36-.25-.15-.06-.31-.12-.48-.17l-.61-.17c-.38-.11-.69-.27-.91-.47-.22-.21-.34-.47-.34-.8,0-.28,.07-.52,.22-.72,.15-.21,.35-.37,.61-.48,.25-.11,.54-.17,.85-.17s.6,.06,.85,.17c.25,.11,.44,.27,.59,.46,.15,.2,.22,.42,.23,.67h-.58Z" style="fill:#2f3032;"/><path d="M650.66,76.55c-.36,0-.66-.08-.92-.24-.26-.16-.46-.38-.59-.66s-.21-.62-.21-.99,.07-.71,.21-1c.14-.29,.33-.52,.58-.68,.25-.16,.54-.24,.87-.24,.19,0,.38,.03,.57,.1s.36,.17,.51,.31c.15,.14,.28,.33,.37,.57,.09,.24,.14,.53,.14,.87v.24h-2.85v-.49h2.27c0-.21-.04-.39-.12-.56-.08-.16-.2-.29-.35-.39s-.33-.14-.54-.14c-.23,0-.42,.06-.58,.17-.17,.11-.29,.26-.38,.43s-.13,.37-.13,.57v.33c0,.28,.05,.51,.15,.71,.1,.19,.23,.34,.41,.44s.37,.15,.6,.15c.15,0,.28-.02,.41-.06,.12-.04,.23-.11,.31-.19s.16-.19,.2-.32l.55,.15c-.06,.19-.16,.35-.29,.49-.14,.14-.3,.25-.5,.33-.2,.08-.43,.12-.68,.12Z" style="fill:#2f3032;"/><path d="M653.05,77.86v-5.08h.55v.59h.07c.04-.06,.1-.15,.17-.25,.08-.1,.18-.19,.32-.27,.14-.08,.33-.12,.57-.12,.31,0,.58,.08,.82,.23,.24,.16,.42,.38,.56,.66,.13,.29,.2,.62,.2,1.01s-.07,.73-.2,1.02c-.13,.29-.32,.51-.55,.66-.24,.16-.51,.23-.81,.23-.24,0-.43-.04-.57-.12s-.25-.17-.33-.27-.14-.19-.18-.25h-.05v1.95h-.57Zm.56-3.23c0,.28,.04,.52,.12,.74,.08,.21,.2,.38,.36,.5,.16,.12,.35,.18,.58,.18s.44-.06,.59-.19c.16-.13,.28-.3,.36-.51,.08-.21,.12-.45,.12-.72s-.04-.49-.12-.7-.2-.38-.36-.5c-.16-.12-.36-.18-.6-.18s-.42,.06-.58,.17-.28,.28-.36,.49c-.08,.21-.12,.45-.12,.72Z" style="fill:#2f3032;"/><path d="M657.58,76.51c-.12,0-.22-.04-.3-.13-.08-.08-.13-.19-.13-.31s.04-.22,.13-.3c.08-.08,.19-.13,.3-.13s.22,.04,.31,.13,.13,.19,.13,.3c0,.08-.02,.15-.06,.22s-.09,.12-.16,.16c-.07,.04-.14,.06-.22,.06Z" style="fill:#2f3032;"/><path d="M659.02,76.48v-.43l1.62-1.78c.19-.21,.35-.39,.47-.54,.12-.16,.21-.3,.27-.44,.06-.14,.09-.28,.09-.43,0-.17-.04-.32-.12-.45-.08-.13-.2-.22-.34-.29s-.3-.1-.48-.1c-.19,0-.35,.04-.49,.12-.14,.08-.25,.19-.33,.33-.08,.14-.11,.3-.11,.49h-.57c0-.29,.07-.54,.2-.76,.13-.22,.31-.39,.54-.51,.23-.12,.49-.18,.78-.18s.54,.06,.77,.18c.22,.12,.4,.29,.52,.49,.13,.21,.19,.44,.19,.69,0,.18-.03,.36-.1,.53-.06,.17-.18,.36-.34,.58-.16,.21-.38,.47-.66,.77l-1.11,1.18v.04h2.29v.53h-3.11Z" style="fill:#2f3032;"/><path d="M664.71,76.54c-.36,0-.67-.1-.92-.3s-.45-.49-.58-.86c-.13-.38-.2-.83-.2-1.37s.07-.99,.2-1.36c.13-.38,.33-.67,.59-.87s.56-.3,.92-.3,.67,.1,.92,.3c.26,.2,.45,.49,.59,.87,.14,.38,.2,.83,.2,1.36s-.07,.99-.2,1.37c-.13,.38-.33,.67-.58,.86s-.56,.3-.93,.3Zm0-.53c.36,0,.64-.17,.84-.52,.2-.35,.3-.84,.3-1.48,0-.43-.04-.79-.14-1.09s-.22-.53-.39-.69c-.17-.16-.37-.24-.61-.24-.36,0-.63,.17-.83,.53s-.3,.84-.3,1.48c0,.43,.04,.79,.13,1.09s.22,.52,.39,.68c.17,.16,.37,.23,.61,.23Z" style="fill:#2f3032;"/><path d="M667.33,76.48v-.43l1.62-1.78c.19-.21,.35-.39,.47-.54,.12-.16,.21-.3,.27-.44,.06-.14,.09-.28,.09-.43,0-.17-.04-.32-.12-.45-.08-.13-.2-.22-.34-.29s-.3-.1-.48-.1c-.19,0-.35,.04-.49,.12-.14,.08-.25,.19-.33,.33-.08,.14-.11,.3-.11,.49h-.57c0-.29,.07-.54,.2-.76,.13-.22,.31-.39,.54-.51,.23-.12,.49-.18,.78-.18s.54,.06,.77,.18c.22,.12,.4,.29,.52,.49,.13,.21,.19,.44,.19,.69,0,.18-.03,.36-.1,.53-.06,.17-.18,.36-.34,.58-.16,.21-.38,.47-.66,.77l-1.11,1.18v.04h2.29v.53h-3.11Z" style="fill:#2f3032;"/><path d="M673.08,76.54c-.32,0-.6-.05-.85-.16-.25-.11-.44-.26-.59-.46-.15-.19-.22-.42-.24-.68h.61c.01,.16,.07,.29,.16,.41,.1,.12,.22,.2,.38,.27s.33,.09,.52,.09c.21,0,.4-.04,.56-.11,.16-.07,.29-.18,.38-.31,.09-.13,.14-.28,.14-.46s-.04-.34-.13-.48-.22-.25-.39-.33c-.17-.08-.38-.12-.63-.12h-.39v-.53h.39c.2,0,.37-.04,.52-.11s.26-.17,.35-.3,.13-.28,.13-.45-.04-.31-.11-.44c-.07-.12-.18-.22-.31-.29s-.29-.1-.47-.1c-.17,0-.33,.03-.48,.09-.15,.06-.27,.15-.37,.27s-.15,.26-.15,.42h-.58c0-.26,.09-.48,.23-.68,.15-.19,.34-.35,.57-.46,.24-.11,.5-.16,.78-.16,.3,0,.57,.06,.78,.18,.22,.12,.38,.28,.5,.48s.18,.42,.18,.65c0,.28-.07,.51-.22,.71-.14,.2-.34,.33-.59,.41v.04c.31,.05,.55,.18,.73,.4,.17,.21,.26,.47,.26,.79,0,.27-.07,.51-.22,.72-.14,.21-.34,.38-.59,.5s-.53,.18-.85,.18Z" style="fill:#2f3032;"/></g><g><path d="M548.88,236.73c-.1-.31-.23-.59-.4-.84-.17-.25-.37-.46-.6-.64s-.5-.31-.8-.4c-.3-.09-.63-.14-.98-.14-.63,0-1.2,.16-1.7,.48-.5,.32-.88,.79-1.17,1.4-.28,.62-.42,1.37-.42,2.25s.14,1.65,.42,2.27c.28,.62,.67,1.09,1.17,1.41s1.08,.48,1.74,.48c.6,0,1.12-.12,1.56-.35,.44-.23,.78-.56,1.02-.98,.24-.42,.36-.92,.36-1.5l.48,.08h-3.21v-1.67h4.79v1.42c0,1.01-.22,1.89-.65,2.62s-1.02,1.31-1.78,1.71-1.62,.6-2.6,.6c-1.09,0-2.04-.25-2.86-.74-.82-.49-1.46-1.19-1.92-2.09-.46-.91-.69-1.98-.69-3.23,0-.95,.14-1.81,.41-2.56,.27-.75,.65-1.39,1.14-1.91,.49-.52,1.06-.92,1.72-1.2,.66-.27,1.37-.41,2.15-.41,.65,0,1.26,.1,1.83,.29,.57,.19,1.07,.46,1.51,.81,.44,.35,.8,.76,1.09,1.25,.29,.48,.47,1.01,.56,1.59h-2.18Z" style="fill:#89898f;"/><path d="M553.12,244.78v-8.86h2.03v1.48h.09c.16-.51,.44-.91,.83-1.19,.39-.28,.84-.42,1.35-.42,.12,0,.25,0,.39,.01s.26,.02,.36,.04v1.92c-.09-.03-.23-.06-.42-.08-.19-.02-.37-.04-.55-.04-.38,0-.72,.08-1.02,.25-.3,.16-.54,.39-.71,.68-.17,.29-.26,.62-.26,1v5.21h-2.09Z" style="fill:#89898f;"/><path d="M563.41,244.95c-.87,0-1.62-.19-2.25-.57s-1.13-.91-1.47-1.6c-.35-.68-.52-1.48-.52-2.4s.17-1.72,.52-2.41c.35-.69,.84-1.22,1.47-1.6s1.38-.57,2.25-.57,1.62,.19,2.25,.57,1.13,.92,1.47,1.6c.35,.69,.52,1.49,.52,2.41s-.17,1.72-.52,2.4c-.35,.68-.84,1.22-1.47,1.6s-1.38,.57-2.25,.57Zm.01-1.67c.47,0,.86-.13,1.18-.39s.55-.61,.71-1.05,.23-.93,.23-1.47-.08-1.03-.23-1.47-.39-.79-.71-1.05c-.32-.26-.71-.39-1.18-.39s-.88,.13-1.2,.39c-.32,.26-.55,.61-.71,1.05-.16,.44-.23,.93-.23,1.47s.08,1.03,.23,1.47c.16,.44,.39,.79,.71,1.05s.72,.39,1.2,.39Z" style="fill:#89898f;"/><path d="M571.24,244.78l-2.5-8.86h2.13l1.56,6.23h.08l1.59-6.23h2.11l1.59,6.2h.09l1.53-6.2h2.13l-2.51,8.86h-2.17l-1.66-5.99h-.12l-1.66,5.99h-2.18Z" style="fill:#89898f;"/><path d="M587.42,235.91v1.62h-5.09v-1.62h5.09Zm-3.84-2.12h2.09v8.32c0,.28,.04,.5,.13,.64,.09,.15,.2,.25,.34,.3,.14,.05,.3,.08,.47,.08,.13,0,.25,0,.36-.03,.11-.02,.19-.04,.25-.05l.35,1.63c-.11,.04-.27,.08-.48,.13-.21,.05-.46,.07-.75,.08-.52,.02-.99-.06-1.41-.24s-.75-.45-1-.82-.36-.83-.36-1.38v-8.67Z" style="fill:#89898f;"/><path d="M591.24,239.58v5.19h-2.09v-11.82h2.04v4.46h.1c.21-.5,.53-.89,.97-1.19,.44-.29,.99-.44,1.67-.44,.62,0,1.15,.13,1.61,.39s.81,.63,1.06,1.13,.38,1.1,.38,1.82v5.64h-2.09v-5.32c0-.6-.15-1.06-.46-1.39-.31-.33-.73-.5-1.28-.5-.37,0-.7,.08-.99,.24-.29,.16-.52,.39-.68,.69-.16,.3-.25,.66-.25,1.09Z" style="fill:#89898f;"/><path d="M603.2,244.78v-11.82h4.43c.91,0,1.67,.16,2.29,.47s1.08,.76,1.4,1.32,.48,1.23,.48,1.98-.16,1.42-.48,1.97-.79,.98-1.42,1.29-1.39,.45-2.3,.45h-3.16v-1.78h2.87c.53,0,.96-.07,1.3-.22s.59-.37,.75-.65c.16-.29,.25-.64,.25-1.06s-.08-.78-.25-1.08c-.17-.3-.42-.52-.76-.68-.34-.16-.78-.23-1.31-.23h-1.96v10.03h-2.14Zm6.1-5.35l2.92,5.35h-2.39l-2.87-5.35h2.34Z" style="fill:#89898f;"/><path d="M616.21,244.95c-.56,0-1.07-.1-1.51-.3s-.8-.5-1.06-.9c-.26-.4-.39-.88-.39-1.46,0-.5,.09-.91,.28-1.24,.18-.33,.44-.59,.76-.78s.68-.35,1.08-.45c.4-.1,.82-.18,1.25-.22,.52-.05,.94-.1,1.26-.15s.56-.11,.71-.21c.15-.09,.22-.24,.22-.44v-.03c0-.43-.13-.77-.39-1.01s-.63-.36-1.11-.36c-.51,0-.92,.11-1.21,.33-.3,.22-.5,.49-.6,.79l-1.95-.28c.15-.54,.41-.99,.76-1.35,.35-.36,.79-.64,1.3-.82s1.08-.27,1.7-.27c.43,0,.85,.05,1.28,.15,.42,.1,.81,.26,1.16,.49,.35,.23,.63,.54,.85,.93,.21,.39,.32,.88,.32,1.47v5.93h-2.01v-1.22h-.07c-.13,.25-.3,.48-.53,.69-.23,.21-.52,.38-.86,.51-.34,.13-.75,.19-1.21,.19Zm.54-1.53c.42,0,.78-.08,1.09-.25,.31-.17,.54-.39,.71-.67,.17-.28,.25-.58,.25-.91v-1.04c-.07,.05-.18,.1-.33,.15-.16,.05-.33,.09-.52,.12s-.38,.07-.57,.09c-.19,.03-.35,.05-.49,.07-.31,.04-.59,.11-.84,.21-.25,.1-.44,.23-.58,.4s-.21,.39-.21,.66c0,.38,.14,.67,.42,.87,.28,.2,.64,.29,1.07,.29Z" style="fill:#89898f;"/><path d="M627.41,235.91v1.62h-5.09v-1.62h5.09Zm-3.84-2.12h2.09v8.32c0,.28,.04,.5,.13,.64,.09,.15,.2,.25,.34,.3,.14,.05,.3,.08,.47,.08,.13,0,.25,0,.36-.03,.11-.02,.19-.04,.25-.05l.35,1.63c-.11,.04-.27,.08-.48,.13-.21,.05-.46,.07-.75,.08-.52,.02-.99-.06-1.41-.24s-.75-.45-1-.82-.36-.83-.36-1.38v-8.67Z" style="fill:#89898f;"/><path d="M633.06,244.95c-.89,0-1.65-.19-2.3-.56s-1.14-.9-1.49-1.58c-.35-.68-.52-1.49-.52-2.41s.17-1.71,.52-2.4c.35-.69,.83-1.23,1.46-1.62s1.36-.58,2.21-.58c.55,0,1.06,.09,1.55,.26,.49,.17,.92,.45,1.29,.81s.67,.83,.89,1.39c.21,.56,.32,1.23,.32,2.01v.64h-7.26v-1.41h5.26c0-.4-.09-.76-.26-1.07-.17-.31-.41-.56-.71-.74s-.65-.27-1.05-.27c-.43,0-.8,.1-1.12,.31-.32,.21-.57,.48-.75,.81-.18,.33-.27,.7-.27,1.09v1.23c0,.52,.09,.96,.28,1.32s.45,.65,.79,.84c.34,.19,.73,.29,1.19,.29,.3,0,.58-.04,.83-.13,.25-.09,.46-.21,.64-.38,.18-.17,.32-.38,.41-.63l1.95,.22c-.12,.52-.36,.96-.7,1.35-.34,.38-.78,.68-1.32,.89-.53,.21-1.15,.31-1.83,.31Z" style="fill:#89898f;"/></g><rect x="98.65" y="70.63" width="390.22" height="245" style="fill:#2f3032;"/><g><path d="M189.85,268.5v-.52l1.95-2.13c.23-.25,.42-.47,.56-.65,.15-.19,.26-.36,.33-.52,.07-.17,.11-.34,.11-.52,0-.21-.05-.39-.15-.54-.1-.15-.23-.27-.4-.35-.17-.08-.36-.12-.58-.12-.23,0-.42,.05-.59,.14-.17,.09-.3,.22-.39,.39-.09,.17-.14,.36-.14,.59h-.68c0-.35,.08-.65,.24-.91,.16-.26,.38-.46,.65-.61,.28-.15,.59-.22,.93-.22s.65,.07,.92,.22c.27,.15,.48,.34,.63,.59,.15,.25,.23,.52,.23,.83,0,.22-.04,.43-.12,.64-.08,.21-.21,.44-.4,.69-.19,.25-.46,.56-.79,.92l-1.33,1.42v.05h2.74v.63h-3.72Z" style="fill:#89898f;"/><path d="M196.68,268.58c-.43,0-.8-.12-1.11-.36-.31-.24-.54-.58-.7-1.03-.16-.45-.24-1-.24-1.64s.08-1.18,.24-1.63c.16-.45,.4-.8,.7-1.04,.31-.24,.67-.36,1.1-.36s.8,.12,1.1,.36c.31,.24,.54,.58,.7,1.04,.16,.45,.24,1,.24,1.63s-.08,1.19-.24,1.64-.39,.8-.7,1.03c-.31,.24-.68,.36-1.11,.36Zm0-.63c.43,0,.76-.21,1-.62s.36-1.01,.36-1.77c0-.51-.05-.95-.16-1.31-.11-.36-.26-.63-.47-.82-.2-.19-.45-.28-.73-.28-.43,0-.76,.21-1,.63s-.36,1.01-.36,1.78c0,.51,.05,.95,.16,1.3,.11,.36,.26,.63,.47,.82,.2,.19,.45,.28,.73,.28Z" style="fill:#89898f;"/><path d="M199.82,268.5v-.52l1.95-2.13c.23-.25,.42-.47,.56-.65,.15-.19,.26-.36,.33-.52,.07-.17,.11-.34,.11-.52,0-.21-.05-.39-.15-.54-.1-.15-.23-.27-.4-.35-.17-.08-.36-.12-.58-.12-.23,0-.42,.05-.59,.14-.17,.09-.3,.22-.39,.39-.09,.17-.14,.36-.14,.59h-.68c0-.35,.08-.65,.24-.91,.16-.26,.38-.46,.65-.61,.28-.15,.59-.22,.93-.22s.65,.07,.92,.22c.27,.15,.48,.34,.63,.59,.15,.25,.23,.52,.23,.83,0,.22-.04,.43-.12,.64-.08,.21-.21,.44-.4,.69-.19,.25-.46,.56-.79,.92l-1.33,1.42v.05h2.74v.63h-3.72Z" style="fill:#89898f;"/><path d="M206.64,268.58c-.43,0-.8-.12-1.11-.36-.31-.24-.54-.58-.7-1.03-.16-.45-.24-1-.24-1.64s.08-1.18,.24-1.63c.16-.45,.4-.8,.7-1.04,.31-.24,.67-.36,1.1-.36s.8,.12,1.1,.36c.31,.24,.54,.58,.7,1.04,.16,.45,.24,1,.24,1.63s-.08,1.19-.24,1.64-.39,.8-.7,1.03c-.31,.24-.68,.36-1.11,.36Zm0-.63c.43,0,.76-.21,1-.62s.36-1.01,.36-1.77c0-.51-.05-.95-.16-1.31-.11-.36-.26-.63-.47-.82-.2-.19-.45-.28-.73-.28-.43,0-.76,.21-1,.63s-.36,1.01-.36,1.78c0,.51,.05,.95,.16,1.3,.11,.36,.26,.63,.47,.82,.2,.19,.45,.28,.73,.28Z" style="fill:#89898f;"/></g><g><path d="M127.4,93.96h-.71c-.04-.21-.12-.39-.22-.54-.1-.16-.23-.29-.38-.39s-.31-.19-.49-.24-.37-.08-.56-.08c-.36,0-.68,.09-.97,.27s-.52,.45-.69,.8c-.17,.35-.26,.78-.26,1.29s.08,.94,.26,1.29c.17,.35,.4,.62,.69,.8s.61,.27,.97,.27c.2,0,.38-.03,.56-.08s.35-.13,.49-.24,.28-.24,.38-.39c.1-.16,.18-.34,.22-.54h.71c-.05,.3-.15,.57-.29,.81-.14,.24-.32,.44-.53,.61-.21,.17-.45,.29-.71,.38-.26,.09-.54,.13-.84,.13-.5,0-.95-.12-1.34-.37-.39-.25-.7-.6-.92-1.05-.23-.45-.34-.99-.34-1.61s.11-1.16,.34-1.61c.22-.45,.53-.8,.92-1.05,.39-.25,.84-.37,1.34-.37,.3,0,.58,.04,.84,.13,.26,.09,.5,.21,.71,.38,.21,.17,.39,.37,.53,.61,.14,.24,.24,.51,.29,.81Z" style="fill:#cfcfce;"/><path d="M130.25,98.11c-.4,0-.75-.09-1.05-.29-.3-.19-.54-.46-.7-.8s-.25-.74-.25-1.2,.08-.86,.25-1.21,.4-.61,.7-.8c.3-.19,.65-.29,1.05-.29s.75,.1,1.05,.29c.3,.19,.54,.46,.7,.8s.25,.75,.25,1.21-.08,.86-.25,1.2-.4,.61-.7,.8c-.3,.19-.65,.29-1.05,.29Zm0-.61c.3,0,.55-.08,.75-.23,.2-.16,.34-.36,.44-.61,.09-.25,.14-.53,.14-.82s-.05-.57-.14-.83c-.09-.25-.24-.46-.44-.62-.2-.16-.45-.24-.75-.24s-.55,.08-.75,.24c-.2,.16-.34,.36-.44,.62-.09,.26-.14,.53-.14,.83s.05,.57,.14,.82c.09,.25,.24,.46,.44,.61,.2,.16,.45,.23,.75,.23Z" style="fill:#cfcfce;"/><path d="M136.42,94.58l-.61,.17c-.04-.1-.09-.2-.17-.3-.07-.1-.17-.18-.3-.24-.13-.06-.29-.1-.49-.1-.27,0-.5,.06-.68,.19-.18,.12-.27,.28-.27,.47,0,.17,.06,.3,.18,.4,.12,.1,.31,.18,.58,.25l.66,.16c.4,.1,.69,.24,.88,.44,.19,.2,.29,.45,.29,.76,0,.25-.07,.48-.22,.68-.15,.2-.35,.36-.61,.47s-.56,.17-.9,.17c-.45,0-.82-.1-1.12-.29-.3-.2-.48-.48-.56-.86l.65-.16c.06,.24,.18,.42,.35,.54s.4,.18,.68,.18c.32,0,.57-.07,.76-.2,.19-.14,.28-.3,.28-.49,0-.15-.05-.28-.16-.39-.11-.1-.27-.18-.5-.24l-.74-.17c-.41-.1-.7-.25-.89-.45-.19-.2-.28-.46-.28-.76,0-.25,.07-.47,.21-.66,.14-.19,.33-.34,.58-.45,.25-.11,.52-.17,.83-.17,.44,0,.78,.1,1.03,.29,.25,.19,.43,.45,.53,.76Z" style="fill:#cfcfce;"/><path d="M139.44,93.59v.58h-2.29v-.58h2.29Zm-1.62-1.06h.68v4.22c0,.19,.03,.34,.08,.43s.13,.16,.22,.19c.09,.03,.18,.05,.28,.05,.08,0,.14,0,.18-.01s.09-.02,.12-.02l.14,.61s-.11,.04-.19,.05-.19,.03-.31,.03c-.19,0-.38-.04-.56-.12-.18-.08-.33-.21-.46-.38s-.18-.38-.18-.64v-4.4Z" style="fill:#cfcfce;"/><path d="M140.7,95.53c0-.73,.09-1.39,.28-2,.19-.61,.46-1.17,.81-1.68h.6c-.14,.19-.27,.42-.39,.7s-.23,.58-.32,.91c-.09,.33-.16,.67-.21,1.03s-.08,.7-.08,1.05c0,.46,.04,.92,.13,1.39s.21,.91,.36,1.31,.32,.73,.5,.99h-.6c-.35-.51-.62-1.07-.81-1.68-.19-.61-.28-1.28-.28-2Z" style="fill:#cfcfce;"/><path d="M146.71,93.59c-.03-.29-.17-.52-.42-.68-.25-.16-.55-.24-.9-.24-.26,0-.49,.04-.68,.13-.19,.08-.35,.2-.46,.35-.11,.15-.16,.32-.16,.5,0,.16,.04,.29,.11,.41,.08,.11,.17,.21,.29,.28,.12,.07,.24,.13,.37,.18,.13,.05,.25,.08,.36,.11l.6,.16c.15,.04,.32,.1,.51,.17,.19,.07,.37,.17,.54,.29s.32,.28,.43,.47c.11,.19,.17,.42,.17,.7,0,.32-.08,.61-.25,.86-.17,.26-.41,.46-.73,.61s-.7,.23-1.16,.23c-.42,0-.79-.07-1.1-.2-.31-.14-.55-.33-.73-.57-.18-.24-.28-.53-.3-.85h.74c.02,.22,.09,.41,.23,.55,.13,.15,.3,.25,.5,.32,.2,.07,.42,.1,.66,.1,.27,0,.52-.04,.73-.13,.22-.09,.39-.21,.52-.37,.13-.16,.19-.35,.19-.56,0-.2-.05-.36-.16-.48s-.25-.22-.43-.3c-.18-.08-.37-.14-.58-.2l-.73-.21c-.46-.13-.83-.32-1.09-.57-.27-.25-.4-.57-.4-.96,0-.33,.09-.62,.27-.87,.18-.25,.42-.44,.73-.58,.3-.14,.65-.21,1.02-.21s.72,.07,1.01,.2c.3,.14,.53,.32,.7,.55s.27,.5,.28,.8h-.69Zm-1.59,5.16v-7.38h.47v7.38h-.47Z" style="fill:#cfcfce;"/><path d="M150.01,95.53c0,.73-.09,1.39-.28,2-.19,.61-.46,1.17-.81,1.68h-.6c.14-.19,.27-.42,.39-.7,.12-.28,.23-.58,.32-.91,.09-.33,.16-.67,.21-1.03,.05-.35,.08-.7,.08-1.04,0-.46-.04-.92-.13-1.39s-.21-.91-.36-1.31c-.15-.4-.32-.73-.5-.99h.6c.35,.51,.62,1.07,.81,1.68,.19,.61,.28,1.28,.28,2Z" style="fill:#cfcfce;"/></g><g><path d="M443.82,262.6h.82l1.64,2.75h.07l1.64-2.75h.82l-2.13,3.47v2.43h-.71v-2.43l-2.13-3.47Z" style="fill:#cfcfce;"/><path d="M451.47,268.59c-.43,0-.79-.09-1.1-.28-.31-.19-.55-.45-.71-.79-.17-.34-.25-.74-.25-1.19s.08-.85,.25-1.2,.4-.62,.7-.81,.65-.29,1.05-.29c.23,0,.46,.04,.68,.12,.22,.08,.43,.2,.61,.37,.18,.17,.33,.4,.44,.68,.11,.28,.17,.63,.17,1.04v.29h-3.41v-.59h2.72c0-.25-.05-.47-.15-.67-.1-.2-.24-.35-.42-.46s-.4-.17-.64-.17c-.27,0-.5,.07-.7,.2s-.35,.31-.45,.52c-.11,.21-.16,.44-.16,.69v.39c0,.33,.06,.62,.17,.85s.28,.41,.49,.53c.21,.12,.45,.18,.72,.18,.18,0,.34-.03,.49-.08,.15-.05,.27-.13,.38-.23s.19-.23,.25-.38l.66,.18c-.07,.22-.19,.42-.35,.59s-.37,.3-.61,.39c-.24,.09-.51,.14-.81,.14Z" style="fill:#cfcfce;"/><path d="M455.64,268.6c-.28,0-.54-.05-.76-.16-.23-.11-.41-.26-.54-.46-.13-.2-.2-.45-.2-.74,0-.25,.05-.46,.15-.62s.23-.28,.4-.37c.17-.09,.35-.16,.55-.2,.2-.04,.41-.08,.61-.11,.27-.03,.49-.06,.66-.08s.29-.05,.37-.09,.12-.12,.12-.23v-.02c0-.29-.08-.51-.23-.66s-.39-.24-.7-.24-.58,.07-.76,.21c-.18,.14-.31,.29-.39,.46l-.65-.23c.12-.27,.27-.48,.46-.63,.19-.15,.4-.26,.63-.32s.46-.09,.68-.09c.14,0,.31,.02,.49,.05s.37,.1,.54,.21,.32,.26,.43,.47,.17,.49,.17,.84v2.92h-.68v-.6h-.03c-.05,.1-.12,.2-.23,.31s-.25,.2-.43,.28c-.18,.08-.4,.12-.65,.12Zm.1-.61c.27,0,.5-.05,.68-.16,.18-.11,.33-.24,.42-.41,.1-.17,.14-.34,.14-.53v-.62s-.09,.07-.19,.09c-.1,.03-.21,.05-.33,.07s-.25,.04-.37,.05-.21,.03-.29,.04c-.18,.02-.34,.06-.49,.11-.15,.05-.28,.13-.37,.23-.09,.1-.14,.24-.14,.41,0,.24,.09,.41,.26,.53s.4,.18,.67,.18Z" style="fill:#cfcfce;"/><path d="M458.9,268.5v-4.43h.66v.67h.05c.08-.22,.23-.4,.44-.53,.21-.14,.45-.2,.71-.2,.05,0,.11,0,.19,0s.13,0,.17,0v.69s-.08-.01-.16-.03c-.08-.01-.17-.02-.26-.02-.21,0-.41,.04-.57,.13-.17,.09-.3,.21-.4,.37-.1,.16-.14,.33-.14,.53v2.8h-.68Z" style="fill:#cfcfce;"/></g><g><path d="M113.94,130.79v-.43l1.62-1.78c.19-.21,.35-.39,.47-.54,.12-.16,.22-.3,.28-.44,.06-.14,.09-.28,.09-.43,0-.17-.04-.32-.12-.45-.08-.13-.2-.22-.34-.29s-.3-.1-.48-.1c-.19,0-.35,.04-.49,.12-.14,.08-.25,.19-.32,.33s-.11,.3-.11,.49h-.57c0-.29,.07-.54,.2-.76,.13-.22,.31-.39,.54-.51,.23-.12,.49-.18,.78-.18s.54,.06,.77,.18c.22,.12,.4,.29,.52,.49,.13,.21,.19,.44,.19,.69,0,.18-.03,.36-.1,.53-.06,.17-.18,.36-.34,.58s-.38,.47-.66,.77l-1.11,1.18v.04h2.29v.53h-3.11Z" style="fill:#fff;"/><path d="M119.64,130.85c-.36,0-.67-.1-.93-.3s-.45-.49-.58-.86c-.13-.38-.2-.83-.2-1.37s.07-.99,.2-1.36c.14-.38,.33-.67,.59-.87,.26-.2,.56-.3,.92-.3s.67,.1,.92,.3c.26,.2,.45,.49,.59,.87,.14,.38,.2,.83,.2,1.36s-.07,.99-.2,1.37c-.13,.38-.33,.67-.58,.86s-.56,.3-.93,.3Zm0-.53c.36,0,.64-.17,.84-.52,.2-.35,.3-.84,.3-1.48,0-.43-.05-.79-.14-1.09-.09-.3-.22-.53-.39-.69-.17-.16-.37-.24-.61-.24-.36,0-.63,.17-.83,.53s-.3,.84-.3,1.48c0,.43,.04,.79,.13,1.09,.09,.3,.22,.52,.39,.68,.17,.16,.37,.23,.61,.23Z" style="fill:#fff;"/><path d="M123.11,130.11l-.04,.26c-.03,.18-.07,.38-.12,.59-.06,.21-.11,.41-.17,.59-.06,.18-.11,.33-.15,.44h-.43c.02-.1,.05-.24,.08-.41s.07-.36,.1-.56c.03-.21,.06-.42,.09-.64l.03-.27h.62Z" style="fill:#fff;"/><path d="M125.75,130.85c-.36,0-.67-.1-.93-.3s-.45-.49-.58-.86c-.13-.38-.2-.83-.2-1.37s.07-.99,.2-1.36c.14-.38,.33-.67,.59-.87,.26-.2,.56-.3,.92-.3s.67,.1,.92,.3c.26,.2,.45,.49,.59,.87,.14,.38,.2,.83,.2,1.36s-.07,.99-.2,1.37c-.13,.38-.33,.67-.58,.86s-.56,.3-.93,.3Zm0-.53c.36,0,.64-.17,.84-.52,.2-.35,.3-.84,.3-1.48,0-.43-.05-.79-.14-1.09-.09-.3-.22-.53-.39-.69-.17-.16-.37-.24-.61-.24-.36,0-.63,.17-.83,.53s-.3,.84-.3,1.48c0,.43,.04,.79,.13,1.09,.09,.3,.22,.52,.39,.68,.17,.16,.37,.23,.61,.23Z" style="fill:#fff;"/><path d="M129.98,130.85c-.36,0-.67-.1-.93-.3s-.45-.49-.58-.86c-.13-.38-.2-.83-.2-1.37s.07-.99,.2-1.36c.14-.38,.33-.67,.59-.87,.26-.2,.56-.3,.92-.3s.67,.1,.92,.3c.26,.2,.45,.49,.59,.87,.14,.38,.2,.83,.2,1.36s-.07,.99-.2,1.37c-.13,.38-.33,.67-.58,.86s-.56,.3-.93,.3Zm0-.53c.36,0,.64-.17,.84-.52,.2-.35,.3-.84,.3-1.48,0-.43-.05-.79-.14-1.09-.09-.3-.22-.53-.39-.69-.17-.16-.37-.24-.61-.24-.36,0-.63,.17-.83,.53s-.3,.84-.3,1.48c0,.43,.04,.79,.13,1.09,.09,.3,.22,.52,.39,.68,.17,.16,.37,.23,.61,.23Z" style="fill:#fff;"/><path d="M134.2,130.85c-.36,0-.67-.1-.93-.3s-.45-.49-.58-.86c-.13-.38-.2-.83-.2-1.37s.07-.99,.2-1.36c.14-.38,.33-.67,.59-.87,.26-.2,.56-.3,.92-.3s.67,.1,.92,.3c.26,.2,.45,.49,.59,.87,.14,.38,.2,.83,.2,1.36s-.07,.99-.2,1.37c-.13,.38-.33,.67-.58,.86s-.56,.3-.93,.3Zm0-.53c.36,0,.64-.17,.84-.52,.2-.35,.3-.84,.3-1.48,0-.43-.05-.79-.14-1.09-.09-.3-.22-.53-.39-.69-.17-.16-.37-.24-.61-.24-.36,0-.63,.17-.83,.53s-.3,.84-.3,1.48c0,.43,.04,.79,.13,1.09,.09,.3,.22,.52,.39,.68,.17,.16,.37,.23,.61,.23Z" style="fill:#fff;"/><path d="M137.67,130.11l-.04,.26c-.03,.18-.07,.38-.12,.59-.06,.21-.11,.41-.17,.59-.06,.18-.11,.33-.15,.44h-.43c.02-.1,.05-.24,.08-.41s.07-.36,.1-.56c.03-.21,.06-.42,.09-.64l.03-.27h.62Z" style="fill:#fff;"/><path d="M140.31,130.85c-.36,0-.67-.1-.93-.3s-.45-.49-.58-.86c-.13-.38-.2-.83-.2-1.37s.07-.99,.2-1.36c.14-.38,.33-.67,.59-.87,.26-.2,.56-.3,.92-.3s.67,.1,.92,.3c.26,.2,.45,.49,.59,.87,.14,.38,.2,.83,.2,1.36s-.07,.99-.2,1.37c-.13,.38-.33,.67-.58,.86s-.56,.3-.93,.3Zm0-.53c.36,0,.64-.17,.84-.52,.2-.35,.3-.84,.3-1.48,0-.43-.05-.79-.14-1.09-.09-.3-.22-.53-.39-.69-.17-.16-.37-.24-.61-.24-.36,0-.63,.17-.83,.53s-.3,.84-.3,1.48c0,.43,.04,.79,.13,1.09,.09,.3,.22,.52,.39,.68,.17,.16,.37,.23,.61,.23Z" style="fill:#fff;"/><path d="M144.54,130.85c-.36,0-.67-.1-.93-.3s-.45-.49-.58-.86c-.13-.38-.2-.83-.2-1.37s.07-.99,.2-1.36c.14-.38,.33-.67,.59-.87,.26-.2,.56-.3,.92-.3s.67,.1,.92,.3c.26,.2,.45,.49,.59,.87,.14,.38,.2,.83,.2,1.36s-.07,.99-.2,1.37c-.13,.38-.33,.67-.58,.86s-.56,.3-.93,.3Zm0-.53c.36,0,.64-.17,.84-.52,.2-.35,.3-.84,.3-1.48,0-.43-.05-.79-.14-1.09-.09-.3-.22-.53-.39-.69-.17-.16-.37-.24-.61-.24-.36,0-.63,.17-.83,.53s-.3,.84-.3,1.48c0,.43,.04,.79,.13,1.09,.09,.3,.22,.52,.39,.68,.17,.16,.37,.23,.61,.23Z" style="fill:#fff;"/><path d="M148.76,130.85c-.36,0-.67-.1-.93-.3s-.45-.49-.58-.86c-.13-.38-.2-.83-.2-1.37s.07-.99,.2-1.36c.14-.38,.33-.67,.59-.87,.26-.2,.56-.3,.92-.3s.67,.1,.92,.3c.26,.2,.45,.49,.59,.87,.14,.38,.2,.83,.2,1.36s-.07,.99-.2,1.37c-.13,.38-.33,.67-.58,.86s-.56,.3-.93,.3Zm0-.53c.36,0,.64-.17,.84-.52,.2-.35,.3-.84,.3-1.48,0-.43-.05-.79-.14-1.09-.09-.3-.22-.53-.39-.69-.17-.16-.37-.24-.61-.24-.36,0-.63,.17-.83,.53s-.3,.84-.3,1.48c0,.43,.04,.79,.13,1.09,.09,.3,.22,.52,.39,.68,.17,.16,.37,.23,.61,.23Z" style="fill:#fff;"/></g><g><path d="M116.63,166.23v4.92h-.6v-4.3h-.03l-1.2,.8v-.61l1.23-.82h.6Z" style="fill:#fff;"/><path d="M119.64,171.22c-.36,0-.67-.1-.93-.3s-.45-.49-.58-.86c-.13-.38-.2-.83-.2-1.37s.07-.99,.2-1.36c.14-.38,.33-.67,.59-.87,.26-.2,.56-.3,.92-.3s.67,.1,.92,.3c.26,.2,.45,.49,.59,.87,.14,.38,.2,.83,.2,1.36s-.07,.99-.2,1.37c-.13,.38-.33,.67-.58,.86s-.56,.3-.93,.3Zm0-.53c.36,0,.64-.17,.84-.52,.2-.35,.3-.84,.3-1.48,0-.43-.05-.79-.14-1.09-.09-.3-.22-.53-.39-.69-.17-.16-.37-.24-.61-.24-.36,0-.63,.17-.83,.53s-.3,.84-.3,1.48c0,.43,.04,.79,.13,1.09,.09,.3,.22,.52,.39,.68,.17,.16,.37,.23,.61,.23Z" style="fill:#fff;"/><path d="M123.11,170.48l-.04,.26c-.03,.18-.07,.38-.12,.59-.06,.21-.11,.41-.17,.59-.06,.18-.11,.33-.15,.44h-.43c.02-.1,.05-.24,.08-.41s.07-.36,.1-.56c.03-.21,.06-.42,.09-.64l.03-.27h.62Z" style="fill:#fff;"/><path d="M125.75,171.22c-.36,0-.67-.1-.93-.3s-.45-.49-.58-.86c-.13-.38-.2-.83-.2-1.37s.07-.99,.2-1.36c.14-.38,.33-.67,.59-.87,.26-.2,.56-.3,.92-.3s.67,.1,.92,.3c.26,.2,.45,.49,.59,.87,.14,.38,.2,.83,.2,1.36s-.07,.99-.2,1.37c-.13,.38-.33,.67-.58,.86s-.56,.3-.93,.3Zm0-.53c.36,0,.64-.17,.84-.52,.2-.35,.3-.84,.3-1.48,0-.43-.05-.79-.14-1.09-.09-.3-.22-.53-.39-.69-.17-.16-.37-.24-.61-.24-.36,0-.63,.17-.83,.53s-.3,.84-.3,1.48c0,.43,.04,.79,.13,1.09,.09,.3,.22,.52,.39,.68,.17,.16,.37,.23,.61,.23Z" style="fill:#fff;"/><path d="M129.98,171.22c-.36,0-.67-.1-.93-.3s-.45-.49-.58-.86c-.13-.38-.2-.83-.2-1.37s.07-.99,.2-1.36c.14-.38,.33-.67,.59-.87,.26-.2,.56-.3,.92-.3s.67,.1,.92,.3c.26,.2,.45,.49,.59,.87,.14,.38,.2,.83,.2,1.36s-.07,.99-.2,1.37c-.13,.38-.33,.67-.58,.86s-.56,.3-.93,.3Zm0-.53c.36,0,.64-.17,.84-.52,.2-.35,.3-.84,.3-1.48,0-.43-.05-.79-.14-1.09-.09-.3-.22-.53-.39-.69-.17-.16-.37-.24-.61-.24-.36,0-.63,.17-.83,.53s-.3,.84-.3,1.48c0,.43,.04,.79,.13,1.09,.09,.3,.22,.52,.39,.68,.17,.16,.37,.23,.61,.23Z" style="fill:#fff;"/><path d="M134.2,171.22c-.36,0-.67-.1-.93-.3s-.45-.49-.58-.86c-.13-.38-.2-.83-.2-1.37s.07-.99,.2-1.36c.14-.38,.33-.67,.59-.87,.26-.2,.56-.3,.92-.3s.67,.1,.92,.3c.26,.2,.45,.49,.59,.87,.14,.38,.2,.83,.2,1.36s-.07,.99-.2,1.37c-.13,.38-.33,.67-.58,.86s-.56,.3-.93,.3Zm0-.53c.36,0,.64-.17,.84-.52,.2-.35,.3-.84,.3-1.48,0-.43-.05-.79-.14-1.09-.09-.3-.22-.53-.39-.69-.17-.16-.37-.24-.61-.24-.36,0-.63,.17-.83,.53s-.3,.84-.3,1.48c0,.43,.04,.79,.13,1.09,.09,.3,.22,.52,.39,.68,.17,.16,.37,.23,.61,.23Z" style="fill:#fff;"/><path d="M137.67,170.48l-.04,.26c-.03,.18-.07,.38-.12,.59-.06,.21-.11,.41-.17,.59-.06,.18-.11,.33-.15,.44h-.43c.02-.1,.05-.24,.08-.41s.07-.36,.1-.56c.03-.21,.06-.42,.09-.64l.03-.27h.62Z" style="fill:#fff;"/><path d="M140.31,171.22c-.36,0-.67-.1-.93-.3s-.45-.49-.58-.86c-.13-.38-.2-.83-.2-1.37s.07-.99,.2-1.36c.14-.38,.33-.67,.59-.87,.26-.2,.56-.3,.92-.3s.67,.1,.92,.3c.26,.2,.45,.49,.59,.87,.14,.38,.2,.83,.2,1.36s-.07,.99-.2,1.37c-.13,.38-.33,.67-.58,.86s-.56,.3-.93,.3Zm0-.53c.36,0,.64-.17,.84-.52,.2-.35,.3-.84,.3-1.48,0-.43-.05-.79-.14-1.09-.09-.3-.22-.53-.39-.69-.17-.16-.37-.24-.61-.24-.36,0-.63,.17-.83,.53s-.3,.84-.3,1.48c0,.43,.04,.79,.13,1.09,.09,.3,.22,.52,.39,.68,.17,.16,.37,.23,.61,.23Z" style="fill:#fff;"/><path d="M144.54,171.22c-.36,0-.67-.1-.93-.3s-.45-.49-.58-.86c-.13-.38-.2-.83-.2-1.37s.07-.99,.2-1.36c.14-.38,.33-.67,.59-.87,.26-.2,.56-.3,.92-.3s.67,.1,.92,.3c.26,.2,.45,.49,.59,.87,.14,.38,.2,.83,.2,1.36s-.07,.99-.2,1.37c-.13,.38-.33,.67-.58,.86s-.56,.3-.93,.3Zm0-.53c.36,0,.64-.17,.84-.52,.2-.35,.3-.84,.3-1.48,0-.43-.05-.79-.14-1.09-.09-.3-.22-.53-.39-.69-.17-.16-.37-.24-.61-.24-.36,0-.63,.17-.83,.53s-.3,.84-.3,1.48c0,.43,.04,.79,.13,1.09,.09,.3,.22,.52,.39,.68,.17,.16,.37,.23,.61,.23Z" style="fill:#fff;"/><path d="M148.76,171.22c-.36,0-.67-.1-.93-.3s-.45-.49-.58-.86c-.13-.38-.2-.83-.2-1.37s.07-.99,.2-1.36c.14-.38,.33-.67,.59-.87,.26-.2,.56-.3,.92-.3s.67,.1,.92,.3c.26,.2,.45,.49,.59,.87,.14,.38,.2,.83,.2,1.36s-.07,.99-.2,1.37c-.13,.38-.33,.67-.58,.86s-.56,.3-.93,.3Zm0-.53c.36,0,.64-.17,.84-.52,.2-.35,.3-.84,.3-1.48,0-.43-.05-.79-.14-1.09-.09-.3-.22-.53-.39-.69-.17-.16-.37-.24-.61-.24-.36,0-.63,.17-.83,.53s-.3,.84-.3,1.48c0,.43,.04,.79,.13,1.09,.09,.3,.22,.52,.39,.68,.17,.16,.37,.23,.61,.23Z" style="fill:#fff;"/></g><g><path d="M119.87,211.59c-.28,0-.54-.06-.76-.17-.23-.11-.41-.27-.54-.46s-.21-.42-.22-.67h.58c.02,.22,.12,.41,.3,.55,.18,.14,.4,.22,.65,.22,.2,0,.38-.05,.54-.14s.28-.22,.37-.39c.09-.17,.14-.35,.14-.56s-.05-.41-.14-.58-.22-.3-.39-.4-.35-.15-.56-.15c-.15,0-.31,.02-.46,.07-.16,.05-.29,.11-.39,.18l-.56-.07,.3-2.42h2.56v.53h-2.06l-.17,1.45h.03c.1-.08,.23-.15,.38-.2,.15-.05,.31-.08,.48-.08,.3,0,.57,.07,.81,.22,.24,.14,.42,.34,.56,.59,.14,.25,.2,.53,.2,.85s-.07,.59-.21,.84-.33,.44-.58,.58-.52,.21-.84,.21Z" style="fill:#fff;"/><path d="M123.11,210.85l-.04,.26c-.03,.18-.07,.38-.12,.59-.06,.21-.11,.41-.17,.59-.06,.18-.11,.33-.15,.44h-.43c.02-.1,.05-.24,.08-.41s.07-.36,.1-.56c.03-.21,.06-.42,.09-.64l.03-.27h.62Z" style="fill:#fff;"/><path d="M125.75,211.59c-.36,0-.67-.1-.93-.3s-.45-.49-.58-.86c-.13-.38-.2-.83-.2-1.37s.07-.99,.2-1.36c.14-.38,.33-.67,.59-.87,.26-.2,.56-.3,.92-.3s.67,.1,.92,.3c.26,.2,.45,.49,.59,.87,.14,.38,.2,.83,.2,1.36s-.07,.99-.2,1.37c-.13,.38-.33,.67-.58,.86s-.56,.3-.93,.3Zm0-.53c.36,0,.64-.17,.84-.52,.2-.35,.3-.84,.3-1.48,0-.43-.05-.79-.14-1.09-.09-.3-.22-.53-.39-.69-.17-.16-.37-.24-.61-.24-.36,0-.63,.17-.83,.53s-.3,.84-.3,1.48c0,.43,.04,.79,.13,1.09,.09,.3,.22,.52,.39,.68,.17,.16,.37,.23,.61,.23Z" style="fill:#fff;"/><path d="M129.98,211.59c-.36,0-.67-.1-.93-.3s-.45-.49-.58-.86c-.13-.38-.2-.83-.2-1.37s.07-.99,.2-1.36c.14-.38,.33-.67,.59-.87,.26-.2,.56-.3,.92-.3s.67,.1,.92,.3c.26,.2,.45,.49,.59,.87,.14,.38,.2,.83,.2,1.36s-.07,.99-.2,1.37c-.13,.38-.33,.67-.58,.86s-.56,.3-.93,.3Zm0-.53c.36,0,.64-.17,.84-.52,.2-.35,.3-.84,.3-1.48,0-.43-.05-.79-.14-1.09-.09-.3-.22-.53-.39-.69-.17-.16-.37-.24-.61-.24-.36,0-.63,.17-.83,.53s-.3,.84-.3,1.48c0,.43,.04,.79,.13,1.09,.09,.3,.22,.52,.39,.68,.17,.16,.37,.23,.61,.23Z" style="fill:#fff;"/><path d="M134.2,211.59c-.36,0-.67-.1-.93-.3s-.45-.49-.58-.86c-.13-.38-.2-.83-.2-1.37s.07-.99,.2-1.36c.14-.38,.33-.67,.59-.87,.26-.2,.56-.3,.92-.3s.67,.1,.92,.3c.26,.2,.45,.49,.59,.87,.14,.38,.2,.83,.2,1.36s-.07,.99-.2,1.37c-.13,.38-.33,.67-.58,.86s-.56,.3-.93,.3Zm0-.53c.36,0,.64-.17,.84-.52,.2-.35,.3-.84,.3-1.48,0-.43-.05-.79-.14-1.09-.09-.3-.22-.53-.39-.69-.17-.16-.37-.24-.61-.24-.36,0-.63,.17-.83,.53s-.3,.84-.3,1.48c0,.43,.04,.79,.13,1.09,.09,.3,.22,.52,.39,.68,.17,.16,.37,.23,.61,.23Z" style="fill:#fff;"/><path d="M137.67,210.85l-.04,.26c-.03,.18-.07,.38-.12,.59-.06,.21-.11,.41-.17,.59-.06,.18-.11,.33-.15,.44h-.43c.02-.1,.05-.24,.08-.41s.07-.36,.1-.56c.03-.21,.06-.42,.09-.64l.03-.27h.62Z" style="fill:#fff;"/><path d="M140.31,211.59c-.36,0-.67-.1-.93-.3s-.45-.49-.58-.86c-.13-.38-.2-.83-.2-1.37s.07-.99,.2-1.36c.14-.38,.33-.67,.59-.87,.26-.2,.56-.3,.92-.3s.67,.1,.92,.3c.26,.2,.45,.49,.59,.87,.14,.38,.2,.83,.2,1.36s-.07,.99-.2,1.37c-.13,.38-.33,.67-.58,.86s-.56,.3-.93,.3Zm0-.53c.36,0,.64-.17,.84-.52,.2-.35,.3-.84,.3-1.48,0-.43-.05-.79-.14-1.09-.09-.3-.22-.53-.39-.69-.17-.16-.37-.24-.61-.24-.36,0-.63,.17-.83,.53s-.3,.84-.3,1.48c0,.43,.04,.79,.13,1.09,.09,.3,.22,.52,.39,.68,.17,.16,.37,.23,.61,.23Z" style="fill:#fff;"/><path d="M144.54,211.59c-.36,0-.67-.1-.93-.3s-.45-.49-.58-.86c-.13-.38-.2-.83-.2-1.37s.07-.99,.2-1.36c.14-.38,.33-.67,.59-.87,.26-.2,.56-.3,.92-.3s.67,.1,.92,.3c.26,.2,.45,.49,.59,.87,.14,.38,.2,.83,.2,1.36s-.07,.99-.2,1.37c-.13,.38-.33,.67-.58,.86s-.56,.3-.93,.3Zm0-.53c.36,0,.64-.17,.84-.52,.2-.35,.3-.84,.3-1.48,0-.43-.05-.79-.14-1.09-.09-.3-.22-.53-.39-.69-.17-.16-.37-.24-.61-.24-.36,0-.63,.17-.83,.53s-.3,.84-.3,1.48c0,.43,.04,.79,.13,1.09,.09,.3,.22,.52,.39,.68,.17,.16,.37,.23,.61,.23Z" style="fill:#fff;"/><path d="M148.76,211.59c-.36,0-.67-.1-.93-.3s-.45-.49-.58-.86c-.13-.38-.2-.83-.2-1.37s.07-.99,.2-1.36c.14-.38,.33-.67,.59-.87,.26-.2,.56-.3,.92-.3s.67,.1,.92,.3c.26,.2,.45,.49,.59,.87,.14,.38,.2,.83,.2,1.36s-.07,.99-.2,1.37c-.13,.38-.33,.67-.58,.86s-.56,.3-.93,.3Zm0-.53c.36,0,.64-.17,.84-.52,.2-.35,.3-.84,.3-1.48,0-.43-.05-.79-.14-1.09-.09-.3-.22-.53-.39-.69-.17-.16-.37-.24-.61-.24-.36,0-.63,.17-.83,.53s-.3,.84-.3,1.48c0,.43,.04,.79,.13,1.09,.09,.3,.22,.52,.39,.68,.17,.16,.37,.23,.61,.23Z" style="fill:#fff;"/></g><path d="M148.34,254.59c-.43,0-.8-.12-1.11-.36-.31-.24-.54-.58-.7-1.03-.16-.45-.24-1-.24-1.64s.08-1.18,.24-1.63c.16-.45,.4-.8,.7-1.04,.31-.24,.67-.36,1.1-.36s.8,.12,1.1,.36c.31,.24,.54,.58,.7,1.04,.16,.45,.24,1,.24,1.63s-.08,1.19-.24,1.64-.39,.8-.7,1.03c-.31,.24-.68,.36-1.11,.36Zm0-.63c.43,0,.76-.21,1-.62s.36-1.01,.36-1.77c0-.51-.05-.95-.16-1.31-.11-.36-.26-.63-.47-.82-.2-.19-.45-.28-.73-.28-.43,0-.76,.21-1,.63s-.36,1.01-.36,1.78c0,.51,.05,.95,.16,1.3,.11,.36,.26,.63,.47,.82,.2,.19,.45,.28,.73,.28Z" style="fill:#fff;"/><g><path d="M225.74,268.5v-.52l1.95-2.13c.23-.25,.42-.47,.56-.65,.15-.19,.26-.36,.33-.52,.07-.17,.11-.34,.11-.52,0-.21-.05-.39-.15-.54-.1-.15-.23-.27-.4-.35-.17-.08-.36-.12-.58-.12-.23,0-.42,.05-.59,.14-.17,.09-.3,.22-.39,.39-.09,.17-.14,.36-.14,.59h-.68c0-.35,.08-.65,.24-.91,.16-.26,.38-.46,.65-.61,.28-.15,.59-.22,.93-.22s.65,.07,.92,.22c.27,.15,.48,.34,.63,.59,.15,.25,.23,.52,.23,.83,0,.22-.04,.43-.12,.64-.08,.21-.21,.44-.4,.69-.19,.25-.46,.56-.79,.92l-1.33,1.42v.05h2.74v.63h-3.72Z" style="fill:#89898f;"/><path d="M232.57,268.58c-.43,0-.8-.12-1.11-.36-.31-.24-.54-.58-.7-1.03-.16-.45-.24-1-.24-1.64s.08-1.18,.24-1.63c.16-.45,.4-.8,.7-1.04,.31-.24,.67-.36,1.1-.36s.8,.12,1.1,.36c.31,.24,.54,.58,.7,1.04,.16,.45,.24,1,.24,1.63s-.08,1.19-.24,1.64-.39,.8-.7,1.03c-.31,.24-.68,.36-1.11,.36Zm0-.63c.43,0,.76-.21,1-.62s.36-1.01,.36-1.77c0-.51-.05-.95-.16-1.31-.11-.36-.26-.63-.47-.82-.2-.19-.45-.28-.73-.28-.43,0-.76,.21-1,.63s-.36,1.01-.36,1.78c0,.51,.05,.95,.16,1.3,.11,.36,.26,.63,.47,.82,.2,.19,.45,.28,.73,.28Z" style="fill:#89898f;"/><path d="M235.71,268.5v-.52l1.95-2.13c.23-.25,.42-.47,.56-.65,.15-.19,.26-.36,.33-.52,.07-.17,.11-.34,.11-.52,0-.21-.05-.39-.15-.54-.1-.15-.23-.27-.4-.35-.17-.08-.36-.12-.58-.12-.23,0-.42,.05-.59,.14-.17,.09-.3,.22-.39,.39-.09,.17-.14,.36-.14,.59h-.68c0-.35,.08-.65,.24-.91,.16-.26,.38-.46,.65-.61,.28-.15,.59-.22,.93-.22s.65,.07,.92,.22c.27,.15,.48,.34,.63,.59,.15,.25,.23,.52,.23,.83,0,.22-.04,.43-.12,.64-.08,.21-.21,.44-.4,.69-.19,.25-.46,.56-.79,.92l-1.33,1.42v.05h2.74v.63h-3.72Z" style="fill:#89898f;"/><path d="M242.68,262.6v5.9h-.71v-5.15h-.03l-1.44,.96v-.73l1.48-.98h.71Z" style="fill:#89898f;"/></g><g><path d="M278.91,268.5v-.52l1.95-2.13c.23-.25,.42-.47,.56-.65,.15-.19,.26-.36,.33-.52,.07-.17,.11-.34,.11-.52,0-.21-.05-.39-.15-.54-.1-.15-.23-.27-.4-.35-.17-.08-.36-.12-.58-.12-.23,0-.42,.05-.59,.14-.17,.09-.3,.22-.39,.39-.09,.17-.14,.36-.14,.59h-.68c0-.35,.08-.65,.24-.91,.16-.26,.38-.46,.65-.61,.28-.15,.59-.22,.93-.22s.65,.07,.92,.22c.27,.15,.48,.34,.63,.59,.15,.25,.23,.52,.23,.83,0,.22-.04,.43-.12,.64-.08,.21-.21,.44-.4,.69-.19,.25-.46,.56-.79,.92l-1.33,1.42v.05h2.74v.63h-3.72Z" style="fill:#fff;"/><path d="M285.74,268.58c-.43,0-.8-.12-1.11-.36-.31-.24-.54-.58-.7-1.03-.16-.45-.24-1-.24-1.64s.08-1.18,.24-1.63c.16-.45,.4-.8,.7-1.04,.31-.24,.67-.36,1.1-.36s.8,.12,1.1,.36c.31,.24,.54,.58,.7,1.04,.16,.45,.24,1,.24,1.63s-.08,1.19-.24,1.64-.39,.8-.7,1.03c-.31,.24-.68,.36-1.11,.36Zm0-.63c.43,0,.76-.21,1-.62s.36-1.01,.36-1.77c0-.51-.05-.95-.16-1.31-.11-.36-.26-.63-.47-.82-.2-.19-.45-.28-.73-.28-.43,0-.76,.21-1,.63s-.36,1.01-.36,1.78c0,.51,.05,.95,.16,1.3,.11,.36,.26,.63,.47,.82,.2,.19,.45,.28,.73,.28Z" style="fill:#fff;"/><path d="M288.87,268.5v-.52l1.95-2.13c.23-.25,.42-.47,.56-.65,.15-.19,.26-.36,.33-.52,.07-.17,.11-.34,.11-.52,0-.21-.05-.39-.15-.54-.1-.15-.23-.27-.4-.35-.17-.08-.36-.12-.58-.12-.23,0-.42,.05-.59,.14-.17,.09-.3,.22-.39,.39-.09,.17-.14,.36-.14,.59h-.68c0-.35,.08-.65,.24-.91,.16-.26,.38-.46,.65-.61,.28-.15,.59-.22,.93-.22s.65,.07,.92,.22c.27,.15,.48,.34,.63,.59,.15,.25,.23,.52,.23,.83,0,.22-.04,.43-.12,.64-.08,.21-.21,.44-.4,.69-.19,.25-.46,.56-.79,.92l-1.33,1.42v.05h2.74v.63h-3.72Z" style="fill:#fff;"/><path d="M293.78,268.5v-.52l1.95-2.13c.23-.25,.42-.47,.56-.65,.15-.19,.26-.36,.33-.52,.07-.17,.11-.34,.11-.52,0-.21-.05-.39-.15-.54-.1-.15-.23-.27-.4-.35-.17-.08-.36-.12-.58-.12-.23,0-.42,.05-.59,.14-.17,.09-.3,.22-.39,.39-.09,.17-.14,.36-.14,.59h-.68c0-.35,.08-.65,.24-.91,.16-.26,.38-.46,.65-.61,.28-.15,.59-.22,.93-.22s.65,.07,.92,.22c.27,.15,.48,.34,.63,.59,.15,.25,.23,.52,.23,.83,0,.22-.04,.43-.12,.64-.08,.21-.21,.44-.4,.69-.19,.25-.46,.56-.79,.92l-1.33,1.42v.05h2.74v.63h-3.72Z" style="fill:#fff;"/></g><g><path d="M381.96,268.5v-.52l1.95-2.13c.23-.25,.42-.47,.56-.65,.15-.19,.26-.36,.33-.52,.07-.17,.11-.34,.11-.52,0-.21-.05-.39-.15-.54-.1-.15-.23-.27-.41-.35-.17-.08-.36-.12-.58-.12-.23,0-.42,.05-.59,.14-.17,.09-.3,.22-.39,.39-.09,.17-.14,.36-.14,.59h-.68c0-.35,.08-.65,.24-.91,.16-.26,.38-.46,.65-.61,.28-.15,.59-.22,.93-.22s.65,.07,.92,.22c.27,.15,.48,.34,.63,.59,.15,.25,.23,.52,.23,.83,0,.22-.04,.43-.12,.64-.08,.21-.21,.44-.4,.69-.19,.25-.46,.56-.79,.92l-1.33,1.42v.05h2.74v.63h-3.72Z" style="fill:#fff;"/><path d="M388.78,268.58c-.43,0-.8-.12-1.11-.36-.31-.24-.54-.58-.7-1.03-.16-.45-.24-1-.24-1.64s.08-1.18,.24-1.63c.16-.45,.4-.8,.7-1.04,.31-.24,.67-.36,1.1-.36s.8,.12,1.11,.36c.31,.24,.54,.58,.7,1.04,.16,.45,.24,1,.24,1.63s-.08,1.19-.24,1.64-.39,.8-.7,1.03c-.3,.24-.67,.36-1.11,.36Zm0-.63c.43,0,.76-.21,1-.62s.36-1.01,.36-1.77c0-.51-.05-.95-.16-1.31-.11-.36-.26-.63-.47-.82-.2-.19-.45-.28-.73-.28-.43,0-.76,.21-1,.63s-.36,1.01-.36,1.78c0,.51,.05,.95,.16,1.3,.11,.36,.26,.63,.47,.82,.2,.19,.45,.28,.73,.28Z" style="fill:#fff;"/><path d="M391.92,268.5v-.52l1.95-2.13c.23-.25,.42-.47,.56-.65,.15-.19,.26-.36,.33-.52,.07-.17,.11-.34,.11-.52,0-.21-.05-.39-.15-.54-.1-.15-.23-.27-.41-.35-.17-.08-.36-.12-.58-.12-.23,0-.42,.05-.59,.14-.17,.09-.3,.22-.39,.39-.09,.17-.14,.36-.14,.59h-.68c0-.35,.08-.65,.24-.91s.38-.46,.65-.61c.28-.15,.59-.22,.93-.22s.65,.07,.92,.22c.27,.15,.48,.34,.63,.59,.15,.25,.23,.52,.23,.83,0,.22-.04,.43-.12,.64-.08,.21-.21,.44-.4,.69-.19,.25-.46,.56-.79,.92l-1.33,1.42v.05h2.74v.63h-3.72Z" style="fill:#fff;"/><path d="M398.82,268.58c-.38,0-.72-.07-1.02-.2s-.53-.31-.71-.55-.27-.5-.28-.81h.73c.02,.19,.08,.35,.2,.49,.12,.14,.27,.24,.45,.32,.19,.08,.39,.11,.62,.11,.25,0,.48-.04,.67-.13,.2-.09,.35-.21,.46-.37,.11-.16,.17-.34,.17-.55,0-.22-.05-.41-.16-.58-.11-.17-.27-.3-.47-.39-.21-.09-.46-.14-.76-.14h-.47v-.63h.47c.23,0,.44-.04,.62-.13,.18-.08,.32-.2,.42-.36,.1-.15,.15-.33,.15-.54s-.04-.37-.13-.52c-.09-.15-.21-.26-.37-.35-.16-.08-.35-.12-.57-.12-.2,0-.4,.04-.58,.11s-.33,.18-.44,.32c-.11,.14-.17,.31-.18,.5h-.69c.01-.31,.11-.58,.28-.81s.4-.42,.69-.55,.59-.2,.94-.2c.36,0,.68,.07,.94,.22,.26,.15,.46,.34,.6,.58,.14,.24,.21,.5,.21,.78,0,.33-.09,.62-.26,.85s-.41,.4-.71,.49v.05c.37,.06,.66,.22,.87,.47,.21,.25,.31,.57,.31,.94,0,.32-.09,.61-.26,.86-.17,.25-.41,.46-.71,.6-.3,.15-.64,.22-1.02,.22Z" style="fill:#fff;"/><path d="M375.96,272.87c0-.61,.08-1.18,.24-1.7,.16-.52,.39-.99,.69-1.43h.51c-.12,.16-.23,.36-.33,.59-.1,.24-.19,.49-.27,.77-.08,.28-.14,.57-.18,.87-.04,.3-.06,.59-.06,.89,0,.39,.04,.78,.11,1.18,.07,.4,.18,.77,.3,1.11s.27,.62,.42,.83h-.51c-.3-.43-.53-.91-.69-1.43-.16-.52-.24-1.08-.24-1.7Z" style="fill:#fff;"/><path d="M380.22,270.37h.6v3.57c0,.32-.06,.59-.18,.81s-.28,.39-.5,.51c-.21,.12-.46,.17-.75,.17-.27,0-.52-.05-.73-.15-.21-.1-.38-.24-.5-.43s-.18-.41-.18-.66h.6c0,.14,.04,.26,.11,.37,.07,.11,.17,.19,.29,.25,.12,.06,.26,.09,.42,.09,.17,0,.32-.04,.44-.11,.12-.07,.22-.18,.28-.32,.06-.14,.1-.32,.1-.52v-3.57Z" style="fill:#fff;"/><path d="M383.06,275.46c-.24,0-.45-.04-.65-.14-.19-.09-.35-.22-.46-.39s-.17-.38-.17-.62c0-.21,.04-.39,.13-.52s.2-.24,.34-.32c.14-.08,.3-.13,.47-.17,.17-.04,.34-.07,.52-.09,.23-.03,.41-.05,.56-.07s.25-.04,.31-.08c.07-.04,.1-.1,.1-.2v-.02c0-.24-.07-.43-.2-.56-.13-.13-.33-.2-.59-.2s-.49,.06-.65,.18c-.16,.12-.27,.25-.33,.38l-.55-.2c.1-.23,.23-.41,.39-.53,.16-.13,.34-.22,.54-.27,.19-.05,.39-.08,.58-.08,.12,0,.26,.01,.42,.04,.16,.03,.31,.09,.46,.17,.15,.09,.27,.22,.37,.4,.1,.18,.15,.41,.15,.71v2.47h-.58v-.51h-.03c-.04,.08-.1,.17-.2,.26s-.21,.17-.36,.24-.34,.1-.55,.1Zm.09-.52c.23,0,.42-.04,.58-.13,.16-.09,.28-.21,.36-.35,.08-.14,.12-.29,.12-.45v-.53s-.08,.06-.16,.08-.18,.04-.28,.06c-.11,.02-.21,.03-.31,.04-.1,.01-.18,.02-.24,.03-.15,.02-.29,.05-.42,.09-.13,.04-.23,.11-.31,.19-.08,.08-.12,.2-.12,.35,0,.2,.07,.35,.22,.45,.15,.1,.34,.15,.57,.15Z" style="fill:#fff;"/><path d="M386.4,273.12v2.25h-.58v-3.75h.56v.59h.05c.09-.19,.22-.34,.4-.46s.41-.17,.69-.17c.25,0,.48,.05,.67,.16,.19,.1,.34,.26,.44,.47s.16,.47,.16,.79v2.38h-.58v-2.34c0-.29-.08-.52-.23-.69s-.36-.25-.63-.25c-.18,0-.35,.04-.49,.12-.14,.08-.26,.2-.34,.35-.08,.15-.12,.34-.12,.56Z" style="fill:#fff;"/><path d="M391.98,272.96v.54h-2.19v-.54h2.19Z" style="fill:#fff;"/><path d="M395.8,271.62c-.03-.25-.15-.44-.36-.58-.21-.14-.46-.21-.77-.21-.22,0-.41,.04-.58,.11-.17,.07-.29,.17-.39,.29-.09,.12-.14,.27-.14,.43,0,.13,.03,.25,.1,.34s.15,.17,.25,.24c.1,.06,.21,.11,.32,.15,.11,.04,.21,.07,.31,.1l.51,.14c.13,.03,.28,.08,.44,.14,.16,.06,.31,.14,.46,.25,.15,.1,.27,.24,.36,.4,.1,.16,.14,.36,.14,.59,0,.27-.07,.51-.21,.73-.14,.22-.35,.39-.62,.52-.27,.13-.6,.19-.98,.19-.36,0-.67-.06-.93-.17-.26-.12-.47-.28-.62-.48-.15-.21-.23-.45-.25-.72h.62c.02,.19,.08,.34,.19,.47,.11,.12,.25,.21,.42,.27s.36,.09,.55,.09c.23,0,.44-.04,.62-.11,.18-.08,.33-.18,.44-.32,.11-.14,.16-.29,.16-.48,0-.17-.04-.3-.14-.41-.09-.1-.21-.19-.37-.25-.15-.07-.31-.12-.49-.17l-.61-.18c-.39-.11-.7-.27-.93-.48-.23-.21-.34-.48-.34-.82,0-.28,.08-.52,.23-.73,.15-.21,.36-.37,.62-.49s.55-.17,.86-.17,.61,.06,.86,.17c.25,.12,.45,.27,.6,.47,.15,.2,.22,.42,.23,.68h-.59Z" style="fill:#fff;"/><path d="M398.93,275.45c-.36,0-.67-.08-.93-.24s-.46-.38-.6-.67c-.14-.29-.21-.62-.21-1.01s.07-.72,.21-1.02c.14-.29,.34-.52,.59-.69s.55-.25,.89-.25c.2,0,.39,.03,.58,.1,.19,.07,.36,.17,.52,.32,.16,.15,.28,.34,.37,.58,.09,.24,.14,.53,.14,.88v.24h-2.89v-.5h2.3c0-.21-.04-.4-.12-.57s-.2-.3-.36-.39-.33-.14-.54-.14c-.23,0-.43,.06-.59,.17-.17,.11-.29,.26-.38,.44-.09,.18-.13,.37-.13,.58v.33c0,.28,.05,.52,.15,.72,.1,.2,.24,.34,.41,.45s.38,.15,.61,.15c.15,0,.29-.02,.41-.06s.23-.11,.32-.2c.09-.09,.16-.2,.21-.33l.56,.16c-.06,.19-.16,.35-.29,.5-.14,.14-.31,.25-.51,.33s-.43,.12-.69,.12Z" style="fill:#fff;"/><path d="M401.36,276.78v-5.15h.56v.6h.07c.04-.07,.1-.15,.18-.25,.08-.1,.18-.19,.33-.27,.14-.08,.33-.12,.58-.12,.32,0,.59,.08,.83,.24,.24,.16,.43,.38,.56,.67,.13,.29,.2,.63,.2,1.03s-.07,.74-.2,1.03c-.14,.29-.32,.51-.56,.67-.24,.16-.51,.24-.83,.24-.24,0-.43-.04-.58-.12-.14-.08-.26-.17-.33-.28s-.14-.19-.18-.26h-.05v1.98h-.58Zm.57-3.28c0,.28,.04,.53,.12,.75,.08,.22,.2,.38,.36,.5,.16,.12,.35,.18,.58,.18s.44-.06,.6-.19c.16-.13,.28-.3,.37-.52,.08-.22,.12-.46,.12-.73s-.04-.5-.12-.71c-.08-.21-.2-.38-.36-.5-.16-.12-.36-.19-.61-.19s-.43,.06-.59,.18c-.16,.12-.28,.28-.36,.49-.08,.21-.12,.46-.12,.74Z" style="fill:#fff;"/><path d="M406.77,273.26c0,.61-.08,1.18-.24,1.7-.16,.52-.39,.99-.69,1.43h-.51c.12-.16,.23-.36,.33-.59s.19-.49,.27-.77c.08-.28,.14-.57,.18-.87,.04-.3,.06-.59,.06-.88,0-.39-.04-.78-.11-1.18-.07-.4-.18-.77-.3-1.11-.13-.34-.27-.62-.42-.83h.51c.3,.43,.53,.91,.69,1.43,.16,.52,.24,1.08,.24,1.7Z" style="fill:#fff;"/></g><g><path d="M364.03,296.5v-5.36h1.81c.42,0,.76,.07,1.03,.21,.27,.14,.47,.34,.6,.58,.13,.25,.19,.53,.19,.85s-.06,.6-.19,.84c-.13,.24-.33,.44-.59,.58-.27,.14-.61,.21-1.02,.21h-1.47v-.59h1.45c.29,0,.52-.04,.69-.13,.18-.08,.3-.2,.38-.36,.08-.15,.12-.34,.12-.55s-.04-.4-.12-.56-.21-.29-.39-.37c-.18-.09-.41-.13-.7-.13h-1.14v4.79h-.65Zm2.52-2.41l1.32,2.41h-.75l-1.3-2.41h.73Z" style="fill:#d71219;"/><path d="M370.34,296.58c-.39,0-.72-.09-1-.26s-.5-.41-.65-.72c-.15-.31-.23-.67-.23-1.08s.08-.78,.23-1.09,.36-.56,.63-.74c.27-.18,.59-.27,.95-.27,.21,0,.42,.04,.62,.11,.2,.07,.39,.18,.56,.34s.3,.36,.4,.62c.1,.26,.15,.57,.15,.95v.26h-3.1v-.53h2.47c0-.23-.04-.43-.13-.61s-.22-.32-.38-.42c-.17-.1-.36-.15-.58-.15-.25,0-.46,.06-.64,.18-.18,.12-.32,.28-.41,.47-.1,.19-.14,.4-.14,.62v.36c0,.3,.05,.56,.16,.77,.11,.21,.25,.37,.44,.48,.19,.11,.41,.16,.66,.16,.16,0,.31-.02,.44-.07,.13-.05,.25-.12,.34-.21,.1-.09,.17-.21,.22-.35l.6,.17c-.06,.2-.17,.38-.32,.53-.15,.15-.33,.27-.55,.36-.22,.08-.46,.13-.74,.13Z" style="fill:#d71219;"/><path d="M376.23,292.48l-1.49,4.02h-.63l-1.49-4.02h.67l1.11,3.21h.04l1.11-3.21h.67Z" style="fill:#d71219;"/><path d="M378.23,296.59c-.25,0-.49-.05-.69-.15-.21-.1-.37-.24-.49-.42-.12-.18-.18-.41-.18-.67,0-.23,.05-.42,.14-.56,.09-.14,.21-.26,.36-.34s.32-.14,.5-.18,.37-.07,.56-.1c.24-.03,.44-.06,.6-.07s.26-.04,.33-.08c.07-.04,.11-.11,.11-.21v-.02c0-.26-.07-.46-.21-.6-.14-.14-.35-.21-.64-.21s-.53,.06-.69,.19c-.17,.13-.29,.27-.35,.41l-.59-.21c.1-.24,.25-.44,.42-.57s.37-.23,.58-.29,.41-.08,.62-.08c.13,0,.28,.02,.45,.05,.17,.03,.33,.09,.49,.19,.16,.09,.29,.24,.39,.43,.1,.19,.16,.45,.16,.76v2.65h-.62v-.54h-.03c-.04,.09-.11,.18-.21,.28s-.23,.18-.39,.25c-.16,.07-.36,.11-.59,.11Zm.09-.56c.24,0,.45-.05,.62-.14,.17-.1,.3-.22,.38-.37,.09-.15,.13-.31,.13-.48v-.57s-.08,.06-.17,.08c-.09,.03-.19,.05-.3,.07s-.23,.03-.33,.05c-.11,.01-.19,.02-.26,.03-.16,.02-.31,.05-.45,.1-.14,.05-.25,.12-.34,.21s-.13,.22-.13,.37c0,.21,.08,.38,.24,.49,.16,.11,.36,.16,.61,.16Z" style="fill:#d71219;"/><path d="M381.19,296.5v-4.02h.6v.63h.05c.08-.21,.22-.38,.41-.5,.19-.12,.41-.18,.67-.18s.49,.06,.66,.18c.18,.12,.32,.29,.42,.5h.04c.1-.21,.26-.37,.46-.5,.21-.12,.45-.19,.74-.19,.36,0,.65,.11,.88,.34s.34,.57,.34,1.05v2.69h-.62v-2.69c0-.3-.08-.51-.24-.64-.16-.13-.35-.19-.57-.19-.28,0-.5,.08-.66,.25-.16,.17-.23,.39-.23,.65v2.62h-.63v-2.75c0-.23-.07-.41-.22-.55s-.34-.21-.57-.21c-.16,0-.31,.04-.45,.13-.14,.09-.25,.2-.34,.36-.08,.15-.13,.33-.13,.52v2.51h-.62Z" style="fill:#d71219;"/><path d="M387.6,298.01v-5.53h.6v.64h.07c.05-.07,.11-.16,.19-.27,.08-.11,.2-.21,.35-.29,.15-.09,.36-.13,.62-.13,.34,0,.64,.08,.9,.25,.26,.17,.46,.41,.61,.72,.14,.31,.22,.68,.22,1.1s-.07,.79-.22,1.11c-.15,.31-.35,.55-.6,.72-.26,.17-.55,.26-.89,.26-.26,0-.47-.04-.62-.13-.16-.09-.27-.18-.36-.3-.08-.11-.15-.2-.19-.28h-.05v2.13h-.62Zm.61-3.52c0,.3,.04,.57,.13,.8,.09,.23,.22,.41,.39,.54,.17,.13,.38,.19,.63,.19s.47-.07,.65-.21c.17-.14,.3-.32,.39-.56,.09-.23,.13-.49,.13-.78s-.04-.54-.13-.77c-.09-.23-.22-.41-.39-.54s-.39-.2-.65-.2-.46,.06-.63,.19c-.17,.13-.3,.3-.39,.53-.09,.23-.13,.49-.13,.79Z" style="fill:#d71219;"/><path d="M392.4,291.81c-.12,0-.22-.04-.31-.12-.09-.08-.13-.18-.13-.3s.04-.21,.13-.3c.09-.08,.19-.12,.31-.12s.22,.04,.31,.12c.09,.08,.13,.18,.13,.3s-.04,.21-.13,.3c-.09,.08-.19,.12-.31,.12Zm-.31,4.69v-4.02h.62v4.02h-.62Z" style="fill:#d71219;"/><path d="M394.44,294.08v2.42h-.62v-4.02h.6v.63h.05c.09-.2,.24-.37,.43-.49,.19-.12,.44-.19,.74-.19,.27,0,.51,.06,.72,.17,.2,.11,.36,.28,.48,.5,.11,.22,.17,.51,.17,.85v2.56h-.62v-2.51c0-.32-.08-.56-.25-.74-.16-.18-.39-.27-.68-.27-.2,0-.37,.04-.53,.13-.16,.09-.28,.21-.37,.38-.09,.16-.13,.36-.13,.6Z" style="fill:#d71219;"/><path d="M399.76,298.09c-.3,0-.56-.04-.77-.11-.21-.08-.39-.18-.54-.3s-.25-.25-.34-.39l.49-.34c.06,.07,.13,.16,.21,.25,.09,.1,.2,.18,.35,.25s.34,.11,.59,.11c.32,0,.59-.08,.8-.24s.32-.4,.32-.74v-.82h-.05c-.05,.07-.11,.16-.19,.27s-.2,.2-.36,.29-.36,.12-.62,.12c-.33,0-.62-.08-.87-.23-.26-.15-.46-.38-.61-.67-.15-.29-.22-.65-.22-1.07s.07-.77,.22-1.08c.14-.31,.35-.54,.6-.71,.26-.17,.56-.25,.9-.25,.26,0,.47,.04,.62,.13,.15,.09,.27,.18,.36,.29,.08,.11,.15,.2,.19,.27h.06v-.64h.6v4.14c0,.35-.08,.63-.23,.84-.16,.22-.37,.38-.63,.48-.26,.1-.55,.15-.88,.15Zm-.02-2.21c.25,0,.46-.06,.63-.17s.3-.28,.39-.49c.09-.21,.13-.47,.13-.76s-.04-.54-.13-.77c-.09-.22-.22-.4-.39-.52s-.38-.19-.63-.19-.48,.07-.65,.2-.3,.31-.39,.53c-.09,.22-.13,.47-.13,.74s.04,.53,.13,.74c.09,.21,.22,.38,.39,.5s.39,.18,.65,.18Z" style="fill:#d71219;"/><path d="M404.99,296.5h-.68l1.97-5.36h.67l1.97,5.36h-.68l-1.6-4.51h-.04l-1.6,4.51Zm.25-2.09h2.74v.58h-2.74v-.58Z" style="fill:#d71219;"/><path d="M411.46,292.48v.52h-2.17v-.52h2.17Zm-1.52,4.02v-4.58c0-.23,.05-.42,.16-.58,.11-.15,.25-.27,.42-.35,.17-.08,.36-.12,.55-.12,.15,0,.28,.01,.37,.04,.1,.02,.17,.05,.21,.07l-.18,.53s-.08-.02-.13-.04-.13-.02-.22-.02c-.2,0-.35,.05-.44,.15-.09,.1-.13,.25-.13,.45v4.43h-.62Z" style="fill:#d71219;"/><path d="M414.07,292.48v.52h-2.08v-.52h2.08Zm-1.48-.96h.62v3.83c0,.17,.03,.31,.08,.39s.12,.14,.2,.17c.08,.03,.17,.04,.26,.04,.07,0,.12,0,.17-.01,.04,0,.08-.01,.1-.02l.13,.56s-.1,.03-.18,.05-.17,.03-.29,.03c-.17,0-.35-.04-.51-.11-.17-.08-.3-.19-.41-.34-.11-.15-.16-.35-.16-.58v-4Z" style="fill:#d71219;"/><path d="M416.68,296.58c-.39,0-.72-.09-1-.26-.28-.17-.5-.41-.65-.72-.15-.31-.23-.67-.23-1.08s.08-.78,.23-1.09,.36-.56,.63-.74c.27-.18,.59-.27,.95-.27,.21,0,.42,.04,.62,.11,.2,.07,.39,.18,.56,.34,.17,.16,.3,.36,.4,.62s.15,.57,.15,.95v.26h-3.1v-.53h2.47c0-.23-.04-.43-.13-.61s-.22-.32-.38-.42c-.16-.1-.36-.15-.58-.15-.25,0-.46,.06-.64,.18-.18,.12-.32,.28-.41,.47-.1,.19-.14,.4-.14,.62v.36c0,.3,.05,.56,.16,.77s.25,.37,.44,.48c.19,.11,.41,.16,.66,.16,.16,0,.31-.02,.44-.07,.13-.05,.25-.12,.34-.21,.1-.09,.17-.21,.22-.35l.6,.17c-.06,.2-.17,.38-.32,.53-.15,.15-.33,.27-.55,.36-.22,.08-.46,.13-.74,.13Z" style="fill:#d71219;"/><path d="M419.28,296.5v-4.02h.6v.61h.04c.07-.2,.21-.36,.4-.48s.41-.19,.65-.19c.05,0,.1,0,.17,0,.07,0,.12,0,.16,0v.63s-.07-.01-.14-.02c-.07-.01-.15-.02-.23-.02-.2,0-.37,.04-.52,.12-.15,.08-.27,.19-.36,.33-.09,.14-.13,.3-.13,.49v2.54h-.62Z" style="fill:#d71219;"/></g><g><path d="M185.26,296.5v-5.36h1.81c.42,0,.76,.07,1.03,.21,.27,.14,.47,.34,.6,.58,.13,.25,.19,.53,.19,.85s-.06,.6-.19,.84c-.13,.24-.33,.44-.59,.58-.27,.14-.61,.21-1.02,.21h-1.47v-.59h1.45c.29,0,.52-.04,.69-.13,.18-.08,.3-.2,.38-.36,.08-.15,.12-.34,.12-.55s-.04-.4-.12-.56-.21-.29-.39-.37c-.18-.09-.41-.13-.7-.13h-1.14v4.79h-.65Zm2.52-2.41l1.32,2.41h-.75l-1.3-2.41h.73Z" style="fill:#89898f;"/><path d="M191.56,296.58c-.39,0-.72-.09-1-.26s-.5-.41-.65-.72c-.15-.31-.23-.67-.23-1.08s.08-.78,.23-1.09,.36-.56,.63-.74c.27-.18,.59-.27,.95-.27,.21,0,.42,.04,.62,.11,.2,.07,.39,.18,.56,.34s.3,.36,.4,.62c.1,.26,.15,.57,.15,.95v.26h-3.1v-.53h2.47c0-.23-.04-.43-.13-.61s-.22-.32-.38-.42c-.17-.1-.36-.15-.58-.15-.25,0-.46,.06-.64,.18-.18,.12-.32,.28-.41,.47-.1,.19-.14,.4-.14,.62v.36c0,.3,.05,.56,.16,.77,.11,.21,.25,.37,.44,.48,.19,.11,.41,.16,.66,.16,.16,0,.31-.02,.44-.07,.13-.05,.25-.12,.34-.21,.1-.09,.17-.21,.22-.35l.6,.17c-.06,.2-.17,.38-.32,.53-.15,.15-.33,.27-.55,.36-.22,.08-.46,.13-.74,.13Z" style="fill:#89898f;"/><path d="M197.46,292.48l-1.49,4.02h-.63l-1.49-4.02h.67l1.11,3.21h.04l1.11-3.21h.67Z" style="fill:#89898f;"/><path d="M199.45,296.59c-.25,0-.49-.05-.69-.15-.21-.1-.37-.24-.49-.42-.12-.18-.18-.41-.18-.67,0-.23,.05-.42,.14-.56,.09-.14,.21-.26,.36-.34s.32-.14,.5-.18,.37-.07,.56-.1c.24-.03,.44-.06,.6-.07s.26-.04,.33-.08c.07-.04,.11-.11,.11-.21v-.02c0-.26-.07-.46-.21-.6-.14-.14-.35-.21-.64-.21s-.53,.06-.69,.19c-.17,.13-.29,.27-.35,.41l-.59-.21c.1-.24,.25-.44,.42-.57s.37-.23,.58-.29,.41-.08,.62-.08c.13,0,.28,.02,.45,.05,.17,.03,.33,.09,.49,.19,.16,.09,.29,.24,.39,.43,.1,.19,.16,.45,.16,.76v2.65h-.62v-.54h-.03c-.04,.09-.11,.18-.21,.28s-.23,.18-.39,.25c-.16,.07-.36,.11-.59,.11Zm.09-.56c.24,0,.45-.05,.62-.14,.17-.1,.3-.22,.38-.37,.09-.15,.13-.31,.13-.48v-.57s-.08,.06-.17,.08c-.09,.03-.19,.05-.3,.07s-.23,.03-.33,.05c-.11,.01-.19,.02-.26,.03-.16,.02-.31,.05-.45,.1-.14,.05-.25,.12-.34,.21s-.13,.22-.13,.37c0,.21,.08,.38,.24,.49,.16,.11,.36,.16,.61,.16Z" style="fill:#89898f;"/><path d="M202.42,296.5v-4.02h.6v.63h.05c.08-.21,.22-.38,.41-.5,.19-.12,.41-.18,.67-.18s.49,.06,.66,.18c.18,.12,.32,.29,.42,.5h.04c.1-.21,.26-.37,.46-.5,.21-.12,.45-.19,.74-.19,.36,0,.65,.11,.88,.34s.34,.57,.34,1.05v2.69h-.62v-2.69c0-.3-.08-.51-.24-.64-.16-.13-.35-.19-.57-.19-.28,0-.5,.08-.66,.25-.16,.17-.23,.39-.23,.65v2.62h-.63v-2.75c0-.23-.07-.41-.22-.55s-.34-.21-.57-.21c-.16,0-.31,.04-.45,.13-.14,.09-.25,.2-.34,.36-.08,.15-.13,.33-.13,.52v2.51h-.62Z" style="fill:#89898f;"/><path d="M208.82,298.01v-5.53h.6v.64h.07c.05-.07,.11-.16,.19-.27,.08-.11,.2-.21,.35-.29,.15-.09,.36-.13,.62-.13,.34,0,.64,.08,.9,.25,.26,.17,.46,.41,.6,.72,.14,.31,.22,.68,.22,1.1s-.07,.79-.22,1.11c-.15,.31-.35,.55-.6,.72-.26,.17-.55,.26-.89,.26-.26,0-.47-.04-.62-.13-.16-.09-.27-.18-.36-.3-.08-.11-.15-.2-.19-.28h-.05v2.13h-.62Zm.61-3.52c0,.3,.04,.57,.13,.8,.09,.23,.22,.41,.39,.54,.17,.13,.38,.19,.63,.19s.47-.07,.65-.21c.17-.14,.3-.32,.39-.56,.09-.23,.13-.49,.13-.78s-.04-.54-.13-.77-.22-.41-.39-.54c-.17-.13-.39-.2-.65-.2s-.46,.06-.63,.19c-.17,.13-.3,.3-.39,.53-.09,.23-.13,.49-.13,.79Z" style="fill:#89898f;"/><path d="M213.62,291.81c-.12,0-.22-.04-.31-.12s-.13-.18-.13-.3,.04-.21,.13-.3,.19-.12,.31-.12,.22,.04,.31,.12,.13,.18,.13,.3-.04,.21-.13,.3-.19,.12-.31,.12Zm-.31,4.69v-4.02h.62v4.02h-.62Z" style="fill:#89898f;"/><path d="M215.67,294.08v2.42h-.62v-4.02h.6v.63h.05c.09-.2,.24-.37,.43-.49s.44-.19,.74-.19c.27,0,.51,.06,.71,.17,.2,.11,.36,.28,.48,.5,.11,.22,.17,.51,.17,.85v2.56h-.62v-2.51c0-.32-.08-.56-.25-.74-.16-.18-.39-.27-.68-.27-.2,0-.37,.04-.53,.13-.15,.09-.28,.21-.37,.38-.09,.16-.13,.36-.13,.6Z" style="fill:#89898f;"/><path d="M220.98,298.09c-.3,0-.56-.04-.77-.11s-.39-.18-.54-.3-.26-.25-.34-.39l.49-.34c.06,.07,.13,.16,.21,.25,.09,.1,.2,.18,.35,.25,.15,.07,.35,.11,.59,.11,.32,0,.59-.08,.8-.24s.32-.4,.32-.74v-.82h-.05c-.05,.07-.11,.16-.19,.27-.08,.11-.2,.2-.36,.29-.15,.08-.36,.12-.62,.12-.32,0-.62-.08-.87-.23-.26-.15-.46-.38-.61-.67-.15-.29-.22-.65-.22-1.07s.07-.77,.22-1.08c.15-.31,.35-.54,.6-.71,.26-.17,.56-.25,.9-.25,.26,0,.47,.04,.62,.13,.15,.09,.27,.18,.36,.29,.08,.11,.15,.2,.19,.27h.06v-.64h.6v4.14c0,.35-.08,.63-.23,.84-.16,.22-.37,.38-.63,.48-.26,.1-.56,.15-.88,.15Zm-.02-2.21c.25,0,.46-.06,.63-.17,.17-.11,.3-.28,.39-.49,.09-.21,.13-.47,.13-.76s-.04-.54-.13-.77-.22-.4-.39-.52c-.17-.13-.38-.19-.63-.19s-.48,.07-.65,.2c-.17,.13-.3,.31-.39,.53s-.13,.47-.13,.74,.04,.53,.13,.74c.09,.21,.22,.38,.39,.5s.39,.18,.65,.18Z" style="fill:#89898f;"/><path d="M225.99,296.5v-5.36h1.88c.37,0,.68,.06,.92,.19,.24,.13,.42,.3,.54,.52,.12,.21,.18,.45,.18,.72,0,.23-.04,.42-.12,.57-.08,.15-.19,.27-.32,.36-.13,.09-.27,.15-.43,.19v.05c.16,.01,.33,.07,.49,.17,.17,.11,.3,.25,.42,.45,.11,.2,.17,.44,.17,.72s-.06,.51-.18,.73c-.12,.21-.32,.38-.58,.51-.26,.13-.61,.19-1.03,.19h-1.94Zm.65-3.01h1.2c.2,0,.37-.04,.53-.12,.16-.08,.28-.19,.38-.33,.09-.14,.14-.3,.14-.49,0-.24-.08-.44-.25-.6-.16-.16-.42-.25-.78-.25h-1.23v1.78Zm0,2.43h1.29c.42,0,.73-.08,.9-.25,.18-.17,.27-.37,.27-.6,0-.18-.05-.35-.14-.5-.09-.15-.22-.28-.4-.37-.17-.09-.37-.14-.61-.14h-1.32v1.86Z" style="fill:#89898f;"/><path d="M232.38,296.58c-.39,0-.72-.09-1-.26s-.5-.41-.65-.72c-.15-.31-.23-.67-.23-1.08s.08-.78,.23-1.09,.36-.56,.63-.74c.27-.18,.59-.27,.95-.27,.21,0,.42,.04,.62,.11,.2,.07,.39,.18,.56,.34s.3,.36,.4,.62c.1,.26,.15,.57,.15,.95v.26h-3.1v-.53h2.47c0-.23-.04-.43-.13-.61s-.22-.32-.38-.42c-.17-.1-.36-.15-.58-.15-.25,0-.46,.06-.64,.18-.18,.12-.32,.28-.41,.47-.1,.19-.14,.4-.14,.62v.36c0,.3,.05,.56,.16,.77,.11,.21,.25,.37,.44,.48,.19,.11,.41,.16,.66,.16,.16,0,.31-.02,.44-.07,.13-.05,.25-.12,.34-.21,.1-.09,.17-.21,.22-.35l.6,.17c-.06,.2-.17,.38-.32,.53-.15,.15-.33,.27-.55,.36-.22,.08-.46,.13-.74,.13Z" style="fill:#89898f;"/><path d="M236.78,292.48v.52h-2.17v-.52h2.17Zm-1.52,4.02v-4.58c0-.23,.05-.42,.16-.58,.11-.15,.25-.27,.42-.35,.17-.08,.36-.12,.55-.12,.15,0,.28,.01,.37,.04,.1,.02,.17,.05,.21,.07l-.18,.53s-.07-.02-.13-.04c-.05-.02-.13-.02-.22-.02-.2,0-.35,.05-.44,.15-.09,.1-.13,.25-.13,.45v4.43h-.62Z" style="fill:#89898f;"/><path d="M239.27,296.58c-.36,0-.68-.09-.95-.26-.27-.17-.49-.41-.64-.72-.15-.31-.23-.67-.23-1.09s.08-.79,.23-1.1c.15-.31,.37-.55,.64-.73,.27-.17,.59-.26,.95-.26s.68,.09,.95,.26c.27,.17,.49,.42,.64,.73,.15,.31,.23,.68,.23,1.1s-.08,.78-.23,1.09c-.15,.31-.37,.55-.64,.72-.27,.17-.59,.26-.95,.26Zm0-.56c.28,0,.5-.07,.68-.21,.18-.14,.31-.33,.4-.56s.13-.48,.13-.75-.04-.52-.13-.75c-.09-.23-.22-.42-.4-.56-.18-.14-.4-.21-.68-.21s-.5,.07-.68,.21c-.18,.14-.31,.33-.4,.56-.09,.23-.13,.48-.13,.75s.04,.52,.13,.75,.22,.42,.4,.56c.18,.14,.4,.21,.68,.21Z" style="fill:#89898f;"/><path d="M242.03,296.5v-4.02h.6v.61h.04c.07-.2,.21-.36,.4-.48,.19-.12,.41-.19,.65-.19,.05,0,.1,0,.17,0,.07,0,.12,0,.15,0v.63s-.07-.01-.14-.02c-.07-.01-.15-.02-.23-.02-.2,0-.37,.04-.52,.12s-.27,.19-.36,.33c-.09,.14-.13,.3-.13,.49v2.54h-.62Z" style="fill:#89898f;"/><path d="M246.45,296.58c-.39,0-.72-.09-1-.26s-.5-.41-.65-.72c-.15-.31-.23-.67-.23-1.08s.08-.78,.23-1.09,.36-.56,.63-.74c.27-.18,.59-.27,.95-.27,.21,0,.42,.04,.62,.11,.2,.07,.39,.18,.56,.34s.3,.36,.4,.62c.1,.26,.15,.57,.15,.95v.26h-3.1v-.53h2.47c0-.23-.04-.43-.13-.61s-.22-.32-.38-.42c-.17-.1-.36-.15-.58-.15-.25,0-.46,.06-.64,.18-.18,.12-.32,.28-.41,.47-.1,.19-.14,.4-.14,.62v.36c0,.3,.05,.56,.16,.77,.11,.21,.25,.37,.44,.48,.19,.11,.41,.16,.66,.16,.16,0,.31-.02,.44-.07,.13-.05,.25-.12,.34-.21,.1-.09,.17-.21,.22-.35l.6,.17c-.06,.2-.17,.38-.32,.53-.15,.15-.33,.27-.55,.36-.22,.08-.46,.13-.74,.13Z" style="fill:#89898f;"/></g><g><line x1="160.31" y1="95.1" x2="160.31" y2="253.36" style="fill:none; stroke:#cfcfce; stroke-miterlimit:10; stroke-width:.3px;"/><rect x="159.33" y="94.95" width="1.95" height=".3" style="fill:#cfcfce;"/></g><g><line x1="451.34" y1="253.36" x2="160.31" y2="253.36" style="fill:none; stroke:#cfcfce; stroke-miterlimit:10; stroke-width:.3px;"/><rect x="451.19" y="252.39" width=".3" height="1.95" style="fill:#cfcfce;"/></g><g><line x1="448.97" y1="283.64" x2="346.16" y2="283.64" style="fill:none; stroke:#d71219; stroke-dasharray:0 0 1 1; stroke-miterlimit:10; stroke-width:.35px;"/><polygon points="448.46 281.89 451.49 283.64 448.46 285.38 448.46 281.89" style="fill:#d71219;"/></g><rect x="379.29" y="116.63" width="24.12" height="136.65" style="fill:#d71219;"/><rect x="276.12" y="162.09" width="24.12" height="91.19" style="fill:#fff;"/><rect x="222.38" y="183.04" width="24.12" height="70.24" style="fill:#89898f;"/><rect x="187.14" y="202.45" width="24.12" height="50.83" style="fill:#89898f;"/><polygon points="682.91 272.72 676.16 265.62 669.42 258.51 662.68 265.62 655.93 272.72 661.79 272.72 661.79 285.24 677.05 285.24 677.05 272.72 682.91 272.72" style="fill:#89898f;"/><g><line x1="346.16" y1="94.95" x2="346.16" y2="95.45" style="fill:none; stroke:#d71219; stroke-miterlimit:10; stroke-width:.35px;"/><line x1="346.16" y1="96.45" x2="346.16" y2="314.63" style="fill:none; stroke:#d71219; stroke-dasharray:0 0 1 1; stroke-miterlimit:10; stroke-width:.35px;"/><line x1="346.16" y1="315.13" x2="346.16" y2="315.63" style="fill:none; stroke:#d71219; stroke-miterlimit:10; stroke-width:.35px;"/></g><g><path d="M541.18,219.33v-.83h4.97v.83h-2v5.59h-.97v-5.59h-2Z" style="fill:#89898f;"/><path d="M549.19,225.01c-.45,0-.84-.1-1.18-.31s-.6-.5-.78-.87c-.19-.37-.28-.81-.28-1.3s.09-.94,.28-1.31c.19-.37,.45-.66,.78-.87s.73-.31,1.18-.31,.85,.1,1.18,.31c.34,.21,.6,.5,.78,.87s.28,.81,.28,1.31-.09,.93-.28,1.3c-.19,.37-.45,.66-.78,.87-.34,.21-.73,.31-1.18,.31Zm0-.79c.29,0,.54-.08,.73-.23,.19-.15,.33-.36,.43-.62,.09-.26,.14-.54,.14-.85s-.05-.59-.14-.85c-.09-.26-.24-.46-.43-.62-.19-.16-.43-.24-.73-.24s-.54,.08-.73,.24c-.19,.16-.34,.36-.43,.62-.09,.26-.14,.54-.14,.85s.05,.59,.14,.85,.24,.46,.43,.62c.19,.16,.44,.23,.73,.23Z" style="fill:#89898f;"/><path d="M554.72,220.1v.75h-2.63v-.75h2.63Zm-1.92-1.15h.94v4.55c0,.18,.03,.32,.08,.41,.05,.09,.12,.15,.21,.19,.09,.03,.18,.05,.28,.05,.08,0,.14,0,.2-.02,.06,0,.1-.02,.13-.02l.17,.77c-.05,.02-.13,.04-.23,.06-.1,.02-.23,.03-.38,.04-.25,0-.48-.04-.69-.13-.21-.09-.39-.23-.52-.43s-.2-.43-.2-.72v-4.75Z" style="fill:#89898f;"/><path d="M557.15,225.02c-.3,0-.58-.06-.83-.17-.25-.11-.44-.28-.58-.5-.14-.22-.21-.48-.21-.8,0-.27,.05-.5,.16-.67s.25-.31,.42-.42,.38-.18,.6-.23c.22-.05,.44-.09,.67-.12,.29-.03,.52-.06,.7-.08,.18-.02,.31-.06,.39-.11,.08-.05,.12-.13,.12-.24v-.02c0-.27-.08-.49-.23-.64-.15-.15-.38-.23-.69-.23s-.56,.07-.74,.21c-.18,.14-.31,.29-.38,.46l-.88-.2c.1-.29,.26-.53,.46-.71,.2-.18,.43-.31,.7-.39,.26-.08,.54-.12,.83-.12,.19,0,.4,.02,.61,.07,.22,.04,.42,.13,.61,.25,.19,.12,.34,.29,.46,.51,.12,.22,.18,.51,.18,.86v3.2h-.92v-.66h-.04c-.06,.12-.15,.24-.27,.36s-.28,.21-.47,.29c-.19,.08-.42,.12-.68,.12Zm.2-.75c.26,0,.48-.05,.67-.15,.18-.1,.33-.24,.42-.4,.1-.17,.15-.34,.15-.53v-.62s-.1,.06-.19,.09c-.09,.03-.2,.05-.32,.07-.12,.02-.24,.04-.35,.05-.11,.02-.21,.03-.29,.04-.18,.02-.35,.06-.5,.12s-.27,.13-.36,.23-.13,.24-.13,.4c0,.23,.08,.41,.26,.52,.17,.12,.39,.18,.66,.18Z" style="fill:#89898f;"/><path d="M561.7,218.49v6.42h-.94v-6.42h.94Z" style="fill:#89898f;"/><path d="M568.86,220.18c-.03-.3-.17-.53-.41-.69-.24-.16-.55-.25-.92-.25-.26,0-.49,.04-.68,.12-.19,.08-.34,.2-.45,.34-.11,.14-.16,.31-.16,.49,0,.15,.04,.29,.11,.4s.17,.2,.29,.28c.12,.07,.25,.14,.38,.18,.14,.05,.27,.09,.39,.12l.63,.16c.21,.05,.42,.12,.63,.2,.21,.08,.42,.2,.6,.34,.18,.14,.33,.31,.45,.52,.11,.21,.17,.46,.17,.74,0,.36-.09,.69-.28,.97-.19,.28-.46,.5-.81,.67s-.78,.24-1.28,.24-.9-.08-1.25-.23c-.35-.15-.63-.37-.83-.65-.2-.28-.31-.62-.33-1h.97c.02,.23,.09,.42,.23,.58,.13,.15,.3,.27,.51,.34s.44,.11,.69,.11c.27,0,.52-.04,.73-.13,.21-.09,.38-.21,.51-.36,.12-.16,.18-.34,.18-.55,0-.19-.05-.35-.16-.47s-.25-.22-.44-.3c-.18-.08-.39-.15-.62-.21l-.76-.21c-.51-.14-.92-.35-1.22-.62-.3-.27-.45-.63-.45-1.08,0-.37,.1-.69,.3-.97,.2-.28,.47-.49,.82-.64,.34-.15,.73-.23,1.16-.23s.82,.08,1.15,.23c.33,.15,.6,.36,.79,.63,.19,.27,.29,.57,.3,.92h-.93Z" style="fill:#89898f;"/><path d="M572.98,225.01c-.45,0-.84-.1-1.18-.31s-.6-.5-.78-.87c-.19-.37-.28-.81-.28-1.3s.09-.94,.28-1.31c.19-.37,.45-.66,.78-.87s.73-.31,1.18-.31,.85,.1,1.18,.31c.34,.21,.6,.5,.78,.87s.28,.81,.28,1.31-.09,.93-.28,1.3c-.19,.37-.45,.66-.78,.87-.34,.21-.73,.31-1.18,.31Zm0-.79c.29,0,.54-.08,.73-.23,.19-.15,.33-.36,.43-.62,.09-.26,.14-.54,.14-.85s-.05-.59-.14-.85c-.09-.26-.24-.46-.43-.62-.19-.16-.43-.24-.73-.24s-.54,.08-.73,.24c-.19,.16-.34,.36-.43,.62-.09,.26-.14,.54-.14,.85s.05,.59,.14,.85,.24,.46,.43,.62c.19,.16,.44,.23,.73,.23Z" style="fill:#89898f;"/><path d="M577.2,218.49v6.42h-.94v-6.42h.94Z" style="fill:#89898f;"/><path d="M580.25,225.01c-.39,0-.74-.1-1.04-.3-.3-.2-.54-.49-.71-.86s-.26-.82-.26-1.34,.09-.97,.26-1.33c.17-.37,.41-.65,.72-.85,.3-.2,.65-.29,1.04-.29,.3,0,.54,.05,.72,.15,.18,.1,.33,.21,.43,.35s.18,.25,.24,.35h.06v-2.38h.94v6.42h-.92v-.75h-.08c-.06,.1-.14,.22-.24,.35s-.25,.25-.43,.34c-.18,.1-.42,.15-.71,.15Zm.21-.8c.27,0,.5-.07,.68-.21,.19-.14,.33-.34,.43-.6s.15-.55,.15-.89-.05-.63-.14-.88c-.1-.25-.24-.45-.42-.59-.19-.14-.42-.21-.69-.21s-.52,.07-.71,.22c-.19,.15-.33,.35-.42,.6-.1,.25-.14,.54-.14,.86s.05,.61,.14,.87c.1,.26,.24,.46,.43,.61,.19,.15,.42,.22,.7,.22Z" style="fill:#89898f;"/><path d="M584.24,222.25c0-.79,.1-1.51,.31-2.17s.51-1.27,.91-1.83h.86c-.16,.21-.3,.46-.43,.76-.13,.3-.25,.63-.35,.99s-.18,.73-.24,1.11c-.06,.38-.08,.76-.08,1.13,0,.5,.05,1,.15,1.51,.1,.51,.23,.98,.4,1.42s.35,.79,.56,1.07h-.86c-.4-.56-.7-1.17-.91-1.83s-.31-1.38-.31-2.17Z" style="fill:#89898f;"/><path d="M592.94,221.7c0,.69-.12,1.27-.38,1.77s-.59,.87-1.03,1.13c-.44,.26-.93,.4-1.48,.4s-1.05-.13-1.49-.4-.78-.64-1.03-1.14c-.25-.49-.38-1.08-.38-1.76s.13-1.27,.38-1.77c.25-.49,.59-.87,1.03-1.13,.44-.26,.93-.4,1.49-.4s1.05,.13,1.48,.4c.44,.26,.78,.64,1.03,1.13s.38,1.08,.38,1.77Zm-.96,0c0-.52-.08-.96-.25-1.32-.17-.36-.4-.63-.69-.82-.29-.18-.62-.28-.99-.28s-.7,.09-.99,.28-.52,.46-.69,.82c-.17,.36-.25,.8-.25,1.32s.08,.96,.25,1.32c.17,.36,.4,.63,.69,.82,.29,.18,.62,.28,.99,.28s.7-.09,.99-.28c.29-.19,.52-.46,.69-.82,.17-.36,.25-.8,.25-1.32Zm-2.26,1.13h.95l.67,.88,.32,.39,1.07,1.4h-.99l-.71-.93-.24-.34-1.06-1.39Z" style="fill:#89898f;"/><path d="M595.87,222.25c0,.79-.1,1.51-.31,2.17s-.51,1.27-.91,1.83h-.86c.15-.21,.3-.46,.43-.76,.13-.3,.25-.63,.35-.99,.1-.36,.18-.73,.23-1.12,.06-.38,.08-.76,.08-1.13,0-.5-.05-1-.15-1.51s-.23-.98-.4-1.42c-.17-.44-.35-.79-.56-1.07h.86c.4,.56,.7,1.17,.91,1.83s.31,1.38,.31,2.17Z" style="fill:#89898f;"/></g><g><path d="M548.46,261.67c1.16,0,2.27,.19,3.34,.58,1.07,.39,2.03,1.01,2.88,1.86,.84,.85,1.51,1.97,2.01,3.38,.49,1.4,.75,3.12,.75,5.16,0,1.91-.21,3.61-.64,5.11-.43,1.5-1.04,2.77-1.84,3.81-.8,1.05-1.76,1.84-2.89,2.39s-2.39,.82-3.78,.82c-1.5,0-2.83-.29-3.97-.87s-2.07-1.38-2.77-2.38c-.7-1.01-1.12-2.14-1.27-3.4h4.69c.18,.82,.57,1.46,1.15,1.91,.58,.45,1.31,.67,2.17,.67,1.46,0,2.58-.64,3.34-1.92,.76-1.28,1.15-3.03,1.15-5.25h-.15c-.34,.66-.79,1.22-1.36,1.7-.57,.47-1.22,.84-1.96,1.09-.74,.26-1.52,.38-2.34,.38-1.32,0-2.51-.31-3.55-.93-1.04-.62-1.86-1.48-2.46-2.57-.6-1.09-.9-2.33-.9-3.73,0-1.51,.34-2.85,1.04-4.03,.7-1.18,1.69-2.1,2.95-2.77,1.26-.67,2.73-1,4.41-.99Zm.03,3.73c-.74,0-1.4,.18-1.97,.53-.57,.35-1.03,.82-1.36,1.42s-.5,1.25-.49,1.99c0,.74,.16,1.4,.49,1.99,.33,.59,.77,1.06,1.34,1.41,.57,.35,1.22,.52,1.95,.52,.55,0,1.06-.1,1.53-.31,.47-.2,.88-.49,1.22-.85s.62-.78,.82-1.26c.2-.48,.3-.98,.3-1.52,0-.71-.18-1.36-.5-1.95s-.78-1.07-1.36-1.43-1.23-.54-1.95-.54Z" style="fill:#89898f;"/><path d="M560.37,280.51v-3.74l9.39-14.79h3.23v5.18h-1.91l-5.92,9.36v.18h13.34v3.81h-18.12Zm10.79,3.95v-5.09l.09-1.66v-15.73h4.46v22.48h-4.55Z" style="fill:#89898f;"/><path d="M583.99,284.75c-.72,0-1.34-.26-1.86-.77s-.77-1.14-.77-1.86,.26-1.33,.77-1.84c.52-.51,1.14-.77,1.86-.77s1.32,.26,1.84,.77c.53,.51,.79,1.13,.79,1.84,0,.48-.12,.92-.37,1.32-.25,.4-.57,.72-.96,.96-.4,.24-.83,.36-1.31,.36Z" style="fill:#89898f;"/><path d="M590.38,284.47v-3.42l8-7.41c.68-.66,1.25-1.25,1.72-1.78s.82-1.04,1.06-1.55c.24-.51,.36-1.06,.36-1.65,0-.66-.15-1.23-.45-1.71-.3-.48-.71-.85-1.23-1.11-.52-.26-1.11-.39-1.77-.39s-1.29,.14-1.8,.42-.91,.68-1.19,1.2c-.28,.52-.42,1.14-.42,1.86h-4.51c0-1.47,.33-2.75,1-3.83s1.6-1.92,2.8-2.51c1.2-.59,2.58-.89,4.15-.89s3.01,.28,4.21,.85c1.2,.57,2.13,1.35,2.79,2.36,.67,1,1,2.15,1,3.45,0,.85-.17,1.69-.5,2.51s-.92,1.74-1.77,2.75c-.85,1.01-2.05,2.21-3.59,3.62l-3.28,3.22v.15h9.44v3.89h-16.03Z" style="fill:#89898f;"/><path d="M610.72,284.47l9.32-18.44v-.15h-10.86v-3.89h15.78v3.94l-9.33,18.54h-4.91Z" style="fill:#89898f;"/><path d="M628.95,267.38v-1.19c0-.91,.19-1.74,.58-2.5s.95-1.36,1.69-1.82c.74-.45,1.63-.68,2.67-.68s1.99,.23,2.72,.68c.73,.45,1.29,1.06,1.67,1.82,.38,.76,.57,1.59,.57,2.5v1.19c0,.91-.19,1.74-.58,2.49-.38,.75-.94,1.36-1.68,1.81s-1.64,.67-2.71,.67-1.97-.23-2.71-.69c-.74-.46-1.29-1.06-1.67-1.81s-.57-1.58-.57-2.48Zm1.45,17.08l15.46-22.48h2.88l-15.46,22.48h-2.88Zm1.77-18.27v1.19c0,.53,.13,1.03,.38,1.48,.25,.45,.7,.68,1.34,.68s1.13-.23,1.38-.68c.25-.45,.37-.95,.37-1.48v-1.19c0-.53-.12-1.03-.35-1.49-.23-.46-.7-.69-1.39-.69-.65,0-1.1,.23-1.35,.7s-.37,.96-.37,1.48Zm8.32,14.05v-1.19c0-.9,.19-1.73,.58-2.49,.38-.76,.94-1.37,1.68-1.82,.74-.46,1.63-.69,2.7-.69s1.98,.23,2.72,.68,1.29,1.06,1.67,1.82c.38,.76,.57,1.59,.57,2.5v1.19c0,.9-.19,1.73-.57,2.49-.38,.76-.94,1.37-1.68,1.82-.74,.46-1.64,.69-2.7,.69s-1.98-.23-2.71-.69c-.73-.46-1.29-1.07-1.67-1.82-.38-.76-.57-1.59-.57-2.49Zm3.2-1.19v1.19c0,.52,.13,1.01,.38,1.47,.25,.46,.71,.69,1.38,.69s1.12-.23,1.37-.68,.37-.95,.37-1.48v-1.19c0-.53-.12-1.03-.35-1.49s-.7-.69-1.38-.69-1.12,.23-1.37,.69-.38,.96-.38,1.49Z" style="fill:#89898f;"/></g><g><path d="M548.88,134.66c-.1-.31-.23-.59-.4-.84-.17-.25-.37-.46-.6-.64s-.5-.31-.8-.4c-.3-.09-.63-.14-.98-.14-.63,0-1.2,.16-1.7,.48-.5,.32-.88,.79-1.17,1.4-.28,.62-.42,1.37-.42,2.25s.14,1.65,.42,2.27c.28,.62,.67,1.09,1.17,1.41s1.08,.48,1.74,.48c.6,0,1.12-.12,1.56-.35,.44-.23,.78-.56,1.02-.98,.24-.42,.36-.92,.36-1.5l.48,.08h-3.21v-1.67h4.79v1.42c0,1.01-.22,1.89-.65,2.62s-1.02,1.31-1.78,1.71-1.62,.6-2.6,.6c-1.09,0-2.04-.25-2.86-.74-.82-.49-1.46-1.19-1.92-2.09-.46-.91-.69-1.98-.69-3.23,0-.95,.14-1.81,.41-2.56,.27-.75,.65-1.39,1.14-1.91,.49-.52,1.06-.92,1.72-1.2,.66-.27,1.37-.41,2.15-.41,.65,0,1.26,.1,1.83,.29,.57,.19,1.07,.46,1.51,.81,.44,.35,.8,.76,1.09,1.25,.29,.48,.47,1.01,.56,1.59h-2.18Z" style="fill:#2f3032;"/><path d="M553.12,142.7v-8.86h2.03v1.48h.09c.16-.51,.44-.91,.83-1.19,.39-.28,.84-.42,1.35-.42,.12,0,.25,0,.39,.01s.26,.02,.36,.04v1.92c-.09-.03-.23-.06-.42-.08-.19-.02-.37-.04-.55-.04-.38,0-.72,.08-1.02,.25-.3,.16-.54,.39-.71,.68-.17,.29-.26,.62-.26,1v5.21h-2.09Z" style="fill:#2f3032;"/><path d="M563.41,142.87c-.87,0-1.62-.19-2.25-.57s-1.13-.91-1.47-1.6c-.35-.68-.52-1.48-.52-2.4s.17-1.72,.52-2.41c.35-.69,.84-1.22,1.47-1.6s1.38-.57,2.25-.57,1.62,.19,2.25,.57,1.13,.92,1.47,1.6c.35,.69,.52,1.49,.52,2.41s-.17,1.72-.52,2.4c-.35,.68-.84,1.22-1.47,1.6s-1.38,.57-2.25,.57Zm.01-1.67c.47,0,.86-.13,1.18-.39s.55-.61,.71-1.05,.23-.93,.23-1.47-.08-1.03-.23-1.47-.39-.79-.71-1.05c-.32-.26-.71-.39-1.18-.39s-.88,.13-1.2,.39c-.32,.26-.55,.61-.71,1.05-.16,.44-.23,.93-.23,1.47s.08,1.03,.23,1.47c.16,.44,.39,.79,.71,1.05s.72,.39,1.2,.39Z" style="fill:#2f3032;"/><path d="M571.24,142.7l-2.5-8.86h2.13l1.56,6.23h.08l1.59-6.23h2.11l1.59,6.2h.09l1.53-6.2h2.13l-2.51,8.86h-2.17l-1.66-5.99h-.12l-1.66,5.99h-2.18Z" style="fill:#2f3032;"/><path d="M587.42,133.84v1.62h-5.09v-1.62h5.09Zm-3.84-2.12h2.09v8.32c0,.28,.04,.5,.13,.64,.09,.15,.2,.25,.34,.3,.14,.05,.3,.08,.47,.08,.13,0,.25,0,.36-.03,.11-.02,.19-.04,.25-.05l.35,1.63c-.11,.04-.27,.08-.48,.13-.21,.05-.46,.07-.75,.08-.52,.02-.99-.06-1.41-.24s-.75-.45-1-.82-.36-.83-.36-1.38v-8.67Z" style="fill:#2f3032;"/><path d="M591.24,137.51v5.19h-2.09v-11.82h2.04v4.46h.1c.21-.5,.53-.89,.97-1.19,.44-.29,.99-.44,1.67-.44,.62,0,1.15,.13,1.61,.39s.81,.63,1.06,1.13,.38,1.1,.38,1.82v5.64h-2.09v-5.32c0-.6-.15-1.06-.46-1.39-.31-.33-.73-.5-1.28-.5-.37,0-.7,.08-.99,.24-.29,.16-.52,.39-.68,.69-.16,.3-.25,.66-.25,1.09Z" style="fill:#2f3032;"/><path d="M603.2,142.7v-11.82h4.43c.91,0,1.67,.16,2.29,.47s1.08,.76,1.4,1.32,.48,1.23,.48,1.98-.16,1.42-.48,1.97-.79,.98-1.42,1.29-1.39,.45-2.3,.45h-3.16v-1.78h2.87c.53,0,.96-.07,1.3-.22s.59-.37,.75-.65c.16-.29,.25-.64,.25-1.06s-.08-.78-.25-1.08c-.17-.3-.42-.52-.76-.68-.34-.16-.78-.23-1.31-.23h-1.96v10.03h-2.14Zm6.1-5.35l2.92,5.35h-2.39l-2.87-5.35h2.34Z" style="fill:#2f3032;"/><path d="M616.21,142.88c-.56,0-1.07-.1-1.51-.3s-.8-.5-1.06-.9c-.26-.4-.39-.88-.39-1.46,0-.5,.09-.91,.28-1.24,.18-.33,.44-.59,.76-.78s.68-.35,1.08-.45c.4-.1,.82-.18,1.25-.22,.52-.05,.94-.1,1.26-.15s.56-.11,.71-.21c.15-.09,.22-.24,.22-.44v-.03c0-.43-.13-.77-.39-1.01s-.63-.36-1.11-.36c-.51,0-.92,.11-1.21,.33-.3,.22-.5,.49-.6,.79l-1.95-.28c.15-.54,.41-.99,.76-1.35,.35-.36,.79-.64,1.3-.82s1.08-.27,1.7-.27c.43,0,.85,.05,1.28,.15,.42,.1,.81,.26,1.16,.49,.35,.23,.63,.54,.85,.93,.21,.39,.32,.88,.32,1.47v5.93h-2.01v-1.22h-.07c-.13,.25-.3,.48-.53,.69-.23,.21-.52,.38-.86,.51-.34,.13-.75,.19-1.21,.19Zm.54-1.53c.42,0,.78-.08,1.09-.25,.31-.17,.54-.39,.71-.67,.17-.28,.25-.58,.25-.91v-1.04c-.07,.05-.18,.1-.33,.15-.16,.05-.33,.09-.52,.12s-.38,.07-.57,.09c-.19,.03-.35,.05-.49,.07-.31,.04-.59,.11-.84,.21-.25,.1-.44,.23-.58,.4s-.21,.39-.21,.66c0,.38,.14,.67,.42,.87,.28,.2,.64,.29,1.07,.29Z" style="fill:#2f3032;"/><path d="M627.41,133.84v1.62h-5.09v-1.62h5.09Zm-3.84-2.12h2.09v8.32c0,.28,.04,.5,.13,.64,.09,.15,.2,.25,.34,.3,.14,.05,.3,.08,.47,.08,.13,0,.25,0,.36-.03,.11-.02,.19-.04,.25-.05l.35,1.63c-.11,.04-.27,.08-.48,.13-.21,.05-.46,.07-.75,.08-.52,.02-.99-.06-1.41-.24s-.75-.45-1-.82-.36-.83-.36-1.38v-8.67Z" style="fill:#2f3032;"/><path d="M633.06,142.87c-.89,0-1.65-.19-2.3-.56s-1.14-.9-1.49-1.58c-.35-.68-.52-1.49-.52-2.41s.17-1.71,.52-2.4c.35-.69,.83-1.23,1.46-1.62s1.36-.58,2.21-.58c.55,0,1.06,.09,1.55,.26,.49,.17,.92,.45,1.29,.81s.67,.83,.89,1.39c.21,.56,.32,1.23,.32,2.01v.64h-7.26v-1.41h5.26c0-.4-.09-.76-.26-1.07-.17-.31-.41-.56-.71-.74s-.65-.27-1.05-.27c-.43,0-.8,.1-1.12,.31-.32,.21-.57,.48-.75,.81-.18,.33-.27,.7-.27,1.09v1.23c0,.52,.09,.96,.28,1.32s.45,.65,.79,.84c.34,.19,.73,.29,1.19,.29,.3,0,.58-.04,.83-.13,.25-.09,.46-.21,.64-.38,.18-.17,.32-.38,.41-.63l1.95,.22c-.12,.52-.36,.96-.7,1.35-.34,.38-.78,.68-1.32,.89-.53,.21-1.15,.31-1.83,.31Z" style="fill:#2f3032;"/></g><polygon points="682.91 170.65 676.16 163.54 669.42 156.43 662.68 163.54 655.93 170.65 661.79 170.65 661.79 183.17 677.05 183.17 677.05 170.65 682.91 170.65" style="fill:#2f3032;"/><g><path d="M541.5,122.84v-6.42h2.35c.46,0,.83,.07,1.13,.22s.52,.35,.67,.61,.22,.54,.22,.86c0,.27-.05,.49-.15,.67-.1,.18-.23,.33-.39,.44-.16,.11-.34,.19-.54,.24v.06c.21,0,.42,.08,.63,.21,.2,.13,.37,.31,.51,.54,.13,.23,.2,.51,.2,.85s-.08,.62-.23,.88c-.15,.26-.39,.47-.71,.62-.32,.15-.73,.23-1.23,.23h-2.46Zm.97-3.64h1.3c.22,0,.41-.04,.59-.13,.17-.08,.31-.2,.42-.35s.16-.33,.16-.54c0-.27-.09-.49-.28-.67-.19-.18-.47-.27-.86-.27h-1.32v1.95Zm0,2.81h1.4c.46,0,.8-.09,1-.27,.2-.18,.3-.4,.3-.67,0-.2-.05-.39-.15-.56-.1-.17-.25-.3-.44-.4-.19-.1-.41-.15-.67-.15h-1.43v2.06Z" style="fill:#2f3032;"/><path d="M547.19,122.84v-4.82h.91v.76h.05c.09-.26,.24-.46,.47-.61s.47-.22,.76-.22c.06,0,.13,0,.21,0,.08,0,.14,0,.19,.02v.9s-.1-.02-.2-.04c-.1-.01-.19-.02-.29-.02-.22,0-.42,.05-.59,.14-.17,.09-.31,.22-.41,.39s-.15,.35-.15,.56v2.94h-.94Z" style="fill:#2f3032;"/><path d="M551.93,122.94c-.3,0-.58-.06-.83-.17-.25-.11-.44-.28-.58-.5-.14-.22-.21-.48-.21-.8,0-.27,.05-.5,.16-.67s.25-.31,.42-.42,.38-.18,.6-.23c.22-.05,.44-.09,.67-.12,.29-.03,.52-.06,.7-.08,.18-.02,.31-.06,.39-.11,.08-.05,.12-.13,.12-.24v-.02c0-.27-.08-.49-.23-.64-.15-.15-.38-.23-.69-.23s-.56,.07-.74,.21c-.18,.14-.31,.29-.38,.46l-.88-.2c.1-.29,.26-.53,.46-.71,.2-.18,.43-.31,.7-.39,.26-.08,.54-.12,.83-.12,.19,0,.4,.02,.61,.07,.22,.04,.42,.13,.61,.25,.19,.12,.34,.29,.46,.51,.12,.22,.18,.51,.18,.86v3.2h-.92v-.66h-.04c-.06,.12-.15,.24-.27,.36s-.28,.21-.47,.29c-.19,.08-.42,.12-.68,.12Zm.2-.75c.26,0,.48-.05,.67-.15,.18-.1,.33-.24,.42-.4,.1-.17,.15-.34,.15-.53v-.62s-.1,.06-.19,.09c-.09,.03-.2,.05-.32,.07-.12,.02-.24,.04-.35,.05-.11,.02-.21,.03-.29,.04-.18,.02-.35,.06-.5,.12s-.27,.13-.36,.23-.13,.24-.13,.4c0,.23,.08,.41,.26,.52,.17,.12,.39,.18,.66,.18Z" style="fill:#2f3032;"/><path d="M556.48,119.98v2.86h-.94v-4.82h.9v.78h.06c.11-.25,.28-.46,.52-.61,.24-.16,.54-.23,.9-.23,.33,0,.62,.07,.86,.21,.25,.14,.44,.34,.57,.61s.2,.6,.2,1v3.06h-.94v-2.95c0-.35-.09-.62-.27-.82-.18-.2-.43-.3-.75-.3-.22,0-.41,.05-.58,.14s-.3,.23-.4,.41c-.1,.18-.15,.4-.15,.65Z" style="fill:#2f3032;"/><path d="M562.61,122.93c-.39,0-.74-.1-1.04-.3-.3-.2-.54-.49-.71-.86s-.26-.82-.26-1.34,.09-.97,.26-1.33c.17-.37,.41-.65,.72-.85,.3-.2,.65-.29,1.04-.29,.3,0,.54,.05,.72,.15,.18,.1,.33,.21,.43,.35s.18,.25,.24,.35h.06v-2.38h.94v6.42h-.92v-.75h-.08c-.06,.1-.14,.22-.24,.35s-.25,.25-.43,.34c-.18,.1-.42,.15-.71,.15Zm.21-.8c.27,0,.5-.07,.68-.21,.19-.14,.33-.34,.43-.6s.15-.55,.15-.89-.05-.63-.14-.88c-.1-.25-.24-.45-.42-.59-.19-.14-.42-.21-.69-.21s-.52,.07-.71,.22c-.19,.15-.33,.35-.42,.6-.1,.25-.14,.54-.14,.86s.05,.61,.14,.87c.1,.26,.24,.46,.43,.61,.19,.15,.42,.22,.7,.22Z" style="fill:#2f3032;"/><path d="M572.23,118.1c-.03-.3-.17-.53-.41-.69-.24-.16-.55-.25-.92-.25-.26,0-.49,.04-.68,.12-.19,.08-.34,.2-.45,.34-.11,.14-.16,.31-.16,.49,0,.15,.04,.29,.11,.4s.17,.2,.29,.28c.12,.07,.25,.14,.38,.18,.14,.05,.27,.09,.39,.12l.63,.16c.21,.05,.42,.12,.63,.2,.21,.08,.42,.2,.6,.34,.18,.14,.33,.31,.45,.52,.11,.21,.17,.46,.17,.74,0,.36-.09,.69-.28,.97-.19,.28-.46,.5-.81,.67s-.78,.24-1.28,.24-.9-.08-1.25-.23c-.35-.15-.63-.37-.83-.65-.2-.28-.31-.62-.33-1h.97c.02,.23,.09,.42,.23,.58,.13,.15,.3,.27,.51,.34s.44,.11,.69,.11c.27,0,.52-.04,.73-.13,.21-.09,.38-.21,.51-.36,.12-.16,.18-.34,.18-.55,0-.19-.05-.35-.16-.47s-.25-.22-.44-.3c-.18-.08-.39-.15-.62-.21l-.76-.21c-.51-.14-.92-.35-1.22-.62-.3-.27-.45-.63-.45-1.08,0-.37,.1-.69,.3-.97,.2-.28,.47-.49,.82-.64,.34-.15,.73-.23,1.16-.23s.82,.08,1.15,.23c.33,.15,.6,.36,.79,.63,.19,.27,.29,.57,.3,.92h-.93Z" style="fill:#2f3032;"/><path d="M575.73,122.94c-.3,0-.58-.06-.83-.17-.25-.11-.44-.28-.58-.5-.14-.22-.21-.48-.21-.8,0-.27,.05-.5,.16-.67s.25-.31,.42-.42,.38-.18,.6-.23c.22-.05,.44-.09,.67-.12,.29-.03,.52-.06,.7-.08,.18-.02,.31-.06,.39-.11,.08-.05,.12-.13,.12-.24v-.02c0-.27-.08-.49-.23-.64-.15-.15-.38-.23-.69-.23s-.56,.07-.74,.21c-.18,.14-.31,.29-.38,.46l-.88-.2c.1-.29,.26-.53,.46-.71,.2-.18,.43-.31,.7-.39,.26-.08,.54-.12,.83-.12,.19,0,.4,.02,.61,.07,.22,.04,.42,.13,.61,.25,.19,.12,.34,.29,.46,.51,.12,.22,.18,.51,.18,.86v3.2h-.92v-.66h-.04c-.06,.12-.15,.24-.27,.36s-.28,.21-.47,.29c-.19,.08-.42,.12-.68,.12Zm.2-.75c.26,0,.48-.05,.67-.15,.18-.1,.33-.24,.42-.4,.1-.17,.15-.34,.15-.53v-.62s-.1,.06-.19,.09c-.09,.03-.2,.05-.32,.07-.12,.02-.24,.04-.35,.05-.11,.02-.21,.03-.29,.04-.18,.02-.35,.06-.5,.12s-.27,.13-.36,.23-.13,.24-.13,.4c0,.23,.08,.41,.26,.52,.17,.12,.39,.18,.66,.18Z" style="fill:#2f3032;"/><path d="M580.28,116.42v6.42h-.94v-6.42h.94Z" style="fill:#2f3032;"/><path d="M583.61,122.93c-.47,0-.88-.1-1.22-.31-.34-.2-.61-.49-.79-.86-.19-.37-.28-.81-.28-1.31s.09-.93,.28-1.3c.18-.38,.44-.67,.78-.88s.72-.32,1.17-.32c.27,0,.54,.04,.79,.13s.48,.23,.69,.42,.36,.44,.48,.75,.18,.68,.18,1.11v.33h-3.83v-.7h2.91c0-.25-.05-.46-.15-.66-.1-.19-.24-.34-.42-.45-.18-.11-.39-.17-.63-.17-.26,0-.49,.06-.69,.19-.2,.13-.35,.3-.45,.5-.11,.21-.16,.43-.16,.67v.55c0,.32,.06,.6,.17,.82,.11,.23,.27,.4,.48,.52s.44,.18,.72,.18c.18,0,.34-.03,.49-.08,.15-.05,.27-.13,.38-.23s.19-.23,.24-.38l.89,.16c-.07,.26-.2,.49-.38,.69s-.41,.35-.69,.45c-.28,.11-.59,.16-.94,.16Z" style="fill:#2f3032;"/><path d="M590.32,119.2l-.85,.15c-.04-.11-.09-.21-.17-.31-.08-.1-.18-.18-.31-.24-.13-.06-.29-.09-.49-.09-.27,0-.49,.06-.67,.18s-.27,.27-.27,.46c0,.16,.06,.29,.18,.39,.12,.1,.31,.18,.58,.24l.76,.18c.44,.1,.77,.26,.99,.47,.22,.21,.33,.49,.33,.83,0,.29-.08,.54-.25,.77s-.4,.4-.69,.53c-.3,.13-.64,.19-1.03,.19-.54,0-.98-.12-1.32-.35-.34-.23-.55-.56-.63-.99l.91-.14c.06,.24,.17,.41,.35,.53s.4,.18,.69,.18c.31,0,.55-.06,.74-.19,.18-.13,.28-.29,.28-.47,0-.15-.06-.28-.17-.38-.11-.1-.28-.18-.51-.23l-.81-.18c-.45-.1-.78-.26-1-.49-.21-.22-.32-.51-.32-.85,0-.28,.08-.53,.24-.75,.16-.21,.38-.38,.66-.5,.28-.12,.6-.18,.96-.18,.52,0,.93,.11,1.23,.34s.5,.53,.59,.9Z" style="fill:#2f3032;"/><path d="M591.7,120.17c0-.79,.1-1.51,.31-2.17s.51-1.27,.91-1.83h.86c-.16,.21-.3,.46-.43,.76-.13,.3-.25,.63-.35,.99s-.18,.73-.24,1.11c-.06,.38-.08,.76-.08,1.13,0,.5,.05,1,.15,1.51,.1,.51,.23,.98,.4,1.42s.35,.79,.56,1.07h-.86c-.4-.56-.7-1.17-.91-1.83s-.31-1.38-.31-2.17Z" style="fill:#2f3032;"/><path d="M598.34,118.1c-.03-.3-.17-.53-.41-.69-.24-.16-.55-.25-.92-.25-.26,0-.49,.04-.68,.12-.19,.08-.34,.2-.45,.34-.11,.14-.16,.31-.16,.49,0,.15,.04,.29,.11,.4s.17,.2,.29,.28c.12,.07,.25,.14,.38,.18,.14,.05,.27,.09,.39,.12l.63,.16c.21,.05,.42,.12,.63,.2,.21,.08,.42,.2,.6,.34,.18,.14,.33,.31,.45,.52,.11,.21,.17,.46,.17,.74,0,.36-.09,.69-.28,.97-.19,.28-.46,.5-.81,.67s-.78,.24-1.28,.24-.9-.08-1.25-.23c-.35-.15-.63-.37-.83-.65-.2-.28-.31-.62-.33-1h.97c.02,.23,.09,.42,.23,.58,.13,.15,.3,.27,.51,.34s.44,.11,.69,.11c.27,0,.52-.04,.73-.13,.21-.09,.38-.21,.51-.36,.12-.16,.18-.34,.18-.55,0-.19-.05-.35-.16-.47s-.25-.22-.44-.3c-.18-.08-.39-.15-.62-.21l-.76-.21c-.51-.14-.92-.35-1.22-.62-.3-.27-.45-.63-.45-1.08,0-.37,.1-.69,.3-.97,.2-.28,.47-.49,.82-.64,.34-.15,.73-.23,1.16-.23s.82,.08,1.15,.23c.33,.15,.6,.36,.79,.63,.19,.27,.29,.57,.3,.92h-.93Zm-1.61,5.54v-8.03h.51v8.03h-.51Z" style="fill:#2f3032;"/><path d="M602.23,120.17c0,.79-.1,1.51-.31,2.17s-.51,1.27-.91,1.83h-.86c.15-.21,.3-.46,.43-.76,.13-.3,.25-.63,.35-.99,.1-.36,.18-.73,.23-1.12,.06-.38,.08-.76,.08-1.13,0-.5-.05-1-.15-1.51s-.23-.98-.4-1.42c-.17-.44-.35-.79-.56-1.07h.86c.4,.56,.7,1.17,.91,1.83s.31,1.38,.31,2.17Z" style="fill:#2f3032;"/></g><g><path d="M548.46,159.6c1.16,0,2.27,.19,3.34,.58,1.07,.39,2.03,1.01,2.88,1.86,.84,.85,1.51,1.97,2.01,3.38,.49,1.4,.75,3.12,.75,5.16,0,1.91-.21,3.61-.64,5.11-.43,1.5-1.04,2.77-1.84,3.81-.8,1.05-1.76,1.84-2.89,2.39s-2.39,.82-3.78,.82c-1.5,0-2.83-.29-3.97-.87s-2.07-1.38-2.77-2.38c-.7-1.01-1.12-2.14-1.27-3.4h4.69c.18,.82,.57,1.46,1.15,1.91,.58,.45,1.31,.67,2.17,.67,1.46,0,2.58-.64,3.34-1.92,.76-1.28,1.15-3.03,1.15-5.25h-.15c-.34,.66-.79,1.22-1.36,1.7-.57,.47-1.22,.84-1.96,1.09-.74,.26-1.52,.38-2.34,.38-1.32,0-2.51-.31-3.55-.93-1.04-.62-1.86-1.48-2.46-2.57-.6-1.09-.9-2.33-.9-3.73,0-1.51,.34-2.85,1.04-4.03,.7-1.18,1.69-2.1,2.95-2.77,1.26-.67,2.73-1,4.41-.99Zm.03,3.73c-.74,0-1.4,.18-1.97,.53-.57,.35-1.03,.82-1.36,1.42s-.5,1.25-.49,1.99c0,.74,.16,1.4,.49,1.99,.33,.59,.77,1.06,1.34,1.41,.57,.35,1.22,.52,1.95,.52,.55,0,1.06-.1,1.53-.31,.47-.2,.88-.49,1.22-.85s.62-.78,.82-1.26c.2-.48,.3-.98,.3-1.52,0-.71-.18-1.36-.5-1.95s-.78-1.07-1.36-1.43-1.23-.54-1.95-.54Z" style="fill:#2f3032;"/><path d="M569.09,182.7c-1.69,0-3.19-.28-4.51-.83s-2.34-1.31-3.09-2.27c-.75-.96-1.12-2.05-1.12-3.26,0-.94,.21-1.8,.64-2.59,.43-.79,1.01-1.44,1.75-1.96s1.57-.86,2.48-1v-.15c-1.2-.24-2.17-.83-2.92-1.75-.75-.93-1.12-2-1.12-3.23,0-1.16,.34-2.2,1.02-3.11s1.62-1.63,2.8-2.15,2.54-.79,4.06-.79,2.87,.26,4.06,.79c1.19,.53,2.12,1.25,2.8,2.16s1.02,1.95,1.03,3.1c0,1.24-.39,2.32-1.14,3.24-.75,.92-1.72,1.5-2.9,1.75v.15c.9,.15,1.72,.48,2.45,1,.74,.52,1.32,1.18,1.76,1.96,.44,.79,.66,1.65,.66,2.59,0,1.21-.38,2.3-1.13,3.26-.75,.96-1.78,1.71-3.09,2.27-1.31,.55-2.82,.83-4.51,.83Zm0-3.49c.75,0,1.41-.14,1.98-.41s1-.65,1.32-1.14c.32-.49,.48-1.05,.48-1.68s-.17-1.23-.49-1.73-.78-.9-1.34-1.19-1.21-.43-1.94-.43-1.37,.14-1.94,.43c-.57,.29-1.02,.68-1.34,1.19-.33,.5-.49,1.08-.49,1.73s.16,1.2,.47,1.68c.31,.49,.76,.87,1.33,1.14,.57,.27,1.23,.41,1.98,.41Zm0-10.04c.63,0,1.19-.13,1.68-.38,.49-.26,.87-.61,1.15-1.06,.28-.45,.42-.98,.42-1.57s-.14-1.1-.42-1.54c-.28-.44-.66-.79-1.14-1.04-.48-.25-1.05-.38-1.69-.38s-1.2,.13-1.69,.38c-.49,.25-.87,.6-1.15,1.04-.27,.44-.41,.96-.41,1.54s.14,1.12,.42,1.57c.28,.45,.66,.81,1.15,1.06,.49,.26,1.05,.38,1.68,.38Z" style="fill:#2f3032;"/><path d="M583.88,182.67c-.72,0-1.34-.26-1.86-.77s-.77-1.14-.77-1.86,.26-1.33,.77-1.84c.52-.51,1.14-.77,1.86-.77s1.32,.26,1.84,.77c.53,.51,.79,1.13,.79,1.84,0,.48-.12,.92-.37,1.32-.25,.4-.57,.72-.96,.96-.4,.24-.83,.36-1.31,.36Z" style="fill:#2f3032;"/><path d="M598.31,182.7c-1.55,0-2.93-.29-4.14-.86-1.21-.57-2.17-1.36-2.88-2.36s-1.08-2.15-1.11-3.45h4.61c.05,.87,.42,1.58,1.1,2.12,.68,.54,1.49,.81,2.43,.81,.75,0,1.41-.17,1.98-.5s1.02-.8,1.35-1.39c.33-.6,.49-1.28,.49-2.06s-.17-1.49-.5-2.08c-.33-.6-.79-1.07-1.38-1.41-.59-.34-1.26-.51-2.01-.52-.66,0-1.3,.14-1.92,.41-.62,.27-1.1,.64-1.44,1.11l-4.23-.76,1.07-11.86h13.75v3.89h-9.83l-.58,5.63h.13c.4-.56,.99-1.02,1.79-1.38s1.69-.55,2.68-.55c1.35,0,2.56,.32,3.62,.96,1.06,.64,1.9,1.51,2.51,2.62s.92,2.38,.91,3.83c0,1.51-.34,2.86-1.05,4.03-.71,1.17-1.69,2.1-2.95,2.77-1.26,.67-2.73,1-4.4,1Z" style="fill:#2f3032;"/><path d="M618.62,182.7c-1.16,0-2.27-.2-3.34-.58s-2.03-1-2.88-1.86-1.52-1.99-2.01-3.4c-.49-1.41-.74-3.15-.74-5.2,0-1.89,.23-3.58,.65-5.07,.43-1.49,1.04-2.75,1.84-3.79,.8-1.04,1.76-1.83,2.88-2.38,1.12-.54,2.38-.82,3.77-.82,1.5,0,2.83,.29,3.97,.87,1.15,.58,2.07,1.37,2.77,2.37,.7,1,1.12,2.11,1.27,3.35h-4.69c-.18-.78-.57-1.4-1.15-1.84-.59-.45-1.31-.67-2.17-.67-1.46,0-2.57,.64-3.33,1.91s-1.14,3-1.16,5.19h.15c.34-.67,.79-1.24,1.37-1.71s1.23-.83,1.96-1.09,1.51-.38,2.33-.38c1.33,0,2.52,.31,3.56,.94,1.04,.63,1.86,1.48,2.46,2.58,.6,1.09,.9,2.34,.9,3.74,0,1.52-.35,2.88-1.06,4.06-.71,1.19-1.69,2.11-2.95,2.78-1.26,.67-2.73,1-4.4,.99Zm-.02-3.73c.73,0,1.39-.18,1.96-.53s1.03-.83,1.36-1.43c.33-.6,.49-1.27,.49-2.02s-.16-1.42-.49-2.01c-.33-.59-.77-1.07-1.34-1.42-.57-.35-1.22-.53-1.96-.53-.55,0-1.06,.1-1.52,.31s-.87,.49-1.22,.86c-.35,.37-.62,.79-.82,1.27s-.3,.99-.3,1.53c0,.72,.17,1.39,.5,1.99,.33,.6,.79,1.08,1.36,1.44s1.23,.54,1.96,.54Z" style="fill:#2f3032;"/><path d="M631.14,165.31v-1.19c0-.91,.19-1.74,.58-2.5s.95-1.36,1.69-1.82c.74-.45,1.63-.68,2.67-.68s1.99,.23,2.72,.68c.73,.45,1.29,1.06,1.67,1.82,.38,.76,.57,1.59,.57,2.5v1.19c0,.91-.19,1.74-.58,2.49-.38,.75-.94,1.36-1.68,1.81s-1.64,.67-2.71,.67-1.97-.23-2.71-.69c-.74-.46-1.29-1.06-1.67-1.81s-.57-1.58-.57-2.48Zm1.45,17.08l15.46-22.48h2.88l-15.46,22.48h-2.88Zm1.77-18.27v1.19c0,.53,.13,1.03,.38,1.48,.25,.45,.7,.68,1.34,.68s1.13-.23,1.38-.68c.25-.45,.37-.95,.37-1.48v-1.19c0-.53-.12-1.03-.35-1.49-.23-.46-.7-.69-1.39-.69-.65,0-1.1,.23-1.35,.7s-.37,.96-.37,1.48Zm8.32,14.05v-1.19c0-.9,.19-1.73,.58-2.49,.38-.76,.94-1.37,1.68-1.82,.74-.46,1.63-.69,2.7-.69s1.98,.23,2.72,.68,1.29,1.06,1.67,1.82c.38,.76,.57,1.59,.57,2.5v1.19c0,.9-.19,1.73-.57,2.49-.38,.76-.94,1.37-1.68,1.82-.74,.46-1.64,.69-2.7,.69s-1.98-.23-2.71-.69c-.73-.46-1.29-1.07-1.67-1.82-.38-.76-.57-1.59-.57-2.49Zm3.2-1.19v1.19c0,.52,.13,1.01,.38,1.47,.25,.46,.71,.69,1.38,.69s1.12-.23,1.37-.68,.37-.95,.37-1.48v-1.19c0-.53-.12-1.03-.35-1.49s-.7-.69-1.38-.69-1.12,.23-1.37,.69-.38,.96-.38,1.49Z" style="fill:#2f3032;"/></g></g></svg>