<svg width="72" height="51" viewBox="0 0 72 51" fill="none" xmlns="http://www.w3.org/2000/svg">
<path d="M0 0V51H71.9231V0H0ZM69.3859 48.4637H2.53716V2.53627H69.3859V48.4637Z" fill="#080C0A"/>
<path d="M10.3439 18.0263L12.72 17.5246C13.0465 19.3771 14.2246 20.2704 16.208 20.2704C18.0171 20.2704 18.8456 19.6164 18.8456 18.549C18.8456 17.4816 18.1263 16.8706 15.5539 16.4351C11.9787 15.8462 10.8447 14.4733 10.8447 12.4256C10.8447 10.0933 12.5016 8.65533 15.8583 8.65533C19.2151 8.65533 20.5896 10.2245 21.0253 12.5127L18.5621 12.9924C18.2135 11.4452 17.5593 10.6391 15.7282 10.6391C14.0713 10.6391 13.287 11.2489 13.287 12.2954C13.287 13.2328 13.7889 13.8867 16.5357 14.3873C20.4385 15.1063 21.332 16.5233 21.332 18.3968C21.332 20.7941 19.8064 22.2983 16.122 22.2983C12.1761 22.2762 10.6715 20.4457 10.345 18.0263H10.3439Z" fill="#080C0A"/>
<path d="M22.6061 15.4338C22.6061 11.3151 25.0473 8.65643 29.1464 8.65643C33.2456 8.65643 35.6868 11.3151 35.6868 15.4338C35.6868 19.5525 33.3328 22.2983 29.1464 22.2983C24.9601 22.2983 22.6061 19.5745 22.6061 15.4338ZM33.2015 15.4338C33.2015 12.688 31.9373 10.8354 29.1464 10.8354C26.3556 10.8354 25.0693 12.688 25.0693 15.4338C25.0693 18.1796 26.3114 20.1413 29.1244 20.1413C31.9373 20.1413 33.2015 18.2888 33.2015 15.4338Z" fill="#080C0A"/>
<path d="M39.979 17.7958V22.2972H37.3867V8.65643H42.8681C46.2569 8.65643 47.9171 10.2025 47.9171 13.2493C47.9171 15.8407 46.1653 17.7969 42.9585 17.7969H39.979V17.7958ZM39.979 10.8619V15.6587H42.6629C44.5735 15.6587 45.37 14.9089 45.37 13.2713C45.37 11.6338 44.6651 10.8608 42.6409 10.8608H39.9801L39.979 10.8619Z" fill="#080C0A"/>
<path d="M58.593 22.2983V16.66H51.9975V22.2983H49.4052V8.65643H51.9975V14.3399H58.593V8.65643H61.1853V22.2983H58.593Z" fill="#080C0A"/>
<path d="M10.6914 42.3447V28.6345H13.297V42.3447H10.6914Z" fill="#080C0A"/>
<path d="M24.7716 38.8491H18.9196L17.7304 42.3448H15.0333L20.1308 28.6346H23.6509L28.7483 42.3448H25.9597L24.7705 38.8491H24.7716ZM19.6057 36.9072H24.0866L23.5152 35.2168C23.0353 33.8229 22.5555 32.2692 22.144 30.8985H21.5726C21.1611 32.2692 20.6581 33.8229 20.1783 35.2168L19.6068 36.9072H19.6057Z" fill="#080C0A"/>
<path d="M41.3084 36.9293H40.2108V42.3448H37.6052V28.6346H40.2108V34.8043H41.2389L46.1301 28.6346H49.0787V28.886L43.1583 35.6722L49.3071 42.0934V42.3448H46.29L41.3073 36.9293H41.3084Z" fill="#080C0A"/>
<path d="M48.4664 35.4461C48.4664 31.3164 50.9142 28.6511 55.0233 28.6511C59.1324 28.6511 61.5803 31.3164 61.5803 35.4461C61.5803 39.5758 59.2196 42.3282 55.0233 42.3282C50.8271 42.3282 48.4664 39.5968 48.4664 35.4461ZM59.0883 35.4461C59.0883 32.6937 57.8208 30.8367 55.0233 30.8367C52.2258 30.8367 50.9363 32.6937 50.9363 35.4461C50.9363 38.1985 52.1817 40.1647 55.0013 40.1647C57.8208 40.1647 59.0883 38.3077 59.0883 35.4461Z" fill="#080C0A"/>
<path d="M31.8028 42.3447H26.3854V39.7985H40.1004V42.3447H33.9285" fill="#080C0A"/>
</svg>
