<svg width="1274" height="383" viewBox="0 0 1274 383" fill="none" xmlns="http://www.w3.org/2000/svg">
<rect width="1274" height="383" fill="white"/>
<g filter="url(#filter0_f_1121_43986)">
<ellipse cx="196.5" cy="192" rx="97.5" ry="33" fill="#D26040" fill-opacity="0.1"/>
</g>
<line x1="197.5" y1="96.5" x2="197.5" y2="186.5" stroke="white" stroke-linecap="round"/>
<path d="M196.5 173C255.871 173 304 152.82 304 127.927V117H89V127.927C89 152.82 137.129 173 196.5 173Z" fill="#DD613F"/>
<ellipse cx="196.5" cy="116" rx="107.5" ry="45" fill="#F9714B"/>
<path d="M283.5 93C283.5 97.0755 281.183 101.026 276.841 104.684C272.501 108.34 266.191 111.655 258.35 114.449C242.673 120.035 220.983 123.5 197 123.5C173.017 123.5 151.327 120.035 135.65 114.449C127.809 111.655 121.499 108.34 117.159 104.684C112.817 101.026 110.5 97.0755 110.5 93C110.5 88.9245 112.817 84.974 117.159 81.3158C121.499 77.6596 127.809 74.3445 135.65 71.5507C151.327 65.9646 173.017 62.5 197 62.5C220.983 62.5 242.673 65.9646 258.35 71.5507C266.191 74.3445 272.501 77.6596 276.841 81.3158C281.183 84.974 283.5 88.9245 283.5 93Z" fill="white" fill-opacity="0.6" stroke="white"/>
<path d="M252.5 66C252.5 68.4083 251.062 70.779 248.286 73.0056C245.515 75.2285 241.475 77.2524 236.437 78.9615C226.368 82.378 212.424 84.5 197 84.5C181.576 84.5 167.632 82.378 157.563 78.9615C152.525 77.2524 148.485 75.2285 145.714 73.0056C142.938 70.779 141.5 68.4083 141.5 66C141.5 63.5917 142.938 61.221 145.714 58.9944C148.485 56.7715 152.525 54.7476 157.563 53.0385C167.632 49.622 181.576 47.5 197 47.5C212.424 47.5 226.368 49.622 236.437 53.0385C241.475 54.7476 245.515 56.7715 248.286 58.9944C251.062 61.221 252.5 63.5917 252.5 66Z" fill="white" fill-opacity="0.6" stroke="white"/>
<line x1="197.5" y1="10.5" x2="197.5" y2="108.5" stroke="white" stroke-linecap="round"/>
<g filter="url(#filter1_f_1121_43986)">
<ellipse cx="491.5" cy="192" rx="97.5" ry="33" fill="#333333" fill-opacity="0.1"/>
</g>
<line x1="492.5" y1="96.5" x2="492.5" y2="186.5" stroke="white" stroke-linecap="round"/>
<path d="M491.5 173C550.871 173 599 152.82 599 127.927V117H384V127.927C384 152.82 432.129 173 491.5 173Z" fill="#171717"/>
<ellipse cx="491.5" cy="116" rx="107.5" ry="45" fill="#333333"/>
<path d="M578.5 93C578.5 97.0755 576.183 101.026 571.841 104.684C567.501 108.34 561.191 111.655 553.35 114.449C537.673 120.035 515.983 123.5 492 123.5C468.017 123.5 446.327 120.035 430.65 114.449C422.809 111.655 416.499 108.34 412.159 104.684C407.817 101.026 405.5 97.0755 405.5 93C405.5 88.9245 407.817 84.974 412.159 81.3158C416.499 77.6596 422.809 74.3445 430.65 71.5507C446.327 65.9646 468.017 62.5 492 62.5C515.983 62.5 537.673 65.9646 553.35 71.5507C561.191 74.3445 567.501 77.6596 571.841 81.3158C576.183 84.974 578.5 88.9245 578.5 93Z" fill="white" fill-opacity="0.6" stroke="white"/>
<path d="M547.5 66C547.5 68.4083 546.062 70.779 543.286 73.0056C540.515 75.2285 536.475 77.2524 531.437 78.9615C521.368 82.378 507.424 84.5 492 84.5C476.576 84.5 462.632 82.378 452.563 78.9615C447.525 77.2524 443.485 75.2285 440.714 73.0056C437.938 70.779 436.5 68.4083 436.5 66C436.5 63.5917 437.938 61.221 440.714 58.9944C443.485 56.7715 447.525 54.7476 452.563 53.0385C462.632 49.622 476.576 47.5 492 47.5C507.424 47.5 521.368 49.622 531.437 53.0385C536.475 54.7476 540.515 56.7715 543.286 58.9944C546.062 61.221 547.5 63.5917 547.5 66Z" fill="white" fill-opacity="0.6" stroke="white"/>
<line x1="492.5" y1="10.5" x2="492.5" y2="108.5" stroke="white" stroke-linecap="round"/>
<g filter="url(#filter2_f_1121_43986)">
<ellipse cx="786.5" cy="192" rx="97.5" ry="33" fill="#FDC6B7" fill-opacity="0.25"/>
</g>
<line x1="787.5" y1="96.5" x2="787.5" y2="186.5" stroke="white" stroke-linecap="round"/>
<path d="M786.5 173C845.871 173 894 152.82 894 127.927V117H679V127.927C679 152.82 727.129 173 786.5 173Z" fill="#DEAD9F"/>
<ellipse cx="786.5" cy="116" rx="107.5" ry="45" fill="#FDC6B7"/>
<path d="M873.5 93C873.5 97.0755 871.183 101.026 866.841 104.684C862.501 108.34 856.191 111.655 848.35 114.449C832.673 120.035 810.983 123.5 787 123.5C763.017 123.5 741.327 120.035 725.65 114.449C717.809 111.655 711.499 108.34 707.159 104.684C702.817 101.026 700.5 97.0755 700.5 93C700.5 88.9245 702.817 84.974 707.159 81.3158C711.499 77.6596 717.809 74.3445 725.65 71.5507C741.327 65.9646 763.017 62.5 787 62.5C810.983 62.5 832.673 65.9646 848.35 71.5507C856.191 74.3445 862.501 77.6596 866.841 81.3158C871.183 84.974 873.5 88.9245 873.5 93Z" fill="white" fill-opacity="0.6" stroke="white"/>
<path d="M842.5 66C842.5 68.4083 841.062 70.779 838.286 73.0056C835.515 75.2285 831.475 77.2524 826.437 78.9615C816.368 82.378 802.424 84.5 787 84.5C771.576 84.5 757.632 82.378 747.563 78.9615C742.525 77.2524 738.485 75.2285 735.714 73.0056C732.938 70.779 731.5 68.4083 731.5 66C731.5 63.5917 732.938 61.221 735.714 58.9944C738.485 56.7715 742.525 54.7476 747.563 53.0385C757.632 49.622 771.576 47.5 787 47.5C802.424 47.5 816.368 49.622 826.437 53.0385C831.475 54.7476 835.515 56.7715 838.286 58.9944C841.062 61.221 842.5 63.5917 842.5 66Z" fill="white" fill-opacity="0.6" stroke="white"/>
<line x1="787.5" y1="10.5" x2="787.5" y2="108.5" stroke="white" stroke-linecap="round"/>
<g filter="url(#filter3_f_1121_43986)">
<ellipse cx="1077.5" cy="192" rx="97.5" ry="33" fill="#D2D2D2" fill-opacity="0.3"/>
</g>
<line x1="1078.5" y1="96.5" x2="1078.5" y2="186.5" stroke="white" stroke-linecap="round"/>
<path d="M1077.5 173C1136.87 173 1185 152.82 1185 127.927V117H970V127.927C970 152.82 1018.13 173 1077.5 173Z" fill="#D2D2D2"/>
<ellipse cx="1077.5" cy="116" rx="107.5" ry="45" fill="#EDEDED"/>
<path d="M1164.5 93C1164.5 97.0755 1162.18 101.026 1157.84 104.684C1153.5 108.34 1147.19 111.655 1139.35 114.449C1123.67 120.035 1101.98 123.5 1078 123.5C1054.02 123.5 1032.33 120.035 1016.65 114.449C1008.81 111.655 1002.5 108.34 998.159 104.684C993.817 101.026 991.5 97.0755 991.5 93C991.5 88.9245 993.817 84.974 998.159 81.3158C1002.5 77.6596 1008.81 74.3445 1016.65 71.5507C1032.33 65.9646 1054.02 62.5 1078 62.5C1101.98 62.5 1123.67 65.9646 1139.35 71.5507C1147.19 74.3445 1153.5 77.6596 1157.84 81.3158C1162.18 84.974 1164.5 88.9245 1164.5 93Z" fill="white" fill-opacity="0.6" stroke="white"/>
<path d="M1133.5 66C1133.5 68.4083 1132.06 70.779 1129.29 73.0056C1126.52 75.2285 1122.47 77.2524 1117.44 78.9615C1107.37 82.378 1093.42 84.5 1078 84.5C1062.58 84.5 1048.63 82.378 1038.56 78.9615C1033.53 77.2524 1029.48 75.2285 1026.71 73.0056C1023.94 70.779 1022.5 68.4083 1022.5 66C1022.5 63.5917 1023.94 61.221 1026.71 58.9944C1029.48 56.7715 1033.53 54.7476 1038.56 53.0385C1048.63 49.622 1062.58 47.5 1078 47.5C1093.42 47.5 1107.37 49.622 1117.44 53.0385C1122.47 54.7476 1126.52 56.7715 1129.29 58.9944C1132.06 61.221 1133.5 63.5917 1133.5 66Z" fill="white" fill-opacity="0.6" stroke="white"/>
<line x1="1078.5" y1="10.5" x2="1078.5" y2="108.5" stroke="white" stroke-linecap="round"/>
<path d="M129.71 260.091C129.71 261.58 129.431 262.855 128.874 263.917C128.32 264.974 127.565 265.783 126.607 266.346C125.653 266.908 124.571 267.189 123.361 267.189C122.151 267.189 121.067 266.908 120.109 266.346C119.155 265.779 118.4 264.967 117.842 263.91C117.289 262.848 117.012 261.575 117.012 260.091C117.012 258.602 117.289 257.329 117.842 256.272C118.4 255.21 119.155 254.399 120.109 253.836C121.067 253.274 122.151 252.993 123.361 252.993C124.571 252.993 125.653 253.274 126.607 253.836C127.565 254.399 128.32 255.21 128.874 256.272C129.431 257.329 129.71 258.602 129.71 260.091ZM127.194 260.091C127.194 259.043 127.029 258.159 126.701 257.439C126.377 256.715 125.927 256.169 125.352 255.8C124.776 255.426 124.112 255.24 123.361 255.24C122.61 255.24 121.946 255.426 121.371 255.8C120.795 256.169 120.343 256.715 120.015 257.439C119.691 258.159 119.529 259.043 119.529 260.091C119.529 261.139 119.691 262.025 120.015 262.749C120.343 263.469 120.795 264.016 121.371 264.389C121.946 264.758 122.61 264.942 123.361 264.942C124.112 264.942 124.776 264.758 125.352 264.389C125.927 264.016 126.377 263.469 126.701 262.749C127.029 262.025 127.194 261.139 127.194 260.091ZM132.077 267V253.182H137.259C138.32 253.182 139.211 253.366 139.93 253.735C140.655 254.104 141.201 254.621 141.57 255.287C141.943 255.948 142.13 256.72 142.13 257.601C142.13 258.487 141.941 259.257 141.563 259.909C141.19 260.556 140.639 261.058 139.91 261.413C139.182 261.764 138.286 261.94 137.225 261.94H133.534V259.862H136.888C137.508 259.862 138.017 259.776 138.412 259.605C138.808 259.43 139.101 259.176 139.29 258.843C139.483 258.505 139.58 258.092 139.58 257.601C139.58 257.111 139.483 256.693 139.29 256.346C139.096 255.995 138.801 255.73 138.406 255.55C138.01 255.366 137.499 255.273 136.874 255.273H134.58V267H132.077ZM139.215 260.739L142.636 267H139.843L136.483 260.739H139.215ZM146.209 267H143.537L148.402 253.182H151.492L156.363 267H153.691L150.001 256.016H149.893L146.209 267ZM146.296 261.582H153.583V263.593H146.296V261.582ZM169.539 253.182V267H167.312L160.801 257.588H160.686V267H158.183V253.182H160.423L166.928 262.601H167.049V253.182H169.539ZM181.523 257.594C181.411 257.23 181.256 256.904 181.058 256.616C180.864 256.324 180.63 256.074 180.356 255.867C180.086 255.66 179.776 255.505 179.425 255.402C179.074 255.294 178.692 255.24 178.278 255.24C177.536 255.24 176.875 255.426 176.294 255.8C175.714 256.173 175.257 256.722 174.925 257.446C174.596 258.166 174.432 259.043 174.432 260.077C174.432 261.121 174.596 262.005 174.925 262.729C175.253 263.453 175.71 264.004 176.294 264.382C176.879 264.755 177.558 264.942 178.332 264.942C179.034 264.942 179.641 264.807 180.154 264.537C180.671 264.267 181.069 263.885 181.348 263.39C181.627 262.891 181.766 262.306 181.766 261.636L182.333 261.724H178.582V259.767H184.188V261.427C184.188 262.61 183.937 263.633 183.433 264.497C182.929 265.36 182.236 266.026 181.355 266.494C180.473 266.957 179.461 267.189 178.318 267.189C177.045 267.189 175.928 266.903 174.965 266.332C174.007 265.756 173.258 264.94 172.718 263.883C172.183 262.821 171.915 261.562 171.915 260.104C171.915 258.989 172.073 257.993 172.388 257.115C172.707 256.238 173.152 255.494 173.724 254.882C174.295 254.266 174.965 253.798 175.734 253.479C176.503 253.155 177.34 252.993 178.244 252.993C179.009 252.993 179.722 253.105 180.383 253.33C181.044 253.551 181.631 253.866 182.144 254.275C182.661 254.684 183.086 255.17 183.419 255.732C183.752 256.295 183.97 256.915 184.074 257.594H181.523ZM186.609 267V253.182H195.596V255.28H189.112V259.032H195.131V261.13H189.112V264.902H195.65V267H186.609ZM117.363 294V280.182H122.545C123.606 280.182 124.497 280.366 125.217 280.735C125.941 281.104 126.487 281.621 126.856 282.287C127.23 282.948 127.416 283.72 127.416 284.601C127.416 285.487 127.227 286.257 126.849 286.909C126.476 287.556 125.925 288.058 125.196 288.413C124.468 288.764 123.573 288.94 122.511 288.94H118.82V286.862H122.174C122.794 286.862 123.303 286.776 123.699 286.605C124.094 286.43 124.387 286.176 124.576 285.843C124.769 285.505 124.866 285.092 124.866 284.601C124.866 284.111 124.769 283.693 124.576 283.346C124.382 282.995 124.088 282.73 123.692 282.55C123.296 282.366 122.785 282.273 122.16 282.273H119.866V294H117.363ZM124.501 287.739L127.922 294H125.129L121.769 287.739H124.501ZM138.977 284.594C138.865 284.23 138.71 283.904 138.512 283.616C138.318 283.324 138.085 283.074 137.81 282.867C137.54 282.66 137.23 282.505 136.879 282.402C136.528 282.294 136.146 282.24 135.732 282.24C134.99 282.24 134.329 282.426 133.748 282.8C133.168 283.173 132.712 283.722 132.379 284.446C132.05 285.166 131.886 286.043 131.886 287.077C131.886 288.121 132.05 289.005 132.379 289.729C132.707 290.453 133.164 291.004 133.748 291.382C134.333 291.755 135.012 291.942 135.786 291.942C136.488 291.942 137.095 291.807 137.608 291.537C138.125 291.267 138.523 290.885 138.802 290.39C139.081 289.891 139.22 289.306 139.22 288.636L139.787 288.724H136.036V286.767H141.643V288.427C141.643 289.61 141.391 290.633 140.887 291.497C140.383 292.36 139.69 293.026 138.809 293.494C137.927 293.957 136.915 294.189 135.773 294.189C134.5 294.189 133.382 293.903 132.419 293.332C131.461 292.756 130.712 291.94 130.172 290.883C129.637 289.821 129.369 288.562 129.369 287.104C129.369 285.989 129.527 284.993 129.842 284.115C130.161 283.238 130.606 282.494 131.178 281.882C131.749 281.266 132.419 280.798 133.188 280.479C133.958 280.155 134.794 279.993 135.698 279.993C136.463 279.993 137.176 280.105 137.837 280.33C138.498 280.551 139.085 280.866 139.598 281.275C140.115 281.684 140.541 282.17 140.873 282.732C141.206 283.295 141.424 283.915 141.528 284.594H138.977ZM144.063 294V280.182H149.353C150.351 280.182 151.181 280.339 151.843 280.654C152.508 280.964 153.005 281.39 153.334 281.929C153.667 282.469 153.833 283.081 153.833 283.765C153.833 284.327 153.725 284.808 153.509 285.208C153.293 285.604 153.003 285.926 152.639 286.173C152.274 286.421 151.867 286.598 151.418 286.706V286.841C151.908 286.868 152.378 287.019 152.828 287.293C153.282 287.563 153.653 287.946 153.941 288.44C154.229 288.935 154.373 289.533 154.373 290.235C154.373 290.95 154.2 291.594 153.853 292.165C153.507 292.732 152.985 293.179 152.288 293.507C151.591 293.836 150.714 294 149.657 294H144.063ZM146.566 291.908H149.258C150.167 291.908 150.822 291.735 151.222 291.389C151.627 291.038 151.829 290.588 151.829 290.039C151.829 289.63 151.728 289.261 151.525 288.933C151.323 288.6 151.035 288.339 150.662 288.15C150.289 287.957 149.843 287.86 149.326 287.86H146.566V291.908ZM146.566 286.059H149.043C149.474 286.059 149.863 285.98 150.21 285.822C150.556 285.661 150.828 285.433 151.026 285.141C151.229 284.844 151.33 284.493 151.33 284.088C151.33 283.553 151.141 283.112 150.763 282.766C150.39 282.42 149.834 282.246 149.097 282.246H146.566V286.059ZM161.962 294V292.786L166.523 287.793C167.058 287.208 167.499 286.7 167.845 286.268C168.192 285.831 168.448 285.422 168.614 285.04C168.785 284.653 168.871 284.248 168.871 283.825C168.871 283.339 168.754 282.919 168.52 282.564C168.29 282.208 167.976 281.934 167.575 281.74C167.175 281.547 166.725 281.45 166.226 281.45C165.695 281.45 165.232 281.56 164.836 281.781C164.445 281.997 164.141 282.3 163.925 282.692C163.714 283.083 163.608 283.542 163.608 284.068H162.016C162.016 283.259 162.202 282.548 162.576 281.936C162.949 281.324 163.457 280.848 164.1 280.506C164.748 280.164 165.475 279.993 166.28 279.993C167.089 279.993 167.807 280.164 168.432 280.506C169.057 280.848 169.548 281.309 169.903 281.889C170.258 282.469 170.436 283.115 170.436 283.825C170.436 284.334 170.344 284.831 170.159 285.316C169.98 285.798 169.665 286.335 169.215 286.929C168.77 287.518 168.151 288.238 167.359 289.088L164.256 292.408V292.516H170.679V294H161.962ZM172.845 291.166V289.79L178.917 280.182H179.916V282.314H179.241L174.653 289.574V289.682H182.831V291.166H172.845ZM179.349 294V290.748V290.107V280.182H180.941V294H179.349ZM189.758 279.993C190.325 279.997 190.892 280.105 191.459 280.317C192.025 280.528 192.543 280.879 193.01 281.369C193.478 281.855 193.854 282.519 194.137 283.36C194.421 284.201 194.562 285.256 194.562 286.524C194.562 287.752 194.445 288.843 194.211 289.797C193.982 290.746 193.649 291.546 193.213 292.199C192.781 292.851 192.255 293.346 191.634 293.683C191.018 294.02 190.321 294.189 189.542 294.189C188.769 294.189 188.078 294.036 187.471 293.73C186.868 293.42 186.373 292.99 185.987 292.441C185.604 291.888 185.359 291.247 185.251 290.518H186.897C187.046 291.153 187.341 291.677 187.781 292.091C188.227 292.5 188.814 292.705 189.542 292.705C190.608 292.705 191.45 292.239 192.066 291.308C192.687 290.377 192.997 289.061 192.997 287.361H192.889C192.637 287.739 192.338 288.065 191.992 288.339C191.645 288.614 191.261 288.825 190.838 288.973C190.415 289.122 189.965 289.196 189.488 289.196C188.697 289.196 187.97 289 187.309 288.609C186.652 288.213 186.126 287.671 185.73 286.983C185.339 286.29 185.143 285.499 185.143 284.608C185.143 283.762 185.332 282.989 185.71 282.287C186.092 281.581 186.628 281.018 187.316 280.6C188.008 280.182 188.823 279.979 189.758 279.993ZM189.758 281.477C189.191 281.477 188.681 281.619 188.227 281.902C187.777 282.181 187.419 282.559 187.154 283.036C186.893 283.508 186.763 284.032 186.763 284.608C186.763 285.184 186.888 285.708 187.14 286.18C187.397 286.648 187.745 287.021 188.186 287.3C188.631 287.574 189.138 287.712 189.704 287.712C190.132 287.712 190.53 287.628 190.899 287.462C191.267 287.291 191.589 287.059 191.863 286.767C192.142 286.47 192.36 286.135 192.518 285.762C192.675 285.384 192.754 284.99 192.754 284.581C192.754 284.041 192.624 283.535 192.363 283.063C192.106 282.591 191.751 282.208 191.297 281.916C190.847 281.623 190.334 281.477 189.758 281.477ZM207.417 280.182V294H205.744V281.936H205.663L202.289 284.176V282.476L205.744 280.182H207.417ZM216.249 280.182V294H214.576V281.936H214.495L211.121 284.176V282.476L214.576 280.182H216.249ZM224.892 294.189C224.002 294.189 223.208 294.036 222.511 293.73C221.818 293.424 221.267 292.999 220.858 292.455C220.453 291.906 220.232 291.27 220.196 290.545H221.897C221.933 290.991 222.086 291.375 222.355 291.699C222.625 292.019 222.978 292.266 223.415 292.441C223.851 292.617 224.335 292.705 224.865 292.705C225.459 292.705 225.985 292.601 226.444 292.394C226.903 292.187 227.263 291.899 227.524 291.531C227.785 291.162 227.915 290.734 227.915 290.249C227.915 289.74 227.789 289.293 227.537 288.906C227.285 288.515 226.917 288.209 226.431 287.988C225.945 287.768 225.351 287.658 224.65 287.658H223.543V286.173H224.65C225.198 286.173 225.68 286.074 226.093 285.876C226.512 285.679 226.838 285.4 227.072 285.04C227.31 284.68 227.429 284.257 227.429 283.771C227.429 283.304 227.326 282.896 227.119 282.55C226.912 282.204 226.62 281.934 226.242 281.74C225.868 281.547 225.428 281.45 224.919 281.45C224.443 281.45 223.993 281.538 223.57 281.713C223.152 281.884 222.81 282.134 222.544 282.462C222.279 282.786 222.135 283.178 222.113 283.636H220.493C220.52 282.912 220.738 282.278 221.148 281.734C221.557 281.185 222.092 280.758 222.754 280.452C223.419 280.146 224.15 279.993 224.946 279.993C225.801 279.993 226.534 280.166 227.146 280.512C227.758 280.854 228.228 281.306 228.556 281.869C228.884 282.431 229.049 283.038 229.049 283.69C229.049 284.469 228.844 285.132 228.435 285.681C228.03 286.23 227.479 286.61 226.782 286.821V286.929C227.654 287.073 228.336 287.444 228.826 288.042C229.316 288.636 229.561 289.371 229.561 290.249C229.561 291 229.357 291.674 228.947 292.273C228.543 292.866 227.989 293.334 227.288 293.676C226.586 294.018 225.788 294.189 224.892 294.189ZM238.097 294L244.277 281.774V281.666H237.152V280.182H246.004V281.747L239.851 294H238.097ZM252.652 294.189C251.86 294.189 251.147 294.031 250.513 293.717C249.879 293.402 249.371 292.97 248.988 292.421C248.606 291.872 248.397 291.247 248.361 290.545H249.98C250.043 291.171 250.326 291.688 250.83 292.097C251.338 292.502 251.946 292.705 252.652 292.705C253.219 292.705 253.722 292.572 254.163 292.306C254.609 292.041 254.957 291.677 255.209 291.213C255.465 290.746 255.594 290.217 255.594 289.628C255.594 289.025 255.461 288.488 255.196 288.015C254.935 287.538 254.575 287.163 254.116 286.888C253.657 286.614 253.133 286.475 252.544 286.47C252.121 286.466 251.687 286.531 251.242 286.666C250.796 286.796 250.43 286.965 250.142 287.172L248.577 286.983L249.413 280.182H256.592V281.666H250.817L250.331 285.741H250.412C250.695 285.517 251.051 285.33 251.478 285.181C251.905 285.033 252.351 284.959 252.814 284.959C253.659 284.959 254.413 285.161 255.074 285.566C255.74 285.966 256.262 286.515 256.639 287.212C257.022 287.91 257.213 288.706 257.213 289.601C257.213 290.482 257.015 291.27 256.619 291.962C256.228 292.651 255.688 293.195 255 293.595C254.312 293.991 253.529 294.189 252.652 294.189ZM122.612 321L124.879 307.182H126.229L123.962 321H122.612ZM116.324 317.168L116.54 315.818H126.849L126.634 317.168H116.324ZM117.754 321L120.021 307.182H121.371L119.104 321H117.754ZM117.134 312.364L117.349 311.014H127.659L127.443 312.364H117.134ZM129.66 321V307.182H137.945V308.666H131.333V313.335H137.324V314.82H131.333V321H129.66ZM144.967 306.993C145.534 306.997 146.101 307.105 146.668 307.317C147.234 307.528 147.752 307.879 148.219 308.369C148.687 308.855 149.063 309.519 149.346 310.36C149.63 311.201 149.771 312.256 149.771 313.524C149.771 314.752 149.654 315.843 149.42 316.797C149.191 317.746 148.858 318.546 148.422 319.199C147.99 319.851 147.464 320.346 146.843 320.683C146.227 321.02 145.53 321.189 144.751 321.189C143.978 321.189 143.287 321.036 142.68 320.73C142.077 320.42 141.582 319.99 141.196 319.441C140.813 318.888 140.568 318.247 140.46 317.518H142.106C142.255 318.153 142.55 318.677 142.99 319.091C143.436 319.5 144.023 319.705 144.751 319.705C145.817 319.705 146.659 319.239 147.275 318.308C147.896 317.377 148.206 316.061 148.206 314.361H148.098C147.846 314.739 147.547 315.065 147.201 315.339C146.854 315.614 146.47 315.825 146.047 315.973C145.624 316.122 145.174 316.196 144.697 316.196C143.906 316.196 143.179 316 142.518 315.609C141.861 315.213 141.335 314.671 140.939 313.983C140.548 313.29 140.352 312.499 140.352 311.608C140.352 310.762 140.541 309.989 140.919 309.287C141.301 308.581 141.837 308.018 142.525 307.6C143.217 307.182 144.032 306.979 144.967 306.993ZM144.967 308.477C144.4 308.477 143.89 308.619 143.436 308.902C142.986 309.181 142.628 309.559 142.363 310.036C142.102 310.508 141.972 311.032 141.972 311.608C141.972 312.184 142.097 312.708 142.349 313.18C142.606 313.648 142.954 314.021 143.395 314.3C143.84 314.574 144.347 314.712 144.913 314.712C145.341 314.712 145.739 314.628 146.108 314.462C146.476 314.291 146.798 314.059 147.072 313.767C147.351 313.47 147.569 313.135 147.727 312.762C147.884 312.384 147.963 311.99 147.963 311.581C147.963 311.041 147.833 310.535 147.572 310.063C147.315 309.591 146.96 309.208 146.506 308.916C146.056 308.623 145.543 308.477 144.967 308.477ZM152.485 321L158.666 308.774V308.666H151.541V307.182H160.393V308.747L154.24 321H152.485ZM167.766 307.182V321H166.093V308.936H166.012L162.638 311.176V309.476L166.093 307.182H167.766ZM171.416 318.166V316.79L177.489 307.182H178.487V309.314H177.812L173.224 316.574V316.682H181.402V318.166H171.416ZM177.92 321V317.748V317.107V307.182H179.513V321H177.92ZM184.173 321V307.182H189.004C189.967 307.182 190.761 307.348 191.386 307.681C192.011 308.009 192.477 308.453 192.783 309.01C193.089 309.564 193.241 310.178 193.241 310.852C193.241 311.446 193.136 311.936 192.924 312.323C192.717 312.71 192.443 313.016 192.101 313.241C191.764 313.466 191.397 313.632 191.001 313.74V313.875C191.424 313.902 191.849 314.05 192.277 314.32C192.704 314.59 193.062 314.977 193.349 315.481C193.637 315.985 193.781 316.601 193.781 317.33C193.781 318.022 193.624 318.645 193.309 319.199C192.994 319.752 192.497 320.19 191.818 320.514C191.139 320.838 190.255 321 189.166 321H184.173ZM185.847 319.516H189.166C190.259 319.516 191.035 319.304 191.494 318.881C191.957 318.454 192.189 317.937 192.189 317.33C192.189 316.862 192.07 316.43 191.831 316.034C191.593 315.634 191.253 315.314 190.812 315.076C190.372 314.833 189.85 314.712 189.247 314.712H185.847V319.516ZM185.847 313.254H188.95C189.454 313.254 189.908 313.155 190.313 312.957C190.723 312.759 191.046 312.481 191.285 312.121C191.528 311.761 191.649 311.338 191.649 310.852C191.649 310.245 191.438 309.73 191.015 309.307C190.592 308.88 189.922 308.666 189.004 308.666H185.847V313.254Z" fill="#0F0F0F"/>
<path d="M412.363 267V253.182H417.653C418.651 253.182 419.481 253.339 420.142 253.654C420.808 253.964 421.305 254.39 421.634 254.929C421.966 255.469 422.133 256.081 422.133 256.765C422.133 257.327 422.025 257.808 421.809 258.208C421.593 258.604 421.303 258.926 420.939 259.173C420.574 259.421 420.167 259.598 419.717 259.706V259.841C420.208 259.868 420.678 260.019 421.127 260.293C421.582 260.563 421.953 260.946 422.241 261.44C422.529 261.935 422.673 262.533 422.673 263.235C422.673 263.95 422.499 264.594 422.153 265.165C421.807 265.732 421.285 266.179 420.588 266.507C419.891 266.836 419.013 267 417.956 267H412.363ZM414.866 264.908H417.558C418.467 264.908 419.121 264.735 419.522 264.389C419.926 264.038 420.129 263.588 420.129 263.039C420.129 262.63 420.028 262.261 419.825 261.933C419.623 261.6 419.335 261.339 418.962 261.15C418.588 260.957 418.143 260.86 417.626 260.86H414.866V264.908ZM414.866 259.059H417.342C417.774 259.059 418.163 258.98 418.51 258.822C418.856 258.661 419.128 258.433 419.326 258.141C419.528 257.844 419.63 257.493 419.63 257.088C419.63 256.553 419.441 256.112 419.063 255.766C418.69 255.42 418.134 255.246 417.396 255.246H414.866V259.059ZM424.85 267V253.182H427.353V264.902H433.439V267H424.85ZM437.906 267H435.234L440.099 253.182H443.189L448.06 267H445.389L441.698 256.016H441.59L437.906 267ZM437.994 261.582H445.281V263.593H437.994V261.582ZM461.059 257.844H458.535C458.463 257.43 458.331 257.064 458.137 256.744C457.944 256.42 457.703 256.146 457.415 255.921C457.128 255.696 456.799 255.528 456.43 255.415C456.066 255.298 455.672 255.24 455.25 255.24C454.498 255.24 453.833 255.429 453.252 255.806C452.672 256.18 452.218 256.729 451.889 257.453C451.561 258.172 451.397 259.052 451.397 260.091C451.397 261.148 451.561 262.039 451.889 262.763C452.222 263.482 452.677 264.027 453.252 264.396C453.833 264.76 454.496 264.942 455.243 264.942C455.657 264.942 456.043 264.888 456.403 264.78C456.768 264.668 457.094 264.504 457.382 264.288C457.674 264.072 457.919 263.806 458.117 263.491C458.32 263.177 458.459 262.817 458.535 262.412L461.059 262.425C460.964 263.082 460.76 263.698 460.445 264.274C460.134 264.85 459.727 265.358 459.224 265.799C458.72 266.235 458.131 266.577 457.456 266.825C456.781 267.067 456.032 267.189 455.209 267.189C453.995 267.189 452.911 266.908 451.957 266.346C451.003 265.783 450.252 264.971 449.703 263.91C449.155 262.848 448.88 261.575 448.88 260.091C448.88 258.602 449.157 257.329 449.71 256.272C450.263 255.21 451.017 254.399 451.97 253.836C452.924 253.274 454.004 252.993 455.209 252.993C455.978 252.993 456.693 253.101 457.355 253.317C458.016 253.533 458.605 253.85 459.122 254.268C459.64 254.682 460.065 255.19 460.398 255.793C460.735 256.391 460.955 257.075 461.059 257.844ZM463.351 267V253.182H465.854V259.531H466.023L471.414 253.182H474.471L469.127 259.382L474.518 267H471.509L467.386 261.076L465.854 262.884V267H463.351ZM412.363 294V280.182H417.545C418.606 280.182 419.497 280.366 420.217 280.735C420.941 281.104 421.487 281.621 421.856 282.287C422.23 282.948 422.416 283.72 422.416 284.601C422.416 285.487 422.227 286.257 421.849 286.909C421.476 287.556 420.925 288.058 420.196 288.413C419.468 288.764 418.573 288.94 417.511 288.94H413.82V286.862H417.174C417.794 286.862 418.303 286.776 418.699 286.605C419.094 286.43 419.387 286.176 419.576 285.843C419.769 285.505 419.866 285.092 419.866 284.601C419.866 284.111 419.769 283.693 419.576 283.346C419.382 282.995 419.088 282.73 418.692 282.55C418.296 282.366 417.785 282.273 417.16 282.273H414.866V294H412.363ZM419.501 287.739L422.922 294H420.129L416.769 287.739H419.501ZM433.977 284.594C433.865 284.23 433.71 283.904 433.512 283.616C433.318 283.324 433.085 283.074 432.81 282.867C432.54 282.66 432.23 282.505 431.879 282.402C431.528 282.294 431.146 282.24 430.732 282.24C429.99 282.24 429.329 282.426 428.748 282.8C428.168 283.173 427.712 283.722 427.379 284.446C427.05 285.166 426.886 286.043 426.886 287.077C426.886 288.121 427.05 289.005 427.379 289.729C427.707 290.453 428.164 291.004 428.748 291.382C429.333 291.755 430.012 291.942 430.786 291.942C431.488 291.942 432.095 291.807 432.608 291.537C433.125 291.267 433.523 290.885 433.802 290.39C434.081 289.891 434.22 289.306 434.22 288.636L434.787 288.724H431.036V286.767H436.643V288.427C436.643 289.61 436.391 290.633 435.887 291.497C435.383 292.36 434.69 293.026 433.809 293.494C432.927 293.957 431.915 294.189 430.773 294.189C429.5 294.189 428.382 293.903 427.419 293.332C426.461 292.756 425.712 291.94 425.172 290.883C424.637 289.821 424.369 288.562 424.369 287.104C424.369 285.989 424.527 284.993 424.842 284.115C425.161 283.238 425.606 282.494 426.178 281.882C426.749 281.266 427.419 280.798 428.188 280.479C428.958 280.155 429.794 279.993 430.698 279.993C431.463 279.993 432.176 280.105 432.837 280.33C433.498 280.551 434.085 280.866 434.598 281.275C435.115 281.684 435.541 282.17 435.873 282.732C436.206 283.295 436.424 283.915 436.528 284.594H433.977ZM439.063 294V280.182H444.353C445.351 280.182 446.181 280.339 446.843 280.654C447.508 280.964 448.005 281.39 448.334 281.929C448.667 282.469 448.833 283.081 448.833 283.765C448.833 284.327 448.725 284.808 448.509 285.208C448.293 285.604 448.003 285.926 447.639 286.173C447.274 286.421 446.867 286.598 446.418 286.706V286.841C446.908 286.868 447.378 287.019 447.828 287.293C448.282 287.563 448.653 287.946 448.941 288.44C449.229 288.935 449.373 289.533 449.373 290.235C449.373 290.95 449.2 291.594 448.853 292.165C448.507 292.732 447.985 293.179 447.288 293.507C446.591 293.836 445.714 294 444.657 294H439.063ZM441.566 291.908H444.258C445.167 291.908 445.822 291.735 446.222 291.389C446.627 291.038 446.829 290.588 446.829 290.039C446.829 289.63 446.728 289.261 446.525 288.933C446.323 288.6 446.035 288.339 445.662 288.15C445.289 287.957 444.843 287.86 444.326 287.86H441.566V291.908ZM441.566 286.059H444.043C444.474 286.059 444.863 285.98 445.21 285.822C445.556 285.661 445.828 285.433 446.026 285.141C446.229 284.844 446.33 284.493 446.33 284.088C446.33 283.553 446.141 283.112 445.763 282.766C445.39 282.42 444.834 282.246 444.097 282.246H441.566V286.059ZM461.28 294.189C460.488 294.189 459.775 294.031 459.141 293.717C458.507 293.402 457.998 292.97 457.616 292.421C457.234 291.872 457.025 291.247 456.989 290.545H458.608C458.671 291.171 458.954 291.688 459.458 292.097C459.966 292.502 460.574 292.705 461.28 292.705C461.847 292.705 462.35 292.572 462.791 292.306C463.237 292.041 463.585 291.677 463.837 291.213C464.093 290.746 464.222 290.217 464.222 289.628C464.222 289.025 464.089 288.488 463.824 288.015C463.563 287.538 463.203 287.163 462.744 286.888C462.285 286.614 461.761 286.475 461.172 286.47C460.749 286.466 460.315 286.531 459.87 286.666C459.424 286.796 459.058 286.965 458.77 287.172L457.205 286.983L458.041 280.182H465.22V281.666H459.445L458.959 285.741H459.04C459.323 285.517 459.679 285.33 460.106 285.181C460.533 285.033 460.978 284.959 461.442 284.959C462.287 284.959 463.041 285.161 463.702 285.566C464.368 285.966 464.89 286.515 465.267 287.212C465.65 287.91 465.841 288.706 465.841 289.601C465.841 290.482 465.643 291.27 465.247 291.962C464.856 292.651 464.316 293.195 463.628 293.595C462.94 293.991 462.157 294.189 461.28 294.189ZM473.379 280.182V294H471.706V281.936H471.625L468.251 284.176V282.476L471.706 280.182H473.379ZM487.015 294.189C486.224 294.189 485.511 294.031 484.876 293.717C484.242 293.402 483.734 292.97 483.351 292.421C482.969 291.872 482.76 291.247 482.724 290.545H484.343C484.406 291.171 484.69 291.688 485.193 292.097C485.702 292.502 486.309 292.705 487.015 292.705C487.582 292.705 488.086 292.572 488.527 292.306C488.972 292.041 489.32 291.677 489.572 291.213C489.829 290.746 489.957 290.217 489.957 289.628C489.957 289.025 489.824 288.488 489.559 288.015C489.298 287.538 488.938 287.163 488.479 286.888C488.021 286.614 487.496 286.475 486.907 286.47C486.484 286.466 486.05 286.531 485.605 286.666C485.16 286.796 484.793 286.965 484.505 287.172L482.94 286.983L483.777 280.182H490.956V281.666H485.18L484.694 285.741H484.775C485.059 285.517 485.414 285.33 485.841 285.181C486.268 285.033 486.714 284.959 487.177 284.959C488.023 284.959 488.776 285.161 489.437 285.566C490.103 285.966 490.625 286.515 491.003 287.212C491.385 287.91 491.576 288.706 491.576 289.601C491.576 290.482 491.378 291.27 490.983 291.962C490.591 292.651 490.051 293.195 489.363 293.595C488.675 293.991 487.892 294.189 487.015 294.189ZM499.115 280.182V294H497.441V281.936H497.36L493.987 284.176V282.476L497.441 280.182H499.115ZM512.751 294.189C511.959 294.189 511.246 294.031 510.612 293.717C509.977 293.402 509.469 292.97 509.087 292.421C508.704 291.872 508.495 291.247 508.459 290.545H510.079C510.142 291.171 510.425 291.688 510.929 292.097C511.437 292.502 512.044 292.705 512.751 292.705C513.317 292.705 513.821 292.572 514.262 292.306C514.707 292.041 515.056 291.677 515.308 291.213C515.564 290.746 515.692 290.217 515.692 289.628C515.692 289.025 515.56 288.488 515.294 288.015C515.033 287.538 514.673 287.163 514.215 286.888C513.756 286.614 513.232 286.475 512.643 286.47C512.22 286.466 511.786 286.531 511.34 286.666C510.895 286.796 510.528 286.965 510.241 287.172L508.675 286.983L509.512 280.182H516.691V281.666H510.915L510.43 285.741H510.51C510.794 285.517 511.149 285.33 511.577 285.181C512.004 285.033 512.449 284.959 512.912 284.959C513.758 284.959 514.512 285.161 515.173 285.566C515.838 285.966 516.36 286.515 516.738 287.212C517.12 287.91 517.312 288.706 517.312 289.601C517.312 290.482 517.114 291.27 516.718 291.962C516.327 292.651 515.787 293.195 515.099 293.595C514.41 293.991 513.628 294.189 512.751 294.189ZM524.85 280.182V294H523.177V281.936H523.096L519.722 284.176V282.476L523.177 280.182H524.85ZM417.612 321L419.879 307.182H421.229L418.962 321H417.612ZM411.324 317.168L411.54 315.818H421.849L421.634 317.168H411.324ZM412.754 321L415.021 307.182H416.371L414.104 321H412.754ZM412.134 312.364L412.349 311.014H422.659L422.443 312.364H412.134ZM429.086 321.189C428.195 321.189 427.401 321.036 426.704 320.73C426.011 320.424 425.46 319.999 425.051 319.455C424.646 318.906 424.426 318.27 424.39 317.545H426.09C426.126 317.991 426.279 318.375 426.549 318.699C426.819 319.019 427.172 319.266 427.608 319.441C428.044 319.617 428.528 319.705 429.059 319.705C429.653 319.705 430.179 319.601 430.638 319.394C431.096 319.187 431.456 318.899 431.717 318.531C431.978 318.162 432.108 317.734 432.108 317.249C432.108 316.74 431.983 316.293 431.731 315.906C431.479 315.515 431.11 315.209 430.624 314.988C430.138 314.768 429.545 314.658 428.843 314.658H427.736V313.173H428.843C429.392 313.173 429.873 313.074 430.287 312.876C430.705 312.679 431.031 312.4 431.265 312.04C431.503 311.68 431.623 311.257 431.623 310.771C431.623 310.304 431.519 309.896 431.312 309.55C431.105 309.204 430.813 308.934 430.435 308.74C430.062 308.547 429.621 308.45 429.113 308.45C428.636 308.45 428.186 308.538 427.763 308.713C427.345 308.884 427.003 309.134 426.738 309.462C426.472 309.786 426.328 310.178 426.306 310.636H424.687C424.714 309.912 424.932 309.278 425.341 308.734C425.75 308.185 426.286 307.758 426.947 307.452C427.613 307.146 428.344 306.993 429.14 306.993C429.994 306.993 430.728 307.166 431.339 307.512C431.951 307.854 432.421 308.306 432.749 308.869C433.078 309.431 433.242 310.038 433.242 310.69C433.242 311.469 433.037 312.132 432.628 312.681C432.223 313.23 431.672 313.61 430.975 313.821V313.929C431.848 314.073 432.529 314.444 433.019 315.042C433.51 315.636 433.755 316.371 433.755 317.249C433.755 318 433.55 318.674 433.141 319.273C432.736 319.866 432.183 320.334 431.481 320.676C430.779 321.018 429.981 321.189 429.086 321.189ZM441.183 321.189C440.293 321.189 439.499 321.036 438.802 320.73C438.109 320.424 437.558 319.999 437.149 319.455C436.744 318.906 436.523 318.27 436.487 317.545H438.188C438.224 317.991 438.377 318.375 438.646 318.699C438.916 319.019 439.269 319.266 439.706 319.441C440.142 319.617 440.626 319.705 441.156 319.705C441.75 319.705 442.276 319.601 442.735 319.394C443.194 319.187 443.554 318.899 443.815 318.531C444.076 318.162 444.206 317.734 444.206 317.249C444.206 316.74 444.08 316.293 443.828 315.906C443.576 315.515 443.208 315.209 442.722 314.988C442.236 314.768 441.642 314.658 440.941 314.658H439.834V313.173H440.941C441.489 313.173 441.971 313.074 442.384 312.876C442.803 312.679 443.129 312.4 443.363 312.04C443.601 311.68 443.72 311.257 443.72 310.771C443.72 310.304 443.617 309.896 443.41 309.55C443.203 309.204 442.911 308.934 442.533 308.74C442.16 308.547 441.719 308.45 441.21 308.45C440.734 308.45 440.284 308.538 439.861 308.713C439.443 308.884 439.101 309.134 438.835 309.462C438.57 309.786 438.426 310.178 438.404 310.636H436.784C436.811 309.912 437.029 309.278 437.439 308.734C437.848 308.185 438.383 307.758 439.045 307.452C439.71 307.146 440.441 306.993 441.237 306.993C442.092 306.993 442.825 307.166 443.437 307.512C444.049 307.854 444.519 308.306 444.847 308.869C445.175 309.431 445.34 310.038 445.34 310.69C445.34 311.469 445.135 312.132 444.726 312.681C444.321 313.23 443.77 313.61 443.073 313.821V313.929C443.945 314.073 444.627 314.444 445.117 315.042C445.607 315.636 445.852 316.371 445.852 317.249C445.852 318 445.648 318.674 445.238 319.273C444.834 319.866 444.28 320.334 443.579 320.676C442.877 321.018 442.079 321.189 441.183 321.189ZM453.281 321.189C452.39 321.189 451.597 321.036 450.899 320.73C450.207 320.424 449.656 319.999 449.246 319.455C448.841 318.906 448.621 318.27 448.585 317.545H450.285C450.321 317.991 450.474 318.375 450.744 318.699C451.014 319.019 451.367 319.266 451.803 319.441C452.24 319.617 452.723 319.705 453.254 319.705C453.848 319.705 454.374 319.601 454.833 319.394C455.292 319.187 455.652 318.899 455.912 318.531C456.173 318.162 456.304 317.734 456.304 317.249C456.304 316.74 456.178 316.293 455.926 315.906C455.674 315.515 455.305 315.209 454.819 314.988C454.334 314.768 453.74 314.658 453.038 314.658H451.932V313.173H453.038C453.587 313.173 454.068 313.074 454.482 312.876C454.9 312.679 455.227 312.4 455.46 312.04C455.699 311.68 455.818 311.257 455.818 310.771C455.818 310.304 455.715 309.896 455.508 309.55C455.301 309.204 455.008 308.934 454.631 308.74C454.257 308.547 453.816 308.45 453.308 308.45C452.831 308.45 452.381 308.538 451.959 308.713C451.54 308.884 451.198 309.134 450.933 309.462C450.668 309.786 450.524 310.178 450.501 310.636H448.882C448.909 309.912 449.127 309.278 449.536 308.734C449.946 308.185 450.481 307.758 451.142 307.452C451.808 307.146 452.539 306.993 453.335 306.993C454.19 306.993 454.923 307.166 455.535 307.512C456.146 307.854 456.616 308.306 456.945 308.869C457.273 309.431 457.437 310.038 457.437 310.69C457.437 311.469 457.233 312.132 456.823 312.681C456.419 313.23 455.867 313.61 455.17 313.821V313.929C456.043 314.073 456.724 314.444 457.215 315.042C457.705 315.636 457.95 316.371 457.95 317.249C457.95 318 457.745 318.674 457.336 319.273C456.931 319.866 456.378 320.334 455.676 320.676C454.975 321.018 454.176 321.189 453.281 321.189ZM465.379 321.189C464.488 321.189 463.694 321.036 462.997 320.73C462.304 320.424 461.753 319.999 461.344 319.455C460.939 318.906 460.719 318.27 460.683 317.545H462.383C462.419 317.991 462.572 318.375 462.842 318.699C463.112 319.019 463.465 319.266 463.901 319.441C464.337 319.617 464.821 319.705 465.352 319.705C465.945 319.705 466.472 319.601 466.931 319.394C467.389 319.187 467.749 318.899 468.01 318.531C468.271 318.162 468.401 317.734 468.401 317.249C468.401 316.74 468.276 316.293 468.024 315.906C467.772 315.515 467.403 315.209 466.917 314.988C466.431 314.768 465.838 314.658 465.136 314.658H464.029V313.173H465.136C465.685 313.173 466.166 313.074 466.58 312.876C466.998 312.679 467.324 312.4 467.558 312.04C467.796 311.68 467.916 311.257 467.916 310.771C467.916 310.304 467.812 309.896 467.605 309.55C467.398 309.204 467.106 308.934 466.728 308.74C466.355 308.547 465.914 308.45 465.406 308.45C464.929 308.45 464.479 308.538 464.056 308.713C463.638 308.884 463.296 309.134 463.031 309.462C462.765 309.786 462.621 310.178 462.599 310.636H460.98C461.007 309.912 461.225 309.278 461.634 308.734C462.043 308.185 462.579 307.758 463.24 307.452C463.906 307.146 464.637 306.993 465.433 306.993C466.287 306.993 467.021 307.166 467.632 307.512C468.244 307.854 468.714 308.306 469.042 308.869C469.371 309.431 469.535 310.038 469.535 310.69C469.535 311.469 469.33 312.132 468.921 312.681C468.516 313.23 467.965 313.61 467.268 313.821V313.929C468.141 314.073 468.822 314.444 469.312 315.042C469.803 315.636 470.048 316.371 470.048 317.249C470.048 318 469.843 318.674 469.434 319.273C469.029 319.866 468.476 320.334 467.774 320.676C467.072 321.018 466.274 321.189 465.379 321.189ZM477.476 321.189C476.586 321.189 475.792 321.036 475.095 320.73C474.402 320.424 473.851 319.999 473.442 319.455C473.037 318.906 472.816 318.27 472.78 317.545H474.481C474.517 317.991 474.67 318.375 474.939 318.699C475.209 319.019 475.562 319.266 475.999 319.441C476.435 319.617 476.919 319.705 477.449 319.705C478.043 319.705 478.569 319.601 479.028 319.394C479.487 319.187 479.847 318.899 480.108 318.531C480.369 318.162 480.499 317.734 480.499 317.249C480.499 316.74 480.373 316.293 480.121 315.906C479.869 315.515 479.501 315.209 479.015 314.988C478.529 314.768 477.935 314.658 477.233 314.658H476.127V313.173H477.233C477.782 313.173 478.264 313.074 478.677 312.876C479.096 312.679 479.422 312.4 479.656 312.04C479.894 311.68 480.013 311.257 480.013 310.771C480.013 310.304 479.91 309.896 479.703 309.55C479.496 309.204 479.204 308.934 478.826 308.74C478.452 308.547 478.012 308.45 477.503 308.45C477.027 308.45 476.577 308.538 476.154 308.713C475.736 308.884 475.394 309.134 475.128 309.462C474.863 309.786 474.719 310.178 474.697 310.636H473.077C473.104 309.912 473.322 309.278 473.732 308.734C474.141 308.185 474.676 307.758 475.338 307.452C476.003 307.146 476.734 306.993 477.53 306.993C478.385 306.993 479.118 307.166 479.73 307.512C480.342 307.854 480.812 308.306 481.14 308.869C481.468 309.431 481.633 310.038 481.633 310.69C481.633 311.469 481.428 312.132 481.019 312.681C480.614 313.23 480.063 313.61 479.366 313.821V313.929C480.238 314.073 480.92 314.444 481.41 315.042C481.9 315.636 482.145 316.371 482.145 317.249C482.145 318 481.941 318.674 481.531 319.273C481.127 319.866 480.573 320.334 479.872 320.676C479.17 321.018 478.372 321.189 477.476 321.189ZM489.574 321.189C488.683 321.189 487.89 321.036 487.192 320.73C486.5 320.424 485.949 319.999 485.539 319.455C485.134 318.906 484.914 318.27 484.878 317.545H486.578C486.614 317.991 486.767 318.375 487.037 318.699C487.307 319.019 487.66 319.266 488.096 319.441C488.533 319.617 489.016 319.705 489.547 319.705C490.141 319.705 490.667 319.601 491.126 319.394C491.585 319.187 491.945 318.899 492.205 318.531C492.466 318.162 492.597 317.734 492.597 317.249C492.597 316.74 492.471 316.293 492.219 315.906C491.967 315.515 491.598 315.209 491.112 314.988C490.627 314.768 490.033 314.658 489.331 314.658H488.225V313.173H489.331C489.88 313.173 490.361 313.074 490.775 312.876C491.193 312.679 491.519 312.4 491.753 312.04C491.992 311.68 492.111 311.257 492.111 310.771C492.111 310.304 492.008 309.896 491.801 309.55C491.594 309.204 491.301 308.934 490.923 308.74C490.55 308.547 490.109 308.45 489.601 308.45C489.124 308.45 488.674 308.538 488.252 308.713C487.833 308.884 487.491 309.134 487.226 309.462C486.961 309.786 486.817 310.178 486.794 310.636H485.175C485.202 309.912 485.42 309.278 485.829 308.734C486.239 308.185 486.774 307.758 487.435 307.452C488.101 307.146 488.832 306.993 489.628 306.993C490.483 306.993 491.216 307.166 491.828 307.512C492.439 307.854 492.909 308.306 493.238 308.869C493.566 309.431 493.73 310.038 493.73 310.69C493.73 311.469 493.526 312.132 493.116 312.681C492.711 313.23 492.16 313.61 491.463 313.821V313.929C492.336 314.073 493.017 314.444 493.508 315.042C493.998 315.636 494.243 316.371 494.243 317.249C494.243 318 494.038 318.674 493.629 319.273C493.224 319.866 492.671 320.334 491.969 320.676C491.268 321.018 490.469 321.189 489.574 321.189Z" fill="#0F0F0F"/>
<path d="M707.363 267V253.182H709.866V264.902H715.952V267H707.363ZM720.628 253.182V267H718.125V253.182H720.628ZM732.596 257.594C732.483 257.23 732.328 256.904 732.13 256.616C731.937 256.324 731.703 256.074 731.428 255.867C731.158 255.66 730.848 255.505 730.497 255.402C730.146 255.294 729.764 255.24 729.35 255.24C728.608 255.24 727.947 255.426 727.367 255.8C726.786 256.173 726.33 256.722 725.997 257.446C725.669 258.166 725.504 259.043 725.504 260.077C725.504 261.121 725.669 262.005 725.997 262.729C726.325 263.453 726.782 264.004 727.367 264.382C727.951 264.755 728.631 264.942 729.404 264.942C730.106 264.942 730.713 264.807 731.226 264.537C731.743 264.267 732.141 263.885 732.42 263.39C732.699 262.891 732.839 262.306 732.839 261.636L733.405 261.724H729.654V259.767H735.261V261.427C735.261 262.61 735.009 263.633 734.505 264.497C734.001 265.36 733.309 266.026 732.427 266.494C731.545 266.957 730.533 267.189 729.391 267.189C728.118 267.189 727 266.903 726.037 266.332C725.079 265.756 724.33 264.94 723.791 263.883C723.255 262.821 722.988 261.562 722.988 260.104C722.988 258.989 723.145 257.993 723.46 257.115C723.779 256.238 724.225 255.494 724.796 254.882C725.367 254.266 726.037 253.798 726.807 253.479C727.576 253.155 728.412 252.993 729.316 252.993C730.081 252.993 730.794 253.105 731.455 253.33C732.117 253.551 732.704 253.866 733.216 254.275C733.734 254.684 734.159 255.17 734.492 255.732C734.824 256.295 735.043 256.915 735.146 257.594H732.596ZM737.681 267V253.182H740.184V259.032H746.588V253.182H749.097V267H746.588V261.13H740.184V267H737.681ZM751.213 255.28V253.182H762.238V255.28H757.967V267H755.484V255.28H751.213ZM781.423 260.091C781.423 261.58 781.144 262.855 780.586 263.917C780.033 264.974 779.278 265.783 778.319 266.346C777.366 266.908 776.284 267.189 775.074 267.189C773.864 267.189 772.78 266.908 771.822 266.346C770.868 265.779 770.113 264.967 769.555 263.91C769.002 262.848 768.725 261.575 768.725 260.091C768.725 258.602 769.002 257.329 769.555 256.272C770.113 255.21 770.868 254.399 771.822 253.836C772.78 253.274 773.864 252.993 775.074 252.993C776.284 252.993 777.366 253.274 778.319 253.836C779.278 254.399 780.033 255.21 780.586 256.272C781.144 257.329 781.423 258.602 781.423 260.091ZM778.906 260.091C778.906 259.043 778.742 258.159 778.414 257.439C778.09 256.715 777.64 256.169 777.064 255.8C776.489 255.426 775.825 255.24 775.074 255.24C774.323 255.24 773.659 255.426 773.084 255.8C772.508 256.169 772.056 256.715 771.727 257.439C771.404 258.159 771.242 259.043 771.242 260.091C771.242 261.139 771.404 262.025 771.727 262.749C772.056 263.469 772.508 264.016 773.084 264.389C773.659 264.758 774.323 264.942 775.074 264.942C775.825 264.942 776.489 264.758 777.064 264.389C777.64 264.016 778.09 263.469 778.414 262.749C778.742 262.025 778.906 261.139 778.906 260.091ZM783.79 267V253.182H788.972C790.033 253.182 790.924 253.366 791.643 253.735C792.368 254.104 792.914 254.621 793.283 255.287C793.656 255.948 793.843 256.72 793.843 257.601C793.843 258.487 793.654 259.257 793.276 259.909C792.903 260.556 792.352 261.058 791.623 261.413C790.894 261.764 789.999 261.94 788.938 261.94H785.247V259.862H788.6C789.221 259.862 789.729 259.776 790.125 259.605C790.521 259.43 790.813 259.176 791.002 258.843C791.196 258.505 791.293 258.092 791.293 257.601C791.293 257.111 791.196 256.693 791.002 256.346C790.809 255.995 790.514 255.73 790.119 255.55C789.723 255.366 789.212 255.273 788.587 255.273H786.293V267H783.79ZM790.928 260.739L794.349 267H791.556L788.196 260.739H790.928ZM797.922 267H795.25L800.114 253.182H803.205L808.076 267H805.404L801.714 256.016H801.606L797.922 267ZM798.009 261.582H805.296V263.593H798.009V261.582ZM821.252 253.182V267H819.025L812.514 257.588H812.399V267H809.896V253.182H812.136L818.64 262.601H818.762V253.182H821.252ZM833.236 257.594C833.124 257.23 832.969 256.904 832.771 256.616C832.577 256.324 832.343 256.074 832.069 255.867C831.799 255.66 831.489 255.505 831.138 255.402C830.787 255.294 830.405 255.24 829.991 255.24C829.249 255.24 828.587 255.426 828.007 255.8C827.427 256.173 826.97 256.722 826.638 257.446C826.309 258.166 826.145 259.043 826.145 260.077C826.145 261.121 826.309 262.005 826.638 262.729C826.966 263.453 827.422 264.004 828.007 264.382C828.592 264.755 829.271 264.942 830.045 264.942C830.747 264.942 831.354 264.807 831.867 264.537C832.384 264.267 832.782 263.885 833.061 263.39C833.34 262.891 833.479 262.306 833.479 261.636L834.046 261.724H830.294V259.767H835.901V261.427C835.901 262.61 835.649 263.633 835.146 264.497C834.642 265.36 833.949 266.026 833.068 266.494C832.186 266.957 831.174 267.189 830.031 267.189C828.758 267.189 827.641 266.903 826.678 266.332C825.72 265.756 824.971 264.94 824.431 263.883C823.896 262.821 823.628 261.562 823.628 260.104C823.628 258.989 823.786 257.993 824.101 257.115C824.42 256.238 824.865 255.494 825.437 254.882C826.008 254.266 826.678 253.798 827.447 253.479C828.216 253.155 829.053 252.993 829.957 252.993C830.722 252.993 831.435 253.105 832.096 253.33C832.757 253.551 833.344 253.866 833.857 254.275C834.374 254.684 834.799 255.17 835.132 255.732C835.465 256.295 835.683 256.915 835.787 257.594H833.236ZM838.322 267V253.182H847.309V255.28H840.825V259.032H846.844V261.13H840.825V264.902H847.363V267H838.322ZM707.363 294V280.182H712.545C713.606 280.182 714.497 280.366 715.217 280.735C715.941 281.104 716.487 281.621 716.856 282.287C717.23 282.948 717.416 283.72 717.416 284.601C717.416 285.487 717.227 286.257 716.849 286.909C716.476 287.556 715.925 288.058 715.196 288.413C714.468 288.764 713.573 288.94 712.511 288.94H708.82V286.862H712.174C712.794 286.862 713.303 286.776 713.699 286.605C714.094 286.43 714.387 286.176 714.576 285.843C714.769 285.505 714.866 285.092 714.866 284.601C714.866 284.111 714.769 283.693 714.576 283.346C714.382 282.995 714.088 282.73 713.692 282.55C713.296 282.366 712.785 282.273 712.16 282.273H709.866V294H707.363ZM714.501 287.739L717.922 294H715.129L711.769 287.739H714.501ZM728.977 284.594C728.865 284.23 728.71 283.904 728.512 283.616C728.318 283.324 728.085 283.074 727.81 282.867C727.54 282.66 727.23 282.505 726.879 282.402C726.528 282.294 726.146 282.24 725.732 282.24C724.99 282.24 724.329 282.426 723.748 282.8C723.168 283.173 722.712 283.722 722.379 284.446C722.05 285.166 721.886 286.043 721.886 287.077C721.886 288.121 722.05 289.005 722.379 289.729C722.707 290.453 723.164 291.004 723.748 291.382C724.333 291.755 725.012 291.942 725.786 291.942C726.488 291.942 727.095 291.807 727.608 291.537C728.125 291.267 728.523 290.885 728.802 290.39C729.081 289.891 729.22 289.306 729.22 288.636L729.787 288.724H726.036V286.767H731.643V288.427C731.643 289.61 731.391 290.633 730.887 291.497C730.383 292.36 729.69 293.026 728.809 293.494C727.927 293.957 726.915 294.189 725.773 294.189C724.5 294.189 723.382 293.903 722.419 293.332C721.461 292.756 720.712 291.94 720.172 290.883C719.637 289.821 719.369 288.562 719.369 287.104C719.369 285.989 719.527 284.993 719.842 284.115C720.161 283.238 720.606 282.494 721.178 281.882C721.749 281.266 722.419 280.798 723.188 280.479C723.958 280.155 724.794 279.993 725.698 279.993C726.463 279.993 727.176 280.105 727.837 280.33C728.498 280.551 729.085 280.866 729.598 281.275C730.115 281.684 730.541 282.17 730.873 282.732C731.206 283.295 731.424 283.915 731.528 284.594H728.977ZM734.063 294V280.182H739.353C740.351 280.182 741.181 280.339 741.843 280.654C742.508 280.964 743.005 281.39 743.334 281.929C743.667 282.469 743.833 283.081 743.833 283.765C743.833 284.327 743.725 284.808 743.509 285.208C743.293 285.604 743.003 285.926 742.639 286.173C742.274 286.421 741.867 286.598 741.418 286.706V286.841C741.908 286.868 742.378 287.019 742.828 287.293C743.282 287.563 743.653 287.946 743.941 288.44C744.229 288.935 744.373 289.533 744.373 290.235C744.373 290.95 744.2 291.594 743.853 292.165C743.507 292.732 742.985 293.179 742.288 293.507C741.591 293.836 740.714 294 739.657 294H734.063ZM736.566 291.908H739.258C740.167 291.908 740.822 291.735 741.222 291.389C741.627 291.038 741.829 290.588 741.829 290.039C741.829 289.63 741.728 289.261 741.525 288.933C741.323 288.6 741.035 288.339 740.662 288.15C740.289 287.957 739.843 287.86 739.326 287.86H736.566V291.908ZM736.566 286.059H739.043C739.474 286.059 739.863 285.98 740.21 285.822C740.556 285.661 740.828 285.433 741.026 285.141C741.229 284.844 741.33 284.493 741.33 284.088C741.33 283.553 741.141 283.112 740.763 282.766C740.39 282.42 739.834 282.246 739.097 282.246H736.566V286.059ZM751.331 294V292.786L755.892 287.793C756.427 287.208 756.868 286.7 757.214 286.268C757.561 285.831 757.817 285.422 757.983 285.04C758.154 284.653 758.24 284.248 758.24 283.825C758.24 283.339 758.123 282.919 757.889 282.564C757.66 282.208 757.345 281.934 756.944 281.74C756.544 281.547 756.094 281.45 755.595 281.45C755.064 281.45 754.601 281.56 754.205 281.781C753.814 281.997 753.51 282.3 753.294 282.692C753.083 283.083 752.977 283.542 752.977 284.068H751.385C751.385 283.259 751.571 282.548 751.945 281.936C752.318 281.324 752.826 280.848 753.47 280.506C754.117 280.164 754.844 279.993 755.649 279.993C756.459 279.993 757.176 280.164 757.801 280.506C758.427 280.848 758.917 281.309 759.272 281.889C759.628 282.469 759.805 283.115 759.805 283.825C759.805 284.334 759.713 284.831 759.529 285.316C759.349 285.798 759.034 286.335 758.584 286.929C758.139 287.518 757.52 288.238 756.729 289.088L753.625 292.408V292.516H760.048V294H751.331ZM767.153 294.189C766.361 294.189 765.648 294.031 765.014 293.717C764.38 293.402 763.872 292.97 763.489 292.421C763.107 291.872 762.898 291.247 762.862 290.545H764.481C764.544 291.171 764.827 291.688 765.331 292.097C765.839 292.502 766.447 292.705 767.153 292.705C767.72 292.705 768.223 292.572 768.664 292.306C769.11 292.041 769.458 291.677 769.71 291.213C769.966 290.746 770.095 290.217 770.095 289.628C770.095 289.025 769.962 288.488 769.697 288.015C769.436 287.538 769.076 287.163 768.617 286.888C768.158 286.614 767.634 286.475 767.045 286.47C766.622 286.466 766.188 286.531 765.743 286.666C765.297 286.796 764.931 286.965 764.643 287.172L763.078 286.983L763.914 280.182H771.093V281.666H765.318L764.832 285.741H764.913C765.196 285.517 765.552 285.33 765.979 285.181C766.406 285.033 766.852 284.959 767.315 284.959C768.16 284.959 768.914 285.161 769.575 285.566C770.241 285.966 770.763 286.515 771.14 287.212C771.523 287.91 771.714 288.706 771.714 289.601C771.714 290.482 771.516 291.27 771.12 291.962C770.729 292.651 770.189 293.195 769.501 293.595C768.813 293.991 768.03 294.189 767.153 294.189ZM779.063 294.189C778.173 294.189 777.379 294.036 776.682 293.73C775.989 293.424 775.438 292.999 775.028 292.455C774.624 291.906 774.403 291.27 774.367 290.545H776.068C776.104 290.991 776.256 291.375 776.526 291.699C776.796 292.019 777.149 292.266 777.586 292.441C778.022 292.617 778.506 292.705 779.036 292.705C779.63 292.705 780.156 292.601 780.615 292.394C781.074 292.187 781.434 291.899 781.695 291.531C781.956 291.162 782.086 290.734 782.086 290.249C782.086 289.74 781.96 289.293 781.708 288.906C781.456 288.515 781.087 288.209 780.602 287.988C780.116 287.768 779.522 287.658 778.82 287.658H777.714V286.173H778.82C779.369 286.173 779.85 286.074 780.264 285.876C780.683 285.679 781.009 285.4 781.243 285.04C781.481 284.68 781.6 284.257 781.6 283.771C781.6 283.304 781.497 282.896 781.29 282.55C781.083 282.204 780.791 281.934 780.413 281.74C780.039 281.547 779.599 281.45 779.09 281.45C778.613 281.45 778.164 281.538 777.741 281.713C777.323 281.884 776.981 282.134 776.715 282.462C776.45 282.786 776.306 283.178 776.283 283.636H774.664C774.691 282.912 774.909 282.278 775.319 281.734C775.728 281.185 776.263 280.758 776.924 280.452C777.59 280.146 778.321 279.993 779.117 279.993C779.972 279.993 780.705 280.166 781.317 280.512C781.929 280.854 782.399 281.306 782.727 281.869C783.055 282.431 783.22 283.038 783.22 283.69C783.22 284.469 783.015 285.132 782.606 285.681C782.201 286.23 781.65 286.61 780.953 286.821V286.929C781.825 287.073 782.507 287.444 782.997 288.042C783.487 288.636 783.732 289.371 783.732 290.249C783.732 291 783.528 291.674 783.118 292.273C782.714 292.866 782.16 293.334 781.459 293.676C780.757 294.018 779.958 294.189 779.063 294.189ZM796.694 280.182V294H795.02V281.936H794.939L791.566 284.176V282.476L795.02 280.182H796.694ZM805.067 279.993C805.634 279.997 806.2 280.105 806.767 280.317C807.334 280.528 807.851 280.879 808.319 281.369C808.787 281.855 809.162 282.519 809.446 283.36C809.729 284.201 809.871 285.256 809.871 286.524C809.871 287.752 809.754 288.843 809.52 289.797C809.291 290.746 808.958 291.546 808.521 292.199C808.09 292.851 807.563 293.346 806.943 293.683C806.326 294.02 805.629 294.189 804.851 294.189C804.077 294.189 803.387 294.036 802.78 293.73C802.177 293.42 801.682 292.99 801.295 292.441C800.913 291.888 800.668 291.247 800.56 290.518H802.206C802.354 291.153 802.649 291.677 803.09 292.091C803.535 292.5 804.122 292.705 804.851 292.705C805.917 292.705 806.758 292.239 807.374 291.308C807.995 290.377 808.305 289.061 808.305 287.361H808.198C807.946 287.739 807.647 288.065 807.3 288.339C806.954 288.614 806.569 288.825 806.146 288.973C805.724 289.122 805.274 289.196 804.797 289.196C804.005 289.196 803.279 289 802.618 288.609C801.961 288.213 801.435 287.671 801.039 286.983C800.647 286.29 800.452 285.499 800.452 284.608C800.452 283.762 800.641 282.989 801.019 282.287C801.401 281.581 801.936 281.018 802.624 280.6C803.317 280.182 804.131 279.979 805.067 279.993ZM805.067 281.477C804.5 281.477 803.99 281.619 803.535 281.902C803.085 282.181 802.728 282.559 802.462 283.036C802.202 283.508 802.071 284.032 802.071 284.608C802.071 285.184 802.197 285.708 802.449 286.18C802.705 286.648 803.054 287.021 803.495 287.3C803.94 287.574 804.446 287.712 805.013 287.712C805.44 287.712 805.838 287.628 806.207 287.462C806.576 287.291 806.898 287.059 807.172 286.767C807.451 286.47 807.669 286.135 807.826 285.762C807.984 285.384 808.063 284.99 808.063 284.581C808.063 284.041 807.932 283.535 807.671 283.063C807.415 282.591 807.06 282.208 806.605 281.916C806.155 281.623 805.643 281.477 805.067 281.477ZM816.95 294.189C816.024 294.189 815.205 294.025 814.494 293.696C813.788 293.364 813.237 292.907 812.841 292.327C812.445 291.742 812.25 291.076 812.254 290.33C812.25 289.745 812.364 289.205 812.598 288.71C812.832 288.211 813.152 287.795 813.556 287.462C813.966 287.125 814.422 286.911 814.926 286.821V286.74C814.265 286.569 813.739 286.198 813.347 285.627C812.956 285.051 812.763 284.397 812.767 283.663C812.763 282.962 812.94 282.334 813.3 281.781C813.66 281.228 814.155 280.791 814.784 280.472C815.419 280.153 816.141 279.993 816.95 279.993C817.751 279.993 818.466 280.153 819.096 280.472C819.726 280.791 820.22 281.228 820.58 281.781C820.945 282.334 821.129 282.962 821.134 283.663C821.129 284.397 820.929 285.051 820.533 285.627C820.142 286.198 819.622 286.569 818.974 286.74V286.821C819.474 286.911 819.924 287.125 820.324 287.462C820.724 287.795 821.044 288.211 821.282 288.71C821.52 289.205 821.642 289.745 821.646 290.33C821.642 291.076 821.439 291.742 821.039 292.327C820.643 292.907 820.092 293.364 819.386 293.696C818.684 294.025 817.872 294.189 816.95 294.189ZM816.95 292.705C817.576 292.705 818.115 292.603 818.57 292.401C819.024 292.199 819.375 291.913 819.622 291.544C819.87 291.175 819.996 290.743 820 290.249C819.996 289.727 819.861 289.266 819.595 288.865C819.33 288.465 818.968 288.15 818.509 287.921C818.055 287.691 817.535 287.577 816.95 287.577C816.361 287.577 815.835 287.691 815.371 287.921C814.913 288.15 814.551 288.465 814.285 288.865C814.024 289.266 813.896 289.727 813.901 290.249C813.896 290.743 814.015 291.175 814.258 291.544C814.506 291.913 814.859 292.199 815.317 292.401C815.776 292.603 816.321 292.705 816.95 292.705ZM816.95 286.146C817.445 286.146 817.884 286.047 818.266 285.849C818.653 285.652 818.956 285.375 819.177 285.02C819.397 284.664 819.51 284.248 819.514 283.771C819.51 283.304 819.4 282.896 819.184 282.55C818.968 282.199 818.669 281.929 818.286 281.74C817.904 281.547 817.459 281.45 816.95 281.45C816.433 281.45 815.981 281.547 815.594 281.74C815.207 281.929 814.908 282.199 814.697 282.55C814.485 282.896 814.382 283.304 814.386 283.771C814.382 284.248 814.488 284.664 814.703 285.02C814.924 285.375 815.228 285.652 815.614 285.849C816.001 286.047 816.446 286.146 816.95 286.146ZM834.434 280.182V294H832.761V281.936H832.68L829.306 284.176V282.476L832.761 280.182H834.434ZM842.834 294.189C841.907 294.189 841.089 294.025 840.378 293.696C839.672 293.364 839.121 292.907 838.725 292.327C838.329 291.742 838.134 291.076 838.138 290.33C838.134 289.745 838.248 289.205 838.482 288.71C838.716 288.211 839.035 287.795 839.44 287.462C839.85 287.125 840.306 286.911 840.81 286.821V286.74C840.149 286.569 839.622 286.198 839.231 285.627C838.84 285.051 838.646 284.397 838.651 283.663C838.646 282.962 838.824 282.334 839.184 281.781C839.544 281.228 840.039 280.791 840.668 280.472C841.302 280.153 842.024 279.993 842.834 279.993C843.635 279.993 844.35 280.153 844.98 280.472C845.609 280.791 846.104 281.228 846.464 281.781C846.828 282.334 847.013 282.962 847.017 283.663C847.013 284.397 846.813 285.051 846.417 285.627C846.025 286.198 845.506 286.569 844.858 286.74V286.821C845.358 286.911 845.807 287.125 846.208 287.462C846.608 287.795 846.927 288.211 847.166 288.71C847.404 289.205 847.526 289.745 847.53 290.33C847.526 291.076 847.323 291.742 846.923 292.327C846.527 292.907 845.976 293.364 845.27 293.696C844.568 294.025 843.756 294.189 842.834 294.189ZM842.834 292.705C843.459 292.705 843.999 292.603 844.453 292.401C844.908 292.199 845.259 291.913 845.506 291.544C845.753 291.175 845.879 290.743 845.884 290.249C845.879 289.727 845.744 289.266 845.479 288.865C845.214 288.465 844.851 288.15 844.393 287.921C843.938 287.691 843.419 287.577 842.834 287.577C842.245 287.577 841.719 287.691 841.255 287.921C840.796 288.15 840.434 288.465 840.169 288.865C839.908 289.266 839.78 289.727 839.784 290.249C839.78 290.743 839.899 291.175 840.142 291.544C840.389 291.913 840.742 292.199 841.201 292.401C841.66 292.603 842.204 292.705 842.834 292.705ZM842.834 286.146C843.329 286.146 843.767 286.047 844.15 285.849C844.537 285.652 844.84 285.375 845.061 285.02C845.281 284.664 845.393 284.248 845.398 283.771C845.393 283.304 845.283 282.896 845.067 282.55C844.851 282.199 844.552 281.929 844.17 281.74C843.788 281.547 843.342 281.45 842.834 281.45C842.317 281.45 841.865 281.547 841.478 281.74C841.091 281.929 840.792 282.199 840.581 282.55C840.369 282.896 840.266 283.304 840.27 283.771C840.266 284.248 840.371 284.664 840.587 285.02C840.808 285.375 841.111 285.652 841.498 285.849C841.885 286.047 842.33 286.146 842.834 286.146ZM854.785 294.189C853.894 294.189 853.1 294.036 852.403 293.73C851.711 293.424 851.16 292.999 850.75 292.455C850.345 291.906 850.125 291.27 850.089 290.545H851.789C851.825 290.991 851.978 291.375 852.248 291.699C852.518 292.019 852.871 292.266 853.307 292.441C853.744 292.617 854.227 292.705 854.758 292.705C855.352 292.705 855.878 292.601 856.337 292.394C856.796 292.187 857.155 291.899 857.416 291.531C857.677 291.162 857.808 290.734 857.808 290.249C857.808 289.74 857.682 289.293 857.43 288.906C857.178 288.515 856.809 288.209 856.323 287.988C855.838 287.768 855.244 287.658 854.542 287.658H853.436V286.173H854.542C855.091 286.173 855.572 286.074 855.986 285.876C856.404 285.679 856.73 285.4 856.964 285.04C857.203 284.68 857.322 284.257 857.322 283.771C857.322 283.304 857.218 282.896 857.012 282.55C856.805 282.204 856.512 281.934 856.134 281.74C855.761 281.547 855.32 281.45 854.812 281.45C854.335 281.45 853.885 281.538 853.463 281.713C853.044 281.884 852.702 282.134 852.437 282.462C852.172 282.786 852.028 283.178 852.005 283.636H850.386C850.413 282.912 850.631 282.278 851.04 281.734C851.45 281.185 851.985 280.758 852.646 280.452C853.312 280.146 854.043 279.993 854.839 279.993C855.694 279.993 856.427 280.166 857.039 280.512C857.65 280.854 858.12 281.306 858.449 281.869C858.777 282.431 858.941 283.038 858.941 283.69C858.941 284.469 858.737 285.132 858.327 285.681C857.922 286.23 857.371 286.61 856.674 286.821V286.929C857.547 287.073 858.228 287.444 858.719 288.042C859.209 288.636 859.454 289.371 859.454 290.249C859.454 291 859.249 291.674 858.84 292.273C858.435 292.866 857.882 293.334 857.18 293.676C856.479 294.018 855.68 294.189 854.785 294.189ZM712.612 321L714.879 307.182H716.229L713.962 321H712.612ZM706.324 317.168L706.54 315.818H716.849L716.634 317.168H706.324ZM707.754 321L710.021 307.182H711.371L709.104 321H707.754ZM707.134 312.364L707.349 311.014H717.659L717.443 312.364H707.134ZM719.66 321V307.182H727.945V308.666H721.333V313.335H727.324V314.82H721.333V321H719.66ZM735.075 321H730.811V307.182H735.264C736.605 307.182 737.752 307.458 738.705 308.012C739.659 308.56 740.39 309.35 740.898 310.38C741.406 311.406 741.66 312.634 741.66 314.064C741.66 315.503 741.404 316.743 740.891 317.782C740.378 318.816 739.632 319.612 738.651 320.17C737.671 320.723 736.479 321 735.075 321ZM732.484 319.516H734.967C736.11 319.516 737.057 319.295 737.808 318.854C738.559 318.414 739.119 317.786 739.488 316.972C739.857 316.158 740.041 315.188 740.041 314.064C740.041 312.948 739.859 311.988 739.495 311.183C739.13 310.373 738.586 309.752 737.862 309.321C737.138 308.884 736.236 308.666 735.156 308.666H732.484V319.516ZM755.587 311.5H753.913C753.814 311.019 753.641 310.596 753.394 310.232C753.151 309.867 752.854 309.561 752.503 309.314C752.157 309.062 751.772 308.873 751.349 308.747C750.927 308.621 750.486 308.558 750.027 308.558C749.19 308.558 748.432 308.77 747.753 309.192C747.078 309.615 746.541 310.238 746.141 311.061C745.745 311.885 745.547 312.894 745.547 314.091C745.547 315.287 745.745 316.297 746.141 317.12C746.541 317.944 747.078 318.567 747.753 318.989C748.432 319.412 749.19 319.624 750.027 319.624C750.486 319.624 750.927 319.561 751.349 319.435C751.772 319.309 752.157 319.122 752.503 318.875C752.854 318.623 753.151 318.315 753.394 317.95C753.641 317.581 753.814 317.159 753.913 316.682H755.587C755.461 317.388 755.231 318.02 754.898 318.578C754.565 319.136 754.152 319.61 753.657 320.001C753.162 320.388 752.607 320.683 751.99 320.885C751.379 321.088 750.724 321.189 750.027 321.189C748.848 321.189 747.8 320.901 746.883 320.325C745.965 319.75 745.243 318.931 744.717 317.869C744.191 316.808 743.927 315.548 743.927 314.091C743.927 312.634 744.191 311.374 744.717 310.312C745.243 309.251 745.965 308.432 746.883 307.857C747.8 307.281 748.848 306.993 750.027 306.993C750.724 306.993 751.379 307.094 751.99 307.297C752.607 307.499 753.162 307.796 753.657 308.187C754.152 308.574 754.565 309.046 754.898 309.604C755.231 310.157 755.461 310.789 755.587 311.5ZM762.636 321.189C762.069 321.18 761.502 321.072 760.935 320.865C760.369 320.658 759.851 320.31 759.384 319.819C758.916 319.324 758.54 318.656 758.257 317.815C757.973 316.97 757.832 315.908 757.832 314.631C757.832 313.407 757.946 312.323 758.176 311.379C758.405 310.429 758.738 309.631 759.174 308.983C759.611 308.331 760.137 307.836 760.753 307.499C761.374 307.162 762.073 306.993 762.852 306.993C763.625 306.993 764.313 307.148 764.916 307.458C765.523 307.764 766.018 308.192 766.401 308.74C766.783 309.289 767.03 309.921 767.143 310.636H765.496C765.344 310.016 765.047 309.501 764.606 309.091C764.165 308.682 763.58 308.477 762.852 308.477C761.781 308.477 760.938 308.943 760.321 309.874C759.71 310.805 759.402 312.112 759.397 313.794H759.505C759.757 313.412 760.056 313.086 760.402 312.816C760.753 312.541 761.14 312.33 761.563 312.181C761.986 312.033 762.433 311.959 762.906 311.959C763.697 311.959 764.421 312.157 765.078 312.553C765.735 312.944 766.261 313.486 766.657 314.179C767.053 314.867 767.251 315.656 767.251 316.547C767.251 317.402 767.06 318.184 766.677 318.895C766.295 319.601 765.757 320.163 765.065 320.582C764.376 320.996 763.567 321.198 762.636 321.189ZM762.636 319.705C763.202 319.705 763.711 319.563 764.161 319.279C764.615 318.996 764.972 318.616 765.233 318.139C765.499 317.662 765.631 317.132 765.631 316.547C765.631 315.976 765.503 315.456 765.247 314.988C764.995 314.516 764.646 314.14 764.201 313.862C763.76 313.583 763.256 313.443 762.69 313.443C762.262 313.443 761.864 313.529 761.495 313.7C761.127 313.866 760.803 314.095 760.524 314.388C760.249 314.68 760.033 315.015 759.876 315.393C759.719 315.766 759.64 316.16 759.64 316.574C759.64 317.123 759.768 317.635 760.025 318.112C760.285 318.589 760.641 318.974 761.091 319.266C761.545 319.558 762.06 319.705 762.636 319.705ZM770.147 321V307.182H774.978C775.94 307.182 776.734 307.348 777.36 307.681C777.985 308.009 778.45 308.453 778.756 309.01C779.062 309.564 779.215 310.178 779.215 310.852C779.215 311.446 779.109 311.936 778.898 312.323C778.691 312.71 778.417 313.016 778.075 313.241C777.737 313.466 777.371 313.632 776.975 313.74V313.875C777.398 313.902 777.823 314.05 778.25 314.32C778.678 314.59 779.035 314.977 779.323 315.481C779.611 315.985 779.755 316.601 779.755 317.33C779.755 318.022 779.597 318.645 779.283 319.199C778.968 319.752 778.471 320.19 777.791 320.514C777.112 320.838 776.228 321 775.14 321H770.147ZM771.82 319.516H775.14C776.233 319.516 777.009 319.304 777.468 318.881C777.931 318.454 778.163 317.937 778.163 317.33C778.163 316.862 778.043 316.43 777.805 316.034C777.567 315.634 777.227 315.314 776.786 315.076C776.345 314.833 775.824 314.712 775.221 314.712H771.82V319.516ZM771.82 313.254H774.924C775.428 313.254 775.882 313.155 776.287 312.957C776.696 312.759 777.02 312.481 777.258 312.121C777.501 311.761 777.623 311.338 777.623 310.852C777.623 310.245 777.411 309.73 776.989 309.307C776.566 308.88 775.896 308.666 774.978 308.666H771.82V313.254ZM782.693 321L788.874 308.774V308.666H781.749V307.182H790.601V308.747L784.448 321H782.693Z" fill="#0F0F0F"/>
<path d="M998.363 267V253.182H1000.87V264.902H1006.95V267H998.363ZM1011.63 253.182V267H1009.12V253.182H1011.63ZM1023.6 257.594C1023.48 257.23 1023.33 256.904 1023.13 256.616C1022.94 256.324 1022.7 256.074 1022.43 255.867C1022.16 255.66 1021.85 255.505 1021.5 255.402C1021.15 255.294 1020.76 255.24 1020.35 255.24C1019.61 255.24 1018.95 255.426 1018.37 255.8C1017.79 256.173 1017.33 256.722 1017 257.446C1016.67 258.166 1016.5 259.043 1016.5 260.077C1016.5 261.121 1016.67 262.005 1017 262.729C1017.33 263.453 1017.78 264.004 1018.37 264.382C1018.95 264.755 1019.63 264.942 1020.4 264.942C1021.11 264.942 1021.71 264.807 1022.23 264.537C1022.74 264.267 1023.14 263.885 1023.42 263.39C1023.7 262.891 1023.84 262.306 1023.84 261.636L1024.41 261.724H1020.65V259.767H1026.26V261.427C1026.26 262.61 1026.01 263.633 1025.51 264.497C1025 265.36 1024.31 266.026 1023.43 266.494C1022.55 266.957 1021.53 267.189 1020.39 267.189C1019.12 267.189 1018 266.903 1017.04 266.332C1016.08 265.756 1015.33 264.94 1014.79 263.883C1014.26 262.821 1013.99 261.562 1013.99 260.104C1013.99 258.989 1014.15 257.993 1014.46 257.115C1014.78 256.238 1015.22 255.494 1015.8 254.882C1016.37 254.266 1017.04 253.798 1017.81 253.479C1018.58 253.155 1019.41 252.993 1020.32 252.993C1021.08 252.993 1021.79 253.105 1022.46 253.33C1023.12 253.551 1023.7 253.866 1024.22 254.275C1024.73 254.684 1025.16 255.17 1025.49 255.732C1025.82 256.295 1026.04 256.915 1026.15 257.594H1023.6ZM1028.68 267V253.182H1031.18V259.032H1037.59V253.182H1040.1V267H1037.59V261.13H1031.18V267H1028.68ZM1042.21 255.28V253.182H1053.24V255.28H1048.97V267H1046.48V255.28H1042.21ZM1069.33 257.594C1069.22 257.23 1069.07 256.904 1068.87 256.616C1068.67 256.324 1068.44 256.074 1068.17 255.867C1067.9 255.66 1067.59 255.505 1067.23 255.402C1066.88 255.294 1066.5 255.24 1066.09 255.24C1065.35 255.24 1064.68 255.426 1064.1 255.8C1063.52 256.173 1063.07 256.722 1062.73 257.446C1062.41 258.166 1062.24 259.043 1062.24 260.077C1062.24 261.121 1062.41 262.005 1062.73 262.729C1063.06 263.453 1063.52 264.004 1064.1 264.382C1064.69 264.755 1065.37 264.942 1066.14 264.942C1066.84 264.942 1067.45 264.807 1067.96 264.537C1068.48 264.267 1068.88 263.885 1069.16 263.39C1069.44 262.891 1069.58 262.306 1069.58 261.636L1070.14 261.724H1066.39V259.767H1072V261.427C1072 262.61 1071.75 263.633 1071.24 264.497C1070.74 265.36 1070.05 266.026 1069.16 266.494C1068.28 266.957 1067.27 267.189 1066.13 267.189C1064.86 267.189 1063.74 266.903 1062.77 266.332C1061.82 265.756 1061.07 264.94 1060.53 263.883C1059.99 262.821 1059.72 261.562 1059.72 260.104C1059.72 258.989 1059.88 257.993 1060.2 257.115C1060.52 256.238 1060.96 255.494 1061.53 254.882C1062.1 254.266 1062.77 253.798 1063.54 253.479C1064.31 253.155 1065.15 252.993 1066.05 252.993C1066.82 252.993 1067.53 253.105 1068.19 253.33C1068.85 253.551 1069.44 253.866 1069.95 254.275C1070.47 254.684 1070.9 255.17 1071.23 255.732C1071.56 256.295 1071.78 256.915 1071.88 257.594H1069.33ZM1074.42 267V253.182H1079.6C1080.66 253.182 1081.55 253.366 1082.27 253.735C1083 254.104 1083.54 254.621 1083.91 255.287C1084.29 255.948 1084.47 256.72 1084.47 257.601C1084.47 258.487 1084.28 259.257 1083.91 259.909C1083.53 260.556 1082.98 261.058 1082.25 261.413C1081.52 261.764 1080.63 261.94 1079.57 261.94H1075.88V259.862H1079.23C1079.85 259.862 1080.36 259.776 1080.75 259.605C1081.15 259.43 1081.44 259.176 1081.63 258.843C1081.82 258.505 1081.92 258.092 1081.92 257.601C1081.92 257.111 1081.82 256.693 1081.63 256.346C1081.44 255.995 1081.14 255.73 1080.75 255.55C1080.35 255.366 1079.84 255.273 1079.22 255.273H1076.92V267H1074.42ZM1081.56 260.739L1084.98 267H1082.18L1078.82 260.739H1081.56ZM1086.78 267V253.182H1095.76V255.28H1089.28V259.032H1095.3V261.13H1089.28V264.902H1095.82V267H1086.78ZM1097.37 253.182H1100.2L1103.58 259.295H1103.71L1107.1 253.182H1109.92L1104.9 261.845V267H1102.4V261.845L1097.37 253.182ZM998.363 294V280.182H1003.54C1004.61 280.182 1005.5 280.366 1006.22 280.735C1006.94 281.104 1007.49 281.621 1007.86 282.287C1008.23 282.948 1008.42 283.72 1008.42 284.601C1008.42 285.487 1008.23 286.257 1007.85 286.909C1007.48 287.556 1006.93 288.058 1006.2 288.413C1005.47 288.764 1004.57 288.94 1003.51 288.94H999.82V286.862H1003.17C1003.79 286.862 1004.3 286.776 1004.7 286.605C1005.09 286.43 1005.39 286.176 1005.58 285.843C1005.77 285.505 1005.87 285.092 1005.87 284.601C1005.87 284.111 1005.77 283.693 1005.58 283.346C1005.38 282.995 1005.09 282.73 1004.69 282.55C1004.3 282.366 1003.79 282.273 1003.16 282.273H1000.87V294H998.363ZM1005.5 287.739L1008.92 294H1006.13L1002.77 287.739H1005.5ZM1019.98 284.594C1019.86 284.23 1019.71 283.904 1019.51 283.616C1019.32 283.324 1019.08 283.074 1018.81 282.867C1018.54 282.66 1018.23 282.505 1017.88 282.402C1017.53 282.294 1017.15 282.24 1016.73 282.24C1015.99 282.24 1015.33 282.426 1014.75 282.8C1014.17 283.173 1013.71 283.722 1013.38 284.446C1013.05 285.166 1012.89 286.043 1012.89 287.077C1012.89 288.121 1013.05 289.005 1013.38 289.729C1013.71 290.453 1014.16 291.004 1014.75 291.382C1015.33 291.755 1016.01 291.942 1016.79 291.942C1017.49 291.942 1018.09 291.807 1018.61 291.537C1019.13 291.267 1019.52 290.885 1019.8 290.39C1020.08 289.891 1020.22 289.306 1020.22 288.636L1020.79 288.724H1017.04V286.767H1022.64V288.427C1022.64 289.61 1022.39 290.633 1021.89 291.497C1021.38 292.36 1020.69 293.026 1019.81 293.494C1018.93 293.957 1017.92 294.189 1016.77 294.189C1015.5 294.189 1014.38 293.903 1013.42 293.332C1012.46 292.756 1011.71 291.94 1011.17 290.883C1010.64 289.821 1010.37 288.562 1010.37 287.104C1010.37 285.989 1010.53 284.993 1010.84 284.115C1011.16 283.238 1011.61 282.494 1012.18 281.882C1012.75 281.266 1013.42 280.798 1014.19 280.479C1014.96 280.155 1015.79 279.993 1016.7 279.993C1017.46 279.993 1018.18 280.105 1018.84 280.33C1019.5 280.551 1020.09 280.866 1020.6 281.275C1021.12 281.684 1021.54 282.17 1021.87 282.732C1022.21 283.295 1022.42 283.915 1022.53 284.594H1019.98ZM1025.06 294V280.182H1030.35C1031.35 280.182 1032.18 280.339 1032.84 280.654C1033.51 280.964 1034.01 281.39 1034.33 281.929C1034.67 282.469 1034.83 283.081 1034.83 283.765C1034.83 284.327 1034.73 284.808 1034.51 285.208C1034.29 285.604 1034 285.926 1033.64 286.173C1033.27 286.421 1032.87 286.598 1032.42 286.706V286.841C1032.91 286.868 1033.38 287.019 1033.83 287.293C1034.28 287.563 1034.65 287.946 1034.94 288.44C1035.23 288.935 1035.37 289.533 1035.37 290.235C1035.37 290.95 1035.2 291.594 1034.85 292.165C1034.51 292.732 1033.99 293.179 1033.29 293.507C1032.59 293.836 1031.71 294 1030.66 294H1025.06ZM1027.57 291.908H1030.26C1031.17 291.908 1031.82 291.735 1032.22 291.389C1032.63 291.038 1032.83 290.588 1032.83 290.039C1032.83 289.63 1032.73 289.261 1032.53 288.933C1032.32 288.6 1032.04 288.339 1031.66 288.15C1031.29 287.957 1030.84 287.86 1030.33 287.86H1027.57V291.908ZM1027.57 286.059H1030.04C1030.47 286.059 1030.86 285.98 1031.21 285.822C1031.56 285.661 1031.83 285.433 1032.03 285.141C1032.23 284.844 1032.33 284.493 1032.33 284.088C1032.33 283.553 1032.14 283.112 1031.76 282.766C1031.39 282.42 1030.83 282.246 1030.1 282.246H1027.57V286.059ZM1042.33 294V292.786L1046.89 287.793C1047.43 287.208 1047.87 286.7 1048.21 286.268C1048.56 285.831 1048.82 285.422 1048.98 285.04C1049.15 284.653 1049.24 284.248 1049.24 283.825C1049.24 283.339 1049.12 282.919 1048.89 282.564C1048.66 282.208 1048.34 281.934 1047.94 281.74C1047.54 281.547 1047.09 281.45 1046.59 281.45C1046.06 281.45 1045.6 281.56 1045.21 281.781C1044.81 281.997 1044.51 282.3 1044.29 282.692C1044.08 283.083 1043.98 283.542 1043.98 284.068H1042.38C1042.38 283.259 1042.57 282.548 1042.94 281.936C1043.32 281.324 1043.83 280.848 1044.47 280.506C1045.12 280.164 1045.84 279.993 1046.65 279.993C1047.46 279.993 1048.18 280.164 1048.8 280.506C1049.43 280.848 1049.92 281.309 1050.27 281.889C1050.63 282.469 1050.81 283.115 1050.81 283.825C1050.81 284.334 1050.71 284.831 1050.53 285.316C1050.35 285.798 1050.03 286.335 1049.58 286.929C1049.14 287.518 1048.52 288.238 1047.73 289.088L1044.62 292.408V292.516H1051.05V294H1042.33ZM1058.5 294.189C1057.61 294.189 1056.82 294.036 1056.12 293.73C1055.43 293.424 1054.88 292.999 1054.47 292.455C1054.06 291.906 1053.84 291.27 1053.81 290.545H1055.51C1055.54 290.991 1055.7 291.375 1055.97 291.699C1056.24 292.019 1056.59 292.266 1057.03 292.441C1057.46 292.617 1057.95 292.705 1058.48 292.705C1059.07 292.705 1059.6 292.601 1060.06 292.394C1060.51 292.187 1060.87 291.899 1061.14 291.531C1061.4 291.162 1061.53 290.734 1061.53 290.249C1061.53 289.74 1061.4 289.293 1061.15 288.906C1060.9 288.515 1060.53 288.209 1060.04 287.988C1059.56 287.768 1058.96 287.658 1058.26 287.658H1057.15V286.173H1058.26C1058.81 286.173 1059.29 286.074 1059.7 285.876C1060.12 285.679 1060.45 285.4 1060.68 285.04C1060.92 284.68 1061.04 284.257 1061.04 283.771C1061.04 283.304 1060.94 282.896 1060.73 282.55C1060.52 282.204 1060.23 281.934 1059.85 281.74C1059.48 281.547 1059.04 281.45 1058.53 281.45C1058.05 281.45 1057.6 281.538 1057.18 281.713C1056.76 281.884 1056.42 282.134 1056.16 282.462C1055.89 282.786 1055.75 283.178 1055.72 283.636H1054.1C1054.13 282.912 1054.35 282.278 1054.76 281.734C1055.17 281.185 1055.7 280.758 1056.36 280.452C1057.03 280.146 1057.76 279.993 1058.56 279.993C1059.41 279.993 1060.15 280.166 1060.76 280.512C1061.37 280.854 1061.84 281.306 1062.17 281.869C1062.5 282.431 1062.66 283.038 1062.66 283.69C1062.66 284.469 1062.46 285.132 1062.05 285.681C1061.64 286.23 1061.09 286.61 1060.39 286.821V286.929C1061.27 287.073 1061.95 287.444 1062.44 288.042C1062.93 288.636 1063.17 289.371 1063.17 290.249C1063.17 291 1062.97 291.674 1062.56 292.273C1062.15 292.866 1061.6 293.334 1060.9 293.676C1060.2 294.018 1059.4 294.189 1058.5 294.189ZM1066.36 294L1072.54 281.774V281.666H1065.42V280.182H1074.27V281.747L1068.12 294H1066.36ZM1082.13 294V292.786L1086.69 287.793C1087.23 287.208 1087.67 286.7 1088.01 286.268C1088.36 285.831 1088.62 285.422 1088.78 285.04C1088.95 284.653 1089.04 284.248 1089.04 283.825C1089.04 283.339 1088.92 282.919 1088.69 282.564C1088.46 282.208 1088.14 281.934 1087.74 281.74C1087.34 281.547 1086.89 281.45 1086.39 281.45C1085.86 281.45 1085.4 281.56 1085 281.781C1084.61 281.997 1084.31 282.3 1084.09 282.692C1083.88 283.083 1083.78 283.542 1083.78 284.068H1082.18C1082.18 283.259 1082.37 282.548 1082.74 281.936C1083.12 281.324 1083.63 280.848 1084.27 280.506C1084.92 280.164 1085.64 279.993 1086.45 279.993C1087.26 279.993 1087.98 280.164 1088.6 280.506C1089.23 280.848 1089.72 281.309 1090.07 281.889C1090.43 282.469 1090.61 283.115 1090.61 283.825C1090.61 284.334 1090.51 284.831 1090.33 285.316C1090.15 285.798 1089.83 286.335 1089.38 286.929C1088.94 287.518 1088.32 288.238 1087.53 289.088L1084.42 292.408V292.516H1090.85V294H1082.13ZM1098.3 294.189C1097.41 294.189 1096.62 294.036 1095.92 293.73C1095.23 293.424 1094.68 292.999 1094.27 292.455C1093.86 291.906 1093.64 291.27 1093.61 290.545H1095.31C1095.34 290.991 1095.5 291.375 1095.77 291.699C1096.04 292.019 1096.39 292.266 1096.83 292.441C1097.26 292.617 1097.75 292.705 1098.28 292.705C1098.87 292.705 1099.4 292.601 1099.86 292.394C1100.31 292.187 1100.67 291.899 1100.93 291.531C1101.2 291.162 1101.33 290.734 1101.33 290.249C1101.33 289.74 1101.2 289.293 1100.95 288.906C1100.7 288.515 1100.33 288.209 1099.84 287.988C1099.36 287.768 1098.76 287.658 1098.06 287.658H1096.95V286.173H1098.06C1098.61 286.173 1099.09 286.074 1099.5 285.876C1099.92 285.679 1100.25 285.4 1100.48 285.04C1100.72 284.68 1100.84 284.257 1100.84 283.771C1100.84 283.304 1100.74 282.896 1100.53 282.55C1100.32 282.204 1100.03 281.934 1099.65 281.74C1099.28 281.547 1098.84 281.45 1098.33 281.45C1097.85 281.45 1097.4 281.538 1096.98 281.713C1096.56 281.884 1096.22 282.134 1095.96 282.462C1095.69 282.786 1095.55 283.178 1095.52 283.636H1093.9C1093.93 282.912 1094.15 282.278 1094.56 281.734C1094.97 281.185 1095.5 280.758 1096.16 280.452C1096.83 280.146 1097.56 279.993 1098.36 279.993C1099.21 279.993 1099.95 280.166 1100.56 280.512C1101.17 280.854 1101.64 281.306 1101.97 281.869C1102.3 282.431 1102.46 283.038 1102.46 283.69C1102.46 284.469 1102.26 285.132 1101.85 285.681C1101.44 286.23 1100.89 286.61 1100.19 286.821V286.929C1101.07 287.073 1101.75 287.444 1102.24 288.042C1102.73 288.636 1102.97 289.371 1102.97 290.249C1102.97 291 1102.77 291.674 1102.36 292.273C1101.95 292.866 1101.4 293.334 1100.7 293.676C1100 294.018 1099.2 294.189 1098.3 294.189ZM1106.16 294L1112.34 281.774V281.666H1105.22V280.182H1114.07V281.747L1107.92 294H1106.16ZM1121.93 294V292.786L1126.49 287.793C1127.03 287.208 1127.47 286.7 1127.81 286.268C1128.16 285.831 1128.42 285.422 1128.58 285.04C1128.75 284.653 1128.84 284.248 1128.84 283.825C1128.84 283.339 1128.72 282.919 1128.49 282.564C1128.26 282.208 1127.94 281.934 1127.54 281.74C1127.14 281.547 1126.69 281.45 1126.19 281.45C1125.66 281.45 1125.2 281.56 1124.8 281.781C1124.41 281.997 1124.11 282.3 1123.89 282.692C1123.68 283.083 1123.58 283.542 1123.58 284.068H1121.98C1121.98 283.259 1122.17 282.548 1122.54 281.936C1122.92 281.324 1123.43 280.848 1124.07 280.506C1124.72 280.164 1125.44 279.993 1126.25 279.993C1127.06 279.993 1127.78 280.164 1128.4 280.506C1129.03 280.848 1129.52 281.309 1129.87 281.889C1130.23 282.469 1130.4 283.115 1130.4 283.825C1130.4 284.334 1130.31 284.831 1130.13 285.316C1129.95 285.798 1129.63 286.335 1129.18 286.929C1128.74 287.518 1128.12 288.238 1127.33 289.088L1124.22 292.408V292.516H1130.65V294H1121.93ZM1138.1 294.189C1137.21 294.189 1136.42 294.036 1135.72 293.73C1135.03 293.424 1134.48 292.999 1134.07 292.455C1133.66 291.906 1133.44 291.27 1133.41 290.545H1135.11C1135.14 290.991 1135.3 291.375 1135.57 291.699C1135.84 292.019 1136.19 292.266 1136.63 292.441C1137.06 292.617 1137.55 292.705 1138.08 292.705C1138.67 292.705 1139.2 292.601 1139.66 292.394C1140.11 292.187 1140.47 291.899 1140.73 291.531C1141 291.162 1141.13 290.734 1141.13 290.249C1141.13 289.74 1141 289.293 1140.75 288.906C1140.5 288.515 1140.13 288.209 1139.64 287.988C1139.16 287.768 1138.56 287.658 1137.86 287.658H1136.75V286.173H1137.86C1138.41 286.173 1138.89 286.074 1139.3 285.876C1139.72 285.679 1140.05 285.4 1140.28 285.04C1140.52 284.68 1140.64 284.257 1140.64 283.771C1140.64 283.304 1140.54 282.896 1140.33 282.55C1140.12 282.204 1139.83 281.934 1139.45 281.74C1139.08 281.547 1138.64 281.45 1138.13 281.45C1137.65 281.45 1137.2 281.538 1136.78 281.713C1136.36 281.884 1136.02 282.134 1135.76 282.462C1135.49 282.786 1135.35 283.178 1135.32 283.636H1133.7C1133.73 282.912 1133.95 282.278 1134.36 281.734C1134.77 281.185 1135.3 280.758 1135.96 280.452C1136.63 280.146 1137.36 279.993 1138.16 279.993C1139.01 279.993 1139.75 280.166 1140.36 280.512C1140.97 280.854 1141.44 281.306 1141.77 281.869C1142.1 282.431 1142.26 283.038 1142.26 283.69C1142.26 284.469 1142.05 285.132 1141.65 285.681C1141.24 286.23 1140.69 286.61 1139.99 286.821V286.929C1140.87 287.073 1141.55 287.444 1142.04 288.042C1142.53 288.636 1142.77 289.371 1142.77 290.249C1142.77 291 1142.57 291.674 1142.16 292.273C1141.75 292.866 1141.2 293.334 1140.5 293.676C1139.8 294.018 1139 294.189 1138.1 294.189ZM1145.96 294L1152.14 281.774V281.666H1145.02V280.182H1153.87V281.747L1147.72 294H1145.96ZM1003.61 321L1005.88 307.182H1007.23L1004.96 321H1003.61ZM997.324 317.168L997.54 315.818H1007.85L1007.63 317.168H997.324ZM998.754 321L1001.02 307.182H1002.37L1000.1 321H998.754ZM998.134 312.364L998.349 311.014H1008.66L1008.44 312.364H998.134ZM1010.66 321V307.182H1019V308.666H1012.33V313.335H1018.57V314.82H1012.33V319.516H1019.11V321H1010.66ZM1026.28 321H1022.02V307.182H1026.47C1027.81 307.182 1028.96 307.458 1029.91 308.012C1030.86 308.56 1031.59 309.35 1032.1 310.38C1032.61 311.406 1032.86 312.634 1032.86 314.064C1032.86 315.503 1032.61 316.743 1032.1 317.782C1031.58 318.816 1030.84 319.612 1029.86 320.17C1028.87 320.723 1027.68 321 1026.28 321ZM1023.69 319.516H1026.17C1027.31 319.516 1028.26 319.295 1029.01 318.854C1029.76 318.414 1030.32 317.786 1030.69 316.972C1031.06 316.158 1031.25 315.188 1031.25 314.064C1031.25 312.948 1031.06 311.988 1030.7 311.183C1030.33 310.373 1029.79 309.752 1029.07 309.321C1028.34 308.884 1027.44 308.666 1026.36 308.666H1023.69V319.516ZM1035.67 321V307.182H1044.01V308.666H1037.34V313.335H1043.58V314.82H1037.34V319.516H1044.12V321H1035.67ZM1051.29 321H1047.03V307.182H1051.48C1052.82 307.182 1053.97 307.458 1054.92 308.012C1055.87 308.56 1056.61 309.35 1057.11 310.38C1057.62 311.406 1057.88 312.634 1057.88 314.064C1057.88 315.503 1057.62 316.743 1057.11 317.782C1056.59 318.816 1055.85 319.612 1054.87 320.17C1053.89 320.723 1052.69 321 1051.29 321ZM1048.7 319.516H1051.18C1052.33 319.516 1053.27 319.295 1054.02 318.854C1054.77 318.414 1055.33 317.786 1055.7 316.972C1056.07 316.158 1056.26 315.188 1056.26 314.064C1056.26 312.948 1056.07 311.988 1055.71 311.183C1055.35 310.373 1054.8 309.752 1054.08 309.321C1053.35 308.884 1052.45 308.666 1051.37 308.666H1048.7V319.516ZM1060.68 321V307.182H1069.02V308.666H1062.36V313.335H1068.59V314.82H1062.36V319.516H1069.13V321H1060.68ZM1076.3 321H1072.04V307.182H1076.49C1077.83 307.182 1078.98 307.458 1079.93 308.012C1080.89 308.56 1081.62 309.35 1082.13 310.38C1082.63 311.406 1082.89 312.634 1082.89 314.064C1082.89 315.503 1082.63 316.743 1082.12 317.782C1081.61 318.816 1080.86 319.612 1079.88 320.17C1078.9 320.723 1077.71 321 1076.3 321ZM1073.71 319.516H1076.19C1077.34 319.516 1078.28 319.295 1079.04 318.854C1079.79 318.414 1080.35 317.786 1080.72 316.972C1081.08 316.158 1081.27 315.188 1081.27 314.064C1081.27 312.948 1081.09 311.988 1080.72 311.183C1080.36 310.373 1079.81 309.752 1079.09 309.321C1078.37 308.884 1077.46 308.666 1076.38 308.666H1073.71V319.516Z" fill="#0F0F0F"/>
<defs>
<filter id="filter0_f_1121_43986" x="79" y="139" width="235" height="106" filterUnits="userSpaceOnUse" color-interpolation-filters="sRGB">
<feFlood flood-opacity="0" result="BackgroundImageFix"/>
<feBlend mode="normal" in="SourceGraphic" in2="BackgroundImageFix" result="shape"/>
<feGaussianBlur stdDeviation="10" result="effect1_foregroundBlur_1121_43986"/>
</filter>
<filter id="filter1_f_1121_43986" x="374" y="139" width="235" height="106" filterUnits="userSpaceOnUse" color-interpolation-filters="sRGB">
<feFlood flood-opacity="0" result="BackgroundImageFix"/>
<feBlend mode="normal" in="SourceGraphic" in2="BackgroundImageFix" result="shape"/>
<feGaussianBlur stdDeviation="10" result="effect1_foregroundBlur_1121_43986"/>
</filter>
<filter id="filter2_f_1121_43986" x="669" y="139" width="235" height="106" filterUnits="userSpaceOnUse" color-interpolation-filters="sRGB">
<feFlood flood-opacity="0" result="BackgroundImageFix"/>
<feBlend mode="normal" in="SourceGraphic" in2="BackgroundImageFix" result="shape"/>
<feGaussianBlur stdDeviation="10" result="effect1_foregroundBlur_1121_43986"/>
</filter>
<filter id="filter3_f_1121_43986" x="960" y="139" width="235" height="106" filterUnits="userSpaceOnUse" color-interpolation-filters="sRGB">
<feFlood flood-opacity="0" result="BackgroundImageFix"/>
<feBlend mode="normal" in="SourceGraphic" in2="BackgroundImageFix" result="shape"/>
<feGaussianBlur stdDeviation="10" result="effect1_foregroundBlur_1121_43986"/>
</filter>
</defs>
</svg>
