<svg width="824" height="292" viewBox="0 0 824 292" fill="none" xmlns="http://www.w3.org/2000/svg">
<rect width="824" height="292" fill="white"/>
<rect y="67" width="275" height="157" fill="#EE714F"/>
<path d="M275 67H549V224H275V67Z" fill="#FAFAFA"/>
<rect x="549" y="67" width="275" height="157" fill="#383838"/>
<path d="M120.95 144.843C116.681 144.843 112.499 144.909 108.326 144.766C107.753 144.747 106.961 143.839 106.713 143.179C100.821 127.346 94.987 111.494 89 95.2685C92.8672 95.2685 96.658 94.7139 100.162 95.4788C102.168 95.9186 104.545 98.1941 105.309 100.192C110.733 114.467 115.784 128.876 120.94 143.255C121.045 143.552 120.95 143.925 120.95 144.843Z" fill="white"/>
<path d="M184.506 95C182.72 99.6372 181.164 103.529 179.722 107.458C175.54 118.817 171.329 130.166 167.299 141.572C166.411 144.096 165.103 145.205 162.429 145.004C160.08 144.832 157.712 144.89 155.363 144.985C152.48 145.11 151.916 144.048 152.9 141.381C156.891 130.586 160.739 119.735 164.645 108.902C165.724 105.919 166.755 102.917 167.92 99.9622C169.228 96.6637 171.72 94.9905 175.301 95C178.185 95 181.059 95 184.515 95H184.506Z" fill="white"/>
<path d="M136.427 127.221C130.622 127.24 126.038 122.765 126 117.048C125.962 111.35 130.536 106.798 136.332 106.77C142.195 106.732 146.711 111.168 146.692 116.952C146.673 122.823 142.3 127.202 136.437 127.221H136.427Z" fill="white"/>
<path d="M85 165.319H87.54L87.65 166.299C90.23 164.689 92.69 164.589 95.07 166.729C96.3 165.439 97.87 165.049 99.61 165.149C101.87 165.289 103.66 166.649 103.81 168.879C104.01 171.899 103.86 174.949 103.86 178.049H101.22C101.22 176.709 101.22 175.369 101.22 174.029C101.22 172.779 101.23 171.539 101.22 170.289C101.19 168.559 100.24 167.569 98.63 167.539C96.95 167.519 95.85 168.479 95.8 170.189C95.73 172.369 95.78 174.549 95.78 176.729C95.78 177.139 95.78 177.549 95.78 178.029H93.07C93.07 177.229 93.07 176.419 93.07 175.599C93.07 173.869 93.08 172.139 93.07 170.409C93.05 168.549 92.25 167.599 90.65 167.539C88.89 167.469 87.72 168.529 87.67 170.399C87.61 172.649 87.65 174.899 87.65 177.149C87.65 177.419 87.62 177.689 87.6 178.029H85V165.319Z" fill="white"/>
<path d="M155.139 176.93C153.509 178.26 151.629 178.58 149.629 178.14C147.479 177.68 146.069 176.21 145.969 174.03C145.839 171.16 145.939 168.29 145.939 165.34H148.609C148.609 166.89 148.609 168.41 148.609 169.92C148.609 171.1 148.569 172.28 148.639 173.45C148.729 175.02 149.589 175.83 151.079 175.85C152.679 175.87 153.609 175.13 153.679 173.52C153.779 171.2 153.729 168.88 153.749 166.56C153.749 166.16 153.789 165.75 153.809 165.32H156.509C156.509 166.23 156.509 167.09 156.509 167.94C156.509 169.78 156.489 171.61 156.559 173.45C156.619 175.05 157.539 175.85 159.099 175.85C160.689 175.85 161.559 175.09 161.609 173.44C161.679 171.19 161.649 168.94 161.649 166.69C161.649 166.28 161.649 165.87 161.649 165.36H164.259C164.289 165.62 164.349 165.92 164.349 166.21C164.349 168.46 164.349 170.71 164.349 172.97C164.349 174.95 163.879 176.76 161.939 177.68C159.869 178.67 157.759 178.59 155.759 177.39C155.559 177.27 155.369 177.11 155.129 176.93H155.139Z" fill="white"/>
<path d="M182.009 178.071H179.439V164.641H182.039V168.571C183.459 168.461 184.799 168.141 186.079 168.301C187.929 168.531 189.049 169.881 189.129 171.721C189.219 173.791 189.149 175.871 189.149 178.031H186.519C186.519 176.641 186.519 175.231 186.519 173.821C186.519 173.471 186.519 173.131 186.519 172.781C186.479 171.221 185.819 170.481 184.459 170.481C183.069 170.481 182.099 171.391 182.059 172.821C182.019 174.381 182.049 175.941 182.039 177.491C182.039 177.661 182.019 177.821 181.999 178.081L182.009 178.071Z" fill="white"/>
<path d="M129.319 178.111C128.209 178.111 127.349 178.151 126.489 178.091C126.199 178.071 125.869 177.811 125.669 177.571C124.749 176.491 123.869 175.381 122.979 174.301C121.109 174.991 121.459 176.561 121.459 178.041H118.869V164.641H121.429V172.221C122.459 171.281 123.399 170.621 124.089 169.771C125.329 168.241 126.879 168.051 128.849 168.401C127.769 169.501 126.819 170.581 125.739 171.511C124.909 172.231 124.979 172.731 125.659 173.511C126.879 174.921 127.989 176.431 129.319 178.121V178.111Z" fill="white"/>
<path d="M116.201 178.221C115.281 177.811 114.191 178.731 113.611 177.471C110.851 178.731 108.391 178.381 106.841 176.471C105.461 174.781 105.441 171.671 106.801 169.971C108.351 168.041 110.721 167.651 113.491 168.881C114.191 167.711 115.251 168.491 116.211 168.251V178.221H116.201ZM108.471 173.181C108.471 174.841 109.471 175.921 111.031 175.951C112.571 175.981 113.721 174.771 113.701 173.141C113.691 171.591 112.531 170.411 111.031 170.411C109.501 170.411 108.461 171.541 108.461 173.181H108.471Z" fill="white"/>
<path d="M138.97 173.27L132.1 174.63C132.88 176.3 134.87 176.41 137.15 174.93L138.46 176.43C137.21 178.31 134.03 178.84 131.62 177.63C129.4 176.52 128.39 173.86 129.26 171.41C130.13 168.97 132.69 167.66 135.33 168.29C137.81 168.89 139.26 170.83 138.98 173.27H138.97ZM131.65 172.81L136.34 171.91C135.81 170.64 134.87 170.17 133.53 170.39C132.42 170.57 131.75 171.38 131.65 172.82V172.81Z" fill="white"/>
<path d="M172.15 166.189H174.71L174.81 168.289H177.22V170.489H174.78C174.78 172.109 174.74 173.589 174.8 175.059C174.83 175.849 175.43 176.089 176.13 175.999C176.49 175.959 176.84 175.789 177.19 175.679C178.29 177.599 177.93 178.219 175.71 178.279C173.63 178.329 172.26 177.319 172.18 175.309C172.05 172.309 172.15 169.309 172.15 166.189Z" fill="white"/>
<path d="M169.63 178.07H167.1V168.35H169.63V178.07Z" fill="white"/>
<path d="M168.34 167.07C167.38 167.07 166.76 166.44 166.77 165.52C166.77 164.66 167.51 163.98 168.4 164C169.31 164.02 169.99 164.7 169.97 165.57C169.95 166.46 169.28 167.08 168.34 167.07Z" fill="white"/>
<path d="M395.95 144.843C391.681 144.843 387.499 144.909 383.326 144.766C382.753 144.747 381.961 143.839 381.713 143.179C375.821 127.346 369.987 111.494 364 95.2685C367.867 95.2685 371.658 94.7139 375.162 95.4788C377.168 95.9186 379.545 98.1941 380.309 100.192C385.733 114.467 390.784 128.876 395.94 143.255C396.045 143.552 395.95 143.925 395.95 144.843Z" fill="#EE714F"/>
<path d="M459.506 95C457.72 99.6372 456.164 103.529 454.722 107.458C450.54 118.817 446.329 130.166 442.299 141.572C441.411 144.096 440.103 145.205 437.429 145.004C435.08 144.832 432.712 144.89 430.363 144.985C427.48 145.11 426.916 144.048 427.9 141.381C431.891 130.586 435.739 119.735 439.645 108.902C440.724 105.919 441.755 102.917 442.92 99.9622C444.228 96.6637 446.72 94.9905 450.301 95C453.185 95 456.059 95 459.515 95H459.506Z" fill="#EE714F"/>
<path d="M411.427 127.221C405.622 127.24 401.038 122.765 401 117.048C400.962 111.35 405.536 106.798 411.332 106.77C417.195 106.732 421.711 111.168 421.692 116.952C421.673 122.823 417.3 127.202 411.437 127.221H411.427Z" fill="#EE714F"/>
<path d="M360 165.319H362.54L362.65 166.299C365.23 164.689 367.69 164.589 370.07 166.729C371.3 165.439 372.87 165.049 374.61 165.149C376.87 165.289 378.66 166.649 378.81 168.879C379.01 171.899 378.86 174.949 378.86 178.049H376.22C376.22 176.709 376.22 175.369 376.22 174.029C376.22 172.779 376.23 171.539 376.22 170.289C376.19 168.559 375.24 167.569 373.63 167.539C371.95 167.519 370.85 168.479 370.8 170.189C370.73 172.369 370.78 174.549 370.78 176.729C370.78 177.139 370.78 177.549 370.78 178.029H368.07C368.07 177.229 368.07 176.419 368.07 175.599C368.07 173.869 368.08 172.139 368.07 170.409C368.05 168.549 367.25 167.599 365.65 167.539C363.89 167.469 362.72 168.529 362.67 170.399C362.61 172.649 362.65 174.899 362.65 177.149C362.65 177.419 362.62 177.689 362.6 178.029H360V165.319Z" fill="black"/>
<path d="M430.139 176.93C428.509 178.26 426.629 178.58 424.629 178.14C422.479 177.68 421.069 176.21 420.969 174.03C420.839 171.16 420.939 168.29 420.939 165.34H423.609C423.609 166.89 423.609 168.41 423.609 169.92C423.609 171.1 423.569 172.28 423.639 173.45C423.729 175.02 424.589 175.83 426.079 175.85C427.679 175.87 428.609 175.13 428.679 173.52C428.779 171.2 428.729 168.88 428.749 166.56C428.749 166.16 428.789 165.75 428.809 165.32H431.509C431.509 166.23 431.509 167.09 431.509 167.94C431.509 169.78 431.489 171.61 431.559 173.45C431.619 175.05 432.539 175.85 434.099 175.85C435.689 175.85 436.559 175.09 436.609 173.44C436.679 171.19 436.649 168.94 436.649 166.69C436.649 166.28 436.649 165.87 436.649 165.36H439.259C439.289 165.62 439.349 165.92 439.349 166.21C439.349 168.46 439.349 170.71 439.349 172.97C439.349 174.95 438.879 176.76 436.939 177.68C434.869 178.67 432.759 178.59 430.759 177.39C430.559 177.27 430.369 177.11 430.129 176.93H430.139Z" fill="black"/>
<path d="M457.009 178.071H454.439V164.641H457.039V168.571C458.459 168.461 459.799 168.141 461.079 168.301C462.929 168.531 464.049 169.881 464.129 171.721C464.219 173.791 464.149 175.871 464.149 178.031H461.519C461.519 176.641 461.519 175.231 461.519 173.821C461.519 173.471 461.519 173.131 461.519 172.781C461.479 171.221 460.819 170.481 459.459 170.481C458.069 170.481 457.099 171.391 457.059 172.821C457.019 174.381 457.049 175.941 457.039 177.491C457.039 177.661 457.019 177.821 456.999 178.081L457.009 178.071Z" fill="black"/>
<path d="M404.319 178.111C403.209 178.111 402.349 178.151 401.489 178.091C401.199 178.071 400.869 177.811 400.669 177.571C399.749 176.491 398.869 175.381 397.979 174.301C396.109 174.991 396.459 176.561 396.459 178.041H393.869V164.641H396.429V172.221C397.459 171.281 398.399 170.621 399.089 169.771C400.329 168.241 401.879 168.051 403.849 168.401C402.769 169.501 401.819 170.581 400.739 171.511C399.909 172.231 399.979 172.731 400.659 173.511C401.879 174.921 402.989 176.431 404.319 178.121V178.111Z" fill="black"/>
<path d="M391.201 178.221C390.281 177.811 389.191 178.731 388.611 177.471C385.851 178.731 383.391 178.381 381.841 176.471C380.461 174.781 380.441 171.671 381.801 169.971C383.351 168.041 385.721 167.651 388.491 168.881C389.191 167.711 390.251 168.491 391.211 168.251V178.221H391.201ZM383.471 173.181C383.471 174.841 384.471 175.921 386.031 175.951C387.571 175.981 388.721 174.771 388.701 173.141C388.691 171.591 387.531 170.411 386.031 170.411C384.501 170.411 383.461 171.541 383.461 173.181H383.471Z" fill="black"/>
<path d="M413.97 173.27L407.1 174.63C407.88 176.3 409.87 176.41 412.15 174.93L413.46 176.43C412.21 178.31 409.03 178.84 406.62 177.63C404.4 176.52 403.39 173.86 404.26 171.41C405.13 168.97 407.69 167.66 410.33 168.29C412.81 168.89 414.26 170.83 413.98 173.27H413.97ZM406.65 172.81L411.34 171.91C410.81 170.64 409.87 170.17 408.53 170.39C407.42 170.57 406.75 171.38 406.65 172.82V172.81Z" fill="black"/>
<path d="M447.15 166.189H449.71L449.81 168.289H452.22V170.489H449.78C449.78 172.109 449.74 173.589 449.8 175.059C449.83 175.849 450.43 176.089 451.13 175.999C451.49 175.959 451.84 175.789 452.19 175.679C453.29 177.599 452.93 178.219 450.71 178.279C448.63 178.329 447.26 177.319 447.18 175.309C447.05 172.309 447.15 169.309 447.15 166.189Z" fill="black"/>
<path d="M444.63 178.07H442.1V168.35H444.63V178.07Z" fill="black"/>
<path d="M443.34 167.07C442.38 167.07 441.76 166.44 441.77 165.52C441.77 164.66 442.51 163.98 443.4 164C444.31 164.02 444.99 164.7 444.97 165.57C444.95 166.46 444.28 167.08 443.34 167.07Z" fill="black"/>
<path d="M669.95 144.843C665.681 144.843 661.499 144.909 657.326 144.766C656.753 144.747 655.961 143.839 655.713 143.179C649.821 127.346 643.987 111.494 638 95.2685C641.867 95.2685 645.658 94.7139 649.162 95.4788C651.168 95.9186 653.545 98.1941 654.309 100.192C659.733 114.467 664.784 128.876 669.94 143.255C670.045 143.552 669.95 143.925 669.95 144.843Z" fill="#EE714F"/>
<path d="M733.506 95C731.72 99.6372 730.164 103.529 728.722 107.458C724.54 118.817 720.329 130.166 716.299 141.572C715.411 144.096 714.103 145.205 711.429 145.004C709.08 144.832 706.712 144.89 704.363 144.985C701.48 145.11 700.916 144.048 701.9 141.381C705.891 130.586 709.739 119.735 713.645 108.902C714.724 105.919 715.755 102.917 716.92 99.9622C718.228 96.6637 720.72 94.9905 724.301 95C727.185 95 730.059 95 733.515 95H733.506Z" fill="#EE714F"/>
<path d="M685.427 127.221C679.622 127.24 675.038 122.765 675 117.048C674.962 111.35 679.536 106.798 685.332 106.77C691.195 106.732 695.711 111.168 695.692 116.952C695.673 122.823 691.3 127.202 685.437 127.221H685.427Z" fill="#EE714F"/>
<path d="M634 165.319H636.54L636.65 166.299C639.23 164.689 641.69 164.589 644.07 166.729C645.3 165.439 646.87 165.049 648.61 165.149C650.87 165.289 652.66 166.649 652.81 168.879C653.01 171.899 652.86 174.949 652.86 178.049H650.22C650.22 176.709 650.22 175.369 650.22 174.029C650.22 172.779 650.23 171.539 650.22 170.289C650.19 168.559 649.24 167.569 647.63 167.539C645.95 167.519 644.85 168.479 644.8 170.189C644.73 172.369 644.78 174.549 644.78 176.729C644.78 177.139 644.78 177.549 644.78 178.029H642.07C642.07 177.229 642.07 176.419 642.07 175.599C642.07 173.869 642.08 172.139 642.07 170.409C642.05 168.549 641.25 167.599 639.65 167.539C637.89 167.469 636.72 168.529 636.67 170.399C636.61 172.649 636.65 174.899 636.65 177.149C636.65 177.419 636.62 177.689 636.6 178.029H634V165.319Z" fill="white"/>
<path d="M704.139 176.93C702.509 178.26 700.629 178.58 698.629 178.14C696.479 177.68 695.069 176.21 694.969 174.03C694.839 171.16 694.939 168.29 694.939 165.34H697.609C697.609 166.89 697.609 168.41 697.609 169.92C697.609 171.1 697.569 172.28 697.639 173.45C697.729 175.02 698.589 175.83 700.079 175.85C701.679 175.87 702.609 175.13 702.679 173.52C702.779 171.2 702.729 168.88 702.749 166.56C702.749 166.16 702.789 165.75 702.809 165.32H705.509C705.509 166.23 705.509 167.09 705.509 167.94C705.509 169.78 705.489 171.61 705.559 173.45C705.619 175.05 706.539 175.85 708.099 175.85C709.689 175.85 710.559 175.09 710.609 173.44C710.679 171.19 710.649 168.94 710.649 166.69C710.649 166.28 710.649 165.87 710.649 165.36H713.259C713.289 165.62 713.349 165.92 713.349 166.21C713.349 168.46 713.349 170.71 713.349 172.97C713.349 174.95 712.879 176.76 710.939 177.68C708.869 178.67 706.759 178.59 704.759 177.39C704.559 177.27 704.369 177.11 704.129 176.93H704.139Z" fill="white"/>
<path d="M731.009 178.071H728.439V164.641H731.039V168.571C732.459 168.461 733.799 168.141 735.079 168.301C736.929 168.531 738.049 169.881 738.129 171.721C738.219 173.791 738.149 175.871 738.149 178.031H735.519C735.519 176.641 735.519 175.231 735.519 173.821C735.519 173.471 735.519 173.131 735.519 172.781C735.479 171.221 734.819 170.481 733.459 170.481C732.069 170.481 731.099 171.391 731.059 172.821C731.019 174.381 731.049 175.941 731.039 177.491C731.039 177.661 731.019 177.821 730.999 178.081L731.009 178.071Z" fill="white"/>
<path d="M678.319 178.111C677.209 178.111 676.349 178.151 675.489 178.091C675.199 178.071 674.869 177.811 674.669 177.571C673.749 176.491 672.869 175.381 671.979 174.301C670.109 174.991 670.459 176.561 670.459 178.041H667.869V164.641H670.429V172.221C671.459 171.281 672.399 170.621 673.089 169.771C674.329 168.241 675.879 168.051 677.849 168.401C676.769 169.501 675.819 170.581 674.739 171.511C673.909 172.231 673.979 172.731 674.659 173.511C675.879 174.921 676.989 176.431 678.319 178.121V178.111Z" fill="white"/>
<path d="M665.201 178.221C664.281 177.811 663.191 178.731 662.611 177.471C659.851 178.731 657.391 178.381 655.841 176.471C654.461 174.781 654.441 171.671 655.801 169.971C657.351 168.041 659.721 167.651 662.491 168.881C663.191 167.711 664.251 168.491 665.211 168.251V178.221H665.201ZM657.471 173.181C657.471 174.841 658.471 175.921 660.031 175.951C661.571 175.981 662.721 174.771 662.701 173.141C662.691 171.591 661.531 170.411 660.031 170.411C658.501 170.411 657.461 171.541 657.461 173.181H657.471Z" fill="white"/>
<path d="M687.97 173.27L681.1 174.63C681.88 176.3 683.87 176.41 686.15 174.93L687.46 176.43C686.21 178.31 683.03 178.84 680.62 177.63C678.4 176.52 677.39 173.86 678.26 171.41C679.13 168.97 681.69 167.66 684.33 168.29C686.81 168.89 688.26 170.83 687.98 173.27H687.97ZM680.65 172.81L685.34 171.91C684.81 170.64 683.87 170.17 682.53 170.39C681.42 170.57 680.75 171.38 680.65 172.82V172.81Z" fill="white"/>
<path d="M721.15 166.189H723.71L723.81 168.289H726.22V170.489H723.78C723.78 172.109 723.74 173.589 723.8 175.059C723.83 175.849 724.43 176.089 725.13 175.999C725.49 175.959 725.84 175.789 726.19 175.679C727.29 177.599 726.93 178.219 724.71 178.279C722.63 178.329 721.26 177.319 721.18 175.309C721.05 172.309 721.15 169.309 721.15 166.189Z" fill="white"/>
<path d="M718.63 178.07H716.1V168.35H718.63V178.07Z" fill="white"/>
<path d="M717.34 167.07C716.38 167.07 715.76 166.44 715.77 165.52C715.77 164.66 716.51 163.98 717.4 164C718.31 164.02 718.99 164.7 718.97 165.57C718.95 166.46 718.28 167.08 717.34 167.07Z" fill="white"/>
</svg>
