<svg width="461" height="461" viewBox="0 0 461 461" fill="none" xmlns="http://www.w3.org/2000/svg">
<rect width="461" height="461" fill="white"/>
<g filter="url(#filter0_d_1121_44362)">
<path d="M91.1242 180.463L120.522 116.048C121.717 113.428 125.207 112.892 127.134 115.033L162.151 153.941C164.016 156.014 163.242 159.31 160.65 160.336L96.2358 185.843C92.8869 187.169 89.6288 183.74 91.1242 180.463Z" fill="#F9714B"/>
<ellipse cx="143.784" cy="135.659" rx="30.5362" ry="14.1961" transform="rotate(46.8698 143.784 135.659)" fill="#F9714B"/>
</g>
<g filter="url(#filter1_i_1121_44362)">
<ellipse cx="143.53" cy="136.691" rx="26.8749" ry="12.546" transform="rotate(46.8698 143.53 136.691)" fill="url(#paint0_linear_1121_44362)"/>
</g>
<g filter="url(#filter2_d_1121_44362)">
<path d="M132 88C135.833 95.3333 142 112.8 136 124" stroke="#FFD320" stroke-width="5" stroke-linecap="round"/>
</g>
<path d="M126.049 175.932C118.692 172.144 103.592 161.414 102.048 148.803" stroke="white" stroke-width="5" stroke-linecap="round"/>
<g filter="url(#filter3_d_1121_44362)">
<path d="M151.398 94.5C152.293 98.3944 153.041 107.308 148.869 111.807" stroke="#B312FF" stroke-width="4" stroke-linecap="round"/>
</g>
<g filter="url(#filter4_d_1121_44362)">
<path d="M178.619 145.742C173.124 143.013 160.604 139.358 154.479 146.564" stroke="#10E74C" stroke-width="4" stroke-linecap="round"/>
</g>
<g filter="url(#filter5_d_1121_44362)">
<circle cx="178.5" cy="129" r="3.5" fill="url(#paint1_radial_1121_44362)" shape-rendering="crispEdges"/>
</g>
<g filter="url(#filter6_d_1121_44362)">
<circle cx="191.833" cy="131.333" r="5" transform="rotate(120.088 191.833 131.333)" fill="url(#paint2_radial_1121_44362)" shape-rendering="crispEdges"/>
</g>
<g filter="url(#filter7_d_1121_44362)">
<circle cx="103.943" cy="108.444" r="5" transform="rotate(-28.6999 103.943 108.444)" fill="url(#paint3_radial_1121_44362)" shape-rendering="crispEdges"/>
</g>
<g filter="url(#filter8_d_1121_44362)">
<rect x="285.703" y="89" width="69.9871" height="100" rx="10" fill="#F9714B"/>
<rect x="292.264" y="97.0879" width="56.8645" height="76.4706" rx="1" fill="#FFD8CD"/>
<ellipse cx="320.975" cy="181.182" rx="3.92451" ry="3.94737" fill="#FFD8CD"/>
<g filter="url(#filter9_d_1121_44362)">
<path fill-rule="evenodd" clip-rule="evenodd" d="M358.78 155.237C359.034 154.4 359.397 153.383 359.887 152.411C360.45 151.296 361.275 150.047 362.468 149.302C363.793 148.471 365.368 148.396 366.986 149.303C367.482 149.581 367.854 150.011 368.043 150.563C368.214 151.063 368.198 151.556 368.148 151.932C368.069 152.532 367.837 153.238 367.64 153.833L367.55 154.107C367.072 155.573 366.677 157.072 367.108 158.666C367.157 158.848 367.221 159.062 367.294 159.305C367.966 161.55 369.372 166.256 366.705 171.095C365.199 173.827 362.692 175.692 360.033 176.572C357.386 177.447 354.444 177.389 352.069 176.057L345.575 172.416C344.734 171.944 343.935 171.215 343.47 170.282C342.983 169.299 342.872 168.067 343.527 166.878C343.874 166.249 344.343 165.799 344.867 165.496C344.535 164.59 344.525 163.525 345.096 162.49C345.443 161.861 345.913 161.409 346.435 161.109C346.103 160.203 346.094 159.137 346.665 158.102C347.115 157.285 347.771 156.767 348.49 156.491C348.345 155.73 348.433 154.894 348.883 154.078C349.54 152.886 350.635 152.333 351.72 152.232C352.752 152.136 353.786 152.437 354.628 152.909L358.78 155.237Z" fill="#FAAD91"/>
</g>
<path d="M348.4 156.646C350.223 158.24 354.16 161.352 355.326 161.058" stroke="#D08F77"/>
<path d="M346.213 161.059C348.035 162.652 351.972 165.764 353.139 165.47" stroke="#D08F77"/>
<path d="M344.754 165.471C346.576 167.064 350.513 170.177 351.68 169.882" stroke="#D08F77"/>
</g>
<g filter="url(#filter10_d_1121_44362)">
<path fill-rule="evenodd" clip-rule="evenodd" d="M277.684 167.677C277.429 167.677 277.177 167.623 276.944 167.516C276.712 167.41 276.505 167.255 276.336 167.061L270.61 160.447H263.368C261.945 160.447 260.579 159.876 259.572 158.859C258.566 157.842 258 156.462 258 155.024V129.718C258 128.28 258.566 126.9 259.572 125.883C260.579 124.866 261.945 124.295 263.368 124.295H291.999C293.423 124.295 294.789 124.866 295.795 125.883C296.802 126.9 297.368 128.28 297.368 129.718V155.024C297.368 156.462 296.802 157.842 295.795 158.859C294.789 159.876 293.423 160.447 291.999 160.447H284.759L279.031 167.061C278.863 167.255 278.656 167.41 278.424 167.516C278.191 167.623 277.939 167.677 277.684 167.677Z" fill="#8A46F9"/>
</g>
<g filter="url(#filter11_d_1121_44362)">
<rect x="264.561" y="134.588" width="26.2452" height="4.41176" rx="2.20588" fill="white"/>
</g>
<g filter="url(#filter12_d_1121_44362)">
<rect x="264.561" y="144.883" width="26.2452" height="4.41176" rx="2.20588" fill="white"/>
</g>
<g filter="url(#filter13_d_1121_44362)">
<path fill-rule="evenodd" clip-rule="evenodd" d="M357.512 142.677C357.338 142.678 357.165 142.64 357.006 142.568C356.846 142.496 356.704 142.391 356.589 142.259L352.666 137.775H347.704C346.728 137.775 345.793 137.388 345.103 136.699C344.413 136.009 344.025 135.074 344.025 134.099V116.942C344.025 115.967 344.413 115.032 345.103 114.342C345.793 113.653 346.728 113.266 347.704 113.266H367.321C368.297 113.266 369.232 113.653 369.922 114.342C370.612 115.032 371 115.967 371 116.942V134.099C371 135.074 370.612 136.009 369.922 136.699C369.232 137.388 368.297 137.775 367.321 137.775H362.36L358.436 142.259C358.321 142.391 358.179 142.496 358.019 142.568C357.86 142.64 357.687 142.678 357.512 142.677Z" fill="#FFE4F3"/>
</g>
<g filter="url(#filter14_d_1121_44362)">
<path fill-rule="evenodd" clip-rule="evenodd" d="M357.513 121.184C357.185 120.777 356.772 120.449 356.303 120.224C355.834 119.998 355.321 119.882 354.802 119.883C352.884 119.883 351.316 121.444 351.316 123.386C351.316 125.152 352.298 126.79 353.429 128.127C354.576 129.483 355.983 130.651 357.038 131.482C357.174 131.589 357.341 131.648 357.513 131.648C357.685 131.648 357.853 131.589 357.989 131.482C359.044 130.651 360.45 129.482 361.598 128.127C362.729 126.79 363.71 125.152 363.71 123.386C363.71 121.444 362.142 119.883 360.224 119.883C359.132 119.883 358.153 120.389 357.513 121.184Z" fill="#EA401D"/>
</g>
<g filter="url(#filter15_d_1121_44362)">
<ellipse cx="280.965" cy="107.75" rx="12.029" ry="12.1324" fill="url(#paint4_linear_1121_44362)"/>
<g filter="url(#filter16_f_1121_44362)">
<ellipse cx="276.225" cy="111.426" rx="3.64516" ry="3.30882" fill="#FA9E15" fill-opacity="0.7"/>
</g>
<path d="M281.178 110.322C282.873 110.805 285.249 111.96 281.194 112.714C282.721 113.174 284.909 114.213 281.437 114.689" stroke="#EA401D" stroke-opacity="0.6"/>
<g filter="url(#filter17_d_1121_44362)">
<path fill-rule="evenodd" clip-rule="evenodd" d="M290.925 111.727C291.023 111.491 291.068 111.239 291.055 110.99C291.042 110.741 290.972 110.501 290.85 110.287C290.402 109.497 289.364 109.239 288.528 109.722C287.769 110.161 287.293 110.973 286.983 111.77C286.668 112.58 286.495 113.45 286.384 114.091C286.369 114.173 286.384 114.257 286.424 114.328C286.464 114.399 286.528 114.453 286.606 114.482C287.211 114.71 288.042 114.999 288.894 115.135C289.733 115.268 290.668 115.265 291.427 114.827C292.263 114.344 292.567 113.31 292.119 112.52C291.863 112.07 291.416 111.793 290.925 111.727Z" fill="#EA401D"/>
</g>
<path d="M274.039 103.705C274.444 102.724 275.74 100.764 277.684 100.764" stroke="#4C2E21"/>
<path d="M283.508 104.088C284.212 103.379 286.044 102.138 287.741 102.844" stroke="#4C2E21"/>
<path d="M287.162 105.176C286.19 105.479 284.246 106.231 284.246 106.813C284.246 107.395 286.19 107.42 287.162 107.359" stroke="#4C2E21"/>
<ellipse cx="277.319" cy="105.544" rx="1.82258" ry="2.57353" fill="#4C2E21"/>
</g>
<path d="M115.266 254.289C108.43 247.776 101.958 253.777 99.5761 257.591C83.2249 261.2 85.8737 275.471 89.242 282.155C86.1855 293.559 96.9034 297.444 102.644 297.961C108.313 310.204 128.37 307.012 133.203 298.479C155.252 296.319 150.042 274.341 141.137 268.537C139.585 248.579 121.789 251.713 115.266 254.289Z" fill="#86C6CE"/>
<path d="M111.175 255.949C104.307 249.45 97.7658 255.478 95.3536 259.305C78.8646 262.97 81.4891 277.251 84.8625 283.933C81.7465 295.361 92.5351 299.217 98.319 299.717C103.993 311.957 124.215 308.699 129.113 300.14C151.339 297.908 146.157 275.918 137.201 270.135C135.7 250.156 117.757 253.35 111.175 255.949Z" fill="#96E0EA"/>
<path d="M93.9629 320.498C95.7838 298.054 113.309 292.774 121.843 292.939C130.403 283.728 142.171 288.088 146.985 291.419C162.221 286.469 171.949 296.705 174.908 302.442C186.954 303.794 190.359 317.738 190.556 324.54C194.168 327.207 194.808 333.259 194.677 335.952C196.553 347.424 187.006 352.455 181.998 353.536C180.574 362.915 168.483 368.158 162.981 363.762C159.028 360.603 154.309 354.625 151.452 352.85C139.109 360.473 126.068 351.68 121.09 346.331C111.289 347.072 92.1421 342.942 93.9629 320.498Z" fill="#E78F8E"/>
<rect x="107.953" y="293.037" width="13.2022" height="2.64044" rx="1.32022" transform="rotate(-5.57711 107.953 293.037)" fill="#B1B1B1"/>
<rect x="108.107" y="294.613" width="13.2022" height="2.64044" rx="1.32022" transform="rotate(-5.57711 108.107 294.613)" fill="#B1B1B1"/>
<rect x="108.312" y="296.715" width="13.2022" height="2.64044" rx="1.32022" transform="rotate(-5.57711 108.312 296.715)" fill="#B1B1B1"/>
<rect x="107.428" y="293.088" width="13.2022" height="2.64044" rx="1.32022" transform="rotate(-5.57711 107.428 293.088)" fill="#CECECE"/>
<rect x="107.58" y="294.664" width="13.2022" height="2.64044" rx="1.32022" transform="rotate(-5.57711 107.58 294.664)" fill="#CECECE"/>
<rect x="107.787" y="296.768" width="13.2022" height="2.64044" rx="1.32022" transform="rotate(-5.57711 107.787 296.768)" fill="#CECECE"/>
<path d="M119.666 293.043C117.6 293.97 112.024 294.092 109.494 294.037C109.237 294.032 108.147 293.391 107.945 292.633C107.742 291.876 106.906 289.885 105.686 289.227C104.711 288.7 103.392 287.205 102.855 286.524C97.2337 278.912 100.614 273.873 101.72 270.96C102.843 268 114.413 258.968 122.574 268.923C130.734 278.878 122.129 286.714 121.671 287.277C121.212 287.84 120.739 289.57 120.75 290.994C120.759 292.133 120.031 292.835 119.666 293.043Z" fill="#DBAD62"/>
<path d="M118.458 293.162C116.349 294.093 110.662 294.225 108.082 294.175C107.82 294.17 106.71 293.531 106.505 292.774C106.3 292.017 105.451 290.027 104.208 289.371C103.215 288.847 101.873 287.354 101.326 286.673C95.6083 279.071 99.0655 274.024 100.199 271.109C101.35 268.146 113.166 259.09 121.47 269.032C129.773 278.973 120.982 286.827 120.513 287.391C120.045 287.955 119.559 289.686 119.567 291.11C119.574 292.249 118.83 292.952 118.458 293.162Z" fill="#F5C06B"/>
<path d="M111.135 294.278C110.933 290.025 109.975 281.145 108.387 279.294C106.359 276.928 104.448 278.397 104.596 279.92C104.745 281.444 112.659 284.901 112.982 277.692C112.976 276.752 112.661 274.929 111.45 275.15C109.936 275.426 108.22 280.207 113.292 280.866C118.364 281.524 119.146 279.012 118.69 278.288C118.234 277.563 117.486 276.483 115.83 277.926C114.67 278.937 112.985 281.665 115.205 293.88" stroke="#654108" stroke-width="2"/>
<rect x="98.9727" y="262.762" width="4.59375" height="1.62777" rx="0.813887" transform="rotate(40.2656 98.9727 262.762)" fill="#DBAD62"/>
<rect x="117.461" y="264.02" width="4.59375" height="1.62777" rx="0.813887" transform="rotate(-74.4844 117.461 264.02)" fill="#DBAD62"/>
<rect x="108.025" y="263.822" width="4.59375" height="1.62777" rx="0.813887" transform="rotate(-100.324 108.025 263.822)" fill="#DBAD62"/>
<rect x="98.4453" y="262.709" width="4.59375" height="1.62777" rx="0.813887" transform="rotate(40.2656 98.4453 262.709)" fill="#F5C06B"/>
<rect x="116.932" y="263.967" width="4.59375" height="1.62777" rx="0.813887" transform="rotate(-74.4844 116.932 263.967)" fill="#F5C06B"/>
<rect x="107.496" y="263.77" width="4.59375" height="1.62777" rx="0.813887" transform="rotate(-100.324 107.496 263.77)" fill="#F5C06B"/>
<path d="M90.377 321.594C92.1979 299.15 109.723 293.87 118.257 294.035C126.817 284.823 138.585 289.183 143.399 292.515C158.635 287.564 168.363 297.8 171.322 303.537C183.368 304.89 186.773 318.833 186.97 325.636C190.582 328.303 191.222 334.355 191.091 337.048C192.967 348.519 183.42 353.55 178.412 354.632C177.211 362.715 172.12 364.769 169.725 364.786C170.629 365.677 174.063 375.074 173.626 376.872C173.189 378.67 168.918 378.026 166.889 376.919C164.86 375.811 162.353 370.445 159.395 364.858C157.028 360.388 150.723 355.721 147.866 353.946C135.523 361.568 122.482 352.776 117.504 347.427C107.703 348.168 88.5561 344.038 90.377 321.594Z" fill="#F1B2AF"/>
<path d="M123.365 306.336C126.286 306.316 130.758 307.076 134.166 309.492M138.952 319.687C139.165 314.756 137.045 311.533 134.166 309.492M134.166 309.492C137.926 307.352 144.034 304.884 149.852 304.64M163.15 311.669C160.351 306.088 155.226 304.415 149.852 304.64M154.276 294.907C152.261 295.781 148.555 298.952 149.852 304.64M151.73 316.458C154.849 320.961 160.865 326.835 166.389 325.329M173.299 317.879C171.309 322.436 168.9 324.645 166.389 325.329M166.389 325.329C167.556 327.337 168.758 330.166 169.305 333.16M161.152 347.349C163.481 346.612 165.233 345.563 166.52 344.307M169.305 333.16C174.985 329.083 186.012 324.655 184.678 339.559M169.305 333.16C170.02 337.084 169.61 341.291 166.52 344.307M166.52 344.307C168.126 346.344 171.152 351.362 170.413 355.135M183.138 344.192C183.671 345.563 184.74 348.531 184.746 349.428M117.357 314.453C115.595 319.326 116.829 328.992 135.871 328.681C138.643 329.036 143.753 331.947 142.018 340.752C140.282 349.557 131.393 341.498 127.166 336.368M141.966 333.35C145.163 330.187 152.834 326.635 157.941 337.725M113.015 303.492C116.157 303.246 122.878 300.911 124.623 293.542M114.298 294.286C113.851 294.588 112.96 295.552 112.97 296.987M95.5705 313.931C97.1337 312.649 101.388 310.84 105.9 313.86M116.416 308.179C111.848 307.912 103.05 310.874 104.404 324.861M104.465 333.609C108.438 334.479 116.915 334.869 119.033 329.471M122.724 343.577C121.837 345.153 119.208 348.177 115.791 347.663M149.183 337.786C152.272 340.606 156.933 347.871 150.87 354.373M160.099 357.45C161.772 358.485 165.562 361.315 167.333 364.354M137.821 350.875C139.32 351.238 142.548 352.457 143.46 354.425M139.675 294.335C141.083 292.232 144.662 288.109 147.719 288.447M177.897 300.8C178.729 302.125 179.772 305.66 177.281 309.194M185.65 317.794C187.297 317.857 190.911 318.7 192.188 321.562" stroke="#E78F8E" stroke-width="2" stroke-linecap="round"/>
<ellipse cx="154.785" cy="318.759" rx="3.16853" ry="3.16853" transform="rotate(-9.85452 154.785 318.759)" fill="white"/>
<circle cx="134.676" cy="310.996" r="3.16853" transform="rotate(-9.85452 134.676 310.996)" fill="white"/>
<ellipse cx="133.545" cy="310.656" rx="3.16853" ry="3.16853" transform="rotate(-9.85452 133.545 310.656)" fill="#333333"/>
<circle cx="154.084" cy="317.808" r="3.16853" transform="rotate(-9.85452 154.084 317.808)" fill="#333333"/>
<path d="M156.456 306.787C158.13 306.139 161.598 305.84 162.077 309.831" stroke="#333333" stroke-width="3" stroke-linecap="round"/>
<path d="M134.968 300.336C136.642 299.688 140.11 299.389 140.589 303.38" stroke="#333333" stroke-width="3" stroke-linecap="round"/>
<path d="M137.321 332.295C141.737 333.803 146.616 331.222 148.219 326.53L132.227 321.068C130.624 325.76 132.905 330.787 137.321 332.295Z" fill="#642920"/>
<path d="M132.46 328.562C133.524 330.215 135.211 331.575 137.323 332.296C139.435 333.017 141.601 332.973 143.454 332.317C139.763 328.746 134.586 328.326 132.46 328.562Z" fill="#D85B48"/>
<rect width="101.022" height="86.308" rx="16" transform="matrix(0.985646 0.168826 -0.140102 0.990137 278.539 274.605)" fill="#848484"/>
<rect x="1.26832" y="1.73844" width="98.0223" height="83.6764" rx="14.5" transform="matrix(0.985646 0.168826 -0.140102 0.990137 275.373 273.528)" fill="#1D1C1C" stroke="#F4F4F4" stroke-width="3"/>
<g filter="url(#filter18_d_1121_44362)">
<rect width="96.505" height="70.6427" rx="16" transform="matrix(0.985646 0.168826 -0.140102 0.990137 266.055 280.469)" fill="#484848"/>
</g>
<rect width="96.2636" height="1.07452" transform="matrix(0.985646 0.168826 -0.140102 0.990137 257.389 341.719)" fill="#FAFAFA"/>
<path d="M257.391 341.723L298.147 348.704C298.439 348.754 298.642 349.032 298.6 349.325V349.325C298.559 349.618 298.289 349.815 297.997 349.765L257.24 342.785L257.391 341.723Z" fill="#DD303B"/>
<g filter="url(#filter19_i_1121_44362)">
<path d="M317.138 320.346C318.245 321.342 317.967 323.145 316.621 323.701L303.806 328.998C302.371 329.591 300.817 328.338 301.056 326.781L303.332 311.998C303.572 310.441 305.418 309.797 306.599 310.86L317.138 320.346Z" fill="#DD303B"/>
</g>
<g filter="url(#filter20_d_1121_44362)">
<ellipse cx="298.318" cy="349.302" rx="1.86378" ry="1.86293" transform="rotate(-6.12586 298.318 349.302)" fill="#DD303B"/>
</g>
<g filter="url(#filter21_d_1121_44362)">
<path fill-rule="evenodd" clip-rule="evenodd" d="M351.757 356.586C351.875 355.977 352.056 355.234 352.331 354.512C352.647 353.685 353.139 352.742 353.93 352.127C354.809 351.441 355.922 351.268 357.141 351.783C357.514 351.941 357.811 352.215 357.987 352.589C358.147 352.928 358.172 353.277 358.165 353.545C358.155 353.974 358.043 354.488 357.947 354.922L357.904 355.122C357.675 356.19 357.508 357.275 357.935 358.364C357.983 358.488 358.045 358.635 358.115 358.8C358.762 360.329 360.117 363.534 358.587 367.143C357.724 369.181 356.083 370.685 354.259 371.507C352.444 372.325 350.35 372.509 348.561 371.752L343.671 369.685C343.038 369.417 342.415 368.965 342.014 368.343C341.594 367.689 341.422 366.83 341.798 365.943C341.997 365.473 342.296 365.121 342.646 364.868C342.341 364.255 342.254 363.507 342.581 362.734C342.78 362.265 343.08 361.912 343.428 361.66C343.124 361.048 343.037 360.298 343.364 359.526C343.623 358.917 344.05 358.503 344.539 358.253C344.379 357.729 344.378 357.134 344.637 356.525C345.013 355.636 345.75 355.163 346.513 355.009C347.239 354.863 347.997 354.996 348.631 355.264L351.757 356.586Z" fill="#FAAD91"/>
</g>
<g filter="url(#filter22_d_1121_44362)">
<path fill-rule="evenodd" clip-rule="evenodd" d="M260.417 331.7C260.235 331.687 260.058 331.636 259.898 331.549C259.737 331.462 259.598 331.341 259.488 331.196L255.742 326.233L250.579 325.862C249.564 325.789 248.62 325.316 247.954 324.547C247.288 323.777 246.955 322.774 247.028 321.759L248.314 303.89C248.387 302.874 248.861 301.929 249.63 301.263C250.399 300.596 251.402 300.262 252.417 300.335L272.827 301.8C273.842 301.873 274.786 302.346 275.452 303.116C276.118 303.886 276.451 304.888 276.378 305.904L275.092 323.773C275.019 324.788 274.546 325.733 273.776 326.4C273.007 327.067 272.004 327.4 270.99 327.327L265.828 326.957L261.409 331.334C261.279 331.462 261.123 331.561 260.952 331.624C260.781 331.688 260.599 331.713 260.417 331.7Z" fill="#8A46F9"/>
</g>
<g filter="url(#filter23_d_1121_44362)">
<rect width="18.7576" height="3.12322" rx="1.56161" transform="matrix(0.997434 0.0715948 -0.0718004 0.997419 252.744 307.666)" fill="white"/>
</g>
<g filter="url(#filter24_d_1121_44362)">
<rect width="18.7576" height="3.12322" rx="1.56161" transform="matrix(0.997434 0.0715948 -0.0718005 0.997419 252.221 314.934)" fill="white"/>
</g>
<g filter="url(#filter25_d_1121_44362)">
<path fill-rule="evenodd" clip-rule="evenodd" d="M347.77 347.85C347.645 347.838 347.525 347.8 347.417 347.738C347.308 347.676 347.215 347.592 347.142 347.491L344.665 344.056L341.135 343.707C340.442 343.638 339.803 343.3 339.361 342.765C338.918 342.231 338.708 341.545 338.776 340.858L339.974 328.772C340.042 328.085 340.383 327.453 340.922 327.016C341.46 326.579 342.153 326.372 342.847 326.44L356.799 327.821C357.493 327.889 358.132 328.228 358.574 328.762C359.017 329.296 359.227 329.983 359.159 330.669L357.961 342.756C357.893 343.443 357.552 344.074 357.013 344.512C356.475 344.949 355.782 345.156 355.088 345.087L351.56 344.738L348.455 347.621C348.364 347.705 348.256 347.77 348.138 347.809C348.019 347.849 347.894 347.863 347.77 347.85Z" fill="#FA9E15"/>
</g>
<g filter="url(#filter26_d_1121_44362)">
<path fill-rule="evenodd" clip-rule="evenodd" d="M349.272 332.71C349.067 332.4 348.796 332.14 348.478 331.948C348.16 331.757 347.803 331.639 347.434 331.603C346.07 331.468 344.846 332.457 344.71 333.826C344.587 335.069 345.171 336.293 345.882 337.314C346.603 338.35 347.522 339.272 348.214 339.931C348.304 340.016 348.419 340.069 348.541 340.081C348.664 340.093 348.787 340.064 348.891 339.998C349.699 339.487 350.781 338.763 351.692 337.889C352.59 337.027 353.402 335.941 353.525 334.698C353.661 333.329 352.655 332.119 351.291 331.984C350.514 331.907 349.782 332.195 349.272 332.71Z" fill="#EA401D"/>
</g>
<mask id="path-72-inside-1_1121_44362" fill="white">
<path d="M0 0H460V461H0V0Z"/>
</mask>
<path d="M460 0H461.5V-1.5H460V0ZM460 461V462.5H461.5V461H460ZM0 1.5H460V-1.5H0V1.5ZM458.5 0V461H461.5V0H458.5ZM460 459.5H0V462.5H460V459.5Z" fill="#080C0A" mask="url(#path-72-inside-1_1121_44362)"/>
<defs>
<filter id="filter0_d_1121_44362" x="87" y="103.668" width="89.0195" height="87.832" filterUnits="userSpaceOnUse" color-interpolation-filters="sRGB">
<feFlood flood-opacity="0" result="BackgroundImageFix"/>
<feColorMatrix in="SourceAlpha" type="matrix" values="0 0 0 0 0 0 0 0 0 0 0 0 0 0 0 0 0 0 127 0" result="hardAlpha"/>
<feOffset dx="1" dy="2"/>
<feComposite in2="hardAlpha" operator="out"/>
<feColorMatrix type="matrix" values="0 0 0 0 0.7625 0 0 0 0 0.355249 0 0 0 0 0.241458 0 0 0 1 0"/>
<feBlend mode="normal" in2="BackgroundImageFix" result="effect1_dropShadow_1121_44362"/>
<feBlend mode="normal" in="SourceGraphic" in2="effect1_dropShadow_1121_44362" result="shape"/>
</filter>
<filter id="filter1_i_1121_44362" x="122.996" y="115.279" width="41.0664" height="44.8242" filterUnits="userSpaceOnUse" color-interpolation-filters="sRGB">
<feFlood flood-opacity="0" result="BackgroundImageFix"/>
<feBlend mode="normal" in="SourceGraphic" in2="BackgroundImageFix" result="shape"/>
<feColorMatrix in="SourceAlpha" type="matrix" values="0 0 0 0 0 0 0 0 0 0 0 0 0 0 0 0 0 0 127 0" result="hardAlpha"/>
<feOffset dy="2"/>
<feGaussianBlur stdDeviation="1"/>
<feComposite in2="hardAlpha" operator="arithmetic" k2="-1" k3="1"/>
<feColorMatrix type="matrix" values="0 0 0 0 0 0 0 0 0 0 0 0 0 0 0 0 0 0 0.15 0"/>
<feBlend mode="normal" in2="shape" result="effect1_innerShadow_1121_44362"/>
</filter>
<filter id="filter2_d_1121_44362" x="129.5" y="85.5" width="12.5059" height="42" filterUnits="userSpaceOnUse" color-interpolation-filters="sRGB">
<feFlood flood-opacity="0" result="BackgroundImageFix"/>
<feColorMatrix in="SourceAlpha" type="matrix" values="0 0 0 0 0 0 0 0 0 0 0 0 0 0 0 0 0 0 127 0" result="hardAlpha"/>
<feOffset dx="1" dy="1"/>
<feComposite in2="hardAlpha" operator="out"/>
<feColorMatrix type="matrix" values="0 0 0 0 0.783333 0 0 0 0 0.65067 0 0 0 0 0.110972 0 0 0 1 0"/>
<feBlend mode="normal" in2="BackgroundImageFix" result="effect1_dropShadow_1121_44362"/>
<feBlend mode="normal" in="SourceGraphic" in2="effect1_dropShadow_1121_44362" result="shape"/>
</filter>
<filter id="filter3_d_1121_44362" x="146.869" y="92.5" width="7.82656" height="21.9066" filterUnits="userSpaceOnUse" color-interpolation-filters="sRGB">
<feFlood flood-opacity="0" result="BackgroundImageFix"/>
<feColorMatrix in="SourceAlpha" type="matrix" values="0 0 0 0 0 0 0 0 0 0 0 0 0 0 0 0 0 0 127 0" result="hardAlpha"/>
<feOffset dx="0.6" dy="0.6"/>
<feComposite in2="hardAlpha" operator="out"/>
<feColorMatrix type="matrix" values="0 0 0 0 0.480432 0 0 0 0 0.0594271 0 0 0 0 0.679167 0 0 0 1 0"/>
<feBlend mode="normal" in2="BackgroundImageFix" result="effect1_dropShadow_1121_44362"/>
<feBlend mode="normal" in="SourceGraphic" in2="effect1_dropShadow_1121_44362" result="shape"/>
</filter>
<filter id="filter4_d_1121_44362" x="152.479" y="140.355" width="28.9406" height="9.00898" filterUnits="userSpaceOnUse" color-interpolation-filters="sRGB">
<feFlood flood-opacity="0" result="BackgroundImageFix"/>
<feColorMatrix in="SourceAlpha" type="matrix" values="0 0 0 0 0 0 0 0 0 0 0 0 0 0 0 0 0 0 127 0" result="hardAlpha"/>
<feOffset dx="0.8" dy="0.8"/>
<feComposite in2="hardAlpha" operator="out"/>
<feColorMatrix type="matrix" values="0 0 0 0 0.0579861 0 0 0 0 0.695833 0 0 0 0 0.23599 0 0 0 1 0"/>
<feBlend mode="normal" in2="BackgroundImageFix" result="effect1_dropShadow_1121_44362"/>
<feBlend mode="normal" in="SourceGraphic" in2="effect1_dropShadow_1121_44362" result="shape"/>
</filter>
<filter id="filter5_d_1121_44362" x="175" y="125.5" width="7.6" height="7.6" filterUnits="userSpaceOnUse" color-interpolation-filters="sRGB">
<feFlood flood-opacity="0" result="BackgroundImageFix"/>
<feColorMatrix in="SourceAlpha" type="matrix" values="0 0 0 0 0 0 0 0 0 0 0 0 0 0 0 0 0 0 127 0" result="hardAlpha"/>
<feOffset dx="0.6" dy="0.6"/>
<feComposite in2="hardAlpha" operator="out"/>
<feColorMatrix type="matrix" values="0 0 0 0 0.732967 0 0 0 0 0.106771 0 0 0 0 0.854167 0 0 0 1 0"/>
<feBlend mode="normal" in2="BackgroundImageFix" result="effect1_dropShadow_1121_44362"/>
<feBlend mode="normal" in="SourceGraphic" in2="effect1_dropShadow_1121_44362" result="shape"/>
</filter>
<filter id="filter6_d_1121_44362" x="186.832" y="126.332" width="10.502" height="10.502" filterUnits="userSpaceOnUse" color-interpolation-filters="sRGB">
<feFlood flood-opacity="0" result="BackgroundImageFix"/>
<feColorMatrix in="SourceAlpha" type="matrix" values="0 0 0 0 0 0 0 0 0 0 0 0 0 0 0 0 0 0 127 0" result="hardAlpha"/>
<feOffset dx="0.5" dy="0.5"/>
<feComposite in2="hardAlpha" operator="out"/>
<feColorMatrix type="matrix" values="0 0 0 0 0.825 0 0 0 0 0.137262 0 0 0 0 0.09625 0 0 0 1 0"/>
<feBlend mode="normal" in2="BackgroundImageFix" result="effect1_dropShadow_1121_44362"/>
<feBlend mode="normal" in="SourceGraphic" in2="effect1_dropShadow_1121_44362" result="shape"/>
</filter>
<filter id="filter7_d_1121_44362" x="98.9414" y="103.443" width="10.402" height="10.602" filterUnits="userSpaceOnUse" color-interpolation-filters="sRGB">
<feFlood flood-opacity="0" result="BackgroundImageFix"/>
<feColorMatrix in="SourceAlpha" type="matrix" values="0 0 0 0 0 0 0 0 0 0 0 0 0 0 0 0 0 0 127 0" result="hardAlpha"/>
<feOffset dx="0.4" dy="0.6"/>
<feComposite in2="hardAlpha" operator="out"/>
<feColorMatrix type="matrix" values="0 0 0 0 0.286649 0 0 0 0 0.701348 0 0 0 0 0.870833 0 0 0 1 0"/>
<feBlend mode="normal" in2="BackgroundImageFix" result="effect1_dropShadow_1121_44362"/>
<feBlend mode="normal" in="SourceGraphic" in2="effect1_dropShadow_1121_44362" result="shape"/>
</filter>
<filter id="filter8_d_1121_44362" x="285.703" y="89" width="83.5664" height="101.5" filterUnits="userSpaceOnUse" color-interpolation-filters="sRGB">
<feFlood flood-opacity="0" result="BackgroundImageFix"/>
<feColorMatrix in="SourceAlpha" type="matrix" values="0 0 0 0 0 0 0 0 0 0 0 0 0 0 0 0 0 0 127 0" result="hardAlpha"/>
<feOffset dx="1" dy="1.5"/>
<feComposite in2="hardAlpha" operator="out"/>
<feColorMatrix type="matrix" values="0 0 0 0 0.854167 0 0 0 0 0.147344 0 0 0 0 0.292635 0 0 0 1 0"/>
<feBlend mode="normal" in2="BackgroundImageFix" result="effect1_dropShadow_1121_44362"/>
<feBlend mode="normal" in="SourceGraphic" in2="effect1_dropShadow_1121_44362" result="shape"/>
</filter>
<filter id="filter9_d_1121_44362" x="343.07" y="148.65" width="26.1992" height="30.0059" filterUnits="userSpaceOnUse" color-interpolation-filters="sRGB">
<feFlood flood-opacity="0" result="BackgroundImageFix"/>
<feColorMatrix in="SourceAlpha" type="matrix" values="0 0 0 0 0 0 0 0 0 0 0 0 0 0 0 0 0 0 127 0" result="hardAlpha"/>
<feOffset dx="1" dy="1.5"/>
<feComposite in2="hardAlpha" operator="out"/>
<feColorMatrix type="matrix" values="0 0 0 0 0.816667 0 0 0 0 0.560642 0 0 0 0 0.467542 0 0 0 1 0"/>
<feBlend mode="normal" in2="BackgroundImageFix" result="effect1_dropShadow_1121_44362"/>
<feBlend mode="normal" in="SourceGraphic" in2="effect1_dropShadow_1121_44362" result="shape"/>
</filter>
<filter id="filter10_d_1121_44362" x="258" y="124.295" width="40.3672" height="44.8828" filterUnits="userSpaceOnUse" color-interpolation-filters="sRGB">
<feFlood flood-opacity="0" result="BackgroundImageFix"/>
<feColorMatrix in="SourceAlpha" type="matrix" values="0 0 0 0 0 0 0 0 0 0 0 0 0 0 0 0 0 0 127 0" result="hardAlpha"/>
<feOffset dx="1" dy="1.5"/>
<feComposite in2="hardAlpha" operator="out"/>
<feColorMatrix type="matrix" values="0 0 0 0 0.35933 0 0 0 0 0.12 0 0 0 0 0.75 0 0 0 1 0"/>
<feBlend mode="normal" in2="BackgroundImageFix" result="effect1_dropShadow_1121_44362"/>
<feBlend mode="normal" in="SourceGraphic" in2="effect1_dropShadow_1121_44362" result="shape"/>
</filter>
<filter id="filter11_d_1121_44362" x="264.561" y="134.588" width="26.7461" height="5.41211" filterUnits="userSpaceOnUse" color-interpolation-filters="sRGB">
<feFlood flood-opacity="0" result="BackgroundImageFix"/>
<feColorMatrix in="SourceAlpha" type="matrix" values="0 0 0 0 0 0 0 0 0 0 0 0 0 0 0 0 0 0 127 0" result="hardAlpha"/>
<feOffset dx="0.5" dy="1"/>
<feComposite in2="hardAlpha" operator="out"/>
<feColorMatrix type="matrix" values="0 0 0 0 0 0 0 0 0 0 0 0 0 0 0 0 0 0 0.1 0"/>
<feBlend mode="normal" in2="BackgroundImageFix" result="effect1_dropShadow_1121_44362"/>
<feBlend mode="normal" in="SourceGraphic" in2="effect1_dropShadow_1121_44362" result="shape"/>
</filter>
<filter id="filter12_d_1121_44362" x="264.561" y="144.883" width="26.7461" height="5.41211" filterUnits="userSpaceOnUse" color-interpolation-filters="sRGB">
<feFlood flood-opacity="0" result="BackgroundImageFix"/>
<feColorMatrix in="SourceAlpha" type="matrix" values="0 0 0 0 0 0 0 0 0 0 0 0 0 0 0 0 0 0 127 0" result="hardAlpha"/>
<feOffset dx="0.5" dy="1"/>
<feComposite in2="hardAlpha" operator="out"/>
<feColorMatrix type="matrix" values="0 0 0 0 0 0 0 0 0 0 0 0 0 0 0 0 0 0 0.1 0"/>
<feBlend mode="normal" in2="BackgroundImageFix" result="effect1_dropShadow_1121_44362"/>
<feBlend mode="normal" in="SourceGraphic" in2="effect1_dropShadow_1121_44362" result="shape"/>
</filter>
<filter id="filter13_d_1121_44362" x="344.025" y="113.266" width="27.9746" height="30.9121" filterUnits="userSpaceOnUse" color-interpolation-filters="sRGB">
<feFlood flood-opacity="0" result="BackgroundImageFix"/>
<feColorMatrix in="SourceAlpha" type="matrix" values="0 0 0 0 0 0 0 0 0 0 0 0 0 0 0 0 0 0 127 0" result="hardAlpha"/>
<feOffset dx="1" dy="1.5"/>
<feComposite in2="hardAlpha" operator="out"/>
<feColorMatrix type="matrix" values="0 0 0 0 0.820833 0 0 0 0 0.74217 0 0 0 0 0.785872 0 0 0 1 0"/>
<feBlend mode="normal" in2="BackgroundImageFix" result="effect1_dropShadow_1121_44362"/>
<feBlend mode="normal" in="SourceGraphic" in2="effect1_dropShadow_1121_44362" result="shape"/>
</filter>
<filter id="filter14_d_1121_44362" x="351.316" y="119.883" width="12.8926" height="12.7656" filterUnits="userSpaceOnUse" color-interpolation-filters="sRGB">
<feFlood flood-opacity="0" result="BackgroundImageFix"/>
<feColorMatrix in="SourceAlpha" type="matrix" values="0 0 0 0 0 0 0 0 0 0 0 0 0 0 0 0 0 0 127 0" result="hardAlpha"/>
<feOffset dx="0.5" dy="1"/>
<feComposite in2="hardAlpha" operator="out"/>
<feColorMatrix type="matrix" values="0 0 0 0 0.709804 0 0 0 0 0.239216 0 0 0 0 0.141176 0 0 0 1 0"/>
<feBlend mode="normal" in2="BackgroundImageFix" result="effect1_dropShadow_1121_44362"/>
<feBlend mode="normal" in="SourceGraphic" in2="effect1_dropShadow_1121_44362" result="shape"/>
</filter>
<filter id="filter15_d_1121_44362" x="268.936" y="95.6172" width="24.5586" height="25.2656" filterUnits="userSpaceOnUse" color-interpolation-filters="sRGB">
<feFlood flood-opacity="0" result="BackgroundImageFix"/>
<feColorMatrix in="SourceAlpha" type="matrix" values="0 0 0 0 0 0 0 0 0 0 0 0 0 0 0 0 0 0 127 0" result="hardAlpha"/>
<feOffset dx="0.5" dy="1"/>
<feComposite in2="hardAlpha" operator="out"/>
<feColorMatrix type="matrix" values="0 0 0 0 0.980392 0 0 0 0 0.619608 0 0 0 0 0.0823529 0 0 0 1 0"/>
<feBlend mode="normal" in2="BackgroundImageFix" result="effect1_dropShadow_1121_44362"/>
<feBlend mode="normal" in="SourceGraphic" in2="effect1_dropShadow_1121_44362" result="shape"/>
</filter>
<filter id="filter16_f_1121_44362" x="266.58" y="102.117" width="19.291" height="18.6172" filterUnits="userSpaceOnUse" color-interpolation-filters="sRGB">
<feFlood flood-opacity="0" result="BackgroundImageFix"/>
<feBlend mode="normal" in="SourceGraphic" in2="BackgroundImageFix" result="shape"/>
<feGaussianBlur stdDeviation="3" result="effect1_foregroundBlur_1121_44362"/>
</filter>
<filter id="filter17_d_1121_44362" x="286.379" y="109.479" width="6.44727" height="6.73438" filterUnits="userSpaceOnUse" color-interpolation-filters="sRGB">
<feFlood flood-opacity="0" result="BackgroundImageFix"/>
<feColorMatrix in="SourceAlpha" type="matrix" values="0 0 0 0 0 0 0 0 0 0 0 0 0 0 0 0 0 0 127 0" result="hardAlpha"/>
<feOffset dx="0.5" dy="1"/>
<feComposite in2="hardAlpha" operator="out"/>
<feColorMatrix type="matrix" values="0 0 0 0 0.709804 0 0 0 0 0.239216 0 0 0 0 0.141176 0 0 0 1 0"/>
<feBlend mode="normal" in2="BackgroundImageFix" result="effect1_dropShadow_1121_44362"/>
<feBlend mode="normal" in="SourceGraphic" in2="effect1_dropShadow_1121_44362" result="shape"/>
</filter>
<filter id="filter18_d_1121_44362" x="258.238" y="282.939" width="103.855" height="85.2969" filterUnits="userSpaceOnUse" color-interpolation-filters="sRGB">
<feFlood flood-opacity="0" result="BackgroundImageFix"/>
<feColorMatrix in="SourceAlpha" type="matrix" values="0 0 0 0 0 0 0 0 0 0 0 0 0 0 0 0 0 0 127 0" result="hardAlpha"/>
<feOffset dx="3" dy="4"/>
<feComposite in2="hardAlpha" operator="out"/>
<feColorMatrix type="matrix" values="0 0 0 0 0 0 0 0 0 0 0 0 0 0 0 0 0 0 0.25 0"/>
<feBlend mode="normal" in2="BackgroundImageFix" result="effect1_dropShadow_1121_44362"/>
<feBlend mode="normal" in="SourceGraphic" in2="effect1_dropShadow_1121_44362" result="shape"/>
</filter>
<filter id="filter19_i_1121_44362" x="301.031" y="310.336" width="16.793" height="18.8125" filterUnits="userSpaceOnUse" color-interpolation-filters="sRGB">
<feFlood flood-opacity="0" result="BackgroundImageFix"/>
<feBlend mode="normal" in="SourceGraphic" in2="BackgroundImageFix" result="shape"/>
<feColorMatrix in="SourceAlpha" type="matrix" values="0 0 0 0 0 0 0 0 0 0 0 0 0 0 0 0 0 0 127 0" result="hardAlpha"/>
<feOffset dx="2" dy="3"/>
<feComposite in2="hardAlpha" operator="arithmetic" k2="-1" k3="1"/>
<feColorMatrix type="matrix" values="0 0 0 0 0 0 0 0 0 0 0 0 0 0 0 0 0 0 0.25 0"/>
<feBlend mode="normal" in2="shape" result="effect1_innerShadow_1121_44362"/>
</filter>
<filter id="filter20_d_1121_44362" x="296.453" y="347.439" width="4.22852" height="4.72461" filterUnits="userSpaceOnUse" color-interpolation-filters="sRGB">
<feFlood flood-opacity="0" result="BackgroundImageFix"/>
<feColorMatrix in="SourceAlpha" type="matrix" values="0 0 0 0 0 0 0 0 0 0 0 0 0 0 0 0 0 0 127 0" result="hardAlpha"/>
<feOffset dx="0.5" dy="1"/>
<feComposite in2="hardAlpha" operator="out"/>
<feColorMatrix type="matrix" values="0 0 0 0 0.654902 0 0 0 0 0.101961 0 0 0 0 0.137255 0 0 0 1 0"/>
<feBlend mode="normal" in2="BackgroundImageFix" result="effect1_dropShadow_1121_44362"/>
<feBlend mode="normal" in="SourceGraphic" in2="effect1_dropShadow_1121_44362" result="shape"/>
</filter>
<filter id="filter21_d_1121_44362" x="341.59" y="351.484" width="18.6992" height="22.2461" filterUnits="userSpaceOnUse" color-interpolation-filters="sRGB">
<feFlood flood-opacity="0" result="BackgroundImageFix"/>
<feColorMatrix in="SourceAlpha" type="matrix" values="0 0 0 0 0 0 0 0 0 0 0 0 0 0 0 0 0 0 127 0" result="hardAlpha"/>
<feOffset dx="1" dy="1.5"/>
<feComposite in2="hardAlpha" operator="out"/>
<feColorMatrix type="matrix" values="0 0 0 0 0.816667 0 0 0 0 0.560642 0 0 0 0 0.467542 0 0 0 1 0"/>
<feBlend mode="normal" in2="BackgroundImageFix" result="effect1_dropShadow_1121_44362"/>
<feBlend mode="normal" in="SourceGraphic" in2="effect1_dropShadow_1121_44362" result="shape"/>
</filter>
<filter id="filter22_d_1121_44362" x="247.018" y="300.326" width="30.3711" height="32.877" filterUnits="userSpaceOnUse" color-interpolation-filters="sRGB">
<feFlood flood-opacity="0" result="BackgroundImageFix"/>
<feColorMatrix in="SourceAlpha" type="matrix" values="0 0 0 0 0 0 0 0 0 0 0 0 0 0 0 0 0 0 127 0" result="hardAlpha"/>
<feOffset dx="1" dy="1.5"/>
<feComposite in2="hardAlpha" operator="out"/>
<feColorMatrix type="matrix" values="0 0 0 0 0.35933 0 0 0 0 0.12 0 0 0 0 0.75 0 0 0 1 0"/>
<feBlend mode="normal" in2="BackgroundImageFix" result="effect1_dropShadow_1121_44362"/>
<feBlend mode="normal" in="SourceGraphic" in2="effect1_dropShadow_1121_44362" result="shape"/>
</filter>
<filter id="filter23_d_1121_44362" x="252.627" y="307.773" width="19.2188" height="5.24219" filterUnits="userSpaceOnUse" color-interpolation-filters="sRGB">
<feFlood flood-opacity="0" result="BackgroundImageFix"/>
<feColorMatrix in="SourceAlpha" type="matrix" values="0 0 0 0 0 0 0 0 0 0 0 0 0 0 0 0 0 0 127 0" result="hardAlpha"/>
<feOffset dx="0.5" dy="1"/>
<feComposite in2="hardAlpha" operator="out"/>
<feColorMatrix type="matrix" values="0 0 0 0 0 0 0 0 0 0 0 0 0 0 0 0 0 0 0.1 0"/>
<feBlend mode="normal" in2="BackgroundImageFix" result="effect1_dropShadow_1121_44362"/>
<feBlend mode="normal" in="SourceGraphic" in2="effect1_dropShadow_1121_44362" result="shape"/>
</filter>
<filter id="filter24_d_1121_44362" x="252.104" y="315.041" width="19.2188" height="5.24219" filterUnits="userSpaceOnUse" color-interpolation-filters="sRGB">
<feFlood flood-opacity="0" result="BackgroundImageFix"/>
<feColorMatrix in="SourceAlpha" type="matrix" values="0 0 0 0 0 0 0 0 0 0 0 0 0 0 0 0 0 0 127 0" result="hardAlpha"/>
<feOffset dx="0.5" dy="1"/>
<feComposite in2="hardAlpha" operator="out"/>
<feColorMatrix type="matrix" values="0 0 0 0 0 0 0 0 0 0 0 0 0 0 0 0 0 0 0.1 0"/>
<feBlend mode="normal" in2="BackgroundImageFix" result="effect1_dropShadow_1121_44362"/>
<feBlend mode="normal" in="SourceGraphic" in2="effect1_dropShadow_1121_44362" result="shape"/>
</filter>
<filter id="filter25_d_1121_44362" x="338.764" y="326.428" width="21.4082" height="22.9277" filterUnits="userSpaceOnUse" color-interpolation-filters="sRGB">
<feFlood flood-opacity="0" result="BackgroundImageFix"/>
<feColorMatrix in="SourceAlpha" type="matrix" values="0 0 0 0 0 0 0 0 0 0 0 0 0 0 0 0 0 0 127 0" result="hardAlpha"/>
<feOffset dx="1" dy="1.5"/>
<feComposite in2="hardAlpha" operator="out"/>
<feColorMatrix type="matrix" values="0 0 0 0 0.891667 0 0 0 0 0.562399 0 0 0 0 0.0720765 0 0 0 1 0"/>
<feBlend mode="normal" in2="BackgroundImageFix" result="effect1_dropShadow_1121_44362"/>
<feBlend mode="normal" in="SourceGraphic" in2="effect1_dropShadow_1121_44362" result="shape"/>
</filter>
<filter id="filter26_d_1121_44362" x="344.693" y="331.59" width="9.34375" height="9.49414" filterUnits="userSpaceOnUse" color-interpolation-filters="sRGB">
<feFlood flood-opacity="0" result="BackgroundImageFix"/>
<feColorMatrix in="SourceAlpha" type="matrix" values="0 0 0 0 0 0 0 0 0 0 0 0 0 0 0 0 0 0 127 0" result="hardAlpha"/>
<feOffset dx="0.5" dy="1"/>
<feComposite in2="hardAlpha" operator="out"/>
<feColorMatrix type="matrix" values="0 0 0 0 0.709804 0 0 0 0 0.239216 0 0 0 0 0.141176 0 0 0 1 0"/>
<feBlend mode="normal" in2="BackgroundImageFix" result="effect1_dropShadow_1121_44362"/>
<feBlend mode="normal" in="SourceGraphic" in2="effect1_dropShadow_1121_44362" result="shape"/>
</filter>
<linearGradient id="paint0_linear_1121_44362" x1="143.53" y1="124.145" x2="143.937" y2="186.441" gradientUnits="userSpaceOnUse">
<stop stop-color="#FD9578"/>
<stop offset="1" stop-color="#333333" stop-opacity="0"/>
</linearGradient>
<radialGradient id="paint1_radial_1121_44362" cx="0" cy="0" r="1" gradientUnits="userSpaceOnUse" gradientTransform="translate(177.139 125.5) rotate(72.2287) scale(15.9266)">
<stop stop-color="#CC00FF"/>
<stop offset="1" stop-color="#FF05C8" stop-opacity="0"/>
</radialGradient>
<radialGradient id="paint2_radial_1121_44362" cx="0" cy="0" r="1" gradientUnits="userSpaceOnUse" gradientTransform="translate(189.889 126.333) rotate(72.2287) scale(22.7524)">
<stop stop-color="#FF0F00"/>
<stop offset="1" stop-color="#FF1405" stop-opacity="0"/>
</radialGradient>
<radialGradient id="paint3_radial_1121_44362" cx="0" cy="0" r="1" gradientUnits="userSpaceOnUse" gradientTransform="translate(101.999 103.444) rotate(72.2287) scale(22.7524)">
<stop stop-color="#4BC5F9"/>
<stop offset="1" stop-color="#4BDAF9" stop-opacity="0.31"/>
</radialGradient>
<linearGradient id="paint4_linear_1121_44362" x1="293.723" y1="119.514" x2="273.459" y2="93.5791" gradientUnits="userSpaceOnUse">
<stop stop-color="#F3BE35"/>
<stop offset="0.544792" stop-color="#FDD001"/>
</linearGradient>
</defs>
</svg>
