<svg width="405" height="405" viewBox="0 0 405 405" fill="none" xmlns="http://www.w3.org/2000/svg">
<rect width="405" height="405" fill="#EFEEEE"/>
<path d="M192.669 69.954C191.322 69.317 189.99 68.6581 188.635 68.043C186.849 67.2377 186.775 66.9228 188.057 65.4219C189.799 66.4615 191.535 67.4866 193.753 68.8045C193.856 65.8978 193.878 63.6061 194.031 61.3217C194.331 57.0165 194.427 52.6748 195.188 48.4501C195.474 46.854 197.377 45.5581 198.512 44.1084C198.988 43.5007 199.398 42.8344 199.837 42.1901L199.618 41.575C203 41.575 206.39 41.597 209.773 41.5677C211.838 41.5458 213.917 41.2822 215.967 41.4213C219.013 41.6263 222.037 42.0876 225.075 42.4317C228.092 42.7685 231.13 42.9881 234.132 43.4494C238.013 44.0425 241.886 44.7453 245.73 45.5434C250.599 46.5538 255.424 47.7692 260.285 48.7943C264.591 49.7021 266.772 52.3819 268.12 56.504C269.76 61.5047 269.438 66.586 269.679 71.638C269.928 76.7998 269.943 81.9836 269.752 87.1454C269.533 93.2737 268.998 99.3873 268.566 105.501C268.413 107.683 268.024 109.857 268.024 112.032C268.024 116.103 266.333 119.39 263.749 122.37C262.35 123.988 260.593 124.786 258.506 124.999C251.316 125.753 244.156 126.99 236.885 126.58C231.24 126.258 225.603 125.943 219.965 125.533C216.882 125.313 213.749 125.174 210.747 124.515C206.676 123.615 202.686 122.304 198.703 121.03C197.158 120.54 195.488 117.164 195.415 115.51C195.327 113.584 194.866 111.68 194.72 109.755C194.214 103.085 193.753 96.4147 193.336 89.7446C193.175 87.1893 193.248 87.1234 190.649 86.9257C188.525 86.7647 186.387 86.8013 184.264 86.6255C182.565 86.4864 181.914 87.1673 182.024 88.8221C182.221 91.7361 182.463 94.6501 182.507 97.5715C182.58 102.777 182.778 108.005 182.39 113.189C182.199 115.678 180.999 118.182 179.864 120.488C179.146 121.953 178.597 123.088 179.783 124.457C179.915 124.611 179.871 124.918 179.922 125.218C178.509 125.621 177.792 125.204 178.011 123.329C176.503 123.651 175.244 123.988 173.962 124.193C166.912 125.292 159.817 125.46 152.7 125.357C146.199 125.262 139.697 125.292 133.202 125.167C128.963 125.086 124.724 124.969 120.792 122.971C119.05 122.085 118.039 120.701 117.834 118.863C117.322 114.272 116.904 109.674 116.546 105.069C116.048 98.7649 115.433 92.4683 115.257 86.157C115.081 80.0287 115.411 73.8858 115.477 67.7502C115.528 63.0057 115.608 58.2539 115.491 53.5094C115.418 50.4416 115.037 47.3738 114.744 44.3134C114.591 42.7392 115.096 41.4799 115.813 40.0521C117.263 37.1601 119.577 37.1381 122.191 37.2406C123.948 37.3138 125.72 37.0283 127.477 37.0868C130.925 37.2113 134.381 37.3211 137.801 37.7092C143.284 38.3315 148.732 39.3126 154.223 39.9057C160.066 40.5354 165.938 40.9014 171.803 41.3408C174.863 41.575 177.074 42.6879 178.458 45.7631C181.057 51.5472 182.28 57.6096 182.954 63.8331C183.144 65.5537 183.027 67.3035 183.21 69.0241C183.268 69.5513 183.832 70.4372 184.191 70.4519C187.002 70.569 189.814 70.5178 192.626 70.5178L192.662 69.976L192.669 69.954ZM200.87 90.3889C200.738 88.5658 199.222 88.3974 197.926 87.9947C195.122 87.1307 194.741 87.387 194.529 90.2571C194.449 91.348 194.412 92.4536 194.515 93.5372C194.99 98.7942 195.51 104.051 196.037 109.301C196.184 110.795 196.213 112.332 196.645 113.745C197.055 115.078 197.882 116.293 198.593 117.523C198.922 118.087 199.318 118.695 199.845 119.039C204.113 121.821 208.997 122.692 213.924 123.249C218.025 123.717 222.161 123.908 226.283 124.201C229.908 124.457 233.539 124.977 237.149 124.86C242.845 124.676 248.534 124.186 254.201 123.564C256.756 123.278 259.612 122.927 261.669 121.579C264.598 119.661 266.45 116.374 266.758 112.823C267.6 103.004 268.376 93.1638 268.683 83.3161C268.896 76.7778 268.361 70.2103 267.966 63.6647C267.82 61.2265 267.102 58.825 266.655 56.4381C264.203 56.7383 263.851 56.3137 264.43 54.3002C264.547 53.9048 264.539 53.18 264.32 53.0335C262.819 52.0597 261.347 50.8443 259.678 50.3757C254.355 48.8968 248.959 47.6521 243.57 46.444C240.488 45.7557 237.376 45.148 234.242 44.7746C229.71 44.2328 225.156 43.8228 220.602 43.5592C215.506 43.2737 210.395 43.0467 205.299 43.1272C201.778 43.1785 197.084 47.6594 196.579 50.9615C196.074 54.2563 195.452 57.5437 195.181 60.8604C194.946 63.7452 195.13 66.6592 195.13 69.4488C195.657 69.6245 195.832 69.7344 196.001 69.7344C197.231 69.7344 198.388 70.2688 198.373 71.455C198.373 72.2091 197.289 72.9413 196.718 73.7027C196.103 74.5301 195.137 75.3355 195.012 76.236C194.654 78.8426 194.668 81.5003 194.493 84.1362C194.412 85.3442 195.012 85.9593 196.103 86.1862C197.355 86.4425 198.659 86.5084 199.859 86.9111C205.138 88.6829 210.425 90.4548 215.63 92.4317C217.695 93.2151 219.284 93.3835 220.66 91.3554C220.968 90.9014 221.715 90.755 222.256 90.4694L222.579 91.0625C221.956 91.597 221.173 92.029 220.763 92.6952C220.492 93.1345 220.507 94.2841 220.792 94.4525C223.011 95.7777 225.339 96.9199 227.609 98.1646C228.114 98.4428 228.582 98.8528 228.919 99.3067C229.007 99.4312 228.582 100.207 228.319 100.259C227.711 100.368 226.957 100.405 226.444 100.134C225.28 99.5044 224.226 98.6771 223.135 97.9229C216.465 93.3249 208.953 91.1504 200.87 90.3816V90.3889ZM159.304 88.0093L159.041 88.1558C158.096 87.1527 157.225 86.0691 156.178 85.1832C155.783 84.8537 154.677 84.6926 154.443 84.9562C152.532 87.0429 150.767 89.2687 148.915 91.4139C148.571 91.8166 147.978 92.3731 147.604 92.3072C147.041 92.1974 146.374 91.6922 146.133 91.1796C145.994 90.8795 146.521 90.1473 146.901 89.7592C147.831 88.8147 148.878 87.9874 149.823 87.0575C151.038 85.8641 152.078 84.4656 153.403 83.4333C157.591 80.1678 161.86 77.0048 166.963 75.2476C167.292 75.1305 167.549 74.8083 167.878 74.6619C169.379 73.9736 170.843 73.1023 172.418 72.685C174.87 72.0334 177.404 71.66 179.922 71.2426C181.526 70.979 181.928 70.0345 181.936 68.5409C181.95 60.6628 179.864 53.2751 176.715 46.1511C176.02 44.5843 174.878 43.259 172.937 43.0614C166.421 42.3951 159.905 41.7508 153.388 41.0406C147.714 40.4255 142.062 39.503 136.373 39.1369C131.475 38.8221 126.525 38.8807 121.62 39.1955C117.527 39.4591 115.791 42.5122 117 46.4001C117.139 46.854 117.205 47.3519 117.205 47.8278C117.19 51.064 117.161 54.3002 117.102 57.5364C116.941 66.1467 116.729 74.7644 116.633 83.3747C116.611 85.3662 117.058 87.3577 117.168 89.3492C117.351 92.7319 117.439 96.1145 117.578 99.4971C117.702 102.609 117.41 105.691 118.457 108.818C119.335 111.446 119.042 114.433 119.569 117.208C120.433 121.726 123.084 122.7 126.606 123.124C131.226 123.681 135.919 123.732 140.575 123.783C146.535 123.849 152.503 123.856 158.455 123.586C163.544 123.359 168.618 122.773 173.677 122.202C174.973 122.055 176.203 121.367 177.103 121.052C176.898 119.764 176.774 118.973 176.65 118.175H179.058C180.42 115.861 181.453 113.262 181.431 110.304C181.409 107.141 181.497 103.978 181.453 100.822C181.394 96.8027 181.255 92.7831 181.123 88.7708C181.094 87.9288 181.072 86.8159 179.827 87.0356C176.913 87.5554 174.014 88.1924 171.129 88.8733C170.258 89.0783 170.067 89.8325 170.88 90.3157C172.066 91.0186 173.384 91.5018 174.629 92.1095C175.229 92.4024 176.13 92.6513 176.291 93.1199C176.445 93.5665 175.8 94.2841 175.676 94.5476C172.454 93.0906 169.555 91.7581 166.641 90.4621C165.491 89.9496 165.089 87.9508 166.201 87.5042C167.878 86.8379 168.193 85.3442 168.991 84.0996C169.299 83.6163 169.84 83.1258 170.368 82.994C170.675 82.9134 171.422 83.4772 171.495 83.8433C171.605 84.3924 171.444 85.1246 171.122 85.5932C170.712 86.1936 170.023 86.6182 169.372 87.1893C169.716 87.3504 169.884 87.5115 170.016 87.4822C173.157 86.8305 176.305 86.2155 179.417 85.4467C179.952 85.315 180.669 84.5901 180.735 84.0703C181.108 80.8121 181.321 77.5393 181.599 74.2738C181.694 73.1682 181.248 72.6484 180.12 72.8388C178.736 73.0657 177.338 73.2122 175.983 73.549C172.659 74.369 169.438 75.394 167.109 78.2129C166.743 78.6522 165.843 78.6815 165.176 78.8352C164.159 79.0695 163.017 79.0256 162.123 79.4869C160.681 80.2337 159.444 81.3686 158.03 82.1813C157.013 82.7743 157.049 83.3454 157.54 84.2533C158.199 85.4687 158.726 86.7573 159.304 88.0093ZM193.753 76.9536L193.131 76.5143C192.64 77.1439 192.245 77.9127 191.615 78.3447C191.22 78.6156 190.48 78.3813 189.887 78.374C190.026 77.7223 190.107 77.0561 190.326 76.441C190.392 76.2507 190.912 76.2653 191.125 76.075C192.15 75.1671 193.46 74.4495 193.738 72.8168C193.094 72.6338 192.64 72.4141 192.172 72.3921C190.539 72.3116 188.899 72.2164 187.266 72.275C183.276 72.4214 183.21 72.4434 182.697 76.3166C182.324 79.1574 182.155 82.0202 181.863 85.2857C185.487 85.2857 188.628 85.3662 191.762 85.2125C192.303 85.1832 193.167 84.2387 193.255 83.631C193.563 81.4271 193.607 79.1794 193.746 76.9536H193.753Z" fill="black"/>
<path d="M121.97 280.841C127.037 281.222 132.353 281.727 137.683 282.005C145.019 282.394 152.363 282.569 159.699 282.928C164.004 283.14 168.295 283.594 172.6 283.843C176.481 284.07 180.383 284.034 184.256 284.356C188.51 284.707 192.742 285.373 196.989 285.813C198.468 285.967 199.998 285.981 201.477 285.813C204.515 285.461 207.063 287.24 207.495 290.279C207.927 293.288 208.477 296.305 208.608 299.336C208.96 307.207 209.15 315.085 209.34 322.963C209.436 326.661 209.355 330.365 209.458 334.063C209.48 334.714 210.036 335.344 210.329 335.996C210.578 336.56 211.01 337.145 210.995 337.709C210.834 344.987 210.79 352.272 210.3 359.528C210.124 362.127 209.362 365.063 207.861 367.106C206.156 369.419 203.359 370.649 200.057 370.598C196.052 370.532 192.047 371.14 188.034 371.396C182.389 371.755 176.744 372.158 171.092 372.377C163.25 372.678 155.394 373.102 147.553 372.978C136.27 372.795 124.987 372.18 113.712 371.704C109.157 371.513 104.611 371.155 100.049 370.972C96.7838 370.84 95.627 369.873 95.5464 366.579C95.4586 363.181 95.6416 359.777 95.5025 356.379C95.3634 352.821 94.8655 349.277 94.741 345.726C94.6385 342.849 94.7703 339.964 94.946 337.087C95.3927 329.933 95.7368 322.758 96.4616 315.634C97.1938 308.386 98.2335 301.159 99.3391 293.947C99.8223 290.792 100.752 287.694 101.616 284.612C101.77 284.063 102.539 283.419 103.124 283.294C105.789 282.716 108.484 282.203 111.186 281.866C114.671 281.434 118.185 281.193 121.97 280.849V280.841ZM207.869 322.026H207.774C207.774 318.072 207.883 314.119 207.744 310.172C207.583 305.559 207.276 300.954 206.88 296.356C206.712 294.43 206.324 292.483 205.716 290.652C205.416 289.745 204.486 288.5 203.695 288.383C195.956 287.248 188.203 286.135 180.42 285.403C175.302 284.927 170.125 285.132 164.978 284.949C159.999 284.766 155.021 284.509 150.049 284.231C141.82 283.777 133.583 283.287 125.353 282.789C118.947 282.401 112.606 282.833 106.368 284.341C105.204 284.619 103.703 285.278 103.227 286.208C102.392 287.841 101.748 289.869 101.916 291.641C102.114 293.654 102.033 295.067 101.008 297.044C99.5587 299.848 99.3391 303.341 98.8485 306.57C98.4531 309.198 98.4312 311.885 98.2262 314.543C97.7356 320.957 97.0547 327.371 96.7911 333.799C96.6374 337.563 96.0297 341.355 97.3036 345.17C97.882 346.905 97.0767 349.072 97.0913 351.035C97.1426 355.625 97.2084 360.216 97.472 364.792C97.6551 367.933 99.0828 369.302 102.216 369.61C107.459 370.122 112.709 370.606 117.958 370.972C122.988 371.323 128.033 371.513 133.07 371.77C134.41 371.836 135.743 371.953 137.082 371.953C142.72 371.945 148.358 371.982 153.996 371.843C163.646 371.609 173.303 371.352 182.946 370.891C187.28 370.686 191.578 369.866 195.912 369.5C198.519 369.273 200.847 368.468 203.154 367.296C206.097 365.802 207.818 363.328 208.147 360.311C208.791 354.476 209.004 348.582 209.238 342.702C209.289 341.509 209.45 340.001 207.796 339.276C207.473 339.137 207.451 338.082 207.466 337.453C207.488 336.743 207.825 336.032 207.825 335.322C207.861 330.885 207.84 326.456 207.84 322.019L207.869 322.026Z" fill="black"/>
<path d="M329.439 263.079C318.998 263.701 308.484 263.716 298.146 265.122C287.617 266.549 277.081 267.047 266.516 267.37C257.261 267.648 248.028 267.033 238.884 265.378C236.299 264.909 235.926 264.353 236.255 261.842C236.431 260.472 236.306 259.045 236.167 257.654C235.538 251.306 234.674 244.972 234.249 238.617C233.78 231.581 233.707 224.523 233.436 217.472C233.261 212.867 233.026 208.261 232.843 203.656C232.829 203.283 232.924 202.851 233.114 202.528C233.539 201.796 234.103 201.152 234.527 200.42C236.284 197.389 237.69 196.649 241.234 197.125C246.293 197.806 251.331 198.67 256.397 199.226C259.077 199.519 261.815 199.336 264.532 199.387C266.164 199.417 267.797 199.556 269.43 199.527C274.086 199.439 278.743 199.219 283.407 199.197C289.477 199.168 295.546 199.307 301.609 199.329C303.732 199.336 305.855 199.109 307.979 199.168C312.95 199.307 317.929 199.453 322.886 199.827C323.925 199.907 325.119 200.757 325.851 201.599C328.318 204.417 329.307 207.99 330.215 211.505C330.881 214.075 331.115 216.762 331.401 219.412C331.928 224.179 332.426 228.952 332.799 233.734C333.099 237.534 333.07 241.37 333.466 245.163C333.612 246.569 332.865 248.26 334.439 249.49C334.805 249.775 334.549 250.859 334.571 251.577C334.674 255.12 335.062 258.723 333.297 262.017C332.96 262.64 332.126 263.108 331.423 263.379C330.837 263.599 330.105 263.423 329.439 263.423L329.424 263.094L329.439 263.079ZM321.114 261.783V261.988C322.52 261.988 323.933 262.098 325.316 261.959C326.759 261.812 328.216 261.563 329.592 261.109C330.581 260.78 332.067 261 332.287 259.425C332.55 257.551 334.556 255.699 332.353 253.751C332.074 253.51 332.104 252.836 332.111 252.367C332.155 249.278 332.47 246.166 332.243 243.091C331.642 234.927 330.698 226.793 330.112 218.629C329.827 214.631 328.794 210.875 327.498 207.134C326.129 203.18 323.508 201.071 319.261 200.976C310.878 200.793 302.495 200.405 294.104 200.369C286.694 200.332 279.292 200.691 271.883 200.808C268.251 200.866 264.605 200.984 260.995 200.705C254.457 200.193 247.948 199.417 241.424 198.728C238.613 198.436 235.823 199.856 235.538 202.082C235.062 205.86 234.674 209.674 234.6 213.474C234.542 216.542 235.04 219.617 235.216 222.692C235.406 226.134 235.53 229.582 235.633 233.031C235.735 236.523 235.64 240.023 235.889 243.508C236.226 248.209 236.716 252.902 237.346 257.573C237.61 259.521 238.086 261.585 239.074 263.225C239.557 264.031 241.454 263.98 242.713 264.309C242.83 264.338 242.947 264.397 243.064 264.412C246.118 264.8 249.163 265.415 252.224 265.51C258.403 265.715 264.598 265.693 270.784 265.656C278.89 265.612 287.002 265.656 294.953 263.694C295.539 263.548 296.154 263.496 296.762 263.445C300.635 263.13 304.508 262.793 308.381 262.53C312.621 262.244 316.875 262.025 321.114 261.783Z" fill="black"/>
<path d="M185.707 166.029C187.325 165.781 187.904 166.403 188.087 167.955C188.746 173.688 190.268 179.223 192.245 184.634C193.153 187.131 193.812 189.788 195.145 192.036C197.1 195.324 199.552 198.311 201.815 201.408C202.525 202.374 203.396 202.126 204.216 201.547C204.604 201.276 204.875 200.786 205.285 200.61C206.201 200.215 207.76 199.438 208.016 199.731C208.814 200.647 209.393 201.942 209.561 203.158C209.81 204.966 209.671 206.841 209.634 208.678C209.59 211.029 208.785 211.68 206.581 210.948C203.997 210.099 201.449 209.125 198.923 208.115C197.612 207.588 197.7 206.336 199.047 205.274C199.875 204.622 200.695 203.963 201.632 203.224C200.665 202.126 199.845 201.232 199.076 200.31C194.867 195.294 191.938 189.481 189.185 183.631C188.043 181.2 187.999 178.249 187.479 175.533C186.879 172.407 186.315 169.273 185.707 166.029Z" fill="black"/>
<path d="M250.914 309.374C250.694 310.89 250.299 311.556 248.549 310.941C246.352 310.172 243.965 309.945 241.681 309.411C241.088 309.271 240.114 308.861 240.099 308.547C240.07 307.858 240.4 307.024 240.854 306.467C242.223 304.791 243.841 303.282 243.014 300.756C242.911 300.441 243.336 299.614 243.533 299.607C244.339 299.577 245.166 299.731 245.95 299.944C246.052 299.973 245.935 300.749 245.95 301.181C245.964 301.906 245.766 302.777 246.103 303.312C246.294 303.612 247.436 303.531 248.029 303.312C251.492 302.03 254.985 300.8 258.345 299.27C262.116 297.549 265.564 295.338 267.395 291.304C267.592 290.865 268.559 290.777 269.174 290.521C269.152 291.143 269.35 291.904 269.064 292.366C266.187 297.015 261.838 299.797 256.859 301.73C254.655 302.587 252.393 303.304 250.24 304.263C249.457 304.615 248.549 305.398 248.373 306.145C248.227 306.76 249.003 307.668 249.515 308.334C249.867 308.788 250.474 309.052 250.936 309.374H250.914Z" fill="black"/>
<path d="M173.992 140.374C174.014 140.096 174.007 140.03 174.029 139.979C174.622 138.332 174.805 135.71 175.903 135.234C178.341 134.187 181.255 133.558 183.825 135.645C185.927 137.35 186.725 144.694 183.686 146.949C179.286 150.229 175.749 146.774 174.307 143.039C173.97 142.168 174.073 141.121 173.992 140.374ZM178.385 136.897L177.426 136.713C176.972 137.739 176.46 138.749 176.079 139.803C175.442 141.553 176.613 144.855 178.151 145.814C180.011 146.986 181.563 146.634 182.91 144.738C184.777 142.11 184.85 139.188 182.961 137.241C182.522 136.787 181.724 136.596 181.058 136.516C180.911 136.501 180.435 137.49 180.472 137.98C180.64 139.935 180.977 141.875 181.197 143.823C181.255 144.306 181.27 144.928 181.014 145.265C180.794 145.551 180.003 145.741 179.74 145.565C179.315 145.28 178.912 144.687 178.861 144.182C178.722 142.798 178.803 141.392 178.722 140.001C178.663 138.961 178.502 137.929 178.378 136.897H178.385Z" fill="black"/>
<path d="M185.187 234.414C185.399 234.912 185.816 235.527 185.692 235.681C185.143 236.34 184.513 236.992 183.773 237.402C181.657 238.58 179.322 239.422 177.352 240.799C171.854 244.65 167.534 249.563 164.283 255.508C161.113 261.314 160.022 267.538 159.626 273.981C159.582 274.698 160.08 275.445 160.146 276.192C160.198 276.785 160.183 277.642 159.824 277.942C159.436 278.264 158.535 278.271 158.016 278.052C157.591 277.876 157.056 277.093 157.137 276.69C158.016 272.114 159.026 267.56 159.949 262.991C161.574 254.944 166.216 248.772 172.051 243.31C175.31 240.264 178.853 237.68 182.953 235.871C183.656 235.556 184.264 235.029 185.194 234.414H185.187Z" fill="black"/>
<path d="M254.654 139.012C254.749 138.214 255.028 136.772 255.064 135.322C255.116 133.331 256.06 132.291 257.993 132.174C261.412 131.969 264.473 133.111 267.05 135.227C269.1 136.911 269.708 140.601 268.69 142.739C267.189 145.888 265.095 147.227 261.727 146.854C257.825 146.422 254.618 144.482 254.662 139.02L254.654 139.012ZM266.142 142.82C267.892 141.48 268.126 138.932 266.559 137.072C264.487 134.612 261.581 134.305 258.623 134.239C258.293 134.231 257.883 134.422 257.642 134.656C254.998 137.189 256.045 143.384 259.355 144.958C261.969 146.195 265.073 145.192 266.179 142.761L266.135 142.812L266.142 142.82Z" fill="black"/>
<path d="M230.684 137.9C230.237 137.519 229.82 137.102 229.344 136.765C228.992 136.516 228.465 136.135 228.194 136.245C227.835 136.391 227.528 136.926 227.411 137.351C226.832 139.481 227.953 141.341 230.069 141.853C230.771 142.022 231.489 142.139 232.521 142.351C231.299 143.984 229.475 142.659 228.699 143.728C228.333 144.518 227.989 145.976 227.594 145.983C225.302 146.049 226.854 143.882 225.961 142.922C224.958 142.424 224.226 142.424 223.406 143.706C222.681 144.841 221.004 145.434 219.84 144.555C218.669 143.676 217.914 142.205 217.116 140.909C217.021 140.748 217.702 139.928 218.163 139.642C220.58 138.149 222.93 137.848 225.39 140.301C225.434 139.481 225.331 138.617 225.544 137.841C225.866 136.684 226.093 135.11 226.92 134.583C228.231 133.748 229.907 134.122 230.874 135.615C231.225 136.157 231.203 136.948 231.35 137.621L230.669 137.9H230.684ZM218.588 140.975C219.364 141.802 219.657 142.366 220.096 142.52C220.682 142.732 221.495 142.849 222 142.593C222.439 142.373 222.586 141.575 222.864 141.033C222.286 140.806 221.714 140.411 221.136 140.396C220.433 140.382 219.723 140.697 218.588 140.967V140.975Z" fill="black"/>
<path d="M145.239 266.981C143.848 267.186 142.501 267.479 141.139 267.523C140.788 267.538 140.283 266.798 140.114 266.315C140.048 266.132 140.685 265.517 141.095 265.393C143.116 264.77 143.555 263.328 142.267 261.666C141.835 261.117 141.681 260.355 141.395 259.689C142.091 259.513 142.794 259.359 143.475 259.154C144.573 258.825 145.664 258.466 146.953 258.056C148.014 259.118 147.897 261.636 150.54 261.439L150.731 262.003C150.116 262.64 149.464 263.24 148.907 263.928C148.512 264.411 147.86 265.144 147.992 265.517C148.395 266.623 148.629 267.699 147.326 268.028C146.733 268.182 145.884 267.333 145.239 266.989V266.981Z" fill="black"/>
<path d="M131.651 229.575C132.113 231.017 131.534 231.493 130.473 231.779C129.14 232.137 128.086 232.679 129.418 234.29C129.645 234.561 129.44 235.644 129.184 235.754C128.679 235.967 127.961 235.857 127.412 235.666C127.127 235.564 127.002 234.993 126.702 234.436C126.248 234.824 125.955 235.212 125.56 235.388C124.879 235.703 124.11 236.142 123.436 236.054C122.873 235.981 122.294 235.3 121.936 234.751C121.84 234.605 122.463 233.792 122.902 233.543C124.806 232.445 124.945 231.347 123.275 229.977C122.536 229.377 121.386 228.725 122.228 227.7C122.558 227.298 123.883 227.7 124.754 227.759C124.93 227.766 125.099 227.84 125.421 227.92C125.53 227.378 125.516 226.822 125.757 226.397C125.992 225.987 126.526 225.409 126.834 225.46C127.339 225.548 128.196 226.185 128.144 226.426C127.471 229.56 129.631 229.531 131.659 229.567L131.651 229.575Z" fill="black"/>
<path d="M137.514 247.308C137.558 247.344 137.602 247.403 137.653 247.418C138.48 247.667 139.315 247.908 140.142 248.15C139.608 248.948 139.037 249.724 138.546 250.544C138.319 250.917 138.019 251.489 138.151 251.796C138.854 253.385 137.668 253.465 136.701 253.824C135.552 254.241 134.439 254.783 133.282 255.179C132.865 255.325 132.14 255.376 131.935 255.142C131.679 254.857 131.613 254.073 131.832 253.751C133.575 251.144 133.421 250.288 130.866 248.406C130.383 248.055 130.104 247.418 129.738 246.905L130.068 246.495C131.481 246.62 132.894 246.744 133.758 246.817C134.746 245.77 135.413 245.067 136.079 244.365C136.65 245.287 137.221 246.202 137.785 247.125L137.507 247.3L137.514 247.308Z" fill="black"/>
<path d="M168.749 213.452C169.459 213.562 169.964 213.525 170.36 213.723C170.777 213.928 171.392 214.397 171.356 214.675C171.297 215.114 170.799 215.78 170.426 215.824C169.393 215.956 169.035 216.417 168.764 217.391C168.42 218.629 167.651 219.39 166.157 218.585C165.747 218.365 165.022 218.577 164.495 218.746C163.338 219.119 162.606 218.885 162.394 217.611C164.568 216.33 164.598 215.883 162.709 213.972C162.452 213.716 162.108 213.489 161.976 213.174C161.786 212.735 161.757 212.222 161.654 211.739C162.203 211.658 162.848 211.344 163.28 211.527C165.747 212.574 165.681 212.581 167.307 210.56C167.636 210.15 168.449 210.128 169.042 209.923C169.181 210.494 169.452 211.073 169.43 211.636C169.408 212.149 169.071 212.647 168.756 213.452H168.749Z" fill="black"/>
<path d="M202.289 136.369C203.797 135.469 204.127 136.758 204.617 137.695C206.697 137.299 208.886 136.97 209.933 139.218C210.973 141.436 208.879 142.578 207.671 143.918C206.616 145.09 205.511 144.65 204.017 143.362C204.134 145.331 204.207 146.847 204.332 148.37C204.361 148.714 204.72 149.102 204.632 149.38C204.42 150.039 204.039 150.647 203.724 151.276C203.343 150.735 202.648 150.2 202.626 149.644C202.487 146.495 202.531 143.34 202.479 140.184C202.457 138.917 202.355 137.658 202.296 136.369H202.289ZM208.483 139.62C207.356 139.481 206.301 139.042 205.54 139.349C204.852 139.628 204.478 140.711 203.973 141.436C204.647 141.788 205.335 142.461 205.987 142.432C207.385 142.373 208.176 141.399 208.483 139.613V139.62Z" fill="black"/>
<path d="M122.116 138.493C123.024 138.756 124.005 138.895 124.832 139.32C126.194 140.016 126.524 141.67 125.491 142.695C124.518 143.662 123.449 144.614 122.241 145.236C121.01 145.873 120.732 146.649 120.996 147.864C121.179 148.692 121.34 149.526 121.406 150.368C121.435 150.786 121.34 151.503 121.106 151.599C120.652 151.774 119.985 151.76 119.553 151.533C119.246 151.372 119.07 150.757 119.041 150.325C118.916 148.414 118.865 146.503 118.785 144.592C118.733 143.325 118.646 142.058 118.668 140.792C118.689 139.239 119.619 138.698 122.101 138.493H122.116ZM121.325 144.086C122.651 143.31 124.086 142.805 123.734 141.048C123.668 140.726 122.365 140.272 121.933 140.484C120.344 141.275 120.886 142.622 121.325 144.086Z" fill="black"/>
<path d="M153.292 234.759C153.322 235.11 153.336 235.169 153.329 235.227C153.278 235.747 149.829 237.965 149.309 237.965C148.482 237.973 147.647 238.141 146.82 238.251C146.176 238.339 145.487 238.639 144.909 238.493C144.462 238.383 143.84 237.687 143.877 237.307C143.92 236.823 144.484 236.113 144.946 235.996C147.633 235.293 147.611 235.359 146.337 232.833C146.102 232.372 146 231.625 146.219 231.215C146.41 230.863 147.354 230.49 147.603 230.666C149.251 231.793 151.696 231.486 152.809 233.514C153.065 233.982 153.197 234.51 153.292 234.751V234.759Z" fill="black"/>
<path d="M171.774 231.698C171.145 233.045 170.573 234.414 169.863 235.718C169.439 236.494 167.828 236.245 167.33 235.198C166.803 234.092 166.049 234.187 165.104 234.253C164.401 234.304 163.676 234.078 162.52 233.909C163.23 233.155 163.471 232.65 163.786 232.599C165.016 232.415 165.346 231.793 165.272 230.6C165.251 230.204 166.085 229.34 166.363 229.406C167.564 229.692 168.025 229.069 168.414 228.162C168.772 227.32 169.373 226.514 170.295 227.129C170.734 227.422 170.698 228.454 170.859 229.157C171.042 229.985 171.196 230.812 171.364 231.639L171.781 231.683L171.774 231.698Z" fill="black"/>
<path d="M142.698 216.073C143.042 215.51 143.225 214.902 143.628 214.624C144.045 214.338 144.704 214.228 145.209 214.316C145.436 214.353 145.597 215.056 145.685 215.48C145.868 216.352 146.198 217.267 146.073 218.109C145.89 219.361 145.553 220.671 144.946 221.762C144.367 222.795 143.313 222.868 142.302 222.041C142.046 221.836 141.636 221.836 141.299 221.718C140.963 221.601 140.399 221.513 140.347 221.308C139.923 219.646 139.549 217.97 139.315 216.278C139.286 216.081 140.208 215.561 140.706 215.539C141.321 215.517 141.958 215.861 142.69 216.081L142.698 216.073Z" fill="black"/>
<path d="M166.012 145.155C166.744 145.258 167.469 145.368 168.201 145.456C168.985 145.551 169.768 145.624 170.551 145.704L170.683 146.437C170.046 146.671 169.417 147.066 168.765 147.11C165.463 147.352 163.376 145.778 162.52 142.681C163.288 141.861 163.925 140.733 164.877 140.301C165.931 139.818 167.301 139.781 168.487 139.92C169.029 139.986 169.687 140.872 169.9 141.516C170.376 142.966 169.468 144.167 167.938 144.365C167.345 144.438 166.751 144.438 166.151 144.474L166.005 145.148L166.012 145.155Z" fill="black"/>
<path d="M245.715 143.859C247.267 144.394 248.819 144.928 250.767 145.602C247.516 147.059 243.599 145.697 243.54 142.9C243.482 140.272 245.92 137.394 248.336 137.563C249.822 137.665 251.001 138.961 251.038 140.411C251.081 142.315 249.873 142.527 248.394 142.585C247.53 142.622 246.674 142.893 245.81 143.061L245.722 143.867L245.715 143.859ZM246.242 141.077C247.487 141.077 248.68 141.729 249.493 140.396C249.602 140.213 249.2 139.43 248.929 139.357C247.662 139.034 246.74 139.51 246.242 141.077Z" fill="black"/>
<path d="M140.56 278.191C135.881 268.146 130.712 258.898 124.438 250.273L124.804 249.995C125.441 250.779 126.143 251.511 126.693 252.353C129.987 257.361 133.538 262.23 136.401 267.472C138.005 270.408 139.659 273.234 141.665 275.892C142.076 276.434 142.068 277.29 142.251 277.993L140.553 278.191H140.56Z" fill="black"/>
<path d="M149.024 144.731C148.102 144.87 147.179 145.002 146.176 145.148C146.249 145.536 146.257 145.77 146.33 145.983C146.667 146.913 146.615 147.843 145.488 147.886C145.041 147.908 144.17 146.957 144.155 146.429C144.133 145.39 143.862 144.782 142.976 144.233C142.566 143.977 142.266 143.237 142.288 142.725C142.303 142.424 143.035 142.161 143.533 141.817C143.687 140.74 143.745 139.452 144.082 138.251C144.536 136.648 145.488 136.355 147.421 137.197C148.665 137.739 149.5 138.61 148.79 140.177C148.526 140.133 148.336 140.14 148.19 140.067C147.326 139.664 146.425 138.595 145.612 140.067C144.858 141.429 145.532 143.105 147.018 143.662C147.699 143.918 148.417 144.072 149.112 144.27L149.024 144.723V144.731Z" fill="black"/>
<path d="M157.862 244.994C158.286 244.87 158.711 244.723 159.136 244.613C159.48 244.526 160.014 244.284 160.146 244.423C161.149 245.433 162.101 246.502 162.972 247.623C163.038 247.711 162.452 248.575 162.042 248.721C161.003 249.102 160.366 249.622 160.051 250.778C159.714 252.001 158.945 252.008 158.067 251.035C157.532 250.449 156.675 250.149 156.148 249.563C155.716 249.087 155.511 248.384 155.284 247.747C155.226 247.579 155.555 247.271 155.497 247.096C154.845 244.87 156.346 244.87 157.862 244.987V244.994Z" fill="black"/>
<path d="M178.971 265.085C178.62 265.312 178.371 265.568 178.063 265.663C173.473 267.186 170.105 270.225 167.498 274.186C167.147 274.72 166.912 275.423 166.89 276.06C166.832 277.722 166.107 278.088 164.672 277.466C164.987 271.514 174.38 263.277 178.971 265.085Z" fill="black"/>
<path d="M242.223 146.085C240.751 146.488 240.29 146.1 240.143 144.277C240.063 143.318 239.989 142.351 239.909 141.392C239.836 140.499 239.755 139.598 239.667 138.573C238.086 138.69 236.643 138.917 235.216 138.837C234.637 138.807 234.096 138.105 233.539 137.717C234.11 137.46 234.689 136.992 235.26 136.992C236.695 136.992 238.137 137.211 239.675 137.35C239.741 136.823 239.697 136.296 239.894 135.893C240.114 135.454 240.561 135.132 240.905 134.759C241.227 135.212 241.805 135.666 241.813 136.135C241.849 138.339 241.659 140.543 241.688 142.739C241.703 143.801 242.01 144.863 242.215 146.093L242.223 146.085Z" fill="black"/>
<path d="M129.623 140.418C132.786 137.907 133.606 137.914 134.697 140.411C134.433 140.513 134.177 140.682 133.914 140.704C130.838 140.96 129.711 142.095 129.916 145.214C130.026 146.92 129.316 147.059 127.924 146.817C127.61 144.614 127.214 142.468 127.038 140.301C126.987 139.686 127.544 139.02 127.822 138.375C128.283 138.807 128.752 139.232 129.191 139.686C129.352 139.854 129.433 140.089 129.623 140.418Z" fill="black"/>
<path d="M213.64 144.863C212.82 142.432 212.036 140.294 211.399 138.119C211.238 137.563 211.546 136.875 211.641 136.245C212.139 136.618 212.666 136.962 213.127 137.38C213.376 137.607 213.515 137.951 213.72 138.266C215.609 136.164 216.29 135.989 217.769 137.255C217.586 137.475 217.44 137.797 217.205 137.907C214.826 139.027 214.511 141.011 215.009 143.266C215.412 145.082 214.504 145.075 213.647 144.87L213.64 144.863Z" fill="black"/>
<path d="M138.027 146.861C135.743 146.876 133.7 145.038 134.066 142.915C134.183 142.241 135.567 141.465 136.46 141.326C137.947 141.092 140.246 143.091 140.297 144.291C140.356 145.624 139.272 146.854 138.027 146.861Z" fill="black"/>
<path d="M296.117 128.14C297.047 126.932 297.662 125.745 299.456 125.021C301.44 124.222 302.926 122.128 304.566 120.532C305.687 119.441 306.668 118.211 307.773 117.113C308.066 116.828 308.608 116.659 309.025 116.681C309.238 116.688 309.648 117.274 309.596 117.501C309.494 117.897 309.15 118.277 308.828 118.57C306.148 120.979 303.49 123.395 300.752 125.731C299.441 126.851 297.977 127.788 296.578 128.813L296.125 128.147L296.117 128.14Z" fill="black"/>
<path d="M159.195 136.97C160.294 137.651 161.179 138.127 161.941 138.756C162.029 138.829 161.238 139.723 161.15 140.279C160.982 141.392 160.931 142.542 160.989 143.669C161.04 144.694 161.37 145.697 161.45 146.715C161.472 147.03 161.084 147.381 160.879 147.711C160.535 147.44 159.942 147.213 159.891 146.898C159.408 144.042 158.983 141.18 158.631 138.31C158.58 137.914 158.976 137.46 159.188 136.962L159.195 136.97Z" fill="black"/>
<path d="M117.497 267.662C118.617 267.728 119.84 267.53 120.843 267.911C123.713 268.995 126.656 270.056 128.508 272.809C128.977 273.505 129.658 274.039 130.214 274.684C130.537 275.057 131.1 275.599 131.005 275.855C130.851 276.258 130.2 276.77 129.819 276.719C129.372 276.668 128.904 276.133 128.589 275.701C127.491 274.23 126.59 272.59 125.375 271.235C123.303 268.936 120.469 268.262 117.475 268.109L117.511 267.655L117.497 267.662Z" fill="black"/>
<path d="M237.308 146.019C237.404 146.012 236.935 146.18 236.569 146.056C235.192 145.587 234.072 141.663 235.039 140.601C235.331 140.279 236.012 140.125 236.459 140.213C236.715 140.264 236.979 140.931 237.023 141.341C237.162 142.805 237.213 144.277 237.308 146.019Z" fill="black"/>
<path d="M105.154 37.8118C104.956 38.2072 104.853 38.5733 104.626 38.8295C103.557 40.0376 102.474 41.231 101.339 42.3805C101.156 42.5636 100.49 42.6222 100.424 42.5123C100.241 42.2121 100.087 41.6777 100.241 41.4434C101.163 40.0303 102.13 38.6465 103.184 37.3359C103.404 37.0577 104.055 37.0064 104.487 37.0577C104.729 37.0869 104.919 37.5336 105.161 37.8191L105.154 37.8118Z" fill="black"/>
<path d="M155.549 147.989C155.227 148.048 154.429 148.296 154.371 148.179C153.822 147.052 153.316 145.88 152.994 144.672C152.928 144.431 153.704 143.969 154.092 143.611C154.437 144.006 154.956 144.35 155.081 144.804C155.337 145.705 155.374 146.671 155.549 147.989Z" fill="black"/>
<path d="M157.026 141.736C152.897 142.198 151.879 141.949 151.389 140.382C153.344 139.562 156.66 140.287 157.026 141.736Z" fill="black"/>
<path d="M78.9551 70.3494C79.9289 68.907 80.6757 67.6843 81.5616 66.5714C81.7959 66.2785 82.4549 66.3151 82.9234 66.2053C82.9234 66.6519 83.0992 67.2377 82.8868 67.5232C81.957 68.7533 81.3566 70.4739 78.9624 70.3494H78.9551Z" fill="black"/>
<path d="M109.254 32.0056C112.153 31.8518 112.834 34.905 114.73 36.2009L114.481 36.567L108.785 32.7817L109.254 32.0056Z" fill="black"/>
<path d="M84.7339 60.802C85.305 59.8355 85.8102 58.8032 86.4911 57.9172C86.8059 57.5072 87.4576 57.2583 87.992 57.1631C88.2117 57.1265 88.8194 57.7854 88.7535 57.9758C88.5924 58.481 88.2117 58.9496 87.8383 59.3523C87.399 59.8282 86.8938 60.2602 86.3666 60.6336C85.9346 60.9338 85.4294 61.1241 84.9535 61.3584L84.7266 60.802H84.7339Z" fill="black"/>
<path d="M93.2033 50.8005C92.9324 49.6437 94.0453 47.2788 95.1655 47.0079C95.7439 46.8688 96.4761 47.3447 97.3254 47.5936L93.2106 50.8005H93.2033Z" fill="black"/>
<path d="M286.035 54.4393C285.105 53.0701 284.109 51.679 283.202 50.2366C283.004 49.9291 282.967 49.402 283.092 49.0652C283.172 48.8455 283.795 48.5819 283.978 48.6844C284.395 48.9187 284.893 49.3141 285.01 49.7388C285.435 51.291 285.713 52.8871 286.035 54.432V54.4393Z" fill="black"/>
<path d="M74.1309 98.1353C76.3127 97.1541 78.2603 98.3988 80.3836 101.657C78.3116 100.493 76.3493 99.3873 74.1309 98.1353Z" fill="black"/>
<path d="M110.336 237.584C113.375 239.825 116.413 242.065 119.452 244.306L119.24 244.591C116.157 242.417 113.075 240.235 109.992 238.06L110.336 237.584Z" fill="black"/>
<path d="M175.484 128.594C174.693 129.055 174.056 129.377 173.478 129.78C172.958 130.139 172.497 130.585 172.014 130.995L171.662 130.622C172.219 129.546 172.563 128.25 173.383 127.452C174.481 126.39 174.95 127.598 175.484 128.586V128.594Z" fill="black"/>
<path d="M72.0073 79.26C72.5565 78.1252 73.0543 76.9683 73.684 75.8774C73.8231 75.6358 74.6139 75.4527 74.7603 75.5992C75.0385 75.8627 75.3094 76.5729 75.1557 76.7853C74.3942 77.825 73.4863 78.7621 72.6297 79.7359L72 79.26H72.0073Z" fill="black"/>
<path d="M201.734 129.597C201.009 128.725 200.211 127.898 199.61 126.946C199.391 126.595 199.662 125.943 199.705 125.431C200.196 125.643 200.965 125.745 201.111 126.097C201.558 127.181 201.77 128.367 202.07 129.516L201.726 129.597H201.734Z" fill="black"/>
<path d="M285.801 136.457C286.46 135.747 287.06 134.949 287.829 134.385C288.063 134.217 288.773 134.693 289.264 134.876C289.022 135.308 288.891 135.967 288.524 136.135C287.807 136.472 286.965 136.545 286.174 136.728L285.801 136.457Z" fill="black"/>
<path d="M100.319 124.127C99.5798 123.293 98.7891 122.502 98.1228 121.609C97.9251 121.338 98.0643 120.818 98.0496 120.408C98.5182 120.481 99.2577 120.408 99.4041 120.664C99.9752 121.645 100.356 122.744 100.81 123.791L100.319 124.127Z" fill="black"/>
<path d="M274.182 47.1687C273.472 48.5232 273.01 49.5263 272.41 50.4488C272.278 50.6538 271.612 50.6758 271.29 50.544C271.063 50.4562 270.799 49.7972 270.902 49.6727C271.67 48.6989 272.271 47.4616 274.182 47.1687Z" fill="black"/>
<path d="M166.068 134.737C165.819 135.952 165.841 137.16 164.325 136.882C163.974 136.816 163.439 135.996 163.527 135.659C163.893 134.224 164.999 134.751 166.068 134.737Z" fill="black"/>
<path d="M310.461 90.7185C312.43 89.364 313.038 89.7594 313.631 92.8199C312.416 92.0145 311.545 91.4361 310.461 90.7185Z" fill="black"/>
<path d="M313.588 108.562C314.151 108.986 314.715 109.411 315.813 110.246L312.826 110.824C312.87 110.099 312.921 109.382 312.965 108.657L313.588 108.562Z" fill="black"/>
<path d="M108.499 132.386L106.91 130.146L107.291 129.611C107.796 129.728 108.528 129.677 108.748 129.985C109.121 130.534 109.18 131.303 109.363 131.976L108.499 132.386Z" fill="black"/>
<path d="M298.629 68.4459C297.794 67.8968 297.106 67.516 296.506 67.0255C296.22 66.7985 295.971 66.3738 295.949 66.0224C295.942 65.832 296.462 65.4293 296.718 65.4513C297.055 65.4806 297.494 65.7661 297.655 66.0663C298.029 66.7472 298.263 67.5087 298.629 68.4459Z" fill="black"/>
<path d="M120.543 133.279C119.511 133.799 118.991 134.239 118.449 134.261C118.149 134.275 117.827 133.58 117.512 133.206C117.892 132.884 118.266 132.335 118.669 132.313C119.122 132.291 119.591 132.752 120.55 133.272L120.543 133.279Z" fill="black"/>
<path d="M274.607 143.127C275.801 141.89 276.614 142.007 277.104 143.025C277.258 143.347 276.775 143.977 276.577 144.467L274.607 143.127Z" fill="black"/>
<path d="M209.729 134.927C208.894 135.388 208.404 135.864 207.95 135.835C207.576 135.813 207.232 135.19 206.881 134.832C207.313 134.532 207.723 134.026 208.177 133.982C208.55 133.946 208.982 134.444 209.729 134.927Z" fill="black"/>
<path d="M278.128 47.2347C277.528 46.8613 276.861 46.5465 276.378 46.056C276.276 45.9534 276.81 45.2066 277.052 44.76C277.63 45.2872 278.201 45.8143 278.78 46.3415C278.567 46.6417 278.348 46.9346 278.135 47.2347H278.128Z" fill="black"/>
<path d="M315.9 99.6289C315.365 98.9773 314.831 98.3257 314.289 97.674C314.626 97.4105 314.97 97.1542 315.307 96.8906L316.815 98.9114L315.9 99.6363V99.6289Z" fill="black"/>
<path d="M281.145 141.377C280.369 141.538 279.593 141.699 278.385 141.956C278.7 140.945 278.875 140.374 279.124 139.547L281.189 140.784L281.145 141.377Z" fill="black"/>
<path d="M89.5932 110.348C89.9813 111.153 90.4279 111.68 90.4133 112.2C90.4059 112.537 89.6811 113.145 89.3443 113.101C88.883 113.05 88.473 112.493 88.041 112.156L89.5932 110.348Z" fill="black"/>
<path d="M307.92 82.1374C307.598 81.3832 307.276 80.6218 306.961 79.8676L308.484 79.7578C308.528 80.5046 308.572 81.2514 308.623 81.9909L307.927 82.1447L307.92 82.1374Z" fill="black"/>
<path d="M74.5412 91.3773C73.7944 91.3041 73.0403 91.2601 72.3008 91.121C72.2275 91.1064 72.2568 90.5206 72.2422 90.1985H74.5851L74.5412 91.37V91.3773Z" fill="black"/>
<path d="M318.186 104.351C318.691 104.864 319.203 105.376 319.709 105.889C319.467 106.123 319.035 106.57 319.006 106.548C318.457 106.087 317.951 105.567 317.432 105.062L318.178 104.351H318.186Z" fill="black"/>
<path d="M200.87 90.3889C208.953 91.165 216.458 93.3323 223.135 97.9303C224.226 98.6844 225.28 99.5191 226.445 100.141C226.957 100.42 227.711 100.383 228.319 100.266C228.59 100.215 229.015 99.4386 228.919 99.3141C228.583 98.8528 228.114 98.4428 227.609 98.1719C225.339 96.9272 223.011 95.785 220.792 94.4598C220.507 94.2914 220.492 93.1419 220.763 92.7026C221.18 92.0363 221.956 91.6043 222.579 91.0698L222.257 90.4768C221.715 90.7623 220.961 90.9161 220.66 91.3627C219.284 93.3835 217.703 93.2224 215.63 92.439C210.425 90.4621 205.138 88.6903 199.86 86.9184C198.659 86.5157 197.355 86.4498 196.103 86.1936C195.013 85.9666 194.412 85.3516 194.493 84.1435C194.661 81.5077 194.654 78.8499 195.013 76.2434C195.137 75.3355 196.103 74.5374 196.718 73.7101C197.282 72.9486 198.366 72.2164 198.373 71.4623C198.381 70.2762 197.231 69.7417 196.001 69.7417C195.833 69.7417 195.664 69.6392 195.13 69.4561C195.13 66.6593 194.947 63.7452 195.181 60.8678C195.452 57.551 196.074 54.2636 196.579 50.9688C197.085 47.6667 201.778 43.1932 205.3 43.1346C210.395 43.0541 215.506 43.281 220.602 43.5666C225.156 43.8228 229.71 44.2402 234.242 44.782C237.376 45.1554 240.488 45.7558 243.57 46.4513C248.966 47.6594 254.355 48.9041 259.678 50.3831C261.347 50.8444 262.819 52.0671 264.32 53.0409C264.547 53.1873 264.547 53.9122 264.43 54.3075C263.851 56.3137 264.203 56.7457 266.655 56.4455C267.109 58.8323 267.82 61.2339 267.966 63.672C268.361 70.2176 268.896 76.7852 268.684 83.3235C268.369 93.1712 267.6 103.012 266.758 112.83C266.45 116.381 264.598 119.668 261.669 121.587C259.619 122.934 256.757 123.285 254.201 123.571C248.534 124.201 242.845 124.684 237.149 124.867C233.539 124.984 229.908 124.464 226.284 124.208C222.161 123.915 218.025 123.725 213.925 123.256C208.997 122.692 204.113 121.828 199.845 119.046C199.318 118.702 198.922 118.094 198.593 117.531C197.883 116.3 197.048 115.085 196.645 113.753C196.213 112.339 196.184 110.795 196.038 109.308C195.51 104.059 194.991 98.8016 194.515 93.5446C194.419 92.461 194.449 91.3554 194.529 90.2645C194.742 87.3943 195.13 87.1381 197.927 88.002C199.223 88.4047 200.738 88.5658 200.87 90.3962V90.3889ZM211.794 101.225L211.054 100.72C209.758 102.25 208.433 103.758 207.196 105.325C207.013 105.552 207.071 106.182 207.262 106.438C207.474 106.724 208.001 106.965 208.331 106.899C208.602 106.848 208.821 106.35 209.019 106.021C209.627 104.996 210.212 103.956 210.805 102.916C211.135 102.345 211.464 101.782 211.801 101.218L211.794 101.225ZM232.712 80.3655C230.508 81.5004 229.637 83.1038 229.007 84.861C228.89 85.1905 228.985 85.725 229.198 86.0105C229.344 86.2082 229.952 86.3034 230.164 86.1643C230.457 85.9666 230.618 85.52 230.764 85.1539C231.211 84.019 231.614 82.8622 232.053 81.7273C232.185 81.3905 232.368 81.083 232.719 80.3728L232.712 80.3655ZM202.752 113.818C203.696 113.438 204.428 113.211 205.087 112.852C205.395 112.684 205.768 112.222 205.739 111.944C205.702 111.637 205.27 111.263 204.926 111.131C203.572 110.611 203.14 111.102 202.759 113.826L202.752 113.818ZM242.011 73.4099L241.33 72.9413C240.641 73.7613 239.909 74.5521 239.294 75.4233C239.162 75.6137 239.375 76.3239 239.587 76.4118C239.887 76.5362 240.546 76.4264 240.678 76.1994C241.198 75.3135 241.579 74.3397 242.011 73.4025V73.4099ZM249.772 69.6978C250.365 68.1456 250.826 66.9302 251.309 65.6489C249.669 65.8026 249.142 67.0693 248.754 68.2993C248.659 68.6141 249.369 69.1779 249.764 69.6978H249.772ZM260.3 59.2497L259.839 58.9129C259.356 59.5133 258.719 60.0624 258.448 60.7506C258.331 61.0581 258.953 61.6585 259.246 62.1198L259.758 61.9587L260.3 59.2497ZM203.579 117.816C202.898 117.421 202.517 117.018 202.21 117.069C201.792 117.135 201.112 117.56 201.119 117.816C201.133 118.233 201.609 118.636 201.888 119.046C202.334 118.724 202.781 118.394 203.572 117.816H203.579Z" fill="white"/>
<path d="M159.305 88.0093C158.719 86.7499 158.199 85.4686 157.54 84.2532C157.05 83.3453 157.013 82.7743 158.031 82.1812C159.444 81.3612 160.681 80.2263 162.124 79.4868C163.017 79.0255 164.159 79.0695 165.177 78.8352C165.843 78.6814 166.751 78.6521 167.11 78.2128C169.431 75.4013 172.652 74.3763 175.984 73.5489C177.338 73.2121 178.737 73.0657 180.121 72.8387C181.256 72.6483 181.695 73.1682 181.6 74.2737C181.321 77.5392 181.116 80.8194 180.736 84.0702C180.677 84.59 179.96 85.3149 179.418 85.4467C176.306 86.2081 173.158 86.8305 170.017 87.4821C169.885 87.5114 169.716 87.3503 169.372 87.1892C170.024 86.6108 170.712 86.1935 171.122 85.5931C171.444 85.1245 171.605 84.3924 171.496 83.8432C171.422 83.4771 170.668 82.9134 170.368 82.9939C169.841 83.133 169.299 83.6163 168.992 84.0995C168.201 85.3442 167.879 86.8378 166.202 87.5041C165.089 87.9507 165.485 89.9495 166.641 90.462C169.555 91.758 172.455 93.0905 175.676 94.5476C175.808 94.284 176.445 93.5665 176.291 93.1198C176.13 92.6512 175.23 92.4023 174.629 92.1094C173.385 91.5017 172.067 91.0185 170.881 90.3156C170.068 89.8324 170.251 89.0782 171.13 88.8732C174.014 88.1923 176.914 87.5553 179.828 87.0355C181.072 86.8158 181.094 87.9287 181.124 88.7707C181.256 92.7904 181.395 96.81 181.453 100.822C181.497 103.985 181.409 107.148 181.431 110.304C181.453 113.262 180.421 115.861 179.059 118.175H176.65C176.775 118.965 176.899 119.764 177.104 121.052C176.204 121.367 174.966 122.055 173.678 122.202C168.611 122.773 163.537 123.359 158.456 123.585C152.503 123.849 146.536 123.849 140.576 123.783C135.912 123.732 131.226 123.673 126.606 123.124C123.092 122.707 120.434 121.726 119.57 117.208C119.043 114.433 119.336 111.446 118.457 108.818C117.417 105.691 117.71 102.616 117.579 99.497C117.439 96.1144 117.359 92.7318 117.169 89.3492C117.059 87.3503 116.612 85.3588 116.634 83.3746C116.729 74.7643 116.949 66.1466 117.103 57.5363C117.161 54.3001 117.191 51.0639 117.205 47.8277C117.205 47.3518 117.139 46.8539 117 46.4C115.792 42.5048 117.527 39.4517 121.62 39.1954C126.518 38.8806 131.475 38.822 136.373 39.1368C142.062 39.5029 147.715 40.4181 153.389 41.0405C159.898 41.7507 166.422 42.395 172.938 43.0613C174.878 43.259 176.028 44.5769 176.716 46.151C179.864 53.2751 181.951 60.6627 181.936 68.5408C181.936 70.0272 181.526 70.9717 179.923 71.2426C177.412 71.6599 174.878 72.0333 172.418 72.6849C170.837 73.1023 169.38 73.9736 167.879 74.6618C167.557 74.8082 167.3 75.1304 166.964 75.2475C161.853 77.0047 157.584 80.175 153.404 83.4332C152.078 84.4656 151.031 85.8713 149.823 87.0575C148.879 87.9873 147.832 88.8147 146.902 89.7592C146.521 90.1472 145.994 90.8794 146.133 91.1796C146.375 91.6921 147.041 92.1973 147.605 92.3071C147.978 92.3803 148.564 91.8166 148.916 91.4139C150.768 89.2686 152.532 87.0428 154.443 84.9561C154.678 84.6999 155.783 84.8536 156.179 85.1831C157.226 86.069 158.097 87.1526 159.041 88.1557L159.305 88.0093ZM136.103 58.8762L136.351 58.598C135.407 57.0458 134.521 55.4643 133.481 53.978C133.24 53.6265 132.486 53.6412 131.966 53.4874C131.922 53.8608 131.702 54.3953 131.863 54.571C133.24 56.0427 134.682 57.4485 136.11 58.8762H136.103ZM175.859 113.994L176.606 113.738C176.247 112.581 175.947 111.402 175.486 110.289C175.347 109.96 174.732 109.835 174.336 109.608C174.183 110.114 173.751 110.765 173.919 111.109C174.439 112.134 175.193 113.035 175.859 113.987V113.994ZM127.997 48.3256L128.415 47.7984C127.177 46.5684 125.969 45.3091 124.688 44.1229C124.468 43.9179 123.963 44.0278 123.582 43.9911C123.582 44.4451 123.385 45.1407 123.604 45.3091C125.017 46.3853 126.526 47.3372 127.997 48.3329V48.3256ZM139.661 64.0453C141.279 65.7 142.663 67.1058 144.054 68.5189C142.809 64.8214 141.704 63.6573 139.661 64.0453ZM162.614 92.578L162.021 93.0905C163.325 94.5549 164.628 96.0266 165.938 97.4909L166.436 97.0662C164.73 95.9387 165.411 92.783 162.614 92.578ZM168.047 99.8412C168.831 101.716 169.446 103.187 170.207 104.996C171.459 102.213 171.02 101.13 168.047 99.8412ZM151.01 77.5246C150.548 76.5069 150.109 75.4452 149.582 74.4348C149.413 74.1127 149.033 73.8271 148.681 73.6953C148.564 73.6514 148.125 74.1127 148.052 74.3982C147.81 75.3061 150.065 77.5612 151.01 77.5246Z" fill="white"/>
<path d="M207.875 322.026C207.875 326.463 207.89 330.892 207.86 335.329C207.86 336.04 207.516 336.743 207.502 337.46C207.48 338.09 207.502 339.144 207.831 339.283C209.486 340.001 209.325 341.516 209.273 342.71C209.039 348.589 208.827 354.476 208.183 360.318C207.853 363.335 206.125 365.817 203.189 367.303C200.875 368.475 198.547 369.288 195.948 369.507C191.621 369.881 187.316 370.693 182.981 370.898C173.338 371.36 163.681 371.609 154.031 371.85C148.393 371.989 142.756 371.945 137.118 371.96C135.778 371.96 134.446 371.843 133.106 371.777C128.068 371.521 123.031 371.33 117.994 370.979C112.737 370.613 107.494 370.137 102.252 369.617C99.1256 369.309 97.6906 367.94 97.5075 364.799C97.2439 360.223 97.178 355.625 97.1268 351.042C97.1048 349.072 97.9175 346.912 97.3391 345.177C96.0651 341.355 96.6728 337.57 96.8266 333.807C97.0829 327.378 97.7638 320.972 98.2617 314.55C98.4667 311.893 98.4813 309.206 98.884 306.577C99.3746 303.341 99.5869 299.848 101.044 297.052C102.069 295.075 102.149 293.662 101.952 291.648C101.783 289.876 102.428 287.848 103.262 286.215C103.738 285.286 105.239 284.634 106.403 284.348C112.641 282.84 118.982 282.408 125.389 282.796C133.618 283.294 141.848 283.777 150.085 284.239C155.056 284.517 160.035 284.78 165.014 284.956C170.161 285.139 175.337 284.934 180.455 285.41C188.238 286.142 195.992 287.255 203.731 288.39C204.522 288.507 205.452 289.752 205.752 290.66C206.359 292.49 206.747 294.438 206.916 296.363C207.311 300.961 207.611 305.567 207.78 310.179C207.919 314.126 207.809 318.079 207.809 322.033H207.904L207.875 322.026ZM129.533 325.965C129.708 328.784 129.708 330.746 129.972 332.664C130.492 336.406 132.293 339.334 135.683 341.253C140.178 343.808 144.85 345.734 150.129 345.602C156.345 345.448 161.968 344.306 165.643 338.331C169.143 332.642 169.326 326.785 167.752 320.627C167.423 319.346 167.027 318.028 166.383 316.886C164.596 313.708 161.507 311.812 158.263 310.955C154.185 309.886 150.136 308.473 145.618 309.03C140.31 309.681 135.976 311.534 132.842 315.905C132.066 316.981 131.092 318.057 130.763 319.288C130.104 321.733 129.833 324.281 129.54 325.965H129.533Z" fill="white"/>
<path d="M321.114 261.783C316.867 262.032 312.621 262.244 308.381 262.53C304.508 262.793 300.635 263.13 296.762 263.445C296.154 263.496 295.539 263.547 294.953 263.694C287.002 265.663 278.882 265.612 270.784 265.656C264.597 265.693 258.403 265.715 252.224 265.51C249.163 265.407 246.117 264.792 243.064 264.411C242.947 264.397 242.83 264.338 242.713 264.309C241.454 263.972 239.565 264.023 239.074 263.225C238.078 261.585 237.61 259.52 237.346 257.573C236.716 252.902 236.226 248.208 235.889 243.508C235.64 240.03 235.735 236.523 235.633 233.03C235.53 229.582 235.406 226.133 235.215 222.692C235.047 219.617 234.542 216.542 234.6 213.474C234.674 209.667 235.062 205.86 235.538 202.082C235.816 199.856 238.605 198.428 241.424 198.728C247.948 199.416 254.457 200.193 260.995 200.705C264.605 200.983 268.251 200.866 271.883 200.808C279.292 200.69 286.702 200.332 294.104 200.368C302.487 200.405 310.871 200.793 319.261 200.976C323.508 201.071 326.129 203.172 327.498 207.134C328.794 210.875 329.827 214.631 330.112 218.629C330.698 226.792 331.642 234.927 332.243 243.09C332.47 246.158 332.155 249.27 332.111 252.367C332.111 252.836 332.082 253.502 332.353 253.751C334.564 255.698 332.55 257.544 332.287 259.425C332.067 260.999 330.581 260.787 329.592 261.109C328.223 261.563 326.759 261.819 325.316 261.959C323.933 262.098 322.52 261.988 321.121 261.988V261.783H321.114ZM252.356 227.363L252.378 227.4C251.85 227.239 251.016 226.8 250.855 226.975C250.452 227.415 250.144 228.147 250.181 228.733C250.262 230.058 250.43 231.42 250.818 232.686C251.821 235.959 253.82 238.339 257.246 239.305C259.794 240.03 262.364 239.093 263.455 236.845C264.927 233.799 264.978 230.695 263.69 227.51C263.016 225.841 261.801 224.918 260.204 224.647C258.059 224.288 255.855 224.149 254.113 225.972C253.6 226.507 252.949 226.902 252.356 227.356V227.363ZM311.801 231.837C311.793 231.654 311.779 231.471 311.771 231.288C311.574 227.268 308.733 224.977 304.801 225.57C303.93 225.701 303 225.489 302.107 225.379C301.316 225.277 300.518 224.911 299.756 224.977C298.387 225.101 296.996 225.365 295.693 225.797C295.158 225.972 294.609 226.69 294.441 227.276C293.555 230.351 294.836 233.14 295.898 235.901C297.443 239.927 300.584 241.062 303.871 241.099C308.125 241.143 311.984 236.42 311.808 231.844L311.801 231.837ZM285.874 258.093L285.091 258.21C285.091 260.062 285.076 261.907 285.12 263.76C285.12 263.913 285.545 264.053 285.779 264.192C285.933 263.906 286.196 263.628 286.233 263.328C286.372 262.142 286.511 260.955 286.489 259.769C286.475 259.206 286.094 258.649 285.874 258.093ZM285.223 252.953L286.079 252.762L285.691 249.87C285.274 250.031 284.483 250.258 284.498 250.332C284.674 251.218 284.966 252.082 285.223 252.945V252.953ZM284.622 238.361C284.988 237.409 285.347 236.933 285.237 236.655C285.025 236.142 284.534 235.739 284.154 235.293C283.912 235.637 283.422 236.032 283.48 236.311C283.597 236.852 284.022 237.336 284.622 238.361ZM281.752 217.787C282.426 218.856 282.88 219.58 283.334 220.305L283.912 219.939C283.846 218.965 284.388 217.633 281.745 217.779L281.752 217.787ZM284.483 244.884C284.835 244.804 285.186 244.716 285.538 244.635C285.376 243.881 285.237 243.127 284.996 242.395C284.974 242.336 284.271 242.497 283.883 242.556C284.081 243.332 284.278 244.108 284.476 244.884H284.483ZM282.301 208.034L283.165 207.375C282.755 206.797 282.345 206.218 281.943 205.633C281.672 205.874 281.123 206.262 281.166 206.335C281.481 206.936 281.913 207.47 282.309 208.027L282.301 208.034ZM283.949 213.76C283.436 213.115 283.055 212.639 282.675 212.164C282.448 212.464 281.979 212.852 282.045 213.042C282.243 213.606 282.66 214.096 282.997 214.616C283.261 214.382 283.517 214.148 283.949 213.76ZM283.985 225.262L284.82 224.647C284.329 224.054 283.839 223.461 283.341 222.868C283.129 223.029 282.916 223.197 282.711 223.358C283.136 223.995 283.561 224.625 283.985 225.262ZM284.183 231.713C284.476 231.566 284.769 231.412 285.062 231.266C284.886 230.68 284.71 230.102 284.542 229.516L283.304 230.19C283.597 230.695 283.89 231.207 284.183 231.713Z" fill="white"/>
<path d="M211.792 101.225C211.463 101.789 211.126 102.36 210.797 102.924C210.204 103.956 209.618 104.996 209.01 106.028C208.812 106.358 208.6 106.856 208.322 106.907C207.992 106.965 207.465 106.724 207.253 106.446C207.063 106.189 207.004 105.56 207.187 105.333C208.432 103.766 209.75 102.25 211.046 100.727L211.785 101.232L211.792 101.225Z" fill="black"/>
<path d="M232.705 80.3655C232.353 81.0757 232.17 81.3905 232.039 81.72C231.599 82.8622 231.197 84.0117 230.75 85.1466C230.603 85.5126 230.45 85.9593 230.15 86.1569C229.937 86.2961 229.33 86.2082 229.183 86.0032C228.978 85.7176 228.876 85.1832 228.993 84.8537C229.622 83.0965 230.494 81.4857 232.698 80.3582L232.705 80.3655Z" fill="black"/>
<path d="M202.744 113.818C203.132 111.087 203.556 110.604 204.911 111.124C205.255 111.256 205.68 111.629 205.724 111.937C205.76 112.215 205.387 112.676 205.072 112.845C204.413 113.211 203.681 113.438 202.736 113.811L202.744 113.818Z" fill="black"/>
<path d="M242.003 73.4027C241.571 74.3399 241.198 75.3136 240.671 76.1996C240.539 76.4265 239.873 76.5364 239.58 76.4119C239.367 76.324 239.155 75.6138 239.287 75.4235C239.895 74.5522 240.634 73.7614 241.322 72.9414L242.003 73.41V73.4027Z" fill="black"/>
<path d="M249.763 69.6905C249.368 69.1707 248.658 68.6069 248.753 68.2921C249.134 67.062 249.661 65.7954 251.308 65.6416C250.818 66.9302 250.356 68.1383 249.771 69.6905H249.763Z" fill="black"/>
<path d="M260.293 59.2423L259.751 61.9513L259.238 62.1124C258.953 61.6438 258.323 61.0508 258.44 60.7433C258.704 60.055 259.341 59.5059 259.831 58.9055L260.293 59.2423Z" fill="black"/>
<path d="M203.57 117.816C202.772 118.395 202.333 118.717 201.886 119.046C201.608 118.636 201.132 118.234 201.117 117.816C201.11 117.56 201.791 117.135 202.208 117.069C202.516 117.018 202.896 117.421 203.577 117.816H203.57Z" fill="black"/>
<path d="M136.108 58.8763C134.68 57.4486 133.237 56.0428 131.861 54.5712C131.7 54.3954 131.92 53.8536 131.963 53.4875C132.483 53.6413 133.237 53.634 133.479 53.9781C134.519 55.4571 135.405 57.0459 136.349 58.5981L136.1 58.8763H136.108Z" fill="black"/>
<path d="M175.858 114.001C175.192 113.05 174.438 112.149 173.918 111.124C173.743 110.78 174.175 110.136 174.336 109.623C174.731 109.843 175.346 109.974 175.485 110.304C175.954 111.417 176.247 112.596 176.605 113.752L175.858 114.009V114.001Z" fill="black"/>
<path d="M127.997 48.3257C126.526 47.3299 125.017 46.3708 123.604 45.3018C123.392 45.1407 123.582 44.4378 123.582 43.9839C123.956 44.0205 124.468 43.9107 124.688 44.1157C125.969 45.3018 127.177 46.5611 128.415 47.7912L127.997 48.3183V48.3257Z" fill="black"/>
<path d="M139.66 64.0526C141.703 63.6646 142.808 64.8287 144.053 68.5262C142.669 67.1131 141.286 65.7 139.66 64.0526Z" fill="black"/>
<path d="M162.613 92.5854C165.409 92.7978 164.729 95.9461 166.435 97.0737L165.937 97.4983C164.633 96.034 163.33 94.5623 162.02 93.098L162.613 92.5854Z" fill="black"/>
<path d="M168.047 99.8486C171.012 101.13 171.459 102.214 170.207 105.003C169.453 103.202 168.838 101.73 168.047 99.8486Z" fill="black"/>
<path d="M151.009 77.5319C150.065 77.5685 147.81 75.3061 148.051 74.4055C148.124 74.12 148.571 73.6587 148.681 73.7026C149.032 73.8344 149.406 74.1126 149.581 74.4421C150.109 75.4598 150.548 76.5215 151.009 77.5319Z" fill="black"/>
<path d="M129.535 325.965C129.828 324.281 130.098 321.733 130.757 319.287C131.087 318.065 132.061 316.988 132.837 315.905C135.97 311.534 140.305 309.681 145.613 309.03C150.123 308.473 154.172 309.886 158.258 310.955C161.501 311.812 164.591 313.701 166.378 316.886C167.022 318.028 167.417 319.346 167.747 320.627C169.328 326.785 169.138 332.642 165.638 338.331C161.963 344.306 156.347 345.448 150.123 345.602C144.844 345.726 140.173 343.801 135.678 341.253C132.295 339.334 130.486 336.406 129.967 332.664C129.703 330.746 129.703 328.784 129.527 325.965H129.535ZM148 310.589C147.795 313.203 146.265 312.149 145.064 311.98C143.951 311.819 142.728 311.321 141.725 311.6C137.75 312.72 135.019 315.466 133.283 319.112C131.365 323.131 131.336 327.429 131.709 331.808C132.105 336.508 135.29 338.88 138.863 340.967C141.564 342.549 144.595 343.164 147.678 343.53C152.752 344.13 157.548 343.295 161.648 340.162C164.986 337.606 166.648 333.902 167.161 329.801C167.776 324.932 167.015 320.21 163.625 316.476C159.539 311.966 153.887 311.16 148.007 310.597L148 310.589Z" fill="black"/>
<path d="M311.808 231.837C311.984 236.413 308.125 241.136 303.871 241.092C300.591 241.062 297.45 239.92 295.898 235.893C294.836 233.14 293.555 230.351 294.441 227.268C294.609 226.69 295.159 225.972 295.693 225.789C296.996 225.357 298.387 225.101 299.757 224.969C300.518 224.896 301.316 225.269 302.107 225.372C303 225.489 303.93 225.694 304.801 225.562C308.733 224.976 311.574 227.261 311.772 231.28C311.779 231.464 311.794 231.647 311.801 231.83L311.808 231.837ZM309.846 234.29C311.537 232.943 310.959 228.945 308.418 227.276C305.665 225.46 300.042 225.965 297.575 228.213C297.34 228.432 296.938 228.608 296.63 228.586C295.415 228.498 295.276 229.274 295.444 230.116C296.023 232.943 296.542 235.761 298.783 237.936C302.143 241.201 306.5 240.396 309.011 235.879C307.034 235.879 305.16 236.025 303.322 235.813C302.51 235.717 301.785 234.905 301.023 234.414C301.719 233.997 302.451 233.623 303.11 233.155C303.725 232.708 304.267 232.152 304.838 231.647C304.281 231.032 303.82 230.233 303.132 229.867C302.554 229.553 301.69 229.823 300.987 229.677C300.643 229.604 300.298 229.223 300.123 228.886C300.057 228.762 300.416 228.249 300.672 228.147C302.136 227.554 305.292 228.564 305.768 230.021C306.134 231.141 305.841 232.481 305.841 233.601C306.998 233.806 308.272 234.026 309.846 234.297V234.29Z" fill="black"/>
<path d="M252.363 227.364C252.956 226.902 253.608 226.514 254.12 225.98C255.863 224.157 258.067 224.303 260.212 224.655C261.808 224.918 263.023 225.848 263.697 227.517C264.986 230.695 264.934 233.799 263.463 236.853C262.372 239.108 259.802 240.038 257.254 239.313C253.827 238.339 251.829 235.967 250.825 232.694C250.437 231.427 250.269 230.073 250.189 228.74C250.152 228.147 250.459 227.415 250.862 226.983C251.023 226.807 251.858 227.247 252.392 227.415C250.76 231.815 252.978 236.757 257.122 237.438C257.122 236.465 257.137 235.52 257.122 234.583C257.078 232.701 256.939 230.819 257.02 228.945C257.042 228.418 257.715 227.913 258.089 227.4C258.206 227.964 258.381 228.528 258.433 229.099C258.623 231.061 258.813 233.023 258.909 234.993C258.953 235.901 258.755 236.823 258.638 238.017C259.421 238.412 260.402 237.936 261.244 237.036C262.862 235.315 263.514 233.133 263.712 230.885C263.887 228.887 261.215 225.694 258.894 225.826C256.236 225.973 254.362 227.115 253.139 230.197C252.788 228.916 252.583 228.147 252.37 227.386L252.363 227.364Z" fill="black"/>
<path d="M285.881 258.093C286.094 258.649 286.482 259.206 286.497 259.769C286.518 260.956 286.379 262.149 286.24 263.328C286.204 263.628 285.947 263.906 285.786 264.192C285.559 264.045 285.135 263.906 285.127 263.76C285.083 261.915 285.098 260.062 285.098 258.21L285.881 258.093Z" fill="black"/>
<path d="M285.231 252.953C284.967 252.082 284.674 251.225 284.506 250.339C284.491 250.266 285.282 250.031 285.699 249.878L286.088 252.77L285.231 252.96V252.953Z" fill="black"/>
<path d="M284.629 238.353C284.029 237.328 283.604 236.845 283.487 236.303C283.429 236.025 283.919 235.63 284.161 235.286C284.534 235.732 285.025 236.135 285.244 236.647C285.362 236.926 284.996 237.394 284.629 238.353Z" fill="black"/>
<path d="M281.76 217.779C284.403 217.633 283.861 218.966 283.927 219.939L283.349 220.305C282.895 219.581 282.433 218.848 281.767 217.787L281.76 217.779Z" fill="black"/>
<path d="M284.497 244.877C284.3 244.101 284.102 243.325 283.904 242.549C284.292 242.49 284.995 242.329 285.017 242.388C285.259 243.112 285.391 243.874 285.559 244.628C285.208 244.709 284.856 244.796 284.505 244.877H284.497Z" fill="black"/>
<path d="M282.316 208.027C281.92 207.471 281.488 206.929 281.174 206.336C281.137 206.262 281.679 205.874 281.95 205.633C282.36 206.211 282.77 206.79 283.172 207.375L282.309 208.034L282.316 208.027Z" fill="black"/>
<path d="M283.963 213.752C283.531 214.14 283.267 214.375 283.011 214.609C282.681 214.089 282.264 213.599 282.059 213.035C281.993 212.837 282.462 212.456 282.689 212.156C283.069 212.632 283.45 213.108 283.963 213.752Z" fill="black"/>
<path d="M284.001 225.255C283.576 224.618 283.151 223.988 282.727 223.351C282.939 223.19 283.151 223.022 283.356 222.861C283.847 223.454 284.337 224.047 284.835 224.64L284.001 225.255Z" fill="black"/>
<path d="M284.197 231.705C283.904 231.2 283.611 230.688 283.318 230.182L284.556 229.509C284.731 230.095 284.907 230.673 285.076 231.259C284.783 231.405 284.49 231.559 284.197 231.705Z" fill="black"/>
<path d="M266.186 142.768C264.59 144.372 262.613 143.662 260.834 143.449C259.509 143.288 259.282 141.677 260.307 140.828C261.178 140.103 262.049 139.386 262.862 138.712C261.566 136.098 259.37 137.797 257.715 136.757C257.847 136.355 258.081 135.395 258.169 135.41C260.16 135.703 262.174 135.996 264.07 136.618C264.297 136.691 263.975 138.741 263.719 139.825C263.601 140.323 263.016 140.718 262.628 141.172C263.719 142.19 265.952 140.301 266.149 142.827L266.193 142.768H266.186Z" fill="black"/>
<path d="M148.001 310.597C153.888 311.16 159.54 311.966 163.618 316.476C167.008 320.21 167.762 324.933 167.155 329.802C166.642 333.894 164.98 337.599 161.641 340.162C157.541 343.303 152.745 344.137 147.671 343.53C144.596 343.164 141.565 342.549 138.856 340.967C135.283 338.873 132.106 336.508 131.703 331.808C131.329 327.429 131.359 323.139 133.277 319.112C135.02 315.473 137.743 312.72 141.719 311.6C142.715 311.322 143.937 311.819 145.058 311.98C146.258 312.156 147.789 313.211 147.994 310.589L148.001 310.597ZM149.626 326.082C148.155 324.222 146.925 322.678 145.709 321.125C145.226 320.503 144.809 319.822 144.267 319.258C142.722 317.64 141.338 318.804 139.889 319.536C137.546 320.715 136.301 322.392 136.447 325.167C136.638 328.784 138.593 331.237 141.243 333.345C142.81 334.59 144.692 335.578 145.87 337.116C147.005 338.602 148.082 338.741 149.421 338.038C153.199 336.069 156.911 333.96 159.752 330.68C160.441 329.889 161.158 328.901 161.319 327.913C161.839 324.713 160.118 322.326 157.973 320.232C157.629 319.895 156.846 319.844 156.289 319.91C152.885 320.313 151.076 322.604 149.626 326.082Z" fill="white"/>
<path d="M309.846 234.283C308.264 234.004 306.998 233.785 305.841 233.587C305.841 232.467 306.134 231.134 305.768 230.007C305.292 228.55 302.136 227.539 300.672 228.132C300.415 228.235 300.057 228.755 300.123 228.872C300.298 229.201 300.65 229.589 300.987 229.663C301.689 229.809 302.553 229.545 303.132 229.853C303.82 230.226 304.281 231.024 304.838 231.632C304.267 232.137 303.725 232.694 303.11 233.14C302.451 233.616 301.726 233.99 301.023 234.4C301.785 234.89 302.517 235.703 303.322 235.798C305.16 236.01 307.042 235.864 309.011 235.864C306.5 240.382 302.143 241.187 298.783 237.921C296.542 235.747 296.022 232.928 295.444 230.102C295.268 229.26 295.415 228.484 296.63 228.572C296.938 228.594 297.333 228.411 297.575 228.198C300.042 225.943 305.665 225.445 308.418 227.261C310.959 228.938 311.537 232.928 309.846 234.275V234.283Z" fill="white"/>
<path d="M252.362 227.364C252.567 228.132 252.779 228.894 253.131 230.175C254.353 227.093 256.228 225.951 258.886 225.804C261.207 225.68 263.879 228.872 263.703 230.863C263.506 233.111 262.854 235.293 261.236 237.014C260.394 237.914 259.413 238.39 258.629 237.995C258.746 236.809 258.944 235.886 258.9 234.971C258.812 233.001 258.615 231.039 258.424 229.077C258.373 228.506 258.197 227.942 258.08 227.378C257.707 227.891 257.04 228.396 257.011 228.923C256.931 230.797 257.07 232.679 257.114 234.561C257.136 235.498 257.114 236.443 257.114 237.416C252.97 236.735 250.744 231.793 252.384 227.393L252.362 227.349V227.364Z" fill="white"/>
<path d="M149.624 326.082C151.074 322.604 152.882 320.313 156.287 319.91C156.836 319.844 157.627 319.895 157.971 320.232C160.116 322.319 161.837 324.713 161.317 327.913C161.156 328.901 160.438 329.889 159.75 330.68C156.909 333.953 153.197 336.062 149.419 338.039C148.079 338.734 147.003 338.595 145.868 337.116C144.689 335.578 142.808 334.59 141.241 333.345C138.59 331.244 136.636 328.791 136.445 325.167C136.299 322.392 137.543 320.708 139.886 319.537C141.336 318.804 142.72 317.64 144.265 319.258C144.807 319.822 145.224 320.51 145.707 321.125C146.93 322.678 148.153 324.222 149.624 326.082ZM142.735 321.367L142.149 320.584C141.124 321.352 139.923 321.975 139.14 322.941C138.59 323.615 138.62 324.757 138.393 325.687L139.044 325.899C140.274 324.391 141.504 322.875 142.735 321.367ZM146.242 332.877L146.93 333.448C147.948 332.474 149.009 331.537 149.946 330.49C150.129 330.285 149.946 329.567 149.712 329.245C149.595 329.091 148.775 329.172 148.607 329.399C147.757 330.512 147.025 331.705 146.249 332.869L146.242 332.877ZM144.492 328.337L143.928 327.847C143.035 328.169 142.127 328.469 141.241 328.821C140.889 328.96 140.582 329.231 140.252 329.436C140.436 329.714 140.567 330.124 140.824 330.241C141.146 330.387 141.68 330.453 141.944 330.285C142.837 329.699 143.642 328.996 144.484 328.337H144.492Z" fill="#EA4C76"/>
<path d="M142.734 321.367C141.504 322.875 140.274 324.391 139.044 325.899L138.393 325.687C138.62 324.757 138.59 323.615 139.139 322.941C139.923 321.975 141.124 321.352 142.149 320.583L142.734 321.367Z" fill="white"/>
<path d="M146.242 332.877C147.018 331.713 147.757 330.512 148.599 329.406C148.775 329.179 149.588 329.099 149.705 329.252C149.939 329.567 150.122 330.285 149.939 330.497C149.002 331.544 147.94 332.481 146.923 333.455L146.234 332.884L146.242 332.877Z" fill="white"/>
<path d="M144.5 328.345C143.658 329.004 142.845 329.706 141.959 330.292C141.695 330.468 141.161 330.402 140.839 330.248C140.582 330.131 140.451 329.721 140.268 329.443C140.597 329.23 140.897 328.967 141.256 328.828C142.142 328.476 143.043 328.176 143.943 327.854L144.507 328.345H144.5Z" fill="white"/>
<path d="M137.165 145.397C137.82 145.397 138.351 144.866 138.351 144.211C138.351 143.556 137.82 143.025 137.165 143.025C136.51 143.025 135.979 143.556 135.979 144.211C135.979 144.866 136.51 145.397 137.165 145.397Z" fill="#EFEEEE"/>
</svg>
