<svg width="794" height="121" viewBox="0 0 794 121" fill="none" xmlns="http://www.w3.org/2000/svg">
<g clip-path="url(#clip0_274_6332)">
<rect width="794" height="121" fill="white"/>
<rect width="794" height="121" fill="#F6F6F6"/>
<g filter="url(#filter0_d_274_6332)">
<path d="M188.73 29H151.27C143.941 29 138 34.941 138 42.2696V79.7304C138 87.059 143.941 93 151.27 93H188.73C196.059 93 202 87.059 202 79.7304V42.2696C202 34.941 196.059 29 188.73 29Z" fill="white"/>
</g>
<mask id="mask0_274_6332" style="mask-type:luminance" maskUnits="userSpaceOnUse" x="138" y="29" width="64" height="64">
<path d="M188.73 29H151.27C143.941 29 138 34.941 138 42.2696V79.7304C138 87.059 143.941 93 151.27 93H188.73C196.059 93 202 87.059 202 79.7304V42.2696C202 34.941 196.059 29 188.73 29Z" fill="white"/>
</mask>
<g mask="url(#mask0_274_6332)">
<path d="M200.583 96.6824C200.597 88.8456 199.36 81.0506 199.29 73.2277C199.179 72.6025 199.124 71.9633 199.068 71.3241C198.985 70.4071 198.54 65.655 198.373 65.1409C198.262 64.8213 198.193 64.5017 198.151 64.1682C198.095 63.6958 198.04 63.2373 197.957 62.7649C197.693 61.1392 197.345 59.5273 196.984 57.9294C196.873 57.4431 196.789 56.9568 196.65 56.4844C196.498 55.998 196.331 55.5256 196.178 55.0393C195.928 54.2056 195.511 53.4553 194.872 52.8439C194.622 52.6077 194.386 52.3576 194.149 52.1075C193.621 51.5517 193.121 50.9959 192.537 50.4956C191.968 49.9954 191.398 49.523 190.703 49.2312C190.273 49.0506 189.828 48.9116 189.383 48.8005C189.022 48.7032 188.661 48.6754 188.286 48.592C187.716 48.467 187.16 48.3558 186.577 48.3141C186.577 48.3141 186.577 48.2864 186.577 48.2725H185.785C185.785 48.2725 185.785 48.3003 185.785 48.3141C185.576 48.3419 185.368 48.3558 185.145 48.3975C184.159 48.5643 183.242 48.9116 182.408 49.4535C181.783 49.8565 181.241 50.3706 180.768 50.9403C180.393 51.3849 180.074 51.8851 179.851 52.427C179.768 52.6355 179.657 52.83 179.546 53.0245C179.282 53.4553 179.073 53.8999 178.893 54.3584C178.782 54.6502 178.67 54.942 178.518 55.2199C178.212 55.7479 178.003 56.3037 177.837 56.8873C177.795 57.0541 177.753 57.2347 177.684 57.3875C177.559 57.6654 177.475 57.9572 177.392 58.249C177.267 58.6242 177.17 59.0271 177.003 59.3884C176.141 61.1808 174.724 62.1674 172.751 62.3619C172.265 62.4175 171.778 62.3619 171.306 62.3063C170.931 62.2508 170.542 62.2091 170.181 62.1118C168.916 61.7922 167.846 61.0975 166.86 60.2777C166.248 59.7775 165.72 59.18 165.164 58.6242C165.095 58.5547 165.039 58.4852 164.984 58.4158C164.762 58.1379 164.511 57.8739 164.261 57.6237C163.594 56.9846 162.927 56.3593 162.26 55.734C161.538 55.0671 160.788 54.4279 159.982 53.8721C159.801 53.7471 159.62 53.622 159.454 53.4692C159.106 53.1496 158.717 52.8578 158.342 52.5521C157.717 52.0658 157.008 51.6906 156.272 51.4127C155.66 51.1765 155.035 51.107 154.382 51.1348C153.465 51.1904 152.631 51.4822 151.853 51.9407C150.867 52.5243 150.061 53.3163 149.422 54.2612C149.13 54.6919 148.852 55.1366 148.546 55.5673C148.268 55.9702 148.018 56.4149 147.796 56.8595C147.24 57.9711 146.698 59.0827 146.184 60.2082C146.101 60.3194 146.045 60.4444 146.003 60.5695C145.781 61.0836 145.545 61.5977 145.295 62.1118C145.211 62.2924 145.086 62.4592 145.045 62.6537C145.017 62.6954 144.989 62.7371 144.975 62.7788C144.781 63.2095 144.572 63.6402 144.392 64.071C144.141 64.6407 143.891 65.1965 143.669 65.7662C143.502 66.1552 143.349 66.5582 143.211 66.9611C143.03 67.4752 142.863 67.9894 142.669 68.5035C142.474 69.0037 142.293 69.5178 142.141 70.0319C142.099 70.1709 142.057 70.3098 142.016 70.4488C141.932 70.7961 141.849 71.1296 141.779 71.477C141.696 71.8105 141.613 72.1439 141.529 72.4774C141.404 72.9915 141.293 73.5195 141.168 74.0336C141.071 74.4088 141.001 74.784 140.932 75.1591C140.848 75.6455 140.765 76.1318 140.682 76.632C140.598 77.0905 140.501 77.563 140.432 78.0215C140.404 78.216 140.362 78.4105 140.32 78.619C140.237 79.1053 140.168 79.6055 140.07 80.0918C140.015 80.3697 139.973 80.6615 139.945 80.9533C139.89 81.4257 139.848 81.9121 139.806 82.3845C139.751 82.8986 139.695 83.4127 139.64 83.9268C139.584 84.427 139.542 84.9273 139.501 85.4275C139.445 85.9972 139.362 86.5808 139.348 87.1504C139.32 87.8452 139.292 88.5399 139.278 89.2208C139.25 89.9294 139.237 90.6242 139.278 91.3328C139.334 92.4305 139.445 93.5282 139.556 94.6259C139.667 95.668 139.806 96.6963 140.001 97.7245C140.084 98.1552 140.223 98.5582 140.376 98.9611C140.432 99.0862 140.487 99.1973 140.557 99.3085C140.862 99.8087 141.251 100.239 141.696 100.629C141.974 100.879 142.238 101.143 142.557 101.323C142.891 101.504 143.211 101.698 143.544 101.879C143.794 102.032 144.072 102.129 144.336 102.213C144.544 102.282 144.781 102.324 144.975 102.421C145.156 102.518 145.35 102.588 145.559 102.643C145.892 102.741 146.24 102.838 146.573 102.935C148.324 103.477 150.116 103.838 151.923 104.13C152.909 104.297 153.91 104.45 154.91 104.589C155.841 104.714 156.772 104.839 157.717 104.908C158.564 104.978 159.426 105.061 160.273 105.117C160.815 105.158 161.371 105.172 161.913 105.214C162.108 105.214 162.316 105.242 162.511 105.256C163.219 105.325 163.928 105.394 164.636 105.436C165.081 105.464 165.512 105.492 165.957 105.52V105.561H169.236V105.52C170.32 105.478 171.417 105.45 172.487 105.367C173.112 105.325 173.738 105.283 174.363 105.242C175.252 105.172 176.141 105.103 177.031 105.033C177.656 104.978 178.267 104.922 178.893 104.866C179.754 104.783 180.616 104.672 181.477 104.589C182.339 104.505 183.2 104.366 184.048 104.213C185.02 104.033 185.993 103.81 186.952 103.574C187.813 103.366 188.661 103.157 189.495 102.893C191.301 102.338 193.038 101.615 194.816 100.976C195.358 100.781 195.886 100.545 196.456 100.406C196.887 100.295 197.29 100.101 197.679 99.8921C198.234 99.5864 198.735 99.1973 199.249 98.8222C199.791 98.4331 200.235 97.9468 200.61 97.4049V96.724L200.583 96.6824Z" fill="#B84655"/>
<path d="M161.385 77.6322C161.149 77.7711 160.663 78.0351 160.454 78.2158C159.871 78.7021 159.495 79.3135 159.329 80.0638C159.148 80.8836 159.148 81.7034 159.44 82.5093C159.759 83.4125 160.385 84.0377 161.163 84.538C161.482 84.7464 161.844 84.9131 162.219 85.0382C162.288 85.066 162.344 85.0938 162.413 85.1076C162.747 85.2466 163.094 85.3439 163.455 85.3439C163.983 85.3439 164.498 85.3717 165.012 85.2605C165.776 85.0799 166.415 84.6908 166.874 84.0516C166.929 84.1072 166.901 84.1767 166.874 84.2323C166.846 84.3712 166.818 84.4963 166.762 84.6352C166.429 85.5106 166.026 86.3443 165.387 87.039C165.026 87.442 164.595 87.7616 164.122 88.0395C163.845 88.2062 163.553 88.373 163.261 88.5119C162.983 88.6509 162.705 88.7481 162.399 88.7898C162.205 88.8176 162.024 88.8732 161.83 88.901C161.316 88.9704 160.815 88.901 160.315 88.8037C160.26 88.8037 160.218 88.7898 160.162 88.7759C159.857 88.7064 159.551 88.6092 159.287 88.4285C158.884 88.1923 158.509 87.9144 158.161 87.5809C157.661 87.0807 157.314 86.4832 157.05 85.8441C156.73 85.1215 156.55 84.3712 156.536 83.5792C156.536 83.3847 156.494 83.1763 156.48 82.9817C156.452 82.2592 156.564 81.5505 156.855 80.8836C156.953 80.6752 157.092 80.4806 157.217 80.2861C157.745 79.5219 158.398 78.8827 159.19 78.3964C159.384 78.2852 159.579 78.188 159.787 78.1185C160.093 78.0212 160.412 77.9101 160.704 77.785C160.802 77.7433 161.343 77.5488 161.343 77.6044L161.385 77.6322Z" fill="#EBEBEB"/>
<path d="M162.136 77.3822C162.456 77.3266 162.775 77.3127 163.095 77.2988C163.512 77.2988 163.914 77.3683 164.317 77.4378C164.679 77.5072 165.026 77.6184 165.346 77.799C166.304 78.3132 166.902 79.1052 167.208 80.1334C167.347 80.6058 167.416 81.0782 167.444 81.5785C167.472 81.898 167.499 82.2176 167.485 82.5372C167.472 83.1486 167.333 83.6766 166.971 84.1629C166.971 84.1768 166.791 84.413 166.721 84.4964C166.04 85.2189 165.193 85.5941 164.192 85.5941C163.748 85.5941 163.317 85.6636 162.886 85.5385C161.955 85.2884 161.094 84.9271 160.357 84.2741C159.621 83.6349 159.162 82.8429 159.037 81.8842C158.912 80.8142 159.01 79.7582 159.69 78.8412C160.024 78.3826 160.441 77.9936 160.969 77.7435C161.01 77.7296 161.761 77.4517 162.122 77.3961L162.136 77.3822Z" fill="#40484A"/>
<path d="M177.364 77.6322C177.128 77.7711 176.642 78.0351 176.433 78.2158C175.85 78.7021 175.474 79.3135 175.308 80.0638C175.127 80.8836 175.127 81.7034 175.419 82.5093C175.738 83.4125 176.364 84.0377 177.142 84.538C177.461 84.7464 177.823 84.9131 178.198 85.0382C178.267 85.066 178.323 85.0938 178.392 85.1076C178.726 85.2466 179.073 85.3439 179.434 85.3439C179.962 85.3439 180.477 85.3717 180.991 85.2605C181.755 85.0799 182.394 84.6908 182.853 84.0516C182.908 84.1072 182.88 84.1767 182.853 84.2323C182.825 84.3712 182.797 84.4963 182.741 84.6352C182.408 85.5106 182.005 86.3443 181.366 87.039C181.005 87.442 180.574 87.7616 180.101 88.0395C179.824 88.2062 179.532 88.373 179.24 88.5119C178.962 88.6509 178.684 88.7481 178.378 88.7898C178.184 88.8176 178.003 88.8732 177.809 88.901C177.295 88.9704 176.794 88.901 176.294 88.8037C176.239 88.8037 176.197 88.7898 176.141 88.7759C175.836 88.7064 175.53 88.6092 175.266 88.4285C174.863 88.1923 174.488 87.9144 174.14 87.5809C173.64 87.0807 173.307 86.4832 173.029 85.8441C172.709 85.1215 172.529 84.3712 172.515 83.5792C172.515 83.3847 172.473 83.1763 172.459 82.9817C172.431 82.2592 172.543 81.5505 172.834 80.8836C172.932 80.6752 173.071 80.4806 173.196 80.2861C173.724 79.5219 174.377 78.8827 175.169 78.3964C175.363 78.2852 175.558 78.188 175.766 78.1185C176.072 78.0212 176.391 77.9101 176.683 77.785C176.781 77.7433 177.322 77.5488 177.322 77.6044L177.364 77.6322Z" fill="#EBEBEB"/>
<path d="M178.114 77.3822C178.434 77.3266 178.754 77.3127 179.073 77.2988C179.49 77.2988 179.893 77.3683 180.296 77.4378C180.657 77.5072 181.005 77.6184 181.324 77.799C182.283 78.3132 182.88 79.1052 183.186 80.1334C183.325 80.6058 183.395 81.0782 183.422 81.5785C183.45 81.898 183.478 82.2176 183.464 82.5372C183.45 83.1486 183.311 83.6766 182.95 84.1629C182.95 84.1768 182.769 84.413 182.7 84.4964C182.019 85.2189 181.171 85.5941 180.171 85.5941C179.726 85.5941 179.296 85.6636 178.865 85.5385C177.934 85.2884 177.072 84.9271 176.336 84.2741C175.599 83.6349 175.141 82.8429 175.016 81.8842C174.891 80.8142 174.988 79.7582 175.669 78.8412C176.002 78.3826 176.419 77.9936 176.947 77.7435C176.989 77.7296 177.739 77.4517 178.101 77.3961L178.114 77.3822Z" fill="#40484A"/>
<path d="M183.936 37.1982C183.936 29.4587 177.656 23.1782 169.916 23.1782C162.177 23.1782 155.91 29.4587 155.91 37.1982C155.91 44.229 161.093 50.051 167.832 51.0653L169.861 54.5807L171.875 51.0792C178.684 50.1205 183.936 44.2707 183.936 37.1982Z" fill="#5682B9"/>
</g>
<path d="M167.805 39.2127H164.428V41.2275H168.388V42.478H162.664V34.9331H168.374V36.1975H164.428V37.99H167.805V39.2127Z" fill="white"/>
<path d="M176.837 42.478H175.072L171.654 37.5176V42.478H169.889V34.9331H171.654L175.086 39.9075V34.9331H176.837V42.478Z" fill="white"/>
<g filter="url(#filter1_d_274_6332)">
<path d="M370.672 29H333.155C325.842 29 319.914 34.9286 319.914 42.2419V79.7581C319.914 87.0714 325.842 93 333.155 93H370.672C377.985 93 383.914 87.0714 383.914 79.7581V42.2419C383.914 34.9286 377.985 29 370.672 29Z" fill="white"/>
</g>
<mask id="mask1_274_6332" style="mask-type:luminance" maskUnits="userSpaceOnUse" x="319" y="29" width="65" height="64">
<path d="M370.672 29H333.155C325.842 29 319.914 34.9286 319.914 42.2419V79.7581C319.914 87.0714 325.842 93 333.155 93H370.672C377.985 93 383.914 87.0714 383.914 79.7581V42.2419C383.914 34.9286 377.985 29 370.672 29Z" fill="white"/>
</mask>
<g mask="url(#mask1_274_6332)">
<path d="M382.496 96.6824C382.51 88.8456 381.273 81.0506 381.204 73.2277C381.093 72.6025 381.037 71.9633 380.982 71.3241C380.898 70.4071 380.454 65.655 380.287 65.1409C380.176 64.8213 380.106 64.5017 380.065 64.1682C380.009 63.6958 379.953 63.2373 379.87 62.7649C379.606 61.1392 379.259 59.5273 378.897 57.9294C378.786 57.4431 378.703 56.9568 378.564 56.4844C378.411 55.998 378.244 55.5256 378.092 55.0393C377.841 54.2056 377.425 53.4553 376.785 52.8439C376.535 52.6077 376.299 52.3576 376.063 52.1075C375.535 51.5517 375.035 50.9959 374.451 50.4956C373.881 49.9954 373.312 49.523 372.617 49.2312C372.186 49.0506 371.742 48.9116 371.297 48.8005C370.936 48.7032 370.574 48.6754 370.199 48.592C369.63 48.467 369.074 48.3558 368.49 48.3141C368.49 48.3141 368.49 48.2864 368.49 48.2725H367.698C367.698 48.2725 367.698 48.3003 367.698 48.3141C367.49 48.3419 367.281 48.3558 367.059 48.3975C366.072 48.5643 365.155 48.9116 364.322 49.4535C363.696 49.8565 363.154 50.3706 362.682 50.9403C362.307 51.3849 361.987 51.8851 361.765 52.427C361.682 52.6355 361.57 52.83 361.459 53.0245C361.195 53.4553 360.987 53.8999 360.806 54.3584C360.695 54.6502 360.584 54.942 360.431 55.2199C360.125 55.7479 359.917 56.3037 359.75 56.8873C359.709 57.0541 359.667 57.2347 359.597 57.3875C359.472 57.6654 359.389 57.9572 359.306 58.249C359.181 58.6242 359.083 59.0271 358.917 59.3884C358.055 61.1808 356.638 62.1674 354.665 62.3619C354.178 62.4175 353.692 62.3619 353.22 62.3063C352.844 62.2508 352.455 62.2091 352.094 62.1118C350.83 61.7922 349.76 61.0975 348.773 60.2777C348.162 59.7775 347.634 59.18 347.078 58.6242C347.009 58.5547 346.953 58.4852 346.897 58.4158C346.675 58.1379 346.425 57.8739 346.175 57.6237C345.508 56.9846 344.841 56.3593 344.174 55.734C343.451 55.0671 342.701 54.4279 341.895 53.8721C341.715 53.7471 341.534 53.622 341.367 53.4692C341.02 53.1496 340.631 52.8578 340.256 52.5521C339.63 52.0658 338.922 51.6906 338.185 51.4127C337.574 51.1765 336.949 51.107 336.296 51.1348C335.379 51.1904 334.545 51.4822 333.767 51.9407C332.78 52.5243 331.974 53.3163 331.335 54.2612C331.043 54.6919 330.765 55.1366 330.46 55.5673C330.182 55.9702 329.932 56.4149 329.709 56.8595C329.154 57.9711 328.612 59.0827 328.098 60.2082C328.014 60.3194 327.959 60.4444 327.917 60.5695C327.695 61.0836 327.458 61.5977 327.208 62.1118C327.125 62.2924 327 62.4592 326.958 62.6537C326.93 62.6954 326.903 62.7371 326.889 62.7788C326.694 63.2095 326.486 63.6402 326.305 64.071C326.055 64.6407 325.805 65.1965 325.583 65.7662C325.416 66.1552 325.263 66.5582 325.124 66.9611C324.943 67.4752 324.777 67.9894 324.582 68.5035C324.388 69.0037 324.207 69.5178 324.054 70.0319C324.013 70.1709 323.971 70.3098 323.929 70.4488C323.846 70.7961 323.762 71.1296 323.693 71.477C323.61 71.8105 323.526 72.1439 323.443 72.4774C323.318 72.9915 323.207 73.5195 323.082 74.0336C322.984 74.4088 322.915 74.784 322.845 75.1591C322.762 75.6455 322.679 76.1318 322.595 76.632C322.512 77.0905 322.415 77.563 322.345 78.0215C322.317 78.216 322.276 78.4105 322.234 78.619C322.151 79.1053 322.081 79.6055 321.984 80.0918C321.928 80.3697 321.887 80.6615 321.859 80.9533C321.803 81.4257 321.762 81.9121 321.72 82.3845C321.664 82.8986 321.609 83.4127 321.553 83.9268C321.498 84.427 321.456 84.9273 321.414 85.4275C321.359 85.9972 321.275 86.5808 321.261 87.1504C321.234 87.8452 321.206 88.5399 321.192 89.2208C321.164 89.9294 321.15 90.6242 321.192 91.3328C321.247 92.4305 321.359 93.5282 321.47 94.6259C321.581 95.668 321.72 96.6963 321.914 97.7245C321.998 98.1552 322.137 98.5582 322.29 98.9611C322.345 99.0862 322.401 99.1973 322.47 99.3085C322.776 99.8087 323.165 100.239 323.61 100.629C323.887 100.879 324.151 101.143 324.471 101.323C324.805 101.504 325.124 101.698 325.458 101.879C325.708 102.032 325.986 102.129 326.25 102.213C326.458 102.282 326.694 102.324 326.889 102.421C327.069 102.518 327.264 102.588 327.472 102.643C327.806 102.741 328.153 102.838 328.487 102.935C330.237 103.477 332.03 103.838 333.836 104.13C334.823 104.297 335.823 104.45 336.824 104.589C337.755 104.714 338.686 104.839 339.63 104.908C340.478 104.978 341.339 105.061 342.187 105.117C342.729 105.158 343.285 105.172 343.827 105.214C344.021 105.214 344.23 105.242 344.424 105.256C345.133 105.325 345.841 105.394 346.55 105.436C346.995 105.464 347.425 105.492 347.87 105.52V105.561H351.149V105.52C352.233 105.478 353.331 105.45 354.401 105.367C355.026 105.325 355.651 105.283 356.277 105.242C357.166 105.172 358.055 105.103 358.944 105.033C359.57 104.978 360.181 104.922 360.806 104.866C361.668 104.783 362.529 104.672 363.391 104.589C364.252 104.505 365.114 104.366 365.961 104.213C366.934 104.033 367.907 103.81 368.865 103.574C369.727 103.366 370.574 103.157 371.408 102.893C373.214 102.338 374.951 101.615 376.73 100.976C377.272 100.781 377.8 100.545 378.369 100.406C378.8 100.295 379.203 100.101 379.592 99.8921C380.148 99.5864 380.648 99.1973 381.162 98.8222C381.704 98.4331 382.149 97.9468 382.524 97.4049V96.724L382.496 96.6824Z" fill="#B84655"/>
<path d="M343.312 77.6322C343.076 77.7711 342.59 78.0351 342.381 78.2158C341.798 78.7021 341.423 79.3135 341.256 80.0638C341.075 80.8836 341.075 81.7034 341.367 82.5093C341.687 83.4125 342.312 84.0377 343.09 84.538C343.41 84.7464 343.771 84.9131 344.146 85.0382C344.216 85.066 344.271 85.0938 344.341 85.1076C344.674 85.2466 345.021 85.3439 345.383 85.3439C345.911 85.3439 346.425 85.3717 346.939 85.2605C347.703 85.0799 348.342 84.6908 348.801 84.0516C348.856 84.1072 348.829 84.1767 348.801 84.2323C348.773 84.3712 348.745 84.4963 348.69 84.6352C348.356 85.5106 347.953 86.3443 347.314 87.039C346.953 87.442 346.522 87.7616 346.05 88.0395C345.772 88.2062 345.48 88.373 345.188 88.5119C344.91 88.6509 344.632 88.7481 344.327 88.7898C344.132 88.8176 343.952 88.8732 343.757 88.901C343.243 88.9704 342.743 88.901 342.242 88.8037C342.187 88.8037 342.145 88.7898 342.09 88.7759C341.784 88.7064 341.478 88.6092 341.214 88.4285C340.811 88.1923 340.436 87.9144 340.089 87.5809C339.589 87.0807 339.241 86.4832 338.977 85.8441C338.658 85.1215 338.477 84.3712 338.463 83.5792C338.463 83.3847 338.421 83.1763 338.407 82.9817C338.38 82.2592 338.491 81.5505 338.783 80.8836C338.88 80.6752 339.019 80.4806 339.144 80.2861C339.672 79.5219 340.325 78.8827 341.117 78.3964C341.311 78.2852 341.506 78.188 341.714 78.1185C342.02 78.0212 342.34 77.9101 342.631 77.785C342.729 77.7433 343.271 77.5488 343.271 77.6044L343.312 77.6322Z" fill="#EBEBEB"/>
<path d="M344.05 77.3822C344.369 77.3266 344.689 77.3127 345.008 77.2988C345.425 77.2988 345.828 77.3683 346.231 77.4378C346.592 77.5072 346.94 77.6184 347.259 77.799C348.218 78.3132 348.815 79.1052 349.121 80.1334C349.26 80.6058 349.33 81.0782 349.357 81.5785C349.385 81.898 349.413 82.2176 349.399 82.5372C349.385 83.1486 349.246 83.6766 348.885 84.1629C348.885 84.1768 348.704 84.413 348.635 84.4964C347.954 85.2189 347.106 85.5941 346.106 85.5941C345.661 85.5941 345.231 85.6636 344.8 85.5385C343.869 85.2884 343.007 84.9271 342.271 84.2741C341.535 83.6349 341.076 82.8429 340.951 81.8842C340.826 80.8142 340.923 79.7582 341.604 78.8412C341.937 78.3826 342.354 77.9936 342.882 77.7435C342.924 77.7296 343.674 77.4517 344.036 77.3961L344.05 77.3822Z" fill="#40484A"/>
<path d="M359.278 77.6322C359.042 77.7711 358.556 78.0351 358.347 78.2158C357.764 78.7021 357.388 79.3135 357.222 80.0638C357.041 80.8836 357.041 81.7034 357.333 82.5093C357.652 83.4125 358.278 84.0377 359.056 84.538C359.375 84.7464 359.737 84.9131 360.112 85.0382C360.181 85.066 360.237 85.0938 360.306 85.1076C360.64 85.2466 360.987 85.3439 361.349 85.3439C361.877 85.3439 362.391 85.3717 362.905 85.2605C363.669 85.0799 364.308 84.6908 364.767 84.0516C364.822 84.1072 364.794 84.1767 364.767 84.2323C364.739 84.3712 364.711 84.4963 364.656 84.6352C364.322 85.5106 363.919 86.3443 363.28 87.039C362.919 87.442 362.488 87.7616 362.015 88.0395C361.738 88.2062 361.446 88.373 361.154 88.5119C360.876 88.6509 360.598 88.7481 360.292 88.7898C360.098 88.8176 359.917 88.8732 359.723 88.901C359.209 88.9704 358.708 88.901 358.208 88.8037C358.153 88.8037 358.111 88.7898 358.055 88.7759C357.75 88.7064 357.444 88.6092 357.18 88.4285C356.777 88.1923 356.402 87.9144 356.055 87.5809C355.554 87.0807 355.221 86.4832 354.943 85.8441C354.623 85.1215 354.443 84.3712 354.429 83.5792C354.429 83.3847 354.387 83.1763 354.373 82.9817C354.345 82.2592 354.457 81.5505 354.748 80.8836C354.846 80.6752 354.985 80.4806 355.11 80.2861C355.638 79.5219 356.291 78.8827 357.083 78.3964C357.277 78.2852 357.472 78.188 357.68 78.1185C357.986 78.0212 358.306 77.9101 358.597 77.785C358.695 77.7433 359.236 77.5488 359.236 77.6044L359.278 77.6322Z" fill="#EBEBEB"/>
<path d="M360.028 77.3822C360.348 77.3266 360.667 77.3127 360.987 77.2988C361.404 77.2988 361.807 77.3683 362.21 77.4378C362.571 77.5072 362.918 77.6184 363.238 77.799C364.196 78.3132 364.794 79.1052 365.1 80.1334C365.239 80.6058 365.308 81.0782 365.336 81.5785C365.364 81.898 365.391 82.2176 365.378 82.5372C365.364 83.1486 365.225 83.6766 364.863 84.1629C364.863 84.1768 364.683 84.413 364.613 84.4964C363.932 85.2189 363.085 85.5941 362.084 85.5941C361.64 85.5941 361.209 85.6636 360.778 85.5385C359.847 85.2884 358.986 84.9271 358.249 84.2741C357.513 83.6349 357.055 82.8429 356.929 81.8842C356.804 80.8142 356.902 79.7582 357.583 78.8412C357.916 78.3826 358.333 77.9936 358.861 77.7435C358.903 77.7296 359.653 77.4517 360.014 77.3961L360.028 77.3822Z" fill="#40484A"/>
<path d="M365.864 37.1982C365.864 29.4587 359.583 23.1782 351.844 23.1782C344.104 23.1782 337.824 29.4587 337.824 37.1982C337.824 44.229 343.007 50.051 349.746 51.0653L351.774 54.5807L353.789 51.0792C360.597 50.1205 365.85 44.2707 365.85 37.1982H365.864Z" fill="#41474A"/>
</g>
<path d="M347.231 39.4489L346.314 40.3243V42.478H344.549V34.9331H346.314V38.3512L347.092 37.4064L349.274 34.9192H351.441L348.412 38.2679L351.538 42.4641H349.44L347.245 39.435L347.231 39.4489Z" fill="white"/>
<path d="M355.818 39.713H354.415V42.478H352.65V34.9331H355.818C356.833 34.9331 357.611 35.1276 358.153 35.5306C358.695 35.9335 358.973 36.4893 358.973 37.2119C358.973 37.726 358.848 38.1567 358.597 38.5041C358.347 38.8515 357.958 39.1155 357.444 39.3239L359.292 42.4086V42.478H357.402L355.805 39.713H355.818ZM354.415 38.4485H355.832C356.277 38.4485 356.61 38.3513 356.861 38.1567C357.111 37.9622 357.222 37.6843 357.222 37.3369C357.222 36.9896 357.111 36.6978 356.874 36.5032C356.638 36.3087 356.291 36.1975 355.818 36.1975H354.401V38.4624L354.415 38.4485Z" fill="white"/>
<path d="M461.698 29H424.043C416.768 29 410.871 34.8975 410.871 42.1724V79.8276C410.871 87.1025 416.768 93 424.043 93H461.698C468.973 93 474.871 87.1025 474.871 79.8276V42.1724C474.871 34.8975 468.973 29 461.698 29Z" fill="white"/>
<mask id="mask2_274_6332" style="mask-type:luminance" maskUnits="userSpaceOnUse" x="410" y="29" width="65" height="64">
<path d="M461.698 29H424.043C416.768 29 410.871 34.8975 410.871 42.1724V79.8276C410.871 87.1025 416.768 93 424.043 93H461.698C468.973 93 474.871 87.1025 474.871 79.8276V42.1724C474.871 34.8975 468.973 29 461.698 29Z" fill="white"/>
</mask>
<g mask="url(#mask2_274_6332)">
<path d="M473.453 96.6824C473.467 88.8456 472.23 81.0506 472.161 73.2277C472.05 72.6025 471.994 71.9633 471.938 71.3241C471.855 70.4071 471.41 65.655 471.244 65.1409C471.133 64.8213 471.063 64.5017 471.021 64.1682C470.966 63.6958 470.91 63.2373 470.827 62.7649C470.563 61.1392 470.215 59.5273 469.854 57.9294C469.743 57.4431 469.66 56.9568 469.521 56.4844C469.368 55.998 469.201 55.5256 469.048 55.0393C468.798 54.2056 468.381 53.4553 467.742 52.8439C467.492 52.6077 467.256 52.3576 467.02 52.1075C466.492 51.5517 465.991 50.9959 465.408 50.4956C464.838 49.9954 464.268 49.523 463.574 49.2312C463.143 49.0506 462.698 48.9116 462.254 48.8005C461.892 48.7032 461.531 48.6754 461.156 48.592C460.586 48.467 460.031 48.3558 459.447 48.3141C459.447 48.3141 459.447 48.2864 459.447 48.2725H458.655C458.655 48.2725 458.655 48.3003 458.655 48.3141C458.446 48.3419 458.238 48.3558 458.016 48.3975C457.029 48.5643 456.112 48.9116 455.278 49.4535C454.653 49.8565 454.111 50.3706 453.639 50.9403C453.264 51.3849 452.944 51.8851 452.722 52.427C452.638 52.6355 452.527 52.83 452.416 53.0245C452.152 53.4553 451.944 53.8999 451.763 54.3584C451.652 54.6502 451.541 54.942 451.388 55.2199C451.082 55.7479 450.874 56.3037 450.707 56.8873C450.665 57.0541 450.624 57.2347 450.554 57.3875C450.429 57.6654 450.346 57.9572 450.262 58.249C450.137 58.6242 450.04 59.0271 449.873 59.3884C449.012 61.1808 447.595 62.1674 445.621 62.3619C445.135 62.4175 444.649 62.3619 444.176 62.3063C443.801 62.2508 443.412 62.2091 443.051 62.1118C441.786 61.7922 440.717 61.0975 439.73 60.2777C439.119 59.7775 438.591 59.18 438.035 58.6242C437.965 58.5547 437.91 58.4852 437.854 58.4158C437.632 58.1379 437.382 57.8739 437.132 57.6237C436.465 56.9846 435.798 56.3593 435.131 55.734C434.408 55.0671 433.658 54.4279 432.852 53.8721C432.671 53.7471 432.491 53.622 432.324 53.4692C431.977 53.1496 431.588 52.8578 431.212 52.5521C430.587 52.0658 429.879 51.6906 429.142 51.4127C428.531 51.1765 427.905 51.107 427.252 51.1348C426.335 51.1904 425.502 51.4822 424.724 51.9407C423.737 52.5243 422.931 53.3163 422.292 54.2612C422 54.6919 421.722 55.1366 421.417 55.5673C421.139 55.9702 420.889 56.4149 420.666 56.8595C420.11 57.9711 419.569 59.0827 419.054 60.2082C418.971 60.3194 418.915 60.4444 418.874 60.5695C418.651 61.0836 418.415 61.5977 418.165 62.1118C418.082 62.2924 417.957 62.4592 417.915 62.6537C417.887 62.6954 417.859 62.7371 417.846 62.7788C417.651 63.2095 417.443 63.6402 417.262 64.071C417.012 64.6407 416.762 65.1965 416.539 65.7662C416.373 66.1552 416.22 66.5582 416.081 66.9611C415.9 67.4752 415.734 67.9894 415.539 68.5035C415.344 69.0037 415.164 69.5178 415.011 70.0319C414.969 70.1709 414.928 70.3098 414.886 70.4488C414.803 70.7961 414.719 71.1296 414.65 71.477C414.566 71.8105 414.483 72.1439 414.4 72.4774C414.275 72.9915 414.163 73.5195 414.038 74.0336C413.941 74.4088 413.872 74.784 413.802 75.1591C413.719 75.6455 413.635 76.1318 413.552 76.632C413.469 77.0905 413.371 77.563 413.302 78.0215C413.274 78.216 413.232 78.4105 413.191 78.619C413.107 79.1053 413.038 79.6055 412.941 80.0918C412.885 80.3697 412.843 80.6615 412.816 80.9533C412.76 81.4257 412.718 81.9121 412.677 82.3845C412.621 82.8986 412.565 83.4127 412.51 83.9268C412.454 84.427 412.413 84.9273 412.371 85.4275C412.315 85.9972 412.232 86.5808 412.218 87.1504C412.19 87.8452 412.163 88.5399 412.149 89.2208C412.121 89.9294 412.107 90.6242 412.149 91.3328C412.204 92.4305 412.315 93.5282 412.427 94.6259C412.538 95.668 412.677 96.6963 412.871 97.7245C412.955 98.1552 413.093 98.5582 413.246 98.9611C413.302 99.0862 413.357 99.1973 413.427 99.3085C413.733 99.8087 414.122 100.239 414.566 100.629C414.844 100.879 415.108 101.143 415.428 101.323C415.761 101.504 416.081 101.698 416.414 101.879C416.664 102.032 416.942 102.129 417.206 102.213C417.415 102.282 417.651 102.324 417.846 102.421C418.026 102.518 418.221 102.588 418.429 102.643C418.763 102.741 419.11 102.838 419.443 102.935C421.194 103.477 422.987 103.838 424.793 104.13C425.78 104.297 426.78 104.45 427.78 104.589C428.711 104.714 429.642 104.839 430.587 104.908C431.435 104.978 432.296 105.061 433.144 105.117C433.686 105.158 434.242 105.172 434.783 105.214C434.978 105.214 435.186 105.242 435.381 105.256C436.09 105.325 436.798 105.394 437.507 105.436C437.951 105.464 438.382 105.492 438.827 105.52V105.561H442.106V105.52C443.19 105.478 444.288 105.45 445.357 105.367C445.983 105.325 446.608 105.283 447.233 105.242C448.123 105.172 449.012 105.103 449.901 105.033C450.526 104.978 451.138 104.922 451.763 104.866C452.625 104.783 453.486 104.672 454.347 104.589C455.209 104.505 456.07 104.366 456.918 104.213C457.891 104.033 458.863 103.81 459.822 103.574C460.684 103.366 461.531 103.157 462.365 102.893C464.171 102.338 465.908 101.615 467.687 100.976C468.229 100.781 468.757 100.545 469.326 100.406C469.757 100.295 470.16 100.101 470.549 99.8921C471.105 99.5864 471.605 99.1973 472.119 98.8222C472.661 98.4331 473.106 97.9468 473.481 97.4049V96.724L473.453 96.6824Z" fill="#B84655"/>
<path d="M434.255 77.6322C434.019 77.7711 433.533 78.0351 433.325 78.2158C432.741 78.7021 432.366 79.3135 432.199 80.0638C432.018 80.8836 432.018 81.7034 432.31 82.5093C432.63 83.4125 433.255 84.0377 434.033 84.538C434.353 84.7464 434.714 84.9131 435.089 85.0382C435.159 85.066 435.214 85.0938 435.284 85.1076C435.617 85.2466 435.965 85.3439 436.326 85.3439C436.854 85.3439 437.368 85.3717 437.882 85.2605C438.646 85.0799 439.285 84.6908 439.744 84.0516C439.8 84.1072 439.772 84.1767 439.744 84.2323C439.716 84.3712 439.688 84.4963 439.633 84.6352C439.299 85.5106 438.896 86.3443 438.257 87.039C437.896 87.442 437.465 87.7616 436.993 88.0395C436.715 88.2062 436.423 88.373 436.131 88.5119C435.853 88.6509 435.575 88.7481 435.27 88.7898C435.075 88.8176 434.895 88.8732 434.7 88.901C434.186 88.9704 433.686 88.901 433.186 88.8037C433.13 88.8037 433.088 88.7898 433.033 88.7759C432.727 88.7064 432.421 88.6092 432.157 88.4285C431.754 88.1923 431.379 87.9144 431.032 87.5809C430.532 87.0807 430.184 86.4832 429.92 85.8441C429.601 85.1215 429.42 84.3712 429.406 83.5792C429.406 83.3847 429.364 83.1763 429.351 82.9817C429.323 82.2592 429.434 81.5505 429.726 80.8836C429.823 80.6752 429.962 80.4806 430.087 80.2861C430.615 79.5219 431.268 78.8827 432.06 78.3964C432.255 78.2852 432.449 78.188 432.658 78.1185C432.963 78.0212 433.283 77.9101 433.575 77.785C433.672 77.7433 434.214 77.5488 434.214 77.6044L434.255 77.6322Z" fill="#EBEBEB"/>
<path d="M435.006 77.3822C435.326 77.3266 435.645 77.3127 435.965 77.2988C436.382 77.2988 436.785 77.3683 437.188 77.4378C437.549 77.5072 437.896 77.6184 438.216 77.799C439.175 78.3132 439.772 79.1052 440.078 80.1334C440.217 80.6058 440.286 81.0782 440.314 81.5785C440.342 81.898 440.369 82.2176 440.356 82.5372C440.342 83.1486 440.203 83.6766 439.841 84.1629C439.841 84.1768 439.661 84.413 439.591 84.4964C438.911 85.2189 438.063 85.5941 437.062 85.5941C436.618 85.5941 436.187 85.6636 435.756 85.5385C434.825 85.2884 433.964 84.9271 433.227 84.2741C432.491 83.6349 432.033 82.8429 431.907 81.8842C431.782 80.8142 431.88 79.7582 432.561 78.8412C432.894 78.3826 433.311 77.9936 433.839 77.7435C433.881 77.7296 434.631 77.4517 434.992 77.3961L435.006 77.3822Z" fill="#40484A"/>
<path d="M450.234 77.6322C449.998 77.7711 449.512 78.0351 449.304 78.2158C448.72 78.7021 448.345 79.3135 448.178 80.0638C447.997 80.8836 447.997 81.7034 448.289 82.5093C448.609 83.4125 449.234 84.0377 450.012 84.538C450.332 84.7464 450.693 84.9131 451.068 85.0382C451.138 85.066 451.193 85.0938 451.263 85.1076C451.596 85.2466 451.944 85.3439 452.305 85.3439C452.833 85.3439 453.347 85.3717 453.861 85.2605C454.625 85.0799 455.264 84.6908 455.723 84.0516C455.779 84.1072 455.751 84.1767 455.723 84.2323C455.695 84.3712 455.667 84.4963 455.612 84.6352C455.278 85.5106 454.875 86.3443 454.236 87.039C453.875 87.442 453.444 87.7616 452.972 88.0395C452.694 88.2062 452.402 88.373 452.11 88.5119C451.832 88.6509 451.554 88.7481 451.249 88.7898C451.054 88.8176 450.874 88.8732 450.679 88.901C450.165 88.9704 449.665 88.901 449.165 88.8037C449.109 88.8037 449.067 88.7898 449.012 88.7759C448.706 88.7064 448.4 88.6092 448.136 88.4285C447.733 88.1923 447.358 87.9144 447.011 87.5809C446.511 87.0807 446.177 86.4832 445.899 85.8441C445.58 85.1215 445.399 84.3712 445.385 83.5792C445.385 83.3847 445.343 83.1763 445.33 82.9817C445.302 82.2592 445.413 81.5505 445.705 80.8836C445.802 80.6752 445.941 80.4806 446.066 80.2861C446.594 79.5219 447.247 78.8827 448.039 78.3964C448.234 78.2852 448.428 78.188 448.637 78.1185C448.942 78.0212 449.262 77.9101 449.554 77.785C449.651 77.7433 450.193 77.5488 450.193 77.6044L450.234 77.6322Z" fill="#EBEBEB"/>
<path d="M450.985 77.3822C451.305 77.3266 451.624 77.3127 451.944 77.2988C452.361 77.2988 452.764 77.3683 453.167 77.4378C453.528 77.5072 453.875 77.6184 454.195 77.799C455.154 78.3132 455.751 79.1052 456.057 80.1334C456.196 80.6058 456.265 81.0782 456.293 81.5785C456.321 81.898 456.349 82.2176 456.335 82.5372C456.321 83.1486 456.182 83.6766 455.821 84.1629C455.821 84.1768 455.64 84.413 455.571 84.4964C454.89 85.2189 454.042 85.5941 453.042 85.5941C452.597 85.5941 452.166 85.6636 451.736 85.5385C450.805 85.2884 449.943 84.9271 449.207 84.2741C448.47 83.6349 448.012 82.8429 447.887 81.8842C447.762 80.8142 447.859 79.7582 448.54 78.8412C448.873 78.3826 449.29 77.9936 449.818 77.7435C449.86 77.7296 450.61 77.4517 450.971 77.3961L450.985 77.3822Z" fill="#40484A"/>
<path d="M456.807 37.1982C456.807 29.4587 450.526 23.1782 442.787 23.1782C435.047 23.1782 428.767 29.4587 428.767 37.1982C428.767 44.229 433.95 50.051 440.689 51.0653L442.717 54.5807L444.732 51.0792C451.541 50.1205 456.793 44.2707 456.793 37.1982H456.807Z" fill="#27336F"/>
</g>
<path d="M441.162 39.3934H437.785V42.478H436.021V34.9331H441.578V36.1975H437.785V38.1428H441.162V39.3934Z" fill="white"/>
<path d="M446.247 39.713H444.844V42.478H443.079V34.9331H446.247C447.262 34.9331 448.04 35.1276 448.582 35.5306C449.124 35.9335 449.402 36.4893 449.402 37.2119C449.402 37.726 449.276 38.1567 449.026 38.5041C448.776 38.8515 448.387 39.1155 447.873 39.3239L449.721 42.4086V42.478H447.831L446.233 39.713H446.247ZM444.844 38.4485H446.261C446.706 38.4485 447.039 38.3513 447.29 38.1567C447.54 37.9622 447.651 37.6843 447.651 37.3369C447.651 36.9896 447.54 36.6978 447.303 36.5032C447.067 36.3087 446.72 36.1975 446.247 36.1975H444.83V38.4624L444.844 38.4485Z" fill="white"/>
<g filter="url(#filter2_d_274_6332)">
<path d="M643.556 29H606.012C598.707 29 592.784 34.9224 592.784 42.228V79.772C592.784 87.0776 598.707 93 606.012 93H643.556C650.862 93 656.784 87.0776 656.784 79.772V42.228C656.784 34.9224 650.862 29 643.556 29Z" fill="white"/>
</g>
<mask id="mask3_274_6332" style="mask-type:luminance" maskUnits="userSpaceOnUse" x="592" y="29" width="65" height="64">
<path d="M643.556 29H606.012C598.707 29 592.784 34.9224 592.784 42.228V79.772C592.784 87.0776 598.707 93 606.012 93H643.556C650.862 93 656.784 87.0776 656.784 79.772V42.228C656.784 34.9224 650.862 29 643.556 29Z" fill="white"/>
</mask>
<g mask="url(#mask3_274_6332)">
<path d="M655.367 96.6824C655.38 88.8456 654.144 81.0506 654.074 73.2277C653.963 72.6025 653.908 71.9633 653.852 71.3241C653.769 70.4071 653.324 65.655 653.157 65.1409C653.046 64.8213 652.977 64.5017 652.935 64.1682C652.879 63.6958 652.824 63.2373 652.74 62.7649C652.476 61.1392 652.129 59.5273 651.768 57.9294C651.657 57.4431 651.573 56.9568 651.434 56.4844C651.281 55.998 651.115 55.5256 650.962 55.0393C650.712 54.2056 650.295 53.4553 649.656 52.8439C649.406 52.6077 649.169 52.3576 648.933 52.1075C648.405 51.5517 647.905 50.9959 647.321 50.4956C646.752 49.9954 646.182 49.523 645.487 49.2312C645.057 49.0506 644.612 48.9116 644.167 48.8005C643.806 48.7032 643.445 48.6754 643.07 48.592C642.5 48.467 641.944 48.3558 641.361 48.3141C641.361 48.3141 641.361 48.2864 641.361 48.2725H640.568C640.568 48.2725 640.568 48.3003 640.568 48.3141C640.36 48.3419 640.152 48.3558 639.929 48.3975C638.943 48.5643 638.026 48.9116 637.192 49.4535C636.567 49.8565 636.025 50.3706 635.552 50.9403C635.177 51.3849 634.858 51.8851 634.635 52.427C634.552 52.6355 634.441 52.83 634.33 53.0245C634.066 53.4553 633.857 53.8999 633.677 54.3584C633.565 54.6502 633.454 54.942 633.301 55.2199C632.996 55.7479 632.787 56.3037 632.621 56.8873C632.579 57.0541 632.537 57.2347 632.468 57.3875C632.343 57.6654 632.259 57.9572 632.176 58.249C632.051 58.6242 631.954 59.0271 631.787 59.3884C630.925 61.1808 629.508 62.1674 627.535 62.3619C627.049 62.4175 626.562 62.3619 626.09 62.3063C625.715 62.2508 625.326 62.2091 624.964 62.1118C623.7 61.7922 622.63 61.0975 621.644 60.2777C621.032 59.7775 620.504 59.18 619.948 58.6242C619.879 58.5547 619.823 58.4852 619.768 58.4158C619.545 58.1379 619.295 57.8739 619.045 57.6237C618.378 56.9846 617.711 56.3593 617.044 55.734C616.322 55.0671 615.572 54.4279 614.766 53.8721C614.585 53.7471 614.404 53.622 614.238 53.4692C613.89 53.1496 613.501 52.8578 613.126 52.5521C612.501 52.0658 611.792 51.6906 611.056 51.4127C610.444 51.1765 609.819 51.107 609.166 51.1348C608.249 51.1904 607.415 51.4822 606.637 51.9407C605.651 52.5243 604.845 53.3163 604.205 54.2612C603.914 54.6919 603.636 55.1366 603.33 55.5673C603.052 55.9702 602.802 56.4149 602.58 56.8595C602.024 57.9711 601.482 59.0827 600.968 60.2082C600.885 60.3194 600.829 60.4444 600.787 60.5695C600.565 61.0836 600.329 61.5977 600.079 62.1118C599.995 62.2924 599.87 62.4592 599.829 62.6537C599.801 62.6954 599.773 62.7371 599.759 62.7788C599.565 63.2095 599.356 63.6402 599.176 64.071C598.925 64.6407 598.675 65.1965 598.453 65.7662C598.286 66.1552 598.133 66.5582 597.994 66.9611C597.814 67.4752 597.647 67.9894 597.453 68.5035C597.258 69.0037 597.077 69.5178 596.925 70.0319C596.883 70.1709 596.841 70.3098 596.799 70.4488C596.716 70.7961 596.633 71.1296 596.563 71.477C596.48 71.8105 596.397 72.1439 596.313 72.4774C596.188 72.9915 596.077 73.5195 595.952 74.0336C595.855 74.4088 595.785 74.784 595.716 75.1591C595.632 75.6455 595.549 76.1318 595.466 76.632C595.382 77.0905 595.285 77.563 595.215 78.0215C595.188 78.216 595.146 78.4105 595.104 78.619C595.021 79.1053 594.951 79.6055 594.854 80.0918C594.799 80.3697 594.757 80.6615 594.729 80.9533C594.674 81.4257 594.632 81.9121 594.59 82.3845C594.535 82.8986 594.479 83.4127 594.423 83.9268C594.368 84.427 594.326 84.9273 594.285 85.4275C594.229 85.9972 594.146 86.5808 594.132 87.1504C594.104 87.8452 594.076 88.5399 594.062 89.2208C594.034 89.9294 594.021 90.6242 594.062 91.3328C594.118 92.4305 594.229 93.5282 594.34 94.6259C594.451 95.668 594.59 96.6963 594.785 97.7245C594.868 98.1552 595.007 98.5582 595.16 98.9611C595.215 99.0862 595.271 99.1973 595.341 99.3085C595.646 99.8087 596.035 100.239 596.48 100.629C596.758 100.879 597.022 101.143 597.341 101.323C597.675 101.504 597.994 101.698 598.328 101.879C598.578 102.032 598.856 102.129 599.12 102.213C599.328 102.282 599.565 102.324 599.759 102.421C599.94 102.518 600.134 102.588 600.343 102.643C600.676 102.741 601.024 102.838 601.357 102.935C603.108 103.477 604.9 103.838 606.707 104.13C607.693 104.297 608.694 104.45 609.694 104.589C610.625 104.714 611.556 104.839 612.501 104.908C613.348 104.978 614.21 105.061 615.057 105.117C615.599 105.158 616.155 105.172 616.697 105.214C616.892 105.214 617.1 105.242 617.295 105.256C618.003 105.325 618.712 105.394 619.42 105.436C619.865 105.464 620.296 105.492 620.74 105.52V105.561H624.02V105.52C625.103 105.478 626.201 105.45 627.271 105.367C627.896 105.325 628.522 105.283 629.147 105.242C630.036 105.172 630.925 105.103 631.815 105.033C632.44 104.978 633.051 104.922 633.677 104.866C634.538 104.783 635.4 104.672 636.261 104.589C637.123 104.505 637.984 104.366 638.832 104.213C639.804 104.033 640.777 103.81 641.736 103.574C642.597 103.366 643.445 103.157 644.278 102.893C646.085 102.338 647.822 101.615 649.6 100.976C650.142 100.781 650.67 100.545 651.24 100.406C651.671 100.295 652.073 100.101 652.463 99.8921C653.018 99.5864 653.519 99.1973 654.033 98.8222C654.575 98.4331 655.019 97.9468 655.394 97.4049V96.724L655.367 96.6824Z" fill="#B84655"/>
<path d="M616.183 77.6322C615.946 77.7711 615.46 78.0351 615.252 78.2158C614.668 78.7021 614.293 79.3135 614.126 80.0638C613.946 80.8836 613.946 81.7034 614.237 82.5093C614.557 83.4125 615.182 84.0377 615.96 84.538C616.28 84.7464 616.641 84.9131 617.016 85.0382C617.086 85.066 617.141 85.0938 617.211 85.1076C617.544 85.2466 617.892 85.3439 618.253 85.3439C618.781 85.3439 619.295 85.3717 619.809 85.2605C620.574 85.0799 621.213 84.6908 621.671 84.0516C621.727 84.1072 621.699 84.1767 621.671 84.2323C621.643 84.3712 621.616 84.4963 621.56 84.6352C621.227 85.5106 620.824 86.3443 620.184 87.039C619.823 87.442 619.392 87.7616 618.92 88.0395C618.642 88.2062 618.35 88.373 618.059 88.5119C617.781 88.6509 617.503 88.7481 617.197 88.7898C617.003 88.8176 616.822 88.8732 616.627 88.901C616.113 88.9704 615.613 88.901 615.113 88.8037C615.057 88.8037 615.016 88.7898 614.96 88.7759C614.654 88.7064 614.349 88.6092 614.085 88.4285C613.682 88.1923 613.306 87.9144 612.959 87.5809C612.459 87.0807 612.112 86.4832 611.848 85.8441C611.528 85.1215 611.347 84.3712 611.333 83.5792C611.333 83.3847 611.292 83.1763 611.278 82.9817C611.25 82.2592 611.361 81.5505 611.653 80.8836C611.75 80.6752 611.889 80.4806 612.014 80.2861C612.542 79.5219 613.195 78.8827 613.987 78.3964C614.182 78.2852 614.376 78.188 614.585 78.1185C614.89 78.0212 615.21 77.9101 615.502 77.785C615.599 77.7433 616.141 77.5488 616.141 77.6044L616.183 77.6322Z" fill="#EBEBEB"/>
<path d="M616.92 77.3822C617.239 77.3266 617.559 77.3127 617.878 77.2988C618.295 77.2988 618.698 77.3683 619.101 77.4378C619.462 77.5072 619.81 77.6184 620.129 77.799C621.088 78.3132 621.686 79.1052 621.991 80.1334C622.13 80.6058 622.2 81.0782 622.227 81.5785C622.255 81.898 622.283 82.2176 622.269 82.5372C622.255 83.1486 622.116 83.6766 621.755 84.1629C621.755 84.1768 621.574 84.413 621.505 84.4964C620.824 85.2189 619.976 85.5941 618.976 85.5941C618.531 85.5941 618.101 85.6636 617.67 85.5385C616.739 85.2884 615.877 84.9271 615.141 84.2741C614.405 83.6349 613.946 82.8429 613.821 81.8842C613.696 80.8142 613.793 79.7582 614.474 78.8412C614.808 78.3826 615.224 77.9936 615.752 77.7435C615.794 77.7296 616.544 77.4517 616.906 77.3961L616.92 77.3822Z" fill="#40484A"/>
<path d="M632.148 77.6322C631.912 77.7711 631.425 78.0351 631.217 78.2158C630.633 78.7021 630.258 79.3135 630.092 80.0638C629.911 80.8836 629.911 81.7034 630.203 82.5093C630.522 83.4125 631.148 84.0377 631.926 84.538C632.245 84.7464 632.607 84.9131 632.982 85.0382C633.051 85.066 633.107 85.0938 633.176 85.1076C633.51 85.2466 633.857 85.3439 634.218 85.3439C634.746 85.3439 635.26 85.3717 635.775 85.2605C636.539 85.0799 637.178 84.6908 637.637 84.0516C637.692 84.1072 637.664 84.1767 637.637 84.2323C637.609 84.3712 637.581 84.4963 637.525 84.6352C637.192 85.5106 636.789 86.3443 636.15 87.039C635.789 87.442 635.358 87.7616 634.885 88.0395C634.607 88.2062 634.316 88.373 634.024 88.5119C633.746 88.6509 633.468 88.7481 633.162 88.7898C632.968 88.8176 632.787 88.8732 632.593 88.901C632.079 88.9704 631.578 88.901 631.078 88.8037C631.023 88.8037 630.981 88.7898 630.925 88.7759C630.62 88.7064 630.314 88.6092 630.05 88.4285C629.647 88.1923 629.272 87.9144 628.924 87.5809C628.424 87.0807 628.091 86.4832 627.813 85.8441C627.493 85.1215 627.313 84.3712 627.299 83.5792C627.299 83.3847 627.257 83.1763 627.243 82.9817C627.215 82.2592 627.326 81.5505 627.618 80.8836C627.716 80.6752 627.855 80.4806 627.98 80.2861C628.508 79.5219 629.161 78.8827 629.953 78.3964C630.147 78.2852 630.342 78.188 630.55 78.1185C630.856 78.0212 631.175 77.9101 631.467 77.785C631.564 77.7433 632.106 77.5488 632.106 77.6044L632.148 77.6322Z" fill="#EBEBEB"/>
<path d="M632.898 77.3822C633.218 77.3266 633.538 77.3127 633.857 77.2988C634.274 77.2988 634.677 77.3683 635.08 77.4378C635.441 77.5072 635.788 77.6184 636.108 77.799C637.067 78.3132 637.664 79.1052 637.97 80.1334C638.109 80.6058 638.178 81.0782 638.206 81.5785C638.234 81.898 638.262 82.2176 638.248 82.5372C638.234 83.1486 638.095 83.6766 637.734 84.1629C637.734 84.1768 637.553 84.413 637.484 84.4964C636.803 85.2189 635.955 85.5941 634.955 85.5941C634.51 85.5941 634.079 85.6636 633.649 85.5385C632.718 85.2884 631.856 84.9271 631.12 84.2741C630.383 83.6349 629.925 82.8429 629.8 81.8842C629.675 80.8142 629.772 79.7582 630.453 78.8412C630.786 78.3826 631.203 77.9936 631.731 77.7435C631.773 77.7296 632.523 77.4517 632.884 77.3961L632.898 77.3822Z" fill="#40484A"/>
<path d="M638.734 37.1982C638.734 29.4587 632.454 23.1782 624.714 23.1782C616.975 23.1782 610.694 29.4587 610.694 37.1982C610.694 44.229 615.877 50.051 622.616 51.0653L624.645 54.5807L626.659 51.0792C633.468 50.1205 638.72 44.2707 638.72 37.1982H638.734Z" fill="#2A9E9A"/>
</g>
<path d="M620.06 40.6022L621.991 34.9331H623.95L620.977 42.478H619.143L616.183 34.9331H618.142L620.06 40.6022Z" fill="white"/>
<path d="M632.176 42.478H630.412L626.993 37.5176V42.478H625.229V34.9331H626.993L630.425 39.9075V34.9331H632.176V42.478Z" fill="white"/>
<g filter="url(#filter3_d_274_6332)">
<path d="M552.53 29H515.125C507.781 29 501.827 34.9535 501.827 42.2974V79.7026C501.827 87.0465 507.781 93 515.125 93H552.53C559.874 93 565.827 87.0465 565.827 79.7026V42.2974C565.827 34.9535 559.874 29 552.53 29Z" fill="white"/>
</g>
<mask id="mask4_274_6332" style="mask-type:luminance" maskUnits="userSpaceOnUse" x="501" y="29" width="65" height="64">
<path d="M552.53 29H515.125C507.781 29 501.827 34.9535 501.827 42.2974V79.7026C501.827 87.0465 507.781 93 515.125 93H552.53C559.874 93 565.827 87.0465 565.827 79.7026V42.2974C565.827 34.9535 559.874 29 552.53 29Z" fill="white"/>
</mask>
<g mask="url(#mask4_274_6332)">
<path d="M564.41 96.6824C564.424 88.8456 563.187 81.0506 563.118 73.2277C563.007 72.6025 562.951 71.9633 562.895 71.3241C562.812 70.4071 562.367 65.655 562.201 65.1409C562.09 64.8213 562.02 64.5017 561.978 64.1682C561.923 63.6958 561.867 63.2373 561.784 62.7649C561.52 61.1392 561.173 59.5273 560.811 57.9294C560.7 57.4431 560.617 56.9568 560.478 56.4844C560.325 55.998 560.158 55.5256 560.005 55.0393C559.755 54.2056 559.338 53.4553 558.699 52.8439C558.449 52.6077 558.213 52.3576 557.977 52.1075C557.449 51.5517 556.948 50.9959 556.365 50.4956C555.795 49.9954 555.226 49.523 554.531 49.2312C554.1 49.0506 553.655 48.9116 553.211 48.8005C552.849 48.7032 552.488 48.6754 552.113 48.592C551.543 48.467 550.988 48.3558 550.404 48.3141C550.404 48.3141 550.404 48.2864 550.404 48.2725H549.612C549.612 48.2725 549.612 48.3003 549.612 48.3141C549.404 48.3419 549.195 48.3558 548.973 48.3975C547.986 48.5643 547.069 48.9116 546.235 49.4535C545.61 49.8565 545.068 50.3706 544.596 50.9403C544.221 51.3849 543.901 51.8851 543.679 52.427C543.595 52.6355 543.484 52.83 543.373 53.0245C543.109 53.4553 542.901 53.8999 542.72 54.3584C542.609 54.6502 542.498 54.942 542.345 55.2199C542.039 55.7479 541.831 56.3037 541.664 56.8873C541.622 57.0541 541.581 57.2347 541.511 57.3875C541.386 57.6654 541.303 57.9572 541.219 58.249C541.094 58.6242 540.997 59.0271 540.83 59.3884C539.969 61.1808 538.552 62.1674 536.579 62.3619C536.092 62.4175 535.606 62.3619 535.133 62.3063C534.758 62.2508 534.369 62.2091 534.008 62.1118C532.744 61.7922 531.674 61.0975 530.687 60.2777C530.076 59.7775 529.548 59.18 528.992 58.6242C528.922 58.5547 528.867 58.4852 528.811 58.4158C528.589 58.1379 528.339 57.8739 528.089 57.6237C527.422 56.9846 526.755 56.3593 526.088 55.734C525.365 55.0671 524.615 54.4279 523.809 53.8721C523.628 53.7471 523.448 53.622 523.281 53.4692C522.934 53.1496 522.545 52.8578 522.169 52.5521C521.544 52.0658 520.836 51.6906 520.099 51.4127C519.488 51.1765 518.862 51.107 518.209 51.1348C517.292 51.1904 516.459 51.4822 515.681 51.9407C514.694 52.5243 513.888 53.3163 513.249 54.2612C512.957 54.6919 512.679 55.1366 512.374 55.5673C512.096 55.9702 511.846 56.4149 511.623 56.8595C511.067 57.9711 510.526 59.0827 510.011 60.2082C509.928 60.3194 509.872 60.4444 509.831 60.5695C509.608 61.0836 509.372 61.5977 509.122 62.1118C509.039 62.2924 508.914 62.4592 508.872 62.6537C508.844 62.6954 508.816 62.7371 508.803 62.7788C508.608 63.2095 508.4 63.6402 508.219 64.071C507.969 64.6407 507.719 65.1965 507.496 65.7662C507.33 66.1552 507.177 66.5582 507.038 66.9611C506.857 67.4752 506.691 67.9894 506.496 68.5035C506.301 69.0037 506.121 69.5178 505.968 70.0319C505.926 70.1709 505.885 70.3098 505.843 70.4488C505.76 70.7961 505.676 71.1296 505.607 71.477C505.523 71.8105 505.44 72.1439 505.357 72.4774C505.232 72.9915 505.12 73.5195 504.995 74.0336C504.898 74.4088 504.829 74.784 504.759 75.1591C504.676 75.6455 504.592 76.1318 504.509 76.632C504.426 77.0905 504.328 77.563 504.259 78.0215C504.231 78.216 504.189 78.4105 504.148 78.619C504.064 79.1053 503.995 79.6055 503.898 80.0918C503.842 80.3697 503.8 80.6615 503.773 80.9533C503.717 81.4257 503.675 81.9121 503.634 82.3845C503.578 82.8986 503.523 83.4127 503.467 83.9268C503.411 84.427 503.37 84.9273 503.328 85.4275C503.272 85.9972 503.189 86.5808 503.175 87.1504C503.147 87.8452 503.12 88.5399 503.106 89.2208C503.078 89.9294 503.064 90.6242 503.106 91.3328C503.161 92.4305 503.272 93.5282 503.384 94.6259C503.495 95.668 503.634 96.6963 503.828 97.7245C503.912 98.1552 504.051 98.5582 504.203 98.9611C504.259 99.0862 504.315 99.1973 504.384 99.3085C504.69 99.8087 505.079 100.239 505.523 100.629C505.801 100.879 506.065 101.143 506.385 101.323C506.718 101.504 507.038 101.698 507.371 101.879C507.622 102.032 507.899 102.129 508.163 102.213C508.372 102.282 508.608 102.324 508.803 102.421C508.983 102.518 509.178 102.588 509.386 102.643C509.72 102.741 510.067 102.838 510.4 102.935C512.151 103.477 513.944 103.838 515.75 104.13C516.737 104.297 517.737 104.45 518.737 104.589C519.668 104.714 520.599 104.839 521.544 104.908C522.392 104.978 523.253 105.061 524.101 105.117C524.643 105.158 525.199 105.172 525.74 105.214C525.935 105.214 526.143 105.242 526.338 105.256C527.047 105.325 527.755 105.394 528.464 105.436C528.909 105.464 529.339 105.492 529.784 105.52V105.561H533.063V105.52C534.147 105.478 535.245 105.45 536.315 105.367C536.94 105.325 537.565 105.283 538.19 105.242C539.08 105.172 539.969 105.103 540.858 105.033C541.483 104.978 542.095 104.922 542.72 104.866C543.582 104.783 544.443 104.672 545.305 104.589C546.166 104.505 547.027 104.366 547.875 104.213C548.848 104.033 549.82 103.81 550.779 103.574C551.641 103.366 552.488 103.157 553.322 102.893C555.128 102.338 556.865 101.615 558.644 100.976C559.186 100.781 559.714 100.545 560.283 100.406C560.714 100.295 561.117 100.101 561.506 99.8921C562.062 99.5864 562.562 99.1973 563.076 98.8222C563.618 98.4331 564.063 97.9468 564.438 97.4049V96.724L564.41 96.6824Z" fill="#B84655"/>
<path d="M525.226 77.6322C524.99 77.7711 524.504 78.0351 524.295 78.2158C523.712 78.7021 523.336 79.3135 523.17 80.0638C522.989 80.8836 522.989 81.7034 523.281 82.5093C523.6 83.4125 524.226 84.0377 525.004 84.538C525.323 84.7464 525.685 84.9131 526.06 85.0382C526.129 85.066 526.185 85.0938 526.254 85.1076C526.588 85.2466 526.935 85.3439 527.297 85.3439C527.825 85.3439 528.339 85.3717 528.853 85.2605C529.617 85.0799 530.256 84.6908 530.715 84.0516C530.77 84.1072 530.742 84.1767 530.715 84.2323C530.687 84.3712 530.659 84.4963 530.603 84.6352C530.27 85.5106 529.867 86.3443 529.228 87.039C528.867 87.442 528.436 87.7616 527.963 88.0395C527.686 88.2062 527.394 88.373 527.102 88.5119C526.824 88.6509 526.546 88.7481 526.24 88.7898C526.046 88.8176 525.865 88.8732 525.671 88.901C525.157 88.9704 524.656 88.901 524.156 88.8037C524.101 88.8037 524.059 88.7898 524.003 88.7759C523.698 88.7064 523.392 88.6092 523.128 88.4285C522.725 88.1923 522.35 87.9144 522.003 87.5809C521.502 87.0807 521.155 86.4832 520.891 85.8441C520.571 85.1215 520.391 84.3712 520.377 83.5792C520.377 83.3847 520.335 83.1763 520.321 82.9817C520.293 82.2592 520.405 81.5505 520.696 80.8836C520.794 80.6752 520.933 80.4806 521.058 80.2861C521.586 79.5219 522.239 78.8827 523.031 78.3964C523.225 78.2852 523.42 78.188 523.628 78.1185C523.934 78.0212 524.254 77.9101 524.545 77.785C524.643 77.7433 525.184 77.5488 525.184 77.6044L525.226 77.6322Z" fill="#EBEBEB"/>
<path d="M525.977 77.3822C526.296 77.3266 526.616 77.3127 526.935 77.2988C527.352 77.2988 527.755 77.3683 528.158 77.4378C528.52 77.5072 528.867 77.6184 529.186 77.799C530.145 78.3132 530.743 79.1052 531.048 80.1334C531.187 80.6058 531.257 81.0782 531.285 81.5785C531.312 81.898 531.34 82.2176 531.326 82.5372C531.312 83.1486 531.173 83.6766 530.812 84.1629C530.812 84.1768 530.632 84.413 530.562 84.4964C529.881 85.2189 529.034 85.5941 528.033 85.5941C527.589 85.5941 527.158 85.6636 526.727 85.5385C525.796 85.2884 524.935 84.9271 524.198 84.2741C523.462 83.6349 523.003 82.8429 522.878 81.8842C522.753 80.8142 522.85 79.7582 523.531 78.8412C523.865 78.3826 524.282 77.9936 524.81 77.7435C524.851 77.7296 525.602 77.4517 525.963 77.3961L525.977 77.3822Z" fill="#40484A"/>
<path d="M541.205 77.6322C540.969 77.7711 540.482 78.0351 540.274 78.2158C539.69 78.7021 539.315 79.3135 539.148 80.0638C538.968 80.8836 538.968 81.7034 539.26 82.5093C539.579 83.4125 540.204 84.0377 540.983 84.538C541.302 84.7464 541.663 84.9131 542.039 85.0382C542.108 85.066 542.164 85.0938 542.233 85.1076C542.567 85.2466 542.914 85.3439 543.275 85.3439C543.803 85.3439 544.317 85.3717 544.831 85.2605C545.596 85.0799 546.235 84.6908 546.693 84.0516C546.749 84.1072 546.721 84.1767 546.693 84.2323C546.666 84.3712 546.638 84.4963 546.582 84.6352C546.249 85.5106 545.846 86.3443 545.207 87.039C544.845 87.442 544.415 87.7616 543.942 88.0395C543.664 88.2062 543.373 88.373 543.081 88.5119C542.803 88.6509 542.525 88.7481 542.219 88.7898C542.025 88.8176 541.844 88.8732 541.65 88.901C541.135 88.9704 540.635 88.901 540.135 88.8037C540.079 88.8037 540.038 88.7898 539.982 88.7759C539.676 88.7064 539.371 88.6092 539.107 88.4285C538.704 88.1923 538.329 87.9144 537.981 87.5809C537.481 87.0807 537.148 86.4832 536.87 85.8441C536.55 85.1215 536.37 84.3712 536.356 83.5792C536.356 83.3847 536.314 83.1763 536.3 82.9817C536.272 82.2592 536.383 81.5505 536.675 80.8836C536.772 80.6752 536.911 80.4806 537.036 80.2861C537.564 79.5219 538.217 78.8827 539.01 78.3964C539.204 78.2852 539.399 78.188 539.607 78.1185C539.913 78.0212 540.232 77.9101 540.524 77.785C540.621 77.7433 541.163 77.5488 541.163 77.6044L541.205 77.6322Z" fill="#EBEBEB"/>
<path d="M541.942 77.3822C542.262 77.3266 542.582 77.3127 542.901 77.2988C543.318 77.2988 543.721 77.3683 544.124 77.4378C544.485 77.5072 544.832 77.6184 545.152 77.799C546.111 78.3132 546.708 79.1052 547.014 80.1334C547.153 80.6058 547.222 81.0782 547.25 81.5785C547.278 81.898 547.306 82.2176 547.292 82.5372C547.278 83.1486 547.139 83.6766 546.778 84.1629C546.778 84.1768 546.597 84.413 546.528 84.4964C545.847 85.2189 544.999 85.5941 543.999 85.5941C543.554 85.5941 543.123 85.6636 542.693 85.5385C541.762 85.2884 540.9 84.9271 540.164 84.2741C539.427 83.6349 538.969 82.8429 538.844 81.8842C538.719 80.8142 538.816 79.7582 539.497 78.8412C539.83 78.3826 540.247 77.9936 540.775 77.7435C540.817 77.7296 541.567 77.4517 541.928 77.3961L541.942 77.3822Z" fill="#40484A"/>
<path d="M547.778 37.1982C547.778 29.4587 541.497 23.1782 533.758 23.1782C526.018 23.1782 519.738 29.4587 519.738 37.1982C519.738 44.229 524.921 50.051 531.66 51.0653L533.688 54.5807L535.703 51.0792C542.512 50.1205 547.764 44.2707 547.764 37.1982H547.778Z" fill="#DEC054"/>
</g>
<path d="M530.326 34.9331H532.091V40.1576C532.091 40.6439 531.966 41.0608 531.73 41.4359C531.493 41.7972 531.146 42.089 530.715 42.2835C530.285 42.478 529.784 42.5892 529.229 42.5892C528.325 42.5892 527.617 42.3808 527.117 41.9778C526.616 41.5749 526.366 40.9913 526.366 40.2549H528.131C528.131 40.63 528.214 40.894 528.395 41.0747C528.575 41.2553 528.853 41.3387 529.229 41.3387C529.562 41.3387 529.826 41.2414 530.034 41.033C530.243 40.8246 530.326 40.5328 530.326 40.1576V34.9331Z" fill="white"/>
<path d="M535.829 39.8241V42.478H534.064V34.9331H537.399C538.038 34.9331 538.608 35.0304 539.094 35.2388C539.58 35.4472 539.955 35.739 540.219 36.1281C540.483 36.5171 540.609 36.9479 540.609 37.4342C540.609 38.1706 540.317 38.7542 539.747 39.185C539.177 39.6157 538.385 39.8241 537.371 39.8241H535.829ZM535.829 38.5597H537.399C537.857 38.5597 538.219 38.4624 538.469 38.2679C538.719 38.0734 538.83 37.7955 538.83 37.4342C538.83 37.0729 538.705 36.7672 538.455 36.531C538.205 36.3087 537.871 36.1836 537.44 36.1836H535.829V38.5458V38.5597Z" fill="white"/>
<g filter="url(#filter4_d_274_6332)">
<path d="M279.757 29H242.157C234.867 29 228.957 34.9099 228.957 42.2002V79.7998C228.957 87.0901 234.867 93 242.157 93H279.757C287.047 93 292.957 87.0901 292.957 79.7998V42.2002C292.957 34.9099 287.047 29 279.757 29Z" fill="white"/>
</g>
<mask id="mask5_274_6332" style="mask-type:luminance" maskUnits="userSpaceOnUse" x="228" y="29" width="65" height="64">
<path d="M279.757 29H242.157C234.867 29 228.957 34.9099 228.957 42.2002V79.7998C228.957 87.0901 234.867 93 242.157 93H279.757C287.047 93 292.957 87.0901 292.957 79.7998V42.2002C292.957 34.9099 287.047 29 279.757 29Z" fill="white"/>
</mask>
<g mask="url(#mask5_274_6332)">
<path d="M291.539 96.6824C291.553 88.8456 290.316 81.0506 290.247 73.2277C290.136 72.6025 290.08 71.9633 290.025 71.3241C289.941 70.4071 289.497 65.655 289.33 65.1409C289.219 64.8213 289.149 64.5017 289.108 64.1682C289.052 63.6958 288.996 63.2373 288.913 62.7649C288.649 61.1392 288.302 59.5273 287.94 57.9294C287.829 57.4431 287.746 56.9568 287.607 56.4844C287.454 55.998 287.287 55.5256 287.135 55.0393C286.884 54.2056 286.468 53.4553 285.828 52.8439C285.578 52.6077 285.342 52.3576 285.106 52.1075C284.578 51.5517 284.078 50.9959 283.494 50.4956C282.924 49.9954 282.355 49.523 281.66 49.2312C281.229 49.0506 280.785 48.9116 280.34 48.8005C279.979 48.7032 279.617 48.6754 279.242 48.592C278.673 48.467 278.117 48.3558 277.533 48.3141C277.533 48.3141 277.533 48.2864 277.533 48.2725H276.741C276.741 48.2725 276.741 48.3003 276.741 48.3141C276.533 48.3419 276.324 48.3558 276.102 48.3975C275.115 48.5643 274.198 48.9116 273.365 49.4535C272.739 49.8565 272.197 50.3706 271.725 50.9403C271.35 51.3849 271.03 51.8851 270.808 52.427C270.725 52.6355 270.613 52.83 270.502 53.0245C270.238 53.4553 270.03 53.8999 269.849 54.3584C269.738 54.6502 269.627 54.942 269.474 55.2199C269.168 55.7479 268.96 56.3037 268.793 56.8873C268.752 57.0541 268.71 57.2347 268.64 57.3875C268.515 57.6654 268.432 57.9572 268.349 58.249C268.224 58.6242 268.126 59.0271 267.96 59.3884C267.098 61.1808 265.681 62.1674 263.708 62.3619C263.221 62.4175 262.735 62.3619 262.263 62.3063C261.887 62.2508 261.498 62.2091 261.137 62.1118C259.873 61.7922 258.803 61.0975 257.816 60.2777C257.205 59.7775 256.677 59.18 256.121 58.6242C256.052 58.5547 255.996 58.4852 255.94 58.4158C255.718 58.1379 255.468 57.8739 255.218 57.6237C254.551 56.9846 253.884 56.3593 253.217 55.734C252.494 55.0671 251.744 54.4279 250.938 53.8721C250.758 53.7471 250.577 53.622 250.41 53.4692C250.063 53.1496 249.674 52.8578 249.299 52.5521C248.673 52.0658 247.965 51.6906 247.228 51.4127C246.617 51.1765 245.992 51.107 245.339 51.1348C244.422 51.1904 243.588 51.4822 242.81 51.9407C241.823 52.5243 241.017 53.3163 240.378 54.2612C240.086 54.6919 239.808 55.1366 239.503 55.5673C239.225 55.9702 238.975 56.4149 238.752 56.8595C238.197 57.9711 237.655 59.0827 237.141 60.2082C237.057 60.3194 237.002 60.4444 236.96 60.5695C236.738 61.0836 236.501 61.5977 236.251 62.1118C236.168 62.2924 236.043 62.4592 236.001 62.6537C235.973 62.6954 235.946 62.7371 235.932 62.7788C235.737 63.2095 235.529 63.6402 235.348 64.071C235.098 64.6407 234.848 65.1965 234.626 65.7662C234.459 66.1552 234.306 66.5582 234.167 66.9611C233.986 67.4752 233.82 67.9894 233.625 68.5035C233.431 69.0037 233.25 69.5178 233.097 70.0319C233.055 70.1709 233.014 70.3098 232.972 70.4488C232.889 70.7961 232.805 71.1296 232.736 71.477C232.653 71.8105 232.569 72.1439 232.486 72.4774C232.361 72.9915 232.25 73.5195 232.125 74.0336C232.027 74.4088 231.958 74.784 231.888 75.1591C231.805 75.6455 231.722 76.1318 231.638 76.632C231.555 77.0905 231.458 77.563 231.388 78.0215C231.36 78.216 231.319 78.4105 231.277 78.619C231.194 79.1053 231.124 79.6055 231.027 80.0918C230.971 80.3697 230.93 80.6615 230.902 80.9533C230.846 81.4257 230.805 81.9121 230.763 82.3845C230.707 82.8986 230.652 83.4127 230.596 83.9268C230.54 84.427 230.499 84.9273 230.457 85.4275C230.402 85.9972 230.318 86.5808 230.304 87.1504C230.276 87.8452 230.249 88.5399 230.235 89.2208C230.207 89.9294 230.193 90.6242 230.235 91.3328C230.29 92.4305 230.402 93.5282 230.513 94.6259C230.624 95.668 230.763 96.6963 230.957 97.7245C231.041 98.1552 231.18 98.5582 231.333 98.9611C231.388 99.0862 231.444 99.1973 231.513 99.3085C231.819 99.8087 232.208 100.239 232.653 100.629C232.93 100.879 233.194 101.143 233.514 101.323C233.847 101.504 234.167 101.698 234.501 101.879C234.751 102.032 235.029 102.129 235.293 102.213C235.501 102.282 235.737 102.324 235.932 102.421C236.112 102.518 236.307 102.588 236.515 102.643C236.849 102.741 237.196 102.838 237.53 102.935C239.28 103.477 241.073 103.838 242.879 104.13C243.866 104.297 244.866 104.45 245.867 104.589C246.798 104.714 247.729 104.839 248.673 104.908C249.521 104.978 250.382 105.061 251.23 105.117C251.772 105.158 252.328 105.172 252.87 105.214C253.064 105.214 253.273 105.242 253.467 105.256C254.176 105.325 254.884 105.394 255.593 105.436C256.038 105.464 256.468 105.492 256.913 105.52V105.561H260.192V105.52C261.276 105.478 262.374 105.45 263.444 105.367C264.069 105.325 264.694 105.283 265.319 105.242C266.209 105.172 267.098 105.103 267.987 105.033C268.613 104.978 269.224 104.922 269.849 104.866C270.711 104.783 271.572 104.672 272.434 104.589C273.295 104.505 274.157 104.366 275.004 104.213C275.977 104.033 276.95 103.81 277.908 103.574C278.77 103.366 279.617 103.157 280.451 102.893C282.257 102.338 283.994 101.615 285.773 100.976C286.315 100.781 286.843 100.545 287.412 100.406C287.843 100.295 288.246 100.101 288.635 99.8921C289.191 99.5864 289.691 99.1973 290.205 98.8222C290.747 98.4331 291.192 97.9468 291.567 97.4049V96.724L291.539 96.6824Z" fill="#B84655"/>
<path d="M252.342 77.6322C252.105 77.7711 251.619 78.0351 251.411 78.2158C250.827 78.7021 250.452 79.3135 250.285 80.0638C250.105 80.8836 250.105 81.7034 250.396 82.5093C250.716 83.4125 251.341 84.0377 252.119 84.538C252.439 84.7464 252.8 84.9131 253.175 85.0382C253.245 85.066 253.3 85.0938 253.37 85.1076C253.703 85.2466 254.051 85.3439 254.412 85.3439C254.94 85.3439 255.454 85.3717 255.968 85.2605C256.732 85.0799 257.372 84.6908 257.83 84.0516C257.886 84.1072 257.858 84.1767 257.83 84.2323C257.802 84.3712 257.775 84.4963 257.719 84.6352C257.385 85.5106 256.983 86.3443 256.343 87.039C255.982 87.442 255.551 87.7616 255.079 88.0395C254.801 88.2062 254.509 88.373 254.217 88.5119C253.94 88.6509 253.662 88.7481 253.356 88.7898C253.161 88.8176 252.981 88.8732 252.786 88.901C252.272 88.9704 251.772 88.901 251.272 88.8037C251.216 88.8037 251.174 88.7898 251.119 88.7759C250.813 88.7064 250.508 88.6092 250.244 88.4285C249.841 88.1923 249.465 87.9144 249.118 87.5809C248.618 87.0807 248.27 86.4832 248.006 85.8441C247.687 85.1215 247.506 84.3712 247.492 83.5792C247.492 83.3847 247.451 83.1763 247.437 82.9817C247.409 82.2592 247.52 81.5505 247.812 80.8836C247.909 80.6752 248.048 80.4806 248.173 80.2861C248.701 79.5219 249.354 78.8827 250.146 78.3964C250.341 78.2852 250.535 78.188 250.744 78.1185C251.049 78.0212 251.369 77.9101 251.661 77.785C251.758 77.7433 252.3 77.5488 252.3 77.6044L252.342 77.6322Z" fill="#EBEBEB"/>
<path d="M253.092 77.3822C253.412 77.3266 253.732 77.3127 254.051 77.2988C254.468 77.2988 254.871 77.3683 255.274 77.4378C255.635 77.5072 255.983 77.6184 256.302 77.799C257.261 78.3132 257.858 79.1052 258.164 80.1334C258.303 80.6058 258.373 81.0782 258.4 81.5785C258.428 81.898 258.456 82.2176 258.442 82.5372C258.428 83.1486 258.289 83.6766 257.928 84.1629C257.928 84.1768 257.747 84.413 257.678 84.4964C256.997 85.2189 256.149 85.5941 255.149 85.5941C254.704 85.5941 254.274 85.6636 253.843 85.5385C252.912 85.2884 252.05 84.9271 251.314 84.2741C250.578 83.6349 250.119 82.8429 249.994 81.8842C249.869 80.8142 249.966 79.7582 250.647 78.8412C250.98 78.3826 251.397 77.9936 251.925 77.7435C251.967 77.7296 252.717 77.4517 253.079 77.3961L253.092 77.3822Z" fill="#40484A"/>
<path d="M268.321 77.6322C268.084 77.7711 267.598 78.0351 267.39 78.2158C266.806 78.7021 266.431 79.3135 266.264 80.0638C266.084 80.8836 266.084 81.7034 266.375 82.5093C266.695 83.4125 267.32 84.0377 268.098 84.538C268.418 84.7464 268.779 84.9131 269.154 85.0382C269.224 85.066 269.279 85.0938 269.349 85.1076C269.682 85.2466 270.03 85.3439 270.391 85.3439C270.919 85.3439 271.433 85.3717 271.947 85.2605C272.711 85.0799 273.351 84.6908 273.809 84.0516C273.865 84.1072 273.837 84.1767 273.809 84.2323C273.781 84.3712 273.754 84.4963 273.698 84.6352C273.365 85.5106 272.962 86.3443 272.322 87.039C271.961 87.442 271.53 87.7616 271.058 88.0395C270.78 88.2062 270.488 88.373 270.196 88.5119C269.919 88.6509 269.641 88.7481 269.335 88.7898C269.14 88.8176 268.96 88.8732 268.765 88.901C268.251 88.9704 267.751 88.901 267.251 88.8037C267.195 88.8037 267.153 88.7898 267.098 88.7759C266.792 88.7064 266.487 88.6092 266.223 88.4285C265.82 88.1923 265.444 87.9144 265.097 87.5809C264.597 87.0807 264.263 86.4832 263.985 85.8441C263.666 85.1215 263.485 84.3712 263.471 83.5792C263.471 83.3847 263.43 83.1763 263.416 82.9817C263.388 82.2592 263.499 81.5505 263.791 80.8836C263.888 80.6752 264.027 80.4806 264.152 80.2861C264.68 79.5219 265.333 78.8827 266.125 78.3964C266.32 78.2852 266.514 78.188 266.723 78.1185C267.028 78.0212 267.348 77.9101 267.64 77.785C267.737 77.7433 268.279 77.5488 268.279 77.6044L268.321 77.6322Z" fill="#EBEBEB"/>
<path d="M269.057 77.3822C269.377 77.3266 269.696 77.3127 270.016 77.2988C270.433 77.2988 270.836 77.3683 271.239 77.4378C271.6 77.5072 271.947 77.6184 272.267 77.799C273.226 78.3132 273.823 79.1052 274.129 80.1334C274.268 80.6058 274.337 81.0782 274.365 81.5785C274.393 81.898 274.421 82.2176 274.407 82.5372C274.393 83.1486 274.254 83.6766 273.893 84.1629C273.893 84.1768 273.712 84.413 273.643 84.4964C272.962 85.2189 272.114 85.5941 271.114 85.5941C270.669 85.5941 270.238 85.6636 269.808 85.5385C268.877 85.2884 268.015 84.9271 267.279 84.2741C266.542 83.6349 266.084 82.8429 265.959 81.8842C265.834 80.8142 265.931 79.7582 266.612 78.8412C266.945 78.3826 267.362 77.9936 267.89 77.7435C267.932 77.7296 268.682 77.4517 269.043 77.3961L269.057 77.3822Z" fill="#40484A"/>
<path d="M274.893 37.1982C274.893 29.4587 268.612 23.1782 260.873 23.1782C253.134 23.1782 246.853 29.4587 246.853 37.1982C246.853 44.229 252.036 50.051 258.775 51.0653L260.804 54.5807L262.818 51.0792C269.627 50.1205 274.879 44.2707 274.879 37.1982H274.893Z" fill="#BA3C48"/>
</g>
<path d="M259.304 39.2127H255.927V41.2275H259.887V42.478H254.163V34.9331H259.873V36.1975H255.927V37.99H259.304V39.2127Z" fill="white"/>
<path d="M265.821 40.4909C265.821 40.1991 265.709 39.9768 265.473 39.8101C265.237 39.6572 264.82 39.4905 264.209 39.3098C263.597 39.1292 263.111 38.9625 262.764 38.7957C261.791 38.3372 261.305 37.7119 261.305 36.9199C261.305 36.517 261.43 36.1557 261.694 35.8361C261.958 35.5165 262.333 35.2664 262.819 35.0858C263.306 34.9051 263.848 34.8218 264.459 34.8218C265.07 34.8218 265.612 34.919 266.085 35.1136C266.557 35.3081 266.932 35.586 267.196 35.9334C267.46 36.2807 267.599 36.6976 267.599 37.1422H265.834C265.834 36.7949 265.709 36.5309 265.459 36.3363C265.209 36.1418 264.862 36.0445 264.417 36.0445C263.973 36.0445 263.653 36.1279 263.417 36.2807C263.181 36.4475 263.056 36.6559 263.056 36.9199C263.056 37.17 263.194 37.3645 263.472 37.5313C263.75 37.698 264.167 37.8509 264.709 38.0037C265.709 38.2677 266.432 38.6012 266.891 38.9903C267.349 39.3793 267.571 39.8795 267.571 40.4631C267.571 41.1162 267.293 41.6303 266.738 42.0055C266.182 42.3806 265.432 42.5612 264.487 42.5612C263.834 42.5612 263.236 42.4501 262.694 42.2417C262.152 42.0332 261.749 41.7414 261.458 41.3663C261.18 40.9911 261.027 40.5743 261.027 40.088H262.792C262.792 40.9216 263.347 41.3385 264.487 41.3385C264.904 41.3385 265.237 41.269 265.459 41.1162C265.696 40.9633 265.807 40.7549 265.807 40.4909H265.821Z" fill="white"/>
</g>
<defs>
<filter id="filter0_d_274_6332" x="134" y="25" width="80" height="80" filterUnits="userSpaceOnUse" color-interpolation-filters="sRGB">
<feFlood flood-opacity="0" result="BackgroundImageFix"/>
<feColorMatrix in="SourceAlpha" type="matrix" values="0 0 0 0 0 0 0 0 0 0 0 0 0 0 0 0 0 0 127 0" result="hardAlpha"/>
<feOffset dx="4" dy="4"/>
<feGaussianBlur stdDeviation="4"/>
<feComposite in2="hardAlpha" operator="out"/>
<feColorMatrix type="matrix" values="0 0 0 0 0 0 0 0 0 0 0 0 0 0 0 0 0 0 0.2 0"/>
<feBlend mode="normal" in2="BackgroundImageFix" result="effect1_dropShadow_274_6332"/>
<feBlend mode="normal" in="SourceGraphic" in2="effect1_dropShadow_274_6332" result="shape"/>
</filter>
<filter id="filter1_d_274_6332" x="315.914" y="25" width="80" height="80" filterUnits="userSpaceOnUse" color-interpolation-filters="sRGB">
<feFlood flood-opacity="0" result="BackgroundImageFix"/>
<feColorMatrix in="SourceAlpha" type="matrix" values="0 0 0 0 0 0 0 0 0 0 0 0 0 0 0 0 0 0 127 0" result="hardAlpha"/>
<feOffset dx="4" dy="4"/>
<feGaussianBlur stdDeviation="4"/>
<feComposite in2="hardAlpha" operator="out"/>
<feColorMatrix type="matrix" values="0 0 0 0 0 0 0 0 0 0 0 0 0 0 0 0 0 0 0.2 0"/>
<feBlend mode="normal" in2="BackgroundImageFix" result="effect1_dropShadow_274_6332"/>
<feBlend mode="normal" in="SourceGraphic" in2="effect1_dropShadow_274_6332" result="shape"/>
</filter>
<filter id="filter2_d_274_6332" x="588.784" y="25" width="80" height="80" filterUnits="userSpaceOnUse" color-interpolation-filters="sRGB">
<feFlood flood-opacity="0" result="BackgroundImageFix"/>
<feColorMatrix in="SourceAlpha" type="matrix" values="0 0 0 0 0 0 0 0 0 0 0 0 0 0 0 0 0 0 127 0" result="hardAlpha"/>
<feOffset dx="4" dy="4"/>
<feGaussianBlur stdDeviation="4"/>
<feComposite in2="hardAlpha" operator="out"/>
<feColorMatrix type="matrix" values="0 0 0 0 0 0 0 0 0 0 0 0 0 0 0 0 0 0 0.2 0"/>
<feBlend mode="normal" in2="BackgroundImageFix" result="effect1_dropShadow_274_6332"/>
<feBlend mode="normal" in="SourceGraphic" in2="effect1_dropShadow_274_6332" result="shape"/>
</filter>
<filter id="filter3_d_274_6332" x="497.827" y="25" width="80" height="80" filterUnits="userSpaceOnUse" color-interpolation-filters="sRGB">
<feFlood flood-opacity="0" result="BackgroundImageFix"/>
<feColorMatrix in="SourceAlpha" type="matrix" values="0 0 0 0 0 0 0 0 0 0 0 0 0 0 0 0 0 0 127 0" result="hardAlpha"/>
<feOffset dx="4" dy="4"/>
<feGaussianBlur stdDeviation="4"/>
<feComposite in2="hardAlpha" operator="out"/>
<feColorMatrix type="matrix" values="0 0 0 0 0 0 0 0 0 0 0 0 0 0 0 0 0 0 0.2 0"/>
<feBlend mode="normal" in2="BackgroundImageFix" result="effect1_dropShadow_274_6332"/>
<feBlend mode="normal" in="SourceGraphic" in2="effect1_dropShadow_274_6332" result="shape"/>
</filter>
<filter id="filter4_d_274_6332" x="224.957" y="25" width="80" height="80" filterUnits="userSpaceOnUse" color-interpolation-filters="sRGB">
<feFlood flood-opacity="0" result="BackgroundImageFix"/>
<feColorMatrix in="SourceAlpha" type="matrix" values="0 0 0 0 0 0 0 0 0 0 0 0 0 0 0 0 0 0 127 0" result="hardAlpha"/>
<feOffset dx="4" dy="4"/>
<feGaussianBlur stdDeviation="4"/>
<feComposite in2="hardAlpha" operator="out"/>
<feColorMatrix type="matrix" values="0 0 0 0 0 0 0 0 0 0 0 0 0 0 0 0 0 0 0.2 0"/>
<feBlend mode="normal" in2="BackgroundImageFix" result="effect1_dropShadow_274_6332"/>
<feBlend mode="normal" in="SourceGraphic" in2="effect1_dropShadow_274_6332" result="shape"/>
</filter>
<clipPath id="clip0_274_6332">
<rect width="794" height="121" fill="white"/>
</clipPath>
</defs>
</svg>
