<svg width="216" height="64" viewBox="0 0 216 64" fill="none" xmlns="http://www.w3.org/2000/svg">
<path d="M207.633 63.1387H7.98543C3.59223 63.1387 0 59.6314 0 55.3474V8.56348C0 4.2795 3.59223 0.772217 7.98543 0.772217H207.633C212.027 0.772217 215.619 4.2795 215.619 8.56348V55.3474C215.619 59.6314 212.027 63.1387 207.633 63.1387Z" fill="#010101"/>
<path d="M207.633 2.01001C211.335 2.01001 214.344 4.9469 214.344 8.55126V55.3352C214.344 58.9517 211.335 61.8765 207.633 61.8765H7.98543C4.28398 61.8765 1.27427 58.9396 1.27427 55.3352V8.55126C1.27427 4.9469 4.28398 2.01001 7.98543 2.01001H207.633ZM207.633 0.76001H7.98543C3.59223 0.76001 0 4.26729 0 8.55126V55.3352C0 59.6192 3.59223 63.1265 7.98543 63.1265H207.633C212.027 63.1265 215.619 59.6192 215.619 55.3352V8.55126C215.619 4.26729 212.027 0.76001 207.633 0.76001Z" fill="#989999"/>
<path d="M75.7281 16.7431C75.7281 18.0416 75.3276 19.0853 74.5388 19.862C73.6286 20.7843 72.4514 21.2455 71.0072 21.2455C69.563 21.2455 68.4465 20.7722 67.4878 19.8498C66.5169 18.9032 66.0315 17.7503 66.0315 16.3668C66.0315 14.9834 66.5169 13.8183 67.4878 12.8838C68.4587 11.9494 69.6359 11.4761 71.0072 11.4761C71.699 11.4761 72.3543 11.6096 72.9732 11.8766C73.5922 12.1314 74.1019 12.4833 74.466 12.9202L73.6286 13.7455C72.9854 13.0052 72.1116 12.6411 70.9951 12.6411C69.9878 12.6411 69.114 12.9809 68.3737 13.6727C67.6456 14.3644 67.2694 15.2625 67.2694 16.3668C67.2694 17.4712 67.6334 18.3814 68.3737 19.0731C69.114 19.7528 69.9878 20.1047 70.9951 20.1047C72.063 20.1047 72.9611 19.7528 73.6771 19.061C74.1383 18.5999 74.4053 17.9688 74.4781 17.1678H70.9951V16.0392H75.631C75.6917 16.2819 75.7038 16.5246 75.7038 16.7431H75.7281Z" fill="white" stroke="white" stroke-width="0.16" stroke-miterlimit="10"/>
<path d="M83.0947 12.8354H78.7379V15.7965H82.6699V16.9252H78.7379V19.8863H83.0947V21.0392H77.5V11.6946H83.0947V12.8475V12.8354Z" fill="white" stroke="white" stroke-width="0.16" stroke-miterlimit="10"/>
<path d="M88.2889 21.027H87.051V12.8231H84.3811V11.6702H90.9588V12.8231H88.2889V21.027Z" fill="white" stroke="white" stroke-width="0.16" stroke-miterlimit="10"/>
<path d="M95.728 21.027V11.6824H96.9659V21.027H95.728Z" fill="white" stroke="white" stroke-width="0.16" stroke-miterlimit="10"/>
<path d="M102.415 21.027H101.189V12.8231H98.5071V11.6702H105.097V12.8231H102.415V21.027Z" fill="white" stroke="white" stroke-width="0.16" stroke-miterlimit="10"/>
<path d="M117.56 19.8255C116.614 20.7721 115.449 21.2454 114.053 21.2454C112.658 21.2454 111.48 20.7721 110.534 19.8255C109.587 18.8789 109.126 17.726 109.126 16.3546C109.126 14.9833 109.599 13.8304 110.534 12.8838C111.48 11.9372 112.645 11.4639 114.053 11.4639C115.461 11.4639 116.614 11.9372 117.56 12.8838C118.507 13.8304 118.98 14.9833 118.98 16.3425C118.98 17.7017 118.507 18.8668 117.573 19.8134L117.56 19.8255ZM111.444 19.0367C112.16 19.7406 113.022 20.0925 114.053 20.0925C115.085 20.0925 115.946 19.7406 116.65 19.0367C117.354 18.3328 117.718 17.4347 117.718 16.3425C117.718 15.2503 117.354 14.3522 116.65 13.6483C115.946 12.9444 115.073 12.5925 114.053 12.5925C113.034 12.5925 112.16 12.9444 111.444 13.6483C110.74 14.3522 110.376 15.2503 110.376 16.3425C110.376 17.4347 110.74 18.3328 111.444 19.0367Z" fill="white" stroke="white" stroke-width="0.16" stroke-miterlimit="10"/>
<path d="M120.704 21.027V11.6824H122.196L126.857 18.9518H126.905L126.857 17.1557V11.6824H128.094V21.027H126.808L121.929 13.3935H121.881L121.929 15.2018V21.027H120.704Z" fill="white" stroke="white" stroke-width="0.16" stroke-miterlimit="10"/>
<path d="M108.823 34.6799C105.073 34.6799 102.002 37.4711 102.002 41.3182C102.002 45.1653 105.06 47.9444 108.823 47.9444C112.585 47.9444 115.643 45.1289 115.643 41.3182C115.643 37.5075 112.573 34.6799 108.823 34.6799ZM108.823 45.3352C106.76 45.3352 104.988 43.6726 104.988 41.3182C104.988 38.9638 106.76 37.3012 108.823 37.3012C110.886 37.3012 112.658 38.9274 112.658 41.3182C112.658 43.709 110.874 45.3352 108.823 45.3352ZM93.9561 34.6799C90.194 34.6799 87.1358 37.4711 87.1358 41.3182C87.1358 45.1653 90.194 47.9444 93.9561 47.9444C97.7183 47.9444 100.777 45.1289 100.777 41.3182C100.777 37.5075 97.7183 34.6799 93.9561 34.6799ZM93.9561 45.3352C91.893 45.3352 90.1212 43.6726 90.1212 41.3182C90.1212 38.9638 91.893 37.3012 93.9561 37.3012C96.0192 37.3012 97.7911 38.9274 97.7911 41.3182C97.7911 43.709 96.0192 45.3352 93.9561 45.3352ZM76.262 36.7187V39.5342H83.1552C82.9489 41.1119 82.4149 42.2648 81.5896 43.0779C80.5824 44.0488 79.0168 45.1289 76.262 45.1289C72.0144 45.1289 68.7013 41.7915 68.7013 37.641C68.7013 33.4906 72.0265 30.1532 76.262 30.1532C78.5557 30.1532 80.2304 31.027 81.4562 32.1677L83.495 30.1774C81.7717 28.5755 79.478 27.3376 76.262 27.3376C70.4489 27.3376 65.5581 31.9614 65.5581 37.641C65.5581 43.3206 70.4489 47.9444 76.262 47.9444C79.4052 47.9444 81.7717 46.9371 83.6285 45.0561C85.5338 43.1993 86.1285 40.5901 86.1285 38.4784C86.1285 37.8231 86.0678 37.2163 85.9707 36.7187H76.262ZM148.628 38.9032C148.07 37.4226 146.335 34.6799 142.815 34.6799C139.296 34.6799 136.408 37.374 136.408 41.3182C136.408 45.0318 139.284 47.9444 143.143 47.9444C146.262 47.9444 148.07 46.0876 148.81 45.0075L146.493 43.5027C145.716 44.607 144.672 45.3352 143.143 45.3352C141.614 45.3352 140.546 44.6556 139.854 43.3206L148.944 39.6556L148.628 38.9032ZM139.369 41.1119C139.296 38.5512 141.408 37.2405 142.912 37.2405C144.102 37.2405 145.109 37.8231 145.437 38.6483L139.357 41.1119H139.369ZM131.99 47.5439H134.976V28.0537H131.99V47.5439ZM127.099 36.1605H127.002C126.335 35.3838 125.048 34.6799 123.434 34.6799C120.036 34.6799 116.917 37.5925 116.917 41.3304C116.917 45.0682 120.024 47.9444 123.434 47.9444C125.06 47.9444 126.335 47.2405 127.002 46.4396H127.099V47.3862C127.099 49.9226 125.716 51.2818 123.471 51.2818C121.65 51.2818 120.51 49.9954 120.048 48.9153L117.451 49.9711C118.204 51.7308 120.182 53.891 123.471 53.891C126.978 53.891 129.927 51.8765 129.927 46.9857V35.0804H127.099V36.1483V36.1605ZM123.677 45.3352C121.614 45.3352 119.891 43.6483 119.891 41.3425C119.891 39.0367 121.614 37.3012 123.677 37.3012C125.74 37.3012 127.306 39.0124 127.306 41.3425C127.306 43.6726 125.704 45.3352 123.677 45.3352ZM162.621 28.0537H155.473V47.5439H158.446V40.1532H162.609C165.922 40.1532 169.162 37.8109 169.162 34.0973C169.162 30.3838 165.91 28.0415 162.609 28.0415L162.621 28.0537ZM162.694 37.4469H158.446V30.76H162.694C164.915 30.76 166.189 32.5682 166.189 34.0973C166.189 35.6265 164.915 37.4347 162.694 37.4347V37.4469ZM181.104 34.6435C178.956 34.6435 176.711 35.5779 175.789 37.6289L178.434 38.709C179.005 37.6289 180.048 37.277 181.153 37.277C182.694 37.277 184.259 38.1871 184.284 39.7891V39.9954C183.75 39.692 182.597 39.243 181.177 39.243C178.325 39.243 175.425 40.7721 175.425 43.624C175.425 46.2333 177.755 47.9202 180.376 47.9202C182.378 47.9202 183.483 47.0342 184.187 46.0148H184.284V47.5197H187.16V40.0439C187.16 36.5852 184.514 34.6556 181.092 34.6556L181.104 34.6435ZM180.74 45.3231C179.769 45.3231 178.41 44.8498 178.41 43.6726C178.41 42.1677 180.097 41.5852 181.565 41.5852C182.876 41.5852 183.495 41.8643 184.284 42.2405C184.053 44.0488 182.463 45.3231 180.74 45.3231ZM197.645 35.0682L194.223 43.5148H194.126L190.582 35.0682H187.366L192.682 46.8765L189.648 53.442H192.755L200.946 35.0682H197.633H197.645ZM170.801 47.5439H173.786V28.0537H170.801V47.5439Z" fill="white"/>
<path d="M16.6627 12.5199C16.1894 13.0053 15.9224 13.7456 15.9224 14.7165V49.2067C15.9224 50.1776 16.1894 50.9179 16.6627 51.4033L16.784 51.5126L36.5777 32.1922V31.731L16.784 12.4106L16.6627 12.5199Z" fill="url(#paint0_linear_274_6468)"/>
<path d="M43.1672 38.6239L36.5774 32.1798V31.7186L43.1793 25.2744L43.325 25.3594L51.1405 29.704C53.3735 30.9419 53.3735 32.9686 51.1405 34.2064L43.325 38.539L43.1672 38.6239Z" fill="url(#paint1_linear_274_6468)"/>
<path d="M43.3253 38.539L36.5777 31.9492L16.6748 51.391C17.4151 52.1555 18.6287 52.2405 20 51.488L43.3374 38.539" fill="url(#paint2_linear_274_6468)"/>
<path d="M43.3252 25.3595L19.9878 12.4105C18.6165 11.658 17.4029 11.7551 16.6626 12.5075L36.5655 31.9371L43.3131 25.3473L43.3252 25.3595Z" fill="url(#paint3_linear_274_6468)"/>
<defs>
<linearGradient id="paint0_linear_274_6468" x1="34.6238" y1="49.7528" x2="8.45878" y2="22.9568" gradientUnits="userSpaceOnUse">
<stop stop-color="#428BCA"/>
<stop offset="0.26" stop-color="#3CACE3"/>
<stop offset="0.51" stop-color="#39BEEB"/>
<stop offset="0.76" stop-color="#4FC1E2"/>
<stop offset="1" stop-color="#56C2E0"/>
</linearGradient>
<linearGradient id="paint1_linear_274_6468" x1="54.041" y1="31.9492" x2="15.3881" y2="31.9492" gradientUnits="userSpaceOnUse">
<stop stop-color="#F2D316"/>
<stop offset="0.41" stop-color="#F1B019"/>
<stop offset="0.78" stop-color="#F19817"/>
<stop offset="1" stop-color="#F08F16"/>
</linearGradient>
<linearGradient id="paint2_linear_274_6468" x1="26.4078" y1="41.2939" x2="-9.06546" y2="4.95895" gradientUnits="userSpaceOnUse">
<stop stop-color="#E83F47"/>
<stop offset="1" stop-color="#B51864"/>
</linearGradient>
<linearGradient id="paint3_linear_274_6468" x1="-0.910205" y1="50.6022" x2="14.9272" y2="34.3643" gradientUnits="userSpaceOnUse">
<stop stop-color="#3E9273"/>
<stop offset="0.07" stop-color="#399972"/>
<stop offset="0.48" stop-color="#48B275"/>
<stop offset="0.8" stop-color="#59B56E"/>
<stop offset="1" stop-color="#65B76C"/>
</linearGradient>
</defs>
</svg>
