<svg width="216" height="63" viewBox="0 0 216 63" fill="none" xmlns="http://www.w3.org/2000/svg">
<path d="M214.721 55.182C214.721 58.5073 211.978 61.2015 208.568 61.2015H7.35431C3.95626 61.2015 1.20142 58.5073 1.20142 55.182V7.19666C1.20142 3.87142 3.95626 1.17725 7.35431 1.17725H208.568C211.966 1.17725 214.721 3.88355 214.721 7.19666V55.182Z" fill="#010101"/>
<path d="M207.925 1.25C211.626 1.25 214.636 4.18689 214.636 7.79125V54.5752C214.636 58.1917 211.626 61.1164 207.925 61.1164H7.99756C4.29611 61.1164 1.2864 58.1796 1.2864 54.5752V7.79125C1.2864 4.18689 4.29611 1.25 7.99756 1.25H207.912H207.925ZM207.925 0H7.99756C3.60436 0 0 3.50728 0 7.79125V54.5752C0 58.8592 3.60436 62.3664 7.99756 62.3664H207.912C212.306 62.3664 215.91 58.8592 215.91 54.5752V7.79125C215.91 3.50728 212.306 0 207.912 0H207.925Z" fill="#989999"/>
<path d="M48.1916 30.8496C48.1431 25.8253 52.4149 23.3739 52.6091 23.2646C50.194 19.8302 46.444 19.3569 45.1333 19.3205C41.9901 18.9928 38.9319 21.153 37.3299 21.153C35.728 21.153 33.228 19.3447 30.5703 19.4054C27.1479 19.454 23.944 21.3836 22.1843 24.3933C18.5557 30.5098 21.262 39.5025 24.7329 44.4418C26.4683 46.869 28.495 49.5631 31.1528 49.4782C33.7499 49.369 34.7207 47.8641 37.8639 47.8641C41.0071 47.8641 41.8809 49.4782 44.5872 49.4175C47.3785 49.369 49.1382 46.9903 50.8129 44.5389C52.8154 41.7598 53.6285 39.0292 53.6528 38.8835C53.5921 38.8593 48.2401 36.869 48.1795 30.8496H48.1916Z" fill="white"/>
<path d="M43.0705 16.0801C44.4661 14.3811 45.4249 12.051 45.1579 9.70874C43.1312 9.79369 40.6069 11.068 39.1506 12.7427C37.8642 14.2112 36.7113 16.6141 37.0025 18.8835C39.2719 19.0534 41.6142 17.767 43.0705 16.0922V16.0801Z" fill="white"/>
<path d="M85.8008 49.1259H82.1721L80.1818 43.0337H73.2644L71.3712 49.1259H67.8396L74.6964 28.3735H78.9318L85.8129 49.1259H85.8008ZM79.575 40.473L77.7789 35.0604C77.5847 34.5022 77.2328 33.2036 76.7109 31.1527H76.6503C76.444 32.0386 76.1042 33.3371 75.643 35.0604L73.8711 40.473H79.5872H79.575Z" fill="white"/>
<path d="M103.422 41.4683C103.422 44.0168 102.718 46.0192 101.311 47.4998C100.048 48.8105 98.4829 49.4658 96.6019 49.4658C94.5752 49.4658 93.131 48.762 92.2451 47.3421H92.1844V55.2183H88.7742V39.0775C88.7742 37.4756 88.7256 35.8372 88.6528 34.1503H91.6504L91.8446 36.529H91.9053C93.0461 34.745 94.7693 33.8469 97.0873 33.8469C98.8956 33.8469 100.413 34.5387 101.614 35.9343C102.828 37.3299 103.434 39.1625 103.434 41.444L103.422 41.4683ZM99.9514 41.5896C99.9514 40.1333 99.6116 38.9319 98.9441 37.9853C98.2038 37.0023 97.2208 36.5047 95.9708 36.5047C95.1334 36.5047 94.3689 36.7838 93.6771 37.3178C92.9975 37.8639 92.5485 38.5799 92.33 39.4537C92.2208 39.8663 92.1723 40.2061 92.1723 40.4731V42.9731C92.1723 44.0654 92.5121 44.9756 93.2038 45.728C93.8834 46.4804 94.7815 46.8566 95.8737 46.8566C97.1601 46.8566 98.1553 46.3712 98.8713 45.4124C99.5873 44.4416 99.9514 43.1794 99.9514 41.5896Z" fill="white"/>
<path d="M121.08 41.4683C121.08 44.0168 120.376 46.0192 118.969 47.4998C117.706 48.8105 116.141 49.4658 114.26 49.4658C112.233 49.4658 110.789 48.762 109.903 47.3421H109.842V55.2183H106.432V39.0775C106.432 37.4756 106.384 35.8372 106.311 34.1503H109.308L109.503 36.529H109.563C110.704 34.745 112.427 33.8469 114.745 33.8469C116.553 33.8469 118.07 34.5387 119.284 35.9343C120.498 37.3299 121.092 39.1625 121.092 41.444L121.08 41.4683ZM117.609 41.5896C117.609 40.1333 117.269 38.9319 116.602 37.9853C115.862 37.0023 114.879 36.5047 113.641 36.5047C112.804 36.5047 112.039 36.7838 111.347 37.3178C110.668 37.8639 110.219 38.5799 110.012 39.4537C109.903 39.8663 109.854 40.2061 109.854 40.4731V42.9731C109.854 44.0654 110.194 44.9756 110.874 45.728C111.554 46.4804 112.452 46.8566 113.544 46.8566C114.83 46.8566 115.825 46.3712 116.541 45.4124C117.257 44.4416 117.621 43.1794 117.621 41.5896H117.609Z" fill="white"/>
<path d="M140.813 43.3129C140.813 45.0726 140.182 46.5168 138.92 47.6212C137.536 48.8347 135.607 49.4415 133.119 49.4415C130.825 49.4415 128.993 49.0168 127.597 48.1551L128.386 45.3882C129.879 46.2741 131.529 46.711 133.313 46.711C134.6 46.711 135.595 46.4318 136.311 45.8615C137.027 45.3032 137.379 44.5386 137.379 43.592C137.379 42.7547 137.087 42.0386 136.493 41.4683C135.91 40.8979 134.927 40.3517 133.556 39.8663C129.83 38.5071 127.973 36.5289 127.973 33.9197C127.973 32.2086 128.629 30.8129 129.939 29.7328C131.238 28.6406 132.973 28.0945 135.146 28.0945C137.087 28.0945 138.689 28.4221 139.976 29.0775L139.126 31.7838C137.925 31.1527 136.566 30.8251 135.049 30.8251C133.847 30.8251 132.913 31.1163 132.245 31.6867C131.675 32.1964 131.396 32.8275 131.396 33.5678C131.396 34.393 131.723 35.0605 132.367 35.5945C132.937 36.092 133.968 36.626 135.461 37.1964C137.294 37.9124 138.641 38.7498 139.502 39.7207C140.364 40.6794 140.789 41.8809 140.789 43.325L140.813 43.3129Z" fill="white"/>
<path d="M152.087 36.6627H148.325V43.9321C148.325 45.7767 148.993 46.6991 150.315 46.6991C150.922 46.6991 151.432 46.6505 151.832 46.5413L151.929 49.0656C151.262 49.3083 150.376 49.4296 149.272 49.4296C147.925 49.4296 146.869 49.0292 146.116 48.2282C145.364 47.4272 144.976 46.0801 144.976 44.1991V36.6505H142.73V34.1505H144.976V31.4078L148.325 30.4248V34.1505H152.087V36.6505V36.6627Z" fill="white"/>
<path d="M169.041 41.5291C169.041 43.8349 168.361 45.716 167.014 47.1966C165.607 48.7136 163.726 49.4781 161.395 49.4781C159.065 49.4781 157.354 48.75 156.019 47.2937C154.684 45.8374 154.017 43.9927 154.017 41.784C154.017 39.5752 154.709 37.5607 156.08 36.0922C157.451 34.6116 159.32 33.8713 161.65 33.8713C163.98 33.8713 165.716 34.5995 167.087 36.0558C168.398 37.4757 169.053 39.2961 169.053 41.5291H169.041ZM165.51 41.6383C165.51 40.2548 165.206 39.0776 164.599 38.0825C163.883 36.8932 162.864 36.2864 161.541 36.2864C160.218 36.2864 159.126 36.881 158.41 38.0825C157.791 39.0655 157.5 40.267 157.5 41.699C157.5 43.131 157.803 44.2597 158.41 45.2427C159.15 46.432 160.182 47.0267 161.505 47.0267C162.827 47.0267 163.823 46.4199 164.563 45.2063C165.194 44.199 165.51 43.0097 165.51 41.6262V41.6383Z" fill="white"/>
<path d="M180.121 37.0873C179.781 37.0266 179.429 36.9902 179.041 36.9902C177.839 36.9902 176.917 37.4271 176.262 38.313C175.691 39.0897 175.412 40.0727 175.412 41.2742V49.1261H172.002L172.039 38.8713C172.039 37.148 171.99 35.5703 171.905 34.1625H174.878L175 37.0266H175.097C175.461 36.0436 176.019 35.2548 176.796 34.6601C177.56 34.1261 178.373 33.8591 179.259 33.8591C179.575 33.8591 179.854 33.8834 180.109 33.9198V37.0873H180.121Z" fill="white"/>
<path d="M195.376 40.9468C195.376 41.5414 195.34 42.039 195.255 42.4516H185.024C185.061 43.9322 185.558 45.0609 186.505 45.8376C187.366 46.5293 188.483 46.8812 189.854 46.8812C191.371 46.8812 192.755 46.6507 193.993 46.1774L194.527 48.4832C193.07 49.1021 191.359 49.4055 189.381 49.4055C187.002 49.4055 185.133 48.7259 183.774 47.3545C182.415 45.9953 181.735 44.1628 181.735 41.857C181.735 39.5512 182.366 37.7186 183.629 36.2259C184.951 34.624 186.747 33.823 188.993 33.823C191.238 33.823 192.876 34.624 194.017 36.2259C194.915 37.5002 195.364 39.0657 195.364 40.9346L195.376 40.9468ZM192.124 40.0851C192.148 39.1021 191.917 38.2526 191.456 37.5245C190.862 36.6021 189.963 36.141 188.738 36.141C187.621 36.141 186.711 36.59 186.019 37.5002C185.449 38.2162 185.109 39.0779 185.012 40.0851H192.112H192.124Z" fill="white"/>
<path d="M78.4587 15.6069C78.4587 17.4394 77.8883 18.8229 76.7718 19.7452C75.7281 20.6069 74.2475 21.0316 72.3179 21.0316C71.3592 21.0316 70.5461 20.9952 69.8665 20.9103V10.886C70.7524 10.7404 71.7111 10.6797 72.7548 10.6797C74.5873 10.6797 75.9708 11.068 76.8932 11.8447C77.9368 12.7185 78.4587 13.9807 78.4587 15.6069ZM76.6868 15.6554C76.6868 14.4661 76.3592 13.5559 75.716 12.9127C75.0728 12.2816 74.1261 11.954 72.8883 11.954C72.3664 11.954 71.9174 11.9904 71.5412 12.0632V19.6845C71.7475 19.7209 72.1237 19.7331 72.6698 19.7331C73.9563 19.7331 74.9393 19.3811 75.6431 18.6894C76.3349 17.9976 76.6868 16.9782 76.6868 15.6433V15.6554Z" fill="white"/>
<path d="M87.8275 17.2088C87.8275 18.3374 87.4999 19.2719 86.8324 19.9879C86.1406 20.7282 85.2183 21.1044 84.0654 21.1044C82.9125 21.1044 82.0751 20.7525 81.4198 20.0243C80.7644 19.3083 80.4368 18.4102 80.4368 17.318C80.4368 16.2258 80.7766 15.2428 81.4562 14.5146C82.1358 13.7864 83.046 13.4224 84.1989 13.4224C85.3518 13.4224 86.1892 13.7743 86.8688 14.4903C87.512 15.1821 87.8275 16.0801 87.8275 17.1845V17.2088ZM86.0921 17.2573C86.0921 16.5777 85.9465 15.9952 85.6431 15.5097C85.2911 14.9272 84.7935 14.6238 84.1382 14.6238C83.4829 14.6238 82.9489 14.9151 82.597 15.5097C82.2936 15.9952 82.1479 16.5898 82.1479 17.2816C82.1479 17.9733 82.2936 18.5437 82.597 19.0292C82.961 19.6117 83.4707 19.9029 84.1139 19.9029C84.7572 19.9029 85.2547 19.5995 85.6188 19.0049C85.9343 18.5073 86.08 17.9248 86.08 17.2452L86.0921 17.2573Z" fill="white"/>
<path d="M100.388 13.6042L98.0338 20.9586H96.4925L95.5095 17.7669C95.2668 16.9659 95.0605 16.1771 94.9027 15.3882H94.8784C94.7328 16.2013 94.5265 16.9902 94.2716 17.7669L93.2401 20.9586H91.6867L89.4658 13.6042H91.1891L92.0386 17.0994C92.2449 17.9246 92.4149 18.7135 92.5484 19.4538H92.5848C92.7061 18.8348 92.9124 18.0581 93.2037 17.1115L94.2716 13.6042H95.643L96.6746 17.0387C96.9173 17.8761 97.1236 18.6771 97.2814 19.4538H97.3299C97.4391 18.7013 97.6211 17.8882 97.8396 17.0387L98.7498 13.6042H100.4H100.388Z" fill="white"/>
<path d="M109.078 20.9468H107.403V16.7356C107.403 15.4371 106.893 14.7939 105.886 14.7939C105.388 14.7939 104.988 14.9759 104.672 15.3278C104.369 15.6798 104.211 16.1045 104.211 16.59V20.9468H102.536V15.6919C102.536 15.0487 102.512 14.3448 102.476 13.5924H103.944L104.029 14.7453H104.078C104.272 14.3934 104.563 14.09 104.951 13.8594C105.4 13.5803 105.91 13.4468 106.468 13.4468C107.172 13.4468 107.755 13.6652 108.228 14.1142C108.811 14.6604 109.102 15.4735 109.102 16.5536V20.9589L109.078 20.9468Z" fill="white"/>
<path d="M113.701 20.9464H112.027V10.2183H113.701V20.9464Z" fill="white"/>
<path d="M123.568 17.2088C123.568 18.3374 123.24 19.2719 122.573 19.9879C121.881 20.7282 120.959 21.1044 119.806 21.1044C118.653 21.1044 117.815 20.7525 117.16 20.0243C116.505 19.3083 116.177 18.4102 116.177 17.318C116.177 16.2258 116.517 15.2428 117.196 14.5146C117.876 13.7864 118.786 13.4224 119.939 13.4224C121.092 13.4224 121.929 13.7743 122.609 14.4903C123.252 15.1821 123.568 16.0801 123.568 17.1845V17.2088ZM121.832 17.2573C121.832 16.5777 121.687 15.9952 121.383 15.5097C121.031 14.9272 120.534 14.6238 119.878 14.6238C119.223 14.6238 118.689 14.9151 118.337 15.5097C118.034 15.9952 117.888 16.5898 117.888 17.2816C117.888 17.9733 118.034 18.5437 118.337 19.0292C118.701 19.6117 119.211 19.9029 119.854 19.9029C120.497 19.9029 120.995 19.5995 121.359 19.0049C121.675 18.5073 121.82 17.9248 121.82 17.2452L121.832 17.2573Z" fill="white"/>
<path d="M131.674 20.9466H130.17L130.048 20.0971H130C129.49 20.7767 128.75 21.1165 127.803 21.1165C127.087 21.1165 126.517 20.8981 126.08 20.449C125.691 20.0485 125.485 19.551 125.485 18.9563C125.485 18.0582 125.873 17.3786 126.638 16.8932C127.415 16.4199 128.495 16.1893 129.89 16.2015V16.068C129.89 15.0971 129.369 14.6117 128.325 14.6117C127.585 14.6117 126.929 14.7937 126.359 15.1578L126.019 14.0898C126.723 13.6651 127.585 13.4587 128.604 13.4587C130.57 13.4587 131.565 14.4782 131.565 16.5049V19.2112C131.565 19.9393 131.602 20.534 131.674 20.9587V20.9466ZM129.939 18.4223V17.2937C128.094 17.2573 127.16 17.7549 127.16 18.7743C127.16 19.1626 127.269 19.4417 127.475 19.6359C127.694 19.8301 127.961 19.9272 128.288 19.9272C128.653 19.9272 129.005 19.818 129.32 19.5874C129.636 19.3568 129.83 19.0655 129.903 18.7136C129.915 18.6286 129.927 18.5316 129.927 18.4223H129.939Z" fill="white"/>
<path d="M141.201 20.9464H139.708L139.636 19.7692H139.587C139.114 20.6673 138.301 21.1163 137.172 21.1163C136.262 21.1163 135.509 20.7644 134.903 20.0726C134.308 19.3809 134.005 18.4707 134.005 17.3663C134.005 16.177 134.332 15.2061 134.988 14.478C135.619 13.7862 136.395 13.4464 137.318 13.4464C138.325 13.4464 139.041 13.7741 139.442 14.4416H139.478V10.2183H141.153V18.9561C141.153 19.6721 141.177 20.3275 141.213 20.9343L141.201 20.9464ZM139.466 17.8518V16.626C139.466 16.4197 139.454 16.2377 139.417 16.1163C139.32 15.728 139.114 15.3882 138.81 15.1212C138.495 14.8542 138.119 14.7207 137.694 14.7207C137.063 14.7207 136.577 14.9634 136.213 15.4488C135.861 15.9343 135.679 16.5532 135.679 17.3056C135.679 18.0581 135.849 18.6163 136.201 19.0775C136.565 19.5629 137.051 19.8056 137.67 19.8056C138.216 19.8056 138.665 19.5993 138.992 19.1988C139.32 18.8226 139.478 18.3736 139.478 17.8518H139.466Z" fill="white"/>
<path d="M155.534 17.2088C155.534 18.3374 155.206 19.2719 154.539 19.9879C153.847 20.7282 152.925 21.1044 151.772 21.1044C150.619 21.1044 149.781 20.7525 149.126 20.0243C148.471 19.3083 148.143 18.4102 148.143 17.318C148.143 16.2258 148.483 15.2428 149.162 14.5146C149.842 13.7864 150.752 13.4224 151.905 13.4224C153.058 13.4224 153.895 13.7743 154.575 14.4903C155.218 15.1821 155.534 16.0801 155.534 17.1845V17.2088ZM153.798 17.2573C153.798 16.5777 153.653 15.9952 153.349 15.5097C152.997 14.9272 152.5 14.6238 151.845 14.6238C151.189 14.6238 150.655 14.9151 150.303 15.5097C150 15.9952 149.854 16.5898 149.854 17.2816C149.854 17.9733 150 18.5437 150.303 19.0292C150.667 19.6117 151.177 19.9029 151.82 19.9029C152.463 19.9029 152.961 19.5995 153.325 19.0049C153.628 18.5073 153.786 17.9248 153.786 17.2452L153.798 17.2573Z" fill="white"/>
<path d="M164.551 20.9468H162.876V16.7356C162.876 15.4371 162.366 14.7939 161.359 14.7939C160.861 14.7939 160.461 14.9759 160.145 15.3278C159.83 15.6798 159.684 16.1045 159.684 16.59V20.9468H158.009V15.6919C158.009 15.0487 157.985 14.3448 157.949 13.5924H159.417L159.49 14.7453H159.539C159.733 14.3934 160.024 14.09 160.412 13.8594C160.873 13.5803 161.371 13.4468 161.929 13.4468C162.633 13.4468 163.216 13.6652 163.677 14.1142C164.259 14.6604 164.551 15.4735 164.551 16.5536V20.9589V20.9468Z" fill="white"/>
<path d="M175.837 14.8178H173.993V18.3857C173.993 19.2959 174.32 19.745 174.964 19.745C175.267 19.745 175.51 19.7207 175.716 19.6721L175.765 20.91C175.437 21.0314 175 21.092 174.466 21.092C173.799 21.092 173.289 20.8979 172.913 20.4974C172.536 20.109 172.354 19.4416 172.354 18.5192V14.8178H171.25V13.592H172.354V12.245L173.993 11.7595V13.592H175.837V14.8178Z" fill="white"/>
<path d="M184.709 20.9466H183.034V16.7718C183.034 15.449 182.524 14.7937 181.517 14.7937C180.74 14.7937 180.206 15.1699 179.915 15.9345C179.867 16.0922 179.842 16.2864 179.842 16.517V20.9345H178.167V10.2063H179.842V14.6359H179.879C180.4 13.8349 181.165 13.4223 182.148 13.4223C182.84 13.4223 183.41 13.6408 183.871 14.0898C184.442 14.648 184.721 15.4612 184.721 16.5534V20.9223L184.709 20.9466Z" fill="white"/>
<path d="M193.859 16.9297C193.859 17.221 193.835 17.4637 193.798 17.67H188.774C188.798 18.3982 189.041 18.9564 189.502 19.3326C189.927 19.6724 190.473 19.8423 191.153 19.8423C191.893 19.8423 192.573 19.721 193.192 19.4904L193.459 20.6312C192.742 20.9346 191.905 21.0802 190.922 21.0802C189.757 21.0802 188.835 20.7404 188.167 20.0729C187.5 19.4054 187.172 18.5074 187.172 17.3787C187.172 16.2501 187.488 15.352 188.107 14.6118C188.762 13.8229 189.636 13.4346 190.74 13.4346C191.844 13.4346 192.645 13.8229 193.204 14.6118C193.653 15.2307 193.871 16.0074 193.871 16.9297H193.859ZM192.257 16.505C192.269 16.0195 192.16 15.6069 191.929 15.255C191.638 14.8059 191.201 14.5753 190.594 14.5753C190.048 14.5753 189.599 14.7938 189.259 15.2428C188.98 15.5948 188.823 16.0195 188.762 16.5171H192.257V16.505Z" fill="white"/>
</svg>
