<svg width="122" height="122" viewBox="0 0 122 122" fill="none" xmlns="http://www.w3.org/2000/svg">
<circle cx="61" cy="61" r="50" fill="#FB0F01"/>
<path d="M43.3759 54.9364L46.817 65.006H46.9558L50.3969 54.9364H52.4132L47.964 67.3H45.8088L41.3596 54.9364H43.3759ZM54.0538 67.3V58.0273H55.8588V67.3H54.0538ZM54.9653 56.5966C54.6514 56.5966 54.3818 56.4919 54.1564 56.2826C53.935 56.0693 53.8244 55.8158 53.8244 55.522C53.8244 55.2242 53.935 54.9706 54.1564 54.7613C54.3818 54.548 54.6514 54.4414 54.9653 54.4414C55.2793 54.4414 55.5469 54.548 55.7682 54.7613C55.9936 54.9706 56.1063 55.2242 56.1063 55.522C56.1063 55.8158 55.9936 56.0693 55.7682 56.2826C55.5469 56.4919 55.2793 56.5966 54.9653 56.5966ZM62.2836 67.4872C61.37 67.4872 60.5832 67.292 59.9232 66.9016C59.2671 66.5072 58.76 65.9538 58.4019 65.2415C58.0477 64.5251 57.8706 63.6859 57.8706 62.7241C57.8706 61.7742 58.0477 60.9371 58.4019 60.2127C58.76 59.4883 59.2591 58.9228 59.899 58.5163C60.543 58.1098 61.2956 57.9066 62.1568 57.9066C62.68 57.9066 63.1871 57.9931 63.6781 58.1662C64.1691 58.3392 64.6098 58.6109 65.0002 58.9812C65.3906 59.3514 65.6985 59.8324 65.9239 60.424C66.1493 61.0116 66.2619 61.7259 66.2619 62.5671V63.207H58.8908V61.8547H64.4931C64.4931 61.3798 64.3965 60.9593 64.2033 60.593C64.0102 60.2228 63.7385 59.931 63.3884 59.7177C63.0422 59.5044 62.6358 59.3977 62.1689 59.3977C61.6618 59.3977 61.2191 59.5225 60.8408 59.772C60.4665 60.0175 60.1767 60.3395 59.9715 60.7379C59.7702 61.1323 59.6696 61.5609 59.6696 62.0238V63.0802C59.6696 63.7 59.7783 64.2273 59.9956 64.6619C60.217 65.0966 60.5248 65.4286 60.9193 65.658C61.3137 65.8834 61.7745 65.9961 62.3017 65.9961C62.6438 65.9961 62.9557 65.9478 63.2374 65.8512C63.5192 65.7506 63.7627 65.6017 63.9679 65.4045C64.1732 65.2072 64.3301 64.9638 64.4388 64.674L66.1472 64.9819C66.0104 65.4849 65.7649 65.9256 65.4107 66.304C65.0606 66.6782 64.6199 66.97 64.0886 67.1793C63.5614 67.3846 62.9597 67.4872 62.2836 67.4872ZM70.2584 67.3L67.5297 58.0273H69.3951L71.2122 64.837H71.3028L73.1259 58.0273H74.9913L76.8024 64.8068H76.893L78.698 58.0273H80.5634L77.8408 67.3H75.9995L74.116 60.6051H73.9771L72.0936 67.3H70.2584Z" fill="black"/>
</svg>
