<svg width="1539" height="926" viewBox="0 0 1539 926" fill="none" xmlns="http://www.w3.org/2000/svg">
<g clip-path="url(#clip0_226_1379)">
<rect width="1539" height="926" fill="white"/>
<path d="M867.5 766C991.488 766 1092 665.488 1092 541.5C1092 417.512 991.488 317 867.5 317C743.512 317 643 417.512 643 541.5C643 665.488 743.512 766 867.5 766Z" fill="#F2D74E"/>
<path d="M540.913 695.535C597.145 723.131 665.277 699.557 693.091 642.881C720.905 586.205 697.867 517.889 641.636 490.293L455.539 398.966C399.308 371.371 331.175 394.945 303.361 451.621C275.548 508.297 298.585 576.613 354.817 604.208L540.913 695.535Z" fill="#9046A7"/>
<path fill-rule="evenodd" clip-rule="evenodd" d="M516.591 729.772C440.602 653.783 440.602 530.58 516.591 454.591C592.58 378.602 715.783 378.602 791.772 454.591L753.467 492.896C801.913 493.893 850.058 512.877 887.028 549.846L848.723 588.151C897.169 589.149 945.313 608.132 982.282 645.101L707.101 920.283C670.132 883.313 651.148 835.169 650.151 786.723L611.846 825.028C574.877 788.058 555.893 739.913 554.896 691.467L516.591 729.772Z" fill="#50AA75"/>
<path fill-rule="evenodd" clip-rule="evenodd" d="M1367.9 661.9C1341.61 707.331 1283.45 722.895 1237.99 696.663L1216.22 684.102L1203.63 705.858C1177.35 751.289 1119.18 766.853 1073.72 740.621C1028.26 714.389 1012.72 656.295 1039 610.864L1051.59 589.107L1029.82 576.549C984.363 550.317 968.817 492.223 995.102 446.792C1021.39 401.361 1079.55 385.797 1125.01 412.029L1146.77 424.587L1159.36 402.838C1185.64 357.407 1243.8 341.843 1289.26 368.075C1334.73 394.307 1350.27 452.402 1323.99 497.833L1311.4 519.581L1333.17 532.143C1378.64 558.375 1394.18 616.47 1367.9 661.9Z" fill="#D82F24"/>
<g filter="url(#filter0_d_226_1379)">
<path fill-rule="evenodd" clip-rule="evenodd" d="M236 512C208.386 512 186 534.386 186 562V998H1408V562C1408 534.386 1385.61 512 1358 512H236ZM685 564C651.311 564 624 591.311 624 625C624 658.689 651.311 686 685 686H910C943.689 686 971 658.689 971 625C971 591.311 943.689 564 910 564H685Z" fill="#E0E0E0"/>
</g>
<rect x="407.825" y="348.962" width="492.604" height="96.8978" rx="48.4489" transform="rotate(-4.28799 407.825 348.962)" fill="#202020"/>
<path d="M496.416 402.822L494.572 378.231L510.676 377.023L510.995 381.267L500.037 382.088L500.531 388.683L510.535 387.933L510.84 392.006L500.836 392.756L501.562 402.436L496.416 402.822ZM516.999 379.514C515.465 379.629 514.095 378.498 513.98 376.964C513.864 375.413 515.05 374.09 516.584 373.975C518.118 373.86 519.471 374.993 519.587 376.543C519.702 378.077 518.533 379.399 516.999 379.514ZM516.117 401.345L514.71 382.582L519.686 382.209L521.093 400.972L516.117 401.345ZM525.405 400.649L523.999 381.885L528.975 381.512L529.192 384.409L529.499 384.386C530.199 382.294 531.961 380.877 534.636 380.676C538.811 380.363 541.253 382.751 541.589 387.233L542.499 399.367L537.522 399.74L536.697 388.731C536.499 386.089 535.303 384.774 532.951 384.95C530.651 385.123 529.377 386.88 529.568 389.42L530.382 400.275L525.405 400.649ZM551.758 398.964C548.179 399.232 545.474 397.207 545.218 393.799L545.215 393.765C544.962 390.39 547.422 388.218 552.071 387.595L556.583 386.983L556.467 385.432C556.346 383.813 555.169 382.976 553.124 383.129C551.335 383.263 550.24 383.979 549.931 385.117L549.902 385.187L545.301 385.532L545.306 385.378C545.452 382.059 548.39 379.645 553.11 379.291C558.087 378.918 561.075 381.059 561.375 385.064L562.336 397.88L557.428 398.248L557.241 395.759L556.935 395.782C556.111 397.592 554.212 398.78 551.758 398.964ZM550.052 393.128C550.159 394.559 551.434 395.338 553.156 395.209C555.456 395.036 557.064 393.391 556.916 391.414L556.812 390.033L553.047 390.556C550.927 390.852 549.947 391.731 550.049 393.094L550.052 393.128ZM566.512 397.566L565.105 378.803L570.081 378.43L570.299 381.327L570.605 381.304C571.306 379.212 573.067 377.795 575.743 377.594C579.918 377.281 582.359 379.669 582.695 384.151L583.605 396.285L578.629 396.658L577.803 385.649C577.605 383.007 576.41 381.692 574.058 381.868C571.758 382.04 570.484 383.798 570.674 386.338L571.488 397.193L566.512 397.566ZM596.025 395.748C590.162 396.187 586.572 392.875 586.104 386.637L586.102 386.603C585.639 380.434 588.678 376.624 594.558 376.183C599.534 375.81 602.686 378.299 603.443 382.458L603.447 382.509L598.811 382.857L598.792 382.824C598.331 381.025 596.998 379.925 594.868 380.085C592.192 380.285 590.882 382.474 591.163 386.224L591.166 386.258C591.451 390.058 593.091 392.043 595.749 391.844C597.794 391.69 598.931 390.628 599.234 388.721L599.263 388.65L603.864 388.305L603.855 388.408C603.65 392.537 600.916 395.381 596.025 395.748ZM608.467 372.656C606.933 372.771 605.563 371.639 605.448 370.106C605.332 368.555 606.518 367.232 608.052 367.117C609.586 367.002 610.939 368.134 611.055 369.685C611.17 371.219 610.001 372.541 608.467 372.656ZM607.585 394.487L606.178 375.724L611.154 375.35L612.561 394.114L607.585 394.487ZM622.008 393.697C618.429 393.965 615.723 391.94 615.468 388.532L615.465 388.497C615.212 385.123 617.671 382.951 622.321 382.328L626.833 381.715L626.717 380.165C626.596 378.546 625.419 377.708 623.374 377.862C621.584 377.996 620.49 378.712 620.181 379.849L620.152 379.92L615.551 380.265L615.556 380.11C615.702 376.792 618.64 374.378 623.36 374.024C628.337 373.651 631.325 375.792 631.625 379.797L632.586 392.612L627.678 392.98L627.491 390.492L627.185 390.515C626.361 392.325 624.462 393.513 622.008 393.697ZM620.302 387.861C620.409 389.292 621.684 390.071 623.406 389.942C625.706 389.769 627.314 388.123 627.165 386.146L627.062 384.766L623.297 385.288C621.177 385.584 620.197 386.463 620.299 387.827L620.302 387.861ZM636.932 392.286L634.988 366.348L639.964 365.975L641.909 391.913L636.932 392.286ZM655.152 390.92L653.308 366.329L669.6 365.107L669.918 369.35L658.773 370.186L659.217 376.117L669.732 375.328L670.029 379.282L659.514 380.071L659.98 386.291L671.126 385.455L671.444 389.699L655.152 390.92ZM682.39 389.169C677.704 389.521 674.498 386.076 674.048 380.078L674.045 380.044C673.593 374.011 676.184 370.166 680.939 369.81C683.512 369.617 685.703 370.721 686.793 372.695L687.1 372.672L686.337 362.498L691.313 362.125L693.258 388.063L688.282 388.436L688.064 385.522L687.757 385.545C686.937 387.646 685.032 388.971 682.39 389.169ZM683.768 384.919C686.41 384.721 687.89 382.519 687.632 379.076L687.629 379.042C687.371 375.6 685.559 373.61 682.935 373.807C680.31 374.004 678.85 376.239 679.107 379.664L679.109 379.698C679.369 383.158 681.144 385.115 683.768 384.919ZM703.94 387.656C699.73 387.972 697.374 385.578 697.039 381.113L696.13 368.979L701.106 368.606L701.93 379.598C702.129 382.257 703.238 383.562 705.59 383.385C708.044 383.201 709.25 381.448 709.059 378.909L708.247 368.07L713.223 367.697L714.63 386.461L709.653 386.834L709.436 383.937L709.129 383.96C708.431 386.068 706.615 387.456 703.94 387.656ZM727.22 385.911C721.357 386.35 717.767 383.038 717.299 376.8L717.297 376.766C716.834 370.597 719.873 366.787 725.753 366.347C730.729 365.973 733.88 368.462 734.638 372.621L734.642 372.672L730.006 373.02L729.987 372.987C729.526 371.188 728.193 370.088 726.062 370.248C723.387 370.448 722.077 372.638 722.358 376.387L722.361 376.421C722.646 380.221 724.286 382.206 726.944 382.007C728.989 381.854 730.126 380.791 730.429 378.884L730.458 378.813L735.059 378.468L735.05 378.571C734.845 382.7 732.111 385.544 727.22 385.911ZM743.88 384.559C740.301 384.827 737.596 382.802 737.34 379.394L737.337 379.36C737.084 375.985 739.544 373.813 744.193 373.19L748.705 372.577L748.589 371.027C748.468 369.408 747.291 368.57 745.246 368.724C743.457 368.858 742.362 369.574 742.053 370.711L742.024 370.782L737.423 371.127L737.428 370.972C737.574 367.654 740.512 365.24 745.232 364.886C750.209 364.513 753.197 366.654 753.497 370.659L754.458 383.474L749.55 383.842L749.364 381.354L749.057 381.377C748.233 383.187 746.334 384.375 743.88 384.559ZM742.174 378.723C742.281 380.154 743.556 380.933 745.278 380.804C747.578 380.631 749.186 378.985 749.038 377.008L748.934 375.628L745.169 376.15C743.049 376.446 742.069 377.325 742.171 378.689L742.174 378.723ZM766.427 382.645C761.86 382.988 759.908 381.643 759.635 377.996L758.889 368.044L755.992 368.261L755.711 364.512L758.608 364.294L758.272 359.812L763.299 359.435L763.635 363.917L767.504 363.627L767.785 367.377L763.916 367.667L764.577 376.477C764.703 378.165 765.475 378.861 767.162 378.734C767.81 378.686 768.148 378.626 768.622 378.539L768.899 382.237C768.294 382.403 767.382 382.574 766.427 382.645ZM773.27 360.299C771.736 360.414 770.366 359.283 770.251 357.749C770.135 356.198 771.321 354.875 772.855 354.76C774.389 354.645 775.742 355.778 775.858 357.328C775.973 358.862 774.804 360.184 773.27 360.299ZM772.388 382.13L770.981 363.367L775.957 362.994L777.364 381.757L772.388 382.13ZM790.039 381.201C784.262 381.634 780.511 378.23 780.053 372.129L780.051 372.095C779.597 366.045 782.846 362.066 788.572 361.636C794.298 361.207 798.103 364.641 798.558 370.708L798.561 370.742C799.02 376.86 795.816 380.767 790.039 381.201ZM789.747 377.298C792.388 377.1 793.743 374.822 793.465 371.124L793.463 371.09C793.188 367.426 791.489 365.342 788.865 365.539C786.223 365.737 784.872 368.049 785.146 371.713L785.149 371.747C785.426 375.445 787.088 377.497 789.747 377.298ZM802.622 379.863L801.215 361.1L806.191 360.727L806.408 363.624L806.715 363.601C807.415 361.509 809.177 360.091 811.852 359.891C816.028 359.578 818.469 361.965 818.805 366.447L819.715 378.581L814.738 378.954L813.913 367.945C813.715 365.304 812.519 363.988 810.168 364.164C807.867 364.337 806.594 366.095 806.784 368.634L807.598 379.49L802.622 379.863Z" fill="#D3F729"/>
<rect x="811.024" y="221.851" width="395" height="108" rx="54" transform="rotate(17.9679 811.024 221.851)" fill="#202020"/>
<path d="M858.253 308.654L876.255 284.863L882.85 287.002L883.483 316.836L877.575 314.92L877.695 307.773L868.239 304.706L864.142 310.564L858.253 308.654ZM877.659 291.232L870.883 300.923L877.775 303.158L877.994 291.341L877.659 291.232ZM894.492 320.878C888.101 318.806 885.737 313.748 887.943 306.948L887.955 306.911C890.136 300.186 894.999 297.471 901.409 299.55C906.834 301.309 909.09 305.306 908.091 310.033L908.073 310.089L903.019 308.45L903.013 308.407C903.304 306.304 902.37 304.564 900.048 303.811C897.131 302.865 894.798 304.613 893.472 308.701L893.46 308.738C892.117 312.881 892.992 315.69 895.89 316.63C898.12 317.353 899.782 316.722 900.928 314.835L900.989 314.773L906.006 316.399L905.951 316.505C903.948 320.783 899.824 322.608 894.492 320.878ZM907.413 324.597L916.584 296.32L922.009 298.079L918.448 309.059L918.782 309.168C920.428 307.258 922.905 306.521 925.822 307.467C930.374 308.943 931.922 312.526 930.338 317.412L926.048 330.64L920.623 328.881L924.515 316.879C925.449 313.999 924.754 312.09 922.19 311.258C919.682 310.445 917.574 311.753 916.676 314.521L912.838 326.356L907.413 324.597ZM940.965 309.401C939.293 308.859 938.333 307.069 938.875 305.397C939.424 303.706 941.251 302.821 942.923 303.363C944.595 303.905 945.536 305.689 944.988 307.379C944.446 309.051 942.637 309.943 940.965 309.401ZM930.582 332.11L937.215 311.655L942.64 313.414L936.007 333.87L930.582 332.11ZM949.562 338.738C943.338 336.719 940.886 331.427 943.013 324.869L943.019 324.85C945.127 318.348 950.292 315.403 956.255 317.337C962.219 319.271 964.609 324.563 962.603 330.75L962.055 332.441L947.972 327.874C946.937 331.254 948.107 333.79 950.986 334.724C953.365 335.495 955.093 334.659 955.718 333.999L955.81 333.906L960.863 335.545L960.766 335.719C959.303 338.078 955.544 340.678 949.562 338.738ZM955.029 321.436C952.669 320.671 950.405 321.702 949.13 324.492L957.955 327.354C958.585 324.273 957.388 322.201 955.029 321.436ZM967.629 344.125L967.147 321.362L972.962 323.248L972.21 340.005L972.544 340.113L981.732 326.092L987.435 327.941L973.723 346.101L967.629 344.125ZM991.699 352.403C985.476 350.385 983.024 345.093 985.151 338.534L985.157 338.516C987.265 332.013 992.43 329.068 998.393 331.002C1004.36 332.936 1006.75 338.229 1004.74 344.415L1004.19 346.106L990.11 341.539C989.075 344.92 990.245 347.455 993.124 348.389C995.503 349.16 997.231 348.325 997.856 347.665L997.948 347.571L1003 349.21L1002.9 349.384C1001.44 351.743 997.682 354.343 991.699 352.403ZM997.167 335.101C994.807 334.336 992.543 335.367 991.268 338.157L1000.09 341.019C1000.72 337.938 999.526 335.866 997.167 335.101ZM1004.97 356.236L1011.61 335.78L1017.03 337.54L1016 340.735L1016.33 340.844C1017.95 338.823 1020.5 338.172 1023.18 339.04C1025.96 339.944 1027.57 342.024 1027.64 344.655L1027.97 344.764C1029.64 342.798 1032.5 342.065 1035.37 342.992C1039.43 344.312 1041.12 347.776 1039.76 351.993L1035.2 366.038L1029.78 364.279L1033.89 351.59C1034.69 349.119 1033.98 347.513 1031.72 346.777C1029.52 346.067 1027.59 347.225 1026.87 349.436L1022.79 362.014L1017.37 360.254L1021.56 347.324C1022.27 345.131 1021.44 343.446 1019.32 342.759C1017.21 342.072 1015.16 343.318 1014.4 345.659L1010.4 357.995L1004.97 356.236ZM1048.55 370.84C1042.33 368.822 1039.88 363.53 1042 356.972L1042.01 356.953C1044.12 350.45 1049.28 347.505 1055.25 349.439C1061.21 351.374 1063.6 356.666 1061.59 362.853L1061.05 364.543L1046.96 359.976C1045.93 363.357 1047.1 365.892 1049.98 366.826C1052.35 367.597 1054.08 366.762 1054.71 366.102L1054.8 366.009L1059.85 367.647L1059.76 367.821C1058.29 370.18 1054.53 372.78 1048.55 370.84ZM1054.02 353.538C1051.66 352.773 1049.4 353.805 1048.12 356.594L1056.95 359.456C1057.58 356.375 1056.38 354.304 1054.02 353.538ZM1061.83 374.673L1068.46 354.218L1073.88 355.977L1072.86 359.135L1073.2 359.244C1074.84 357.334 1077.32 356.598 1080.23 357.543C1084.79 359.02 1086.34 362.602 1084.75 367.488L1080.46 380.716L1075.04 378.957L1078.93 366.955C1079.86 364.075 1079.17 362.166 1076.6 361.335C1074.09 360.521 1071.99 361.829 1071.09 364.597L1067.25 376.432L1061.83 374.673ZM1093.42 385.002C1088.44 383.387 1086.96 381.12 1088.25 377.144L1091.77 366.294L1088.61 365.27L1089.94 361.183L1093.1 362.207L1094.68 357.321L1100.16 359.098L1098.58 363.985L1102.79 365.352L1101.47 369.44L1097.25 368.072L1094.14 377.677C1093.54 379.516 1094.05 380.587 1095.89 381.183C1096.6 381.412 1096.98 381.496 1097.52 381.609L1096.21 385.64C1095.5 385.553 1094.46 385.339 1093.42 385.002Z" fill="#D3F729"/>
<rect x="397.518" y="268.271" width="434" height="108" rx="54" transform="rotate(-12.9533 397.518 268.271)" fill="#202020"/>
<path d="M493.763 315.91L487.446 288.443L498.885 285.812C505.129 284.376 509.473 286.884 510.717 292.29L510.725 292.328C511.535 295.849 510.404 299.296 507.548 301.255L515.843 310.831L509.333 312.328L501.902 303.456L497.2 304.537L499.512 314.587L493.763 315.91ZM496.237 300.35L501.3 299.185C504.174 298.524 505.492 296.497 504.87 293.795L504.861 293.757C504.253 291.111 502.089 289.805 499.214 290.466L494.227 291.613L496.237 300.35ZM528.126 308.467C521.75 309.933 516.927 306.654 515.382 299.934L515.377 299.915C513.845 293.253 516.762 288.073 522.872 286.668C528.982 285.262 533.752 288.574 535.21 294.913L535.608 296.645L521.18 299.963C522.03 303.396 524.336 304.969 527.286 304.291C529.723 303.73 530.776 302.125 530.973 301.238L531.004 301.111L536.181 299.92L536.187 300.119C536.144 302.895 534.255 307.057 528.126 308.467ZM523.926 290.814C521.509 291.37 520.096 293.419 520.436 296.467L529.478 294.388C528.434 291.421 526.343 290.258 523.926 290.814ZM549.921 303.454C544.23 304.763 540.408 302.956 539.181 299.451L539.144 299.379L544.607 298.122L544.662 298.19C545.398 299.383 546.888 300.023 549.077 299.519C551.208 299.029 552.445 297.783 552.125 296.393L552.117 296.355C551.858 295.232 550.859 294.72 548.617 294.735L544.944 294.798C540.75 294.861 538.32 293.356 537.597 290.215L537.593 290.196C536.687 286.256 539.585 282.824 544.819 281.62C550.32 280.354 553.996 282.395 554.999 285.711L555.017 285.788L549.859 286.974L549.818 286.883C549.255 285.83 547.777 285.068 545.702 285.545C543.78 285.987 542.615 287.197 542.939 288.606L542.943 288.625C543.202 289.748 544.131 290.215 546.41 290.192L550.064 290.133C554.458 290.065 556.821 291.365 557.534 294.468L557.539 294.487C558.493 298.636 555.289 302.219 549.921 303.454ZM564.382 306.982L557.964 279.077L563.522 277.799L564.266 281.035L564.608 280.956C565.177 278.46 567.097 276.616 570.067 275.933C575.301 274.729 579.521 278.087 581.057 284.768L581.066 284.806C582.616 291.544 580.351 296.334 575.04 297.556C572.166 298.217 569.505 297.366 567.914 295.327L567.571 295.406L569.94 305.703L564.382 306.982ZM572.077 293.387C575.008 292.713 576.297 289.952 575.413 286.107L575.404 286.069C574.52 282.224 572.173 280.298 569.223 280.977C566.291 281.651 564.984 284.417 565.868 288.262L565.877 288.3C566.761 292.145 569.165 294.057 572.077 293.387ZM596.652 292.705C590.199 294.189 585.375 290.99 583.808 284.176L583.799 284.138C582.245 277.38 585.23 272.325 591.626 270.854C598.021 269.383 602.912 272.607 604.47 279.383L604.479 279.421C606.051 286.254 603.105 291.221 596.652 292.705ZM595.649 288.346C598.6 287.668 599.738 284.861 598.788 280.73L598.779 280.692C597.838 276.6 595.56 274.538 592.629 275.213C589.678 275.891 588.549 278.736 589.49 282.829L589.499 282.867C590.449 286.997 592.68 289.029 595.649 288.346ZM610.637 289.027L605.817 268.071L611.375 266.792L612.119 270.028L612.462 269.949C612.893 267.465 614.639 265.56 617.628 264.873C622.291 263.8 625.46 266.078 626.612 271.084L629.729 284.636L624.171 285.914L621.343 273.618C620.664 270.668 619.087 269.387 616.46 269.992C613.89 270.583 612.754 272.788 613.407 275.624L616.195 287.749L610.637 289.027ZM642.773 282.097C637.082 283.406 633.26 281.599 632.033 278.094L631.996 278.022L637.459 276.766L637.514 276.833C638.25 278.027 639.74 278.666 641.929 278.162C644.061 277.672 645.297 276.426 644.977 275.036L644.969 274.998C644.71 273.875 643.711 273.363 641.47 273.378L637.796 273.441C633.602 273.504 631.172 271.999 630.449 268.858L630.445 268.839C629.539 264.899 632.437 261.467 637.671 260.263C643.172 258.998 646.848 261.038 647.851 264.355L647.869 264.431L642.711 265.617L642.67 265.526C642.107 264.473 640.629 263.711 638.554 264.188C636.632 264.63 635.467 265.84 635.791 267.249L635.795 267.268C636.054 268.391 636.983 268.859 639.262 268.835L642.916 268.776C647.31 268.708 649.673 270.008 650.387 273.111L650.391 273.13C651.345 277.279 648.141 280.862 642.773 282.097ZM652.912 253.851C651.199 254.245 649.456 253.203 649.062 251.49C648.664 249.758 649.776 248.059 651.489 247.665C653.202 247.271 654.926 248.318 655.324 250.05C655.718 251.763 654.625 253.457 652.912 253.851ZM655.674 278.668L650.854 257.712L656.412 256.433L661.232 277.39L655.674 278.668ZM678.495 273.76C675.526 274.443 672.997 273.642 671.391 271.626L671.048 271.705L671.797 274.96L666.239 276.238L659.575 247.268L665.133 245.99L667.747 257.353L668.09 257.275C668.63 254.745 670.647 252.798 673.522 252.137C678.832 250.916 682.962 254.234 684.512 260.973L684.521 261.011C686.062 267.711 683.729 272.556 678.495 273.76ZM675.532 269.592C678.482 268.913 679.757 266.175 678.868 262.311L678.859 262.273C677.979 258.447 675.609 256.507 672.678 257.181C669.765 257.851 668.443 260.64 669.327 264.485L669.336 264.523C670.22 268.368 672.601 270.266 675.532 269.592ZM687.936 245.795C686.223 246.189 684.48 245.147 684.086 243.434C683.688 241.702 684.8 240.003 686.513 239.609C688.227 239.215 689.95 240.262 690.349 241.994C690.743 243.707 689.649 245.401 687.936 245.795ZM690.698 270.612L685.878 249.656L691.436 248.377L696.256 269.334L690.698 270.612ZM701.263 268.182L694.6 239.212L700.158 237.934L706.821 266.904L701.263 268.182ZM709.066 240.935C707.353 241.329 705.61 240.287 705.216 238.574C704.818 236.842 705.93 235.143 707.643 234.749C709.356 234.355 711.08 235.402 711.478 237.134C711.872 238.847 710.779 240.541 709.066 240.935ZM711.828 265.752L707.008 244.796L712.566 243.517L717.386 264.474L711.828 265.752ZM730.919 261.442C725.817 262.615 723.381 261.432 722.444 257.358L719.887 246.242L716.651 246.987L715.688 242.799L718.924 242.055L717.772 237.049L723.388 235.757L724.539 240.763L728.86 239.77L729.823 243.957L725.502 244.951L727.766 254.792C728.199 256.676 729.191 257.33 731.076 256.896C731.799 256.73 732.171 256.604 732.691 256.424L733.641 260.555C732.986 260.846 731.984 261.196 730.919 261.442ZM741.718 266.653C741.071 266.802 740.362 266.945 739.706 267.056L738.743 262.868C739.132 262.819 739.689 262.711 740.203 262.593C742.182 262.138 743.149 261.113 743.172 259.385L743.179 258.541L730.992 239.279L737.102 237.874L745.151 252.737L745.531 252.649L746.277 235.763L752.139 234.415L749.817 256.994C749.226 262.962 746.895 265.463 741.718 266.653Z" fill="#D3F729"/>
</g>
<defs>
<filter id="filter0_d_226_1379" x="182" y="512" width="1230" height="494" filterUnits="userSpaceOnUse" color-interpolation-filters="sRGB">
<feFlood flood-opacity="0" result="BackgroundImageFix"/>
<feColorMatrix in="SourceAlpha" type="matrix" values="0 0 0 0 0 0 0 0 0 0 0 0 0 0 0 0 0 0 127 0" result="hardAlpha"/>
<feOffset dy="4"/>
<feGaussianBlur stdDeviation="2"/>
<feComposite in2="hardAlpha" operator="out"/>
<feColorMatrix type="matrix" values="0 0 0 0 0 0 0 0 0 0 0 0 0 0 0 0 0 0 0.25 0"/>
<feBlend mode="normal" in2="BackgroundImageFix" result="effect1_dropShadow_226_1379"/>
<feBlend mode="normal" in="SourceGraphic" in2="effect1_dropShadow_226_1379" result="shape"/>
</filter>
<clipPath id="clip0_226_1379">
<rect width="1539" height="926" fill="white"/>
</clipPath>
</defs>
</svg>
