<svg width="1683" height="814" viewBox="0 0 1683 814" fill="none" xmlns="http://www.w3.org/2000/svg">
<rect width="1683" height="814" rx="40" fill="#202020"/>
<rect x="159" y="116" width="583" height="583" rx="81" fill="black"/>
<path d="M316.763 556.44C320.443 556.44 323.123 557.24 324.803 558.84C326.51 560.413 327.363 562.587 327.363 565.36C327.363 566.613 327.176 567.813 326.803 568.96C326.43 570.08 325.803 571.093 324.923 572C324.07 572.88 322.936 573.573 321.523 574.08C320.11 574.587 318.363 574.84 316.283 574.84H313.683V585H307.643V556.44H316.763ZM316.443 561.4H313.683V569.88H315.683C316.83 569.88 317.816 569.733 318.643 569.44C319.47 569.147 320.11 568.68 320.563 568.04C321.016 567.4 321.243 566.573 321.243 565.56C321.243 564.147 320.856 563.107 320.083 562.44C319.31 561.747 318.096 561.4 316.443 561.4ZM352.12 574.04C352.12 575.853 351.867 577.467 351.36 578.88C350.88 580.293 350.173 581.493 349.24 582.48C348.333 583.44 347.227 584.173 345.92 584.68C344.613 585.16 343.133 585.4 341.48 585.4C339.96 585.4 338.547 585.16 337.24 584.68C335.96 584.173 334.853 583.44 333.92 582.48C332.987 581.493 332.253 580.293 331.72 578.88C331.213 577.467 330.96 575.853 330.96 574.04C330.96 571.613 331.387 569.573 332.24 567.92C333.093 566.24 334.32 564.96 335.92 564.08C337.52 563.2 339.413 562.76 341.6 562.76C343.653 562.76 345.467 563.2 347.04 564.08C348.613 564.96 349.853 566.24 350.76 567.92C351.667 569.573 352.12 571.613 352.12 574.04ZM337.04 574.04C337.04 575.48 337.187 576.693 337.48 577.68C337.8 578.64 338.293 579.373 338.96 579.88C339.627 580.36 340.493 580.6 341.56 580.6C342.627 580.6 343.48 580.36 344.12 579.88C344.787 579.373 345.267 578.64 345.56 577.68C345.88 576.693 346.04 575.48 346.04 574.04C346.04 572.6 345.88 571.4 345.56 570.44C345.267 569.48 344.787 568.76 344.12 568.28C343.453 567.8 342.587 567.56 341.52 567.56C339.947 567.56 338.8 568.107 338.08 569.2C337.387 570.267 337.04 571.88 337.04 574.04ZM365.926 585.4C363.766 585.4 361.926 585.013 360.406 584.24C358.886 583.44 357.726 582.213 356.926 580.56C356.126 578.907 355.726 576.787 355.726 574.2C355.726 571.533 356.179 569.36 357.086 567.68C357.992 566 359.246 564.76 360.846 563.96C362.472 563.16 364.339 562.76 366.446 562.76C367.939 562.76 369.232 562.907 370.326 563.2C371.446 563.493 372.419 563.84 373.246 564.24L371.486 568.84C370.552 568.467 369.672 568.16 368.846 567.92C368.046 567.68 367.246 567.56 366.446 567.56C365.406 567.56 364.539 567.813 363.846 568.32C363.152 568.8 362.632 569.533 362.286 570.52C361.966 571.48 361.806 572.693 361.806 574.16C361.806 575.6 361.979 576.8 362.326 577.76C362.699 578.693 363.232 579.4 363.926 579.88C364.619 580.333 365.459 580.56 366.446 580.56C367.699 580.56 368.806 580.4 369.766 580.08C370.726 579.733 371.659 579.267 372.566 578.68V583.76C371.659 584.347 370.699 584.76 369.686 585C368.699 585.267 367.446 585.4 365.926 585.4ZM383.553 568.2C383.553 569.027 383.513 569.853 383.433 570.68C383.379 571.48 383.313 572.293 383.233 573.12H383.313C383.579 572.747 383.846 572.373 384.113 572C384.406 571.627 384.699 571.253 384.993 570.88C385.286 570.507 385.593 570.147 385.913 569.8L392.033 563.16H398.753L390.073 572.64L399.273 585H392.393L386.113 576.16L383.553 578.2V585H377.593V554.6H383.553V568.2ZM411.397 562.76C413.424 562.76 415.157 563.147 416.597 563.92C418.064 564.693 419.197 565.813 419.997 567.28C420.797 568.747 421.197 570.547 421.197 572.68V575.56H407.117C407.171 577.24 407.664 578.56 408.597 579.52C409.557 580.48 410.877 580.96 412.557 580.96C413.971 580.96 415.251 580.827 416.397 580.56C417.544 580.267 418.731 579.827 419.957 579.24V583.84C418.891 584.373 417.757 584.76 416.557 585C415.384 585.267 413.957 585.4 412.277 585.4C410.091 585.4 408.157 585 406.477 584.2C404.797 583.373 403.477 582.133 402.517 580.48C401.557 578.827 401.077 576.747 401.077 574.24C401.077 571.68 401.504 569.56 402.357 567.88C403.237 566.173 404.451 564.893 405.997 564.04C407.544 563.187 409.344 562.76 411.397 562.76ZM411.437 567C410.291 567 409.331 567.373 408.557 568.12C407.811 568.867 407.371 570.027 407.237 571.6H415.597C415.597 570.72 415.437 569.933 415.117 569.24C414.824 568.547 414.371 568 413.757 567.6C413.144 567.2 412.371 567 411.437 567ZM435.23 580.64C435.897 580.64 436.537 580.573 437.15 580.44C437.763 580.307 438.377 580.147 438.99 579.96V584.4C438.35 584.667 437.55 584.893 436.59 585.08C435.657 585.293 434.63 585.4 433.51 585.4C432.203 585.4 431.03 585.187 429.99 584.76C428.977 584.333 428.163 583.6 427.55 582.56C426.963 581.493 426.67 580.027 426.67 578.16V567.64H423.83V565.12L427.11 563.12L428.83 558.52H432.63V563.16H438.75V567.64H432.63V578.16C432.63 578.987 432.87 579.613 433.35 580.04C433.83 580.44 434.457 580.64 435.23 580.64ZM464.694 568.96H476.014V583.76C474.521 584.267 472.961 584.667 471.334 584.96C469.734 585.253 467.907 585.4 465.854 585.4C463.027 585.4 460.614 584.84 458.614 583.72C456.641 582.6 455.134 580.947 454.094 578.76C453.081 576.573 452.574 573.88 452.574 570.68C452.574 567.693 453.147 565.107 454.294 562.92C455.467 560.733 457.161 559.04 459.374 557.84C461.587 556.64 464.294 556.04 467.494 556.04C469.014 556.04 470.507 556.2 471.974 556.52C473.441 556.84 474.774 557.267 475.974 557.8L473.974 562.64C473.094 562.187 472.094 561.813 470.974 561.52C469.854 561.227 468.681 561.08 467.454 561.08C465.694 561.08 464.161 561.48 462.854 562.28C461.574 563.08 460.574 564.213 459.854 565.68C459.161 567.12 458.814 568.827 458.814 570.8C458.814 572.667 459.067 574.32 459.574 575.76C460.081 577.2 460.881 578.333 461.974 579.16C463.067 579.96 464.494 580.36 466.254 580.36C466.841 580.36 467.347 580.347 467.774 580.32C468.227 580.267 468.641 580.213 469.014 580.16C469.387 580.08 469.747 580.013 470.094 579.96V574H464.694V568.96ZM491.279 562.72C494.213 562.72 496.453 563.36 497.999 564.64C499.573 565.893 500.359 567.827 500.359 570.44V585H496.199L495.039 582.04H494.879C494.266 582.813 493.626 583.453 492.959 583.96C492.319 584.467 491.573 584.827 490.719 585.04C489.893 585.28 488.866 585.4 487.639 585.4C486.359 585.4 485.199 585.16 484.159 584.68C483.146 584.173 482.346 583.413 481.759 582.4C481.173 581.36 480.879 580.053 480.879 578.48C480.879 576.16 481.693 574.453 483.319 573.36C484.946 572.24 487.386 571.627 490.639 571.52L494.439 571.4V570.44C494.439 569.293 494.133 568.453 493.519 567.92C492.933 567.387 492.106 567.12 491.039 567.12C489.973 567.12 488.933 567.28 487.919 567.6C486.906 567.893 485.893 568.267 484.879 568.72L482.919 564.68C484.093 564.067 485.386 563.587 486.799 563.24C488.239 562.893 489.733 562.72 491.279 562.72ZM492.119 574.96C490.199 575.013 488.866 575.36 488.119 576C487.373 576.64 486.999 577.48 486.999 578.52C486.999 579.427 487.266 580.08 487.799 580.48C488.333 580.853 489.026 581.04 489.879 581.04C491.159 581.04 492.239 580.667 493.119 579.92C493.999 579.147 494.439 578.067 494.439 576.68V574.88L492.119 574.96ZM518.66 562.76C518.953 562.76 519.3 562.773 519.7 562.8C520.1 562.827 520.42 562.867 520.66 562.92L520.22 568.52C520.033 568.467 519.753 568.427 519.38 568.4C519.033 568.347 518.727 568.32 518.46 568.32C517.687 568.32 516.94 568.427 516.22 568.64C515.5 568.827 514.847 569.133 514.26 569.56C513.7 569.987 513.247 570.56 512.9 571.28C512.58 571.973 512.42 572.84 512.42 573.88V585H506.46V563.16H510.98L511.86 566.84H512.14C512.567 566.093 513.1 565.413 513.74 564.8C514.38 564.187 515.113 563.693 515.94 563.32C516.793 562.947 517.7 562.76 518.66 562.76ZM530.763 585.4C528.336 585.4 526.349 584.453 524.803 582.56C523.283 580.64 522.523 577.827 522.523 574.12C522.523 570.387 523.296 567.56 524.843 565.64C526.389 563.72 528.416 562.76 530.923 562.76C531.963 562.76 532.883 562.907 533.683 563.2C534.483 563.467 535.163 563.84 535.723 564.32C536.309 564.8 536.803 565.347 537.203 565.96H537.403C537.323 565.533 537.229 564.92 537.123 564.12C537.016 563.293 536.963 562.453 536.963 561.6V554.6H542.923V585H538.363L537.203 582.16H536.963C536.589 582.747 536.109 583.293 535.523 583.8C534.963 584.28 534.296 584.667 533.523 584.96C532.749 585.253 531.829 585.4 530.763 585.4ZM532.843 580.64C534.496 580.64 535.656 580.16 536.323 579.2C536.989 578.213 537.336 576.747 537.363 574.8V574.16C537.363 572.027 537.029 570.4 536.363 569.28C535.723 568.16 534.523 567.6 532.763 567.6C531.456 567.6 530.429 568.173 529.683 569.32C528.936 570.44 528.563 572.067 528.563 574.2C528.563 576.333 528.936 577.947 529.683 579.04C530.429 580.107 531.483 580.64 532.843 580.64ZM558.155 562.76C560.182 562.76 561.915 563.147 563.355 563.92C564.822 564.693 565.955 565.813 566.755 567.28C567.555 568.747 567.955 570.547 567.955 572.68V575.56H553.875C553.928 577.24 554.422 578.56 555.355 579.52C556.315 580.48 557.635 580.96 559.315 580.96C560.728 580.96 562.008 580.827 563.155 580.56C564.302 580.267 565.488 579.827 566.715 579.24V583.84C565.648 584.373 564.515 584.76 563.315 585C562.142 585.267 560.715 585.4 559.035 585.4C556.848 585.4 554.915 585 553.235 584.2C551.555 583.373 550.235 582.133 549.275 580.48C548.315 578.827 547.835 576.747 547.835 574.24C547.835 571.68 548.262 569.56 549.115 567.88C549.995 566.173 551.208 564.893 552.755 564.04C554.302 563.187 556.102 562.76 558.155 562.76ZM558.195 567C557.048 567 556.088 567.373 555.315 568.12C554.568 568.867 554.128 570.027 553.995 571.6H562.355C562.355 570.72 562.195 569.933 561.875 569.24C561.582 568.547 561.128 568 560.515 567.6C559.902 567.2 559.128 567 558.195 567ZM585.188 562.76C587.535 562.76 589.415 563.4 590.828 564.68C592.241 565.933 592.948 567.96 592.948 570.76V585H586.988V572.24C586.988 570.667 586.708 569.493 586.148 568.72C585.588 567.92 584.695 567.52 583.468 567.52C581.655 567.52 580.415 568.147 579.748 569.4C579.081 570.627 578.748 572.4 578.748 574.72V585H572.788V563.16H577.348L578.148 565.96H578.468C578.948 565.213 579.535 564.613 580.228 564.16C580.921 563.68 581.695 563.333 582.548 563.12C583.401 562.88 584.281 562.76 585.188 562.76Z" fill="white"/>
<path d="M945.709 206.935H949.416C949.594 208.458 951.092 209.436 953.25 209.436C955.243 209.436 956.652 208.433 956.652 207.011C956.652 205.805 955.738 205.106 953.491 204.611L951.104 204.091C947.766 203.38 946.128 201.666 946.128 198.886C946.128 195.471 948.908 193.211 953.136 193.211C957.173 193.211 960.029 195.458 960.144 198.695H956.538C956.36 197.197 955.015 196.22 953.161 196.22C951.244 196.22 949.975 197.146 949.975 198.581C949.975 199.736 950.851 200.409 952.996 200.879L955.205 201.349C958.887 202.136 960.474 203.723 960.474 206.554C960.474 210.21 957.643 212.47 953.047 212.47C948.68 212.47 945.849 210.324 945.709 206.935ZM976.241 208.839V212H964.104V193.681H976.241V196.842H967.938V201.26H975.771V204.205H967.938V208.839H976.241ZM992.415 208.839V212H980.278V193.681H992.415V196.842H984.112V201.26H991.945V204.205H984.112V208.839H992.415ZM996.452 193.681H1003.66C1009.11 193.681 1012.26 196.969 1012.26 202.72C1012.26 208.648 1009.15 212 1003.66 212H996.452V193.681ZM1000.29 196.842V208.839H1003.05C1006.44 208.839 1008.35 206.706 1008.35 202.783C1008.35 199 1006.38 196.842 1003.05 196.842H1000.29Z" fill="#F7F7F7"/>
<path d="M979.312 354.625C1011.52 354.625 1037.62 328.518 1037.62 296.312C1037.62 264.107 1011.52 238 979.312 238C947.107 238 921 264.107 921 296.312C921 328.518 947.107 354.625 979.312 354.625Z" fill="#F2D74E"/>
<path d="M1522 391L1517 388.113L1517 393.887L1522 391ZM921 391.5L922.002 391.5L922.002 390.5L921 390.5L921 391.5ZM924.005 391.5L926.008 391.5L926.008 390.5L924.005 390.5L924.005 391.5ZM928.012 391.5L930.015 391.5L930.015 390.5L928.012 390.5L928.012 391.5ZM932.018 391.5L934.022 391.5L934.022 390.5L932.018 390.5L932.018 391.5ZM936.025 391.5L938.028 391.5L938.028 390.5L936.025 390.5L936.025 391.5ZM940.032 391.5L942.035 391.5L942.035 390.5L940.032 390.5L940.032 391.5ZM944.038 391.5L946.042 391.5L946.042 390.5L944.038 390.5L944.038 391.5ZM948.045 391.5L950.048 391.5L950.048 390.5L948.045 390.5L948.045 391.5ZM952.052 391.5L954.055 391.5L954.055 390.5L952.052 390.5L952.052 391.5ZM956.058 391.5L958.062 391.5L958.062 390.5L956.058 390.5L956.058 391.5ZM960.065 391.5L962.068 391.5L962.068 390.5L960.065 390.5L960.065 391.5ZM964.072 391.5L966.075 391.5L966.075 390.5L964.072 390.5L964.072 391.5ZM968.078 391.5L970.082 391.5L970.082 390.5L968.078 390.5L968.078 391.5ZM972.085 391.5L974.088 391.5L974.088 390.5L972.085 390.5L972.085 391.5ZM976.092 391.5L978.095 391.5L978.095 390.5L976.092 390.5L976.092 391.5ZM980.098 391.5L982.102 391.5L982.102 390.5L980.098 390.5L980.098 391.5ZM984.105 391.5L986.108 391.5L986.108 390.5L984.105 390.5L984.105 391.5ZM988.112 391.5L990.115 391.5L990.115 390.5L988.112 390.5L988.112 391.5ZM992.118 391.5L994.122 391.5L994.122 390.5L992.118 390.5L992.118 391.5ZM996.125 391.5L998.128 391.5L998.128 390.5L996.125 390.5L996.125 391.5ZM1000.13 391.5L1002.14 391.5L1002.14 390.5L1000.13 390.5L1000.13 391.5ZM1004.14 391.5L1006.14 391.5L1006.14 390.5L1004.14 390.5L1004.14 391.5ZM1008.15 391.5L1010.15 391.5L1010.15 390.5L1008.15 390.5L1008.15 391.5ZM1012.15 391.5L1014.16 391.5L1014.16 390.5L1012.15 390.5L1012.15 391.5ZM1016.16 391.5L1018.16 391.5L1018.16 390.5L1016.16 390.5L1016.16 391.5ZM1020.17 391.5L1022.17 391.5L1022.17 390.5L1020.17 390.5L1020.17 391.5ZM1024.17 391.5L1026.18 391.5L1026.18 390.5L1024.17 390.5L1024.17 391.5ZM1028.18 391.5L1030.18 391.5L1030.18 390.5L1028.18 390.5L1028.18 391.5ZM1032.19 391.5L1034.19 391.5L1034.19 390.5L1032.19 390.5L1032.19 391.5ZM1036.19 391.5L1038.2 391.5L1038.2 390.5L1036.19 390.5L1036.19 391.5ZM1040.2 391.5L1042.2 391.5L1042.2 390.5L1040.2 390.5L1040.2 391.5ZM1044.21 391.5L1046.21 391.5L1046.21 390.5L1044.21 390.5L1044.21 391.5ZM1048.21 391.5L1050.22 391.5L1050.22 390.5L1048.21 390.5L1048.21 391.5ZM1052.22 391.5L1054.22 391.5L1054.22 390.5L1052.22 390.5L1052.22 391.5ZM1056.23 391.5L1058.23 391.5L1058.23 390.5L1056.23 390.5L1056.23 391.5ZM1060.23 391.5L1062.23 391.5L1062.23 390.5L1060.23 390.5L1060.23 391.5ZM1064.24 391.5L1066.24 391.5L1066.24 390.5L1064.24 390.5L1064.24 391.5ZM1068.24 391.5L1070.25 391.5L1070.25 390.5L1068.24 390.5L1068.24 391.5ZM1072.25 391.5L1074.25 391.5L1074.25 390.5L1072.25 390.5L1072.25 391.5ZM1076.26 391.5L1078.26 391.5L1078.26 390.5L1076.26 390.5L1076.26 391.5ZM1080.26 391.5L1082.27 391.5L1082.27 390.5L1080.26 390.5L1080.26 391.5ZM1084.27 391.5L1086.27 391.5L1086.27 390.5L1084.27 390.5L1084.27 391.5ZM1088.28 391.5L1090.28 391.5L1090.28 390.5L1088.28 390.5L1088.28 391.5ZM1092.28 391.5L1094.29 391.5L1094.29 390.5L1092.28 390.5L1092.28 391.5ZM1096.29 391.5L1098.29 391.5L1098.29 390.5L1096.29 390.5L1096.29 391.5ZM1100.3 391.5L1102.3 391.5L1102.3 390.5L1100.3 390.5L1100.3 391.5ZM1104.3 391.5L1106.31 391.5L1106.31 390.5L1104.3 390.5L1104.3 391.5ZM1108.31 391.5L1110.31 391.5L1110.31 390.5L1108.31 390.5L1108.31 391.5ZM1112.32 391.5L1114.32 391.5L1114.32 390.5L1112.32 390.5L1112.32 391.5ZM1116.32 391.5L1118.33 391.5L1118.33 390.5L1116.32 390.5L1116.32 391.5ZM1120.33 391.5L1122.33 391.5L1122.33 390.5L1120.33 390.5L1120.33 391.5ZM1124.34 391.5L1126.34 391.5L1126.34 390.5L1124.34 390.5L1124.34 391.5ZM1128.34 391.5L1130.35 391.5L1130.35 390.5L1128.34 390.5L1128.34 391.5ZM1132.35 391.5L1134.35 391.5L1134.35 390.5L1132.35 390.5L1132.35 391.5ZM1136.36 391.5L1138.36 391.5L1138.36 390.5L1136.36 390.5L1136.36 391.5ZM1140.36 391.5L1142.37 391.5L1142.37 390.5L1140.36 390.5L1140.36 391.5ZM1144.37 391.5L1146.37 391.5L1146.37 390.5L1144.37 390.5L1144.37 391.5ZM1148.38 391.5L1150.38 391.5L1150.38 390.5L1148.38 390.5L1148.38 391.5ZM1152.38 391.5L1154.39 391.5L1154.39 390.5L1152.38 390.5L1152.38 391.5ZM1156.39 391.5L1158.39 391.5L1158.39 390.5L1156.39 390.5L1156.39 391.5ZM1160.4 391.5L1162.4 391.5L1162.4 390.5L1160.4 390.5L1160.4 391.5ZM1164.4 391.5L1166.41 391.5L1166.41 390.5L1164.4 390.5L1164.4 391.5ZM1168.41 391.5L1170.41 391.5L1170.41 390.5L1168.41 390.5L1168.41 391.5ZM1172.42 391.5L1174.42 391.5L1174.42 390.5L1172.42 390.5L1172.42 391.5ZM1176.42 391.5L1178.43 391.5L1178.43 390.5L1176.42 390.5L1176.42 391.5ZM1180.43 391.5L1182.43 391.5L1182.43 390.5L1180.43 390.5L1180.43 391.5ZM1184.44 391.5L1186.44 391.5L1186.44 390.5L1184.44 390.5L1184.44 391.5ZM1188.44 391.5L1190.45 391.5L1190.45 390.5L1188.44 390.5L1188.44 391.5ZM1192.45 391.5L1194.45 391.5L1194.45 390.5L1192.45 390.5L1192.45 391.5ZM1196.46 391.5L1198.46 391.5L1198.46 390.5L1196.46 390.5L1196.46 391.5ZM1200.46 391.5L1202.47 391.5L1202.47 390.5L1200.46 390.5L1200.46 391.5ZM1204.47 391.5L1206.47 391.5L1206.47 390.5L1204.47 390.5L1204.47 391.5ZM1208.48 391.5L1210.48 391.5L1210.48 390.5L1208.48 390.5L1208.48 391.5ZM1212.48 391.5L1214.49 391.5L1214.49 390.5L1212.48 390.5L1212.48 391.5ZM1216.49 391.5L1218.49 391.5L1218.49 390.5L1216.49 390.5L1216.49 391.5ZM1220.5 391.5L1222.5 391.5L1222.5 390.5L1220.5 390.5L1220.5 391.5ZM1224.5 391.5L1226.51 391.5L1226.51 390.5L1224.5 390.5L1224.5 391.5ZM1228.51 391.5L1230.51 391.5L1230.51 390.5L1228.51 390.5L1228.51 391.5ZM1232.52 391.5L1234.52 391.5L1234.52 390.5L1232.52 390.5L1232.52 391.5ZM1236.52 391.5L1238.53 391.5L1238.53 390.5L1236.52 390.5L1236.52 391.5ZM1240.53 391.5L1242.53 391.5L1242.53 390.5L1240.53 390.5L1240.53 391.5ZM1244.54 391.5L1246.54 391.5L1246.54 390.5L1244.54 390.5L1244.54 391.5ZM1248.54 391.5L1250.55 391.5L1250.55 390.5L1248.54 390.5L1248.54 391.5ZM1252.55 391.5L1254.55 391.5L1254.55 390.5L1252.55 390.5L1252.55 391.5ZM1256.56 391.5L1258.56 391.5L1258.56 390.5L1256.56 390.5L1256.56 391.5ZM1260.56 391.5L1262.57 391.5L1262.57 390.5L1260.56 390.5L1260.56 391.5ZM1264.57 391.5L1266.57 391.5L1266.57 390.5L1264.57 390.5L1264.57 391.5ZM1268.58 391.5L1270.58 391.5L1270.58 390.5L1268.58 390.5L1268.58 391.5ZM1272.58 391.5L1274.59 391.5L1274.59 390.5L1272.58 390.5L1272.58 391.5ZM1276.59 391.5L1278.59 391.5L1278.59 390.5L1276.59 390.5L1276.59 391.5ZM1280.6 391.5L1282.6 391.5L1282.6 390.5L1280.6 390.5L1280.6 391.5ZM1284.6 391.5L1286.61 391.5L1286.61 390.5L1284.6 390.5L1284.6 391.5ZM1288.61 391.5L1290.61 391.5L1290.61 390.5L1288.61 390.5L1288.61 391.5ZM1292.62 391.5L1294.62 391.5L1294.62 390.5L1292.62 390.5L1292.62 391.5ZM1296.62 391.5L1298.63 391.5L1298.63 390.5L1296.62 390.5L1296.62 391.5ZM1300.63 391.5L1302.63 391.5L1302.63 390.5L1300.63 390.5L1300.63 391.5ZM1304.64 391.5L1306.64 391.5L1306.64 390.5L1304.64 390.5L1304.64 391.5ZM1308.64 391.5L1310.65 391.5L1310.65 390.5L1308.64 390.5L1308.64 391.5ZM1312.65 391.5L1314.65 391.5L1314.65 390.5L1312.65 390.5L1312.65 391.5ZM1316.66 391.5L1318.66 391.5L1318.66 390.5L1316.66 390.5L1316.66 391.5ZM1320.66 391.5L1322.67 391.5L1322.67 390.5L1320.66 390.5L1320.66 391.5ZM1324.67 391.5L1326.67 391.5L1326.67 390.5L1324.67 390.5L1324.67 391.5ZM1328.68 391.5L1330.68 391.5L1330.68 390.5L1328.68 390.5L1328.68 391.5ZM1332.68 391.5L1334.69 391.5L1334.69 390.5L1332.68 390.5L1332.68 391.5ZM1336.69 391.5L1338.69 391.5L1338.69 390.5L1336.69 390.5L1336.69 391.5ZM1340.7 391.5L1342.7 391.5L1342.7 390.5L1340.7 390.5L1340.7 391.5ZM1344.7 391.5L1346.71 391.5L1346.71 390.5L1344.7 390.5L1344.7 391.5ZM1348.71 391.5L1350.71 391.5L1350.71 390.5L1348.71 390.5L1348.71 391.5ZM1352.72 391.5L1354.72 391.5L1354.72 390.5L1352.72 390.5L1352.72 391.5ZM1356.72 391.5L1358.73 391.5L1358.73 390.5L1356.72 390.5L1356.72 391.5ZM1360.73 391.5L1362.73 391.5L1362.73 390.5L1360.73 390.5L1360.73 391.5ZM1364.74 391.5L1366.74 391.5L1366.74 390.5L1364.74 390.5L1364.74 391.5ZM1368.74 391.5L1370.75 391.5L1370.75 390.5L1368.74 390.5L1368.74 391.5ZM1372.75 391.5L1374.75 391.5L1374.75 390.5L1372.75 390.5L1372.75 391.5ZM1376.76 391.5L1378.76 391.5L1378.76 390.5L1376.76 390.5L1376.76 391.5ZM1380.76 391.5L1382.77 391.5L1382.77 390.5L1380.76 390.5L1380.76 391.5ZM1384.77 391.5L1386.77 391.5L1386.77 390.5L1384.77 390.5L1384.77 391.5ZM1388.78 391.5L1390.78 391.5L1390.78 390.5L1388.78 390.5L1388.78 391.5ZM1392.78 391.5L1394.79 391.5L1394.79 390.5L1392.78 390.5L1392.78 391.5ZM1396.79 391.5L1398.79 391.5L1398.79 390.5L1396.79 390.5L1396.79 391.5ZM1400.8 391.5L1402.8 391.5L1402.8 390.5L1400.8 390.5L1400.8 391.5ZM1404.8 391.5L1406.81 391.5L1406.81 390.5L1404.8 390.5L1404.8 391.5ZM1408.81 391.5L1410.81 391.5L1410.81 390.5L1408.81 390.5L1408.81 391.5ZM1412.82 391.5L1414.82 391.5L1414.82 390.5L1412.82 390.5L1412.82 391.5ZM1416.82 391.5L1418.83 391.5L1418.83 390.5L1416.82 390.5L1416.82 391.5ZM1420.83 391.5L1422.83 391.5L1422.83 390.5L1420.83 390.5L1420.83 391.5ZM1424.84 391.5L1426.84 391.5L1426.84 390.5L1424.84 390.5L1424.84 391.5ZM1428.84 391.5L1430.85 391.5L1430.85 390.5L1428.84 390.5L1428.84 391.5ZM1432.85 391.5L1434.85 391.5L1434.85 390.5L1432.85 390.5L1432.85 391.5ZM1436.86 391.5L1438.86 391.5L1438.86 390.5L1436.86 390.5L1436.86 391.5ZM1440.86 391.5L1442.87 391.5L1442.87 390.5L1440.86 390.5L1440.86 391.5ZM1444.87 391.5L1446.87 391.5L1446.87 390.5L1444.87 390.5L1444.87 391.5ZM1448.88 391.5L1450.88 391.5L1450.88 390.5L1448.88 390.5L1448.88 391.5ZM1452.88 391.5L1454.89 391.5L1454.89 390.5L1452.88 390.5L1452.88 391.5ZM1456.89 391.5L1458.89 391.5L1458.89 390.5L1456.89 390.5L1456.89 391.5ZM1460.9 391.5L1462.9 391.5L1462.9 390.5L1460.9 390.5L1460.9 391.5ZM1464.9 391.5L1466.91 391.5L1466.91 390.5L1464.9 390.5L1464.9 391.5ZM1468.91 391.5L1470.91 391.5L1470.91 390.5L1468.91 390.5L1468.91 391.5ZM1472.92 391.5L1474.92 391.5L1474.92 390.5L1472.92 390.5L1472.92 391.5ZM1476.92 391.5L1478.93 391.5L1478.93 390.5L1476.92 390.5L1476.92 391.5ZM1480.93 391.5L1482.93 391.5L1482.93 390.5L1480.93 390.5L1480.93 391.5ZM1484.94 391.5L1486.94 391.5L1486.94 390.5L1484.94 390.5L1484.94 391.5ZM1488.94 391.5L1490.95 391.5L1490.95 390.5L1488.94 390.5L1488.94 391.5ZM1492.95 391.5L1494.95 391.5L1494.95 390.5L1492.95 390.5L1492.95 391.5ZM1496.96 391.5L1498.96 391.5L1498.96 390.5L1496.96 390.5L1496.96 391.5ZM1500.96 391.5L1502.97 391.5L1502.97 390.5L1500.96 390.5L1500.96 391.5ZM1504.97 391.5L1506.97 391.5L1506.97 390.5L1504.97 390.5L1504.97 391.5ZM1508.98 391.5L1510.98 391.5L1510.98 390.5L1508.98 390.5L1508.98 391.5ZM1512.98 391.5L1514.99 391.5L1514.99 390.5L1512.98 390.5L1512.98 391.5ZM1516.99 391.5L1518.99 391.5L1518.99 390.5L1516.99 390.5L1516.99 391.5Z" fill="#D3F729"/>
<path d="M1104.65 206.935H1108.35C1108.53 208.458 1110.03 209.436 1112.19 209.436C1114.18 209.436 1115.59 208.433 1115.59 207.011C1115.59 205.805 1114.68 205.106 1112.43 204.611L1110.04 204.091C1106.7 203.38 1105.07 201.666 1105.07 198.886C1105.07 195.471 1107.85 193.211 1112.07 193.211C1116.11 193.211 1118.97 195.458 1119.08 198.695H1115.48C1115.3 197.197 1113.95 196.22 1112.1 196.22C1110.18 196.22 1108.91 197.146 1108.91 198.581C1108.91 199.736 1109.79 200.409 1111.93 200.879L1114.14 201.349C1117.82 202.136 1119.41 203.723 1119.41 206.554C1119.41 210.21 1116.58 212.47 1111.98 212.47C1107.62 212.47 1104.79 210.324 1104.65 206.935ZM1131.32 212H1127.49V196.842H1121.99V193.681H1136.82V196.842H1131.32V212ZM1152.34 208.839V212H1140.21V193.681H1152.34V196.842H1144.04V201.26H1151.87V204.205H1144.04V208.839H1152.34ZM1175.78 212H1172.22V199.597H1172.02L1167.36 211.099H1164.81L1160.14 199.597H1159.93V212H1156.38V193.681H1160.9L1165.96 206.312H1166.19L1171.27 193.681H1175.78V212Z" fill="#F7F7F7"/>
<path d="M1171.22 268.468C1171.22 251.641 1157.47 238 1140.5 238C1123.53 238 1109.78 251.641 1109.78 268.468V324.157C1109.78 340.984 1123.53 354.625 1140.5 354.625C1157.47 354.625 1171.22 340.984 1171.22 324.157V268.468Z" fill="#9046A7"/>
<path d="M1268.41 212H1264.57V196.842H1259.08V193.681H1273.9V196.842H1268.41V212ZM1281.13 205.297V212H1277.29V193.681H1284.99C1289.01 193.681 1291.49 195.902 1291.49 199.521C1291.49 201.869 1290.27 203.9 1288.16 204.726L1292.02 212H1287.68L1284.26 205.297H1281.13ZM1281.13 196.677V202.44H1284.49C1286.42 202.44 1287.55 201.387 1287.55 199.571C1287.55 197.794 1286.36 196.677 1284.45 196.677H1281.13ZM1307.48 208.839V212H1295.35V193.681H1307.48V196.842H1299.18V201.26H1307.01V204.205H1299.18V208.839H1307.48ZM1323.66 208.839V212H1311.52V193.681H1323.66V196.842H1315.35V201.26H1323.19V204.205H1315.35V208.839H1323.66Z" fill="#F7F7F7"/>
<path fill-rule="evenodd" clip-rule="evenodd" d="M1243 286.907C1243 259.897 1264.9 238 1291.91 238C1318.92 238 1340.81 259.897 1340.81 286.907H1327.2C1335.63 295.695 1340.81 307.625 1340.81 320.766H1327.2C1335.63 329.554 1340.81 341.484 1340.81 354.625H1243C1243 341.484 1248.18 329.554 1256.62 320.766H1243C1243 307.625 1248.18 295.695 1256.62 286.907H1243Z" fill="#50AA75"/>
<path d="M1414.48 212H1410.65V193.681H1422.65V196.842H1414.48V201.755H1421.93V204.789H1414.48V212ZM1438.17 208.775V212H1426.19V193.681H1430.02V208.775H1438.17ZM1449.15 193.211C1454.55 193.211 1457.96 196.905 1457.96 202.834C1457.96 208.763 1454.56 212.47 1449.15 212.47C1443.71 212.47 1440.33 208.763 1440.33 202.834C1440.33 196.893 1443.76 193.211 1449.15 193.211ZM1449.15 196.461C1446.17 196.461 1444.25 198.937 1444.25 202.834C1444.25 206.719 1446.13 209.22 1449.15 209.22C1452.14 209.22 1454.04 206.719 1454.04 202.834C1454.04 198.937 1452.12 196.461 1449.15 196.461ZM1471.76 199.66L1468.34 212H1464.72L1459.87 193.681H1463.85L1466.71 206.77H1466.91L1470.25 193.681H1473.49L1476.89 206.77H1477.1L1479.93 193.681H1483.89L1479.03 212H1475.43L1471.97 199.66H1471.76ZM1499.36 208.839V212H1487.23V193.681H1499.36V196.842H1491.06V201.26H1498.89V204.205H1491.06V208.839H1499.36ZM1507.23 205.297V212H1503.4V193.681H1511.09C1515.12 193.681 1517.59 195.902 1517.59 199.521C1517.59 201.869 1516.38 203.9 1514.27 204.726L1518.13 212H1513.79L1510.37 205.297H1507.23ZM1507.23 196.677V202.44H1510.6C1512.53 202.44 1513.66 201.387 1513.66 199.571C1513.66 197.794 1512.47 196.677 1510.56 196.677H1507.23Z" fill="#F7F7F7"/>
<path fill-rule="evenodd" clip-rule="evenodd" d="M1512.54 246.938C1524.44 258.855 1524.44 278.176 1512.54 290.093L1506.84 295.799L1512.54 301.506C1524.44 313.423 1524.44 332.744 1512.54 344.661C1500.63 356.578 1481.33 356.578 1469.43 344.661L1463.73 338.954L1458.03 344.659C1446.13 356.576 1426.83 356.576 1414.93 344.659C1403.02 332.742 1403.02 313.421 1414.93 301.504L1420.63 295.799L1414.93 290.095C1403.02 278.178 1403.02 258.857 1414.93 246.94C1426.83 235.023 1446.13 235.023 1458.03 246.94L1463.73 252.644L1469.43 246.938C1481.33 235.021 1500.63 235.021 1512.54 246.938Z" fill="#D82F24"/>
<path d="M929.385 492H924.076V466.635H940.688V471.012H929.385V477.814H939.703V482.016H929.385V492ZM950.9 482.719V492H945.592V466.635H956.244C961.816 466.635 965.244 469.711 965.244 474.721C965.244 477.973 963.557 480.785 960.639 481.928L965.982 492H959.971L955.242 482.719H950.9ZM950.9 470.783V478.764H955.559C958.23 478.764 959.795 477.305 959.795 474.791C959.795 472.33 958.143 470.783 955.506 470.783H950.9ZM981.68 465.984C989.15 465.984 993.879 471.1 993.879 479.309C993.879 487.518 989.168 492.65 981.68 492.65C974.139 492.65 969.463 487.518 969.463 479.309C969.463 471.082 974.209 465.984 981.68 465.984ZM981.68 470.484C977.549 470.484 974.895 473.912 974.895 479.309C974.895 484.688 977.496 488.15 981.68 488.15C985.811 488.15 988.447 484.688 988.447 479.309C988.447 473.912 985.793 470.484 981.68 470.484ZM1025.78 492H1020.86V474.826H1020.58L1014.13 490.752H1010.6L1004.13 474.826H1003.85V492H998.924V466.635H1005.18L1012.2 484.125H1012.51L1019.54 466.635H1025.78V492ZM1040.07 484.986H1045.21C1045.45 487.096 1047.53 488.449 1050.52 488.449C1053.28 488.449 1055.23 487.061 1055.23 485.092C1055.23 483.422 1053.96 482.455 1050.85 481.77L1047.54 481.049C1042.92 480.064 1040.65 477.691 1040.65 473.842C1040.65 469.113 1044.5 465.984 1050.36 465.984C1055.95 465.984 1059.9 469.096 1060.06 473.578H1055.07C1054.82 471.504 1052.96 470.15 1050.39 470.15C1047.74 470.15 1045.98 471.434 1045.98 473.42C1045.98 475.02 1047.19 475.951 1050.16 476.602L1053.22 477.252C1058.32 478.342 1060.52 480.539 1060.52 484.459C1060.52 489.521 1056.6 492.65 1050.23 492.65C1044.19 492.65 1040.27 489.68 1040.07 484.986ZM1082.35 487.623V492H1065.54V466.635H1082.35V471.012H1070.85V477.129H1081.7V481.207H1070.85V487.623H1082.35ZM1104.74 487.623V492H1087.94V466.635H1104.74V471.012H1093.25V477.129H1104.09V481.207H1093.25V487.623H1104.74ZM1110.33 466.635H1120.32C1127.86 466.635 1132.22 471.188 1132.22 479.15C1132.22 487.359 1127.91 492 1120.32 492H1110.33V466.635ZM1115.64 471.012V487.623H1119.47C1124.17 487.623 1126.8 484.67 1126.8 479.238C1126.8 474 1124.08 471.012 1119.47 471.012H1115.64ZM1158.01 492H1152.7V471.012H1145.09V466.635H1165.62V471.012H1158.01V492ZM1180.52 465.984C1187.99 465.984 1192.72 471.1 1192.72 479.309C1192.72 487.518 1188.01 492.65 1180.52 492.65C1172.98 492.65 1168.31 487.518 1168.31 479.309C1168.31 471.082 1173.05 465.984 1180.52 465.984ZM1180.52 470.484C1176.39 470.484 1173.74 473.912 1173.74 479.309C1173.74 484.688 1176.34 488.15 1180.52 488.15C1184.65 488.15 1187.29 484.688 1187.29 479.309C1187.29 473.912 1184.64 470.484 1180.52 470.484ZM1212.36 492H1207.05V466.635H1223.66V471.012H1212.36V477.814H1222.68V482.016H1212.36V492ZM1245.16 487.535V492H1228.56V466.635H1233.87V487.535H1245.16ZM1260.36 465.984C1267.83 465.984 1272.56 471.1 1272.56 479.309C1272.56 487.518 1267.85 492.65 1260.36 492.65C1252.82 492.65 1248.15 487.518 1248.15 479.309C1248.15 471.082 1252.89 465.984 1260.36 465.984ZM1260.36 470.484C1256.23 470.484 1253.58 473.912 1253.58 479.309C1253.58 484.688 1256.18 488.15 1260.36 488.15C1264.49 488.15 1267.13 484.688 1267.13 479.309C1267.13 473.912 1264.48 470.484 1260.36 470.484ZM1291.67 474.914L1286.92 492H1281.91L1275.2 466.635H1280.72L1284.67 484.758H1284.96L1289.58 466.635H1294.06L1298.77 484.758H1299.05L1302.97 466.635H1308.46L1301.72 492H1296.75L1291.95 474.914H1291.67ZM1329.88 487.623V492H1313.08V466.635H1329.88V471.012H1318.39V477.129H1329.23V481.207H1318.39V487.623H1329.88ZM1340.78 482.719V492H1335.47V466.635H1346.13C1351.7 466.635 1355.13 469.711 1355.13 474.721C1355.13 477.973 1353.44 480.785 1350.52 481.928L1355.87 492H1349.85L1345.12 482.719H1340.78ZM1340.78 470.783V478.764H1345.44C1348.11 478.764 1349.68 477.305 1349.68 474.791C1349.68 472.33 1348.03 470.783 1345.39 470.783H1340.78Z" fill="#D3F729"/>
<path d="M931.122 549.542C926.068 549.542 922.875 547.125 922.626 543.375L922.611 543.141H926.874L926.889 543.287C927.05 544.869 928.764 545.938 931.239 545.938C933.598 545.938 935.224 544.811 935.224 543.185V543.17C935.224 541.778 934.184 541.002 931.562 540.46L929.335 540.006C924.94 539.112 923.051 537.062 923.051 533.854V533.839C923.051 529.913 926.42 527.32 931.107 527.32C936.044 527.32 938.944 529.928 939.223 533.458L939.237 533.648H935.077L935.048 533.473C934.799 531.964 933.334 530.909 931.107 530.909C928.925 530.924 927.475 531.92 927.475 533.502V533.517C927.475 534.894 928.5 535.714 930.99 536.227L933.231 536.681C937.699 537.604 939.647 539.391 939.647 542.687V542.701C939.647 546.891 936.396 549.542 931.122 549.542ZM944.731 554.684C944.233 554.684 943.691 554.669 943.193 554.64V551.417C943.486 551.446 943.911 551.461 944.306 551.461C945.83 551.461 946.709 550.875 947.016 549.615L947.163 549L941.494 532.872H946.196L949.58 545.089H949.873L953.256 532.872H957.768L952.275 548.985C950.839 553.248 948.715 554.684 944.731 554.684ZM960.142 549V532.872H964.419V535.392H964.683C965.371 533.575 967.041 532.521 969.151 532.521C971.348 532.521 972.974 533.634 973.633 535.494H973.897C974.629 533.707 976.504 532.521 978.76 532.521C981.968 532.521 983.975 534.601 983.975 537.926V549H979.697V538.995C979.697 537.047 978.819 536.065 977.031 536.065C975.303 536.065 974.19 537.34 974.19 539.083V549H969.912V538.805C969.912 537.076 968.931 536.065 967.261 536.065C965.591 536.065 964.419 537.428 964.419 539.273V549H960.142ZM997.042 549.249C994.757 549.249 993.043 548.238 992.208 546.495H991.944V549H987.667V526.705H991.944V535.45H992.208C993.028 533.692 994.83 532.608 997.042 532.608C1001.13 532.608 1003.59 535.729 1003.59 540.914V540.943C1003.59 546.1 1001.07 549.249 997.042 549.249ZM995.577 545.704C997.847 545.704 999.239 543.917 999.239 540.943V540.914C999.239 537.97 997.833 536.153 995.577 536.153C993.336 536.153 991.9 537.97 991.9 540.929V540.958C991.9 543.917 993.321 545.704 995.577 545.704ZM1013.62 549.337C1008.66 549.337 1005.67 546.188 1005.67 540.943V540.914C1005.67 535.714 1008.7 532.521 1013.62 532.521C1018.55 532.521 1021.58 535.699 1021.58 540.914V540.943C1021.58 546.202 1018.59 549.337 1013.62 549.337ZM1013.62 545.982C1015.89 545.982 1017.2 544.122 1017.2 540.943V540.914C1017.2 537.765 1015.88 535.875 1013.62 535.875C1011.35 535.875 1010.05 537.765 1010.05 540.914V540.943C1010.05 544.122 1011.34 545.982 1013.62 545.982ZM1024.61 549V526.705H1028.89V549H1024.61ZM1034.9 530.396C1033.58 530.396 1032.48 529.342 1032.48 528.023C1032.48 526.69 1033.58 525.636 1034.9 525.636C1036.21 525.636 1037.3 526.69 1037.3 528.023C1037.3 529.342 1036.21 530.396 1034.9 530.396ZM1032.74 549V532.872H1037.02V549H1032.74ZM1040.36 549V546.539L1048.58 536.358V536.095H1040.48V532.872H1053.63V535.597L1045.88 545.514V545.777H1053.82V549H1040.36ZM1063.83 549.337C1058.92 549.337 1055.95 546.129 1055.95 540.958V540.943C1055.95 535.816 1058.95 532.521 1063.65 532.521C1068.35 532.521 1071.28 535.743 1071.28 540.621V541.954H1060.18C1060.22 544.605 1061.64 546.144 1063.91 546.144C1065.79 546.144 1066.83 545.147 1067.12 544.532L1067.17 544.444H1071.15L1071.12 544.591C1070.62 546.612 1068.54 549.337 1063.83 549.337ZM1063.72 535.729C1061.86 535.729 1060.49 536.988 1060.22 539.273H1067.18C1066.92 536.93 1065.58 535.729 1063.72 535.729ZM1079.94 549.249C1075.91 549.249 1073.39 546.1 1073.39 540.943V540.914C1073.39 535.729 1075.85 532.608 1079.94 532.608C1082.15 532.608 1083.95 533.692 1084.76 535.45H1085.02V526.705H1089.3V549H1085.02V546.495H1084.76C1083.93 548.238 1082.21 549.249 1079.94 549.249ZM1081.39 545.704C1083.66 545.704 1085.07 543.917 1085.07 540.958V540.929C1085.07 537.97 1083.65 536.153 1081.39 536.153C1079.14 536.153 1077.74 537.97 1077.74 540.914V540.943C1077.74 543.917 1079.14 545.704 1081.39 545.704ZM1107.36 549.337C1102.32 549.337 1099.47 546.275 1099.47 540.914V540.885C1099.47 535.582 1102.31 532.521 1107.36 532.521C1111.64 532.521 1114.18 534.85 1114.56 538.453V538.497H1110.57L1110.56 538.468C1110.28 536.9 1109.21 535.875 1107.38 535.875C1105.08 535.875 1103.82 537.662 1103.82 540.885V540.914C1103.82 544.181 1105.09 545.982 1107.38 545.982C1109.14 545.982 1110.18 545.147 1110.56 543.536L1110.59 543.478H1114.54L1114.53 543.565C1114.09 547.081 1111.57 549.337 1107.36 549.337ZM1117.44 549V526.705H1121.72V535.362H1121.98C1122.72 533.619 1124.31 532.521 1126.61 532.521C1130.2 532.521 1132.13 534.718 1132.13 538.57V549H1127.86V539.537C1127.86 537.267 1126.92 536.065 1124.9 536.065C1122.92 536.065 1121.72 537.486 1121.72 539.669V549H1117.44ZM1137.86 530.396C1136.54 530.396 1135.45 529.342 1135.45 528.023C1135.45 526.69 1136.54 525.636 1137.86 525.636C1139.18 525.636 1140.27 526.69 1140.27 528.023C1140.27 529.342 1139.18 530.396 1137.86 530.396ZM1135.71 549V532.872H1139.99V549H1135.71ZM1143.84 549V526.705H1148.12V549H1143.84ZM1157.7 549.249C1153.67 549.249 1151.15 546.1 1151.15 540.943V540.914C1151.15 535.729 1153.61 532.608 1157.7 532.608C1159.91 532.608 1161.71 533.692 1162.52 535.45H1162.78V526.705H1167.06V549H1162.78V546.495H1162.52C1161.68 548.238 1159.97 549.249 1157.7 549.249ZM1159.15 545.704C1161.42 545.704 1162.83 543.917 1162.83 540.958V540.929C1162.83 537.97 1161.4 536.153 1159.15 536.153C1156.89 536.153 1155.5 537.97 1155.5 540.914V540.943C1155.5 543.917 1156.89 545.704 1159.15 545.704ZM1170.88 549V532.872H1175.16V535.377H1175.42C1175.94 533.634 1177.4 532.608 1179.5 532.608C1180.07 532.608 1180.67 532.696 1181.09 532.813V536.549C1180.45 536.402 1179.79 536.3 1179.13 536.3C1176.7 536.3 1175.16 537.691 1175.16 539.977V549H1170.88ZM1190.06 549.337C1185.15 549.337 1182.18 546.129 1182.18 540.958V540.943C1182.18 535.816 1185.18 532.521 1189.88 532.521C1194.58 532.521 1197.51 535.743 1197.51 540.621V541.954H1186.41C1186.45 544.605 1187.88 546.144 1190.15 546.144C1192.02 546.144 1193.06 545.147 1193.35 544.532L1193.4 544.444H1197.38L1197.35 544.591C1196.85 546.612 1194.77 549.337 1190.06 549.337ZM1189.96 535.729C1188.09 535.729 1186.72 536.988 1186.45 539.273H1193.41C1193.15 536.93 1191.82 535.729 1189.96 535.729ZM1200.41 549V532.872H1204.69V535.362H1204.96C1205.69 533.619 1207.28 532.521 1209.58 532.521C1213.17 532.521 1215.11 534.718 1215.11 538.57V549H1210.83V539.537C1210.83 537.267 1209.89 536.065 1207.87 536.065C1205.89 536.065 1204.69 537.486 1204.69 539.669V549H1200.41ZM1220.12 536.93L1219.69 527.862H1223.77L1223.34 536.93H1220.12ZM1234.9 549.337C1230.52 549.337 1228.03 547.374 1227.72 544.605L1227.71 544.547H1231.91L1231.94 544.605C1232.28 545.602 1233.26 546.319 1234.94 546.319C1236.58 546.319 1237.7 545.616 1237.7 544.547V544.518C1237.7 543.653 1237.05 543.111 1235.41 542.745L1232.72 542.174C1229.64 541.515 1228.12 540.006 1228.12 537.589V537.574C1228.12 534.542 1230.81 532.521 1234.84 532.521C1239.07 532.521 1241.42 534.63 1241.59 537.223V537.281H1237.62L1237.61 537.208C1237.37 536.344 1236.42 535.538 1234.83 535.538C1233.35 535.538 1232.29 536.227 1232.29 537.311V537.325C1232.29 538.189 1232.89 538.688 1234.56 539.054L1237.24 539.625C1240.46 540.313 1241.97 541.661 1241.97 544.049V544.063C1241.97 547.257 1239.03 549.337 1234.9 549.337ZM1259.13 554.669C1254.66 554.669 1252.07 552.794 1251.72 550.055V549.981H1255.95L1255.96 550.04C1256.2 550.978 1257.31 551.622 1259.22 551.622C1261.5 551.622 1262.83 550.553 1262.83 548.678V545.675H1262.57C1261.68 547.374 1259.98 548.297 1257.74 548.297C1253.68 548.297 1251.17 545.162 1251.17 540.577V540.548C1251.17 535.802 1253.68 532.608 1257.81 532.608C1260.02 532.608 1261.75 533.692 1262.61 535.509H1262.82V532.872H1267.1V548.502C1267.1 552.281 1264.01 554.669 1259.13 554.669ZM1259.19 545.016C1261.5 545.016 1262.88 543.214 1262.88 540.562V540.533C1262.88 537.882 1261.49 536.08 1259.19 536.08C1256.89 536.08 1255.55 537.882 1255.55 540.533V540.562C1255.55 543.214 1256.87 545.016 1259.19 545.016ZM1270.77 549V532.872H1275.05V535.377H1275.32C1275.83 533.634 1277.29 532.608 1279.39 532.608C1279.96 532.608 1280.56 532.696 1280.98 532.813V536.549C1280.34 536.402 1279.68 536.3 1279.02 536.3C1276.59 536.3 1275.05 537.691 1275.05 539.977V549H1270.77ZM1287.34 549.249C1284.27 549.249 1282.08 547.345 1282.08 544.415V544.386C1282.08 541.485 1284.32 539.786 1288.34 539.552L1292.23 539.317V537.984C1292.23 536.593 1291.28 535.802 1289.52 535.802C1287.99 535.802 1287.01 536.344 1286.67 537.296L1286.64 537.354H1282.68L1282.7 537.223C1283.04 534.396 1285.7 532.521 1289.76 532.521C1294.04 532.521 1296.45 534.542 1296.45 537.984V549H1292.23V546.861H1291.97C1291.15 548.355 1289.45 549.249 1287.34 549.249ZM1286.26 544.151C1286.26 545.382 1287.3 546.129 1288.78 546.129C1290.76 546.129 1292.23 544.825 1292.23 543.126V541.939L1288.98 542.145C1287.15 542.262 1286.26 542.95 1286.26 544.122V544.151ZM1305.8 549.249C1301.77 549.249 1299.25 546.1 1299.25 540.943V540.914C1299.25 535.729 1301.71 532.608 1305.8 532.608C1308.01 532.608 1309.81 533.692 1310.62 535.45H1310.88V526.705H1315.16V549H1310.88V546.495H1310.62C1309.78 548.238 1308.07 549.249 1305.8 549.249ZM1307.25 545.704C1309.52 545.704 1310.93 543.917 1310.93 540.958V540.929C1310.93 537.97 1309.51 536.153 1307.25 536.153C1304.99 536.153 1303.6 537.97 1303.6 540.914V540.943C1303.6 543.917 1304.99 545.704 1307.25 545.704ZM1324.32 549.337C1320.7 549.337 1318.84 547.14 1318.84 543.302V532.872H1323.11V542.32C1323.11 544.605 1323.98 545.792 1326 545.792C1328.11 545.792 1329.25 544.371 1329.25 542.188V532.872H1333.53V549H1329.25V546.51H1328.99C1328.26 548.268 1326.62 549.337 1324.32 549.337ZM1341.62 549.249C1338.54 549.249 1336.36 547.345 1336.36 544.415V544.386C1336.36 541.485 1338.6 539.786 1342.61 539.552L1346.51 539.317V537.984C1346.51 536.593 1345.56 535.802 1343.8 535.802C1342.26 535.802 1341.28 536.344 1340.94 537.296L1340.91 537.354H1336.96L1336.97 537.223C1337.31 534.396 1339.98 532.521 1344.03 532.521C1348.31 532.521 1350.73 534.542 1350.73 537.984V549H1346.51V546.861H1346.25C1345.42 548.355 1343.73 549.249 1341.62 549.249ZM1340.53 544.151C1340.53 545.382 1341.57 546.129 1343.05 546.129C1345.03 546.129 1346.51 544.825 1346.51 543.126V541.939L1343.26 542.145C1341.43 542.262 1340.53 542.95 1340.53 544.122V544.151ZM1354.46 549V526.705H1358.74V549H1354.46ZM1376.82 554.669C1372.35 554.669 1369.76 552.794 1369.41 550.055V549.981H1373.64L1373.65 550.04C1373.89 550.978 1375 551.622 1376.91 551.622C1379.19 551.622 1380.52 550.553 1380.52 548.678V545.675H1380.26C1379.37 547.374 1377.67 548.297 1375.43 548.297C1371.37 548.297 1368.86 545.162 1368.86 540.577V540.548C1368.86 535.802 1371.37 532.608 1375.5 532.608C1377.71 532.608 1379.44 533.692 1380.3 535.509H1380.51V532.872H1384.79V548.502C1384.79 552.281 1381.7 554.669 1376.82 554.669ZM1376.88 545.016C1379.19 545.016 1380.57 543.214 1380.57 540.562V540.533C1380.57 537.882 1379.18 536.08 1376.88 536.08C1374.58 536.08 1373.24 537.882 1373.24 540.533V540.562C1373.24 543.214 1374.56 545.016 1376.88 545.016ZM1388.46 549V532.872H1392.74V535.377H1393.01C1393.52 533.634 1394.98 532.608 1397.08 532.608C1397.65 532.608 1398.25 532.696 1398.67 532.813V536.549C1398.03 536.402 1397.37 536.3 1396.71 536.3C1394.28 536.3 1392.74 537.691 1392.74 539.977V549H1388.46ZM1407.71 549.337C1402.75 549.337 1399.76 546.188 1399.76 540.943V540.914C1399.76 535.714 1402.79 532.521 1407.71 532.521C1412.63 532.521 1415.67 535.699 1415.67 540.914V540.943C1415.67 546.202 1412.68 549.337 1407.71 549.337ZM1407.71 545.982C1409.98 545.982 1411.29 544.122 1411.29 540.943V540.914C1411.29 537.765 1409.97 535.875 1407.71 535.875C1405.44 535.875 1404.14 537.765 1404.14 540.914V540.943C1404.14 544.122 1405.43 545.982 1407.71 545.982ZM1420.94 549L1416.63 532.872H1420.96L1423.36 544.547H1423.62L1426.45 532.872H1430.52L1433.36 544.547H1433.63L1436.03 532.872H1440.26L1435.97 549H1431.43L1428.54 537.75H1428.28L1425.42 549H1420.94ZM1449.4 549.059C1445.48 549.059 1443.9 547.784 1443.9 544.649V536.095H1441.41V532.872H1443.9V529.02H1448.22V532.872H1451.54V536.095H1448.22V543.668C1448.22 545.118 1448.83 545.763 1450.28 545.763C1450.84 545.763 1451.13 545.733 1451.54 545.689V548.868C1451.02 548.971 1450.22 549.059 1449.4 549.059ZM1454.65 549V526.705H1458.93V535.362H1459.19C1459.92 533.619 1461.52 532.521 1463.82 532.521C1467.41 532.521 1469.34 534.718 1469.34 538.57V549H1465.06V539.537C1465.06 537.267 1464.13 536.065 1462.1 536.065C1460.13 536.065 1458.93 537.486 1458.93 539.669V549H1454.65ZM928.69 588.103C925.673 588.103 924.428 586.945 924.428 584.074V573.85H921.894V572.224H924.428V568.122H926.435V572.224H930.038V573.85H926.435V583.635C926.435 585.568 927.123 586.374 928.91 586.374C929.35 586.374 929.643 586.359 930.038 586.315V587.985C929.599 588.059 929.159 588.103 928.69 588.103ZM933.628 588V565.939H935.561V574.992H935.752C936.587 573.073 938.286 571.96 940.747 571.96C944.262 571.96 946.269 574.069 946.269 577.746V588H944.336V578.229C944.336 575.227 942.959 573.688 940.234 573.688C937.451 573.688 935.561 575.651 935.561 578.625V588H933.628ZM950.488 588V572.224H952.422V574.816H952.612C953.228 573.015 954.766 571.96 956.904 571.96C957.476 571.96 958.003 572.019 958.384 572.106V574.011C957.813 573.864 957.3 573.806 956.699 573.806C954.238 573.806 952.422 575.607 952.422 578.156V588H950.488ZM966.954 588.264C962.545 588.264 959.791 585.144 959.791 580.119V580.09C959.791 575.065 962.545 571.96 966.954 571.96C971.363 571.96 974.132 575.065 974.132 580.09V580.119C974.132 585.144 971.363 588.264 966.954 588.264ZM966.954 586.535C970.206 586.535 972.139 584.104 972.139 580.119V580.09C972.139 576.105 970.206 573.688 966.954 573.688C963.702 573.688 961.768 576.105 961.768 580.09V580.119C961.768 584.104 963.702 586.535 966.954 586.535ZM983.082 588.264C979.537 588.264 977.545 586.096 977.545 582.478V572.224H979.479V581.994C979.479 584.938 980.841 586.535 983.551 586.535C986.496 586.535 988.253 584.587 988.253 581.599V572.224H990.187V588H988.253V585.246H988.078C987.301 587.15 985.529 588.264 983.082 588.264ZM1000.94 593.508C997.321 593.508 994.919 591.896 994.509 589.45L994.523 589.436H996.53L996.545 589.45C996.896 590.827 998.537 591.779 1000.94 591.779C1003.99 591.779 1005.88 590.227 1005.88 587.678V584.147H1005.69C1004.75 586.228 1002.81 587.429 1000.4 587.429C996.34 587.429 993.747 584.25 993.747 579.724V579.694C993.747 575.183 996.354 571.96 1000.43 571.96C1002.86 571.96 1004.81 573.308 1005.71 575.417H1005.85V572.224H1007.79V587.81C1007.79 591.252 1005.08 593.508 1000.94 593.508ZM1000.78 585.7C1003.94 585.7 1005.91 583.283 1005.91 579.753V579.724C1005.91 576.193 1003.9 573.688 1000.78 573.688C997.629 573.688 995.725 576.164 995.725 579.694V579.724C995.725 583.254 997.629 585.7 1000.78 585.7ZM1012.28 588V565.939H1014.21V574.992H1014.4C1015.24 573.073 1016.94 571.96 1019.4 571.96C1022.91 571.96 1024.92 574.069 1024.92 577.746V588H1022.99V578.229C1022.99 575.227 1021.61 573.688 1018.88 573.688C1016.1 573.688 1014.21 575.651 1014.21 578.625V588H1012.28ZM1036.62 588V572.224H1038.56V575.007H1038.75C1039.42 573.117 1041.05 571.96 1043.2 571.96C1045.41 571.96 1047 573.176 1047.67 575.065H1047.86C1048.67 573.176 1050.51 571.96 1052.78 571.96C1055.95 571.96 1057.78 573.864 1057.78 577.204V588H1055.83V577.644C1055.83 575.065 1054.58 573.688 1052.21 573.688C1049.78 573.688 1048.15 575.549 1048.15 577.995V588H1046.22V577.438C1046.22 575.168 1044.78 573.688 1042.6 573.688C1040.32 573.688 1038.56 575.739 1038.56 578.317V588H1036.62ZM1063.05 568.942C1062.26 568.942 1061.62 568.312 1061.62 567.521C1061.62 566.73 1062.26 566.101 1063.05 566.101C1063.83 566.101 1064.47 566.73 1064.47 567.521C1064.47 568.312 1063.83 568.942 1063.05 568.942ZM1062.07 588V572.224H1064V588H1062.07ZM1073.75 588.264C1070.3 588.264 1067.92 586.623 1067.59 584.045H1069.58C1070.01 585.612 1071.52 586.623 1073.8 586.623C1076.12 586.623 1077.86 585.437 1077.86 583.796V583.767C1077.86 582.404 1076.88 581.599 1074.58 581.057L1072.38 580.529C1069.45 579.841 1068.09 578.625 1068.09 576.413V576.398C1068.09 573.85 1070.6 571.96 1073.77 571.96C1076.95 571.96 1079.21 573.557 1079.58 576.047H1077.67C1077.32 574.582 1075.85 573.586 1073.76 573.586C1071.69 573.586 1070.07 574.743 1070.07 576.311V576.34C1070.07 577.629 1071.04 578.376 1073.13 578.874L1075.31 579.387C1078.36 580.119 1079.84 581.35 1079.84 583.62V583.649C1079.84 586.359 1077.19 588.264 1073.75 588.264ZM1088.35 588.264C1084.91 588.264 1082.52 586.623 1082.2 584.045H1084.19C1084.61 585.612 1086.12 586.623 1088.41 586.623C1090.72 586.623 1092.47 585.437 1092.47 583.796V583.767C1092.47 582.404 1091.48 581.599 1089.19 581.057L1086.99 580.529C1084.06 579.841 1082.7 578.625 1082.7 576.413V576.398C1082.7 573.85 1085.2 571.96 1088.38 571.96C1091.56 571.96 1093.81 573.557 1094.18 576.047H1092.28C1091.92 574.582 1090.46 573.586 1088.36 573.586C1086.3 573.586 1084.67 574.743 1084.67 576.311V576.34C1084.67 577.629 1085.64 578.376 1087.73 578.874L1089.92 579.387C1092.96 580.119 1094.44 581.35 1094.44 583.62V583.649C1094.44 586.359 1091.79 588.264 1088.35 588.264ZM1099.01 568.942C1098.22 568.942 1097.58 568.312 1097.58 567.521C1097.58 566.73 1098.22 566.101 1099.01 566.101C1099.79 566.101 1100.44 566.73 1100.44 567.521C1100.44 568.312 1099.79 568.942 1099.01 568.942ZM1098.03 588V572.224H1099.97V588H1098.03ZM1110.78 588.264C1106.37 588.264 1103.62 585.144 1103.62 580.119V580.09C1103.62 575.065 1106.37 571.96 1110.78 571.96C1115.19 571.96 1117.96 575.065 1117.96 580.09V580.119C1117.96 585.144 1115.19 588.264 1110.78 588.264ZM1110.78 586.535C1114.03 586.535 1115.96 584.104 1115.96 580.119V580.09C1115.96 576.105 1114.03 573.688 1110.78 573.688C1107.53 573.688 1105.59 576.105 1105.59 580.09V580.119C1105.59 584.104 1107.53 586.535 1110.78 586.535ZM1121.5 588V572.224H1123.43V574.992H1123.63C1124.46 573.088 1126.16 571.96 1128.62 571.96C1132.14 571.96 1134.14 574.069 1134.14 577.746V588H1132.21V578.229C1132.21 575.227 1130.85 573.688 1128.11 573.688C1125.32 573.688 1123.43 575.651 1123.43 578.625V588H1121.5ZM1143.67 588.264C1140.22 588.264 1137.83 586.623 1137.51 584.045H1139.5C1139.93 585.612 1141.44 586.623 1143.72 586.623C1146.04 586.623 1147.78 585.437 1147.78 583.796V583.767C1147.78 582.404 1146.8 581.599 1144.5 581.057L1142.3 580.529C1139.37 579.841 1138.01 578.625 1138.01 576.413V576.398C1138.01 573.85 1140.52 571.96 1143.69 571.96C1146.87 571.96 1149.13 573.557 1149.5 576.047H1147.59C1147.24 574.582 1145.77 573.586 1143.68 573.586C1141.61 573.586 1139.99 574.743 1139.99 576.311V576.34C1139.99 577.629 1140.96 578.376 1143.05 578.874L1145.23 579.387C1148.28 580.119 1149.76 581.35 1149.76 583.62V583.649C1149.76 586.359 1147.11 588.264 1143.67 588.264ZM1160.75 593.229V572.224H1162.68V575.358H1162.87C1163.79 573.249 1165.74 571.96 1168.16 571.96C1172.16 571.96 1174.84 575.227 1174.84 580.09V580.119C1174.84 585.012 1172.16 588.264 1168.16 588.264C1165.77 588.264 1163.73 586.96 1162.87 584.924H1162.68V593.229H1160.75ZM1167.76 586.535C1170.88 586.535 1172.86 584.03 1172.86 580.119V580.09C1172.86 576.193 1170.88 573.688 1167.76 573.688C1164.66 573.688 1162.65 576.208 1162.65 580.09V580.119C1162.65 584.016 1164.66 586.535 1167.76 586.535ZM1182.72 588.264C1179.67 588.264 1177.45 586.462 1177.45 583.649V583.62C1177.45 580.881 1179.48 579.284 1183.13 579.035L1188.05 578.713V577.233C1188.05 574.919 1186.65 573.688 1184.1 573.688C1181.96 573.688 1180.45 574.553 1180.04 576.12L1180.02 576.149H1178.08L1178.09 576.091C1178.5 573.571 1180.89 571.96 1184.16 571.96C1187.85 571.96 1190 573.894 1190 577.219V588H1188.05V585.29H1187.88C1186.94 587.165 1185.05 588.264 1182.72 588.264ZM1179.42 583.62C1179.42 585.422 1180.96 586.564 1183.09 586.564C1185.91 586.564 1188.05 584.631 1188.05 582.126V580.295L1183.39 580.617C1180.71 580.793 1179.42 581.804 1179.42 583.591V583.62ZM1194.26 588V572.224H1196.2V574.816H1196.39C1197 573.015 1198.54 571.96 1200.68 571.96C1201.25 571.96 1201.78 572.019 1202.16 572.106V574.011C1201.59 573.864 1201.07 573.806 1200.47 573.806C1198.01 573.806 1196.2 575.607 1196.2 578.156V588H1194.26ZM1208.91 588.264C1205.87 588.264 1203.64 586.462 1203.64 583.649V583.62C1203.64 580.881 1205.67 579.284 1209.32 579.035L1214.24 578.713V577.233C1214.24 574.919 1212.84 573.688 1210.29 573.688C1208.15 573.688 1206.64 574.553 1206.23 576.12L1206.22 576.149H1204.27L1204.28 576.091C1204.69 573.571 1207.08 571.96 1210.35 571.96C1214.04 571.96 1216.19 573.894 1216.19 577.219V588H1214.24V585.29H1214.07C1213.13 587.165 1211.24 588.264 1208.91 588.264ZM1205.62 583.62C1205.62 585.422 1207.15 586.564 1209.28 586.564C1212.11 586.564 1214.24 584.631 1214.24 582.126V580.295L1209.59 580.617C1206.91 580.793 1205.62 581.804 1205.62 583.591V583.62ZM1220.6 588V565.939H1222.54V588H1220.6ZM1227.18 588V565.939H1229.11V588H1227.18ZM1239.97 588.264C1235.54 588.264 1232.82 585.114 1232.82 580.163V580.134C1232.82 575.212 1235.57 571.96 1239.81 571.96C1244.04 571.96 1246.65 575.124 1246.65 579.797V580.617H1234.8C1234.86 584.309 1236.88 586.521 1240.01 586.521C1242.31 586.521 1243.89 585.437 1244.41 584.206L1244.47 584.104H1246.41L1246.37 584.221C1245.75 586.359 1243.45 588.264 1239.97 588.264ZM1239.81 573.688C1237.08 573.688 1235.06 575.622 1234.81 579.035H1244.69C1244.47 575.534 1242.52 573.688 1239.81 573.688ZM1250.35 588V565.939H1252.29V588H1250.35ZM1269.49 588.103C1266.47 588.103 1265.22 586.945 1265.22 584.074V573.85H1262.69V572.224H1265.22V568.122H1267.23V572.224H1270.83V573.85H1267.23V583.635C1267.23 585.568 1267.92 586.374 1269.71 586.374C1270.15 586.374 1270.44 586.359 1270.83 586.315V587.985C1270.4 588.059 1269.96 588.103 1269.49 588.103ZM1280.36 588.264C1275.95 588.264 1273.19 585.144 1273.19 580.119V580.09C1273.19 575.065 1275.95 571.96 1280.36 571.96C1284.77 571.96 1287.53 575.065 1287.53 580.09V580.119C1287.53 585.144 1284.77 588.264 1280.36 588.264ZM1280.36 586.535C1283.61 586.535 1285.54 584.104 1285.54 580.119V580.09C1285.54 576.105 1283.61 573.688 1280.36 573.688C1277.1 573.688 1275.17 576.105 1275.17 580.09V580.119C1275.17 584.104 1277.1 586.535 1280.36 586.535ZM1303.78 588.103C1300.76 588.103 1299.52 586.945 1299.52 584.074V573.85H1296.98V572.224H1299.52V568.122H1301.52V572.224H1305.13V573.85H1301.52V583.635C1301.52 585.568 1302.21 586.374 1304 586.374C1304.44 586.374 1304.73 586.359 1305.13 586.315V587.985C1304.69 588.059 1304.25 588.103 1303.78 588.103ZM1308.72 588V565.939H1310.65V574.992H1310.84C1311.68 573.073 1313.38 571.96 1315.84 571.96C1319.35 571.96 1321.36 574.069 1321.36 577.746V588H1319.43V578.229C1319.43 575.227 1318.05 573.688 1315.32 573.688C1312.54 573.688 1310.65 575.651 1310.65 578.625V588H1308.72ZM1331.94 588.264C1327.51 588.264 1324.79 585.114 1324.79 580.163V580.134C1324.79 575.212 1327.54 571.96 1331.77 571.96C1336.01 571.96 1338.62 575.124 1338.62 579.797V580.617H1326.77C1326.82 584.309 1328.85 586.521 1331.98 586.521C1334.28 586.521 1335.86 585.437 1336.37 584.206L1336.43 584.104H1338.38L1338.34 584.221C1337.72 586.359 1335.42 588.264 1331.94 588.264ZM1331.77 573.688C1329.05 573.688 1327.03 575.622 1326.78 579.035H1336.65C1336.43 575.534 1334.48 573.688 1331.77 573.688ZM1354.06 588L1348.17 572.224H1350.22L1354.99 585.905H1355.17L1359.93 572.224H1362L1356.11 588H1354.06ZM1370.65 588.264C1366.23 588.264 1363.51 585.114 1363.51 580.163V580.134C1363.51 575.212 1366.26 571.96 1370.49 571.96C1374.73 571.96 1377.33 575.124 1377.33 579.797V580.617H1365.48C1365.54 584.309 1367.56 586.521 1370.7 586.521C1373 586.521 1374.58 585.437 1375.09 584.206L1375.15 584.104H1377.1L1377.06 584.221C1376.44 586.359 1374.14 588.264 1370.65 588.264ZM1370.49 573.688C1367.77 573.688 1365.75 575.622 1365.5 579.035H1375.37C1375.15 575.534 1373.2 573.688 1370.49 573.688ZM1387.29 593.508C1383.68 593.508 1381.27 591.896 1380.86 589.45L1380.88 589.436H1382.89L1382.9 589.45C1383.25 590.827 1384.89 591.779 1387.29 591.779C1390.34 591.779 1392.23 590.227 1392.23 587.678V584.147H1392.04C1391.1 586.228 1389.17 587.429 1386.75 587.429C1382.7 587.429 1380.1 584.25 1380.1 579.724V579.694C1380.1 575.183 1382.71 571.96 1386.78 571.96C1389.21 571.96 1391.16 573.308 1392.07 575.417H1392.2V572.224H1394.15V587.81C1394.15 591.252 1391.44 593.508 1387.29 593.508ZM1387.13 585.7C1390.3 585.7 1392.26 583.283 1392.26 579.753V579.724C1392.26 576.193 1390.25 573.688 1387.13 573.688C1383.98 573.688 1382.08 576.164 1382.08 579.694V579.724C1382.08 583.254 1383.98 585.7 1387.13 585.7ZM1404.84 588.264C1400.42 588.264 1397.7 585.114 1397.7 580.163V580.134C1397.7 575.212 1400.45 571.96 1404.68 571.96C1408.92 571.96 1411.52 575.124 1411.52 579.797V580.617H1399.67C1399.73 584.309 1401.75 586.521 1404.89 586.521C1407.19 586.521 1408.77 585.437 1409.28 584.206L1409.34 584.104H1411.29L1411.25 584.221C1410.63 586.359 1408.33 588.264 1404.84 588.264ZM1404.68 573.688C1401.96 573.688 1399.94 575.622 1399.69 579.035H1409.56C1409.34 575.534 1407.39 573.688 1404.68 573.688ZM1420.3 588.103C1417.28 588.103 1416.04 586.945 1416.04 584.074V573.85H1413.5V572.224H1416.04V568.122H1418.04V572.224H1421.65V573.85H1418.04V583.635C1418.04 585.568 1418.73 586.374 1420.52 586.374C1420.96 586.374 1421.25 586.359 1421.65 586.315V587.985C1421.21 588.059 1420.77 588.103 1420.3 588.103ZM1429.21 588.264C1426.16 588.264 1423.93 586.462 1423.93 583.649V583.62C1423.93 580.881 1425.97 579.284 1429.62 579.035L1434.54 578.713V577.233C1434.54 574.919 1433.13 573.688 1430.58 573.688C1428.44 573.688 1426.94 574.553 1426.53 576.12L1426.51 576.149H1424.56L1424.58 576.091C1424.99 573.571 1427.37 571.96 1430.64 571.96C1434.33 571.96 1436.49 573.894 1436.49 577.219V588H1434.54V585.29H1434.36C1433.42 587.165 1431.53 588.264 1429.21 588.264ZM1425.91 583.62C1425.91 585.422 1427.45 586.564 1429.57 586.564C1432.4 586.564 1434.54 584.631 1434.54 582.126V580.295L1429.88 580.617C1427.2 580.793 1425.91 581.804 1425.91 583.591V583.62ZM1448.31 588.264C1445.89 588.264 1443.93 586.975 1443.02 584.851H1442.83V588H1440.9V565.939H1442.83V575.285H1443.02C1443.88 573.249 1445.92 571.96 1448.31 571.96C1452.31 571.96 1454.94 575.183 1454.94 580.09V580.119C1454.94 584.997 1452.29 588.264 1448.31 588.264ZM1447.91 586.535C1451.02 586.535 1452.97 584.03 1452.97 580.104V580.075C1452.97 576.164 1451.02 573.688 1447.91 573.688C1444.81 573.688 1442.8 576.208 1442.8 580.09V580.119C1442.8 584.001 1444.81 586.535 1447.91 586.535ZM1458.64 588V565.939H1460.57V588H1458.64ZM1471.42 588.264C1467 588.264 1464.28 585.114 1464.28 580.163V580.134C1464.28 575.212 1467.03 571.96 1471.26 571.96C1475.5 571.96 1478.1 575.124 1478.1 579.797V580.617H1466.25C1466.31 584.309 1468.33 586.521 1471.47 586.521C1473.77 586.521 1475.35 585.437 1475.86 584.206L1475.92 584.104H1477.87L1477.83 584.221C1477.21 586.359 1474.91 588.264 1471.42 588.264ZM1471.26 573.688C1468.54 573.688 1466.52 575.622 1466.27 579.035H1476.14C1475.92 575.534 1473.97 573.688 1471.26 573.688ZM1482.72 574.655L1482.5 566.862H1484.56L1484.34 574.655H1482.72ZM1495.07 588.264C1491.63 588.264 1489.24 586.623 1488.92 584.045H1490.91C1491.33 585.612 1492.84 586.623 1495.13 586.623C1497.44 586.623 1499.18 585.437 1499.18 583.796V583.767C1499.18 582.404 1498.2 581.599 1495.9 581.057L1493.71 580.529C1490.78 579.841 1489.41 578.625 1489.41 576.413V576.398C1489.41 573.85 1491.92 571.96 1495.1 571.96C1498.28 571.96 1500.53 573.557 1500.9 576.047H1498.99C1498.64 574.582 1497.18 573.586 1495.08 573.586C1493.02 573.586 1491.39 574.743 1491.39 576.311V576.34C1491.39 577.629 1492.36 578.376 1494.45 578.874L1496.64 579.387C1499.68 580.119 1501.16 581.35 1501.16 583.62V583.649C1501.16 586.359 1498.51 588.264 1495.07 588.264ZM928.69 623.103C925.673 623.103 924.428 621.945 924.428 619.074V608.85H921.894V607.224H924.428V603.122H926.435V607.224H930.038V608.85H926.435V618.635C926.435 620.568 927.123 621.374 928.91 621.374C929.35 621.374 929.643 621.359 930.038 621.315V622.985C929.599 623.059 929.159 623.103 928.69 623.103ZM933.481 623V607.224H935.415V609.816H935.605C936.22 608.015 937.758 606.96 939.897 606.96C940.468 606.96 940.996 607.019 941.377 607.106V609.011C940.805 608.864 940.293 608.806 939.692 608.806C937.231 608.806 935.415 610.607 935.415 613.156V623H933.481ZM948.13 623.264C945.083 623.264 942.857 621.462 942.857 618.649V618.62C942.857 615.881 944.893 614.284 948.54 614.035L953.462 613.713V612.233C953.462 609.919 952.056 608.688 949.507 608.688C947.368 608.688 945.86 609.553 945.449 611.12L945.435 611.149H943.487L943.501 611.091C943.911 608.571 946.299 606.96 949.566 606.96C953.257 606.96 955.41 608.894 955.41 612.219V623H953.462V620.29H953.286C952.349 622.165 950.459 623.264 948.13 623.264ZM944.834 618.62C944.834 620.422 946.372 621.564 948.496 621.564C951.323 621.564 953.462 619.631 953.462 617.126V615.295L948.804 615.617C946.123 615.793 944.834 616.804 944.834 618.591V618.62ZM959.674 623V607.224H961.607V609.992H961.798C962.633 608.088 964.332 606.96 966.793 606.96C970.308 606.96 972.315 609.069 972.315 612.746V623H970.382V613.229C970.382 610.227 969.019 608.688 966.28 608.688C963.497 608.688 961.607 610.651 961.607 613.625V623H959.674ZM981.837 623.264C978.395 623.264 976.007 621.623 975.685 619.045H977.677C978.102 620.612 979.611 621.623 981.896 621.623C984.21 621.623 985.954 620.437 985.954 618.796V618.767C985.954 617.404 984.972 616.599 982.672 616.057L980.475 615.529C977.545 614.841 976.183 613.625 976.183 611.413V611.398C976.183 608.85 978.688 606.96 981.867 606.96C985.045 606.96 987.301 608.557 987.667 611.047H985.763C985.412 609.582 983.947 608.586 981.852 608.586C979.787 608.586 978.161 609.743 978.161 611.311V611.34C978.161 612.629 979.127 613.376 981.222 613.874L983.405 614.387C986.452 615.119 987.931 616.35 987.931 618.62V618.649C987.931 621.359 985.28 623.264 981.837 623.264ZM992.487 623V608.85H989.865V607.224H992.487V605.202C992.487 602.272 993.981 600.793 996.735 600.793C997.307 600.793 997.79 600.837 998.273 600.925V602.492C997.98 602.448 997.541 602.419 997.087 602.419C995.271 602.419 994.436 603.415 994.436 605.246V607.224H998.127V608.85H994.436V623H992.487ZM1006.99 623.264C1002.58 623.264 999.827 620.144 999.827 615.119V615.09C999.827 610.065 1002.58 606.96 1006.99 606.96C1011.4 606.96 1014.17 610.065 1014.17 615.09V615.119C1014.17 620.144 1011.4 623.264 1006.99 623.264ZM1006.99 621.535C1010.24 621.535 1012.18 619.104 1012.18 615.119V615.09C1012.18 611.105 1010.24 608.688 1006.99 608.688C1003.74 608.688 1001.8 611.105 1001.8 615.09V615.119C1001.8 619.104 1003.74 621.535 1006.99 621.535ZM1017.71 623V607.224H1019.65V609.816H1019.84C1020.45 608.015 1021.99 606.96 1024.13 606.96C1024.7 606.96 1025.23 607.019 1025.61 607.106V609.011C1025.04 608.864 1024.52 608.806 1023.92 608.806C1021.46 608.806 1019.65 610.607 1019.65 613.156V623H1017.71ZM1028.51 623V607.224H1030.44V610.007H1030.63C1031.31 608.117 1032.93 606.96 1035.09 606.96C1037.3 606.96 1038.88 608.176 1039.55 610.065H1039.74C1040.55 608.176 1042.4 606.96 1044.67 606.96C1047.83 606.96 1049.66 608.864 1049.66 612.204V623H1047.71V612.644C1047.71 610.065 1046.47 608.688 1044.1 608.688C1041.66 608.688 1040.04 610.549 1040.04 612.995V623H1038.1V612.438C1038.1 610.168 1036.67 608.688 1034.49 608.688C1032.2 608.688 1030.44 610.739 1030.44 613.317V623H1028.51ZM1058.22 623.264C1055.17 623.264 1052.94 621.462 1052.94 618.649V618.62C1052.94 615.881 1054.98 614.284 1058.63 614.035L1063.55 613.713V612.233C1063.55 609.919 1062.14 608.688 1059.59 608.688C1057.46 608.688 1055.95 609.553 1055.54 611.12L1055.52 611.149H1053.57L1053.59 611.091C1054 608.571 1056.39 606.96 1059.65 606.96C1063.34 606.96 1065.5 608.894 1065.5 612.219V623H1063.55V620.29H1063.37C1062.44 622.165 1060.55 623.264 1058.22 623.264ZM1054.92 618.62C1054.92 620.422 1056.46 621.564 1058.58 621.564C1061.41 621.564 1063.55 619.631 1063.55 617.126V615.295L1058.89 615.617C1056.21 615.793 1054.92 616.804 1054.92 618.591V618.62ZM1074.98 623.103C1071.96 623.103 1070.71 621.945 1070.71 619.074V608.85H1068.18V607.224H1070.71V603.122H1072.72V607.224H1076.32V608.85H1072.72V618.635C1072.72 620.568 1073.41 621.374 1075.2 621.374C1075.63 621.374 1075.93 621.359 1076.32 621.315V622.985C1075.88 623.059 1075.44 623.103 1074.98 623.103ZM1080.84 603.942C1080.04 603.942 1079.4 603.312 1079.4 602.521C1079.4 601.73 1080.04 601.101 1080.84 601.101C1081.61 601.101 1082.26 601.73 1082.26 602.521C1082.26 603.312 1081.61 603.942 1080.84 603.942ZM1079.85 623V607.224H1081.79V623H1079.85ZM1092.6 623.264C1088.19 623.264 1085.44 620.144 1085.44 615.119V615.09C1085.44 610.065 1088.19 606.96 1092.6 606.96C1097.01 606.96 1099.78 610.065 1099.78 615.09V615.119C1099.78 620.144 1097.01 623.264 1092.6 623.264ZM1092.6 621.535C1095.85 621.535 1097.78 619.104 1097.78 615.119V615.09C1097.78 611.105 1095.85 608.688 1092.6 608.688C1089.35 608.688 1087.41 611.105 1087.41 615.09V615.119C1087.41 619.104 1089.35 621.535 1092.6 621.535ZM1103.32 623V607.224H1105.26V609.992H1105.45C1106.28 608.088 1107.98 606.96 1110.44 606.96C1113.96 606.96 1115.96 609.069 1115.96 612.746V623H1114.03V613.229C1114.03 610.227 1112.67 608.688 1109.93 608.688C1107.15 608.688 1105.26 610.651 1105.26 613.625V623H1103.32ZM1128.72 623V608.85H1126.1V607.224H1128.72V605.202C1128.72 602.272 1130.22 600.793 1132.97 600.793C1133.54 600.793 1134.03 600.837 1134.51 600.925V602.492C1134.22 602.448 1133.78 602.419 1133.32 602.419C1131.51 602.419 1130.67 603.415 1130.67 605.246V607.224H1134.36V608.85H1130.67V623H1128.72ZM1137.59 623V607.224H1139.52V609.816H1139.71C1140.33 608.015 1141.86 606.96 1144 606.96C1144.57 606.96 1145.1 607.019 1145.48 607.106V609.011C1144.91 608.864 1144.4 608.806 1143.8 608.806C1141.34 608.806 1139.52 610.607 1139.52 613.156V623H1137.59ZM1154.05 623.264C1149.64 623.264 1146.89 620.144 1146.89 615.119V615.09C1146.89 610.065 1149.64 606.96 1154.05 606.96C1158.46 606.96 1161.23 610.065 1161.23 615.09V615.119C1161.23 620.144 1158.46 623.264 1154.05 623.264ZM1154.05 621.535C1157.3 621.535 1159.24 619.104 1159.24 615.119V615.09C1159.24 611.105 1157.3 608.688 1154.05 608.688C1150.8 608.688 1148.87 611.105 1148.87 615.09V615.119C1148.87 619.104 1150.8 621.535 1154.05 621.535ZM1164.78 623V607.224H1166.71V610.007H1166.9C1167.57 608.117 1169.2 606.96 1171.35 606.96C1173.56 606.96 1175.15 608.176 1175.82 610.065H1176.01C1176.82 608.176 1178.66 606.96 1180.93 606.96C1184.1 606.96 1185.93 608.864 1185.93 612.204V623H1183.98V612.644C1183.98 610.065 1182.73 608.688 1180.36 608.688C1177.93 608.688 1176.3 610.549 1176.3 612.995V623H1174.37V612.438C1174.37 610.168 1172.93 608.688 1170.75 608.688C1168.47 608.688 1166.71 610.739 1166.71 613.317V623H1164.78ZM1202.92 623.264C1199.48 623.264 1197.09 621.623 1196.77 619.045H1198.76C1199.19 620.612 1200.69 621.623 1202.98 621.623C1205.29 621.623 1207.04 620.437 1207.04 618.796V618.767C1207.04 617.404 1206.06 616.599 1203.76 616.057L1201.56 615.529C1198.63 614.841 1197.27 613.625 1197.27 611.413V611.398C1197.27 608.85 1199.77 606.96 1202.95 606.96C1206.13 606.96 1208.38 608.557 1208.75 611.047H1206.85C1206.5 609.582 1205.03 608.586 1202.94 608.586C1200.87 608.586 1199.24 609.743 1199.24 611.311V611.34C1199.24 612.629 1200.21 613.376 1202.31 613.874L1204.49 614.387C1207.54 615.119 1209.01 616.35 1209.01 618.62V618.649C1209.01 621.359 1206.36 623.264 1202.92 623.264ZM1218.87 623.264C1214.45 623.264 1211.73 620.114 1211.73 615.163V615.134C1211.73 610.212 1214.48 606.96 1218.71 606.96C1222.95 606.96 1225.55 610.124 1225.55 614.797V615.617H1213.7C1213.76 619.309 1215.78 621.521 1218.92 621.521C1221.22 621.521 1222.8 620.437 1223.31 619.206L1223.37 619.104H1225.32L1225.27 619.221C1224.66 621.359 1222.36 623.264 1218.87 623.264ZM1218.71 608.688C1215.99 608.688 1213.97 610.622 1213.72 614.035H1223.59C1223.37 610.534 1221.42 608.688 1218.71 608.688ZM1235.47 623.264C1231.05 623.264 1228.32 620.114 1228.32 615.163V615.134C1228.32 610.212 1231.08 606.96 1235.31 606.96C1239.54 606.96 1242.15 610.124 1242.15 614.797V615.617H1230.3C1230.36 619.309 1232.38 621.521 1235.51 621.521C1237.81 621.521 1239.4 620.437 1239.91 619.206L1239.97 619.104H1241.92L1241.87 619.221C1241.26 621.359 1238.96 623.264 1235.47 623.264ZM1235.31 608.688C1232.59 608.688 1230.56 610.622 1230.31 614.035H1240.19C1239.97 610.534 1238.02 608.688 1235.31 608.688ZM1251.58 623.264C1247.6 623.264 1244.92 619.997 1244.92 615.134V615.104C1244.92 610.212 1247.59 606.96 1251.58 606.96C1253.97 606.96 1256.01 608.264 1256.89 610.3H1257.06V600.939H1259.01V623H1257.06V619.851H1256.89C1255.96 621.975 1254.02 623.264 1251.58 623.264ZM1251.99 621.535C1255.1 621.535 1257.11 619.016 1257.11 615.119V615.09C1257.11 611.208 1255.1 608.688 1251.99 608.688C1248.87 608.688 1246.9 611.193 1246.9 615.09V615.119C1246.9 619.03 1248.87 621.535 1251.99 621.535ZM1268.81 623.264C1265.37 623.264 1262.98 621.623 1262.66 619.045H1264.65C1265.08 620.612 1266.59 621.623 1268.87 621.623C1271.18 621.623 1272.93 620.437 1272.93 618.796V618.767C1272.93 617.404 1271.95 616.599 1269.65 616.057L1267.45 615.529C1264.52 614.841 1263.16 613.625 1263.16 611.413V611.398C1263.16 608.85 1265.66 606.96 1268.84 606.96C1272.02 606.96 1274.28 608.557 1274.64 611.047H1272.74C1272.39 609.582 1270.92 608.586 1268.83 608.586C1266.76 608.586 1265.14 609.743 1265.14 611.311V611.34C1265.14 612.629 1266.1 613.376 1268.2 613.874L1270.38 614.387C1273.43 615.119 1274.91 616.35 1274.91 618.62V618.649C1274.91 621.359 1272.25 623.264 1268.81 623.264ZM1291.11 623.103C1288.09 623.103 1286.85 621.945 1286.85 619.074V608.85H1284.31V607.224H1286.85V603.122H1288.85V607.224H1292.46V608.85H1288.85V618.635C1288.85 620.568 1289.54 621.374 1291.33 621.374C1291.77 621.374 1292.06 621.359 1292.46 621.315V622.985C1292.02 623.059 1291.58 623.103 1291.11 623.103ZM1301.98 623.264C1297.57 623.264 1294.81 620.144 1294.81 615.119V615.09C1294.81 610.065 1297.57 606.96 1301.98 606.96C1306.39 606.96 1309.16 610.065 1309.16 615.09V615.119C1309.16 620.144 1306.39 623.264 1301.98 623.264ZM1301.98 621.535C1305.23 621.535 1307.16 619.104 1307.16 615.119V615.09C1307.16 611.105 1305.23 608.688 1301.98 608.688C1298.73 608.688 1296.79 611.105 1296.79 615.09V615.119C1296.79 619.104 1298.73 621.535 1301.98 621.535ZM1321.24 623V608.85H1318.62V607.224H1321.24V605.202C1321.24 602.272 1322.74 600.793 1325.49 600.793C1326.06 600.793 1326.54 600.837 1327.03 600.925V602.492C1326.73 602.448 1326.3 602.419 1325.84 602.419C1324.02 602.419 1323.19 603.415 1323.19 605.246V607.224H1326.88V608.85H1323.19V623H1321.24ZM1330.25 623V600.939H1332.18V623H1330.25ZM1343.05 623.264C1338.65 623.264 1335.89 620.144 1335.89 615.119V615.09C1335.89 610.065 1338.65 606.96 1343.05 606.96C1347.46 606.96 1350.23 610.065 1350.23 615.09V615.119C1350.23 620.144 1347.46 623.264 1343.05 623.264ZM1343.05 621.535C1346.31 621.535 1348.24 619.104 1348.24 615.119V615.09C1348.24 611.105 1346.31 608.688 1343.05 608.688C1339.8 608.688 1337.87 611.105 1337.87 615.09V615.119C1337.87 619.104 1339.8 621.535 1343.05 621.535ZM1356.19 623L1351.73 607.224H1353.67L1357.18 620.612H1357.35L1361.25 607.224H1363.17L1367.06 620.612H1367.24L1370.77 607.224H1372.7L1368.21 623H1366.17L1362.29 609.904H1362.1L1358.22 623H1356.19ZM1381.36 623.264C1376.94 623.264 1374.21 620.114 1374.21 615.163V615.134C1374.21 610.212 1376.97 606.96 1381.2 606.96C1385.43 606.96 1388.04 610.124 1388.04 614.797V615.617H1376.19C1376.25 619.309 1378.27 621.521 1381.41 621.521C1383.7 621.521 1385.29 620.437 1385.8 619.206L1385.86 619.104H1387.81L1387.76 619.221C1387.15 621.359 1384.85 623.264 1381.36 623.264ZM1381.2 608.688C1378.48 608.688 1376.45 610.622 1376.2 614.035H1386.08C1385.86 610.534 1383.91 608.688 1381.2 608.688ZM1391.6 623V607.224H1393.53V609.816H1393.73C1394.34 608.015 1395.88 606.96 1398.02 606.96C1398.59 606.96 1399.12 607.019 1399.5 607.106V609.011C1398.93 608.864 1398.41 608.806 1397.81 608.806C1395.35 608.806 1393.53 610.607 1393.53 613.156V623H1391.6ZM1407.14 623.264C1403.7 623.264 1401.31 621.623 1400.99 619.045H1402.98C1403.41 620.612 1404.92 621.623 1407.2 621.623C1409.52 621.623 1411.26 620.437 1411.26 618.796V618.767C1411.26 617.404 1410.28 616.599 1407.98 616.057L1405.78 615.529C1402.85 614.841 1401.49 613.625 1401.49 611.413V611.398C1401.49 608.85 1403.99 606.96 1407.17 606.96C1410.35 606.96 1412.61 608.557 1412.97 611.047H1411.07C1410.72 609.582 1409.25 608.586 1407.16 608.586C1405.09 608.586 1403.47 609.743 1403.47 611.311V611.34C1403.47 612.629 1404.43 613.376 1406.53 613.874L1408.71 614.387C1411.76 615.119 1413.24 616.35 1413.24 618.62V618.649C1413.24 621.359 1410.59 623.264 1407.14 623.264ZM1418.61 623.117C1417.75 623.117 1417.06 622.429 1417.06 621.579C1417.06 620.715 1417.75 620.026 1418.61 620.026C1419.48 620.026 1420.15 620.715 1420.15 621.579C1420.15 622.429 1419.48 623.117 1418.61 623.117Z" fill="white"/>
<path d="M449.97 343.849H325.265V468.697H449.97V343.849Z" fill="#50AA75"/>
<path d="M449.97 219H325.265V343.849H449.97V219Z" fill="#F2D74E"/>
<path d="M574.674 219H449.97V343.849H574.674V219Z" fill="#9046A7"/>
<path d="M574.674 343.849H449.97V468.697H574.674V343.849Z" fill="#D82F24"/>
<path d="M507.753 367.507C498.207 357.95 482.73 357.95 473.184 367.507C463.638 377.064 463.638 392.559 473.184 402.116L516.894 445.876C526.44 455.433 541.916 455.433 551.462 445.876C561.008 436.319 561.008 420.824 551.462 411.268L507.753 367.507Z" fill="#19170F"/>
<path d="M551.462 402.114C561.008 392.557 561.008 377.063 551.462 367.506C541.916 357.949 526.439 357.949 516.894 367.506L473.184 411.266C463.638 420.823 463.638 436.318 473.184 445.875C482.73 455.431 498.207 455.431 507.752 445.875L551.462 402.114Z" fill="#19170F"/>
<path d="M536.766 259.062C536.766 245.547 525.822 234.59 512.322 234.59C498.823 234.59 487.879 245.547 487.879 259.062V303.791C487.879 317.306 498.823 328.263 512.322 328.263C525.822 328.263 536.766 317.306 536.766 303.791V259.062Z" fill="#19170F"/>
<path d="M348.315 398.787C348.315 377.056 365.912 359.439 387.618 359.439C409.324 359.439 426.92 377.056 426.92 398.787" fill="#19170F"/>
<path d="M348.315 425.95C348.315 404.218 365.912 386.602 387.618 386.602C409.324 386.602 426.92 404.218 426.92 425.95" fill="#19170F"/>
<path d="M348.315 453.107C348.315 431.376 365.912 413.759 387.618 413.759C409.324 413.759 426.92 431.376 426.92 453.107" fill="#19170F"/>
<path d="M387.618 328.259C413.454 328.259 434.398 307.29 434.398 281.425C434.398 255.559 413.454 234.59 387.618 234.59C361.782 234.59 340.838 255.559 340.838 281.425C340.838 307.29 361.782 328.259 387.618 328.259Z" fill="#19170F"/>
<path fill-rule="evenodd" clip-rule="evenodd" d="M365 219.06H325V259.06C325 236.969 342.909 219.06 365 219.06ZM534.94 219.06C557.031 219.06 574.94 236.969 574.94 259.06V219.06H534.94ZM574.94 429C574.94 451.091 557.031 469 534.94 469H574.94V429ZM365 469C342.909 469 325 451.091 325 429V469H365Z" fill="black"/>
</svg>
