<svg width="1683" height="776" viewBox="0 0 1683 776" fill="none" xmlns="http://www.w3.org/2000/svg">
<rect width="1683" height="776" fill="white"/>
<rect width="1683" height="662" rx="40" fill="#202020"/>
<path d="M253.705 484.318H255.482C255.697 485.793 257.104 486.73 259.105 486.73C261 486.73 262.396 485.705 262.396 484.309C262.396 483.107 261.518 482.346 259.574 481.857L257.768 481.389C255.219 480.744 254.115 479.592 254.115 477.59C254.115 475.197 256.117 473.576 259.096 473.576C261.82 473.576 263.852 475.197 263.998 477.473H262.23C261.986 476.027 260.795 475.168 259.037 475.168C257.162 475.168 255.922 476.105 255.922 477.531C255.922 478.635 256.693 479.27 258.637 479.768L260.111 480.158C263.031 480.891 264.203 482.023 264.203 484.094C264.203 486.682 262.162 488.332 258.939 488.332C255.951 488.332 253.891 486.75 253.705 484.318ZM268.891 488H267.133V473.908H275.688V475.49H268.891V480.334H275.131V481.896H268.891V488ZM284.223 473.908H289.545C292.211 473.908 294.057 475.783 294.057 478.469C294.057 481.105 292.172 482.971 289.525 482.971H285.98V488H284.223V473.908ZM285.98 475.471V481.408H289.086C291.088 481.408 292.25 480.334 292.25 478.469C292.25 476.535 291.127 475.471 289.086 475.471H285.98ZM296.723 488V477.473H298.324V479.035H298.48C298.793 478.01 300.004 477.287 301.4 477.287C301.674 477.287 302.025 477.307 302.24 477.336V479.016C302.104 478.977 301.498 478.918 301.166 478.918C299.564 478.918 298.402 479.992 298.402 481.477V488H296.723ZM308.373 488.186C305.375 488.186 303.52 486.115 303.52 482.736C303.52 479.348 305.375 477.287 308.373 477.287C311.371 477.287 313.227 479.348 313.227 482.736C313.227 486.115 311.371 488.186 308.373 488.186ZM308.373 486.672C310.365 486.672 311.488 485.227 311.488 482.736C311.488 480.236 310.365 478.801 308.373 478.801C306.381 478.801 305.258 480.236 305.258 482.736C305.258 485.227 306.381 486.672 308.373 486.672ZM327.143 488H325.385V475.49H320.844V473.908H331.684V475.49H327.143V488ZM339.203 485.275H340.883C340.395 487.072 338.754 488.186 336.449 488.186C333.529 488.186 331.703 486.076 331.703 482.746C331.703 479.436 333.559 477.287 336.449 477.287C339.291 477.287 341.02 479.309 341.02 482.58V483.225H333.451V483.303C333.539 485.383 334.701 486.701 336.488 486.701C337.846 486.701 338.764 486.203 339.203 485.275ZM336.43 478.771C334.75 478.771 333.578 480.002 333.451 481.867H339.252C339.213 480.002 338.1 478.771 336.43 478.771ZM346.986 484.055H346.83L344.33 488.029H342.426L346.029 482.766L342.387 477.502H344.389L346.889 481.418H347.045L349.516 477.502H351.42L347.846 482.697L351.469 488.029H349.477L346.986 484.055ZM354.457 474.748H356.137V477.473H358.48V478.879H356.137V484.836C356.137 486.076 356.605 486.604 357.699 486.604C358.002 486.604 358.168 486.594 358.48 486.564V487.98C358.148 488.039 357.826 488.078 357.494 488.078C355.326 488.078 354.457 487.277 354.457 485.266V478.879H352.758V477.473H354.457V474.748ZM366.586 490.998H365.16L370.238 473.293H371.664L366.586 490.998ZM390.434 488H388.676V481.584H380.941V488H379.184V473.908H380.941V480.002H388.676V473.908H390.434V488ZM400.785 485.275H402.465C401.977 487.072 400.336 488.186 398.031 488.186C395.111 488.186 393.285 486.076 393.285 482.746C393.285 479.436 395.141 477.287 398.031 477.287C400.873 477.287 402.602 479.309 402.602 482.58V483.225H395.033V483.303C395.121 485.383 396.283 486.701 398.07 486.701C399.428 486.701 400.346 486.203 400.785 485.275ZM398.012 478.771C396.332 478.771 395.16 480.002 395.033 481.867H400.834C400.795 480.002 399.682 478.771 398.012 478.771ZM408.168 488.186C406.127 488.186 404.613 486.975 404.613 485.051C404.613 483.166 406 482.082 408.451 481.936L411.488 481.75V480.793C411.488 479.494 410.678 478.781 409.105 478.781C407.846 478.781 406.967 479.26 406.732 480.09H405.033C405.258 478.4 406.918 477.287 409.164 477.287C411.732 477.287 413.168 478.605 413.168 480.793V488H411.566V486.447H411.41C410.727 487.57 409.574 488.186 408.168 488.186ZM408.48 486.711C410.209 486.711 411.488 485.578 411.488 484.074V483.107L408.656 483.293C407.055 483.4 406.352 483.957 406.352 485.012C406.352 486.086 407.26 486.711 408.48 486.711ZM424.477 477.473L420.58 488H418.861L414.965 477.473H416.762L419.643 486.145H419.799L422.68 477.473H424.477ZM427.621 491.809C427.396 491.809 427.104 491.789 426.869 491.75V490.314C427.074 490.354 427.338 490.363 427.572 490.363C428.539 490.363 429.066 489.904 429.506 488.635L429.701 488.01L425.805 477.473H427.621L430.512 486.135H430.668L433.549 477.473H435.336L431.225 488.645C430.326 491.086 429.486 491.809 427.621 491.809Z" fill="#F7F7F7"/>
<path d="M384.379 224H381.367V216.664H373.141V224H370.117V207.09H373.141V214.121H381.367V207.09H384.379V224ZM399.508 221.457V224H388.562V207.09H399.508V209.633H391.586V214.215H399.074V216.617H391.586V221.457H399.508ZM414.168 224L412.738 219.629H406.516L405.062 224H402.004L408.004 207.09H411.402L417.414 224H414.168ZM409.539 210.266L407.219 217.297H412.035L409.738 210.266H409.539ZM420.32 207.09H426.66C431.688 207.09 434.617 210.16 434.617 215.469C434.617 220.895 431.723 224 426.66 224H420.32V207.09ZM423.344 209.633V221.457H426.262C429.625 221.457 431.535 219.324 431.535 215.516C431.535 211.789 429.578 209.633 426.262 209.633H423.344Z" fill="#F7F7F7"/>
<path d="M124.911 448L184.115 271.853H238.925L298.129 448H251.132L240.268 409.304H182.772L171.908 448H124.911ZM210.36 310.671L191.806 377.077H231.234L212.68 310.671H210.36ZM355.932 450.075C329.931 450.075 312.108 433.84 312.108 409.06V408.815C312.108 384.157 331.396 369.875 366.43 367.678L396.093 365.969V355.349C396.093 346.193 389.257 340.7 377.294 340.7C365.941 340.7 358.983 344.484 356.42 351.32L356.176 351.931H316.991L317.113 350.466C319.555 325.441 342.992 308.962 379.735 308.962C417.211 308.962 438.573 326.052 438.573 355.349V448H396.093V431.154H393.773C387.792 442.751 373.266 450.075 355.932 450.075ZM353.734 406.008C353.734 414.553 360.937 419.924 371.801 419.924C385.473 419.924 396.093 410.891 396.093 399.172V390.261L373.266 391.726C360.448 392.58 353.734 397.707 353.734 405.764V406.008Z" fill="white"/>
<path d="M660.479 488.332C657.393 488.332 655.4 486.711 655.195 484.416L655.186 484.309H656.943L656.953 484.416C657.08 485.822 658.545 486.711 660.576 486.711C662.49 486.711 663.887 485.725 663.887 484.289V484.279C663.887 483.107 663.076 482.307 661.143 481.877L659.58 481.535C656.758 480.91 655.537 479.611 655.537 477.57V477.561C655.547 475.227 657.588 473.576 660.498 473.576C663.311 473.576 665.273 475.236 665.42 477.336L665.43 477.473H663.672L663.652 477.346C663.457 476.105 662.285 475.188 660.449 475.197C658.691 475.207 657.334 476.037 657.334 477.512V477.521C657.334 478.645 658.105 479.406 660.02 479.826L661.582 480.178C664.521 480.832 665.684 482.014 665.684 484.045V484.055C665.684 486.691 663.623 488.332 660.479 488.332ZM668.613 488V473.908H677.168V475.49H670.371V480.334H676.611V481.896H670.371V488H668.613ZM685.684 488V473.908H690.996C693.643 473.908 695.518 475.734 695.518 478.41V478.43C695.518 481.105 693.643 482.971 690.996 482.971H687.441V488H685.684ZM690.547 475.471H687.441V481.408H690.547C692.559 481.408 693.721 480.305 693.721 478.449V478.43C693.721 476.574 692.559 475.471 690.547 475.471ZM698.184 488V477.473H699.883V479.035H700.039C700.439 477.932 701.426 477.287 702.852 477.287C703.174 477.287 703.535 477.326 703.701 477.355V479.006C703.35 478.947 703.027 478.908 702.656 478.908C701.035 478.908 699.883 479.934 699.883 481.477V488H698.184ZM709.834 488.186C706.836 488.186 704.98 486.115 704.98 482.746V482.727C704.98 479.348 706.836 477.287 709.834 477.287C712.832 477.287 714.688 479.348 714.688 482.727V482.746C714.688 486.115 712.832 488.186 709.834 488.186ZM709.834 486.682C711.826 486.682 712.949 485.227 712.949 482.746V482.727C712.949 480.236 711.826 478.791 709.834 478.791C707.842 478.791 706.719 480.236 706.719 482.727V482.746C706.719 485.227 707.842 486.682 709.834 486.682ZM726.826 488V475.49H722.285V473.908H733.125V475.49H728.584V488H726.826ZM737.969 488.186C734.961 488.186 733.145 486.076 733.145 482.775V482.766C733.145 479.514 735 477.287 737.861 477.287C740.723 477.287 742.461 479.416 742.461 482.561V483.225H734.883C734.932 485.402 736.133 486.672 738.008 486.672C739.434 486.672 740.312 485.998 740.596 485.363L740.635 485.275H742.334L742.314 485.354C741.953 486.779 740.449 488.186 737.969 488.186ZM737.852 478.801C736.289 478.801 735.098 479.865 734.912 481.867H740.732C740.557 479.787 739.404 478.801 737.852 478.801ZM743.867 488L747.471 482.736L743.828 477.473H745.83L748.33 481.389H748.486L750.957 477.473H752.861L749.287 482.668L752.91 488H750.918L748.428 484.025H748.271L745.771 488H743.867ZM758.936 488.078C756.768 488.078 755.859 487.277 755.859 485.266V478.879H754.199V477.473H755.859V474.748H757.617V477.473H759.922V478.879H757.617V484.836C757.617 486.076 758.047 486.574 759.141 486.574C759.443 486.574 759.609 486.564 759.922 486.535V487.98C759.59 488.039 759.268 488.078 758.936 488.078ZM772.588 473.293L768.135 491.516H766.504L770.957 473.293H772.588ZM780.02 488V473.908H785.4C788.115 473.908 789.893 475.568 789.893 478.098V478.117C789.893 480.07 788.828 481.594 787.061 482.15L790.322 488H788.262L785.244 482.424H781.777V488H780.02ZM781.777 480.861H785.244C787.051 480.861 788.076 479.895 788.076 478.176V478.156C788.076 476.477 786.982 475.471 785.166 475.471H781.777V480.861ZM796.875 488.186C793.867 488.186 792.051 486.076 792.051 482.775V482.766C792.051 479.514 793.906 477.287 796.768 477.287C799.629 477.287 801.367 479.416 801.367 482.561V483.225H793.789C793.838 485.402 795.039 486.672 796.914 486.672C798.34 486.672 799.219 485.998 799.502 485.363L799.541 485.275H801.24L801.221 485.354C800.859 486.779 799.355 488.186 796.875 488.186ZM796.758 478.801C795.195 478.801 794.004 479.865 793.818 481.867H799.639C799.463 479.787 798.311 478.801 796.758 478.801ZM808.34 491.711C805.801 491.711 804.18 490.568 803.916 488.84L803.936 488.83H805.693L805.703 488.84C805.889 489.641 806.826 490.207 808.34 490.207C810.225 490.207 811.348 489.318 811.348 487.766V485.637H811.191C810.527 486.799 809.336 487.453 807.891 487.453C805.166 487.453 803.477 485.344 803.477 482.395V482.375C803.477 479.426 805.176 477.287 807.93 477.287C809.414 477.287 810.566 478.02 811.211 479.211H811.328V477.473H813.027V487.854C813.027 490.207 811.211 491.711 808.34 491.711ZM808.262 485.949C810.215 485.949 811.387 484.484 811.387 482.395V482.375C811.387 480.285 810.205 478.791 808.262 478.791C806.309 478.791 805.215 480.285 805.215 482.375V482.395C805.215 484.484 806.309 485.949 808.262 485.949ZM819.717 488.186C817.324 488.186 816.094 486.779 816.094 484.289V477.473H817.793V483.879C817.793 485.773 818.477 486.682 820.156 486.682C822.012 486.682 822.998 485.549 822.998 483.703V477.473H824.697V488H822.998V486.428H822.842C822.324 487.551 821.26 488.186 819.717 488.186ZM827.969 488V473.293H829.668V488H827.969ZM835.82 488.186C833.818 488.186 832.305 486.975 832.305 485.061V485.041C832.305 483.166 833.691 482.082 836.143 481.936L839.16 481.75V480.793C839.16 479.494 838.369 478.791 836.797 478.791C835.537 478.791 834.707 479.26 834.434 480.08L834.424 480.109H832.725L832.734 480.051C833.008 478.4 834.609 477.287 836.855 477.287C839.424 477.287 840.859 478.605 840.859 480.793V488H839.16V486.447H839.004C838.34 487.57 837.236 488.186 835.82 488.186ZM834.043 485.021C834.043 486.086 834.951 486.711 836.172 486.711C837.9 486.711 839.16 485.578 839.16 484.074V483.117L836.348 483.293C834.746 483.391 834.043 483.957 834.043 485.002V485.021ZM843.965 488V477.473H845.664V479.035H845.82C846.221 477.932 847.207 477.287 848.633 477.287C848.955 477.287 849.316 477.326 849.482 477.355V479.006C849.131 478.947 848.809 478.908 848.438 478.908C846.816 478.908 845.664 479.934 845.664 481.477V488H843.965Z" fill="white"/>
<path d="M789.145 224V209.633H783.941V207.09H797.383V209.633H792.168V224H789.145ZM800.547 224V207.09H803.57V224H800.547ZM811.949 224V209.633H806.746V207.09H820.188V209.633H814.973V224H811.949ZM823.352 224V207.09H826.375V221.457H834.133V224H823.352ZM837.391 224V207.09H848.336V209.633H840.414V214.215H847.902V216.617H840.414V221.457H848.336V224H837.391Z" fill="white"/>
<path d="M574.423 448L639.364 271.853H661.093L726.034 448H702.963L685.263 397.585H615.194L597.494 448H574.423ZM649.252 300.295L621.664 378.908H678.793L651.205 300.295H649.252ZM786.645 450.319C761.62 450.319 742.699 435.183 742.699 411.257V411.013C742.699 387.575 760.033 374.025 790.673 372.194L828.393 369.875V357.912C828.393 341.677 818.505 332.888 798.852 332.888C783.104 332.888 772.729 338.747 769.311 349.001L769.188 349.367H747.948L748.07 348.635C751.488 328.005 771.508 314.089 799.584 314.089C831.688 314.089 849.633 330.568 849.633 357.912V448H828.393V428.591H826.439C818.139 442.629 804.345 450.319 786.645 450.319ZM764.428 410.769C764.428 424.074 775.78 431.887 791.039 431.887C812.646 431.887 828.393 417.727 828.393 398.928V386.965L793.236 389.162C773.217 390.383 764.428 397.463 764.428 410.524V410.769Z" fill="white"/>
<rect x="980" y="121" width="147" height="210" rx="22" fill="white"/>
<path d="M1028.32 254V237.09H1035.07C1038.5 237.09 1040.82 239.352 1040.82 242.738V242.762C1040.82 246.137 1038.5 248.41 1035.07 248.41H1031.34V254H1028.32ZM1034.33 239.562H1031.34V245.973H1034.33C1036.5 245.973 1037.77 244.801 1037.77 242.773V242.75C1037.77 240.723 1036.5 239.562 1034.33 239.562ZM1043.14 254V241.191H1046.06V243.16H1046.26C1046.69 241.789 1047.86 240.98 1049.55 240.98C1049.99 240.98 1050.45 241.039 1050.73 241.121V243.734C1050.26 243.641 1049.78 243.57 1049.28 243.57C1047.33 243.57 1046.06 244.73 1046.06 246.559V254H1043.14ZM1053.9 239.047C1052.94 239.047 1052.16 238.285 1052.16 237.324C1052.16 236.375 1052.94 235.602 1053.9 235.602C1054.85 235.602 1055.64 236.375 1055.64 237.324C1055.64 238.285 1054.85 239.047 1053.9 239.047ZM1052.44 254V241.191H1055.36V254H1052.44ZM1058.22 254V241.191H1061.14V243.184H1061.34C1061.89 241.754 1063.18 240.945 1064.86 240.945C1066.59 240.945 1067.86 241.836 1068.41 243.254H1068.61C1069.23 241.859 1070.7 240.945 1072.48 240.945C1075.06 240.945 1076.61 242.527 1076.61 245.188V254H1073.69V245.902C1073.69 244.238 1072.93 243.395 1071.37 243.395C1069.85 243.395 1068.86 244.531 1068.86 245.996V254H1065.95V245.691C1065.95 244.273 1065.07 243.395 1063.64 243.395C1062.2 243.395 1061.14 244.613 1061.14 246.207V254H1058.22ZM1082.84 254.211C1080.4 254.211 1078.63 252.711 1078.63 250.379V250.355C1078.63 248.07 1080.38 246.734 1083.49 246.547L1086.79 246.348V245.246C1086.79 243.969 1085.96 243.266 1084.39 243.266C1083.05 243.266 1082.18 243.746 1081.89 244.59L1081.88 244.637H1079.12L1079.14 244.531C1079.42 242.375 1081.48 240.945 1084.53 240.945C1087.82 240.945 1089.67 242.539 1089.67 245.246V254H1086.79V252.242H1086.59C1085.89 253.484 1084.53 254.211 1082.84 254.211ZM1081.51 250.238C1081.51 251.328 1082.44 251.973 1083.73 251.973C1085.49 251.973 1086.79 250.824 1086.79 249.301V248.27L1083.9 248.457C1082.28 248.562 1081.51 249.16 1081.51 250.215V250.238ZM1092.45 254V241.191H1095.37V243.16H1095.57C1096.01 241.789 1097.18 240.98 1098.86 240.98C1099.31 240.98 1099.77 241.039 1100.05 241.121V243.734C1099.58 243.641 1099.1 243.57 1098.6 243.57C1096.65 243.57 1095.37 244.73 1095.37 246.559V254H1092.45ZM1103.28 258.5C1102.93 258.5 1102.52 258.488 1102.16 258.453V256.215C1102.4 256.238 1102.73 256.25 1103.03 256.25C1104.23 256.25 1104.94 255.758 1105.26 254.598L1105.41 254.012L1100.83 241.191H1104.02L1107 251.199H1107.23L1110.2 241.191H1113.27L1108.68 254.27C1107.58 257.48 1106.11 258.5 1103.28 258.5ZM1053.75 283L1049.22 266.09H1052.37L1055.26 278.781H1055.44L1058.77 266.09H1061.45L1064.83 278.781H1064.99L1067.88 266.09H1071.01L1066.48 283H1063.64L1060.2 270.895H1060.02L1056.6 283H1053.75ZM1073.22 283V265.234H1076.14V272.148H1076.34C1076.95 270.777 1078.18 269.945 1080.03 269.945C1082.89 269.945 1084.45 271.668 1084.45 274.715V283H1081.53V275.395C1081.53 273.402 1080.72 272.395 1078.95 272.395C1077.22 272.395 1076.14 273.613 1076.14 275.535V283H1073.22ZM1088.67 268.047C1087.71 268.047 1086.93 267.285 1086.93 266.324C1086.93 265.375 1087.71 264.602 1088.67 264.602C1089.62 264.602 1090.41 265.375 1090.41 266.324C1090.41 267.285 1089.62 268.047 1088.67 268.047ZM1087.21 283V270.191H1090.13V283H1087.21ZM1098.03 283.059C1095.09 283.059 1093.88 282.074 1093.88 279.602V272.453H1091.89V270.191H1093.88V267.051H1096.85V270.191H1099.56V272.453H1096.85V278.91C1096.85 280.188 1097.35 280.727 1098.57 280.727C1098.98 280.727 1099.2 280.715 1099.56 280.68V282.93C1099.13 283.012 1098.6 283.059 1098.03 283.059ZM1107.11 283.258C1103.3 283.258 1100.99 280.703 1100.99 276.625V276.613C1100.99 272.582 1103.32 269.945 1106.97 269.945C1110.61 269.945 1112.86 272.5 1112.86 276.367V277.328H1103.91C1103.95 279.625 1105.19 280.961 1107.17 280.961C1108.75 280.961 1109.65 280.164 1109.93 279.578L1109.97 279.496H1112.75L1112.71 279.602C1112.3 281.254 1110.59 283.258 1107.11 283.258ZM1107 272.23C1105.38 272.23 1104.16 273.332 1103.93 275.371H1110.02C1109.82 273.273 1108.63 272.23 1107 272.23Z" fill="#202020"/>
<path d="M1057 312L1057.64 308.852H1055.08L1054.43 312H1053.33L1053.96 308.852H1052.13L1052.35 307.727H1054.2L1054.77 304.883H1052.84L1053.07 303.766H1055L1055.63 300.727H1056.74L1056.13 303.766H1058.68L1059.31 300.727H1060.43L1059.8 303.766H1061.75L1061.53 304.883H1059.57L1058.98 307.727H1061.02L1060.8 308.852H1058.76L1058.11 312H1057ZM1055.29 307.75H1057.87L1058.46 304.867H1055.88L1055.29 307.75ZM1064.31 312H1062.9V300.727H1069.74V301.992H1064.31V305.867H1069.3V307.117H1064.31V312ZM1072.98 312H1071.58V300.727H1078.42V301.992H1072.98V305.867H1077.97V307.117H1072.98V312ZM1081.66 312H1080.25V300.727H1087.1V301.992H1081.66V305.867H1086.65V307.117H1081.66V312ZM1090.34 312H1088.93V300.727H1095.77V301.992H1090.34V305.867H1095.33V307.117H1090.34V312ZM1099.01 312H1097.6V300.727H1104.45V301.992H1099.01V305.867H1104V307.117H1099.01V312ZM1107.69 312H1106.28V300.727H1113.12V301.992H1107.69V305.867H1112.68V307.117H1107.69V312Z" fill="#202020"/>
<rect x="1127" y="121" width="147" height="210" rx="22" fill="#F7F7F7"/>
<path d="M1175.32 254V237.09H1182.07C1185.5 237.09 1187.82 239.352 1187.82 242.738V242.762C1187.82 246.137 1185.5 248.41 1182.07 248.41H1178.34V254H1175.32ZM1181.33 239.562H1178.34V245.973H1181.33C1183.5 245.973 1184.77 244.801 1184.77 242.773V242.75C1184.77 240.723 1183.5 239.562 1181.33 239.562ZM1190.14 254V241.191H1193.06V243.16H1193.26C1193.69 241.789 1194.86 240.98 1196.55 240.98C1196.99 240.98 1197.45 241.039 1197.73 241.121V243.734C1197.26 243.641 1196.78 243.57 1196.28 243.57C1194.33 243.57 1193.06 244.73 1193.06 246.559V254H1190.14ZM1200.9 239.047C1199.94 239.047 1199.16 238.285 1199.16 237.324C1199.16 236.375 1199.94 235.602 1200.9 235.602C1201.85 235.602 1202.64 236.375 1202.64 237.324C1202.64 238.285 1201.85 239.047 1200.9 239.047ZM1199.44 254V241.191H1202.36V254H1199.44ZM1205.22 254V241.191H1208.14V243.184H1208.34C1208.89 241.754 1210.18 240.945 1211.86 240.945C1213.59 240.945 1214.86 241.836 1215.41 243.254H1215.61C1216.23 241.859 1217.7 240.945 1219.48 240.945C1222.06 240.945 1223.61 242.527 1223.61 245.188V254H1220.69V245.902C1220.69 244.238 1219.93 243.395 1218.37 243.395C1216.85 243.395 1215.86 244.531 1215.86 245.996V254H1212.95V245.691C1212.95 244.273 1212.07 243.395 1210.64 243.395C1209.2 243.395 1208.14 244.613 1208.14 246.207V254H1205.22ZM1229.84 254.211C1227.4 254.211 1225.63 252.711 1225.63 250.379V250.355C1225.63 248.07 1227.38 246.734 1230.49 246.547L1233.79 246.348V245.246C1233.79 243.969 1232.96 243.266 1231.39 243.266C1230.05 243.266 1229.18 243.746 1228.89 244.59L1228.88 244.637H1226.12L1226.14 244.531C1226.42 242.375 1228.48 240.945 1231.53 240.945C1234.82 240.945 1236.67 242.539 1236.67 245.246V254H1233.79V252.242H1233.59C1232.89 253.484 1231.53 254.211 1229.84 254.211ZM1228.51 250.238C1228.51 251.328 1229.44 251.973 1230.73 251.973C1232.49 251.973 1233.79 250.824 1233.79 249.301V248.27L1230.9 248.457C1229.28 248.562 1228.51 249.16 1228.51 250.215V250.238ZM1239.45 254V241.191H1242.37V243.16H1242.57C1243.01 241.789 1244.18 240.98 1245.86 240.98C1246.31 240.98 1246.77 241.039 1247.05 241.121V243.734C1246.58 243.641 1246.1 243.57 1245.6 243.57C1243.65 243.57 1242.37 244.73 1242.37 246.559V254H1239.45ZM1250.28 258.5C1249.93 258.5 1249.52 258.488 1249.16 258.453V256.215C1249.4 256.238 1249.73 256.25 1250.03 256.25C1251.23 256.25 1251.94 255.758 1252.26 254.598L1252.41 254.012L1247.83 241.191H1251.02L1254 251.199H1254.23L1257.2 241.191H1260.27L1255.68 254.27C1254.58 257.48 1253.11 258.5 1250.28 258.5ZM1216.95 283.422C1212.05 283.422 1209.01 280.012 1209.01 274.551V274.527C1209.01 269.125 1212.09 265.668 1216.91 265.668C1220.81 265.668 1223.62 267.906 1224.2 271.211L1224.21 271.328H1221.21L1221.17 271.211C1220.62 269.359 1219.07 268.281 1216.91 268.281C1213.95 268.281 1212.09 270.684 1212.09 274.504V274.527C1212.09 278.406 1213.99 280.809 1217 280.809C1219.58 280.809 1221.34 279.203 1221.37 276.801L1221.38 276.449H1217.33V274.141H1224.35V276.25C1224.35 280.621 1221.46 283.422 1216.95 283.422ZM1226.84 283V270.191H1229.76V272.16H1229.96C1230.39 270.789 1231.56 269.98 1233.25 269.98C1233.69 269.98 1234.15 270.039 1234.43 270.121V272.734C1233.96 272.641 1233.48 272.57 1232.98 272.57C1231.03 272.57 1229.76 273.73 1229.76 275.559V283H1226.84ZM1241.26 283.258C1237.45 283.258 1235.14 280.703 1235.14 276.625V276.613C1235.14 272.582 1237.47 269.945 1241.12 269.945C1244.76 269.945 1247.01 272.5 1247.01 276.367V277.328H1238.06C1238.1 279.625 1239.34 280.961 1241.32 280.961C1242.9 280.961 1243.8 280.164 1244.08 279.578L1244.12 279.496H1246.9L1246.86 279.602C1246.45 281.254 1244.74 283.258 1241.26 283.258ZM1241.15 272.23C1239.52 272.23 1238.31 273.332 1238.08 275.371H1244.17C1243.97 273.273 1242.78 272.23 1241.15 272.23ZM1250.28 287.5C1249.93 287.5 1249.52 287.488 1249.16 287.453V285.215C1249.4 285.238 1249.73 285.25 1250.03 285.25C1251.23 285.25 1251.94 284.758 1252.26 283.598L1252.41 283.012L1247.83 270.191H1251.02L1254 280.199H1254.23L1257.2 270.191H1260.27L1255.68 283.27C1254.58 286.48 1253.11 287.5 1250.28 287.5Z" fill="#202020"/>
<path d="M1201.56 312L1202.2 308.852H1199.64L1199 312H1197.89L1198.52 308.852H1196.69L1196.91 307.727H1198.76L1199.33 304.883H1197.4L1197.63 303.766H1199.56L1200.19 300.727H1201.3L1200.69 303.766H1203.24L1203.87 300.727H1204.99L1204.36 303.766H1206.31L1206.09 304.883H1204.13L1203.54 307.727H1205.58L1205.36 308.852H1203.32L1202.68 312H1201.56ZM1199.86 307.75H1202.43L1203.02 304.867H1200.44L1199.86 307.75ZM1208.87 312H1207.46V300.727H1214.31V301.992H1208.87V305.867H1213.86V307.117H1208.87V312ZM1219.71 312.258C1217.26 312.258 1215.47 310.352 1215.47 306.555C1215.47 302.68 1217.14 300.461 1219.8 300.461C1221.86 300.461 1223.21 301.594 1223.5 303.344H1222.05C1221.82 302.297 1220.99 301.711 1219.85 301.711C1217.97 301.711 1216.88 303.273 1216.83 306.336H1216.96C1217.51 305.242 1218.62 304.602 1219.96 304.602C1222.11 304.602 1223.66 306.188 1223.66 308.375C1223.66 310.641 1222.02 312.258 1219.71 312.258ZM1219.69 311.023C1221.14 311.023 1222.24 309.898 1222.24 308.422C1222.24 306.883 1221.2 305.82 1219.71 305.82C1218.22 305.82 1217.15 306.883 1217.15 308.375C1217.15 309.883 1218.25 311.023 1219.69 311.023ZM1227.03 312H1225.63V300.727H1232.47V301.992H1227.03V305.867H1232.03V307.117H1227.03V312ZM1237.87 312.258C1235.42 312.258 1233.63 310.352 1233.63 306.555C1233.63 302.68 1235.3 300.461 1237.97 300.461C1240.02 300.461 1241.37 301.594 1241.66 303.344H1240.22C1239.98 302.297 1239.16 301.711 1238.01 301.711C1236.14 301.711 1235.05 303.273 1235 306.336H1235.12C1235.68 305.242 1236.78 304.602 1238.12 304.602C1240.27 304.602 1241.83 306.188 1241.83 308.375C1241.83 310.641 1240.19 312.258 1237.87 312.258ZM1237.86 311.023C1239.3 311.023 1240.41 309.898 1240.41 308.422C1240.41 306.883 1239.37 305.82 1237.87 305.82C1236.38 305.82 1235.31 306.883 1235.31 308.375C1235.31 309.883 1236.41 311.023 1237.86 311.023ZM1245.2 312H1243.79V300.727H1250.64V301.992H1245.2V305.867H1250.19V307.117H1245.2V312ZM1256.04 312.258C1253.59 312.258 1251.8 310.352 1251.8 306.555C1251.8 302.68 1253.47 300.461 1256.13 300.461C1258.19 300.461 1259.54 301.594 1259.83 303.344H1258.38C1258.15 302.297 1257.32 301.711 1256.18 301.711C1254.3 301.711 1253.21 303.273 1253.16 306.336H1253.29C1253.84 305.242 1254.95 304.602 1256.29 304.602C1258.44 304.602 1259.99 306.188 1259.99 308.375C1259.99 310.641 1258.35 312.258 1256.04 312.258ZM1256.02 311.023C1257.47 311.023 1258.57 309.898 1258.57 308.422C1258.57 306.883 1257.53 305.82 1256.04 305.82C1254.55 305.82 1253.48 306.883 1253.48 308.375C1253.48 309.883 1254.58 311.023 1256.02 311.023Z" fill="#202020"/>
<rect x="1127" y="331" width="147" height="210" rx="22" fill="#50AA75"/>
<path d="M1175.48 447.09H1182.3C1185.68 447.09 1187.99 449.387 1187.99 452.785C1187.99 456.125 1185.6 458.41 1182.18 458.41H1178.51V464H1175.48V447.09ZM1178.51 449.562V455.973H1181.5C1183.65 455.973 1184.92 454.824 1184.92 452.785C1184.92 450.688 1183.69 449.562 1181.51 449.562H1178.51ZM1190.3 464V451.191H1193.1V453.184H1193.3C1193.65 451.918 1195.04 450.98 1196.69 450.98C1197.11 450.98 1197.63 451.027 1197.9 451.098V453.746C1197.67 453.664 1196.9 453.582 1196.41 453.582C1194.52 453.582 1193.21 454.754 1193.21 456.559V464H1190.3ZM1201.04 449.047C1200.09 449.047 1199.31 448.285 1199.31 447.324C1199.31 446.375 1200.09 445.602 1201.04 445.602C1202 445.602 1202.79 446.375 1202.79 447.324C1202.79 448.285 1202 449.047 1201.04 449.047ZM1199.6 464V451.191H1202.5V464H1199.6ZM1205.39 464V451.191H1208.19V453.254H1208.39C1208.94 451.812 1210.25 450.945 1211.95 450.945C1213.72 450.945 1214.95 451.836 1215.49 453.254H1215.69C1216.32 451.859 1217.8 450.945 1219.58 450.945C1222.14 450.945 1223.69 452.527 1223.69 455.188V464H1220.8V455.902C1220.8 454.238 1220.01 453.406 1218.45 453.406C1216.94 453.406 1215.95 454.531 1215.95 455.996V464H1213.12V455.691C1213.12 454.273 1212.23 453.406 1210.8 453.406C1209.36 453.406 1208.29 454.613 1208.29 456.207V464H1205.39ZM1229.94 464.211C1227.47 464.211 1225.7 462.711 1225.7 460.367C1225.7 458.07 1227.45 456.723 1230.56 456.547L1233.87 456.348V455.246C1233.87 453.969 1233.03 453.254 1231.46 453.254C1230.12 453.254 1229.21 453.734 1228.94 454.613H1226.19C1226.43 452.375 1228.55 450.945 1231.6 450.945C1234.89 450.945 1236.74 452.539 1236.74 455.246V464H1233.94V462.242H1233.74C1233.03 463.484 1231.62 464.211 1229.94 464.211ZM1230.8 461.973C1232.56 461.973 1233.87 460.824 1233.87 459.301V458.258L1230.98 458.457C1229.35 458.562 1228.58 459.16 1228.58 460.227C1228.58 461.328 1229.51 461.973 1230.8 461.973ZM1239.52 464V451.191H1242.33V453.184H1242.52C1242.88 451.918 1244.26 450.98 1245.91 450.98C1246.33 450.98 1246.85 451.027 1247.12 451.098V453.746C1246.9 453.664 1246.12 453.582 1245.63 453.582C1243.74 453.582 1242.43 454.754 1242.43 456.559V464H1239.52ZM1250.31 468.641C1250.14 468.641 1249.35 468.629 1249.16 468.594V466.285C1249.33 466.309 1249.76 466.32 1249.96 466.32C1251.19 466.32 1251.88 465.852 1252.26 464.645L1252.41 464.047L1247.83 451.191H1251.02L1254.02 461.246H1254.21L1257.2 451.191H1260.27L1255.64 464.445C1254.55 467.598 1253.18 468.641 1250.31 468.641ZM1209.81 486.25C1209.81 490.621 1206.93 493.422 1202.42 493.422C1197.52 493.422 1194.47 490.012 1194.47 484.539C1194.47 479.125 1197.55 475.668 1202.37 475.668C1206.27 475.668 1209.13 477.883 1209.67 481.328H1206.66C1206.05 479.371 1204.54 478.293 1202.37 478.293C1199.42 478.293 1197.56 480.684 1197.56 484.516C1197.56 488.406 1199.45 490.797 1202.46 490.797C1205.04 490.797 1206.8 489.191 1206.84 486.801L1206.86 486.449H1202.79V484.141H1209.81V486.25ZM1212.3 493V480.191H1215.1V482.184H1215.3C1215.65 480.918 1217.03 479.98 1218.69 479.98C1219.11 479.98 1219.62 480.027 1219.89 480.098V482.746C1219.67 482.664 1218.9 482.582 1218.41 482.582C1216.52 482.582 1215.21 483.754 1215.21 485.559V493H1212.3ZM1229.59 489.496H1232.35C1231.82 491.805 1229.67 493.258 1226.65 493.258C1222.88 493.258 1220.6 490.75 1220.6 486.648C1220.6 482.535 1222.91 479.945 1226.63 479.945C1230.28 479.945 1232.48 482.371 1232.48 486.391V487.316H1223.52V487.469C1223.59 489.637 1224.82 490.996 1226.73 490.996C1228.17 490.996 1229.17 490.457 1229.59 489.496ZM1226.62 482.207C1224.88 482.207 1223.66 483.461 1223.53 485.383H1229.57C1229.51 483.438 1228.36 482.207 1226.62 482.207ZM1243.03 489.496H1245.78C1245.26 491.805 1243.11 493.258 1240.09 493.258C1236.31 493.258 1234.04 490.75 1234.04 486.648C1234.04 482.535 1236.35 479.945 1240.06 479.945C1243.72 479.945 1245.91 482.371 1245.91 486.391V487.316H1236.96V487.469C1237.03 489.637 1238.26 490.996 1240.17 490.996C1241.61 490.996 1242.61 490.457 1243.03 489.496ZM1240.05 482.207C1238.32 482.207 1237.1 483.461 1236.97 485.383H1243.01C1242.95 483.438 1241.8 482.207 1240.05 482.207ZM1248.11 493V480.191H1250.91V482.242H1251.11C1251.72 480.812 1253.01 479.945 1254.92 479.945C1257.78 479.945 1259.34 481.668 1259.34 484.715V493H1256.43V485.395C1256.43 483.402 1255.61 482.406 1253.84 482.406C1252.11 482.406 1251.02 483.613 1251.02 485.535V493H1248.11Z" fill="white"/>
<path d="M1198.9 522L1199.54 518.852H1196.98L1196.34 522H1195.23L1195.86 518.852H1194.04L1194.25 517.727H1196.11L1196.68 514.883H1194.75L1194.97 513.766H1196.9L1197.54 510.727H1198.65L1198.04 513.766H1200.58L1201.22 510.727H1202.33L1201.71 513.766H1203.65L1203.43 514.883H1201.47L1200.89 517.727H1202.93L1202.71 518.852H1200.66L1200.02 522H1198.9ZM1197.2 517.75H1199.78L1200.36 514.867H1197.79L1197.2 517.75ZM1208.38 522.266C1206.24 522.266 1204.71 520.953 1204.59 519.023H1205.97C1206.1 520.227 1207.06 521.031 1208.39 521.031C1209.87 521.031 1210.85 519.969 1210.85 518.391C1210.85 516.867 1209.87 515.844 1208.45 515.844C1207.38 515.844 1206.53 516.336 1206.09 517.172H1204.77L1205.42 510.727H1211.67V511.984H1206.52L1206.17 515.656H1206.29C1206.84 514.977 1207.67 514.633 1208.8 514.633C1210.69 514.633 1212.25 516.117 1212.25 518.352C1212.25 520.672 1210.68 522.266 1208.38 522.266ZM1217.84 522.266C1215.3 522.266 1213.84 520.109 1213.84 516.359C1213.84 512.641 1215.32 510.461 1217.84 510.461C1220.35 510.461 1221.83 512.648 1221.83 516.383C1221.83 520.125 1220.37 522.266 1217.84 522.266ZM1217.84 521.039C1219.51 521.039 1220.41 519.383 1220.41 516.359C1220.41 513.367 1219.49 511.695 1217.84 511.695C1216.19 511.695 1215.26 513.383 1215.26 516.359C1215.26 519.375 1216.18 521.039 1217.84 521.039ZM1231 522L1229.87 518.773H1225.39L1224.25 522H1222.78L1226.93 510.727H1228.32L1232.48 522H1231ZM1227.56 512.547L1225.8 517.578H1229.46L1227.69 512.547H1227.56ZM1241.3 522L1240.17 518.773H1235.69L1234.55 522H1233.08L1237.23 510.727H1238.62L1242.78 522H1241.3ZM1237.87 512.547L1236.1 517.578H1239.76L1237.99 512.547H1237.87ZM1244.33 522L1249.39 512.094V511.984H1243.36V510.727H1250.82V512.031L1245.81 522H1244.33ZM1256.1 522.266C1253.97 522.266 1252.44 520.953 1252.31 519.023H1253.7C1253.82 520.227 1254.79 521.031 1256.12 521.031C1257.59 521.031 1258.57 519.969 1258.57 518.391C1258.57 516.867 1257.59 515.844 1256.17 515.844C1255.1 515.844 1254.26 516.336 1253.81 517.172H1252.49L1253.14 510.727H1259.4V511.984H1254.24L1253.89 515.656H1254.02C1254.56 514.977 1255.4 514.633 1256.52 514.633C1258.41 514.633 1259.98 516.117 1259.98 518.352C1259.98 520.672 1258.41 522.266 1256.1 522.266Z" fill="white"/>
<rect x="1421" y="121" width="147" height="210" rx="22" fill="#D3F729"/>
<path d="M1469.32 254V237.09H1476.07C1479.5 237.09 1481.82 239.352 1481.82 242.738V242.762C1481.82 246.137 1479.5 248.41 1476.07 248.41H1472.34V254H1469.32ZM1475.33 239.562H1472.34V245.973H1475.33C1477.5 245.973 1478.77 244.801 1478.77 242.773V242.75C1478.77 240.723 1477.5 239.562 1475.33 239.562ZM1484.14 254V241.191H1487.06V243.16H1487.26C1487.69 241.789 1488.86 240.98 1490.55 240.98C1490.99 240.98 1491.45 241.039 1491.73 241.121V243.734C1491.26 243.641 1490.78 243.57 1490.28 243.57C1488.33 243.57 1487.06 244.73 1487.06 246.559V254H1484.14ZM1494.9 239.047C1493.94 239.047 1493.16 238.285 1493.16 237.324C1493.16 236.375 1493.94 235.602 1494.9 235.602C1495.85 235.602 1496.64 236.375 1496.64 237.324C1496.64 238.285 1495.85 239.047 1494.9 239.047ZM1493.44 254V241.191H1496.36V254H1493.44ZM1499.22 254V241.191H1502.14V243.184H1502.34C1502.89 241.754 1504.18 240.945 1505.86 240.945C1507.59 240.945 1508.86 241.836 1509.41 243.254H1509.61C1510.23 241.859 1511.7 240.945 1513.48 240.945C1516.06 240.945 1517.61 242.527 1517.61 245.188V254H1514.69V245.902C1514.69 244.238 1513.93 243.395 1512.37 243.395C1510.85 243.395 1509.86 244.531 1509.86 245.996V254H1506.95V245.691C1506.95 244.273 1506.07 243.395 1504.64 243.395C1503.2 243.395 1502.14 244.613 1502.14 246.207V254H1499.22ZM1523.84 254.211C1521.4 254.211 1519.63 252.711 1519.63 250.379V250.355C1519.63 248.07 1521.38 246.734 1524.49 246.547L1527.79 246.348V245.246C1527.79 243.969 1526.96 243.266 1525.39 243.266C1524.05 243.266 1523.18 243.746 1522.89 244.59L1522.88 244.637H1520.12L1520.14 244.531C1520.42 242.375 1522.48 240.945 1525.53 240.945C1528.82 240.945 1530.67 242.539 1530.67 245.246V254H1527.79V252.242H1527.59C1526.89 253.484 1525.53 254.211 1523.84 254.211ZM1522.51 250.238C1522.51 251.328 1523.44 251.973 1524.73 251.973C1526.49 251.973 1527.79 250.824 1527.79 249.301V248.27L1524.9 248.457C1523.28 248.562 1522.51 249.16 1522.51 250.215V250.238ZM1533.45 254V241.191H1536.37V243.16H1536.57C1537.01 241.789 1538.18 240.98 1539.86 240.98C1540.31 240.98 1540.77 241.039 1541.05 241.121V243.734C1540.58 243.641 1540.1 243.57 1539.6 243.57C1537.65 243.57 1536.37 244.73 1536.37 246.559V254H1533.45ZM1544.28 258.5C1543.93 258.5 1543.52 258.488 1543.16 258.453V256.215C1543.4 256.238 1543.73 256.25 1544.03 256.25C1545.23 256.25 1545.94 255.758 1546.26 254.598L1546.41 254.012L1541.83 241.191H1545.02L1548 251.199H1548.23L1551.2 241.191H1554.27L1549.68 254.27C1548.58 257.48 1547.11 258.5 1544.28 258.5ZM1502.67 283V266.09H1505.69V280.457H1513.45V283H1502.67ZM1517.18 268.047C1516.22 268.047 1515.44 267.285 1515.44 266.324C1515.44 265.375 1516.22 264.602 1517.18 264.602C1518.13 264.602 1518.92 265.375 1518.92 266.324C1518.92 267.285 1518.13 268.047 1517.18 268.047ZM1515.72 283V270.191H1518.64V283H1515.72ZM1521.5 283V270.191H1524.42V272.184H1524.62C1525.17 270.754 1526.46 269.945 1528.13 269.945C1529.87 269.945 1531.13 270.836 1531.68 272.254H1531.88C1532.51 270.859 1533.98 269.945 1535.76 269.945C1538.34 269.945 1539.89 271.527 1539.89 274.188V283H1536.97V274.902C1536.97 273.238 1536.21 272.395 1534.65 272.395C1533.13 272.395 1532.14 273.531 1532.14 274.996V283H1529.22V274.691C1529.22 273.273 1528.35 272.395 1526.92 272.395C1525.47 272.395 1524.42 273.613 1524.42 275.207V283H1521.5ZM1548.11 283.258C1544.3 283.258 1541.99 280.703 1541.99 276.625V276.613C1541.99 272.582 1544.32 269.945 1547.97 269.945C1551.61 269.945 1553.86 272.5 1553.86 276.367V277.328H1544.91C1544.95 279.625 1546.19 280.961 1548.17 280.961C1549.75 280.961 1550.65 280.164 1550.93 279.578L1550.97 279.496H1553.75L1553.71 279.602C1553.3 281.254 1551.59 283.258 1548.11 283.258ZM1548 272.23C1546.38 272.23 1545.16 273.332 1544.93 275.371H1551.02C1550.82 273.273 1549.63 272.23 1548 272.23Z" fill="#202020"/>
<path d="M1493.12 312L1493.76 308.852H1491.2L1490.56 312H1489.45L1490.08 308.852H1488.25L1488.47 307.727H1490.33L1490.9 304.883H1488.97L1489.19 303.766H1491.12L1491.75 300.727H1492.86L1492.25 303.766H1494.8L1495.43 300.727H1496.55L1495.93 303.766H1497.87L1497.65 304.883H1495.69L1495.11 307.727H1497.15L1496.93 308.852H1494.88L1494.24 312H1493.12ZM1491.42 307.75H1494L1494.58 304.867H1492L1491.42 307.75ZM1499.02 300.727H1502.89C1506.24 300.727 1508.21 302.812 1508.21 306.359C1508.21 309.914 1506.24 312 1502.89 312H1499.02V300.727ZM1500.43 301.992V310.734H1502.8C1505.31 310.734 1506.77 309.125 1506.77 306.375C1506.77 303.617 1505.3 301.992 1502.8 301.992H1500.43ZM1512.36 306.805V305.602H1513.69C1514.99 305.602 1515.91 304.773 1515.91 303.602C1515.91 302.547 1515.11 301.688 1513.75 301.688C1512.39 301.688 1511.51 302.383 1511.39 303.648H1510.02C1510.16 301.812 1511.56 300.461 1513.84 300.461C1516.07 300.461 1517.35 301.867 1517.34 303.445C1517.33 304.805 1516.49 305.703 1515.33 306.039V306.164C1516.79 306.398 1517.76 307.391 1517.76 308.961C1517.76 310.852 1516.04 312.266 1513.79 312.266C1511.51 312.266 1509.93 311.008 1509.83 309.094H1511.19C1511.31 310.281 1512.33 311.039 1513.78 311.039C1515.26 311.039 1516.32 310.188 1516.32 308.922C1516.32 307.617 1515.34 306.805 1513.76 306.805H1512.36ZM1521.13 312H1519.72V300.727H1526.56V301.992H1521.13V305.867H1526.12V307.117H1521.13V312ZM1528.69 312L1533.75 302.094V301.984H1527.72V300.727H1535.18V302.031L1530.16 312H1528.69ZM1536.79 303.906C1536.79 301.898 1538.34 300.461 1540.5 300.461C1542.46 300.461 1543.97 301.797 1543.97 303.625C1543.97 304.922 1543.41 305.859 1541.38 307.961L1538.82 310.609V310.734H1544.16V312H1536.86V311.031L1540.68 306.906C1542.11 305.352 1542.53 304.766 1542.53 303.773C1542.53 302.578 1541.73 301.688 1540.4 301.688C1539.05 301.688 1538.15 302.57 1538.15 303.906H1536.79ZM1549.66 312.258C1547.74 312.258 1546.31 311.148 1545.96 309.375H1547.41C1547.7 310.391 1548.56 311.008 1549.67 311.008C1551.51 311.008 1552.55 309.383 1552.62 306.383H1552.5C1551.95 307.477 1550.84 308.117 1549.5 308.117C1547.35 308.117 1545.8 306.531 1545.8 304.344C1545.8 302.078 1547.44 300.461 1549.75 300.461C1552.18 300.461 1553.99 302.328 1553.99 306.164C1553.99 310.039 1552.41 312.258 1549.66 312.258ZM1549.75 306.898C1551.24 306.898 1552.31 305.836 1552.31 304.344C1552.31 302.836 1551.21 301.695 1549.77 301.695C1548.32 301.695 1547.22 302.82 1547.22 304.297C1547.22 305.836 1548.26 306.898 1549.75 306.898Z" fill="#202020"/>
<rect x="1274.5" y="121.5" width="146" height="209" rx="21.5" fill="#202020" stroke="white"/>
<path d="M1322.32 254V237.09H1329.07C1332.5 237.09 1334.82 239.352 1334.82 242.738V242.762C1334.82 246.137 1332.5 248.41 1329.07 248.41H1325.34V254H1322.32ZM1328.33 239.562H1325.34V245.973H1328.33C1330.5 245.973 1331.77 244.801 1331.77 242.773V242.75C1331.77 240.723 1330.5 239.562 1328.33 239.562ZM1337.14 254V241.191H1340.06V243.16H1340.26C1340.69 241.789 1341.86 240.98 1343.55 240.98C1343.99 240.98 1344.45 241.039 1344.73 241.121V243.734C1344.26 243.641 1343.78 243.57 1343.28 243.57C1341.33 243.57 1340.06 244.73 1340.06 246.559V254H1337.14ZM1347.9 239.047C1346.94 239.047 1346.16 238.285 1346.16 237.324C1346.16 236.375 1346.94 235.602 1347.9 235.602C1348.85 235.602 1349.64 236.375 1349.64 237.324C1349.64 238.285 1348.85 239.047 1347.9 239.047ZM1346.44 254V241.191H1349.36V254H1346.44ZM1352.22 254V241.191H1355.14V243.184H1355.34C1355.89 241.754 1357.18 240.945 1358.86 240.945C1360.59 240.945 1361.86 241.836 1362.41 243.254H1362.61C1363.23 241.859 1364.7 240.945 1366.48 240.945C1369.06 240.945 1370.61 242.527 1370.61 245.188V254H1367.69V245.902C1367.69 244.238 1366.93 243.395 1365.37 243.395C1363.85 243.395 1362.86 244.531 1362.86 245.996V254H1359.95V245.691C1359.95 244.273 1359.07 243.395 1357.64 243.395C1356.2 243.395 1355.14 244.613 1355.14 246.207V254H1352.22ZM1376.84 254.211C1374.4 254.211 1372.63 252.711 1372.63 250.379V250.355C1372.63 248.07 1374.38 246.734 1377.49 246.547L1380.79 246.348V245.246C1380.79 243.969 1379.96 243.266 1378.39 243.266C1377.05 243.266 1376.18 243.746 1375.89 244.59L1375.88 244.637H1373.12L1373.14 244.531C1373.42 242.375 1375.48 240.945 1378.53 240.945C1381.82 240.945 1383.67 242.539 1383.67 245.246V254H1380.79V252.242H1380.59C1379.89 253.484 1378.53 254.211 1376.84 254.211ZM1375.51 250.238C1375.51 251.328 1376.44 251.973 1377.73 251.973C1379.49 251.973 1380.79 250.824 1380.79 249.301V248.27L1377.9 248.457C1376.28 248.562 1375.51 249.16 1375.51 250.215V250.238ZM1386.45 254V241.191H1389.37V243.16H1389.57C1390.01 241.789 1391.18 240.98 1392.86 240.98C1393.31 240.98 1393.77 241.039 1394.05 241.121V243.734C1393.58 243.641 1393.1 243.57 1392.6 243.57C1390.65 243.57 1389.37 244.73 1389.37 246.559V254H1386.45ZM1397.28 258.5C1396.93 258.5 1396.52 258.488 1396.16 258.453V256.215C1396.4 256.238 1396.73 256.25 1397.03 256.25C1398.23 256.25 1398.94 255.758 1399.26 254.598L1399.41 254.012L1394.83 241.191H1398.02L1401 251.199H1401.23L1404.2 241.191H1407.27L1402.68 254.27C1401.58 257.48 1400.11 258.5 1397.28 258.5ZM1348.3 283V266.09H1355.37C1358.58 266.09 1360.51 267.707 1360.51 270.297V270.32C1360.51 272.09 1359.2 273.66 1357.5 273.93V274.141C1359.77 274.352 1361.34 275.992 1361.34 278.184V278.207C1361.34 281.172 1359.14 283 1355.53 283H1348.3ZM1354.63 268.445H1351.33V273.215H1354.24C1356.39 273.215 1357.52 272.383 1357.52 270.848V270.824C1357.52 269.324 1356.46 268.445 1354.63 268.445ZM1354.72 275.359H1351.33V280.645H1354.84C1357.07 280.645 1358.25 279.719 1358.25 277.996V277.973C1358.25 276.262 1357.03 275.359 1354.72 275.359ZM1363.73 283V265.234H1366.65V283H1363.73ZM1373.11 283.211C1370.67 283.211 1368.9 281.711 1368.9 279.379V279.355C1368.9 277.07 1370.65 275.734 1373.77 275.547L1377.06 275.348V274.246C1377.06 272.969 1376.23 272.266 1374.66 272.266C1373.32 272.266 1372.46 272.746 1372.16 273.59L1372.15 273.637H1369.4L1369.41 273.531C1369.69 271.375 1371.75 269.945 1374.8 269.945C1378.09 269.945 1379.94 271.539 1379.94 274.246V283H1377.06V281.242H1376.86C1376.16 282.484 1374.8 283.211 1373.11 283.211ZM1371.79 279.238C1371.79 280.328 1372.71 280.973 1374 280.973C1375.76 280.973 1377.06 279.824 1377.06 278.301V277.27L1374.18 277.457C1372.55 277.562 1371.79 278.16 1371.79 279.215V279.238ZM1388.22 283.258C1384.37 283.258 1382.09 280.762 1382.09 276.578V276.555C1382.09 272.418 1384.36 269.945 1388.21 269.945C1391.51 269.945 1393.47 271.773 1393.8 274.422V274.469H1391.05L1391.04 274.434C1390.77 273.191 1389.82 272.301 1388.22 272.301C1386.23 272.301 1385.06 273.871 1385.06 276.555V276.578C1385.06 279.297 1386.24 280.891 1388.22 280.891C1389.74 280.891 1390.66 280.199 1391.02 278.852L1391.05 278.805L1393.8 278.793L1393.78 278.887C1393.36 281.512 1391.47 283.258 1388.22 283.258ZM1395.98 283V265.234H1398.89V275.441H1399.09L1403.82 270.191H1407.19L1402.04 275.605L1407.54 283H1404.03L1399.91 277.457L1398.89 278.5V283H1395.98Z" fill="white"/>
<path d="M1344.14 312H1343.03L1343.67 308.852H1341.83L1342.05 307.727H1343.9L1344.48 304.883H1342.54L1342.77 303.766H1344.71L1345.33 300.727H1346.44L1345.82 303.766H1348.39L1349.01 300.727H1350.13L1349.5 303.766H1351.45L1351.23 304.883H1349.28L1348.69 307.727H1350.72L1350.5 308.852H1348.47L1347.82 312H1346.7L1347.35 308.852H1344.78L1344.14 312ZM1345.01 307.727H1347.58L1348.16 304.883H1345.59L1345.01 307.727ZM1352.45 312V311.031L1356.27 306.906C1357.7 305.352 1358.13 304.766 1358.13 303.781V303.766C1358.13 302.578 1357.32 301.688 1355.99 301.688C1354.64 301.688 1353.74 302.57 1353.74 303.898L1353.74 303.914L1352.39 303.906L1352.38 303.898C1352.38 301.898 1353.93 300.461 1356.09 300.461C1358.06 300.461 1359.56 301.797 1359.56 303.617V303.633C1359.56 304.922 1359.01 305.859 1356.97 307.961L1354.41 310.609V310.734H1359.75V312H1352.45ZM1365.4 312.266C1362.91 312.266 1361.43 309.992 1361.43 306.367V306.352C1361.43 302.727 1362.91 300.461 1365.4 300.461C1367.9 300.461 1369.4 302.727 1369.4 306.352V306.367C1369.4 309.992 1367.9 312.266 1365.4 312.266ZM1365.4 311.039C1367.02 311.039 1367.98 309.242 1367.98 306.367V306.352C1367.98 303.477 1367.02 301.695 1365.4 301.695C1363.79 301.695 1362.84 303.477 1362.84 306.352V306.367C1362.84 309.242 1363.79 311.039 1365.4 311.039ZM1371.23 312V311.031L1375.04 306.906C1376.48 305.352 1376.9 304.766 1376.9 303.781V303.766C1376.9 302.578 1376.1 301.688 1374.77 301.688C1373.42 301.688 1372.52 302.57 1372.52 303.898L1372.51 303.914L1371.17 303.906L1371.15 303.898C1371.16 301.898 1372.71 300.461 1374.86 300.461C1376.83 300.461 1378.34 301.797 1378.34 303.617V303.633C1378.34 304.922 1377.78 305.859 1375.74 307.961L1373.18 310.609V310.734H1378.53V312H1371.23ZM1384.18 312.266C1381.69 312.266 1380.2 309.992 1380.2 306.367V306.352C1380.2 302.727 1381.69 300.461 1384.18 300.461C1386.67 300.461 1388.17 302.727 1388.17 306.352V306.367C1388.17 309.992 1386.67 312.266 1384.18 312.266ZM1384.18 311.039C1385.8 311.039 1386.76 309.242 1386.76 306.367V306.352C1386.76 303.477 1385.8 301.695 1384.18 301.695C1382.56 301.695 1381.62 303.477 1381.62 306.352V306.367C1381.62 309.242 1382.56 311.039 1384.18 311.039ZM1390 312V311.031L1393.82 306.906C1395.25 305.352 1395.68 304.766 1395.68 303.781V303.766C1395.68 302.578 1394.87 301.688 1393.54 301.688C1392.19 301.688 1391.29 302.57 1391.29 303.898L1391.28 303.914L1389.94 303.906L1389.93 303.898C1389.93 301.898 1391.48 300.461 1393.64 300.461C1395.6 300.461 1397.11 301.797 1397.11 303.617V303.633C1397.11 304.922 1396.56 305.859 1394.52 307.961L1391.96 310.609V310.734H1397.3V312H1390ZM1402.95 312.266C1400.46 312.266 1398.98 309.992 1398.98 306.367V306.352C1398.98 302.727 1400.46 300.461 1402.95 300.461C1405.45 300.461 1406.95 302.727 1406.95 306.352V306.367C1406.95 309.992 1405.45 312.266 1402.95 312.266ZM1402.95 311.039C1404.57 311.039 1405.53 309.242 1405.53 306.367V306.352C1405.53 303.477 1404.57 301.695 1402.95 301.695C1401.34 301.695 1400.39 303.477 1400.39 306.352V306.367C1400.39 309.242 1401.34 311.039 1402.95 311.039Z" fill="white"/>
<rect x="1274" y="331" width="147" height="210" rx="22" fill="#9046A7"/>
<path d="M1322.48 447.09H1329.3C1332.68 447.09 1334.99 449.387 1334.99 452.785C1334.99 456.125 1332.6 458.41 1329.18 458.41H1325.51V464H1322.48V447.09ZM1325.51 449.562V455.973H1328.5C1330.65 455.973 1331.92 454.824 1331.92 452.785C1331.92 450.688 1330.69 449.562 1328.51 449.562H1325.51ZM1337.3 464V451.191H1340.1V453.184H1340.3C1340.65 451.918 1342.04 450.98 1343.69 450.98C1344.11 450.98 1344.63 451.027 1344.9 451.098V453.746C1344.67 453.664 1343.9 453.582 1343.41 453.582C1341.52 453.582 1340.21 454.754 1340.21 456.559V464H1337.3ZM1348.04 449.047C1347.09 449.047 1346.31 448.285 1346.31 447.324C1346.31 446.375 1347.09 445.602 1348.04 445.602C1349 445.602 1349.79 446.375 1349.79 447.324C1349.79 448.285 1349 449.047 1348.04 449.047ZM1346.6 464V451.191H1349.5V464H1346.6ZM1352.39 464V451.191H1355.19V453.254H1355.39C1355.94 451.812 1357.25 450.945 1358.95 450.945C1360.72 450.945 1361.95 451.836 1362.49 453.254H1362.69C1363.32 451.859 1364.8 450.945 1366.58 450.945C1369.14 450.945 1370.69 452.527 1370.69 455.188V464H1367.8V455.902C1367.8 454.238 1367.01 453.406 1365.45 453.406C1363.94 453.406 1362.95 454.531 1362.95 455.996V464H1360.12V455.691C1360.12 454.273 1359.23 453.406 1357.8 453.406C1356.36 453.406 1355.29 454.613 1355.29 456.207V464H1352.39ZM1376.94 464.211C1374.47 464.211 1372.7 462.711 1372.7 460.367C1372.7 458.07 1374.45 456.723 1377.56 456.547L1380.87 456.348V455.246C1380.87 453.969 1380.03 453.254 1378.46 453.254C1377.12 453.254 1376.21 453.734 1375.94 454.613H1373.19C1373.43 452.375 1375.55 450.945 1378.6 450.945C1381.89 450.945 1383.74 452.539 1383.74 455.246V464H1380.94V462.242H1380.74C1380.03 463.484 1378.62 464.211 1376.94 464.211ZM1377.8 461.973C1379.56 461.973 1380.87 460.824 1380.87 459.301V458.258L1377.98 458.457C1376.35 458.562 1375.58 459.16 1375.58 460.227C1375.58 461.328 1376.51 461.973 1377.8 461.973ZM1386.52 464V451.191H1389.33V453.184H1389.52C1389.88 451.918 1391.26 450.98 1392.91 450.98C1393.33 450.98 1393.85 451.027 1394.12 451.098V453.746C1393.9 453.664 1393.12 453.582 1392.63 453.582C1390.74 453.582 1389.43 454.754 1389.43 456.559V464H1386.52ZM1397.31 468.641C1397.14 468.641 1396.35 468.629 1396.16 468.594V466.285C1396.33 466.309 1396.76 466.32 1396.96 466.32C1398.19 466.32 1398.88 465.852 1399.26 464.645L1399.41 464.047L1394.83 451.191H1398.02L1401.02 461.246H1401.21L1404.2 451.191H1407.27L1402.64 464.445C1401.55 467.598 1400.18 468.641 1397.31 468.641ZM1336.93 476.09H1343.75C1347.12 476.09 1349.43 478.387 1349.43 481.785C1349.43 485.125 1347.04 487.41 1343.62 487.41H1339.95V493H1336.93V476.09ZM1339.95 478.562V484.973H1342.94C1345.1 484.973 1346.36 483.824 1346.36 481.785C1346.36 479.688 1345.13 478.562 1342.95 478.562H1339.95ZM1362.9 480.191V493H1360.1V490.961H1359.9C1359.28 492.426 1358.03 493.258 1356.07 493.258C1353.27 493.258 1351.63 491.512 1351.63 488.512V480.191H1354.54V487.809C1354.54 489.801 1355.34 490.762 1357.08 490.762C1358.97 490.762 1360 489.59 1360 487.656V480.191H1362.9ZM1365.75 493V480.191H1368.55V482.184H1368.75C1369.1 480.918 1370.48 479.98 1372.13 479.98C1372.55 479.98 1373.07 480.027 1373.34 480.098V482.746C1373.12 482.664 1372.34 482.582 1371.85 482.582C1369.96 482.582 1368.65 483.754 1368.65 485.559V493H1365.75ZM1382.16 479.98C1385.4 479.98 1387.44 482.5 1387.44 486.602C1387.44 490.668 1385.43 493.211 1382.19 493.211C1380.35 493.211 1378.94 492.414 1378.28 491.055H1378.08V497.254H1375.17V480.191H1377.98V482.312H1378.17C1378.91 480.859 1380.4 479.98 1382.16 479.98ZM1381.24 490.797C1383.26 490.797 1384.46 489.227 1384.46 486.602C1384.46 483.977 1383.25 482.406 1381.26 482.406C1379.28 482.406 1378.03 484.012 1378.02 486.602C1378.03 489.191 1379.26 490.797 1381.24 490.797ZM1389.76 493V475.234H1392.67V493H1389.76ZM1403.98 489.496H1406.73C1406.21 491.805 1404.06 493.258 1401.04 493.258C1397.27 493.258 1394.99 490.75 1394.99 486.648C1394.99 482.535 1397.3 479.945 1401.02 479.945C1404.67 479.945 1406.86 482.371 1406.86 486.391V487.316H1397.91V487.469C1397.98 489.637 1399.21 490.996 1401.12 490.996C1402.56 490.996 1403.56 490.457 1403.98 489.496ZM1401 482.207C1399.27 482.207 1398.05 483.461 1397.92 485.383H1403.96C1403.9 483.438 1402.75 482.207 1401 482.207Z" fill="white"/>
<path d="M1346.12 522L1346.76 518.852H1344.2L1343.56 522H1342.45L1343.08 518.852H1341.25L1341.47 517.727H1343.33L1343.9 514.883H1341.97L1342.19 513.766H1344.12L1344.75 510.727H1345.86L1345.25 513.766H1347.8L1348.43 510.727H1349.55L1348.93 513.766H1350.87L1350.65 514.883H1348.69L1348.11 517.727H1350.15L1349.93 518.852H1347.88L1347.24 522H1346.12ZM1344.42 517.75H1347L1347.58 514.867H1345L1344.42 517.75ZM1352.02 510.727H1355.89C1359.24 510.727 1361.21 512.812 1361.21 516.359C1361.21 519.914 1359.24 522 1355.89 522H1352.02V510.727ZM1353.43 511.992V520.734H1355.8C1358.31 520.734 1359.77 519.125 1359.77 516.375C1359.77 513.617 1358.3 511.992 1355.8 511.992H1353.43ZM1365.36 516.805V515.602H1366.69C1367.99 515.602 1368.91 514.773 1368.91 513.602C1368.91 512.547 1368.11 511.688 1366.75 511.688C1365.39 511.688 1364.51 512.383 1364.39 513.648H1363.02C1363.16 511.812 1364.56 510.461 1366.84 510.461C1369.07 510.461 1370.35 511.867 1370.34 513.445C1370.33 514.805 1369.49 515.703 1368.33 516.039V516.164C1369.79 516.398 1370.76 517.391 1370.76 518.961C1370.76 520.852 1369.04 522.266 1366.79 522.266C1364.51 522.266 1362.93 521.008 1362.83 519.094H1364.19C1364.31 520.281 1365.33 521.039 1366.78 521.039C1368.26 521.039 1369.32 520.188 1369.32 518.922C1369.32 517.617 1368.34 516.805 1366.76 516.805H1365.36ZM1374.13 522H1372.72V510.727H1379.56V511.992H1374.13V515.867H1379.12V517.117H1374.13V522ZM1381.69 522L1386.75 512.094V511.984H1380.72V510.727H1388.18V512.031L1383.16 522H1381.69ZM1389.79 513.906C1389.79 511.898 1391.34 510.461 1393.5 510.461C1395.46 510.461 1396.97 511.797 1396.97 513.625C1396.97 514.922 1396.41 515.859 1394.38 517.961L1391.82 520.609V520.734H1397.16V522H1389.86V521.031L1393.68 516.906C1395.11 515.352 1395.53 514.766 1395.53 513.773C1395.53 512.578 1394.73 511.688 1393.4 511.688C1392.05 511.688 1391.15 512.57 1391.15 513.906H1389.79ZM1402.66 522.258C1400.74 522.258 1399.31 521.148 1398.96 519.375H1400.41C1400.7 520.391 1401.56 521.008 1402.67 521.008C1404.51 521.008 1405.55 519.383 1405.62 516.383H1405.5C1404.95 517.477 1403.84 518.117 1402.5 518.117C1400.35 518.117 1398.8 516.531 1398.8 514.344C1398.8 512.078 1400.44 510.461 1402.75 510.461C1405.18 510.461 1406.99 512.328 1406.99 516.164C1406.99 520.039 1405.41 522.258 1402.66 522.258ZM1402.75 516.898C1404.24 516.898 1405.31 515.836 1405.31 514.344C1405.31 512.836 1404.21 511.695 1402.77 511.695C1401.32 511.695 1400.22 512.82 1400.22 514.297C1400.22 515.836 1401.26 516.898 1402.75 516.898Z" fill="white"/>
<rect x="980" y="331" width="147" height="210" rx="22" fill="#D82F24"/>
<path d="M1028.32 464V447.09H1035.07C1038.5 447.09 1040.82 449.352 1040.82 452.738V452.762C1040.82 456.137 1038.5 458.41 1035.07 458.41H1031.34V464H1028.32ZM1034.33 449.562H1031.34V455.973H1034.33C1036.5 455.973 1037.77 454.801 1037.77 452.773V452.75C1037.77 450.723 1036.5 449.562 1034.33 449.562ZM1043.14 464V451.191H1046.06V453.16H1046.26C1046.69 451.789 1047.86 450.98 1049.55 450.98C1049.99 450.98 1050.45 451.039 1050.73 451.121V453.734C1050.26 453.641 1049.78 453.57 1049.28 453.57C1047.33 453.57 1046.06 454.73 1046.06 456.559V464H1043.14ZM1053.9 449.047C1052.94 449.047 1052.16 448.285 1052.16 447.324C1052.16 446.375 1052.94 445.602 1053.9 445.602C1054.85 445.602 1055.64 446.375 1055.64 447.324C1055.64 448.285 1054.85 449.047 1053.9 449.047ZM1052.44 464V451.191H1055.36V464H1052.44ZM1058.22 464V451.191H1061.14V453.184H1061.34C1061.89 451.754 1063.18 450.945 1064.86 450.945C1066.59 450.945 1067.86 451.836 1068.41 453.254H1068.61C1069.23 451.859 1070.7 450.945 1072.48 450.945C1075.06 450.945 1076.61 452.527 1076.61 455.188V464H1073.69V455.902C1073.69 454.238 1072.93 453.395 1071.37 453.395C1069.85 453.395 1068.86 454.531 1068.86 455.996V464H1065.95V455.691C1065.95 454.273 1065.07 453.395 1063.64 453.395C1062.2 453.395 1061.14 454.613 1061.14 456.207V464H1058.22ZM1082.84 464.211C1080.4 464.211 1078.63 462.711 1078.63 460.379V460.355C1078.63 458.07 1080.38 456.734 1083.49 456.547L1086.79 456.348V455.246C1086.79 453.969 1085.96 453.266 1084.39 453.266C1083.05 453.266 1082.18 453.746 1081.89 454.59L1081.88 454.637H1079.12L1079.14 454.531C1079.42 452.375 1081.48 450.945 1084.53 450.945C1087.82 450.945 1089.67 452.539 1089.67 455.246V464H1086.79V462.242H1086.59C1085.89 463.484 1084.53 464.211 1082.84 464.211ZM1081.51 460.238C1081.51 461.328 1082.44 461.973 1083.73 461.973C1085.49 461.973 1086.79 460.824 1086.79 459.301V458.27L1083.9 458.457C1082.28 458.562 1081.51 459.16 1081.51 460.215V460.238ZM1092.45 464V451.191H1095.37V453.16H1095.57C1096.01 451.789 1097.18 450.98 1098.86 450.98C1099.31 450.98 1099.77 451.039 1100.05 451.121V453.734C1099.58 453.641 1099.1 453.57 1098.6 453.57C1096.65 453.57 1095.37 454.73 1095.37 456.559V464H1092.45ZM1103.28 468.5C1102.93 468.5 1102.52 468.488 1102.16 468.453V466.215C1102.4 466.238 1102.73 466.25 1103.03 466.25C1104.23 466.25 1104.94 465.758 1105.26 464.598L1105.41 464.012L1100.83 451.191H1104.02L1107 461.199H1107.23L1110.2 451.191H1113.27L1108.68 464.27C1107.58 467.48 1106.11 468.5 1103.28 468.5ZM1072.15 493V476.09H1078.98C1082.62 476.09 1084.8 478.117 1084.8 481.34V481.363C1084.8 483.602 1083.61 485.453 1081.61 486.18L1085.3 493H1081.84L1078.53 486.637H1075.17V493H1072.15ZM1075.17 484.316H1078.67C1080.58 484.316 1081.69 483.25 1081.69 481.434V481.41C1081.69 479.641 1080.53 478.539 1078.61 478.539H1075.17V484.316ZM1092.52 493.258C1088.72 493.258 1086.41 490.703 1086.41 486.625V486.613C1086.41 482.582 1088.74 479.945 1092.38 479.945C1096.03 479.945 1098.28 482.5 1098.28 486.367V487.328H1089.33C1089.36 489.625 1090.6 490.961 1092.58 490.961C1094.17 490.961 1095.07 490.164 1095.35 489.578L1095.38 489.496H1098.16L1098.13 489.602C1097.72 491.254 1096.01 493.258 1092.52 493.258ZM1092.42 482.23C1090.79 482.23 1089.57 483.332 1089.35 485.371H1095.43C1095.23 483.273 1094.05 482.23 1092.42 482.23ZM1105.09 493.211C1101.88 493.211 1099.84 490.668 1099.84 486.613V486.59C1099.84 482.512 1101.85 479.98 1105.09 479.98C1106.85 479.98 1108.32 480.848 1108.98 482.23H1109.18V475.234H1112.11V493H1109.18V490.996H1108.98C1108.28 492.391 1106.9 493.211 1105.09 493.211ZM1106.01 490.75C1108 490.75 1109.23 489.18 1109.23 486.613V486.59C1109.23 484.023 1107.99 482.441 1106.01 482.441C1104.03 482.441 1102.81 484.012 1102.81 486.59V486.613C1102.81 489.191 1104.02 490.75 1106.01 490.75Z" fill="white"/>
<path d="M1051.68 522L1052.33 518.852H1049.76L1049.12 522H1048.01L1048.65 518.852H1046.82L1047.04 517.727H1048.89L1049.46 514.883H1047.53L1047.75 513.766H1049.68L1050.32 510.727H1051.43L1050.82 513.766H1053.36L1054 510.727H1055.11L1054.49 513.766H1056.43L1056.22 514.883H1054.25L1053.67 517.727H1055.71L1055.49 518.852H1053.44L1052.8 522H1051.68ZM1049.98 517.75H1052.56L1053.15 514.867H1050.57L1049.98 517.75ZM1057.59 510.727H1061.45C1064.8 510.727 1066.77 512.812 1066.77 516.359C1066.77 519.914 1064.81 522 1061.45 522H1057.59V510.727ZM1058.99 511.992V520.734H1061.36C1063.88 520.734 1065.34 519.125 1065.34 516.375C1065.34 513.617 1063.86 511.992 1061.36 511.992H1058.99ZM1072.4 522.266C1070.01 522.266 1068.34 520.914 1068.34 518.984C1068.34 517.516 1069.27 516.375 1070.69 516.109V515.984C1069.54 515.672 1068.8 514.695 1068.8 513.469C1068.8 511.711 1070.29 510.461 1072.4 510.461C1074.51 510.461 1076.01 511.711 1076.01 513.469C1076.01 514.703 1075.29 515.664 1074.12 515.984V516.109C1075.54 516.375 1076.47 517.516 1076.47 518.984C1076.47 520.914 1074.79 522.266 1072.4 522.266ZM1072.4 515.516C1073.73 515.516 1074.62 514.75 1074.62 513.602C1074.62 512.438 1073.74 511.664 1072.4 511.664C1071.07 511.664 1070.19 512.438 1070.19 513.602C1070.19 514.75 1071.08 515.516 1072.4 515.516ZM1072.4 521.062C1073.97 521.062 1075.04 520.172 1075.04 518.883C1075.04 517.594 1073.97 516.703 1072.4 516.703C1070.84 516.703 1069.76 517.594 1069.76 518.883C1069.76 520.172 1070.84 521.062 1072.4 521.062ZM1078.22 513.906C1078.22 511.898 1079.77 510.461 1081.92 510.461C1083.89 510.461 1085.4 511.797 1085.4 513.625C1085.4 514.922 1084.84 515.859 1082.81 517.961L1080.24 520.609V520.734H1085.59V522H1078.29V521.031L1082.1 516.906C1083.54 515.352 1083.96 514.766 1083.96 513.773C1083.96 512.578 1083.16 511.688 1081.83 511.688C1080.48 511.688 1079.58 512.57 1079.58 513.906H1078.22ZM1089.07 522H1087.66V510.727H1094.51V511.992H1089.07V515.867H1094.06V517.117H1089.07V522ZM1095.93 513.906C1095.93 511.898 1097.48 510.461 1099.64 510.461C1101.6 510.461 1103.11 511.797 1103.11 513.625C1103.11 514.922 1102.55 515.859 1100.52 517.961L1097.96 520.609V520.734H1103.3V522H1096V521.031L1099.82 516.906C1101.25 515.352 1101.68 514.766 1101.68 513.773C1101.68 512.578 1100.87 511.688 1099.54 511.688C1098.19 511.688 1097.29 512.57 1097.29 513.906H1095.93ZM1110.11 522V519.664H1104.62V518.383C1106.14 515.828 1107.87 513.078 1109.45 510.727H1111.48V518.406H1113.09V519.664H1111.48V522H1110.11ZM1106.05 518.32V518.414H1110.12V512.031H1110.02C1108.76 513.922 1107.28 516.25 1106.05 518.32Z" fill="white"/>
<rect x="1421" y="331" width="147" height="210" rx="22" fill="#F2D74E"/>
<path d="M1469.48 447.09H1476.3C1479.68 447.09 1481.99 449.387 1481.99 452.785C1481.99 456.125 1479.6 458.41 1476.18 458.41H1472.51V464H1469.48V447.09ZM1472.51 449.562V455.973H1475.5C1477.65 455.973 1478.92 454.824 1478.92 452.785C1478.92 450.688 1477.69 449.562 1475.51 449.562H1472.51ZM1484.3 464V451.191H1487.1V453.184H1487.3C1487.65 451.918 1489.04 450.98 1490.69 450.98C1491.11 450.98 1491.63 451.027 1491.9 451.098V453.746C1491.67 453.664 1490.9 453.582 1490.41 453.582C1488.52 453.582 1487.21 454.754 1487.21 456.559V464H1484.3ZM1495.04 449.047C1494.09 449.047 1493.31 448.285 1493.31 447.324C1493.31 446.375 1494.09 445.602 1495.04 445.602C1496 445.602 1496.79 446.375 1496.79 447.324C1496.79 448.285 1496 449.047 1495.04 449.047ZM1493.6 464V451.191H1496.5V464H1493.6ZM1499.39 464V451.191H1502.19V453.254H1502.39C1502.94 451.812 1504.25 450.945 1505.95 450.945C1507.72 450.945 1508.95 451.836 1509.49 453.254H1509.69C1510.32 451.859 1511.8 450.945 1513.58 450.945C1516.14 450.945 1517.69 452.527 1517.69 455.188V464H1514.8V455.902C1514.8 454.238 1514.01 453.406 1512.45 453.406C1510.94 453.406 1509.95 454.531 1509.95 455.996V464H1507.12V455.691C1507.12 454.273 1506.23 453.406 1504.8 453.406C1503.36 453.406 1502.29 454.613 1502.29 456.207V464H1499.39ZM1523.94 464.211C1521.47 464.211 1519.7 462.711 1519.7 460.367C1519.7 458.07 1521.45 456.723 1524.56 456.547L1527.87 456.348V455.246C1527.87 453.969 1527.03 453.254 1525.46 453.254C1524.12 453.254 1523.21 453.734 1522.94 454.613H1520.19C1520.43 452.375 1522.55 450.945 1525.6 450.945C1528.89 450.945 1530.74 452.539 1530.74 455.246V464H1527.94V462.242H1527.74C1527.03 463.484 1525.62 464.211 1523.94 464.211ZM1524.8 461.973C1526.56 461.973 1527.87 460.824 1527.87 459.301V458.258L1524.98 458.457C1523.35 458.562 1522.58 459.16 1522.58 460.227C1522.58 461.328 1523.51 461.973 1524.8 461.973ZM1533.52 464V451.191H1536.33V453.184H1536.52C1536.88 451.918 1538.26 450.98 1539.91 450.98C1540.33 450.98 1540.85 451.027 1541.12 451.098V453.746C1540.9 453.664 1540.12 453.582 1539.63 453.582C1537.74 453.582 1536.43 454.754 1536.43 456.559V464H1533.52ZM1544.31 468.641C1544.14 468.641 1543.35 468.629 1543.16 468.594V466.285C1543.33 466.309 1543.76 466.32 1543.96 466.32C1545.19 466.32 1545.88 465.852 1546.26 464.645L1546.41 464.047L1541.83 451.191H1545.02L1548.02 461.246H1548.21L1551.2 451.191H1554.27L1549.64 464.445C1548.55 467.598 1547.18 468.641 1544.31 468.641ZM1492.64 493H1489.61V486.332L1483.68 476.09H1487L1491.03 483.344H1491.23L1495.25 476.09H1498.56L1492.64 486.332V493ZM1506.63 489.496H1509.39C1508.86 491.805 1506.72 493.258 1503.69 493.258C1499.92 493.258 1497.65 490.75 1497.65 486.648C1497.65 482.535 1499.95 479.945 1503.67 479.945C1507.33 479.945 1509.52 482.371 1509.52 486.391V487.316H1500.56V487.469C1500.63 489.637 1501.86 490.996 1503.77 490.996C1505.22 490.996 1506.21 490.457 1506.63 489.496ZM1503.66 482.207C1501.92 482.207 1500.7 483.461 1500.58 485.383H1506.61C1506.55 483.438 1505.4 482.207 1503.66 482.207ZM1511.83 493V475.234H1514.74V493H1511.83ZM1517.81 493V475.234H1520.72V493H1517.81ZM1529.21 493.258C1525.37 493.258 1523.05 490.75 1523.05 486.59C1523.05 482.465 1525.4 479.945 1529.21 479.945C1533.03 479.945 1535.38 482.453 1535.38 486.59C1535.38 490.75 1533.04 493.258 1529.21 493.258ZM1529.21 490.879C1531.24 490.879 1532.39 489.309 1532.39 486.602C1532.39 483.895 1531.23 482.324 1529.21 482.324C1527.18 482.324 1526.02 483.895 1526.02 486.602C1526.02 489.309 1527.18 490.879 1529.21 490.879ZM1554.24 480.191L1550.77 493H1547.71L1545.21 483.719H1545.02L1542.53 493H1539.51L1536.04 480.191H1538.97L1541.1 489.812H1541.3L1543.76 480.191H1546.54L1549.02 489.812H1549.22L1551.34 480.191H1554.24Z" fill="#202020"/>
<path d="M1494.78 522L1495.42 518.852H1492.86L1492.22 522H1491.11L1491.74 518.852H1489.91L1490.13 517.727H1491.98L1492.55 514.883H1490.62L1490.85 513.766H1492.78L1493.41 510.727H1494.52L1493.91 513.766H1496.46L1497.09 510.727H1498.21L1497.58 513.766H1499.53L1499.31 514.883H1497.35L1496.76 517.727H1498.8L1498.58 518.852H1496.54L1495.9 522H1494.78ZM1493.08 517.75H1495.65L1496.24 514.867H1493.66L1493.08 517.75ZM1502.09 522H1500.68V510.727H1507.52V511.992H1502.09V515.867H1507.08V517.117H1502.09V522ZM1508.95 513.906C1508.95 511.898 1510.5 510.461 1512.65 510.461C1514.62 510.461 1516.13 511.797 1516.13 513.625C1516.13 514.922 1515.57 515.859 1513.54 517.961L1510.97 520.609V520.734H1516.32V522H1509.02V521.031L1512.83 516.906C1514.27 515.352 1514.69 514.766 1514.69 513.773C1514.69 512.578 1513.89 511.688 1512.56 511.688C1511.21 511.688 1510.31 512.57 1510.31 513.906H1508.95ZM1518.39 510.727H1522.26C1525.6 510.727 1527.58 512.812 1527.58 516.359C1527.58 519.914 1525.61 522 1522.26 522H1518.39V510.727ZM1519.8 511.992V520.734H1522.17C1524.68 520.734 1526.14 519.125 1526.14 516.375C1526.14 513.617 1524.67 511.992 1522.17 511.992H1519.8ZM1529.67 522L1534.73 512.094V511.984H1528.7V510.727H1536.16V512.031L1531.15 522H1529.67ZM1542.06 522V519.664H1536.57V518.383C1538.09 515.828 1539.82 513.078 1541.39 510.727H1543.43V518.406H1545.03V519.664H1543.43V522H1542.06ZM1538 518.32V518.414H1542.07V512.031H1541.97C1540.71 513.922 1539.23 516.25 1538 518.32ZM1553.89 520.734V522H1546.91V510.727H1553.89V511.992H1548.31V515.609H1553.6V516.859H1548.31V520.734H1553.89Z" fill="#202020"/>
<path d="M841 698L802.895 632L879.105 632L841 698Z" fill="#202020"/>
</svg>
