<svg width="1421" height="475" viewBox="0 0 1421 475" fill="none" xmlns="http://www.w3.org/2000/svg">
<g clip-path="url(#clip0_715_42061)">
<rect width="1421" height="475" fill="white"/>
<rect width="1421" height="475" fill="#F7F7F7"/>
<g clip-path="url(#clip1_715_42061)">
<path d="M260.886 191.963C291.512 191.963 316.339 167.136 316.339 136.51C316.339 105.885 291.512 81.0576 260.886 81.0576C230.26 81.0576 205.432 105.885 205.432 136.51C205.432 167.136 230.26 191.963 260.886 191.963Z" stroke="black" stroke-width="2" stroke-miterlimit="10"/>
<path d="M184.804 165.729C184.804 165.729 210.701 195.2 250.942 165.729C291.183 136.257 327.828 155.383 331.805 165.729" stroke="black" stroke-width="2" stroke-miterlimit="10"/>
<path d="M334.196 181.469C334.196 181.469 303.856 206.329 268.926 170.721C233.995 135.093 194.748 147.998 189.141 157.561" stroke="black" stroke-width="2" stroke-miterlimit="10"/>
<path d="M185.227 140.446C185.227 140.446 197.223 96.8835 227.901 118.252C258.58 139.621 273.813 140.129 285.767 118.252C297.721 96.3757 330.24 112.349 333.963 126.398" stroke="black" stroke-width="2" stroke-miterlimit="10"/>
</g>
<g clip-path="url(#clip2_715_42061)">
<path d="M226.152 369.286C256.583 369.286 281.253 344.534 281.253 314C281.253 283.466 256.583 258.713 226.152 258.713C195.721 258.713 171.051 283.466 171.051 314C171.051 344.534 195.721 369.286 226.152 369.286Z" stroke="black" stroke-width="2" stroke-miterlimit="10"/>
<path d="M256.782 369.286C287.213 369.286 311.883 344.534 311.883 314C311.883 283.466 287.213 258.713 256.782 258.713C226.351 258.713 201.681 283.466 201.681 314C201.681 344.534 226.351 369.286 256.782 369.286Z" stroke="black" stroke-width="2" stroke-miterlimit="10"/>
<path d="M291.869 369.286C322.3 369.286 346.97 344.534 346.97 314C346.97 283.466 322.3 258.713 291.869 258.713C261.438 258.713 236.768 283.466 236.768 314C236.768 344.534 261.438 369.286 291.869 369.286Z" stroke="black" stroke-width="2" stroke-miterlimit="10"/>
<path d="M171.051 233V395" stroke="black" stroke-width="0.5" stroke-miterlimit="10"/>
<path d="M201.702 233V395" stroke="black" stroke-width="0.5" stroke-miterlimit="10"/>
<path d="M236.768 233V395" stroke="black" stroke-width="0.5" stroke-miterlimit="10"/>
<path d="M281.232 233V395" stroke="black" stroke-width="0.5" stroke-miterlimit="10"/>
<path d="M171.051 314H201.702" stroke="black" stroke-width="0.5" stroke-miterlimit="10"/>
<path d="M201.702 314H236.768" stroke="black" stroke-width="0.5" stroke-miterlimit="10"/>
<path d="M236.768 314H281.232" stroke="black" stroke-width="0.5" stroke-miterlimit="10"/>
</g>
<g clip-path="url(#clip3_715_42061)">
<path d="M487.467 368.973C518.07 368.973 542.878 344.365 542.878 314.011C542.878 283.656 518.07 259.049 487.467 259.049C456.865 259.049 432.057 283.656 432.057 314.011C432.057 344.365 456.865 368.973 487.467 368.973Z" stroke="black" stroke-width="2" stroke-miterlimit="10"/>
<path d="M518.27 368.973C548.872 368.973 573.68 344.365 573.68 314.011C573.68 283.656 548.872 259.049 518.27 259.049C487.667 259.049 462.859 283.656 462.859 314.011C462.859 344.365 487.667 368.973 518.27 368.973Z" stroke="black" stroke-width="2" stroke-miterlimit="10"/>
<path d="M553.554 368.973C584.156 368.973 608.964 344.365 608.964 314.011C608.964 283.656 584.156 259.049 553.554 259.049C522.952 259.049 498.143 283.656 498.143 314.011C498.143 344.365 522.952 368.973 553.554 368.973Z" stroke="black" stroke-width="2" stroke-miterlimit="10"/>
</g>
<g clip-path="url(#clip4_715_42061)">
<path d="M872.201 260C866.094 260 860.238 261.007 854.758 262.854C849.278 261.007 843.422 260 837.314 260C832.023 260 826.919 260.777 822.067 262.183C817.235 260.777 812.111 260 806.82 260C776.534 260 752 284.619 752 315.01C752 345.402 776.534 370.021 806.82 370.021C812.111 370.021 817.215 369.244 822.067 367.859C826.898 369.265 832.023 370.021 837.314 370.021C843.422 370.021 849.278 369.014 854.758 367.167C860.238 369.014 866.094 370.021 872.201 370.021C902.466 370.021 927.021 345.402 927.021 315.01C927.021 284.619 902.466 260 872.201 260Z" fill="url(#paint0_linear_715_42061)"/>
</g>
<g clip-path="url(#clip5_715_42061)">
<path d="M520.511 198.973C551.136 198.973 575.963 174.366 575.963 144.011C575.963 113.656 551.136 89.0488 520.511 89.0488C489.885 89.0488 465.058 113.656 465.058 144.011C465.058 174.366 489.885 198.973 520.511 198.973Z" stroke="black" stroke-width="2" stroke-miterlimit="10"/>
<path d="M567.966 115.597C559.249 114.296 550.469 116.729 545.391 125.935C533.438 147.618 518.204 147.114 487.527 125.935C481.053 121.468 475.425 119.895 470.559 120.126C467.047 127.34 465.058 135.455 465.058 144.011C465.058 174.354 489.875 198.973 520.511 198.973C551.146 198.973 575.963 174.375 575.963 144.011C575.963 133.61 573.044 123.901 567.987 115.597H567.966Z" stroke="black" stroke-width="2" stroke-miterlimit="10"/>
<path d="M574.757 155.271C559.524 149.756 535.744 149.169 510.546 167.455C498.634 176.116 487.971 179.617 478.873 180.289C489.029 191.717 503.902 198.952 520.489 198.952C547.211 198.952 569.51 180.205 574.757 155.271Z" stroke="black" stroke-width="2" stroke-miterlimit="10"/>
<path d="M563.29 178.946C552.648 178.317 539.869 173.641 526.392 160.011C504.706 138.118 481.391 134.742 465.439 137.573C465.185 139.67 465.058 141.809 465.058 143.99C465.058 174.333 489.875 198.952 520.511 198.952C537.732 198.952 553.135 191.172 563.29 178.946Z" stroke="black" stroke-width="2" stroke-miterlimit="10"/>
</g>
<g clip-path="url(#clip6_715_42061)">
<path d="M840.011 201.022C871.497 201.022 897.022 175.05 897.022 143.011C897.022 110.972 871.497 85 840.011 85C808.525 85 783 110.972 783 143.011C783 175.05 808.525 201.022 840.011 201.022Z" fill="#3881E7"/>
<path d="M888.8 113.021C879.838 111.649 870.811 114.216 865.591 123.933C853.301 146.818 837.64 146.287 806.1 123.933C799.444 119.218 793.658 117.558 788.655 117.802C785.045 125.415 783 133.981 783 143.011C783 175.038 808.515 201.022 840.011 201.022C871.507 201.022 897.022 175.06 897.022 143.011C897.022 132.033 894.02 121.786 888.821 113.021H888.8Z" fill="#92D7F7"/>
<path d="M895.782 154.896C880.121 149.075 855.672 148.455 829.766 167.756C817.52 176.897 806.557 180.593 797.204 181.301C807.645 193.364 822.936 201 839.989 201C867.461 201 890.388 181.213 895.782 154.896Z" fill="#245ECC"/>
<path d="M883.993 179.885C873.052 179.221 859.914 174.285 846.058 159.899C823.762 136.792 799.792 133.228 783.392 136.216C783.131 138.429 783 140.687 783 142.989C783 175.016 808.515 201 840.011 201C857.717 201 873.552 192.789 883.993 179.885Z" fill="#50A6F4"/>
</g>
<path d="M1226.47 140.207C1226.47 121.315 1217.87 104.407 1204.34 93.1741C1194.75 96.5837 1193.23 106.882 1185.87 106.882C1178.51 106.882 1170.49 88.0832 1158.93 93.828C1147.38 99.5729 1147.38 112.37 1125.55 98.4052C1124.36 97.6346 1123.23 97.004 1122.13 96.4436C1110.71 107.56 1103.61 123.066 1103.61 140.207C1103.61 173.999 1131.11 201.415 1165.05 201.415C1199 201.415 1226.49 174.022 1226.49 140.207H1226.47Z" fill="#92D7F7"/>
<path d="M1217.63 108.588C1207.97 107.14 1198.25 109.849 1192.62 120.101C1179.37 144.248 1162.5 143.687 1128.51 120.101C1121.33 115.126 1115.1 113.375 1109.7 113.632C1105.79 121.665 1103.61 130.68 1103.61 140.208C1103.61 173.999 1131.11 201.416 1165.05 201.416C1199 201.416 1226.49 174.023 1226.49 140.208C1226.49 128.624 1223.26 117.812 1217.66 108.564L1217.63 108.588Z" fill="#50A6F4"/>
<path d="M1225.16 152.771C1208.28 146.629 1181.93 145.975 1154.01 166.339C1140.81 175.984 1129 179.884 1118.92 180.631C1130.17 193.359 1146.65 201.415 1165.03 201.415C1194.64 201.415 1219.34 180.538 1225.16 152.771Z" fill="#3881E7"/>
<path d="M1212.45 179.137C1200.66 178.437 1186.5 173.229 1171.57 158.05C1147.54 133.669 1121.71 129.909 1104.03 133.062C1103.75 135.397 1103.61 137.779 1103.61 140.208C1103.61 174 1131.11 201.416 1165.05 201.416C1184.13 201.416 1201.2 192.752 1212.45 179.137Z" fill="#245ECC"/>
<circle cx="1131.2" cy="314.764" r="54.764" fill="#92D7F7"/>
<circle cx="1161.63" cy="314.764" r="54.764" fill="#71B0F3"/>
<circle cx="1198.14" cy="314.764" r="54.764" fill="#245ECC"/>
<mask id="mask0_715_42061" style="mask-type:alpha" maskUnits="userSpaceOnUse" x="1106" y="260" width="111" height="110">
<circle cx="1161.63" cy="314.764" r="54.764" fill="#3881E7"/>
</mask>
<g mask="url(#mask0_715_42061)">
<circle cx="1198.14" cy="314.764" r="54.764" fill="#3881E7"/>
</g>
<mask id="mask1_715_42061" style="mask-type:alpha" maskUnits="userSpaceOnUse" x="1076" y="260" width="110" height="110">
<circle cx="1131.2" cy="314.764" r="54.764" fill="#7AD9FB"/>
</mask>
<g mask="url(#mask1_715_42061)">
<mask id="mask2_715_42061" style="mask-type:alpha" maskUnits="userSpaceOnUse" x="1143" y="260" width="110" height="110">
<circle cx="1198.14" cy="314.764" r="54.764" fill="#3A5DC6"/>
</mask>
<g mask="url(#mask2_715_42061)">
<mask id="mask3_715_42061" style="mask-type:alpha" maskUnits="userSpaceOnUse" x="1106" y="260" width="111" height="110">
<circle cx="1161.63" cy="314.764" r="54.764" fill="#5AB0F8"/>
</mask>
<g mask="url(#mask3_715_42061)">
<circle cx="1198.14" cy="314.764" r="54.764" fill="#50A6F4"/>
</g>
</g>
</g>
<path d="M1029 315L1021.5 310.67V319.33L1029 315ZM971 315.75H973.071V314.25H971V315.75ZM977.214 315.75H981.357V314.25H977.214V315.75ZM985.5 315.75H989.643V314.25H985.5V315.75ZM993.786 315.75H997.929V314.25H993.786V315.75ZM1002.07 315.75H1006.21V314.25H1002.07V315.75ZM1010.36 315.75H1014.5V314.25H1010.36V315.75ZM1018.64 315.75H1022.79V314.25H1018.64V315.75Z" fill="url(#paint1_linear_715_42061)"/>
<path d="M1029 147L1021.5 142.67V151.33L1029 147ZM971 147.75H973.071V146.25H971V147.75ZM977.214 147.75H981.357V146.25H977.214V147.75ZM985.5 147.75H989.643V146.25H985.5V147.75ZM993.786 147.75H997.929V146.25H993.786V147.75ZM1002.07 147.75H1006.21V146.25H1002.07V147.75ZM1010.36 147.75H1014.5V146.25H1010.36V147.75ZM1018.64 147.75H1022.79V146.25H1018.64V147.75Z" fill="url(#paint2_linear_715_42061)"/>
</g>
<defs>
<linearGradient id="paint0_linear_715_42061" x1="752" y1="315.01" x2="927" y2="315.01" gradientUnits="userSpaceOnUse">
<stop stop-color="#92D7F7"/>
<stop offset="0.355" stop-color="#50A6F4"/>
<stop offset="0.74" stop-color="#3980DF"/>
<stop offset="1" stop-color="#245ECC"/>
</linearGradient>
<linearGradient id="paint1_linear_715_42061" x1="1029" y1="315" x2="965.912" y2="315" gradientUnits="userSpaceOnUse">
<stop stop-color="#333333"/>
<stop offset="1" stop-color="#333333" stop-opacity="0"/>
</linearGradient>
<linearGradient id="paint2_linear_715_42061" x1="1029" y1="147" x2="965.912" y2="147" gradientUnits="userSpaceOnUse">
<stop stop-color="#333333"/>
<stop offset="1" stop-color="#333333" stop-opacity="0"/>
</linearGradient>
<clipPath id="clip0_715_42061">
<rect width="1421" height="475" fill="white"/>
</clipPath>
<clipPath id="clip1_715_42061">
<rect width="151" height="113" fill="white" transform="translate(184 80)"/>
</clipPath>
<clipPath id="clip2_715_42061">
<rect width="178" height="162" fill="white" transform="translate(170 233)"/>
</clipPath>
<clipPath id="clip3_715_42061">
<rect width="179" height="112" fill="white" transform="translate(431 258)"/>
</clipPath>
<clipPath id="clip4_715_42061">
<rect width="175" height="110" fill="white" transform="translate(752 260)"/>
</clipPath>
<clipPath id="clip5_715_42061">
<rect width="113" height="112" fill="white" transform="translate(464 88)"/>
</clipPath>
<clipPath id="clip6_715_42061">
<rect width="114" height="116" fill="white" transform="translate(783 85)"/>
</clipPath>
</defs>
</svg>
