<svg width="1421" height="203" viewBox="0 0 1421 203" fill="none" xmlns="http://www.w3.org/2000/svg">
<g clip-path="url(#clip0_740_42604)">
<rect width="1421" height="203" fill="white"/>
<mask id="path-1-inside-1_740_42604" fill="white">
<path d="M0 0H237V203H0V0Z"/>
</mask>
<path d="M0 0H237V203H0V0Z" fill="white"/>
<path d="M0 0V-1.8H-1.8V0H0ZM0 203H-1.8V204.8H0V203ZM0 1.8H237V-1.8H0V1.8ZM237 201.2H0V204.8H237V201.2ZM1.8 203V0H-1.8V203H1.8Z" fill="#363636" mask="url(#path-1-inside-1_740_42604)"/>
<rect x="237" width="237" height="203" fill="#6FC0EF"/>
<rect x="474" width="236" height="203" fill="#66A7EE"/>
<rect x="710" width="237" height="203" fill="#3360C5"/>
<rect x="947" width="237" height="203" fill="#21399C"/>
<rect x="1184" width="237" height="203" fill="#363636"/>
<path d="M26.4432 29L28.3523 17.3636H29.9432L28.0341 29H26.4432ZM21.1989 26L21.4659 24.4091H30.4205L30.1534 26H21.1989ZM22.3523 29L24.2614 17.3636H25.8523L23.9432 29H22.3523ZM21.875 21.9545L22.1364 20.3636H31.0909L30.8295 21.9545H21.875ZM32.2846 29V17.3636H39.7391V19.1307H34.3926V22.2898H39.2278V24.0568H34.3926V29H32.2846ZM41.4996 29V17.3636H48.9541V19.1307H43.6076V22.2898H48.4428V24.0568H43.6076V29H41.4996ZM50.7146 29V17.3636H58.1691V19.1307H52.8226V22.2898H57.6578V24.0568H52.8226V29H50.7146ZM59.9296 29V17.3636H67.3841V19.1307H62.0376V22.2898H66.8728V24.0568H62.0376V29H59.9296ZM69.1446 29V17.3636H76.5991V19.1307H71.2526V22.2898H76.0878V24.0568H71.2526V29H69.1446ZM78.3596 29V17.3636H85.8141V19.1307H80.4676V22.2898H85.3028V24.0568H80.4676V29H78.3596Z" fill="black"/>
<path d="M263.443 29L265.352 17.3636H266.943L265.034 29H263.443ZM258.199 26L258.466 24.4091H267.42L267.153 26H258.199ZM259.352 29L261.261 17.3636H262.852L260.943 29H259.352ZM258.875 21.9545L259.136 20.3636H268.091L267.83 21.9545H258.875ZM273.432 29.1591C272.876 29.1553 272.332 29.0587 271.802 28.8693C271.271 28.6761 270.794 28.3636 270.37 27.9318C269.946 27.4962 269.608 26.9186 269.358 26.1989C269.108 25.4754 268.985 24.5795 268.989 23.5114C268.989 22.5152 269.095 21.6269 269.307 20.8466C269.519 20.0663 269.824 19.4072 270.222 18.8693C270.62 18.3277 271.099 17.9148 271.66 17.6307C272.224 17.3466 272.855 17.2045 273.552 17.2045C274.283 17.2045 274.93 17.3485 275.495 17.6364C276.063 17.9242 276.521 18.3182 276.87 18.8182C277.218 19.3144 277.434 19.875 277.518 20.5H275.444C275.338 20.053 275.12 19.697 274.79 19.4318C274.465 19.1629 274.052 19.0284 273.552 19.0284C272.745 19.0284 272.124 19.3788 271.688 20.0795C271.256 20.7803 271.038 21.7424 271.035 22.9659H271.114C271.3 22.6326 271.54 22.3466 271.836 22.108C272.131 21.8693 272.465 21.6856 272.836 21.5568C273.211 21.4242 273.607 21.358 274.023 21.358C274.705 21.358 275.317 21.5208 275.858 21.8466C276.404 22.1723 276.836 22.6212 277.154 23.1932C277.472 23.7614 277.629 24.4129 277.626 25.1477C277.629 25.9129 277.455 26.6004 277.103 27.2102C276.751 27.8163 276.26 28.2936 275.631 28.642C275.002 28.9905 274.269 29.1629 273.432 29.1591ZM273.421 27.4545C273.834 27.4545 274.203 27.3542 274.529 27.1534C274.855 26.9527 275.112 26.6818 275.302 26.3409C275.491 26 275.584 25.6174 275.58 25.1932C275.584 24.7765 275.493 24.3996 275.307 24.0625C275.126 23.7254 274.874 23.4583 274.552 23.2614C274.23 23.0644 273.862 22.9659 273.449 22.9659C273.143 22.9659 272.857 23.0246 272.591 23.142C272.326 23.2595 272.095 23.4223 271.898 23.6307C271.701 23.8352 271.546 24.0739 271.432 24.3466C271.322 24.6155 271.266 24.9034 271.262 25.2102C271.266 25.6155 271.36 25.9886 271.546 26.3295C271.732 26.6705 271.987 26.9432 272.313 27.1477C272.639 27.3523 273.008 27.4545 273.421 27.4545ZM279.5 29V17.3636H286.954V19.1307H281.608V22.2898H286.443V24.0568H281.608V29H279.5ZM298.675 21.2898H296.55C296.489 20.9413 296.377 20.6326 296.215 20.3636C296.052 20.0909 295.849 19.8598 295.607 19.6705C295.364 19.4811 295.088 19.339 294.777 19.2443C294.47 19.1458 294.139 19.0966 293.783 19.0966C293.15 19.0966 292.59 19.2557 292.101 19.5739C291.612 19.8883 291.23 20.3504 290.953 20.9602C290.677 21.5663 290.538 22.3068 290.538 23.1818C290.538 24.072 290.677 24.822 290.953 25.4318C291.234 26.0379 291.616 26.4962 292.101 26.8068C292.59 27.1136 293.148 27.267 293.777 27.267C294.126 27.267 294.451 27.2216 294.754 27.1307C295.061 27.036 295.336 26.8977 295.578 26.7159C295.824 26.5341 296.031 26.3106 296.198 26.0455C296.368 25.7803 296.485 25.4773 296.55 25.1364L298.675 25.1477C298.595 25.7008 298.423 26.2197 298.158 26.7045C297.896 27.1894 297.554 27.6174 297.129 27.9886C296.705 28.3561 296.209 28.6439 295.641 28.8523C295.073 29.0568 294.442 29.1591 293.749 29.1591C292.726 29.1591 291.813 28.9223 291.01 28.4489C290.207 27.9754 289.574 27.2917 289.112 26.3977C288.65 25.5038 288.419 24.4318 288.419 23.1818C288.419 21.928 288.652 20.8561 289.118 19.9659C289.584 19.072 290.218 18.3883 291.021 17.9148C291.824 17.4413 292.734 17.2045 293.749 17.2045C294.396 17.2045 294.999 17.2955 295.556 17.4773C296.112 17.6591 296.609 17.9261 297.044 18.2784C297.48 18.6269 297.838 19.0549 298.118 19.5625C298.402 20.0663 298.588 20.642 298.675 21.2898ZM304.633 29.2216C303.697 29.2216 302.894 28.9848 302.224 28.5114C301.557 28.0341 301.044 27.3466 300.684 26.4489C300.328 25.5473 300.15 24.4621 300.15 23.1932C300.154 21.9242 300.333 20.8447 300.69 19.9545C301.049 19.0606 301.563 18.3788 302.229 17.9091C302.9 17.4394 303.701 17.2045 304.633 17.2045C305.565 17.2045 306.366 17.4394 307.036 17.9091C307.707 18.3788 308.22 19.0606 308.576 19.9545C308.936 20.8485 309.116 21.928 309.116 23.1932C309.116 24.4659 308.936 25.553 308.576 26.4545C308.22 27.3523 307.707 28.0379 307.036 28.5114C306.369 28.9848 305.568 29.2216 304.633 29.2216ZM304.633 27.4432C305.36 27.4432 305.934 27.0852 306.354 26.3693C306.779 25.6496 306.991 24.5909 306.991 23.1932C306.991 22.2689 306.894 21.4924 306.701 20.8636C306.508 20.2348 306.235 19.7614 305.883 19.4432C305.53 19.1212 305.114 18.9602 304.633 18.9602C303.909 18.9602 303.337 19.3201 302.917 20.0398C302.496 20.7557 302.284 21.8068 302.28 23.1932C302.277 24.1212 302.369 24.9015 302.559 25.5341C302.752 26.1667 303.025 26.6439 303.377 26.9659C303.729 27.2841 304.148 27.4432 304.633 27.4432ZM310.957 29V17.3636H318.525V19.1307H313.065V22.2898H318.133V24.0568H313.065V27.233H318.571V29H310.957ZM320.516 29V17.3636H327.97V19.1307H322.624V22.2898H327.459V24.0568H322.624V29H320.516Z" fill="white"/>
<path d="M500.443 29L502.352 17.3636H503.943L502.034 29H500.443ZM495.199 26L495.466 24.4091H504.42L504.153 26H495.199ZM496.352 29L498.261 17.3636H499.852L497.943 29H496.352ZM495.875 21.9545L496.136 20.3636H505.091L504.83 21.9545H495.875ZM510.432 29.1591C509.876 29.1553 509.332 29.0587 508.802 28.8693C508.271 28.6761 507.794 28.3636 507.37 27.9318C506.946 27.4962 506.608 26.9186 506.358 26.1989C506.108 25.4754 505.985 24.5795 505.989 23.5114C505.989 22.5152 506.095 21.6269 506.307 20.8466C506.519 20.0663 506.824 19.4072 507.222 18.8693C507.62 18.3277 508.099 17.9148 508.66 17.6307C509.224 17.3466 509.855 17.2045 510.552 17.2045C511.283 17.2045 511.93 17.3485 512.495 17.6364C513.063 17.9242 513.521 18.3182 513.87 18.8182C514.218 19.3144 514.434 19.875 514.518 20.5H512.444C512.338 20.053 512.12 19.697 511.79 19.4318C511.465 19.1629 511.052 19.0284 510.552 19.0284C509.745 19.0284 509.124 19.3788 508.688 20.0795C508.256 20.7803 508.038 21.7424 508.035 22.9659H508.114C508.3 22.6326 508.54 22.3466 508.836 22.108C509.131 21.8693 509.465 21.6856 509.836 21.5568C510.211 21.4242 510.607 21.358 511.023 21.358C511.705 21.358 512.317 21.5208 512.858 21.8466C513.404 22.1723 513.836 22.6212 514.154 23.1932C514.472 23.7614 514.629 24.4129 514.626 25.1477C514.629 25.9129 514.455 26.6004 514.103 27.2102C513.751 27.8163 513.26 28.2936 512.631 28.642C512.002 28.9905 511.269 29.1629 510.432 29.1591ZM510.421 27.4545C510.834 27.4545 511.203 27.3542 511.529 27.1534C511.855 26.9527 512.112 26.6818 512.302 26.3409C512.491 26 512.584 25.6174 512.58 25.1932C512.584 24.7765 512.493 24.3996 512.307 24.0625C512.126 23.7254 511.874 23.4583 511.552 23.2614C511.23 23.0644 510.862 22.9659 510.449 22.9659C510.143 22.9659 509.857 23.0246 509.591 23.142C509.326 23.2595 509.095 23.4223 508.898 23.6307C508.701 23.8352 508.546 24.0739 508.432 24.3466C508.322 24.6155 508.266 24.9034 508.262 25.2102C508.266 25.6155 508.36 25.9886 508.546 26.3295C508.732 26.6705 508.987 26.9432 509.313 27.1477C509.639 27.3523 510.008 27.4545 510.421 27.4545ZM520.647 29.1591C520.091 29.1553 519.547 29.0587 519.017 28.8693C518.486 28.6761 518.009 28.3636 517.585 27.9318C517.161 27.4962 516.823 26.9186 516.573 26.1989C516.323 25.4754 516.2 24.5795 516.204 23.5114C516.204 22.5152 516.31 21.6269 516.522 20.8466C516.734 20.0663 517.039 19.4072 517.437 18.8693C517.835 18.3277 518.314 17.9148 518.875 17.6307C519.439 17.3466 520.07 17.2045 520.767 17.2045C521.498 17.2045 522.145 17.3485 522.71 17.6364C523.278 17.9242 523.736 18.3182 524.085 18.8182C524.433 19.3144 524.649 19.875 524.733 20.5H522.659C522.553 20.053 522.335 19.697 522.005 19.4318C521.68 19.1629 521.267 19.0284 520.767 19.0284C519.96 19.0284 519.339 19.3788 518.903 20.0795C518.471 20.7803 518.253 21.7424 518.25 22.9659H518.329C518.515 22.6326 518.755 22.3466 519.051 22.108C519.346 21.8693 519.68 21.6856 520.051 21.5568C520.426 21.4242 520.822 21.358 521.238 21.358C521.92 21.358 522.532 21.5208 523.073 21.8466C523.619 22.1723 524.051 22.6212 524.369 23.1932C524.687 23.7614 524.844 24.4129 524.841 25.1477C524.844 25.9129 524.67 26.6004 524.318 27.2102C523.966 27.8163 523.475 28.2936 522.846 28.642C522.217 28.9905 521.484 29.1629 520.647 29.1591ZM520.636 27.4545C521.049 27.4545 521.418 27.3542 521.744 27.1534C522.07 26.9527 522.327 26.6818 522.517 26.3409C522.706 26 522.799 25.6174 522.795 25.1932C522.799 24.7765 522.708 24.3996 522.522 24.0625C522.341 23.7254 522.089 23.4583 521.767 23.2614C521.445 23.0644 521.077 22.9659 520.664 22.9659C520.358 22.9659 520.072 23.0246 519.806 23.142C519.541 23.2595 519.31 23.4223 519.113 23.6307C518.916 23.8352 518.761 24.0739 518.647 24.3466C518.537 24.6155 518.481 24.9034 518.477 25.2102C518.481 25.6155 518.575 25.9886 518.761 26.3295C518.947 26.6705 519.202 26.9432 519.528 27.1477C519.854 27.3523 520.223 27.4545 520.636 27.4545ZM528.209 29H525.959L530.056 17.3636H532.658L536.76 29H534.51L531.402 19.75H531.311L528.209 29ZM528.283 24.4375H534.419V26.1307H528.283V24.4375ZM538.445 29L543.394 19.2045V19.125H537.65V17.3636H545.576V19.1648L540.633 29H538.445ZM547.363 29V17.3636H554.932V19.1307H549.471V22.2898H554.539V24.0568H549.471V27.233H554.977V29H547.363ZM556.922 29V17.3636H564.49V19.1307H559.03V22.2898H564.098V24.0568H559.03V27.233H564.536V29H556.922Z" fill="white"/>
<path d="M737.443 29L739.352 17.3636H740.943L739.034 29H737.443ZM732.199 26L732.466 24.4091H741.42L741.153 26H732.199ZM733.352 29L735.261 17.3636H736.852L734.943 29H733.352ZM732.875 21.9545L733.136 20.3636H742.091L741.83 21.9545H732.875ZM747.347 29.1591C746.529 29.1591 745.802 29.0189 745.165 28.7386C744.533 28.4583 744.033 28.0682 743.665 27.5682C743.298 27.0682 743.103 26.4905 743.08 25.8352H745.216C745.235 26.1496 745.34 26.4242 745.529 26.6591C745.718 26.8902 745.97 27.0701 746.285 27.1989C746.599 27.3277 746.951 27.392 747.341 27.392C747.758 27.392 748.127 27.3201 748.449 27.1761C748.771 27.0284 749.023 26.8239 749.205 26.5625C749.387 26.3011 749.476 26 749.472 25.6591C749.476 25.3068 749.385 24.9962 749.199 24.7273C749.014 24.4583 748.745 24.2481 748.393 24.0966C748.044 23.9451 747.624 23.8693 747.131 23.8693H746.103V22.2443H747.131C747.536 22.2443 747.891 22.1742 748.194 22.0341C748.501 21.8939 748.741 21.697 748.915 21.4432C749.09 21.1856 749.175 20.8883 749.171 20.5511C749.175 20.2216 749.101 19.9356 748.949 19.6932C748.802 19.447 748.591 19.2557 748.319 19.1193C748.05 18.983 747.733 18.9148 747.37 18.9148C747.014 18.9148 746.684 18.9792 746.381 19.108C746.078 19.2367 745.834 19.4205 745.648 19.6591C745.463 19.8939 745.364 20.1742 745.353 20.5H743.324C743.34 19.8485 743.527 19.2765 743.887 18.7841C744.251 18.2879 744.735 17.9015 745.341 17.625C745.947 17.3447 746.627 17.2045 747.381 17.2045C748.158 17.2045 748.832 17.3504 749.404 17.642C749.98 17.9299 750.425 18.3182 750.739 18.8068C751.054 19.2955 751.211 19.8352 751.211 20.4261C751.215 21.0814 751.021 21.6307 750.631 22.0739C750.245 22.517 749.737 22.8068 749.108 22.9432V23.0341C749.927 23.1477 750.554 23.4508 750.989 23.9432C751.429 24.4318 751.646 25.0398 751.643 25.767C751.643 26.4186 751.457 27.0019 751.086 27.517C750.718 28.0284 750.211 28.4299 749.563 28.7216C748.919 29.0133 748.18 29.1591 747.347 29.1591ZM757.609 29.1591C756.791 29.1591 756.064 29.0189 755.427 28.7386C754.795 28.4583 754.295 28.0682 753.927 27.5682C753.56 27.0682 753.365 26.4905 753.342 25.8352H755.478C755.497 26.1496 755.601 26.4242 755.791 26.6591C755.98 26.8902 756.232 27.0701 756.546 27.1989C756.861 27.3277 757.213 27.392 757.603 27.392C758.02 27.392 758.389 27.3201 758.711 27.1761C759.033 27.0284 759.285 26.8239 759.467 26.5625C759.649 26.3011 759.738 26 759.734 25.6591C759.738 25.3068 759.647 24.9962 759.461 24.7273C759.276 24.4583 759.007 24.2481 758.654 24.0966C758.306 23.9451 757.885 23.8693 757.393 23.8693H756.365V22.2443H757.393C757.798 22.2443 758.153 22.1742 758.456 22.0341C758.762 21.8939 759.003 21.697 759.177 21.4432C759.351 21.1856 759.437 20.8883 759.433 20.5511C759.437 20.2216 759.363 19.9356 759.211 19.6932C759.064 19.447 758.853 19.2557 758.581 19.1193C758.312 18.983 757.995 18.9148 757.632 18.9148C757.276 18.9148 756.946 18.9792 756.643 19.108C756.34 19.2367 756.096 19.4205 755.91 19.6591C755.725 19.8939 755.626 20.1742 755.615 20.5H753.586C753.601 19.8485 753.789 19.2765 754.149 18.7841C754.512 18.2879 754.997 17.9015 755.603 17.625C756.209 17.3447 756.889 17.2045 757.643 17.2045C758.42 17.2045 759.094 17.3504 759.666 17.642C760.242 17.9299 760.687 18.3182 761.001 18.8068C761.315 19.2955 761.473 19.8352 761.473 20.4261C761.476 21.0814 761.283 21.6307 760.893 22.0739C760.507 22.517 759.999 22.8068 759.37 22.9432V23.0341C760.189 23.1477 760.815 23.4508 761.251 23.9432C761.69 24.4318 761.908 25.0398 761.904 25.767C761.904 26.4186 761.719 27.0019 761.348 27.517C760.98 28.0284 760.473 28.4299 759.825 28.7216C759.181 29.0133 758.442 29.1591 757.609 29.1591ZM767.956 29.1591C767.399 29.1553 766.856 29.0587 766.325 28.8693C765.795 28.6761 765.318 28.3636 764.894 27.9318C764.469 27.4962 764.132 26.9186 763.882 26.1989C763.632 25.4754 763.509 24.5795 763.513 23.5114C763.513 22.5152 763.619 21.6269 763.831 20.8466C764.043 20.0663 764.348 19.4072 764.746 18.8693C765.144 18.3277 765.623 17.9148 766.183 17.6307C766.748 17.3466 767.378 17.2045 768.075 17.2045C768.806 17.2045 769.454 17.3485 770.019 17.6364C770.587 17.9242 771.045 18.3182 771.394 18.8182C771.742 19.3144 771.958 19.875 772.041 20.5H769.967C769.861 20.053 769.644 19.697 769.314 19.4318C768.988 19.1629 768.575 19.0284 768.075 19.0284C767.269 19.0284 766.647 19.3788 766.212 20.0795C765.78 20.7803 765.562 21.7424 765.558 22.9659H765.638C765.824 22.6326 766.064 22.3466 766.359 22.108C766.655 21.8693 766.988 21.6856 767.359 21.5568C767.734 21.4242 768.13 21.358 768.547 21.358C769.229 21.358 769.841 21.5208 770.382 21.8466C770.928 22.1723 771.359 22.6212 771.678 23.1932C771.996 23.7614 772.153 24.4129 772.149 25.1477C772.153 25.9129 771.979 26.6004 771.627 27.2102C771.274 27.8163 770.784 28.2936 770.155 28.642C769.526 28.9905 768.793 29.1629 767.956 29.1591ZM767.945 27.4545C768.358 27.4545 768.727 27.3542 769.053 27.1534C769.378 26.9527 769.636 26.6818 769.825 26.3409C770.015 26 770.108 25.6174 770.104 25.1932C770.108 24.7765 770.017 24.3996 769.831 24.0625C769.649 23.7254 769.397 23.4583 769.075 23.2614C768.753 23.0644 768.386 22.9659 767.973 22.9659C767.666 22.9659 767.38 23.0246 767.115 23.142C766.85 23.2595 766.619 23.4223 766.422 23.6307C766.225 23.8352 766.07 24.0739 765.956 24.3466C765.846 24.6155 765.789 24.9034 765.786 25.2102C765.789 25.6155 765.884 25.9886 766.07 26.3295C766.255 26.6705 766.511 26.9432 766.837 27.1477C767.163 27.3523 767.532 27.4545 767.945 27.4545ZM778.211 29.2216C777.275 29.2216 776.472 28.9848 775.802 28.5114C775.135 28.0341 774.622 27.3466 774.262 26.4489C773.906 25.5473 773.728 24.4621 773.728 23.1932C773.732 21.9242 773.912 20.8447 774.268 19.9545C774.628 19.0606 775.141 18.3788 775.807 17.9091C776.478 17.4394 777.279 17.2045 778.211 17.2045C779.143 17.2045 779.944 17.4394 780.614 17.9091C781.285 18.3788 781.798 19.0606 782.154 19.9545C782.514 20.8485 782.694 21.928 782.694 23.1932C782.694 24.4659 782.514 25.553 782.154 26.4545C781.798 27.3523 781.285 28.0379 780.614 28.5114C779.948 28.9848 779.146 29.2216 778.211 29.2216ZM778.211 27.4432C778.938 27.4432 779.512 27.0852 779.932 26.3693C780.357 25.6496 780.569 24.5909 780.569 23.1932C780.569 22.2689 780.472 21.4924 780.279 20.8636C780.086 20.2348 779.813 19.7614 779.461 19.4432C779.109 19.1212 778.692 18.9602 778.211 18.9602C777.487 18.9602 776.915 19.3201 776.495 20.0398C776.074 20.7557 775.862 21.8068 775.859 23.1932C775.855 24.1212 775.948 24.9015 776.137 25.5341C776.33 26.1667 776.603 26.6439 776.955 26.9659C777.307 27.2841 777.726 27.4432 778.211 27.4432ZM794.495 21.2898H792.37C792.31 20.9413 792.198 20.6326 792.035 20.3636C791.872 20.0909 791.67 19.8598 791.427 19.6705C791.185 19.4811 790.908 19.339 790.598 19.2443C790.291 19.1458 789.959 19.0966 789.603 19.0966C788.971 19.0966 788.41 19.2557 787.922 19.5739C787.433 19.8883 787.05 20.3504 786.774 20.9602C786.497 21.5663 786.359 22.3068 786.359 23.1818C786.359 24.072 786.497 24.822 786.774 25.4318C787.054 26.0379 787.437 26.4962 787.922 26.8068C788.41 27.1136 788.969 27.267 789.598 27.267C789.946 27.267 790.272 27.2216 790.575 27.1307C790.882 27.036 791.156 26.8977 791.399 26.7159C791.645 26.5341 791.852 26.3106 792.018 26.0455C792.189 25.7803 792.306 25.4773 792.37 25.1364L794.495 25.1477C794.416 25.7008 794.244 26.2197 793.978 26.7045C793.717 27.1894 793.374 27.6174 792.95 27.9886C792.526 28.3561 792.03 28.6439 791.461 28.8523C790.893 29.0568 790.263 29.1591 789.569 29.1591C788.547 29.1591 787.634 28.9223 786.831 28.4489C786.028 27.9754 785.395 27.2917 784.933 26.3977C784.471 25.5038 784.24 24.4318 784.24 23.1818C784.24 21.928 784.473 20.8561 784.939 19.9659C785.405 19.072 786.039 18.3883 786.842 17.9148C787.645 17.4413 788.554 17.2045 789.569 17.2045C790.217 17.2045 790.819 17.2955 791.376 17.4773C791.933 17.6591 792.429 17.9261 792.865 18.2784C793.3 18.6269 793.658 19.0549 793.939 19.5625C794.223 20.0663 794.408 20.642 794.495 21.2898ZM800.198 29.1591C799.44 29.1591 798.762 29.017 798.164 28.733C797.565 28.4451 797.09 28.0511 796.737 27.5511C796.389 27.0511 796.203 26.4792 796.181 25.8352H798.226C798.264 26.3125 798.47 26.7027 798.845 27.0057C799.22 27.3049 799.671 27.4545 800.198 27.4545C800.611 27.4545 800.978 27.3598 801.3 27.1705C801.622 26.9811 801.876 26.7178 802.061 26.3807C802.247 26.0436 802.338 25.6591 802.334 25.2273C802.338 24.7879 802.245 24.3977 802.056 24.0568C801.866 23.7159 801.607 23.4489 801.277 23.2557C800.948 23.0587 800.569 22.9602 800.141 22.9602C799.792 22.9564 799.45 23.0208 799.112 23.1534C798.775 23.286 798.508 23.4602 798.311 23.6761L796.408 23.3636L797.016 17.3636H803.766V19.125H798.76L798.425 22.2102H798.493C798.709 21.9564 799.014 21.7462 799.408 21.5795C799.802 21.4091 800.234 21.3239 800.703 21.3239C801.408 21.3239 802.037 21.4905 802.59 21.8239C803.143 22.1534 803.578 22.608 803.897 23.1875C804.215 23.767 804.374 24.4299 804.374 25.1761C804.374 25.9451 804.196 26.6307 803.84 27.233C803.487 27.8314 802.997 28.303 802.368 28.6477C801.743 28.9886 801.02 29.1591 800.198 29.1591Z" fill="white"/>
<path d="M974.443 29L976.352 17.3636H977.943L976.034 29H974.443ZM969.199 26L969.466 24.4091H978.42L978.153 26H969.199ZM970.352 29L972.261 17.3636H973.852L971.943 29H970.352ZM969.875 21.9545L970.136 20.3636H979.091L978.83 21.9545H969.875ZM980.171 29V27.4773L984.211 23.517C984.597 23.1269 984.919 22.7803 985.177 22.4773C985.434 22.1742 985.627 21.8807 985.756 21.5966C985.885 21.3125 985.949 21.0095 985.949 20.6875C985.949 20.3201 985.866 20.0057 985.699 19.7443C985.533 19.4792 985.304 19.2746 985.012 19.1307C984.72 18.9867 984.389 18.9148 984.018 18.9148C983.635 18.9148 983.3 18.9943 983.012 19.1534C982.724 19.3087 982.501 19.5303 982.341 19.8182C982.186 20.1061 982.108 20.4489 982.108 20.8466H980.103C980.103 20.108 980.271 19.4659 980.608 18.9205C980.946 18.375 981.41 17.9527 982.001 17.6534C982.595 17.3542 983.277 17.2045 984.046 17.2045C984.826 17.2045 985.512 17.3504 986.103 17.642C986.694 17.9337 987.152 18.3333 987.478 18.8409C987.807 19.3485 987.972 19.928 987.972 20.5795C987.972 21.0152 987.889 21.4432 987.722 21.8636C987.555 22.2841 987.262 22.75 986.841 23.2614C986.425 23.7727 985.84 24.392 985.086 25.1193L983.08 27.1591V27.2386H988.148V29H980.171ZM994.681 17.3636V29H992.573V19.4148H992.505L989.784 21.1534V19.2216L992.676 17.3636H994.681ZM1001.65 29.1591C1000.83 29.1591 1000.11 29.0189 999.47 28.7386C998.838 28.4583 998.338 28.0682 997.97 27.5682C997.603 27.0682 997.408 26.4905 997.385 25.8352H999.521C999.54 26.1496 999.645 26.4242 999.834 26.6591C1000.02 26.8902 1000.28 27.0701 1000.59 27.1989C1000.9 27.3277 1001.26 27.392 1001.65 27.392C1002.06 27.392 1002.43 27.3201 1002.75 27.1761C1003.08 27.0284 1003.33 26.8239 1003.51 26.5625C1003.69 26.3011 1003.78 26 1003.78 25.6591C1003.78 25.3068 1003.69 24.9962 1003.5 24.7273C1003.32 24.4583 1003.05 24.2481 1002.7 24.0966C1002.35 23.9451 1001.93 23.8693 1001.44 23.8693H1000.41V22.2443H1001.44C1001.84 22.2443 1002.2 22.1742 1002.5 22.0341C1002.81 21.8939 1003.05 21.697 1003.22 21.4432C1003.39 21.1856 1003.48 20.8883 1003.48 20.5511C1003.48 20.2216 1003.41 19.9356 1003.25 19.6932C1003.11 19.447 1002.9 19.2557 1002.62 19.1193C1002.35 18.983 1002.04 18.9148 1001.67 18.9148C1001.32 18.9148 1000.99 18.9792 1000.69 19.108C1000.38 19.2367 1000.14 19.4205 999.953 19.6591C999.768 19.8939 999.669 20.1742 999.658 20.5H997.629C997.645 19.8485 997.832 19.2765 998.192 18.7841C998.556 18.2879 999.04 17.9015 999.646 17.625C1000.25 17.3447 1000.93 17.2045 1001.69 17.2045C1002.46 17.2045 1003.14 17.3504 1003.71 17.642C1004.28 17.9299 1004.73 18.3182 1005.04 18.8068C1005.36 19.2955 1005.52 19.8352 1005.52 20.4261C1005.52 21.0814 1005.33 21.6307 1004.94 22.0739C1004.55 22.517 1004.04 22.8068 1003.41 22.9432V23.0341C1004.23 23.1477 1004.86 23.4508 1005.29 23.9432C1005.73 24.4318 1005.95 25.0398 1005.95 25.767C1005.95 26.4186 1005.76 27.0019 1005.39 27.517C1005.02 28.0284 1004.52 28.4299 1003.87 28.7216C1003.22 29.0133 1002.49 29.1591 1001.65 29.1591ZM1011.78 17.2045C1012.33 17.2083 1012.88 17.3068 1013.4 17.5C1013.93 17.6894 1014.41 18 1014.83 18.4318C1015.26 18.8598 1015.6 19.4337 1015.85 20.1534C1016.1 20.8731 1016.22 21.7633 1016.22 22.8239C1016.22 23.8239 1016.12 24.7178 1015.9 25.5057C1015.69 26.2898 1015.39 26.9527 1014.99 27.4943C1014.59 28.036 1014.11 28.4489 1013.55 28.733C1012.99 29.017 1012.36 29.1591 1011.66 29.1591C1010.92 29.1591 1010.27 29.0152 1009.7 28.7273C1009.14 28.4394 1008.68 28.0455 1008.33 27.5455C1007.99 27.0455 1007.77 26.4735 1007.69 25.8295H1009.77C1009.87 26.2917 1010.09 26.6591 1010.41 26.9318C1010.74 27.2008 1011.16 27.3352 1011.66 27.3352C1012.47 27.3352 1013.09 26.9848 1013.52 26.2841C1013.96 25.5833 1014.18 24.6098 1014.18 23.3636H1014.1C1013.91 23.697 1013.67 23.9848 1013.37 24.2273C1013.08 24.4659 1012.74 24.6496 1012.37 24.7784C1012 24.9072 1011.6 24.9716 1011.19 24.9716C1010.5 24.9716 1009.89 24.8087 1009.35 24.483C1008.8 24.1572 1008.37 23.7102 1008.06 23.142C1007.74 22.5739 1007.58 21.9242 1007.58 21.1932C1007.58 20.4356 1007.75 19.7557 1008.1 19.1534C1008.45 18.5473 1008.94 18.0701 1009.57 17.7216C1010.2 17.3693 1010.94 17.197 1011.78 17.2045ZM1011.78 18.9091C1011.37 18.9091 1011 19.0095 1010.68 19.2102C1010.35 19.4072 1010.09 19.6761 1009.9 20.017C1009.72 20.3542 1009.62 20.7311 1009.62 21.1477C1009.63 21.5606 1009.72 21.9356 1009.9 22.2727C1010.09 22.6098 1010.34 22.8769 1010.66 23.0739C1010.98 23.2708 1011.35 23.3693 1011.76 23.3693C1012.07 23.3693 1012.35 23.3106 1012.62 23.1932C1012.88 23.0758 1013.11 22.9129 1013.31 22.7045C1013.51 22.4924 1013.67 22.2519 1013.78 21.983C1013.89 21.714 1013.95 21.4299 1013.94 21.1307C1013.94 20.733 1013.85 20.3655 1013.66 20.0284C1013.47 19.6913 1013.22 19.4205 1012.89 19.2159C1012.57 19.0114 1012.2 18.9091 1011.78 18.9091ZM1021.99 17.2045C1022.55 17.2083 1023.09 17.3068 1023.62 17.5C1024.15 17.6894 1024.63 18 1025.05 18.4318C1025.47 18.8598 1025.81 19.4337 1026.06 20.1534C1026.31 20.8731 1026.44 21.7633 1026.44 22.8239C1026.44 23.8239 1026.33 24.7178 1026.12 25.5057C1025.91 26.2898 1025.6 26.9527 1025.2 27.4943C1024.81 28.036 1024.33 28.4489 1023.77 28.733C1023.2 29.017 1022.57 29.1591 1021.87 29.1591C1021.14 29.1591 1020.49 29.0152 1019.92 28.7273C1019.35 28.4394 1018.9 28.0455 1018.55 27.5455C1018.2 27.0455 1017.99 26.4735 1017.91 25.8295H1019.98C1020.09 26.2917 1020.3 26.6591 1020.63 26.9318C1020.96 27.2008 1021.37 27.3352 1021.87 27.3352C1022.68 27.3352 1023.3 26.9848 1023.74 26.2841C1024.17 25.5833 1024.39 24.6098 1024.39 23.3636H1024.31C1024.13 23.697 1023.88 23.9848 1023.59 24.2273C1023.29 24.4659 1022.96 24.6496 1022.58 24.7784C1022.21 24.9072 1021.82 24.9716 1021.4 24.9716C1020.72 24.9716 1020.11 24.8087 1019.56 24.483C1019.02 24.1572 1018.59 23.7102 1018.27 23.142C1017.96 22.5739 1017.8 21.9242 1017.79 21.1932C1017.79 20.4356 1017.97 19.7557 1018.32 19.1534C1018.67 18.5473 1019.16 18.0701 1019.79 17.7216C1020.42 17.3693 1021.15 17.197 1021.99 17.2045ZM1022 18.9091C1021.59 18.9091 1021.22 19.0095 1020.89 19.2102C1020.56 19.4072 1020.31 19.6761 1020.12 20.017C1019.93 20.3542 1019.84 20.7311 1019.84 21.1477C1019.84 21.5606 1019.94 21.9356 1020.12 22.2727C1020.3 22.6098 1020.56 22.8769 1020.87 23.0739C1021.2 23.2708 1021.56 23.3693 1021.98 23.3693C1022.28 23.3693 1022.57 23.3106 1022.83 23.1932C1023.1 23.0758 1023.33 22.9129 1023.53 22.7045C1023.73 22.4924 1023.88 22.2519 1023.99 21.983C1024.11 21.714 1024.16 21.4299 1024.16 21.1307C1024.16 20.733 1024.06 20.3655 1023.87 20.0284C1023.69 19.6913 1023.43 19.4205 1023.11 19.2159C1022.78 19.0114 1022.41 18.9091 1022 18.9091ZM1038.24 21.2898H1036.12C1036.06 20.9413 1035.94 20.6326 1035.78 20.3636C1035.62 20.0909 1035.42 19.8598 1035.17 19.6705C1034.93 19.4811 1034.65 19.339 1034.34 19.2443C1034.04 19.1458 1033.71 19.0966 1033.35 19.0966C1032.72 19.0966 1032.16 19.2557 1031.67 19.5739C1031.18 19.8883 1030.8 20.3504 1030.52 20.9602C1030.24 21.5663 1030.11 22.3068 1030.11 23.1818C1030.11 24.072 1030.24 24.822 1030.52 25.4318C1030.8 26.0379 1031.18 26.4962 1031.67 26.8068C1032.16 27.1136 1032.72 27.267 1033.34 27.267C1033.69 27.267 1034.02 27.2216 1034.32 27.1307C1034.63 27.036 1034.9 26.8977 1035.15 26.7159C1035.39 26.5341 1035.6 26.3106 1035.76 26.0455C1035.93 25.7803 1036.05 25.4773 1036.12 25.1364L1038.24 25.1477C1038.16 25.7008 1037.99 26.2197 1037.72 26.7045C1037.46 27.1894 1037.12 27.6174 1036.7 27.9886C1036.27 28.3561 1035.78 28.6439 1035.21 28.8523C1034.64 29.0568 1034.01 29.1591 1033.32 29.1591C1032.29 29.1591 1031.38 28.9223 1030.58 28.4489C1029.77 27.9754 1029.14 27.2917 1028.68 26.3977C1028.22 25.5038 1027.99 24.4318 1027.99 23.1818C1027.99 21.928 1028.22 20.8561 1028.68 19.9659C1029.15 19.072 1029.79 18.3883 1030.59 17.9148C1031.39 17.4413 1032.3 17.2045 1033.32 17.2045C1033.96 17.2045 1034.57 17.2955 1035.12 17.4773C1035.68 17.6591 1036.18 17.9261 1036.61 18.2784C1037.05 18.6269 1037.4 19.0549 1037.68 19.5625C1037.97 20.0663 1038.15 20.642 1038.24 21.2898Z" fill="white"/>
<path d="M1211.44 29L1213.35 17.3636H1214.94L1213.03 29H1211.44ZM1206.2 26L1206.47 24.4091H1215.42L1215.15 26H1206.2ZM1207.35 29L1209.26 17.3636H1210.85L1208.94 29H1207.35ZM1206.88 21.9545L1207.14 20.3636H1216.09L1215.83 21.9545H1206.88ZM1221.35 29.1591C1220.53 29.1591 1219.8 29.0189 1219.17 28.7386C1218.53 28.4583 1218.03 28.0682 1217.67 27.5682C1217.3 27.0682 1217.1 26.4905 1217.08 25.8352H1219.22C1219.24 26.1496 1219.34 26.4242 1219.53 26.6591C1219.72 26.8902 1219.97 27.0701 1220.28 27.1989C1220.6 27.3277 1220.95 27.392 1221.34 27.392C1221.76 27.392 1222.13 27.3201 1222.45 27.1761C1222.77 27.0284 1223.02 26.8239 1223.21 26.5625C1223.39 26.3011 1223.48 26 1223.47 25.6591C1223.48 25.3068 1223.38 24.9962 1223.2 24.7273C1223.01 24.4583 1222.74 24.2481 1222.39 24.0966C1222.04 23.9451 1221.62 23.8693 1221.13 23.8693H1220.1V22.2443H1221.13C1221.54 22.2443 1221.89 22.1742 1222.19 22.0341C1222.5 21.8939 1222.74 21.697 1222.92 21.4432C1223.09 21.1856 1223.17 20.8883 1223.17 20.5511C1223.17 20.2216 1223.1 19.9356 1222.95 19.6932C1222.8 19.447 1222.59 19.2557 1222.32 19.1193C1222.05 18.983 1221.73 18.9148 1221.37 18.9148C1221.01 18.9148 1220.68 18.9792 1220.38 19.108C1220.08 19.2367 1219.83 19.4205 1219.65 19.6591C1219.46 19.8939 1219.36 20.1742 1219.35 20.5H1217.32C1217.34 19.8485 1217.53 19.2765 1217.89 18.7841C1218.25 18.2879 1218.74 17.9015 1219.34 17.625C1219.95 17.3447 1220.63 17.2045 1221.38 17.2045C1222.16 17.2045 1222.83 17.3504 1223.4 17.642C1223.98 17.9299 1224.42 18.3182 1224.74 18.8068C1225.05 19.2955 1225.21 19.8352 1225.21 20.4261C1225.21 21.0814 1225.02 21.6307 1224.63 22.0739C1224.24 22.517 1223.74 22.8068 1223.11 22.9432V23.0341C1223.93 23.1477 1224.55 23.4508 1224.99 23.9432C1225.43 24.4318 1225.65 25.0398 1225.64 25.767C1225.64 26.4186 1225.46 27.0019 1225.09 27.517C1224.72 28.0284 1224.21 28.4299 1223.56 28.7216C1222.92 29.0133 1222.18 29.1591 1221.35 29.1591ZM1231.69 29.1591C1231.14 29.1553 1230.59 29.0587 1230.06 28.8693C1229.53 28.6761 1229.06 28.3636 1228.63 27.9318C1228.21 27.4962 1227.87 26.9186 1227.62 26.1989C1227.37 25.4754 1227.25 24.5795 1227.25 23.5114C1227.25 22.5152 1227.36 21.6269 1227.57 20.8466C1227.78 20.0663 1228.09 19.4072 1228.48 18.8693C1228.88 18.3277 1229.36 17.9148 1229.92 17.6307C1230.49 17.3466 1231.12 17.2045 1231.81 17.2045C1232.54 17.2045 1233.19 17.3485 1233.76 17.6364C1234.32 17.9242 1234.78 18.3182 1235.13 18.8182C1235.48 19.3144 1235.7 19.875 1235.78 20.5H1233.71C1233.6 20.053 1233.38 19.697 1233.05 19.4318C1232.73 19.1629 1232.31 19.0284 1231.81 19.0284C1231.01 19.0284 1230.39 19.3788 1229.95 20.0795C1229.52 20.7803 1229.3 21.7424 1229.3 22.9659H1229.38C1229.56 22.6326 1229.8 22.3466 1230.1 22.108C1230.39 21.8693 1230.73 21.6856 1231.1 21.5568C1231.47 21.4242 1231.87 21.358 1232.29 21.358C1232.97 21.358 1233.58 21.5208 1234.12 21.8466C1234.67 22.1723 1235.1 22.6212 1235.42 23.1932C1235.73 23.7614 1235.89 24.4129 1235.89 25.1477C1235.89 25.9129 1235.72 26.6004 1235.36 27.2102C1235.01 27.8163 1234.52 28.2936 1233.89 28.642C1233.26 28.9905 1232.53 29.1629 1231.69 29.1591ZM1231.68 27.4545C1232.1 27.4545 1232.47 27.3542 1232.79 27.1534C1233.12 26.9527 1233.37 26.6818 1233.56 26.3409C1233.75 26 1233.85 25.6174 1233.84 25.1932C1233.85 24.7765 1233.75 24.3996 1233.57 24.0625C1233.39 23.7254 1233.14 23.4583 1232.81 23.2614C1232.49 23.0644 1232.12 22.9659 1231.71 22.9659C1231.4 22.9659 1231.12 23.0246 1230.85 23.142C1230.59 23.2595 1230.36 23.4223 1230.16 23.6307C1229.96 23.8352 1229.81 24.0739 1229.69 24.3466C1229.58 24.6155 1229.53 24.9034 1229.52 25.2102C1229.53 25.6155 1229.62 25.9886 1229.81 26.3295C1229.99 26.6705 1230.25 26.9432 1230.57 27.1477C1230.9 27.3523 1231.27 27.4545 1231.68 27.4545ZM1241.82 29.1591C1241.01 29.1591 1240.28 29.0189 1239.64 28.7386C1239.01 28.4583 1238.51 28.0682 1238.14 27.5682C1237.77 27.0682 1237.58 26.4905 1237.56 25.8352H1239.69C1239.71 26.1496 1239.82 26.4242 1240.01 26.6591C1240.2 26.8902 1240.45 27.0701 1240.76 27.1989C1241.08 27.3277 1241.43 27.392 1241.82 27.392C1242.23 27.392 1242.6 27.3201 1242.93 27.1761C1243.25 27.0284 1243.5 26.8239 1243.68 26.5625C1243.86 26.3011 1243.95 26 1243.95 25.6591C1243.95 25.3068 1243.86 24.9962 1243.68 24.7273C1243.49 24.4583 1243.22 24.2481 1242.87 24.0966C1242.52 23.9451 1242.1 23.8693 1241.61 23.8693H1240.58V22.2443H1241.61C1242.01 22.2443 1242.37 22.1742 1242.67 22.0341C1242.98 21.8939 1243.22 21.697 1243.39 21.4432C1243.57 21.1856 1243.65 20.8883 1243.65 20.5511C1243.65 20.2216 1243.58 19.9356 1243.43 19.6932C1243.28 19.447 1243.07 19.2557 1242.8 19.1193C1242.53 18.983 1242.21 18.9148 1241.85 18.9148C1241.49 18.9148 1241.16 18.9792 1240.86 19.108C1240.56 19.2367 1240.31 19.4205 1240.13 19.6591C1239.94 19.8939 1239.84 20.1742 1239.83 20.5H1237.8C1237.82 19.8485 1238 19.2765 1238.36 18.7841C1238.73 18.2879 1239.21 17.9015 1239.82 17.625C1240.42 17.3447 1241.1 17.2045 1241.86 17.2045C1242.63 17.2045 1243.31 17.3504 1243.88 17.642C1244.46 17.9299 1244.9 18.3182 1245.22 18.8068C1245.53 19.2955 1245.69 19.8352 1245.69 20.4261C1245.69 21.0814 1245.5 21.6307 1245.11 22.0739C1244.72 22.517 1244.21 22.8068 1243.59 22.9432V23.0341C1244.4 23.1477 1245.03 23.4508 1245.47 23.9432C1245.91 24.4318 1246.12 25.0398 1246.12 25.767C1246.12 26.4186 1245.93 27.0019 1245.56 27.517C1245.2 28.0284 1244.69 28.4299 1244.04 28.7216C1243.4 29.0133 1242.66 29.1591 1241.82 29.1591ZM1252.17 29.1591C1251.61 29.1553 1251.07 29.0587 1250.54 28.8693C1250.01 28.6761 1249.53 28.3636 1249.11 27.9318C1248.68 27.4962 1248.35 26.9186 1248.1 26.1989C1247.85 25.4754 1247.72 24.5795 1247.73 23.5114C1247.73 22.5152 1247.83 21.6269 1248.05 20.8466C1248.26 20.0663 1248.56 19.4072 1248.96 18.8693C1249.36 18.3277 1249.84 17.9148 1250.4 17.6307C1250.96 17.3466 1251.59 17.2045 1252.29 17.2045C1253.02 17.2045 1253.67 17.3485 1254.23 17.6364C1254.8 17.9242 1255.26 18.3182 1255.61 18.8182C1255.96 19.3144 1256.17 19.875 1256.26 20.5H1254.18C1254.08 20.053 1253.86 19.697 1253.53 19.4318C1253.2 19.1629 1252.79 19.0284 1252.29 19.0284C1251.48 19.0284 1250.86 19.3788 1250.43 20.0795C1249.99 20.7803 1249.78 21.7424 1249.77 22.9659H1249.85C1250.04 22.6326 1250.28 22.3466 1250.57 22.108C1250.87 21.8693 1251.2 21.6856 1251.57 21.5568C1251.95 21.4242 1252.35 21.358 1252.76 21.358C1253.44 21.358 1254.06 21.5208 1254.6 21.8466C1255.14 22.1723 1255.57 22.6212 1255.89 23.1932C1256.21 23.7614 1256.37 24.4129 1256.36 25.1477C1256.37 25.9129 1256.19 26.6004 1255.84 27.2102C1255.49 27.8163 1255 28.2936 1254.37 28.642C1253.74 28.9905 1253.01 29.1629 1252.17 29.1591ZM1252.16 27.4545C1252.57 27.4545 1252.94 27.3542 1253.27 27.1534C1253.59 26.9527 1253.85 26.6818 1254.04 26.3409C1254.23 26 1254.32 25.6174 1254.32 25.1932C1254.32 24.7765 1254.23 24.3996 1254.05 24.0625C1253.86 23.7254 1253.61 23.4583 1253.29 23.2614C1252.97 23.0644 1252.6 22.9659 1252.19 22.9659C1251.88 22.9659 1251.6 23.0246 1251.33 23.142C1251.07 23.2595 1250.83 23.4223 1250.64 23.6307C1250.44 23.8352 1250.28 24.0739 1250.17 24.3466C1250.06 24.6155 1250 24.9034 1250 25.2102C1250 25.6155 1250.1 25.9886 1250.28 26.3295C1250.47 26.6705 1250.73 26.9432 1251.05 27.1477C1251.38 27.3523 1251.75 27.4545 1252.16 27.4545ZM1262.3 29.1591C1261.48 29.1591 1260.76 29.0189 1260.12 28.7386C1259.49 28.4583 1258.99 28.0682 1258.62 27.5682C1258.25 27.0682 1258.06 26.4905 1258.03 25.8352H1260.17C1260.19 26.1496 1260.29 26.4242 1260.48 26.6591C1260.67 26.8902 1260.92 27.0701 1261.24 27.1989C1261.55 27.3277 1261.91 27.392 1262.3 27.392C1262.71 27.392 1263.08 27.3201 1263.4 27.1761C1263.73 27.0284 1263.98 26.8239 1264.16 26.5625C1264.34 26.3011 1264.43 26 1264.43 25.6591C1264.43 25.3068 1264.34 24.9962 1264.15 24.7273C1263.97 24.4583 1263.7 24.2481 1263.35 24.0966C1263 23.9451 1262.58 23.8693 1262.08 23.8693H1261.06V22.2443H1262.08C1262.49 22.2443 1262.84 22.1742 1263.15 22.0341C1263.45 21.8939 1263.69 21.697 1263.87 21.4432C1264.04 21.1856 1264.13 20.8883 1264.12 20.5511C1264.13 20.2216 1264.05 19.9356 1263.9 19.6932C1263.76 19.447 1263.55 19.2557 1263.27 19.1193C1263 18.983 1262.69 18.9148 1262.32 18.9148C1261.97 18.9148 1261.64 18.9792 1261.33 19.108C1261.03 19.2367 1260.79 19.4205 1260.6 19.6591C1260.42 19.8939 1260.32 20.1742 1260.31 20.5H1258.28C1258.29 19.8485 1258.48 19.2765 1258.84 18.7841C1259.2 18.2879 1259.69 17.9015 1260.3 17.625C1260.9 17.3447 1261.58 17.2045 1262.33 17.2045C1263.11 17.2045 1263.79 17.3504 1264.36 17.642C1264.93 17.9299 1265.38 18.3182 1265.69 18.8068C1266.01 19.2955 1266.16 19.8352 1266.16 20.4261C1266.17 21.0814 1265.98 21.6307 1265.58 22.0739C1265.2 22.517 1264.69 22.8068 1264.06 22.9432V23.0341C1264.88 23.1477 1265.51 23.4508 1265.94 23.9432C1266.38 24.4318 1266.6 25.0398 1266.6 25.767C1266.6 26.4186 1266.41 27.0019 1266.04 27.517C1265.67 28.0284 1265.16 28.4299 1264.52 28.7216C1263.87 29.0133 1263.13 29.1591 1262.3 29.1591ZM1272.65 29.1591C1272.09 29.1553 1271.55 29.0587 1271.02 28.8693C1270.49 28.6761 1270.01 28.3636 1269.59 27.9318C1269.16 27.4962 1268.82 26.9186 1268.57 26.1989C1268.32 25.4754 1268.2 24.5795 1268.2 23.5114C1268.2 22.5152 1268.31 21.6269 1268.52 20.8466C1268.74 20.0663 1269.04 19.4072 1269.44 18.8693C1269.84 18.3277 1270.31 17.9148 1270.88 17.6307C1271.44 17.3466 1272.07 17.2045 1272.77 17.2045C1273.5 17.2045 1274.15 17.3485 1274.71 17.6364C1275.28 17.9242 1275.74 18.3182 1276.09 18.8182C1276.43 19.3144 1276.65 19.875 1276.73 20.5H1274.66C1274.55 20.053 1274.34 19.697 1274.01 19.4318C1273.68 19.1629 1273.27 19.0284 1272.77 19.0284C1271.96 19.0284 1271.34 19.3788 1270.9 20.0795C1270.47 20.7803 1270.25 21.7424 1270.25 22.9659H1270.33C1270.52 22.6326 1270.76 22.3466 1271.05 22.108C1271.35 21.8693 1271.68 21.6856 1272.05 21.5568C1272.43 21.4242 1272.82 21.358 1273.24 21.358C1273.92 21.358 1274.53 21.5208 1275.07 21.8466C1275.62 22.1723 1276.05 22.6212 1276.37 23.1932C1276.69 23.7614 1276.84 24.4129 1276.84 25.1477C1276.84 25.9129 1276.67 26.6004 1276.32 27.2102C1275.97 27.8163 1275.48 28.2936 1274.85 28.642C1274.22 28.9905 1273.49 29.1629 1272.65 29.1591ZM1272.64 27.4545C1273.05 27.4545 1273.42 27.3542 1273.74 27.1534C1274.07 26.9527 1274.33 26.6818 1274.52 26.3409C1274.71 26 1274.8 25.6174 1274.8 25.1932C1274.8 24.7765 1274.71 24.3996 1274.52 24.0625C1274.34 23.7254 1274.09 23.4583 1273.77 23.2614C1273.45 23.0644 1273.08 22.9659 1272.67 22.9659C1272.36 22.9659 1272.07 23.0246 1271.81 23.142C1271.54 23.2595 1271.31 23.4223 1271.11 23.6307C1270.92 23.8352 1270.76 24.0739 1270.65 24.3466C1270.54 24.6155 1270.48 24.9034 1270.48 25.2102C1270.48 25.6155 1270.58 25.9886 1270.76 26.3295C1270.95 26.6705 1271.2 26.9432 1271.53 27.1477C1271.85 27.3523 1272.22 27.4545 1272.64 27.4545Z" fill="white"/>
</g>
<defs>
<clipPath id="clip0_740_42604">
<rect width="1421" height="203" fill="white"/>
</clipPath>
</defs>
</svg>
