<svg width="907" height="235" viewBox="0 0 907 235" fill="none" xmlns="http://www.w3.org/2000/svg">
<rect width="907" height="235" fill="white"/>
<circle cx="727" cy="89" r="29.375" fill="white" stroke="#D8DADB" stroke-width="1.25"/>
<circle cx="757" cy="89" r="30" fill="#6FC0EF"/>
<circle cx="787" cy="89" r="30" fill="#66A7EE"/>
<circle cx="817" cy="89" r="30" fill="#3360C5"/>
<circle cx="847" cy="89" r="30" fill="#21399C"/>
<circle cx="877" cy="89" r="30" fill="#363636"/>
<rect x="651" width="6" height="123" fill="#F2F0F1"/>
<rect x="308" width="6" height="123" fill="#F2F0F1"/>
<rect width="6" height="123" fill="#F2F0F1"/>
<path d="M354.475 63.95L360.625 47.175H362.55L368.675 63.95H366.6L364.825 59.05H358.1L356.375 63.95H354.475ZM361.425 49.825L358.675 57.375H364.2L361.475 49.825H361.425ZM370.712 67.65V51.575H372.562V52.575H372.662C373.437 51.875 374.737 51.325 376.337 51.325C379.062 51.325 381.412 52.825 381.412 57.425V57.75C381.412 62.275 379.237 64.175 375.812 64.175C374.387 64.175 373.337 63.75 372.637 63.35V67.65H370.712ZM375.637 62.6C377.987 62.6 379.412 61.35 379.412 58.025V57.525C379.412 54.025 378.112 52.95 375.837 52.95C374.387 52.95 373.212 53.45 372.637 53.85V61.725C373.212 62.2 374.337 62.6 375.637 62.6ZM384.085 67.65V51.575H385.935V52.575H386.035C386.81 51.875 388.11 51.325 389.71 51.325C392.435 51.325 394.785 52.825 394.785 57.425V57.75C394.785 62.275 392.61 64.175 389.185 64.175C387.76 64.175 386.71 63.75 386.01 63.35V67.65H384.085ZM389.01 62.6C391.36 62.6 392.785 61.35 392.785 58.025V57.525C392.785 54.025 391.485 52.95 389.21 52.95C387.76 52.95 386.585 53.45 386.01 53.85V61.725C386.585 62.2 387.71 62.6 389.01 62.6ZM397.508 63.95V46.05H399.433V63.95H397.508ZM407.972 64.175C404.072 64.175 402.097 61.8 402.097 57.925V57.575C402.097 53.25 404.647 51.325 407.497 51.325C410.897 51.325 412.497 53.3 412.497 57.15V58.225H404.047C404.147 61.325 405.622 62.525 408.272 62.525C409.922 62.525 411.022 62.125 412.147 61.6V63.025C411.397 63.55 409.972 64.175 407.972 64.175ZM407.447 52.875C405.897 52.875 404.247 53.775 404.047 56.7H410.497C410.497 54 409.472 52.875 407.447 52.875ZM425.364 64.25C423.314 64.25 421.714 63.75 420.589 63.125V61.45C421.864 62.1 423.514 62.55 425.289 62.55C427.864 62.55 428.989 61.35 428.989 59.525C428.989 57.8 428.164 57.1 426.139 56.45L424.514 55.875C422.164 55.1 420.839 53.9 420.839 51.35C420.839 48.75 422.564 46.9 426.064 46.9C428.039 46.9 429.214 47.375 430.139 47.825V49.5C429.164 49.05 427.839 48.575 425.989 48.575C423.939 48.575 422.789 49.575 422.789 51.175C422.789 52.775 423.389 53.475 425.289 54.125L426.939 54.65C429.414 55.5 430.989 56.55 430.989 59.375C430.989 62.3 429.289 64.25 425.364 64.25ZM434.112 63.95V47.175H439.087C444.187 47.175 447.012 49.775 447.012 55.125V55.6C447.012 60.875 444.562 63.95 439.112 63.95H434.112ZM436.087 62.25H439.162C443.112 62.25 444.862 60.35 444.862 55.875V55.125C444.862 50.475 442.737 48.875 438.887 48.875H436.087V62.25ZM463.264 64.225C458.514 64.225 455.489 61.65 455.489 55.9V55.45C455.489 49.15 459.189 46.9 463.414 46.9C465.489 46.9 466.789 47.375 467.789 47.875V49.6C466.764 49.125 465.489 48.575 463.264 48.575C459.089 48.575 457.614 51.625 457.614 55.175V55.85C457.614 59.75 458.814 62.55 463.314 62.55C464.489 62.55 465.664 62.35 466.464 62.05V57.475H462.864V55.825H468.414V63.3C467.114 63.775 465.389 64.225 463.264 64.225ZM476.509 64.175C473.009 64.175 470.909 61.925 470.909 57.975V57.6C470.909 53.675 473.184 51.325 476.534 51.325C480.034 51.325 482.159 53.6 482.159 57.525V57.875C482.159 61.825 479.859 64.175 476.509 64.175ZM476.559 62.6C478.809 62.6 480.209 61.025 480.209 58.1V57.475C480.209 54.025 478.534 52.9 476.509 52.9C474.259 52.9 472.859 54.5 472.859 57.4V58.025C472.859 61.475 474.484 62.6 476.559 62.6ZM488.714 64.1C486.764 64.1 485.489 63.25 485.489 61.15V53.15H483.714V51.575H485.489V48.625H487.389V51.575H490.564V53.15H487.389V60.85C487.389 62.05 487.789 62.525 489.214 62.525C489.739 62.525 490.314 62.45 490.814 62.3V63.6C490.314 63.825 489.789 64.1 488.714 64.1ZM493.279 63.95V46.05H495.179V52.625H495.304C496.379 51.85 497.954 51.325 499.479 51.325C501.904 51.325 503.079 52.325 503.079 54.725V63.95H501.179V55.1C501.179 53.6 500.654 52.975 498.679 52.975C497.504 52.975 496.204 53.4 495.179 53.9V63.95H493.279ZM506.507 63.95V51.575H508.407V63.95H506.507ZM506.482 49.075V47.075H508.432V49.075H506.482ZM516.796 64.175C513.246 64.175 511.071 62.075 511.071 58V57.625C511.071 53.225 513.671 51.325 516.871 51.325C518.496 51.325 519.471 51.625 520.296 52.15V53.75C519.196 53.25 518.396 52.95 516.771 52.95C514.521 52.95 513.046 54.475 513.046 57.325V57.925C513.046 61.1 514.371 62.525 517.021 62.525C518.696 62.525 519.796 62 520.421 61.65V63.2C519.621 63.675 518.521 64.175 516.796 64.175ZM529.494 63.95V47.175H531.844L539.919 60.6H539.994V47.175H541.794V63.95H539.744L531.419 49.875H531.344V63.95H529.494ZM550.669 64.175C546.769 64.175 544.794 61.8 544.794 57.925V57.575C544.794 53.25 547.344 51.325 550.194 51.325C553.594 51.325 555.194 53.3 555.194 57.15V58.225H546.744C546.844 61.325 548.319 62.525 550.969 62.525C552.619 62.525 553.719 62.125 554.844 61.6V63.025C554.094 63.55 552.669 64.175 550.669 64.175ZM550.144 52.875C548.594 52.875 546.944 53.775 546.744 56.7H553.194C553.194 54 552.169 52.875 550.144 52.875ZM562.644 64.175C559.144 64.175 557.044 61.925 557.044 57.975V57.6C557.044 53.675 559.319 51.325 562.669 51.325C566.169 51.325 568.294 53.6 568.294 57.525V57.875C568.294 61.825 565.994 64.175 562.644 64.175ZM562.694 62.6C564.944 62.6 566.344 61.025 566.344 58.1V57.475C566.344 54.025 564.669 52.9 562.644 52.9C560.394 52.9 558.994 54.5 558.994 57.4V58.025C558.994 61.475 560.619 62.6 562.694 62.6ZM576.966 63.95V62.775L580.966 58.625C583.341 56.15 584.941 54.325 584.941 51.925C584.941 49.7 583.866 48.6 581.491 48.6C580.066 48.6 578.716 49.3 577.741 49.975L577.166 48.4C578.216 47.725 579.916 46.875 581.816 46.875C585.191 46.875 587.016 48.75 587.016 51.75C587.016 54.65 585.266 56.65 582.366 59.6L579.741 62.25H587.391V63.95H576.966ZM593.946 64.25C591.996 64.25 590.246 63.7 589.246 62.975L589.621 61.375C590.546 62 592.196 62.575 593.571 62.575C596.221 62.575 597.771 61.075 597.771 58.7C597.771 56.15 596.271 55.125 593.646 55.125C592.496 55.125 590.921 55.6 590.146 55.95L590.746 47.15H599.246V48.85H592.346L591.996 53.95C592.671 53.775 593.696 53.6 594.396 53.6C597.771 53.6 599.846 55.2 599.846 58.725C599.846 61.725 597.646 64.25 593.946 64.25ZM354.38 94.16L359.3 80.74H360.84L365.74 94.16H364.08L362.66 90.24H357.28L355.9 94.16H354.38ZM359.94 82.86L357.74 88.9H362.16L359.98 82.86H359.94ZM367.369 97.12V84.26H368.849V85.06H368.929C369.549 84.5 370.589 84.06 371.869 84.06C374.049 84.06 375.929 85.26 375.929 88.94V89.2C375.929 92.82 374.189 94.34 371.449 94.34C370.309 94.34 369.469 94 368.909 93.68V97.12H367.369ZM371.309 93.08C373.189 93.08 374.329 92.08 374.329 89.42V89.02C374.329 86.22 373.289 85.36 371.469 85.36C370.309 85.36 369.369 85.76 368.909 86.08V92.38C369.369 92.76 370.269 93.08 371.309 93.08ZM378.068 97.12V84.26H379.548V85.06H379.628C380.248 84.5 381.288 84.06 382.568 84.06C384.748 84.06 386.628 85.26 386.628 88.94V89.2C386.628 92.82 384.888 94.34 382.148 94.34C381.008 94.34 380.168 94 379.608 93.68V97.12H378.068ZM382.008 93.08C383.888 93.08 385.028 92.08 385.028 89.42V89.02C385.028 86.22 383.988 85.36 382.168 85.36C381.008 85.36 380.068 85.76 379.608 86.08V92.38C380.068 92.76 380.968 93.08 382.008 93.08ZM388.806 94.16V79.84H390.346V94.16H388.806ZM397.178 94.34C394.058 94.34 392.478 92.44 392.478 89.34V89.06C392.478 85.6 394.518 84.06 396.798 84.06C399.518 84.06 400.798 85.64 400.798 88.72V89.58H394.038C394.118 92.06 395.298 93.02 397.418 93.02C398.738 93.02 399.618 92.7 400.518 92.28V93.42C399.918 93.84 398.778 94.34 397.178 94.34ZM396.758 85.3C395.518 85.3 394.198 86.02 394.038 88.36H399.198C399.198 86.2 398.378 85.3 396.758 85.3ZM411.091 94.4C409.451 94.4 408.171 94 407.271 93.5V92.16C408.291 92.68 409.611 93.04 411.031 93.04C413.091 93.04 413.991 92.08 413.991 90.62C413.991 89.24 413.331 88.68 411.711 88.16L410.411 87.7C408.531 87.08 407.471 86.12 407.471 84.08C407.471 82 408.851 80.52 411.651 80.52C413.231 80.52 414.171 80.9 414.911 81.26V82.6C414.131 82.24 413.071 81.86 411.591 81.86C409.951 81.86 409.031 82.66 409.031 83.94C409.031 85.22 409.511 85.78 411.031 86.3L412.351 86.72C414.331 87.4 415.591 88.24 415.591 90.5C415.591 92.84 414.231 94.4 411.091 94.4ZM418.09 94.16V80.74H422.07C426.15 80.74 428.41 82.82 428.41 87.1V87.48C428.41 91.7 426.45 94.16 422.09 94.16H418.09ZM419.67 92.8H422.13C425.29 92.8 426.69 91.28 426.69 87.7V87.1C426.69 83.38 424.99 82.1 421.91 82.1H419.67V92.8ZM441.411 94.38C437.611 94.38 435.191 92.32 435.191 87.72V87.36C435.191 82.32 438.151 80.52 441.531 80.52C443.191 80.52 444.231 80.9 445.031 81.3V82.68C444.211 82.3 443.191 81.86 441.411 81.86C438.071 81.86 436.891 84.3 436.891 87.14V87.68C436.891 90.8 437.851 93.04 441.451 93.04C442.391 93.04 443.331 92.88 443.971 92.64V88.98H441.091V87.66H445.531V93.64C444.491 94.02 443.111 94.38 441.411 94.38ZM452.008 94.34C449.208 94.34 447.528 92.54 447.528 89.38V89.08C447.528 85.94 449.348 84.06 452.028 84.06C454.828 84.06 456.528 85.88 456.528 89.02V89.3C456.528 92.46 454.688 94.34 452.008 94.34ZM452.048 93.08C453.848 93.08 454.968 91.82 454.968 89.48V88.98C454.968 86.22 453.628 85.32 452.008 85.32C450.208 85.32 449.088 86.6 449.088 88.92V89.42C449.088 92.18 450.388 93.08 452.048 93.08ZM461.771 94.28C460.211 94.28 459.191 93.6 459.191 91.92V85.52H457.771V84.26H459.191V81.9H460.711V84.26H463.251V85.52H460.711V91.68C460.711 92.64 461.031 93.02 462.171 93.02C462.591 93.02 463.051 92.96 463.451 92.84V93.88C463.051 94.06 462.631 94.28 461.771 94.28ZM465.423 94.16V79.84H466.943V85.1H467.043C467.903 84.48 469.163 84.06 470.383 84.06C472.323 84.06 473.263 84.86 473.263 86.78V94.16H471.743V87.08C471.743 85.88 471.323 85.38 469.743 85.38C468.803 85.38 467.763 85.72 466.943 86.12V94.16H465.423ZM476.006 94.16V84.26H477.526V94.16H476.006ZM475.986 82.26V80.66H477.546V82.26H475.986ZM484.237 94.34C481.397 94.34 479.657 92.66 479.657 89.4V89.1C479.657 85.58 481.737 84.06 484.297 84.06C485.597 84.06 486.377 84.3 487.037 84.72V86C486.157 85.6 485.517 85.36 484.217 85.36C482.417 85.36 481.237 86.58 481.237 88.86V89.34C481.237 91.88 482.297 93.02 484.417 93.02C485.757 93.02 486.637 92.6 487.137 92.32V93.56C486.497 93.94 485.617 94.34 484.237 94.34ZM494.395 94.16V80.74H496.275L502.735 91.48H502.795V80.74H504.235V94.16H502.595L495.935 82.9H495.875V94.16H494.395ZM511.335 94.34C508.215 94.34 506.635 92.44 506.635 89.34V89.06C506.635 85.6 508.675 84.06 510.955 84.06C513.675 84.06 514.955 85.64 514.955 88.72V89.58H508.195C508.275 92.06 509.455 93.02 511.575 93.02C512.895 93.02 513.775 92.7 514.675 92.28V93.42C514.075 93.84 512.935 94.34 511.335 94.34ZM510.915 85.3C509.675 85.3 508.355 86.02 508.195 88.36H513.355C513.355 86.2 512.535 85.3 510.915 85.3ZM520.915 94.34C518.115 94.34 516.435 92.54 516.435 89.38V89.08C516.435 85.94 518.255 84.06 520.935 84.06C523.735 84.06 525.435 85.88 525.435 89.02V89.3C525.435 92.46 523.595 94.34 520.915 94.34ZM520.955 93.08C522.755 93.08 523.875 91.82 523.875 89.48V88.98C523.875 86.22 522.535 85.32 520.915 85.32C519.115 85.32 517.995 86.6 517.995 88.92V89.42C517.995 92.18 519.295 93.08 520.955 93.08ZM532.373 94.16V93.22L535.573 89.9C537.473 87.92 538.753 86.46 538.753 84.54C538.753 82.76 537.893 81.88 535.993 81.88C534.853 81.88 533.773 82.44 532.993 82.98L532.533 81.72C533.373 81.18 534.733 80.5 536.253 80.5C538.953 80.5 540.413 82 540.413 84.4C540.413 86.72 539.013 88.32 536.693 90.68L534.593 92.8H540.713V94.16H532.373ZM547.819 94.4C545.059 94.4 542.899 92.52 542.899 87.98V86.86C542.899 82.12 545.199 80.52 547.839 80.52C550.459 80.52 552.619 82.12 552.619 86.78V88C552.619 92.54 550.539 94.4 547.819 94.4ZM547.819 93.08C549.879 93.08 550.999 91.68 550.999 88.24V86.76C550.999 83.38 549.899 81.84 547.839 81.84C545.739 81.84 544.599 83.3 544.599 86.66V88.14C544.599 91.48 545.719 93.08 547.819 93.08ZM354.285 118.37L357.975 108.305H359.13L362.805 118.37H361.56L360.495 115.43H356.46L355.425 118.37H354.285ZM358.455 109.895L356.805 114.425H360.12L358.485 109.895H358.455ZM364.027 120.59V110.945H365.137V111.545H365.197C365.662 111.125 366.442 110.795 367.402 110.795C369.037 110.795 370.447 111.695 370.447 114.455V114.65C370.447 117.365 369.142 118.505 367.087 118.505C366.232 118.505 365.602 118.25 365.182 118.01V120.59H364.027ZM366.982 117.56C368.392 117.56 369.247 116.81 369.247 114.815V114.515C369.247 112.415 368.467 111.77 367.102 111.77C366.232 111.77 365.527 112.07 365.182 112.31V117.035C365.527 117.32 366.202 117.56 366.982 117.56ZM372.051 120.59V110.945H373.161V111.545H373.221C373.686 111.125 374.466 110.795 375.426 110.795C377.061 110.795 378.471 111.695 378.471 114.455V114.65C378.471 117.365 377.166 118.505 375.111 118.505C374.256 118.505 373.626 118.25 373.206 118.01V120.59H372.051ZM375.006 117.56C376.416 117.56 377.271 116.81 377.271 114.815V114.515C377.271 112.415 376.491 111.77 375.126 111.77C374.256 111.77 373.551 112.07 373.206 112.31V117.035C373.551 117.32 374.226 117.56 375.006 117.56ZM380.105 118.37V107.63H381.26V118.37H380.105ZM386.383 118.505C384.043 118.505 382.858 117.08 382.858 114.755V114.545C382.858 111.95 384.388 110.795 386.098 110.795C388.138 110.795 389.098 111.98 389.098 114.29V114.935H384.028C384.088 116.795 384.973 117.515 386.563 117.515C387.553 117.515 388.213 117.275 388.888 116.96V117.815C388.438 118.13 387.583 118.505 386.383 118.505ZM386.068 111.725C385.138 111.725 384.148 112.265 384.028 114.02H387.898C387.898 112.4 387.283 111.725 386.068 111.725ZM396.819 118.55C395.589 118.55 394.629 118.25 393.954 117.875V116.87C394.719 117.26 395.709 117.53 396.774 117.53C398.319 117.53 398.994 116.81 398.994 115.715C398.994 114.68 398.499 114.26 397.284 113.87L396.309 113.525C394.899 113.06 394.104 112.34 394.104 110.81C394.104 109.25 395.139 108.14 397.239 108.14C398.424 108.14 399.129 108.425 399.684 108.695V109.7C399.099 109.43 398.304 109.145 397.194 109.145C395.964 109.145 395.274 109.745 395.274 110.705C395.274 111.665 395.634 112.085 396.774 112.475L397.764 112.79C399.249 113.3 400.194 113.93 400.194 115.625C400.194 117.38 399.174 118.55 396.819 118.55ZM402.067 118.37V108.305H405.052C408.112 108.305 409.807 109.865 409.807 113.075V113.36C409.807 116.525 408.337 118.37 405.067 118.37H402.067ZM403.252 117.35H405.097C407.467 117.35 408.517 116.21 408.517 113.525V113.075C408.517 110.285 407.242 109.325 404.932 109.325H403.252V117.35ZM419.558 118.535C416.708 118.535 414.893 116.99 414.893 113.54V113.27C414.893 109.49 417.113 108.14 419.648 108.14C420.893 108.14 421.673 108.425 422.273 108.725V109.76C421.658 109.475 420.893 109.145 419.558 109.145C417.053 109.145 416.168 110.975 416.168 113.105V113.51C416.168 115.85 416.888 117.53 419.588 117.53C420.293 117.53 420.998 117.41 421.478 117.23V114.485H419.318V113.495H422.648V117.98C421.868 118.265 420.833 118.535 419.558 118.535ZM427.506 118.505C425.406 118.505 424.146 117.155 424.146 114.785V114.56C424.146 112.205 425.511 110.795 427.521 110.795C429.621 110.795 430.896 112.16 430.896 114.515V114.725C430.896 117.095 429.516 118.505 427.506 118.505ZM427.536 117.56C428.886 117.56 429.726 116.615 429.726 114.86V114.485C429.726 112.415 428.721 111.74 427.506 111.74C426.156 111.74 425.316 112.7 425.316 114.44V114.815C425.316 116.885 426.291 117.56 427.536 117.56ZM434.828 118.46C433.658 118.46 432.893 117.95 432.893 116.69V111.89H431.828V110.945H432.893V109.175H434.033V110.945H435.938V111.89H434.033V116.51C434.033 117.23 434.273 117.515 435.128 117.515C435.443 117.515 435.788 117.47 436.088 117.38V118.16C435.788 118.295 435.473 118.46 434.828 118.46ZM437.567 118.37V107.63H438.707V111.575H438.782C439.427 111.11 440.372 110.795 441.287 110.795C442.742 110.795 443.447 111.395 443.447 112.835V118.37H442.307V113.06C442.307 112.16 441.992 111.785 440.807 111.785C440.102 111.785 439.322 112.04 438.707 112.34V118.37H437.567ZM445.504 118.37V110.945H446.644V118.37H445.504ZM445.489 109.445V108.245H446.659V109.445H445.489ZM451.678 118.505C449.548 118.505 448.243 117.245 448.243 114.8V114.575C448.243 111.935 449.803 110.795 451.723 110.795C452.698 110.795 453.283 110.975 453.778 111.29V112.25C453.118 111.95 452.638 111.77 451.663 111.77C450.313 111.77 449.428 112.685 449.428 114.395V114.755C449.428 116.66 450.223 117.515 451.813 117.515C452.818 117.515 453.478 117.2 453.853 116.99V117.92C453.373 118.205 452.713 118.505 451.678 118.505ZM459.296 118.37V108.305H460.706L465.551 116.36H465.596V108.305H466.676V118.37H465.446L460.451 109.925H460.406V118.37H459.296ZM472.001 118.505C469.661 118.505 468.476 117.08 468.476 114.755V114.545C468.476 111.95 470.006 110.795 471.716 110.795C473.756 110.795 474.716 111.98 474.716 114.29V114.935H469.646C469.706 116.795 470.591 117.515 472.181 117.515C473.171 117.515 473.831 117.275 474.506 116.96V117.815C474.056 118.13 473.201 118.505 472.001 118.505ZM471.686 111.725C470.756 111.725 469.766 112.265 469.646 114.02H473.516C473.516 112.4 472.901 111.725 471.686 111.725ZM479.186 118.505C477.086 118.505 475.826 117.155 475.826 114.785V114.56C475.826 112.205 477.191 110.795 479.201 110.795C481.301 110.795 482.576 112.16 482.576 114.515V114.725C482.576 117.095 481.196 118.505 479.186 118.505ZM479.216 117.56C480.566 117.56 481.406 116.615 481.406 114.86V114.485C481.406 112.415 480.401 111.74 479.186 111.74C477.836 111.74 476.996 112.7 476.996 114.44V114.815C476.996 116.885 477.971 117.56 479.216 117.56ZM489.535 118.43V109.505L487.675 109.94V109.25L490.045 108.14H490.675V118.43H489.535ZM495.331 118.55C494.161 118.55 493.111 118.22 492.511 117.785L492.736 116.825C493.291 117.2 494.281 117.545 495.106 117.545C496.696 117.545 497.626 116.645 497.626 115.22C497.626 113.69 496.726 113.075 495.151 113.075C494.461 113.075 493.516 113.36 493.051 113.57L493.411 108.29H498.511V109.31H494.371L494.161 112.37C494.566 112.265 495.181 112.16 495.601 112.16C497.626 112.16 498.871 113.12 498.871 115.235C498.871 117.035 497.551 118.55 495.331 118.55Z" fill="black"/>
<path d="M709.688 10.4922H706.888C706.837 10.13 706.733 9.80824 706.575 9.52699C706.418 9.24148 706.215 8.99858 705.968 8.7983C705.721 8.59801 705.435 8.4446 705.112 8.33807C704.792 8.23153 704.445 8.17827 704.07 8.17827C703.392 8.17827 702.802 8.34659 702.299 8.68324C701.796 9.01562 701.406 9.50142 701.129 10.1406C700.852 10.7756 700.714 11.5469 700.714 12.4545C700.714 13.3878 700.852 14.1719 701.129 14.8068C701.411 15.4418 701.803 15.9212 702.305 16.245C702.808 16.5689 703.39 16.7308 704.05 16.7308C704.421 16.7308 704.764 16.6818 705.08 16.5838C705.399 16.4858 705.683 16.343 705.93 16.1555C706.177 15.9638 706.381 15.7315 706.543 15.4588C706.71 15.1861 706.825 14.875 706.888 14.5256L709.688 14.5384C709.616 15.1392 709.435 15.7188 709.145 16.277C708.859 16.831 708.474 17.3274 707.988 17.7663C707.506 18.201 706.931 18.5462 706.262 18.8018C705.597 19.0533 704.845 19.179 704.006 19.179C702.838 19.179 701.794 18.9148 700.874 18.3864C699.957 17.858 699.233 17.093 698.7 16.0916C698.172 15.0902 697.908 13.8778 697.908 12.4545C697.908 11.027 698.176 9.8125 698.713 8.81108C699.25 7.80966 699.979 7.04687 700.899 6.52273C701.82 5.99432 702.855 5.73011 704.006 5.73011C704.764 5.73011 705.467 5.83665 706.115 6.04972C706.767 6.26278 707.344 6.57386 707.847 6.98295C708.35 7.38778 708.759 7.88423 709.075 8.4723C709.394 9.06037 709.599 9.73366 709.688 10.4922ZM715.878 19.1918C714.885 19.1918 714.026 18.9808 713.302 18.5589C712.582 18.1328 712.026 17.5405 711.634 16.782C711.242 16.0192 711.045 15.1349 711.045 14.1293C711.045 13.1151 711.242 12.2287 711.634 11.4702C712.026 10.7074 712.582 10.1151 713.302 9.69318C714.026 9.26705 714.885 9.05398 715.878 9.05398C716.871 9.05398 717.727 9.26705 718.447 9.69318C719.172 10.1151 719.73 10.7074 720.122 11.4702C720.514 12.2287 720.71 13.1151 720.71 14.1293C720.71 15.1349 720.514 16.0192 720.122 16.782C719.73 17.5405 719.172 18.1328 718.447 18.5589C717.727 18.9808 716.871 19.1918 715.878 19.1918ZM715.891 17.0824C716.342 17.0824 716.72 16.9545 717.022 16.6989C717.325 16.4389 717.553 16.0852 717.706 15.6378C717.864 15.1903 717.943 14.6811 717.943 14.1101C717.943 13.5391 717.864 13.0298 717.706 12.5824C717.553 12.1349 717.325 11.7812 717.022 11.5213C716.72 11.2614 716.342 11.1314 715.891 11.1314C715.435 11.1314 715.051 11.2614 714.74 11.5213C714.433 11.7812 714.201 12.1349 714.043 12.5824C713.89 13.0298 713.813 13.5391 713.813 14.1101C713.813 14.6811 713.89 15.1903 714.043 15.6378C714.201 16.0852 714.433 16.4389 714.74 16.6989C715.051 16.9545 715.435 17.0824 715.891 17.0824ZM725.024 5.90909V19H722.301V5.90909H725.024ZM731.461 19.1918C730.468 19.1918 729.61 18.9808 728.885 18.5589C728.165 18.1328 727.609 17.5405 727.217 16.782C726.825 16.0192 726.629 15.1349 726.629 14.1293C726.629 13.1151 726.825 12.2287 727.217 11.4702C727.609 10.7074 728.165 10.1151 728.885 9.69318C729.61 9.26705 730.468 9.05398 731.461 9.05398C732.454 9.05398 733.311 9.26705 734.031 9.69318C734.755 10.1151 735.314 10.7074 735.706 11.4702C736.098 12.2287 736.294 13.1151 736.294 14.1293C736.294 15.1349 736.098 16.0192 735.706 16.782C735.314 17.5405 734.755 18.1328 734.031 18.5589C733.311 18.9808 732.454 19.1918 731.461 19.1918ZM731.474 17.0824C731.926 17.0824 732.303 16.9545 732.605 16.6989C732.908 16.4389 733.136 16.0852 733.289 15.6378C733.447 15.1903 733.526 14.6811 733.526 14.1101C733.526 13.5391 733.447 13.0298 733.289 12.5824C733.136 12.1349 732.908 11.7812 732.605 11.5213C732.303 11.2614 731.926 11.1314 731.474 11.1314C731.018 11.1314 730.635 11.2614 730.323 11.5213C730.017 11.7812 729.784 12.1349 729.627 12.5824C729.473 13.0298 729.397 13.5391 729.397 14.1101C729.397 14.6811 729.473 15.1903 729.627 15.6378C729.784 16.0852 730.017 16.4389 730.323 16.6989C730.635 16.9545 731.018 17.0824 731.474 17.0824ZM737.884 19V9.18182H740.524V10.8949H740.626C740.805 10.2855 741.106 9.82528 741.528 9.5142C741.95 9.19886 742.435 9.04119 742.985 9.04119C743.121 9.04119 743.268 9.04972 743.426 9.06676C743.584 9.08381 743.722 9.10724 743.842 9.13707V11.5533C743.714 11.5149 743.537 11.4808 743.311 11.451C743.085 11.4212 742.879 11.4062 742.691 11.4062C742.29 11.4062 741.933 11.4936 741.617 11.6683C741.306 11.8388 741.059 12.0774 740.876 12.3842C740.697 12.6911 740.607 13.0447 740.607 13.4453V19H737.884Z" fill="black"/>
<path d="M354.639 7.19105V4.90909H365.391V7.19105H361.383V18H358.647V7.19105H354.639ZM369.981 18.1918C368.971 18.1918 368.101 17.9872 367.373 17.5781C366.648 17.1648 366.09 16.581 365.698 15.8267C365.306 15.0682 365.11 14.1712 365.11 13.1357C365.11 12.1257 365.306 11.2393 365.698 10.4766C366.09 9.71378 366.642 9.11932 367.354 8.69318C368.069 8.26705 368.909 8.05398 369.872 8.05398C370.52 8.05398 371.123 8.15838 371.681 8.36719C372.243 8.57173 372.734 8.88068 373.151 9.29403C373.573 9.70739 373.901 10.2273 374.136 10.8537C374.37 11.4759 374.487 12.2045 374.487 13.0398V13.7876H366.197V12.1001H371.924C371.924 11.7081 371.839 11.3608 371.668 11.0582C371.498 10.7557 371.261 10.5192 370.959 10.3487C370.66 10.174 370.313 10.0866 369.917 10.0866C369.503 10.0866 369.137 10.1825 368.817 10.3743C368.502 10.5618 368.255 10.8153 368.076 11.1349C367.897 11.4503 367.805 11.8018 367.801 12.1896V13.794C367.801 14.2798 367.89 14.6996 368.069 15.0533C368.253 15.407 368.511 15.6797 368.843 15.8714C369.175 16.0632 369.569 16.1591 370.025 16.1591C370.328 16.1591 370.605 16.1165 370.856 16.0312C371.108 15.946 371.323 15.8182 371.502 15.6477C371.681 15.4773 371.817 15.2685 371.911 15.0213L374.43 15.1875C374.302 15.7926 374.04 16.321 373.643 16.7727C373.251 17.2202 372.744 17.5696 372.122 17.821C371.504 18.0682 370.79 18.1918 369.981 18.1918ZM378.184 8.18182L379.986 11.6143L381.834 8.18182H384.627L381.783 13.0909L384.704 18H381.923L379.986 14.6058L378.082 18H375.269L378.184 13.0909L375.371 8.18182H378.184ZM391.287 8.18182V10.2273H385.374V8.18182H391.287ZM386.716 5.82955H389.439V14.983C389.439 15.2344 389.478 15.4304 389.554 15.571C389.631 15.7074 389.738 15.8033 389.874 15.8587C390.015 15.9141 390.176 15.9418 390.36 15.9418C390.488 15.9418 390.615 15.9311 390.743 15.9098C390.871 15.8842 390.969 15.8651 391.037 15.8523L391.466 17.8786C391.329 17.9212 391.137 17.9702 390.89 18.0256C390.643 18.0852 390.343 18.1214 389.989 18.1342C389.333 18.1598 388.757 18.0724 388.263 17.8722C387.773 17.6719 387.392 17.3608 387.119 16.9389C386.846 16.517 386.712 15.9844 386.716 15.3409V5.82955Z" fill="black"/>
<path d="M47.1378 18V4.90909H49.9055V15.718H55.5178V18H47.1378ZM61.5556 18.1918C60.5627 18.1918 59.7041 17.9808 58.9796 17.5589C58.2595 17.1328 57.7033 16.5405 57.3113 15.782C56.9193 15.0192 56.7232 14.1349 56.7232 13.1293C56.7232 12.1151 56.9193 11.2287 57.3113 10.4702C57.7033 9.70739 58.2595 9.11506 58.9796 8.69318C59.7041 8.26705 60.5627 8.05398 61.5556 8.05398C62.5485 8.05398 63.405 8.26705 64.1252 8.69318C64.8497 9.11506 65.4079 9.70739 65.7999 10.4702C66.192 11.2287 66.388 12.1151 66.388 13.1293C66.388 14.1349 66.192 15.0192 65.7999 15.782C65.4079 16.5405 64.8497 17.1328 64.1252 17.5589C63.405 17.9808 62.5485 18.1918 61.5556 18.1918ZM61.5684 16.0824C62.0201 16.0824 62.3972 15.9545 62.6998 15.6989C63.0024 15.4389 63.2303 15.0852 63.3837 14.6378C63.5414 14.1903 63.6202 13.6811 63.6202 13.1101C63.6202 12.5391 63.5414 12.0298 63.3837 11.5824C63.2303 11.1349 63.0024 10.7812 62.6998 10.5213C62.3972 10.2614 62.0201 10.1314 61.5684 10.1314C61.1124 10.1314 60.7289 10.2614 60.4178 10.5213C60.111 10.7812 59.8788 11.1349 59.7211 11.5824C59.5677 12.0298 59.491 12.5391 59.491 13.1101C59.491 13.6811 59.5677 14.1903 59.7211 14.6378C59.8788 15.0852 60.111 15.4389 60.4178 15.6989C60.7289 15.9545 61.1124 16.0824 61.5684 16.0824ZM72.4019 21.8864C71.5198 21.8864 70.7634 21.7649 70.1327 21.522C69.5063 21.2834 69.0077 20.9574 68.637 20.544C68.2662 20.1307 68.0255 19.6662 67.9147 19.1506L70.4331 18.8118C70.5099 19.0078 70.6313 19.1911 70.7975 19.3615C70.9637 19.532 71.1831 19.6683 71.4559 19.7706C71.7329 19.8771 72.0695 19.9304 72.4658 19.9304C73.0581 19.9304 73.5461 19.7855 73.9296 19.4957C74.3174 19.2102 74.5113 18.7308 74.5113 18.0575V16.2614H74.3962C74.2769 16.5341 74.0979 16.7919 73.8593 17.0348C73.6206 17.2777 73.3138 17.4759 72.9388 17.6293C72.5638 17.7827 72.1164 17.8594 71.5965 17.8594C70.8593 17.8594 70.1881 17.6889 69.583 17.348C68.9822 17.0028 68.5027 16.4766 68.1448 15.7692C67.7911 15.0575 67.6143 14.1584 67.6143 13.0717C67.6143 11.9595 67.7954 11.0305 68.1576 10.2848C68.5198 9.53906 69.0013 8.98082 69.6022 8.61009C70.2073 8.23935 70.8699 8.05398 71.5901 8.05398C72.1398 8.05398 72.6 8.14773 72.9708 8.33523C73.3415 8.51847 73.6398 8.74858 73.8657 9.02557C74.0958 9.2983 74.2726 9.56676 74.3962 9.83097H74.4985V8.18182H77.2023V18.0959C77.2023 18.9311 76.9978 19.63 76.5887 20.1925C76.1796 20.755 75.6128 21.1768 74.8884 21.4581C74.1682 21.7436 73.3394 21.8864 72.4019 21.8864ZM72.4594 15.8139C72.8983 15.8139 73.2691 15.7053 73.5716 15.4879C73.8785 15.2663 74.1128 14.951 74.2748 14.5419C74.441 14.1286 74.5241 13.6342 74.5241 13.0589C74.5241 12.4837 74.4431 11.9851 74.2812 11.5632C74.1192 11.1371 73.8849 10.8068 73.578 10.5724C73.2712 10.3381 72.8983 10.2209 72.4594 10.2209C72.012 10.2209 71.6349 10.3423 71.328 10.5852C71.0212 10.8239 70.789 11.1562 70.6313 11.5824C70.4736 12.0085 70.3948 12.5007 70.3948 13.0589C70.3948 13.6257 70.4736 14.1158 70.6313 14.5291C70.7932 14.9382 71.0255 15.2557 71.328 15.4815C71.6349 15.7031 72.012 15.8139 72.4594 15.8139ZM83.6253 18.1918C82.6324 18.1918 81.7737 17.9808 81.0493 17.5589C80.3291 17.1328 79.773 16.5405 79.381 15.782C78.9889 15.0192 78.7929 14.1349 78.7929 13.1293C78.7929 12.1151 78.9889 11.2287 79.381 10.4702C79.773 9.70739 80.3291 9.11506 81.0493 8.69318C81.7737 8.26705 82.6324 8.05398 83.6253 8.05398C84.6182 8.05398 85.4747 8.26705 86.1949 8.69318C86.9193 9.11506 87.4776 9.70739 87.8696 10.4702C88.2617 11.2287 88.4577 12.1151 88.4577 13.1293C88.4577 14.1349 88.2617 15.0192 87.8696 15.782C87.4776 16.5405 86.9193 17.1328 86.1949 17.5589C85.4747 17.9808 84.6182 18.1918 83.6253 18.1918ZM83.6381 16.0824C84.0898 16.0824 84.4669 15.9545 84.7695 15.6989C85.072 15.4389 85.3 15.0852 85.4534 14.6378C85.6111 14.1903 85.6899 13.6811 85.6899 13.1101C85.6899 12.5391 85.6111 12.0298 85.4534 11.5824C85.3 11.1349 85.072 10.7812 84.7695 10.5213C84.4669 10.2614 84.0898 10.1314 83.6381 10.1314C83.1821 10.1314 82.7986 10.2614 82.4875 10.5213C82.1807 10.7812 81.9485 11.1349 81.7908 11.5824C81.6374 12.0298 81.5607 12.5391 81.5607 13.1101C81.5607 13.6811 81.6374 14.1903 81.7908 14.6378C81.9485 15.0852 82.1807 15.4389 82.4875 15.6989C82.7986 15.9545 83.1821 16.0824 83.6381 16.0824Z" fill="black"/>
<circle cx="75.7931" cy="88.7931" r="29.7931" fill="#92D7F7"/>
<circle cx="92.3446" cy="88.7931" r="29.7931" fill="#71B0F3"/>
<circle cx="112.207" cy="88.7931" r="29.7931" fill="#245ECC"/>
<mask id="mask0_712_41735" style="mask-type:alpha" maskUnits="userSpaceOnUse" x="62" y="59" width="61" height="60">
<circle cx="92.3446" cy="88.7931" r="29.7931" fill="#3881E7"/>
</mask>
<g mask="url(#mask0_712_41735)">
<circle cx="112.207" cy="88.7931" r="29.7931" fill="#3881E7"/>
</g>
<mask id="mask1_712_41735" style="mask-type:alpha" maskUnits="userSpaceOnUse" x="46" y="59" width="60" height="60">
<circle cx="75.7931" cy="88.7931" r="29.7931" fill="#7AD9FB"/>
</mask>
<g mask="url(#mask1_712_41735)">
<mask id="mask2_712_41735" style="mask-type:alpha" maskUnits="userSpaceOnUse" x="82" y="59" width="60" height="60">
<circle cx="112.207" cy="88.7931" r="29.7931" fill="#3A5DC6"/>
</mask>
<g mask="url(#mask2_712_41735)">
<mask id="mask3_712_41735" style="mask-type:alpha" maskUnits="userSpaceOnUse" x="62" y="59" width="61" height="60">
<circle cx="92.3446" cy="88.7931" r="29.7931" fill="#5AB0F8"/>
</mask>
<g mask="url(#mask3_712_41735)">
<circle cx="112.207" cy="88.7931" r="29.7931" fill="#50A6F4"/>
</g>
</g>
</g>
<path d="M174.733 92.0779C174.733 91.7874 174.688 91.528 174.598 91.2997C174.515 91.0645 174.359 90.8535 174.131 90.6667C173.91 90.4731 173.595 90.2863 173.187 90.1064C172.785 89.9197 172.267 89.726 171.63 89.5254C170.925 89.304 170.268 89.055 169.659 88.7783C169.05 88.5016 168.514 88.18 168.051 87.8134C167.594 87.4467 167.238 87.0248 166.982 86.5475C166.726 86.0633 166.598 85.503 166.598 84.8666C166.598 84.244 166.729 83.6768 166.992 83.1649C167.262 82.653 167.642 82.2138 168.134 81.8472C168.625 81.4736 169.202 81.1866 169.866 80.986C170.537 80.7854 171.277 80.6851 172.087 80.6851C173.207 80.6851 174.176 80.8891 174.992 81.2972C175.815 81.7054 176.452 82.2587 176.901 82.9574C177.351 83.656 177.576 84.4412 177.576 85.3127H174.733C174.733 84.8424 174.632 84.4273 174.432 84.0676C174.238 83.7079 173.941 83.4243 173.539 83.2168C173.145 83.0093 172.647 82.9055 172.045 82.9055C171.464 82.9055 170.98 82.992 170.593 83.1649C170.212 83.3378 169.925 83.573 169.731 83.8705C169.545 84.1679 169.451 84.5 169.451 84.8666C169.451 85.1433 169.517 85.3923 169.648 85.6136C169.78 85.8281 169.977 86.0321 170.24 86.2258C170.503 86.4126 170.828 86.589 171.215 86.755C171.609 86.9141 172.066 87.0732 172.585 87.2323C173.415 87.4813 174.141 87.758 174.764 88.0624C175.393 88.3667 175.916 88.7126 176.331 89.1C176.753 89.4873 177.067 89.9231 177.275 90.4073C177.489 90.8916 177.596 91.4415 177.596 92.0571C177.596 92.7074 177.468 93.2884 177.213 93.8003C176.957 94.3122 176.59 94.748 176.113 95.1077C175.635 95.4674 175.061 95.7406 174.39 95.9274C173.726 96.1141 172.983 96.2075 172.159 96.2075C171.426 96.2075 170.7 96.1107 169.98 95.917C169.268 95.7164 168.621 95.4189 168.04 95.0247C167.459 94.6235 166.996 94.1185 166.65 93.5098C166.304 92.8941 166.131 92.1747 166.131 91.3516H168.995C168.995 91.8289 169.071 92.237 169.223 92.5759C169.382 92.908 169.603 93.1812 169.887 93.3956C170.178 93.6031 170.517 93.7553 170.904 93.8522C171.291 93.949 171.71 93.9974 172.159 93.9974C172.74 93.9974 173.218 93.9179 173.591 93.7588C173.972 93.5928 174.255 93.3645 174.442 93.074C174.636 92.7834 174.733 92.4514 174.733 92.0779ZM185.773 93.6135V88.4359C185.773 88.0555 185.707 87.7269 185.576 87.4502C185.444 87.1735 185.244 86.9591 184.974 86.8069C184.704 86.6547 184.362 86.5786 183.947 86.5786C183.58 86.5786 183.258 86.6409 182.982 86.7654C182.712 86.8899 182.504 87.0663 182.359 87.2946C182.214 87.5159 182.141 87.7719 182.141 88.0624H179.391C179.391 87.5989 179.502 87.1597 179.724 86.7446C179.945 86.3227 180.26 85.9491 180.668 85.624C181.083 85.292 181.577 85.0326 182.151 84.8458C182.733 84.6591 183.383 84.5657 184.102 84.5657C184.953 84.5657 185.71 84.7109 186.375 85.0015C187.045 85.2851 187.571 85.7139 187.952 86.2881C188.339 86.8622 188.533 87.5851 188.533 88.4567V93.3541C188.533 93.9144 188.567 94.3952 188.636 94.7964C188.713 95.1907 188.823 95.5331 188.969 95.8236V96H186.177C186.046 95.7164 185.946 95.3567 185.876 94.9209C185.807 94.4782 185.773 94.0424 185.773 93.6135ZM186.157 89.1622L186.177 90.7913H184.445C184.016 90.7913 183.639 90.8362 183.314 90.9261C182.988 91.0092 182.722 91.1337 182.515 91.2997C182.307 91.4588 182.151 91.6525 182.048 91.8807C181.944 92.1021 181.892 92.3546 181.892 92.6382C181.892 92.9149 181.954 93.1639 182.079 93.3853C182.21 93.6066 182.397 93.783 182.639 93.9144C182.888 94.0389 183.179 94.1012 183.511 94.1012C183.995 94.1012 184.417 94.0044 184.777 93.8107C185.136 93.6101 185.416 93.368 185.617 93.0844C185.818 92.8007 185.925 92.531 185.939 92.275L186.727 93.4579C186.63 93.7415 186.485 94.0424 186.292 94.3606C186.098 94.6788 185.849 94.9762 185.544 95.2529C185.24 95.5296 184.873 95.7579 184.445 95.9377C184.016 96.1176 183.518 96.2075 182.95 96.2075C182.224 96.2075 181.574 96.0623 181 95.7717C180.426 95.4812 179.973 95.0835 179.641 94.5785C179.308 94.0735 179.142 93.4994 179.142 92.8561C179.142 92.2612 179.253 91.7355 179.474 91.2789C179.696 90.8224 180.024 90.4385 180.46 90.1272C180.896 89.809 181.436 89.5704 182.079 89.4113C182.729 89.2452 183.473 89.1622 184.31 89.1622H186.157ZM194.592 96H191.832V83.7356C191.832 82.8917 191.995 82.1827 192.32 81.6085C192.645 81.0275 193.109 80.5882 193.71 80.2908C194.312 79.9933 195.021 79.8446 195.837 79.8446C196.107 79.8446 196.363 79.8619 196.605 79.8965C196.854 79.9311 197.1 79.9795 197.342 80.0417L197.29 82.1273C197.159 82.0927 197.013 82.0685 196.854 82.0547C196.702 82.0409 196.533 82.0339 196.346 82.0339C195.972 82.0339 195.654 82.0997 195.391 82.2311C195.128 82.3625 194.928 82.5562 194.789 82.8121C194.658 83.0612 194.592 83.369 194.592 83.7356V96ZM196.865 84.7732V86.7446H190.141V84.7732H196.865ZM203.35 96.2075C202.499 96.2075 201.734 96.0692 201.057 95.7925C200.379 95.5158 199.801 95.1319 199.324 94.6407C198.853 94.1427 198.49 93.5651 198.234 92.908C197.985 92.2439 197.861 91.5314 197.861 90.7705V90.3555C197.861 89.4908 197.985 88.7057 198.234 88.0001C198.483 87.2876 198.836 86.6755 199.293 86.1636C199.749 85.6517 200.296 85.2574 200.932 84.9807C201.568 84.704 202.271 84.5657 203.038 84.5657C203.834 84.5657 204.536 84.7006 205.145 84.9703C205.753 85.2332 206.262 85.6067 206.67 86.0909C207.078 86.5752 207.386 87.1562 207.593 87.8341C207.801 88.5051 207.905 89.2487 207.905 90.0649V91.2167H199.106V89.3282H205.207V89.1207C205.193 88.6849 205.11 88.2872 204.958 87.9275C204.806 87.5609 204.571 87.2703 204.252 87.0559C203.934 86.8346 203.523 86.7239 203.018 86.7239C202.609 86.7239 202.253 86.8138 201.949 86.9937C201.651 87.1666 201.402 87.4156 201.202 87.7407C201.008 88.0589 200.863 88.4394 200.766 88.8821C200.669 89.3248 200.621 89.8159 200.621 90.3555V90.7705C200.621 91.2409 200.683 91.6767 200.807 92.0779C200.939 92.4791 201.129 92.8284 201.378 93.1259C201.634 93.4164 201.938 93.6447 202.291 93.8107C202.651 93.9698 203.059 94.0493 203.516 94.0493C204.09 94.0493 204.609 93.9386 205.072 93.7173C205.542 93.489 205.951 93.1535 206.296 92.7108L207.676 94.1427C207.441 94.4886 207.123 94.8206 206.722 95.1388C206.328 95.457 205.85 95.7164 205.29 95.917C204.73 96.1107 204.083 96.2075 203.35 96.2075ZM223.147 92.0779C223.147 91.7874 223.102 91.528 223.012 91.2997C222.929 91.0645 222.773 90.8535 222.545 90.6667C222.324 90.4731 222.009 90.2863 221.601 90.1064C221.2 89.9197 220.681 89.726 220.045 89.5254C219.339 89.304 218.682 89.055 218.073 88.7783C217.464 88.5016 216.928 88.18 216.465 87.8134C216.008 87.4467 215.652 87.0248 215.396 86.5475C215.14 86.0633 215.012 85.503 215.012 84.8666C215.012 84.244 215.144 83.6768 215.406 83.1649C215.676 82.653 216.057 82.2138 216.548 81.8472C217.039 81.4736 217.617 81.1866 218.281 80.986C218.952 80.7854 219.692 80.6851 220.501 80.6851C221.622 80.6851 222.59 80.8891 223.406 81.2972C224.23 81.7054 224.866 82.2587 225.316 82.9574C225.765 83.656 225.99 84.4412 225.99 85.3127H223.147C223.147 84.8424 223.047 84.4273 222.846 84.0676C222.652 83.7079 222.355 83.4243 221.954 83.2168C221.559 83.0093 221.061 82.9055 220.46 82.9055C219.879 82.9055 219.394 82.992 219.007 83.1649C218.627 83.3378 218.339 83.573 218.146 83.8705C217.959 84.1679 217.866 84.5 217.866 84.8666C217.866 85.1433 217.931 85.3923 218.063 85.6136C218.194 85.8281 218.391 86.0321 218.654 86.2258C218.917 86.4126 219.242 86.589 219.63 86.755C220.024 86.9141 220.48 87.0732 220.999 87.2323C221.829 87.4813 222.556 87.758 223.178 88.0624C223.808 88.3667 224.33 88.7126 224.745 89.1C225.167 89.4873 225.482 89.9231 225.689 90.4073C225.904 90.8916 226.011 91.4415 226.011 92.0571C226.011 92.7074 225.883 93.2884 225.627 93.8003C225.371 94.3122 225.004 94.748 224.527 95.1077C224.05 95.4674 223.476 95.7406 222.805 95.9274C222.141 96.1141 221.397 96.2075 220.574 96.2075C219.84 96.2075 219.114 96.1107 218.395 95.917C217.682 95.7164 217.036 95.4189 216.454 95.0247C215.873 94.6235 215.41 94.1185 215.064 93.5098C214.718 92.8941 214.545 92.1747 214.545 91.3516H217.409C217.409 91.8289 217.485 92.237 217.637 92.5759C217.796 92.908 218.018 93.1812 218.301 93.3956C218.592 93.6031 218.931 93.7553 219.318 93.8522C219.706 93.949 220.124 93.9974 220.574 93.9974C221.155 93.9974 221.632 93.9179 222.006 93.7588C222.386 93.5928 222.67 93.3645 222.856 93.074C223.05 92.7834 223.147 92.4514 223.147 92.0779ZM233.046 96.2075C232.195 96.2075 231.43 96.0692 230.753 95.7925C230.075 95.5158 229.497 95.1319 229.02 94.6407C228.549 94.1427 228.186 93.5651 227.93 92.908C227.681 92.2439 227.557 91.5314 227.557 90.7705V90.3555C227.557 89.4908 227.681 88.7057 227.93 88.0001C228.179 87.2876 228.532 86.6755 228.989 86.1636C229.445 85.6517 229.992 85.2574 230.628 84.9807C231.264 84.704 231.967 84.5657 232.734 84.5657C233.53 84.5657 234.232 84.7006 234.841 84.9703C235.449 85.2332 235.958 85.6067 236.366 86.0909C236.774 86.5752 237.082 87.1562 237.289 87.8341C237.497 88.5051 237.601 89.2487 237.601 90.0649V91.2167H228.802V89.3282H234.903V89.1207C234.889 88.6849 234.806 88.2872 234.654 87.9275C234.502 87.5609 234.267 87.2703 233.948 87.0559C233.63 86.8346 233.219 86.7239 232.714 86.7239C232.306 86.7239 231.949 86.8138 231.645 86.9937C231.347 87.1666 231.098 87.4156 230.898 87.7407C230.704 88.0589 230.559 88.4394 230.462 88.8821C230.365 89.3248 230.317 89.8159 230.317 90.3555V90.7705C230.317 91.2409 230.379 91.6767 230.504 92.0779C230.635 92.4791 230.825 92.8284 231.074 93.1259C231.33 93.4164 231.635 93.6447 231.987 93.8107C232.347 93.9698 232.755 94.0493 233.212 94.0493C233.786 94.0493 234.305 93.9386 234.768 93.7173C235.238 93.489 235.647 93.1535 235.992 92.7108L237.372 94.1427C237.137 94.4886 236.819 94.8206 236.418 95.1388C236.024 95.457 235.546 95.7164 234.986 95.917C234.426 96.1107 233.779 96.2075 233.046 96.2075ZM245.621 93.6135V88.4359C245.621 88.0555 245.556 87.7269 245.424 87.4502C245.293 87.1735 245.092 86.9591 244.822 86.8069C244.553 86.6547 244.21 86.5786 243.795 86.5786C243.429 86.5786 243.107 86.6409 242.83 86.7654C242.56 86.8899 242.353 87.0663 242.208 87.2946C242.062 87.5159 241.99 87.7719 241.99 88.0624H239.24C239.24 87.5989 239.351 87.1597 239.572 86.7446C239.793 86.3227 240.108 85.9491 240.516 85.624C240.931 85.292 241.426 85.0326 242 84.8458C242.581 84.6591 243.231 84.5657 243.951 84.5657C244.802 84.5657 245.559 84.7109 246.223 85.0015C246.894 85.2851 247.42 85.7139 247.8 86.2881C248.188 86.8622 248.381 87.5851 248.381 88.4567V93.3541C248.381 93.9144 248.416 94.3952 248.485 94.7964C248.561 95.1907 248.672 95.5331 248.817 95.8236V96H246.026C245.895 95.7164 245.794 95.3567 245.725 94.9209C245.656 94.4782 245.621 94.0424 245.621 93.6135ZM246.005 89.1622L246.026 90.7913H244.293C243.864 90.7913 243.487 90.8362 243.162 90.9261C242.837 91.0092 242.571 91.1337 242.363 91.2997C242.156 91.4588 242 91.6525 241.896 91.8807C241.793 92.1021 241.741 92.3546 241.741 92.6382C241.741 92.9149 241.803 93.1639 241.927 93.3853C242.059 93.6066 242.246 93.783 242.488 93.9144C242.737 94.0389 243.027 94.1012 243.359 94.1012C243.844 94.1012 244.266 94.0044 244.625 93.8107C244.985 93.6101 245.265 93.368 245.466 93.0844C245.666 92.8007 245.774 92.531 245.787 92.275L246.576 93.4579C246.479 93.7415 246.334 94.0424 246.14 94.3606C245.946 94.6788 245.697 94.9762 245.393 95.2529C245.089 95.5296 244.722 95.7579 244.293 95.9377C243.864 96.1176 243.366 96.2075 242.799 96.2075C242.073 96.2075 241.423 96.0623 240.848 95.7717C240.274 95.4812 239.821 95.0835 239.489 94.5785C239.157 94.0735 238.991 93.4994 238.991 92.8561C238.991 92.2612 239.102 91.7355 239.323 91.2789C239.544 90.8224 239.873 90.4385 240.309 90.1272C240.745 89.809 241.284 89.5704 241.927 89.4113C242.578 89.2452 243.321 89.1622 244.158 89.1622H246.005Z" fill="black"/>
</svg>
