<svg width="1079" height="477" viewBox="0 0 1079 477" fill="none" xmlns="http://www.w3.org/2000/svg">
<rect width="540" height="477" fill="#F9F9F9"/>
<rect x="539" width="540" height="477" fill="url(#paint0_linear_132_615)"/>
<path d="M204.12 364.816C205.185 365.472 206.74 366.017 208.365 366.017C210.788 366.017 212.203 364.746 212.203 362.889C212.203 361.185 211.222 360.208 208.743 359.258C205.745 358.197 203.896 356.647 203.896 354.078C203.896 351.229 206.264 349.106 209.835 349.106C211.712 349.106 213.071 349.539 213.898 350L213.239 351.927C212.637 351.606 211.418 351.061 209.751 351.061C207.244 351.061 206.292 352.555 206.292 353.798C206.292 355.502 207.412 356.354 209.948 357.331C213.057 358.518 214.626 360.012 214.626 362.707C214.626 365.528 212.525 367.972 208.197 367.972C206.432 367.972 204.499 367.455 203.518 366.799L204.12 364.816Z" fill="#1D1D1B" stroke="#1D1D1B" stroke-width="0.3"/>
<path d="M233.564 358.365C233.564 364.662 229.726 368 225.047 368C220.369 368 216.797 364.258 216.797 358.714C216.797 352.905 220.411 349.106 225.313 349.106C230.216 349.106 233.564 352.932 233.564 358.365ZM219.318 358.658C219.318 362.568 221.447 366.073 225.173 366.073C228.899 366.073 231.056 362.624 231.056 358.476C231.056 354.846 229.151 351.033 225.201 351.033C221.251 351.033 219.318 354.65 219.318 358.658Z" fill="#1D1D1B" stroke="#1D1D1B" stroke-width="0.3"/>
<path d="M252.11 359.663C251.97 357.108 251.816 354.05 251.844 351.759H251.76C251.129 353.91 250.373 356.186 249.449 358.714L246.213 367.595H244.42L241.45 358.881C240.582 356.298 239.839 353.938 239.321 351.773H239.265C239.209 354.05 239.069 357.122 238.915 359.859L238.425 367.707H236.169L237.444 349.413H240.47L243.607 358.267C244.364 360.515 244.994 362.526 245.456 364.425H245.54C246.003 362.582 246.661 360.571 247.473 358.267L250.737 349.413H253.763L254.911 367.707H252.6L252.138 359.677L252.11 359.663Z" fill="#1D1D1B" stroke="#1D1D1B" stroke-width="0.3"/>
<path d="M268.037 359.119H260.907V365.71H268.864V367.693H258.54V349.399H268.457V351.382H260.921V357.164H268.051V359.119H268.037Z" fill="#1D1D1B" stroke="#1D1D1B" stroke-width="0.3"/>
<path d="M271.945 349.651C272.981 349.427 274.62 349.274 276.273 349.274C278.64 349.274 280.167 349.679 281.316 350.6C282.268 351.313 282.843 352.388 282.843 353.826C282.843 355.586 281.666 357.136 279.733 357.848V357.904C281.47 358.337 283.515 359.775 283.515 362.498C283.515 364.076 282.885 365.263 281.96 366.157C280.685 367.33 278.612 367.86 275.615 367.86C273.976 367.86 272.729 367.749 271.945 367.637V349.637V349.651ZM274.312 357.15H276.469C278.977 357.15 280.447 355.851 280.447 354.078C280.447 351.927 278.808 351.089 276.413 351.089C275.321 351.089 274.69 351.173 274.312 351.257V357.15ZM274.312 365.919C274.774 366.003 275.461 366.031 276.301 366.031C278.752 366.031 281.008 365.137 281.008 362.47C281.008 359.97 278.851 358.937 276.273 358.937H274.312V365.919Z" fill="#1D1D1B" stroke="#1D1D1B" stroke-width="0.3"/>
<path d="M302.383 358.365C302.383 364.662 298.545 368 293.867 368C289.188 368 285.616 364.258 285.616 358.714C285.616 352.905 289.23 349.106 294.133 349.106C299.035 349.106 302.383 352.932 302.383 358.365ZM288.138 358.658C288.138 362.568 290.267 366.073 293.993 366.073C297.719 366.073 299.876 362.624 299.876 358.476C299.876 354.846 297.971 351.033 294.021 351.033C290.071 351.033 288.138 354.65 288.138 358.658Z" fill="#1D1D1B" stroke="#1D1D1B" stroke-width="0.3"/>
<path d="M305.478 349.651C306.921 349.427 308.63 349.274 310.521 349.274C313.925 349.274 316.348 350.056 317.959 351.55C319.598 353.044 320.55 355.167 320.55 358.113C320.55 361.06 319.626 363.545 317.903 365.221C316.194 366.925 313.35 367.86 309.792 367.86C308.097 367.86 306.683 367.777 305.492 367.637V349.637L305.478 349.651ZM307.845 365.836C308.448 365.947 309.316 365.975 310.241 365.975C315.311 365.975 318.057 363.154 318.057 358.211C318.085 353.896 315.633 351.159 310.619 351.159C309.386 351.159 308.462 351.271 307.845 351.41V365.849V365.836Z" fill="#1D1D1B" stroke="#1D1D1B" stroke-width="0.3"/>
<path d="M326.938 367.693V359.929L321.139 349.399H323.828L326.419 354.455C327.12 355.837 327.666 356.954 328.24 358.225H328.296C328.815 357.038 329.445 355.837 330.145 354.455L332.793 349.399H335.482L329.333 359.901V367.693H326.938Z" fill="#1D1D1B" stroke="#1D1D1B" stroke-width="0.3"/>
<path d="M743.12 364.816C744.185 365.472 745.74 366.017 747.365 366.017C749.788 366.017 751.203 364.746 751.203 362.889C751.203 361.185 750.222 360.208 747.743 359.258C744.745 358.197 742.896 356.647 742.896 354.078C742.896 351.229 745.264 349.106 748.835 349.106C750.712 349.106 752.071 349.539 752.898 350L752.239 351.927C751.637 351.606 750.418 351.061 748.751 351.061C746.244 351.061 745.292 352.555 745.292 353.798C745.292 355.502 746.412 356.354 748.948 357.331C752.057 358.518 753.626 360.012 753.626 362.707C753.626 365.528 751.525 367.972 747.197 367.972C745.432 367.972 743.499 367.455 742.518 366.799L743.12 364.816Z" fill="white" stroke="white" stroke-width="0.3"/>
<path d="M772.564 358.365C772.564 364.662 768.726 368 764.047 368C759.369 368 755.797 364.258 755.797 358.714C755.797 352.905 759.411 349.106 764.313 349.106C769.216 349.106 772.564 352.932 772.564 358.365ZM758.318 358.658C758.318 362.568 760.447 366.073 764.173 366.073C767.899 366.073 770.056 362.624 770.056 358.476C770.056 354.846 768.151 351.033 764.201 351.033C760.251 351.033 758.318 354.65 758.318 358.658Z" fill="white" stroke="white" stroke-width="0.3"/>
<path d="M791.11 359.663C790.97 357.108 790.816 354.05 790.844 351.759H790.76C790.129 353.91 789.373 356.186 788.449 358.714L785.213 367.595H783.42L780.45 358.881C779.582 356.298 778.839 353.938 778.321 351.773H778.265C778.209 354.05 778.069 357.122 777.915 359.859L777.425 367.707H775.169L776.444 349.413H779.47L782.607 358.267C783.364 360.515 783.994 362.526 784.456 364.425H784.54C785.003 362.582 785.661 360.571 786.473 358.267L789.737 349.413H792.763L793.911 367.707H791.6L791.138 359.677L791.11 359.663Z" fill="white" stroke="white" stroke-width="0.3"/>
<path d="M807.037 359.119H799.907V365.71H807.864V367.693H797.54V349.399H807.457V351.382H799.921V357.164H807.051V359.119H807.037Z" fill="white" stroke="white" stroke-width="0.3"/>
<path d="M810.945 349.651C811.981 349.427 813.62 349.274 815.273 349.274C817.64 349.274 819.167 349.679 820.316 350.6C821.268 351.313 821.843 352.388 821.843 353.826C821.843 355.586 820.666 357.136 818.733 357.848V357.904C820.47 358.337 822.515 359.775 822.515 362.498C822.515 364.076 821.885 365.263 820.96 366.157C819.685 367.33 817.612 367.86 814.615 367.86C812.976 367.86 811.729 367.749 810.945 367.637V349.637V349.651ZM813.312 357.15H815.469C817.977 357.15 819.447 355.851 819.447 354.078C819.447 351.927 817.808 351.089 815.413 351.089C814.321 351.089 813.69 351.173 813.312 351.257V357.15ZM813.312 365.919C813.774 366.003 814.461 366.031 815.301 366.031C817.752 366.031 820.008 365.137 820.008 362.47C820.008 359.97 817.851 358.937 815.273 358.937H813.312V365.919Z" fill="white" stroke="white" stroke-width="0.3"/>
<path d="M841.383 358.365C841.383 364.662 837.545 368 832.867 368C828.188 368 824.616 364.258 824.616 358.714C824.616 352.905 828.23 349.106 833.133 349.106C838.035 349.106 841.383 352.932 841.383 358.365ZM827.138 358.658C827.138 362.568 829.267 366.073 832.993 366.073C836.719 366.073 838.876 362.624 838.876 358.476C838.876 354.846 836.971 351.033 833.021 351.033C829.071 351.033 827.138 354.65 827.138 358.658Z" fill="white" stroke="white" stroke-width="0.3"/>
<path d="M844.478 349.651C845.921 349.427 847.63 349.274 849.521 349.274C852.925 349.274 855.348 350.056 856.959 351.55C858.598 353.044 859.55 355.167 859.55 358.113C859.55 361.06 858.626 363.545 856.903 365.221C855.194 366.925 852.35 367.86 848.792 367.86C847.097 367.86 845.683 367.777 844.492 367.637V349.637L844.478 349.651ZM846.845 365.836C847.448 365.947 848.316 365.975 849.241 365.975C854.311 365.975 857.057 363.154 857.057 358.211C857.085 353.896 854.633 351.159 849.619 351.159C848.386 351.159 847.462 351.271 846.845 351.41V365.849V365.836Z" fill="white" stroke="white" stroke-width="0.3"/>
<path d="M865.938 367.693V359.929L860.139 349.399H862.828L865.419 354.455C866.12 355.837 866.666 356.954 867.24 358.225H867.296C867.815 357.038 868.445 355.837 869.145 354.455L871.793 349.399H874.482L868.333 359.901V367.693H865.938Z" fill="white" stroke="white" stroke-width="0.3"/>
<path d="M273.443 209.938C291.159 209.938 305.52 195.62 305.52 177.959C305.52 160.298 291.159 145.981 273.443 145.981C255.727 145.981 241.366 160.298 241.366 177.959C241.366 195.62 255.727 209.938 273.443 209.938Z" fill="url(#paint1_linear_132_615)"/>
<path d="M273.443 145.967C273.443 145.967 249.07 161.397 270.739 180.892C279.76 189.005 289.439 191.784 304.329 203.318C305.506 204.226 306.739 205.092 307.943 205.972C319.471 214.266 327.036 228.175 327.036 243.941C327.036 269.356 305.296 291.07 281.049 291.07C280.377 291.07 279.718 291.042 279.06 291.015C228.255 291.28 211.936 248.116 211.936 248.116C237.093 249.624 234.908 224.055 234.908 224.055L232.905 187.078C232.485 179.286 233.998 171.466 237.696 164.595C242.837 155.072 253.09 145.981 273.429 145.981L273.443 145.967Z" fill="url(#paint2_linear_132_615)"/>
<path d="M812.443 209.938C830.159 209.938 844.52 195.62 844.52 177.959C844.52 160.298 830.159 145.981 812.443 145.981C794.727 145.981 780.366 160.298 780.366 177.959C780.366 195.62 794.727 209.938 812.443 209.938Z" fill="url(#paint3_linear_132_615)"/>
<path d="M812.443 145.967C812.443 145.967 788.07 161.397 809.739 180.892C818.76 189.005 828.439 191.784 843.329 203.318C844.506 204.226 845.739 205.092 846.943 205.972C858.471 214.266 866.036 228.175 866.036 243.941C866.036 269.356 844.296 291.07 820.049 291.07C819.377 291.07 818.718 291.042 818.06 291.015C767.255 291.28 750.936 248.116 750.936 248.116C776.093 249.624 773.908 224.055 773.908 224.055L771.905 187.078C771.485 179.286 772.998 171.466 776.696 164.595C781.837 155.072 792.09 145.981 812.429 145.981L812.443 145.967Z" fill="url(#paint4_linear_132_615)"/>
<defs>
<linearGradient id="paint0_linear_132_615" x1="1010.5" y1="-24.5" x2="645" y2="516.5" gradientUnits="userSpaceOnUse">
<stop stop-color="#FEA34E"/>
<stop offset="1" stop-color="#FD3975"/>
</linearGradient>
<linearGradient id="paint1_linear_132_615" x1="305.534" y1="177.959" x2="241.366" y2="177.959" gradientUnits="userSpaceOnUse">
<stop stop-color="#FE3A76"/>
<stop offset="0.69" stop-color="#FFA44F"/>
</linearGradient>
<linearGradient id="paint2_linear_132_615" x1="246.366" y1="207.019" x2="329.475" y2="257.518" gradientUnits="userSpaceOnUse">
<stop stop-color="#FE3A76"/>
<stop offset="1" stop-color="#FFA44F"/>
</linearGradient>
<linearGradient id="paint3_linear_132_615" x1="844.534" y1="177.959" x2="780.366" y2="177.959" gradientUnits="userSpaceOnUse">
<stop stop-color="#FEFEFE"/>
<stop offset="0.69" stop-color="#E5E4E4"/>
</linearGradient>
<linearGradient id="paint4_linear_132_615" x1="840.5" y1="204" x2="788.763" y2="290.859" gradientUnits="userSpaceOnUse">
<stop stop-color="white"/>
<stop offset="1" stop-color="#DBDCDB"/>
</linearGradient>
</defs>
</svg>
