<svg width="540" height="477" viewBox="0 0 540 477" fill="none" xmlns="http://www.w3.org/2000/svg">
<rect width="540" height="477" fill="black"/>
<path d="M101.367 249.754C103.782 251.248 107.31 252.487 110.996 252.487C116.494 252.487 119.704 249.595 119.704 245.368C119.704 241.491 117.48 239.266 111.854 237.105C105.053 234.69 100.858 231.162 100.858 225.314C100.858 218.831 106.229 214 114.333 214C118.592 214 121.675 214.985 123.55 216.034L122.056 220.42C120.69 219.689 117.925 218.449 114.143 218.449C108.454 218.449 106.293 221.85 106.293 224.678C106.293 228.556 108.835 230.494 114.588 232.719C121.643 235.421 125.203 238.821 125.203 244.955C125.203 251.375 120.435 256.936 110.615 256.936C106.61 256.936 102.225 255.761 100 254.267L101.367 249.754Z" fill="white"/>
<path d="M209.042 235.071C209.042 249.404 200.334 257 189.719 257C179.104 257 171 248.483 171 235.866C171 222.645 179.2 214 190.323 214C201.446 214 209.042 222.708 209.042 235.071ZM176.721 235.738C176.721 244.637 181.551 252.614 190.005 252.614C198.459 252.614 203.353 244.764 203.353 235.325C203.353 227.062 199.031 218.386 190.069 218.386C181.106 218.386 176.721 226.617 176.721 235.738Z" fill="white"/>
<path d="M251.12 238.027C250.802 232.211 250.453 225.25 250.516 220.038H250.326C248.895 224.933 247.179 230.113 245.082 235.865L237.74 256.078H233.672L226.935 236.247C224.964 230.367 223.28 224.996 222.104 220.07H221.977C221.85 225.25 221.532 232.242 221.182 238.471L220.07 256.333H214.953L217.845 214.699H224.71L231.829 234.848C233.545 239.965 234.975 244.542 236.024 248.864H236.215C237.264 244.669 238.757 240.092 240.601 234.848L248.006 214.699H254.87L257.476 256.333H252.233L251.184 238.058L251.12 238.027Z" fill="white"/>
<path d="M287.255 236.787H271.078V251.788H289.13V256.301H265.707V214.667H288.208V219.18H271.11V232.338H287.286V236.787H287.255Z" fill="white"/>
<path d="M296.123 215.24C298.475 214.731 302.193 214.382 305.943 214.382C311.314 214.382 314.779 215.303 317.385 217.401C319.546 219.022 320.849 221.469 320.849 224.742C320.849 228.747 318.179 232.275 313.793 233.895V234.022C317.734 235.008 322.374 238.281 322.374 244.479C322.374 248.07 320.944 250.771 318.847 252.805C315.955 255.475 311.251 256.683 304.45 256.683C300.731 256.683 297.903 256.428 296.123 256.174V215.208V215.24ZM301.494 232.306H306.388C312.077 232.306 315.414 229.351 315.414 225.314C315.414 220.42 311.696 218.513 306.261 218.513C303.782 218.513 302.352 218.704 301.494 218.895V232.306ZM301.494 252.265C302.543 252.456 304.1 252.519 306.007 252.519C311.569 252.519 316.686 250.485 316.686 244.415C316.686 238.726 311.791 236.374 305.943 236.374H301.494V252.265Z" fill="white"/>
<path d="M365.183 235.071C365.183 249.404 356.475 257 345.86 257C335.245 257 327.141 248.483 327.141 235.866C327.141 222.645 335.34 214 346.464 214C357.587 214 365.183 222.708 365.183 235.071ZM332.861 235.738C332.861 244.637 337.692 252.614 346.146 252.614C354.6 252.614 359.494 244.764 359.494 235.325C359.494 227.062 355.172 218.386 346.209 218.386C337.247 218.386 332.861 226.617 332.861 235.738Z" fill="white"/>
<path d="M372.207 215.24C375.48 214.731 379.358 214.382 383.648 214.382C391.371 214.382 396.869 216.161 400.524 219.562C404.242 222.963 406.404 227.793 406.404 234.499C406.404 241.205 404.306 246.862 400.397 250.676C396.52 254.553 390.068 256.683 381.996 256.683C378.15 256.683 374.94 256.492 372.239 256.174V215.208L372.207 215.24ZM377.578 252.074C378.945 252.329 380.915 252.392 383.013 252.392C394.517 252.392 400.747 245.972 400.747 234.722C400.81 224.901 395.248 218.672 383.871 218.672C381.074 218.672 378.976 218.926 377.578 219.244V252.106V252.074Z" fill="white"/>
<path d="M420.897 256.301V238.63L407.739 214.667H413.841L419.721 226.172C421.31 229.318 422.549 231.861 423.852 234.753H423.979C425.155 232.052 426.586 229.318 428.175 226.172L434.181 214.667H440.283L426.331 238.567V256.301H420.897Z" fill="white"/>
<path d="M86 221V216.84C86 215.659 86.2416 214.453 86.7248 213.22C87.2081 211.988 87.8456 210.826 88.6376 209.735C89.4295 208.643 90.2886 207.732 91.2148 207L95 209.138C94.2483 210.267 93.6309 211.448 93.1476 212.681C92.6779 213.913 92.443 215.287 92.443 216.802V221H86Z" fill="white"/>
<path d="M140 207L140 211.16C140 212.341 139.758 213.547 139.275 214.78C138.792 216.012 138.154 217.174 137.362 218.265C136.57 219.357 135.711 220.268 134.785 221L131 218.862C131.752 217.733 132.369 216.552 132.852 215.319C133.322 214.087 133.557 212.713 133.557 211.198L133.557 207L140 207Z" fill="white"/>
</svg>
