<svg width="33" height="33" viewBox="0 0 33 33" fill="none" xmlns="http://www.w3.org/2000/svg">
<g clip-path="url(#clip0_621_42)">
<path d="M0.886719 12.3357C0.886719 16.6201 4.3599 20.0933 8.64429 20.0933V4.57812C4.3599 4.57812 0.886719 8.05131 0.886719 12.3357Z" fill="#080C0A"/>
<path d="M18.3418 20.6462C18.3418 16.4511 14.8686 13.0503 10.5842 13.0503L10.5842 28.2422C14.8686 28.2422 18.3418 24.8414 18.3418 20.6462Z" fill="#080C0A"/>
<path d="M10.584 4.57812C10.584 8.77326 14.0572 12.1741 18.3416 12.1741L18.3416 4.57812L10.584 4.57812Z" fill="#080C0A"/>
<path d="M20.2812 16.4062C26.7078 16.4062 31.9176 11.1096 31.9176 4.57595L20.2812 4.57595L20.2812 16.4062Z" fill="#080C0A"/>
<path d="M31.918 28.2422C31.918 21.7085 26.7082 16.4119 20.2816 16.4119L20.2816 28.2422L31.918 28.2422Z" fill="#080C0A"/>
<circle cx="4.76551" cy="24.3632" r="3.87879" fill="#080C0A"/>
</g>
<defs>
<clipPath id="clip0_621_42">
<rect width="32" height="32" fill="white" transform="translate(0.5 0.5)"/>
</clipPath>
</defs>
</svg>
